<?xml version="1.0" encoding="utf-8"?>
<!-- Generator: Adobe Illustrator 23.1.0, SVG Export Plug-In . SVG Version: 6.00 Build 0)  -->
<svg version="1.1" id="Contours" xmlns="http://www.w3.org/2000/svg" xmlns:xlink="http://www.w3.org/1999/xlink" x="0px" y="0px"
	 viewBox="0 0 1052 1024.7" style="enable-background:new 0 0 1052 1024.7;" xml:space="preserve">
<desc  xmlns:shape="http://adobe.com/products/shape"></desc>
<path d="M1031,708.9c0.6,10.7,1.9,21,1.8,31.3c0,11.2-1.4,22.4-1.8,33.7c-0.3,9.1,0.1,18.3,0,27.5c-0.3,19.2-0.6,38.4-1,57.5
	c-0.3,12.9-0.6,25.8-1.1,38.6s-1.2,25.6-1.9,38.4c-0.6,9-1.5,18.1-2,27.1c-0.5,9.1-0.6,18.1-1.1,27.1c-0.1,2.7-0.5,5.4-0.9,8.1
	c-0.6,3.8,1.5,4.7,4.7,4.7c5.2-0.1,10.4-0.1,15.5,0c1.6,0,3.3,0.3,4.5,1c1.7,1.1,2.9,2.8,4.3,4.2c-2.1,0.9-4.8,3.2-6.2,2.5
	c-6.6-3.1-13.5-1.4-20.2-1.5c-1.5-0.1-3.8,2.1-4.5,3.7c-1.5,3.9-1.9,8.4-5.7,11.1c-0.6,0.4-1.4,0.6-2.1,0.8
	c-0.1-0.6-0.4-1.2-0.3-1.8c0.3-2.9,0.4-5.8,1-8.6c1-4.8-0.1-6.3-5-6.5c-16.5-0.6-33.1-1.8-49.6-1.8c-40.4,0-80.8,0.6-121.1,0.8
	c-5.1,0-10.1-0.8-14.7,2.6c-1,0.8-4.4,0.2-5.1-0.8c-1.8-2.8-4.2-2.6-6.9-2.8c-14-1.2-27.9-2.7-41.8-3.9c-9.9-0.9-19.8-1.5-29.7-2
	c-2.7-0.1-6.1-2.8-8.1,1.4c-0.4,1-0.5,2.3-1.1,3c-0.7,0.8-1.9,1.1-2.8,1.6c-0.4-0.8-0.9-1.5-1.1-2.3c-0.6-3.1-1.9-4.6-5.7-4.9
	c-13-0.9-25.9-2.8-38.8-3.8c-10-0.7-20.1-0.8-30.1-1c-6.5-0.2-13,0.1-19.5-0.1c-17.2-0.5-34.5-1.3-51.7-1.9
	c-9.8-0.4-19.6-0.8-29.4-1c-10.1-0.2-20.1,0.2-30.2-0.1c-12.2-0.4-24.4-1.3-36.6-1.9c-15.6-0.8-31.2-1.5-46.7-2
	c-22.1-0.8-44.2-1.7-66.4-1.9c-19.5-0.2-39,0.7-58.5,0.8c-9.7,0-19.4-0.6-29.1-0.9c-17.9-0.7-35.8-1.3-53.7-2.1
	c-15.9-0.6-31.8-1.6-47.7-1.9c-17.1-0.3-34.2,0.1-51.3-0.1c-14.3-0.1-28.6-0.3-42.9-1c-10.1-0.5-20.2-1.9-30.3-3
	c-5.7-0.6-11.4-1.6-17.2-1.8c-4.8-0.2-9.8,0.1-14.5,1c-7.7,1.3-10.7-0.7-10.7-8.1c0-8.7-0.1-17.3,0-26c0.1-5.5,1.2-11.1,0.9-16.6
	c-1-15-1.1-30-3.6-44.9c-1.5-9.5,0.6-19.7,0.6-29.5c0-9.2-0.6-18.4-0.9-27.6c0-0.8,0-1.7,0-2.5c-0.4-10.7-0.7-21.4-1-32.1
	c-0.3-9.9-0.7-19.7-1-29.6c-0.4-11.2-0.6-22.4-1-33.6c-0.6-13.7-1.5-27.4-2-41.1c-0.5-12.4-0.6-24.9-1-37.3
	c-0.6-14.9-2-29.8-1.8-44.7c0.1-13.6,1.9-27.2,2.7-40.9c0.2-4.2-0.8-8.4-0.9-12.6c-0.4-17.1-0.6-34.1-1-51.2
	c-0.3-9.9-0.7-19.7-1-29.6c-0.4-14.2-0.5-28.4-1.1-42.6c-0.4-11.6-1.7-23.1-1.8-34.7c0-7.4,2.9-12,11.6-12.1
	c16.2-0.1,32.5-1.2,48.7-1.8c11.7-0.5,23.4-0.6,35.1-1.1c19.3-0.8,38.6-2,57.9-2.8c14.1-0.6,28.2-0.7,42.3-1.2
	c15-0.5,30.1-1.2,45.1-2c12.3-0.6,24.6-1.6,36.9-1.9c28-0.5,56.1-0.7,84.2-1.1c11.6-0.1,23.1-0.6,34.6-0.9c11.2-0.4,22.4-0.8,33.6-1
	c19.3-0.4,38.7-0.6,58.1-1.1c18.2-0.5,36.4-1.3,54.6-1.9c6.9-0.2,13.8,0.1,20.7-0.1c5.2-0.1,10.4-0.9,15.6-0.9
	c15.8,0.2,31.5,0.8,47.3,0.9c10.1,0,20.3-0.9,30.5-0.9c19.1,0.1,38.2,0.5,57.3,1c16.1,0.4,32.1,1.3,48.2,2
	c15.5,0.6,31.1,1.4,46.6,1.9c16.8,0.5,33.5,0.7,50.3,1.1c14.6,0.3,29.2,0.5,43.7,1c18.1,0.5,36.2,1.2,54.2,2
	c13.5,0.5,26.9,1.2,40.3,2c7.6,0.4,15.2,1.2,22.7,2.1c1,0.1,2.6,1.9,2.7,3c0.5,7.2,0.4,14.4,1.2,21.6c1,9.9,2.6,19.9,3.9,29.8
	c0.4,3.4,0.7,6.7,1,10.1c2.7,34.5,3.6,69.1,3,103.7c-0.3,15-0.6,30-1,45c-0.6,20.1-1.4,40.2-2,60.3c-0.4,14.1-0.8,28.2-1,42.3
	C1030,696,1030.6,702.2,1031,708.9 M134.5,863.9c1.5-5.6,3.5-11,4.5-16.7c2.9-15.8,5.4-31.7,7.9-47.7c0.7-4.3,0.7-8.7,1.1-13
	c0.6-8.6,1.3-17.1,1.9-25.7c0.1-0.6-0.5-1.3-0.8-1.9c-0.4,0.7-1,1.4-1.1,2.1c-0.4,3.9-0.6,7.9-1,11.8c-2,15.5-3.9,31-6.1,46.5
	c-0.9,7-2.6,13.9-3.7,20.9c-1.2,7.8-2.2,15.8-3.7,23.7c0,0.3-0.1,0.6-0.1,0.9C133.6,864.5,133.8,864.2,134.5,863.9 M98.5,861.9
	c0.8-2,1.9-3.9,2.4-6c2.6-10.6,5.1-21.3,7.4-31.9c3-13.5,5.8-26.9,8.7-40.4c2.3-11,4.7-22,6.8-33.1c1.1-6.1,1.5-12.4,2.1-18.6
	c0.1-0.6-0.7-1.4-1.2-2c-0.5,0.5-1.3,0.9-1.7,1.5c-0.5,0.9-0.8,2-1,3.1c-2.3,9.8-4.6,19.7-6.8,29.6c-2.5,11.7-4.9,23.3-7.2,35
	c-1.8,9.4-3.6,18.9-5.1,28.3c-1.8,11.5-3.3,23-5.4,34.5c0,0.9-0.1,1.9-0.1,2.9C97.6,863.8,97.8,862.8,98.5,861.9 M134.5,380.9
	c-16.1,0.6-32.1,1.3-48.2,1.9c-10.2,0.4-20.5,0.7-30.7,1c-12.6,0.4-25.1,0.8-37.6,1c-7.4,0.2-9.3,1.7-9,9.1c0.4,9.6,1.4,19.2,2,28.9
	c0.4,6.8,0.7,13.7,1,20.5c0.4,10.7,0.7,21.4,1,32.1c0.7,26.1,1.6,52.1,1.8,78.2c0.2,12.5-1.8,25.1-1.7,37.7
	c0.2,21.2,1.2,42.5,1.9,63.8c0.6,18.4,1.4,36.8,2,55.2c0.4,12.8,0.7,25.7,0.9,38.6c0.1,3.8-0.7,7.7-0.9,11.5c0,1.2,0.6,2.3,0.9,3.5
	c0.7-0.9,1.6-1.8,2.2-2.7c0.5-0.7,0.7-1.4,0.9-2.2c3.5-11.8,9.6-22.4,16.1-32.8c10.5-16.6,24.4-30.2,39.7-42.3
	c8.1-6.4,17.2-12.2,26.8-15.7c16.7-6,34.1-10.9,52.2-7.2c9.4,1.8,19.3,3.4,27.8,7.4c13.9,6.5,27.3,14.4,36.7,27.3
	c4.9,6.6,10.6,12.8,14.7,19.9c9,15.6,13.5,32.6,14,50.7c0.5,16.2,0.1,32.5-3.2,48.4c-3.7,18.1-9,35.9-13,54
	c-2,8.7-2.7,17.6-3.7,26.5c-0.1,1.4,1.5,4.2,2.7,4.5c6,1.4,12.1,2.8,18.2,3c6,0.1,12.1-1.4,18.2-1.8c8.8-0.5,17.7-0.7,26.6-1
	c11.5-0.4,23-0.7,34.5-1.1c9.6-0.3,19.1-0.8,28.6-0.9c7.4,0,14.7,0.7,22.1,0.9c10.9,0.4,21.8,1,32.8,1c51.1,0.1,102.3,0.1,153.5,0
	c4.8,0,9.7-0.9,14.5-0.8c1.8,0.1,3.5,2.1,5.2,3.2c-1.8,0.9-3.5,2.5-5.2,2.5c-23.5,0.5-47.1,1-70.6,1.1c-10.9,0-21.7-0.7-32.6-0.9
	c-20.2-0.4-40.4-0.7-60.6-1.1c-12.8-0.2-25.7-0.8-38.5-0.9c-9.1,0-18.1,0.7-27.1,0.9c-12.9,0.4-25.8,0.7-38.6,1.1
	c-14.7,0.3-29.4,0.6-44.1,1c-3.5,0.1-7.2,0.2-10.6,1c-8.6,2.2-16.9,0.6-25.2-1c-1.4-0.3-4.1-0.4-4.1-0.2c-0.5,2.7-0.7,5.5-0.7,8.2
	c0,0.4,2.2,1,3.3,0.9c10-0.9,20.1-2.2,30.2-2.9c16.9-1.2,33.8-2.3,50.8-3c18.5-0.6,37.1-0.9,55.7-1c10.1,0,20.2,0.8,30.3,0.9
	c33,0.4,66,0.7,99.1,1.1c4.8,0.1,9.7,0.6,14.5,0.9c0.6,0.1,1.3-0.3,1.9-0.3c9.9-0.2,19.8-0.5,29.7-0.5c5.2,0,10.4,0.8,15.6,0.8
	c6.9-0.1,13.7-0.8,20.6-0.9c2.2,0,4,1.6,3.1,4.1c-0.4,0.9-2.2,1.8-3.4,1.8c-20.2,0.1-40.5,0.2-60.7,0c-8.8-0.1-17.7-0.9-26.6-0.9
	c-8.5,0-17,1-25.5,0.9c-12.8-0.3-25.5-1.7-38.2-1.9c-28.2-0.2-56.3,0-84.5-0.1c-4.3,0-8.6-0.8-12.8-0.6c-21.2,1.1-42.3,2.2-63.5,3.7
	c-11.8,0.9-23.5,2.7-35.3,3.9c-3.8,0.4-4.4,2.4-4.5,5.6c-0.1,7.5,1.4,15.3-2.8,22.3c-0.3,0.6,0.6,2.7,1.5,3.2
	c6.7,3.7,13.6,7.3,20.4,11c5.2,2.8,11.5,4.4,12.1,12c0.1,0.7,2.1,1.8,3.3,1.9c10.4,0.8,20.8,1.6,31.2,2c13.3,0.5,26.7,0.8,40,1
	c4.9,0,9.8-1,14.6-0.9c31.3,0.6,62.5,1.3,93.7,2c12.2,0.2,24.4,0.4,36.6,1c17.1,0.8,34.3,2.4,51.4,2.9c36.4,0.9,72.9,1.4,109.3,2.1
	c4.9,0,9.8,0,14.6,0.3c17.3,1.1,34.6,2.4,52,3.7c5.7,0.4,11.4,1.2,17.1,2c3.6,0.5,6.6-1.7,6-5.4c-1.7-10.8-4.2-21.4-5.8-32.1
	c-0.9-6-1.2-12.3-0.6-18.4c0.9-8.7,3-17.4,4.5-26.1c1.3-7.4,2.3-15,3.9-22.4c1.8-8.3,3.9-16.6,6.1-24.9
	c4.4-16.9,10.9-32.7,23.9-45.1c0.2-0.3,0.4-0.6,0.7-0.7c1.8-0.5,3.6-0.9,5.5-1.4c-0.3,2.2,0.4,5.2-0.8,6.4
	c-7,6.7-12.3,14.6-16.2,23.3c-8.1,17.6-12.4,36.2-15.2,55.3c-1.1,7.8-2.6,15.5-3.9,23.3c-1.1,6.3-2.5,12.5-2.9,18.8
	c-1,13.5,4.7,26,7,39c0.4,1.9,1.4,4.2,0.7,5.6c-2.3,4.9,0.7,4.7,3.9,4.8c6.1,0.2,12.1,0.2,18.1,1c10.4,1.4,20.6,3.9,31,4.8
	c11.8,1,23.7,1,35.5,1c1.6,0,3.9-2.1,4.6-3.7c4.3-11,10-21,18.7-29.3c7-6.6,13.7-13.6,20.5-20.5c7.2-7.4,7.8-13,2.2-21.5
	c-4-6.2-7.9-12.5-12.4-18.3c-4.5-5.8-9.8-10.9-14.2-16.6c-1.3-1.7-1.9-5.5-0.9-6.9c2.9-3.6,6.8-6.4,10.2-9.6
	c1.3-1.1,2.6-2.2,3.5-3.5c3.8-6.1,3.1-12.4,1.1-18.9c-0.8-2.4-1.3-4.9-1.5-7.3c-0.1-0.9,1-1.8,1.5-2.7c0.8,0.6,1.9,1.2,2.3,2
	c1.8,4.1,3.5,8.2,5,12.4c2,5.5,2.3,11.3-1.2,16.1c-3,4.1-7,7.5-10.8,11c-2.4,2.2-2.2,3.6-0.1,6c4.6,5,9.3,10,12.7,15.7
	c5.8,9.7,10.8,19.8,16,29.9c1.7,3.3,4.2,3.6,6.8,1.8c3.2-2.2,5.6-5,4.8-9.5c-0.2-1,1.1-2.3,1.8-3.4c0.7,1,2,2.2,2,3.2
	c-0.3,3.6,1.3,2.8,3.2,1.8c0.9-0.4,1.8-0.7,2.6-1.1c19.5-9,39.4-16.9,60-22.8c6.1-1.8,12.5-2.1,18.7-3.2c1.3-0.3,2.4-1.5,3.6-2.3
	c-1-0.7-1.9-1.7-3-2c-1.9-0.6-4.1-0.5-6-1.2c-4.9-1.9-9.8-3.9-14.3-6.4c-3.2-1.7-6.5-3.9-8.6-6.7c-2.6-3.5-4.1-7.9-6.1-11.9
	c-0.5-0.9-1.3-1.6-1.9-2.4c-0.7,0.6-1.9,1-2.1,1.8c-1.5,6.2-6,9.9-10.7,13.5c-1.7,1.2-3.1,2.9-4.3,4.6c-1.7,2.6-3.5,4-7,4.2
	c-5.2,0.4-8.9-3.3-13.4-4c-8.1-1.2-13.1-5.2-16.1-12.8c-0.8-2.3-4-3.6-6-5.4c-3.5-2.9-7.5-5.5-10.4-9c-5.8-7.1-7-16.2-9-24.7
	c-1.2-5,0.7-9.5,4.3-13.1c0.9-0.9,2.3-1.2,3.5-1.7c0,1.2,0.2,2.4,0.1,3.6c-0.3,2.8-1.1,5.5-1.1,8.3c0,9.2,4.3,17.1,8.1,25.1
	c0.5,1,1.5,1.7,2.3,2.6c0.6-1.1,1.6-2.2,1.6-3.3c0.2-4.2-0.3-8.5,0.2-12.6c0.6-5,1.9-9.9,2.9-14.8c0.8-3.8,3.9-1.9,6-2.2
	c0.2,0,0.9,2.1,0.9,3.2c0.1,10.9-0.5,21.8,0.4,32.6c0.4,4.8,3.5,9.6,6.3,13.8c1.1,1.6,4.9,1.4,7.3,2.3c1.5,0.5,2.7,1.6,4,2.4
	c1.2,0.8,2.2,1.9,3.5,2.5c2.6,1.4,5.4,3.5,5.8-2.2c0.1-1.3,2.8-3.1,4.6-3.6c5.6-1.6,10.7-7.4,11.2-13.4c0.1-1.5,0.3-3.5,1.3-4.4
	c3.2-2.7,4.5-6.3,6.1-10c1-2.4,3.5-4.6,5.8-5.9c3.8-2.1,8.3-3.1,8.7-8.7c0-1.2,1.4-2.4,2.4-3.5c1.3-1.5,3-2.6,4.1-4.3
	c12.3-18.2,16.9-38.2,13.6-60c-1.2-7.9-2.8-15.8,5-21.5c0.5-0.4,0.8-1.4,1-2.1c1-5.3,1.9-10.5,3-15.8c0.8-3.9,2.4-7,7-7.7
	c1.1-0.2,2.8-2.1,2.8-3.3c0.1-4-0.3-8.1-0.9-12.1c-1.2-9.4-3.9-18.5-8.8-26.8c-0.4-0.7-0.6-1.6-0.9-2.4c0.9,0.1,2.2-0.2,2.7,0.3
	c2.8,2.6,5.9,5,8,8.1c6.2,9,6.9,19.8,7.8,30.1c0.4,5.3-2.3,10.9-3.7,16.3c-3.6,13.5-7.3,27-11,40.5c-1.2,4.3-3,8.5-4,12.8
	c-1.5,7-1.5,14.4-4.1,20.9c-4.1,10.4-9.7,20.2-15,30.2c-2.6,5-5.3,9.8-11.1,12.3c-7.4,3.3-9.3,11.2-4.5,18c2.1,2.9,4.8,5.5,7.7,7.7
	c6.8,5,13.6,10.3,21,14.4c10.3,5.7,21.2,10.1,32.8,12.6c5.9,1.2,7.1,0.6,7.2-5.4c0.3-15.9,0.6-31.7,1-47.6
	c0.6-27.5,1.8-55.1,1.8-82.6c0.1-21.9-1.6-43.8-1.7-65.7c-0.2-22.7,0.5-45.4,0.9-68.1c0.2-7.9,0.7-15.7,1-23.6
	c0.4-12.8,0.8-25.7,0.9-38.6c0.3-23.3,0.6-46.7,0.2-70.1c-0.2-15.6-1.2-31.2-2.2-46.7c-0.7-12.5-2-24.9-2.9-37.3
	c-0.8-10-1.2-20.1-2.2-30.1c-0.1-1.7-2.2-4.2-3.7-4.5c-7.2-1-14.4-1.6-21.7-2.1c-9.8-0.8-19.7-1.6-29.6-2c-19.3-0.8-38.5-1.5-57.7-2
	c-8.7-0.2-17.3,0.1-26-0.1c-4.7-0.1-9.3-1.1-14-1.2c-5.4-0.2-10.8,0.1-16.3,0.3c-0.6,0-1.2,0.3-1.8,0.4c0.6,0.2,1.1,0.4,1.7,0.5
	c7.1,1.4,14.2,3.1,21.4,4c12.9,1.5,22.4,8.2,29.9,18.3c9,12.2,11.7,26.3,11.9,41c0.1,10.9-0.6,21.7-0.9,32.6
	c-0.4,15.7-0.6,31.4-1,47.1c-0.2,6.7-1,13.4-1,20.1c0.1,12.8,0.5,25.7,1,38.5c0.5,12.3,1.3,24.6,1.9,36.9c0.1,1.2-0.3,3.1-1,3.4
	c-2.3,1.1-4.8,1.5-7.3,2.2c0.1-1.6,0.2-3.2,0.4-4.8c0.3-2.5,1-5.1,0.9-7.6c-0.5-11.6-1.5-23.1-1.8-34.7c-0.4-10.9-0.2-21.8-0.1-32.7
	c0.2-15.2,0.7-30.3,1-45.5c0.3-20.8,0.4-41.6,1.1-62.3c0.4-11.5-4-21.2-9.2-30.7c-3.6-6.6-9.8-11.1-16.6-13.5
	c-8.1-2.9-16.6-5-25-6.1c-14.9-1.9-29.9-3.2-44.8-4c-14.1-0.9-28.3-0.9-42.5-1.1c-8.6-0.2-17.2,0-25.8,0c-15.4,0-30.9-0.2-46.3,0
	c-29.8,0.3-59.6-0.7-89.3,2.6c-20.4,2.3-41.1,1.8-61.7,2.3c-17.5,0.5-35,0.6-52.5,1.1c-17.9,0.5-35.8,1.7-53.7,1.9
	c-25.4,0.2-50.7,0.4-75.9,2.9c-10.2,1.1-20.4,0.9-30.6,1.1c-14.1,0.4-28.1,0.7-42.1,1.1c-20.4,0.6-40.8,1.3-61.2,1.9
	c-14.5,0.5-29,0.7-43.6,1c-16.8,0.4-33.7,1.2-50.5,0.8c-8.1-0.1-14.8,3-21.8,5.8c-1.8,0.7-3.6,2.2-5,3.7c-6.1,7.2-6.6,16.4-6.8,25.1
	c-0.4,12,0.8,24.1,0.7,36.2c-0.2,12.7-1.2,25.5-1.9,38.2c-0.7,12-1.5,24.1-2,36.2c-0.5,14.5-0.7,29.1-1,43.7
	c-0.1,0.8-0.4,1.5-0.5,2.3c-0.5,6.2-1.3,12.4-1.4,18.6c-0.2,4.3,1,8.6,0.8,12.9c-0.5,13.1-1.3,26.2-1.9,39.3c-0.1,3,0.1,6-0.1,9
	c0,1.6-0.1,3.5-1,4.5c-1.2,1.3-3.1,1.9-4.7,2.8c-0.4-1.4-1.2-2.8-1.2-4.2c0.3-13.2,0.6-26.3,1-39.5c0.6-17.9,1.2-35.8,2-53.7
	c0.9-18.6,2.1-37.2,3-55.8c0.7-16.2,1.4-32.4,1.9-48.6c0.1-3.7-0.9-7.4-0.9-11.1c0.2-13.4,0.8-26.7,0.9-40.1c0-6.8,2.5-12.8,5.9-18
	c5.8-8.9,15.8-12.1,25.4-12.7c21.1-1.4,42.4-0.9,63.6-1.4c18-0.4,36.1-1.4,54.1-1.9c15.1-0.5,30.2-0.7,45.3-1
	c16.8-0.4,33.7-0.7,50.6-1.1c5.7-0.1,11.4-0.6,17.1-0.9c11.3-0.7,22.7-1.5,34.1-2c10.7-0.5,21.4-0.7,32.1-1
	c19.9-0.7,39.8-1.5,59.7-2c18.5-0.5,37-0.7,55.6-1.1c14.7-0.2,29.4-0.6,44-1c5-0.1,9.9-0.7,14.8-0.9c17.7-0.7,35.4-1.5,53.2-2
	c10.3-0.3,20.6,0.1,31-0.1c7.5-0.1,15-0.6,22.6-1c0.6,0,1.3-0.8,2-1.2c-0.5-0.2-1-0.7-1.6-0.7c-21.4-0.4-42.8-0.9-64.2-1
	c-11.4,0-22.8,0.6-34.1,0.9c-13.3,0.4-26.5,0.7-39.8,1.1c-24.7,0.6-49.4,1.3-74.1,2c-13,0.3-25.9,0.6-38.8,0.9
	c-14.9,0.4-29.7,0.7-44.6,1.1c-14.2,0.3-28.4,0.7-42.6,0.9c-19.8,0.4-39.7,0.8-59.5,1c-7.4,0.1-14.8-0.2-22.2,0.1
	c-13.9,0.5-27.8,1.3-41.7,1.9c-16.7,0.8-33.4,1.4-50.2,2.1c-7.3,0.3-14.7,0.7-22,0.9C158.9,380.2,147.2,380.5,134.5,380.9
	 M871.5,950.9c-1.2,0.8-2.5,1.4-3.5,2.5c-6.3,6.5-12.5,13-18.7,19.7c-2.3,2.4-4,5.5-6.4,7.8c-4.7,4.5-4,11-6.7,16.2
	c-1.5,2.8-0.8,3.8,2.4,3.8c8.2-0.1,16.4,0,24.7-0.1c31.3-0.3,62.6-0.8,94-0.9c15.7,0,31.4,0.6,47,1c1.1,0,2.1,0.6,3.1,0.9
	c4.7,1.2,8-0.5,8.6-4.4c0.4-3.3,0.8-6.7,1-10c0.7-14.9,1.3-29.8,2-44.7c0.2-4.8,0.8-9.6,1.1-14.5c0.3-5,0.8-10.1,0.7-15.1
	c0-1.1-2.2-2.9-3.6-3.1c-8.5-1.3-16.4-4.9-25.5-4.4c-9.6,0.5-19.1,1.1-28.3,4.3c-13.4,4.6-26.9,8.9-40,14.3
	c-11.6,4.7-23.2,9.5-33.3,17.5C885,945.7,878.4,947.9,871.5,950.9 M171,849.4c-0.4,1.5-0.7,3-1,4.6c-2.6,11-5.1,22.2-7.9,33.2
	c-1.8,6.9-4.1,13.6-6.1,20.5c-0.3,1.2,0.1,2.6,0.2,3.9c0.7-0.9,1.7-1.6,2.1-2.6c4.6-10.9,9.3-21.8,13.8-32.8
	c6.1-15.2,9.3-31.2,10.9-47.4c0.7-7.3,1.1-14.5,2-21.7c1.5-11.5,3.4-22.9,5-34.4c1.4-10.6,2.5-21.3,4-31.9c1.8-12.5,3.9-25,6.1-37.5
	c0.2-1.3,2-3.1,3.3-3.3c2.1-0.3,4.2,0.8,3.5,3.6c-0.4,2.3-1.6,4.5-1.9,6.7c-0.8,8.2-1.4,16.5-2,24.7c-0.5,7.2-0.6,14.4-1,21.6
	c-0.3,4-0.6,8-1,12.1c-1.3,12.2-2.7,24.5-4,36.8c-1,8.6-1.5,17.3-3.1,25.7c-2.6,12.9-5.9,25.6-8.9,38.3
	c-4.3,18.3-9.3,36.3-16.7,53.6c-2.5,5.8-4.3,11.9-6.3,17.9c-0.2,0.8,0.3,1.9,0.4,2.8c0.5-0.7,1.2-1.4,1.6-2.2
	c5.2-11,11-21.8,15.6-33.1c4.1-10.1,7.4-20.6,10.3-31.2c2.6-9.7,4.2-19.6,6-29.5c1.9-10.3,3.7-20.6,5-30.9c1.3-10.4,2.3-20.8,3-31.3
	c0.9-13.5,1.2-27.1,2.1-40.6c0.8-11,1.9-22,3.1-32.9c0.1-1.2,1.3-2.2,2.1-3.2c0.9,0.8,2.2,1.5,2.7,2.5c0.7,1.2,1.1,2.7,1,4.1
	c-0.2,9.9-0.6,19.7-0.9,29.6c-0.4,11.6-0.6,23.1-1,34.7c-0.2,4.9-0.5,9.8-1.1,14.6c-1.1,8.5-2.8,16.9-3.9,25.4
	c-1.2,9.3-1.5,18.9-3.1,28.2c-2.2,12.1-4.9,24.2-8,36.2c-3.6,13.4-7.9,26.7-11.8,40.1c-1.6,5.5-2.8,11.1-4.1,16.8
	c-0.1,0.5,0.3,1.1,0.5,1.7c0.2-0.5,0.4-1.1,0.7-1.6c3.2-6.2,6.7-12.2,9.4-18.6c3.8-9.1,7.5-18.3,10.2-27.8
	c2.5-8.6,3.8-17.5,5.1-26.4c1.9-12.4,3.5-24.9,5-37.4c0.7-5.8,0.2-11.8,1.3-17.5c0.8-4.5-0.2-9.9,4.8-12.9c0.4-0.3,0.9-1,0.9-1.6
	c0.8-5.5,1.4-11.1,2.1-16.7c0.9-7.4,2.1-14.8,2.9-22.2c0.6-5,1.3-10.1,0.9-15.1c-0.2-2.5-1.4-5.1,1.5-6c3.4-1.1,5.8,1.1,6.6,4.2
	c1.3,5.2,2.8,10.5,2.9,15.8c0.2,11-0.1,22.1-0.9,33.1c-0.8,10.6-1.8,21.3-4.1,31.8c-3.5,16.1-8,31.9-12.3,47.9
	c-3.2,12.1-6.7,24.2-5.6,37.1c1,10.7,1.3,21.5,2.2,32.2c0.1,1.9,1.3,3.8,2.3,5.5c0.3,0.6,1.5,1,2.3,0.9c0.5,0,1.3-1.2,1.2-1.8
	c-0.4-7.6-1-15.3-1.4-22.9c-0.1-1.3-0.1-2.7,0.1-4c0.4-2.4,1.3-4.7,1.3-7c0-5.8,1.5-12.1-3.4-17.1c-0.6-0.6-0.2-2.4-0.3-3.6
	c0.7,0.5,1.4,1.3,2.2,1.6c1.6,0.6,3.5,1.8,3.6-1.6c0.2-4.4,0.3-8.8,1-13.1c1.8-10.2,3.4-20.5,6-30.5c4.6-17.2,9.9-34.2,10.8-52
	c0.7-14.4-0.1-29-0.9-43.5c-0.8-13-7.1-24.4-13.1-35.5c-3.7-6.8-9.6-12.4-14.3-18.7c-9.9-13.1-23.4-21.2-38.3-26.8
	c-13.4-5-27.5-6.5-42-4.3c-12.4,1.9-24.7,4.4-35.7,10.4c-8.2,4.6-15.9,10.6-22.9,16.9c-9.3,8.3-19,16.6-26.3,26.6
	c-8.1,11-13.9,23.7-20.2,36c-3.3,6.5-6.9,13.5-7.8,20.7C18,787.4,19,797.9,19,808.2c0,0.8,0.9,1.7,1.3,2.5c0.6-0.7,1.5-1.2,1.6-2
	c1.1-5,1.9-10.2,3.1-15.2c2.6-10.1,4.8-20.3,8.2-30.1c2.5-7.1,6.2-13.8,10.2-20.3c4.4-7.2,9.2-14.4,14.8-20.8
	c7.5-8.4,16.1-16,23.9-24.2c2.4-2.5,4.9-3.1,6.7-0.5c0.9,1.1-0.3,4.1-1.2,6c-0.8,1.6-2.5,2.9-3.5,4.5c-0.4,0.6,0.2,1.8,0.4,2.7
	c0.5-0.6,1-1.2,1.5-1.8c3.1-4.7,6.2-9.5,9.5-14.1c1.9-2.6,4.5-4.8,7.8-2.2c3.3,2.6,0.6,5-0.9,7.2c-3.5,5.3-7,10.4-10.4,15.7
	c-0.5,0.9-0.3,2.2-0.4,3.3c1.1-0.5,2.5-0.8,3.3-1.6c2.1-2,3.5-4.7,5.7-6.5c3.3-2.5,7.8-1.9,8.3,0.9c0.3,1.9,0.1,4.3-0.5,6.2
	c-6.4,18.8-12.9,37.6-19.4,56.4c-7.8,22.4-11.6,45.7-15.9,68.9c-0.3,1.7,0.8,3.6,1.2,5.5c0.6-1.3,1.1-2.7,1.7-3.9
	c0.3-0.8,0.8-1.4,1-2.1c3.3-13.1,6.2-26.4,10.1-39.3c7.9-25.7,16.5-51.2,24.6-76.8c1.5-4.8,3.4-9.9,2.9-14.6
	c-0.4-3.8-0.3-4.9,3.2-4.1c5.1,1.3,5.9-1,5.2-5.2c-0.1-0.8-0.1-1.7,0-2.5c0.2-1.2,0.7-3.2,0.9-3.2c2,0.2,4.2,0.4,5.9,1.4
	c0.9,0.5,1,2.5,1.1,3.9c0.5,6.4,0.7,12.7,1.1,19.1c0.1,0.8,0.9,1.6,1.3,2.5c0.6-0.7,1.5-1.4,1.6-2.2c0.8-5.3,1.3-10.8,2.2-16.1
	c0.2-1.3,1-3.3,2-3.6c2.4-0.7,4.1,0.3,3.9,3.3c-0.4,6.1-0.4,12.2-1.1,18.3c-0.9,8.1-2.3,16.3-3.6,24.4c-1.7,10.6-3.6,21.2-5.3,31.8
	c-0.2,1.3,0.5,2.7,0.7,4.1c0.8-1.3,1.9-2.4,2.2-3.7c2.1-9.1,3.8-18.4,6.1-27.5c4.4-16.7,5.7-33.8,6-51c0-2-0.3-4.1,0.1-6
	c0.3-1.4,1.6-2.6,2.4-3.8c1.5,1.1,3.5,2,4.3,3.5s0.3,3.6,0.2,5.5c-0.4,6.7-0.8,13.5-1.2,20.3c0,0.8-0.1,1.7-0.2,2.6
	c0.4-1,1.1-1.9,1.3-3c2.8-13.8,5.3-27.8,8.2-41.6c0.4-1.8,0.1-5.1,4-4.4c3,0.5,4.1,2.2,3.9,5.1c-0.3,2.9-1.1,5.7-0.9,8.6
	c0.8,12.1,2,24.1,2.8,36.2c0.4,5.7,0.1,11.4,0.1,17c0,0.7,0.4,1.4,0.6,2c0.5-0.4,1.1-0.8,1.3-1.4c0.5-1,0.9-2,1-3.1
	c1.1-10.7,2.1-21.5,3.1-32.2c0.4-5.5,0.4-11.1,1.2-16.6c0.2-1.5-0.6-4.5,3.1-4.7c3.6-0.1,5.5,1.5,5.6,4.5c0.5,13.5,1.4,27,0.9,40.5
	c-0.4,10.5-2.5,20.9-3.8,31.4c-1,7.7-1.7,15.5-3.1,23.2c-2.4,14.1-5.2,28.2-7.9,42.2C173.7,834.5,172.3,841.4,171,849.4 M74.5,927.9
	c2.1-11.3,4.5-22.5,6.4-33.9c2.6-14.6,4.6-29.4,7.1-44c1.7-9.8,3.7-19.5,5.6-29.2c1.4-7.6,2.9-15.1,4.3-22.7c0.2-1-0.3-2.1-0.4-3.2
	c-0.9,1-2,1.8-2.5,3c-1.8,4.9-3.7,9.8-5,14.9c-4.5,18.7-9.2,37.3-12.9,56.1c-3.3,16.9-5.8,34.1-8,51.2c-1.6,11.8-2.1,23.8-3.2,35.7
	c-0.2,2.8-1,5.4-4.9,5.1c-4.5-0.4-11.2-5.6-12-9.9c-0.5-2.6-0.6-5.4-1-8.1c-1.7-11.8-3.3-23.6-5-35.4c-0.1-0.5-0.4-1.1-0.6-1.6
	c-0.7,0.3-1.8,0.6-2,1.1c-0.4,1-0.4,2.2-0.4,3.4c0.3,8.8,0.6,17.7,1,26.5c0.2,2.7-0.2,5.1-3.1,5.9c-3.1,0.8-5.2-0.8-6.3-3.8
	c-1.2-3.4-2.3-6.7-3.7-10c-0.5-1.1-1.7-1.9-2.6-2.9c-0.5,1.1-1.3,2.3-1.3,3.5c0.1,4.4,0.6,8.9,0.5,13.4c0,6.5-0.5,13-0.4,19.6
	c0,2.8,0.5,6,4.6,6.3c17.5,1.3,34.9,2.9,52.5,3.9c13,0.7,26,0.7,39,1c29.8,0.7,59.6,1.4,89.4,2.1c13.6,0.3,27.1,0.6,40.7,0.9
	c1.2,0,2.5-0.4,3.7-0.6c-0.9-1.1-1.6-2.3-2.7-3.3c-0.6-0.6-1.7-0.6-2.5-1.1c-9.6-5.3-19.8-9.8-28.7-16.2
	c-6.9-4.9-12.2-12.1-18.1-18.4c-0.9-0.9-1.4-2.2-2-3.3c-0.7,1.1-1.5,2.2-1.9,3.4c-0.3,1.2,0,2.6-0.1,3.9c-0.3,5.1-0.3,10.2-1.2,15.1
	c-0.3,1.7-2.7,4.1-4.3,4.3c-2.1,0.2-3-2.2-2.5-4.6c1.3-6.7,2.7-13.5,4-20.3c0.3-1.9,0.3-3.9,0.5-5.8c-1.5,1.7-2.9,3.5-4.3,5.2
	c-0.2,0.4,0,1-0.2,1.4c-3.5,6.7-5.6,14.4-13,18.3c-1.1,0.6-2.8,0.3-4.2,0.4c-0.1-1.5-0.5-3.1-0.1-4.4c2.5-8.8,5.3-17.5,8-26.2
	c0.5-1.5,0.5-3.2,0.8-4.7c-1.2,1.1-2.8,2.1-3.4,3.5c-3.8,7.9-7,16.2-11.3,23.8c-2.7,4.8-6.9,8.8-10.8,12.9c-0.8,0.9-3,0.5-4.6,0.7
	c0.2-1.5,0.1-3,0.6-4.4c2.7-8.5,5.6-17,8.4-25.5c4.6-13.6,9.2-27.2,13.8-40.8c0.2-0.6,0.3-1.3,0.5-2c-0.8,0.7-2,1.2-2.4,2
	c-3.5,7.9-6.7,16-10.4,23.7c-4.9,10.5-10.2,20.8-15.6,31.1c-0.8,1.4-3.3,1.9-5,2.8c-0.2-2.1-0.9-4.3-0.4-6.1c1-3.7,3-7.1,4-10.8
	c5.8-21.3,11.8-42.6,17-64c3.6-15.1,6.2-30.5,9-45.7c1.6-8.3,2.8-16.6,4.2-24.8c1.6-9.9,3.3-19.7,4.9-29.5c1-6.4,2.1-12.8,2.8-19.3
	c0.6-6.3,0.8-12.7,1.1-19c0.1-0.6-0.4-1.1-0.6-1.6c-0.4,0.4-1.1,0.9-1.3,1.4c-0.7,3.4-1.5,6.8-2,10.2c-1.1,7.2-1.9,14.5-3,21.8
	c-1.3,7.9-2.7,15.8-4,23.8c-1.3,7.6-2.5,15.3-3.7,23c-1.5,8.9-2.8,17.8-4.3,26.7c-1.5,8.7-2.7,17.5-4.6,26.1
	c-2.9,12.4-5.6,24.9-9.6,37c-5.3,16.2-11.7,32.2-18,48c-1,2.5-4.1,4.4-6.6,6c-0.9,0.6-2.7-0.2-4-0.4c0.1-0.9,0-1.8,0.3-2.7
	c4.8-13.8,10.2-27.5,14.3-41.5c5-16.7,8.9-33.7,13.2-50.6c2-8.1,4.4-16.3,5.9-24.5c2.3-12.8,4.2-25.7,6-38.5
	c1.9-12.6,4.4-25.3,4.8-37.9c0.7-16.5-0.4-33.1-0.8-49.6c0-1.1-0.9-2.2-1.4-3.3c-0.5,0.9-1.3,1.9-1.5,2.9
	c-1.1,7.1-1.6,14.2-3.1,21.2c-3.1,13.8-4.5,27.8-4.9,42c-0.2,5.2-0.4,10.4-1.1,15.5c-1.5,12.5-3.1,25-5,37.5
	c-1.5,10.5-2.3,21.2-5.1,31.3c-6.8,24.3-14.3,48.4-21.9,72.4c-2,6.2-5,12-8,17.7c-1.3,2.5-3.6,4.8-7.2,2.7c-3.3-1.8-1.4-4-0.7-6.3
	c1.3-4.1,2.6-8.2,3.9-12.3c3.4-11,7-21.8,10-32.9c3.9-14.2,7.5-28.6,10.7-43c2.3-10,3.7-20.2,5.4-30.3c1.2-7.5,2.5-15,3.5-22.5
	c0.4-2.9,0.1-5.8,0.2-8.7c-1.3,2.5-3.1,4.9-3.6,7.5c-2.9,14.4-4.8,29-8.3,43.2c-4.9,20.5-10.8,40.8-16.4,61.1
	c-3,10.6-6.2,21.1-9.6,31.5c-1.6,4.9-4.1,9.4-5.7,14.2c-1.3,3.6-4,1.8-6.2,2.3c0-1.4-0.2-2.7,0.1-4c2.4-8.6,5-17.2,7.3-25.9
	c1.2-4.4,1.8-9,2.6-13.4c0.1-0.5-0.3-1.1-0.5-1.7c-0.2,0.6-0.4,1.1-0.7,1.7c-2.2,5.6-4.8,11-6.6,16.7c-3,9.5-5.7,19.1-8,28.7
	c-1,4.5-3.6,5.9-7.2,4.7c-3.5-1.2-2.1-4.5-1.2-7c0.8-2.1,0.6-4-1.8-4.4c-3.9-0.7-3.1-2.9-2.4-5.5C72.4,935.4,73.2,931.8,74.5,927.9
	 M23,876.4c0.3,6,1,12,0.9,18c-0.1,6.5,0.7,12.7,3,18.8c1.6,4.2,2.6,8.6,4.2,12.8c0.3,1.1,1.6,1.9,2.5,2.8c0.4-1.2,1.3-2.3,1.3-3.4
	c-0.1-2.6-0.8-5.1-0.9-7.6c-0.7-16.2-1.8-32.4-1.9-48.6c-0.1-11.4,0.7-22.8,2-34.1c1.5-12.9,3.2-25.9,6.1-38.5
	c2.6-11.5,6.2-23,10.8-34c5.3-12.7,12.1-24.9,18.1-37.4c0.7-1.6,0.8-3.6,1.2-5.3c-1.7,1.1-3.9,1.8-5,3.3c-3.9,5.2-7.5,10.5-11,15.9
	C46.4,750.9,39.6,763.2,36,777c-3.4,13.3-6.8,26.6-9.5,40c-2,9.8-3.7,19.7-4.3,29.6C21.6,856.2,22.6,865.8,23,876.4 M73,770.4
	c-0.7,1.3-1.6,2.7-2,4.1c-3.4,11.8-7,23.5-9.9,35.4c-1.4,5.8-1.5,12.1-2.1,18.1c0,0.6,0.6,1.2,0.9,1.9c0.4-0.6,0.8-1.2,1.1-1.8
	c1-2.7,2.4-5.4,2.9-8.2c4.2-21.1,12.9-40.7,20.3-60.6c4.2-11.6,9.3-22.8,14-34.2c0.4-0.9,0.3-2,0.5-3c-1,0.5-2.5,0.8-3.1,1.7
	c-3,4.9-6.1,9.8-8.6,14.9C82.2,748.8,77.6,759.1,73,770.4 M57,926.4c0.6,1,1.2,2.1,1.7,3.2c0.5-1.3,1.1-2.6,1.2-4
	c0.5-4.9,0.6-9.7,1.1-14.6c1.3-12.6,2.7-25.2,4-37.8c0.7-7.7,1-15.5,2.1-23.2c1.7-11.8,3.9-23.6,5.8-35.5c0.3-1.8-0.2-3.7-0.3-5.5
	c-0.9,1.5-2.1,3-2.6,4.6c-7.2,23.5-10.4,47.6-11.9,72C57.2,898.8,57.3,912.1,57,926.4 M227,779.4c-0.4,2.5-0.7,5-1,7.5
	c-1.4,9.8-2.7,19.5-4,29.3c-1,7.2-1.9,14.5-2.6,21.8c-0.1,1.2,0.6,2.5,1,3.8c0.5-0.9,1.4-1.8,1.5-2.7c1.8-9.3,3.3-18.6,5.1-27.8
	c3.1-15.8,4.4-31.7,3.9-47.8c0-1.2-0.6-2.4-1-3.6c-0.6,1.3-1.7,2.5-1.8,3.9C227.5,768.6,227.3,773.5,227,779.4 M122,792.4
	c-1.4,6.2-3,12.4-3.9,18.8c-1.1,6.4-1.4,13-2.1,19.6c-0.1,1-0.5,1.9-0.7,2.9c0.9-0.9,2.3-1.6,2.6-2.6c1.5-5.6,2.9-11.2,4-16.8
	c1.7-8.1,3.2-16.3,4.6-24.5c1.8-10.1,3.6-20.2,5.2-30.3c0.2-0.7-0.6-1.6-0.9-2.4c-0.4,0.5-0.9,1-1.1,1.5c-0.7,2.1-1.6,4.1-2.1,6.2
	C125.7,773.6,123.8,782.5,122,792.4 M54,827.4c0.3-2.2,0.6-4.4,1-6.6c0.9-6.1,1.8-12.2,2.9-18.3c0.9-5.6,2.1-11.1,3.1-16.7
	c0.1-0.5-0.3-1.2-0.4-1.8c-0.5,0.4-1.2,0.7-1.4,1.1c-2.1,7-4.7,13.8-6.1,20.9c-1.6,8.5-2.5,17.1-3,25.7c-0.7,10.5-0.8,21-1.1,31.5
	c0,0.6,0.8,1.1,1.2,1.7c0.2-0.7,0.7-1.3,0.7-2c0.3-2.3,0.3-4.7,0.5-7C52.3,846.7,53.1,837.5,54,827.4 M44,836.4
	c-0.7,6-1.4,12.1-2,18.2c-0.1,1.5-0.1,3.1,0.1,4.7c0.6,6.3,1.2,12.7,1.9,19c0.1,0.2,0.8,0.4,1.2,0.6c0-0.5,0.1-0.9,0.1-1.3
	c-0.3-4.5-0.8-9.1-0.9-13.7C44.3,854.6,44.5,845.2,44,836.4 M75,736.4c-0.9,0.2-2.3,0.2-2.7,0.8c-3.8,5.2-7.9,10.5-8.3,17.4
	c-0.1,0.7-0.3,1.5-0.4,2.3c0.8-0.3,2-0.4,2.3-0.9C69,749.8,72,743.6,75,736.4 M205,925.4c0.4,2.4,0.8,4.9,1.5,7.3
	c0.1,0.5,1.2,0.8,1.9,1.2c0.2-0.6,0.6-1.2,0.6-1.8c-0.3-5.7-0.6-11.3-1.1-17c0-0.8-1-1.4-1.5-2.1c-0.5,0.8-1.3,1.6-1.4,2.4
	C204.9,918.4,205,921.4,205,925.4 M53,783.4c-0.1-1.2-0.3-2.3-0.4-3.4c-0.3,0.3-0.9,0.4-1,0.8c-1.6,5.2-3.1,10.3-4.5,15.6
	c-0.1,0.3,0.8,0.9,1.3,1.4c0.2-0.6,0.4-1.1,0.6-1.6C50.3,792.2,51.6,788.3,53,783.4 M99,890.4c-0.5-1.5-0.9-2.9-1.4-4.4
	c-0.7,1.3-1.7,2.4-1.9,3.8c-0.3,1.5,0.2,3.1,0.4,4.7C96.9,893.3,97.7,892.1,99,890.4 M94.5,901.9c0.1-1.6,0.2-3.2,0.3-4.7
	c-0.3,0.1-0.9,0.2-1,0.4c-0.7,1.7-1.3,3.5-1.8,5.2c-0.1,0.3,0.5,0.7,0.7,1.1C93.1,903.4,93.6,902.9,94.5,901.9 M101.5,876.9
	c-0.8,0.9-1.9,1.7-2.2,2.7c-0.2,0.9,0.6,2.1,1,3.1c0.2-0.9,0.4-1.9,0.7-2.8C101.3,879,101.6,878.2,101.5,876.9 M125,825.4
	c0.1-0.5,0.3-0.9,0.3-1.4c0-1.3,0-2.6,0-4c-0.4,1.8-1,3.6-1.3,5.4c-0.1,0.7,0.2,1.5,0.3,2.3C124.5,827.2,124.8,826.8,125,825.4
	 M102,870.4c0.4,0.2,0.9,0.4,1.4,0.6c0-1.1,0.1-2.1,0.1-3.1C103.2,868.6,102.8,869.2,102,870.4 M53,925.4c-0.3-0.1-0.5-0.3-0.7-0.3
	c-0.1,0-0.3,0.2-0.3,0.3c0.2,1.4,0.4,2.8,0.7,4.3C52.8,928.6,52.9,927.5,53,925.4 M123.5,828.9c-0.2,0.8-0.3,1.7-0.4,2.5
	c0,0.1,0.4,0.1,0.6,0.2C123.8,830.9,123.9,830.1,123.5,828.9 M145,897.4c0.3-0.2,0.6-0.4,1-0.5C145.6,896.7,145.3,896.5,145,897.4
	 M131,872.4c0.2,0.1,0.4,0.2,0.6,0.4C131.5,872.5,131.5,872.2,131,872.4 M102,874.4c-0.2-0.2-0.4-0.3-0.6-0.4
	C101.4,874.3,101.4,874.6,102,874.4 M99.5,885.9c0.1-0.2,0.2-0.4,0.4-0.6C99.6,885.3,99.3,885.3,99.5,885.9 M146.5,894.9
	c0.1-0.2,0.2-0.4,0.4-0.6C146.6,894.3,146.3,894.3,146.5,894.9 M115.5,862.9c0.1-0.2,0.2-0.4,0.4-0.6
	C115.6,862.3,115.3,862.3,115.5,862.9 M122,833.4c0.2,0.1,0.4,0.2,0.6,0.4C122.5,833.5,122.5,833.2,122,833.4"/>
<path d="M912,354.9c-14.4,0-28.2,0.1-42-0.1c-21.7-0.2-43.4-0.7-65.1-0.9c-48.6-0.4-97.1-0.9-145.7-0.9c-16.3-0.1-32.5,1.3-48.7,1.8
	c-9.9,0.3-19.8,0-29.7,0.1c-29.1,0.3-58.3,0.9-87.5,0.9c-32.2,0-64.4-0.6-96.6-0.9c-11.2-0.1-22.5-0.2-33.7,0
	c-10.9,0.2-21.8,0.7-32.7,0.9c-15,0.4-30.1,0.8-45.1,1c-33.6,0.4-67.2,0.8-100.7,1c-6.4,0-12.8-1.4-19.2-1.9
	c-2.2-0.1-4.5,0.8-6.8,0.9c-12.7,0.4-25.4,0.8-38.1,1c-21,0.4-42.1,0.5-63.2,1.1c-14,0.4-28,1.5-41.9,2.1c-2.4,0.2-4.9,0.2-7.3-0.2
	c-3.5-0.6-4.4-3.5-5-6.5c-0.2-1.3,0-2.6,0-4c0-43,0.1-86-0.1-128.9c0-18.2-0.8-36.4-0.8-54.6C2,151.7,2.6,136.7,3,121.7
	C3.3,110.3,3.9,99,3.9,87.6c0-11.2-0.5-22.4-1-33.6C2.4,42.6,1.7,31.3,1,19.9c-0.3-3.6-1-7.1-0.8-10.6C0.2,8.1,2.3,6,3.4,6
	c12.3,0,24.5,0.6,36.7,0.4c14.1-0.2,28.2-1,42.2-1.5c0.5-0.1,1,0,1.5,0c11.4-0.4,22.8-0.7,34.1-1c14.7-0.4,29.4-0.8,44.1-1
	c23.3-0.4,46.6-0.7,69.9-1.1c15.7-0.2,31.3-0.9,46.9-0.9c29.1,0.1,58.1,0.7,87.1,0.9c11.4,0.1,22.8,0.1,34.2,0
	c30-0.2,60-0.9,90.1-0.9c47,0.1,94,0.6,141,1c8.5,0.1,16.9,0.8,25.3,0.9c5.8,0,11.6-0.9,17.4-0.9c5.3,0,10.5,0.9,15.8,0.9
	c60.8,0.1,121.6,0.1,182.5,0c9.3,0,18.7-0.9,28-0.9C913.8,2,927.4,2.8,941,2.8c23.2-0.1,46.5-0.6,69.7-1c1.2,0,2.5-0.5,3.7-0.8
	c3.8-1,7.6,1.8,7.6,5.7c-0.3,23.6-0.5,47.1-1.1,70.6c-0.3,13.2-1.4,26.5-1.9,39.7c-0.5,15.7-1,31.4-0.9,47.1
	c0,8.7,1.5,17.4,1.8,26.1c0.3,11.3,0,22.6,0.1,33.9c0.2,9.8,0.6,19.7,1,29.5c0.3,7.9,0.7,15.8,1,23.6c0.4,14.1,0.6,28.1,1,42.1
	c0.3,9.4,0.6,18.7,1,28.1c0.1,1.2,0.4,2.5,0.7,3.7c1.1,3.9-1.5,7.8-5.4,7.7c-13.5-0.2-27-0.5-40.6-1c-10.5-0.4-21.1-1.4-31.6-1.9
	C935.5,355.4,924,355.2,912,354.9 M268,349.4c1.1,0.5,2.3,1.4,3.4,1.4c10.8-0.2,21.5-0.6,32.3-0.9c13.7-0.4,27.3-0.9,41-0.9
	c4.1,0,3.5-1.7,2.1-3.7c-4.7-6.6-4.5-13.6-2.9-21c2.2-10.1,3.4-20.2,0.1-30.4c-1.2-3.8-2.3-7.8-2.9-11.7c-0.1-1.2-2.1-4.3,1.8-4.4
	c2.9,0,4.5,0.9,5.2,4c1,4.8,2.5,9.6,3.9,14.3c2,6.9,3,13.7,1,20.8c-0.8,3.1,1.7,5.1,4.7,3.6c3.4-1.6,6.9-3.3,9.6-5.7
	c4.8-4.3,10.8-8.8,8.5-16.3c-1.5-4.9-5.1-9.2-7.5-13.9c-2.9-5.4-7.4-10.8-7.9-16.6c-0.8-8.5-3-15.6-8.3-22.2
	c-3.6-4.3-6.3-9.8-12.2-10.8c-6.5-1.1-13.3-1-20-1.1c-4,0-6.8,2.2-7.7,6.3c-0.5,2-0.8,4-1.2,6c-2.2,10-5.8,19.3-14,26.2
	c-5.3,4.5-14.6,4.7-18.8,0.3c-2-2.1-1.3-3.3,0.9-3.8c2.1-0.4,4.5-0.3,6.6,0c2.5,0.4,4.4,0.6,6.9-0.9c8.3-5,15.6-22.6,12.3-31.4
	c-0.3-0.5-2.7-1-3.5-0.5c-2,1.3-3.5,3.5-5.6,4.7c-4,2.2-8.3,4-12.5,6.1c-0.9,0.5-1.5,1.6-2.3,2.5c0.8,0.5,1.9,0.8,2.3,1.5
	c1,1.8,2.9,4.6,2.3,5.5c-3.2,5-7,9.6-10.9,14c-0.7,0.8-3,0.1-4.6,0.1c0.5-1.2,0.9-2.6,1.6-3.6c2.6-3.8,5.4-7.5,7.9-11.3
	c0.4-0.6,0-1.8,0-2.7c-0.8,0.5-1.9,0.7-2.4,1.3c-1.9,2.7-3.3,5.8-5.5,8.2c-0.9,0.9-3.3,0.5-5,0.7c0.2-1.4,0.1-3,0.7-4.1
	c2.8-5,5.6-10.1,8.9-14.8c1.4-1.9,4-4.1,6.1-4.1c7-0.3,11.6-4.1,15.1-9.5c1-1.5,0.4-4.1,0.5-6.3c-1.5,0.2-3,0.2-4.4,0.5
	c-2.7,0.6-5.2,1.5-7.9,2c-1.5,0.3-3.1,0.3-4.7,0.4c0.6-1.2,1.1-2.5,1.9-3.7c0.5-0.8,1.8-1.3,2-2.1c0.5-3,1.1-6.1,0.8-9
	c-0.1-0.7-3.9-1.8-5.6-1.4c-5.3,1.2-10.4,3-15.5,4.8c-3.7,1.2-7.2,2.8-10.8,4c-0.8,0.2-2.5-0.4-2.7-1c-0.3-0.9,0.1-2.3,0.7-3.1
	c0.5-0.8,1.6-1.4,2.6-1.8c9.3-3.4,18.5-7.1,27.9-9.9c5.7-1.7,10.7,2.2,10.6,7.3c-0.1,2.5-0.7,5.1-0.9,7.6c0,0.6,0.4,1.7,0.8,1.9
	c0.7,0.2,1.9-0.1,2.2-0.6c2.2-3.7,4.9-7.2,3.7-12.2c-0.9-4.2-3-9.4-1.4-12.6c3.8-7.5,0.9-14.7,1.7-22c0.1-1.6,0.5-3.3,0.2-4.8
	c-1.3-7-4.4-8.6-13.1-6.7c-1.4,0.3-2.7,1.5-4.1,2.2c1.5,0.6,3,1.4,4.6,1.7c2.5,0.5,5.1,0.6,7.6,1.1c0.7,0.2,1.2,1.3,1.8,2
	c-0.8,0.7-1.6,1.8-2.5,1.9c-3,0.2-6.1,0.6-9-0.1c-4.7-1.2-8.8-1.3-13,1.9c-1.1,0.8-3.6,0.4-5.2-0.2c-0.5-0.2-0.4-2.7-0.2-4.1
	c0.1-0.9,0.9-1.6,1.3-2.4c-1.4,0.1-3.1-0.2-4.3,0.4c-2.8,1.6-5.5,3.6-8.2,5.6c-0.5,0.4-0.8,1.5-0.9,2.3c-0.4,4.5-2.1,5.4-6.7,4.6
	c-2.6-0.5-5.5-0.1-8.1,0.4c-2.4,0.5-4.7,2.6-6.9,2.5c-4.1-0.4-1.7-4.2-2.3-6.4c-1.3-4.9,0.8-9.8,4.8-12.5c5.7-3.8,11.3-1.6,16.8,0.3
	c4,1.3,6.8,0.9,10-2.2c5.5-5.3,9.2-11.2,10.4-18.7c0.6-3.6,3.4-4.2,6-1.8c2.9,2.5,3.6,5.6,2.7,9.2c-0.6,2.5-1.7,4.9-2.4,7.5
	c-0.2,1.1,0,2.4,0.1,3.6c0.9-0.5,1.8-1,2.7-1.5c3.8-2.1,7.5-4.4,11.5-6.3c1.1-0.5,3.7-0.3,4.2,0.5c3.3,4.9,6.3,10,9.1,15.2
	c1.2,2.3,2.4,3.7,5.2,4.4c5.8,1.4,8.5,5,7.7,11.2c-0.6,4.1-3.7,7.9-4.5,12c-1,5-4.5,5.7-7.5,4.4c-4-1.8-2.9,0.8-2.8,2.4
	c0.6,5.6,0.8,11.2,2.2,16.6c0.7,3,3.1,5.9,5.5,8.1c1,0.8,3.9-0.8,5.9-0.8c9.4-0.1,18.8-0.7,27.8,2.9c8.7,3.4,13,11.2,17.3,18.6
	c3.3,5.6,4.5,12,5.8,18.7c1.4,7.4,6.7,14.1,10.3,21.1c1,1.8,1.8,3.8,3.2,5.1c5.7,5.4,5.9,6,1.9,12.1c-4,6.2-0.4,18.6,5.7,22.8
	c4.9,3.4,9.5,7.6,13.2,12.3c4.5,5.4,8.6,9.7,16.6,8.5c5.4-0.8,11.1-0.1,16.6-0.1c4.8,0,9.6,0.1,14.4-0.1c3.1-0.1,6.2-1,9.2-0.9
	c16.6,0.6,33.3,1.5,49.9,1.9c9.9,0.1,19.9-0.8,29.9-0.9c25.2-0.4,50.4-0.7,75.6-1.1c15.9-0.2,31.7-0.6,47.6-1c0.8,0,1.5-0.2,2.3-0.4
	c-0.5-0.6-1.2-1.1-1.6-1.7c-5.6-9.2-11.4-18.3-16.5-27.7c-3.4-6.1-2.5-10.3,2.5-14.9c5.5-5,11.1-10,17.2-14.1
	c7.7-5.2,16-9.6,24.1-14.2c6.6-3.8,14.4-6.2,19.6-11.3c5.8-5.6,11.2-11.2,18.8-14.2c0.4-0.2,0.6-1,1-1.5c-0.6-0.3-1.3-1-1.9-0.9
	c-5.9,0.6-11.8,1.4-17.7,1.9c-9.5,0.8-19.1,1.5-28.6,2c-12.4,0.8-24.8,1.5-37.2,2c-10.4,0.5-20.7,0.7-31.1,1
	c-4.1,0.2-8.2,0.1-12.2,0.3c-21,0.9-42,2-63.1,2.7c-16.3,0.6-32.7,0.7-49,1.1c-8.7,0.2-17.4,0.8-26.1,0.9
	c-21.2,0.4-42.3,0.7-63.5,1.1c-11.3,0.1-19.7-5.2-25.5-14.3c-7.6-12-10.8-25-9.3-39.4c1.3-13,3.1-25.6,8.1-37.7
	c5.4-12.8,13.9-23,25.3-30.6c11.2-7.4,23.9-9.9,37.3-10.1c28-0.5,56.1-1.3,84.1-1.9c14.6-0.4,29.1-1,43.6-1c17.7,0.1,35.3,0.6,53,1
	c8.3,0.2,16.7,0.6,25,1c16.1,0.6,32.2,1.3,48.2,2c7.5,0.3,15.1,0.6,22.6,1c2.9,0.1,6.2-0.1,8.5,1.2c8.6,4.9,15.7,11.5,18.3,21.5
	c0.7,2.4-0.5,5.3-0.8,8c-0.1,0.4-0.4,0.8-0.6,1.2c-0.1-0.4-0.1-1-0.4-1.3c-5.6-4.9-11.4-9-19-10.8c-9.3-2.2-17.1,0.2-23.6,6.4
	c-6.9,6.6-4.2,15.6,5,17.7c5.1,1.1,10.4,1.2,15.6,2.1c3.4,0.6,6.8,1.3,10,2.6c2.7,1,5.1,2.8,7.6,4.4c3.8,2.2,5.6,0.7,6.4-3.2
	c1.3-6.2,2.5-12.6,4-18.8c2.4-9.8,7.1-18.1,15-24.7c6.2-5.3,13.9-6.2,21.1-8.2c3.7-1,7.8-1.4,11.5-0.8c6.2,1,11.9,4.6,18.6,2.8
	c1-0.3,2.5,0.8,3.8,1.4c1,0.4,2.1,1.6,2.9,1.4c6.9-1.8,10.7,3.4,14.5,7.2c11.7,11.8,16,27.2,17.4,43.1c1,10.9-0.8,22.1,3.2,32.8
	c2.6,6.8,1.1,14.5,6.7,20.8c2.6,3,2.8,8.5-2,12c-2.4,1.8-4.7,4-6.2,6.4c-0.9,1.4-0.9,4.6,0.1,5.6c4.9,4.8,10.1,9.2,15.3,13.6
	c15.1,12.5,30.6,24.4,43.9,38.9c4.8,5.1,3,12,5.1,17.9c0.1,0.2-0.5,0.7-0.8,1.1c-3,4.4-6.1,8.8-9.2,13.2c-1.2,1.7-2.6,3.2-3.9,4.9
	c1.7-0.2,3.5-0.5,5.3-0.4c12.3,0.3,24.7,0.6,37,1c10.6,0.3,21.1,0.8,31.6,0.9c11,0.2,22,0.1,33,0.1c7.5,0,9.2-1.6,9-9
	c-0.2-10.7-0.6-21.4-0.9-32.1c-0.7-21.6-1.4-43.1-2-64.7c-0.4-12.7-0.7-25.4-1-38.1c-0.3-10.2-0.7-20.4-1-30.6
	c-0.4-12.8-1-25.7-0.9-38.6c0.1-9.6,1.3-19.2,1.9-28.8c0.7-13.4,1.7-26.8,1.9-40.2c0.3-18,0.1-36,0-54c0-3.2-1.5-5.2-5.4-5
	c-7.3,0.3-14.6,0.1-21.8,0.1c-27.9,0-55.8,0-83.7-0.1c-7,0-14.1-0.6-21.1-0.9c-1-0.1-1.9,0.3-2.9,0.5c0.3,0.7,0.8,1.3,1.1,2.1
	c0.6,1.7,1.4,3.4,1.8,5.2c1.1,4.4,1.1,9.2,2.9,13.3c3.7,8.3,11.8,10.5,19.8,11.7c5.9,1,12.1,0.4,18,1.4c7.8,1.4,15.5,3.4,23.1,5.9
	c6.8,2.2,13.7,4.6,17.4,12.2c5.6,11.3,5.8,22.8,2.4,34.4c-1.8,5.9-4.5,12.2-8.6,16.3c-4.3,4.2-10.8,7.6-16.7,8.6
	c-11.3,1.9-22.8,2.3-34.3,2.2c-16.4-0.1-32.8-1.6-49.2-1.8c-42.3-0.2-84.7,0-127.1-0.1c-12.6,0-25.1-0.9-37.6-0.9
	c-52.9,0.2-105.7,0.6-158.6,1c-15.5,0.1-31.1,0.8-46.6,0.9c-11.5,0-23-0.7-34.6-0.9c-20.8-0.4-41.7-0.8-62.6-1
	c-7.5-0.1-15.1,0.2-22.6,0.5c-9.9,0.4-19.7,0.7-29.5,1.5c-9.2,0.7-18.2,1.9-27.3,3c-2.7,0.4-4.9,1.8-4.2,5.2
	c0.7,3.5,1.3,7.1,2.3,10.5c1.4,4.6-1.3,11.8-5.6,13c-1.1,0.3-2.3,0.1-3.4,0.1c0.1-1,0.1-2.1,0.4-3.1c1.3-4.1,1.3-8.1-1.3-11.9
	c-1.7-2.3-3.6-4.5-4.9-7c-0.6-1.3-0.8-3.6-0.1-4.7c0.8-1.4,2.9-1.9,4.4-2.8c-1.8-0.5-3.6-1.1-5.4-1.3c-1.2-0.1-2.5,0.5-3.7,0.7
	c-2.7,0.5-5.4,1.3-8,1.1c-1.6-0.2-3.1-2-4.7-3.1c1.1-1.2,2-2.7,3.3-3.5c2.8-1.5,5.9-2.6,8.8-4c0.7-0.3,1.1-1.3,1.6-2
	c-0.9-0.4-1.7-1.2-2.5-1.2c-2.1,0.1-4.1,0.4-6.1,1c-8,2.3-16.5,3.4-23.2,9.3c-1.9,1.7-5.7,3.1-7.7,2.4c-3.5-1.3-6.1-0.3-8.3,1.4
	c-3.6,2.8-6.9,6.1-10,9.5c-3.2,3.6-5.7,7.9-11.8,6.5c-1.1-0.2-3,1.9-4.1,3.2c-5.7,7.6-4.9,16.4-3.9,25c0.5,4.3-1.1,10.6,6.7,11.1
	c1.1,0,2.5,1.8,3.1,3.1c3.8,9.2,7.5,18.5,11.1,27.9c2.1,5.6,3.8,11.3,5.9,17c2.9,7.7,4.4,6.6,10.6,0.9c3.4-3.1,8.3-4.9,12.9-6
	c1.6-0.4,4,3.1,6.3,4.6c8.2,5.7,8.2,5.7,3.5,14.4c-0.1,0.1-0.1,0.3-0.2,0.4c-4,5.8-7.7,11.9-12,17.5c-0.9,1.2-3.7,1.1-5.6,1.7
	c0.4-1.7,0.4-3.7,1.4-5.1c4-6,8.4-11.8,12.6-17.8c0.7-1.1,0.7-2.7,1-4c-1.3,0.6-2.9,0.9-3.7,1.8c-5.7,7-11.1,14.1-16.8,21
	c-1,1.1-3.1,1.3-4.6,1.9c-0.1-1.5-0.5-3.1-0.2-4.5c0.2-1.3,1-2.7,1.9-3.7c5.4-6.2,11.1-12.4,16.5-18.7c0.9-1.1,1-2.9,1.5-4.3
	c-1.5,0.1-3.4-0.3-4.3,0.5c-10.8,9.4-23.1,17.9-21.8,34.8c0,0.7-1.4,2.1-2.1,2c-5.3-0.5-7.7,0.9-6.6,5.8c1.5,6.6,3.9,13.1,7.2,19
	c2.6,4.6,8.2,5.1,12.5,1.8c3.4-2.6,5.8-1.9,8.1,1.3c0.5,0.7,1,1.4,1.6,2.2c0.4-0.8,1-1.6,1.4-2.5c2-5.3,3.8-10.7,6.1-15.9
	c0.7-1.6,1.2-4.8,4.7-3.2c3.5,1.5,2.7,4.3,1.8,6.4c-2.5,5.6-5.4,11.1-8.4,16.5c-3.4,6-3.4,12.5-2.4,18.9
	C263.4,326.8,265.9,337.6,268,349.4 M877,22.4c-0.4-1.1-0.6-2.1-1-3.1c-2.2-5.8-4.6-9.8-12.9-9.6c-14.6,0.5-29.2,0.2-43.8,0.1
	C773.1,9.5,727,9.2,680.8,8.9c-10.5-0.1-21.1,0-31.6-0.1C595.4,8.5,541.7,8,487.9,7.9c-32.3,0-64.7,0.6-97,0.9
	c-10.2,0.1-20.5,0.1-30.7,0c-25.4-0.2-50.8-0.7-76.2-0.9c-15.7-0.2-31.4-0.2-47,0c-11.7,0.1-23.3,0.7-35,0.9
	c-25.3,0.4-50.7,0.8-76,1c-3.1,0-5.3,1.1-6,4.1c-0.9,4-1.9,8.1-1.9,12.1c-0.2,9-0.3,18,0.6,26.9c1,9.3,5.8,17.7,11.5,24.6
	c7.4,9,15.9,17.1,24.8,24.5c5.1,4.3,6.2,4.1,2.9,10.1c-4.7,8.7-3.2,17.8-1.9,26.8c0.2,1.1,1.3,2,1.9,3c0.4-1.1,1-2.2,1-3.3
	c-0.1-7.4,0.1-14.6,4-21.4c2.9-5,4.2-5.9,9-2.8c7.9,5.1,15.9,9.4,25.6,9.5c8.8,0.1,17.6,1.2,26.4,0.7c5.1-0.2,10.1-2.6,15.1-4.3
	c9.3-3.2,17.2-10.7,27.9-9.9c0.3,0,0.5-0.5,0.8-0.5c7.6-1.2,14.9-5.4,22.9-3c2.2,0.7,4.3,2,6.4,3c-1.2,2.4-2.5,4.6-3.6,7
	c-0.2,0.2-0.2,0.9-0.2,0.9c2.4,0.4,4.8,0.9,7.3,1c5.5,0.1,11.1,0.5,16.6,0c11.7-1.1,23.2-3.6,34.9-3.7c25-0.4,50,0.7,75,0.7
	c31.4,0,62.8-0.6,94.1-0.9c35.8-0.4,71.5-0.9,107.3-1c19.7,0,39.3,0.8,59,0.9c58.1,0.4,116.1,0.7,174.1,1.1c7.2,0,14.4,0.9,21.6,0.9
	c16.7-0.1,33.4,0,50.1-1.1c13-0.9,21-9.4,25.8-21.2c2.5-6.4,2.2-13.1,2-19.8c-0.2-9.8-5.6-17.3-14.9-19.8c-13.7-3.8-27.8-6.3-42-7
	c-10.3-0.5-18.1-5.5-23.8-13.5C878.2,31.4,878,27.1,877,22.4 M241.5,351.9c4.5,0,9-0.3,13.5,0c3.6,0.3,5-2.1,4.8-4.5
	c-0.5-5.4-0.9-11.2-3.1-16.1c-1.9-4.3-2.9-8.3-2.8-12.9c0.2-6.2-0.1-12.3,0.1-18.5c0.2-3.3-0.7-3.4-3.4-2.1
	c-7.7,3.9-17.8,0.4-21.6-7.4c-1.8-3.7-3-7.8-5.1-11.3c-3.4-5.9-2.6-11.3,0.9-16.5c2.9-4.2,6.2-8.2,9.2-12.3c0.5-0.8,0.6-2,0.9-3
	c-0.8,0.2-1.6,0.3-2.4,0.6c-7.9,3-15.2,6.9-20.8,13.6c-5.5,6.5-9,13.4-7.6,21.8c1,6.3,0.2,12.2-1,18.3c-1.6,8.9,0,10.3,9.1,10.3
	c2.7,0,5.4,0.3,8-0.1c4.8-0.8,10.3-0.7,11.2-7.7c0.1-0.9,2.8-1.5,4.3-2.2c0.8,1.7,2.7,3.8,2.3,5.3c-2.8,10.1-5.9,20.2-9.1,30.2
	c-0.4,1.3-1.7,3.1-2.9,3.3c-3.8,0.8-5.2-1.8-3.8-6.6c1.3-4.4,2.6-8.9,4.3-13.2c1.4-3.4,0.4-4.4-3.1-4.1c-3.1,0.4-6.3,0.5-9.5,0.7
	c-3.2,0.1-4.1,1.2-4.1,4.6c0.1,8-0.4,16.1-0.9,24.1c0,1.2-0.8,2.4-1.2,3.7c-1.9-0.8-4.3-1.1-5.4-2.5c-1-1.3-0.8-3.7-0.7-5.6
	c0.4-6.1,0.7-12.1,1.4-18.1c0.7-5.7-1.1-8.5-7.2-9c-2.7-0.2-4.5-2.6-2.4-5.9c1.2-1.8,2.3-3.9,2.5-5.9c0.6-7,0.2-14.1,1.2-21.1
	c1-6.7,2.2-13.8,5.2-19.8c2.2-4.3,7.2-7.7,11.7-10.4c6.8-4,13.2-9.6,21.9-9.8c1,0,2-0.4,2.9-0.6c-0.8-0.8-1.5-1.7-2.4-2.4
	c-3.3-2.6-4.9-6-5.5-10.2c-1.4-11.1-5.4-21.3-10.8-31c-0.4-0.8-2.2-1.9-2.6-1.6c-3.5,2.5-5.1,6-4.6,10.5c0.5,4.3,3.2,4.9,6.6,4.3
	c3.5-0.5,5.3,1.6,6.1,4.3c0.5,1.7,0,5.4-0.6,5.5c-2.5,0.4-5.3,0.1-7.9-0.2c-0.8-0.1-1.5-1.1-2.4-1.5c-7.6-4.1-7.9-11.3-7.7-18.6
	c0.2-5.8,4.4-7.9,9.2-9.5c0.7-0.2,1.7-1.3,1.6-2c0-0.7-1-1.8-1.7-1.9c-3.5-0.4-6.5-1.5-7.7-5.2c-2.3-6.9-4.5-13.8-6.3-20.9
	c-0.6-2.1-0.8-5.5,0.4-6.6c6.3-6.1,6.8-16.4,15.3-20.7c0.6-0.3,0.8-1.3,1.2-2c-0.7-0.2-1.4-0.6-2.2-0.6c-7.2-0.4-14.5-0.1-21.5-1.2
	c-7-1.2-14.1-3.1-20.5-6.1c-6.7-3.1-7.2-3.8-8.7,3.3c-2.6,12.2-2.1,24.1,5.9,34.7c1.5,2,2.4,7,1.4,7.7c-2.7,2.2-5.4-0.3-7.2-2.8
	c-3-4.1-5.8-8.3-8.5-12.5c-7.7-11.7-11.7-24.7-8.4-38.5c1.7-7.1-1-11-5.7-14.4c-14.3-10.3-23.5-24.6-29.4-40.7
	c-5.6-15.2-4.1-30.9-0.2-46.4c0.4-1.9,0.9-3.6-2.3-3.2c-5,0.6-10.1,0.9-15.1,1c-12.5,0.4-25,0.9-37.6,1c-15.3,0.2-30.6,0.3-46-0.1
	c-5.2-0.1-6.6,1.6-6.1,6.5c1.2,9.9,2.4,19.8,3,29.7c0.7,10.7,1.1,21.4,1,32.1c-0.1,17.1-0.9,34.1-0.9,51.1
	c0.2,58.5,0.7,117.1,1,175.6c0,13,0,26.1,0,39.2c0,5.5,2.1,7.9,7.5,7.9c3.9,0,7.7-0.7,11.6-0.9c13.1-0.7,26.1-1.5,39.2-2
	c11.8-0.5,23.7-0.7,35.6-1c15-0.4,30-0.9,45.1-1c9.5,0,19.1,0.7,28.7,0.9c12.5,0.4,25,0.8,37.4,1C224.3,352,232.4,351.9,241.5,351.9
	 M388.5,155.9c-3.4,6-7.7,11.8-10.1,18.3c-6.1,16.8-9.9,34.2-5.3,52c4.3,16.5,11.6,27.6,32,26.7c7.4-0.4,14.7-0.8,22.1-1
	c18.4-0.7,36.9-1.4,55.3-2c12.9-0.4,25.7-0.7,38.6-1c11.8-0.4,23.7-0.7,35.6-1.1c9.8-0.3,19.7-0.6,29.5-0.9
	c11.6-0.4,23.1-0.6,34.6-1.1c9.7-0.4,19.4-1.3,29.2-1.9c16.6-1.1,33.2-2.1,49.9-3c11.4-0.7,22.8-1.3,34.1-2.1c4.2-0.2,7.8-4.3,6.9-8
	c-1.4-6.4-3.3-12.7-4.9-19c-1-3.7-2.2-7.2,0.9-10.8c2.1-2.5,1.3-5.3-0.9-7.7c-5.1-5.4-11.5-8.1-18.6-9.4c-7.1-1.4-14.6-1.8-21.3-4.2
	c-12-4.5-19-14.6-11.1-26.1c6.3-9.2,19.1-15.3,30.2-11.7c2.8,0.9,5.5,2.1,8.3,2.9c1,0.3,2.2-0.2,3.3-0.3c-0.3-1.1-0.4-2.8-1.1-3.3
	c-2.8-1.7-5.7-3.8-8.7-4.2c-11.4-1.4-22.8-2.2-34.2-3.1c-5.9-0.5-11.8-0.7-17.6-1c-12.6-0.7-25.1-1.5-37.7-2
	c-12.7-0.5-25.4-1-38.1-1c-18.1,0.1-36.2,0.5-54.4,1c-12.2,0.4-24.4,1.5-36.6,1.9c-9.8,0.3-19.6-0.1-29.4,0.1
	c-13.1,0.2-26.3,1-39.5,0.8c-7.9-0.1-15.5,0.4-21.9,5.3C401.1,144,395.2,149.9,388.5,155.9 M832,256.4c-0.5-1.5-1-3-1.4-4.5
	c-0.6,1.6-1.6,3.2-1.5,4.7c0.1,5.9,0.6,11.7,0.8,17.6c0.1,1.2-0.5,3.4-1.1,3.5c-1.9,0.2-4.6,1-4.8-2.3c-0.2-3.3-0.2-6.6-0.2-9.8
	c0-3.8,0.2-7.6,0.1-11.4c0-0.8-0.9-1.5-1.4-2.3c-0.4,0.7-1,1.3-1.1,2c-0.8,5.9-1.9,11.7-2.3,17.5c-0.4,6-0.1,6-5.7,3.5
	c-1.1-0.5-2.5-1.5-2.6,1.4c0,1.9-1.3,4.8-2.8,5.4c-6,2.4-12.2,4.4-18.4,6.1c-9.9,2.6-21.1-6.7-21.7-17.1c-0.3-4.8-1.9-9.5-3-14.3
	c-0.1-0.6-1.1-1-1.6-1.5c-0.5,0.6-1.3,1.3-1.2,2c0.1,2.5,0.9,5,0.8,7.5c-0.1,3.4,1.9,7.8-3,9.4c-3.6,1.1-7.4,1.6-11.2,1.9
	c-1.1,0.1-3.3-1.4-3.6-2.5c-1.6-6.4-3.1-12.8-4-19.3c-0.4-3.5-1.5-4.1-4.5-3.1c-1.5,0.6-3,0.8-4.4,1.4c-9.2,3.9-14.5,11.9-19.5,19.7
	c-2.1,3.4-4.5,3.2-7.3,2.8c-3.4-0.4-4.1,0-3,3c3.8,10.8,7.7,21.5,11.7,32.2c0.3,0.9,1.8,1.3,2.8,2c0.4-1,0.9-1.8,1-2.8
	c0.8-6.7,1.2-13.4,2.2-20.1c0.2-1.2,2.3-2.9,3.7-3c4.4-0.2,6,4,4.7,9.9c-1.8,8.5-3.2,17-4.5,25.6c-1.2,7.9,3.1,14.7,5.1,21.9
	c0.3,1,1.8,2.3,2.8,2.4c6.2,0.5,12.4,1,18.6,1c18.3,0.1,36.6,0.1,55,0.1c4.7,0,9.4-0.2,14.1,0c6.7,0.2,13.4,0.7,20.1,0.9
	c2.5,0.1,3.9-0.2,3.4-3.6c-1.2-7.7-1.6-15.5-2.6-23.2c-0.1-1.1-1.2-2.1-1.9-3.1c-0.8-1.3-1.6-2.5-2.4-3.8c2-0.2,4.2-1.2,5.7-0.6
	c3.9,1.6,7.4,4,11.1,5.9c2.9,1.4,5.8,3.4,9,0c5.7-6.3,11.5-12.6,17.6-18.5c3-2.9,2.8-4.6-0.1-7.1c-9.4-8.1-18.7-16.2-27.7-24.8
	c-3.6-3.5-6.4-4.1-10.4-1.1c-3.2,2.4-6.2,1.2-7.4-2.7C833.2,262.5,833,259.6,832,256.4 M782,176.4c-2.5,2.7-5.1,5.4-7.3,8.4
	c-0.7,0.9-0.6,2.5-0.5,3.7c0.2,1.1,1,2.1,1.5,3.2c-1.2,0-2.3,0.3-3.4,0.1c-1.9-0.3-3.6-1-5.4-1.5c-1.5-0.5-2.9-1.4-4.4-1.4
	c-4.6,0-8.9-0.3-12.6-3.5c-1.4-1.2-2.9-1.2-3,1.6c-0.1,4.2-0.4,8.4-0.9,12.5c-1.4,11.4-0.3,22.1,5.9,32.1c2.9,4.7,5.5,10.2,11.3,11
	c8.2,1.2,16.7,1.5,25,1.1c8.6-0.5,16.2-4.4,20.9-11.7c5.4-8.1,10-16.8,14.4-25.5c0.9-1.7-0.4-5-1.6-6.9c-0.6-1-3.7-1.2-5.1-0.6
	c-6.5,2.8-13.1,3.3-20,2.9c-8.9-0.5-14-5.4-13.7-14.1c0.1-3.3,1.4-6.4,1.8-9.7c0.1-1.3-0.7-2.6-1.2-4
	C783.2,174.5,782.6,174.9,782,176.4 M681.5,285.9c-7.6,5.8-15.3,11.5-22.6,17.7c-4.7,4.1-5.3,10.1-2.1,15.6
	c4.7,7.9,9.6,15.7,14.6,23.4c0.9,1.5,2.9,3,4.6,3.1c7.6,0.7,15.3,0.8,23,1.1c0.7,0,1.7-0.4,1.9-0.8c0.2-0.6-0.1-1.8-0.6-2.1
	c-8.1-5.5-11.5-14.5-16.7-22.1c-3.1-4.5-2-5.4,3.6-6.1c5.1-0.6,10-2.4,14.9-3.9c2.2-0.7,2.8-2.2,1.9-4.6c-3.1-8.5-6-17.2-9.1-25.7
	c-0.3-0.6-2.2-1.3-2.9-1C688.6,281.9,685.3,283.7,681.5,285.9 M860.5,346.9c0.5,0.6,1,1.9,1.6,1.9c6.7,0.1,13.5-0.7,20.1,0.2
	c8.4,1.2,13.3-3.7,18.5-8.5c0.6-0.5,0.8-2.5,0.7-2.5c-4.7-1.7-1.4-3.9-0.3-5.7c4.9-7.8,5.1-12.4-1.7-19.6c-2.6-2.6-5.5-4.9-7.7-7.8
	c-2.3-2.8-4.7-2.5-6.6-0.6c-5.8,5.8-11.5,11.7-16.8,17.9c-2.2,2.6-2.2,5.9,1.5,7.6c4.1,1.9,2.3,4.8,0.9,6.6
	C867.8,340,864.3,343.1,860.5,346.9 M783.5,281.9c9,3.6,19.2-3.1,19.6-12.5c0.2-6.2,1.1-12.4,1.9-18.6c0.3-2.1,1.3-4.1,1.9-6.2
	c0-0.1-1.2-0.8-1.5-0.6c-6.6,4-13.8,6.6-21.5,6.8c-12.5,0.3-13.6,1.5-10.9,13.6C774.5,271.1,774.8,278.5,783.5,281.9 M370.5,320.9
	c-5.5,2.3-11.2,4.4-16.5,7.1c-1.4,0.7-3,3-2.8,4.4c0.5,4.4,1.5,8.9,3.2,13.1c0.6,1.5,3.4,3.2,5.3,3.2c13,0.3,26,0.2,38.9,0.1
	c0.8,0,1.6-0.2,2.3-0.4c-0.4-0.8-0.7-1.8-1.3-2.4c-4-3.5-6.7-8.5-12.5-9.6c-1.1-0.2-2.5-1.1-3.1-2.1c-2.7-4.8-5.2-9.8-7.8-14.7
	c-0.6-1.2-1.2-2.5-1.8-3.7c-0.8,1.1-1.6,2.3-2.4,3.4C371.7,319.7,371.3,320,370.5,320.9 M802.5,139.9c-8.5,1.6-16.9,3.3-25.4,5
	c-1.4,0.3-2.7,0.7-4.1,1.1c1.2,1,2.3,1.9,3.5,2.9c0.4,0.3,0.8,0.6,1.1,1c1.1,1.6,2.3,3.3,3.3,5.1c0.2,0.3-0.5,1.2-0.8,1.9
	c-1.6-0.8-3.3-1.6-5-2.4c-0.7-0.4-1.1-1.3-1.8-1.6c-2.9-1.5-6-3.3-9-0.6c-0.7,0.5-0.6,3.2-0.2,3.4c4.4,2.2,8.9,4.3,13.5,6.1
	c2.7,1.1,5.6,2,8.5,2.4c3.2,0.4,6.7-0.7,9.7,0.2c5.6,1.6,10.9,4.3,16.3,6.4c0.5,0.2,1.8-0.6,1.8-0.9c0.4-5.8-3.7-9.8-9.6-10.1
	c-3.1-0.2-6.3-0.8-9.3-1.6c-1-0.2-1.7-1.5-2.5-2.3c1-1,2.1-2.9,3.1-2.9c7.9-0.3,15.9-0.5,20.7,7.6c0.4,0.6,1.3,0.9,2,1.3
	c0.2-0.7,0.7-1.5,0.6-2.1c-0.6-6.2-1.2-12.4-2.2-18.6c-0.2-1.3-2.1-2.4-3.4-3.3C809.3,134.9,806.8,139.5,802.5,139.9 M800.5,187.9
	c-2.7-1.7-5.3-3.4-8-4.9c-0.8-0.4-2.6-0.5-3,0c-2.8,3.6,0.4,13.2,5,13.7c9.1,1.1,17.8-0.3,25-6.9c2.5-2.3,2-4.6-0.1-7.2
	c-5.9-7.1-15-8.2-22.3-12.7c-0.6-0.4-2.6-0.1-2.7,0.2c-0.3,1.2-0.4,2.6,0,3.7c2.8,7.1,6.8,9.2,14.6,8.2c1.6-0.2,3.3,1.5,5,2.3
	c-1.1,1.2-2.1,3.2-3.4,3.4C807.6,188.2,804.5,187.9,800.5,187.9 M710.5,345.9c2.5,0,5,0.1,7.4-0.1c0.8-0.1,2.1-1.6,2-2.2
	c-0.5-2.5-1.1-5.2-2.3-7.5c-2.3-4.7-3.7-9.2-1.8-14.5c0.4-1.1-0.8-4-1.7-4.2c-6.2-1.6-11.7,1-17.1,3.5c-2.8,1.2-2.7,3.2-1.1,5.4
	C700.6,332.6,705.3,339,710.5,345.9 M755,164.4c-0.1,3.4,1.8,4.7,4.9,4.4c2.9-0.2,5.7-0.8,8.6-0.9c1.5,0,3,0.8,4.5,1.2
	c-1.1,1.6-1.9,4.2-3.3,4.6c-5,1.5-10.1,4-15.3,0.2c-2.5-1.8-3.8-1.1-3.5,2.3c0.4,5.4,5,8.1,10.2,6.1c2.8-1.1,5.8-1.4,8.5-2.5
	c4.1-1.6,5.9-5,6.4-9.3c0.5-4-0.9-6.2-5.2-6.8c-2.7-0.3-5.3-1.7-7.8-2.9C759.4,159,756.7,159.4,755,164.4 M832.5,232.9
	c-4.2,0.3-8.4,0.8-12.6,0.9c-2.9,0.1-4.6,1-5,4.1c-0.2,1.7-1,3.3-1.4,4.9c-0.9,4-1.9,7.9-2.4,12c-0.1,1.2,1.5,2.6,2.3,4
	c0.5-0.6,1.5-1.1,1.5-1.7c0.7-6,1.8-12,1.5-18c-0.1-2.5,0.3-2.4,1.9-2.2c4.7,0.6,9.4,1.6,14.1,1.8c2.9,0.2,4.7,0.6,4.8,3.9
	c0.2,2.4,1,4.9,0.6,7.1c-0.4,2.4-0.8,4.4,1.4,5.9c0.9-1.9,2.8-4,2.6-5.8c-0.5-5.7-1.8-11.2-2.8-16.8c-0.2-1.3-0.2-2.6-0.3-3.9
	c-1.1,0.7-2.3,1.3-3.4,2C834.6,231.6,834.1,232.3,832.5,232.9 M861.5,337.9c1.3-3.2,0.7-5.7-2.5-7.5c-3.2-2-6.4-4-9.3-6.4
	c-2.1-1.8-1.8-0.6-1.7,0.9c0.6,7.6,1.3,15.1,2.1,22.6c0,0.2,2,0.6,2.4,0.3C855.4,344.7,858.2,341.5,861.5,337.9 M826.5,213.9
	c-1.2,3-2.3,6-3.5,8.9c-0.9,2.3-1.9,4.5-2.9,6.7c2.5-0.2,5-0.3,7.4-0.7c4.3-0.6,9-6.7,8.5-10.7C835.4,214,832.5,212.5,826.5,213.9
	 M824,153.4c0.3,4.1,0.2,8.4,1.1,12.5c1.4,6.7,3.4,13.2,5.2,19.8c0.2,0.7,0.4,1.4,0.6,2.2c0.4-0.9,1.1-1.9,1-2.8
	c-0.5-7.2-1.1-14.4-2-21.6c-0.6-4.9-1.9-9.8-3-14.7c-0.2-1-1.1-1.8-1.7-2.6c-0.8,1.2-1.7,2.3-2.1,3.6
	C822.9,150.5,823.6,151.5,824,153.4 M307.5,187.9c1.2,1.1,2.3,2.3,3.5,3.4c0.7-2,1.4-4,2-6.1c0.1-0.6,0.3-1.6-0.1-2
	c-1.4-1.5-3-2.9-4.5-4.3c-0.8,1.6-1.9,3.2-2.3,4.9C305.8,184.9,306.6,186.2,307.5,187.9 M832,203.4c-1-2.8-2-5.5-3-8.3
	c-0.2-0.4-0.4-0.8-0.5-1.2c-0.2,0.4-0.6,0.9-0.5,1.2c0.7,3.6,1.5,7.1,2.3,10.6C830.8,205.2,831.4,204.8,832,203.4 M745,239.4
	c0.6,0.7,1.1,1.5,1.7,2.2c0-1.5,0-3-0.1-4.6C746.1,237.5,745.5,237.9,745,239.4 M820,175.4c0.1,0.7,0.2,1.5,0.3,2.3
	c0.6-0.5,1.6-0.9,1.6-1.4c0-1.1-0.4-2.3-0.7-3.4C820.8,173.4,820.4,173.9,820,175.4 M843.5,211.9c-0.1,0.9-0.2,1.8-0.3,2.7
	c0.2-0.2,0.7-0.4,0.7-0.6C844,213.1,844,212.2,843.5,211.9 M772,140.4c-0.4-0.5-0.8-1-1.2-1.5c-0.2,0.8-0.4,1.7-0.7,2.6
	C770.6,141.3,771,141.1,772,140.4"/>
<path d="M770,839.9c-4.5,9.6-8.9,18.8-13.5,27.8c-0.7,1.3-2.4,2.1-3.6,3.2c-0.6-1.4-2.1-3-1.8-3.9c2-5.5,4-11.1,6.6-16.3
	c4.4-8.7,9.3-17.1,13.6-25.8c1.7-3.5,2.6-7.3,3.6-11c0.6-2.3,0.1-4.2-2.8-5.1c-9.5-3-15.8-9.7-20.1-18.4c-3-6.1-0.2-12.3,6.2-14.6
	c7.3-2.5,12.3-7.3,14.9-14.9c2.5-7.4,6.3-14.4,8.9-21.7c1-2.9,0.3-6.3,0.4-9.4c0.1-1.8,0-3.8,0.7-5.3c0.3-0.7,3.4-1,3.8-0.5
	c4.2,5.8,3.7,13,0.9,18.8c-4,8.1-9.4,15.5-11.2,24.9c-0.8,3.9-6,7.1-9.4,10.3c-1.4,1.4-3.9,1.6-5.3,2.9c-1.6,1.7-3.9,4.2-3.6,6.1
	c0.3,2.4,1.8,5,5.3,6.1c3.5,1,7.2,3.2,9.4,5.9c2.5,3,4.3,6.2,8.1,7.8c0.9,0.4,1.1,3.7,0.8,5.5c-1,5.9,3.7,5.9,7,6.4
	c2.5,0.4,5.3-0.6,7.9-1.2c3.1-0.8,5.8-1.5,8.5,1.1c3,2.8,4,5.9,3.6,10c-1.2,9.4-9.1,10.7-15.8,13.1c-3,1.1-2.8,0.8-1.4,3.7
	c3,6,5.1,12.5,7.2,19c1.6,4.8,2.4,9.9,4.2,14.7c2,5.8,7.5,6.3,12.4,6.6c6.4,0.4,13,1.2,18.6-3.3c0.9-0.8,2.4-0.8,3.7-1.2
	c-0.3,1.1-0.5,2.3-0.8,3.5c-1.3,5.6-6.1,6.8-10.6,7c-5.8,0.3-11.7-0.5-17.5-0.8c-0.6,0-1.6,0.7-1.6,0.7c3,6.8-2.4,12-3.6,18
	c-1.8,8.9-3.6,17.8-5.8,26.6c-2.1,8.4-5.1,16.6-6.7,25.1c-0.9,4.6-0.2,9.7,0.3,14.5c0.5,5.1,1.8,10.2,2.3,15.4
	c0.1,1.1-1.6,2.4-2.5,3.7c-1.1-1.2-2.9-2.3-3.2-3.7c-1.3-5.8-2-11.8-3.2-17.7c-0.3-1.4-2.1-3.4-3.2-3.5c-3.4-0.1-2.3-0.6-1-2.5
	c6.2-9,8.7-19.2,10.3-29.8c1.2-7.9,2.6-15.8,4.4-23.7c1.6-7.3,3.5-14.6,5.7-21.7c0.7-2.4-0.2-3.6-1.8-4.4c-3.5-1.6-4.3-4.3-4.4-7.8
	c0-2.7-0.5-5.4-1-8c-0.2-1.1-1-2.1-1.5-3.1c-0.8,1-1.9,1.9-2.4,3c-1,2.6-1.6,5.4-2.7,7.9c-0.4,0.9-1.7,1.3-2.6,2
	c-0.6-1.1-1.9-2.4-1.6-3.2c1.6-4.3,2.6-9.4,5.6-12.4c2.2-2.3,2.7-4.1,2-6.1c-1.6-4.8-3.9-9.4-5.9-14c-0.3-0.5-0.9-0.8-1.4-1.3
	c-0.5,0.7-1.1,1.3-1.4,2c-1.7,4.9-3.4,9.9-5,14.9c-1.3,3.8-3.9,5-5.8,2.7c-0.5-0.7-0.5-2.2-0.2-3.1c2.5-6.6,5-13.2,7.8-19.7
	c0.5-1.3,2.5-2.8,3.7-2.7c7,0.5,14.4-2.9,17.5-8.7c1.1-2,1.8-4.1,2.8-6.2c-2.4,0.3-4.7,0.8-7,0.7c-5.7-0.4-7.8,2.1-6.9,7.6
	c0.1,1.1-1.2,2.3-1.8,3.5c-1-0.8-2.4-1.4-2.9-2.4c-1.2-2.2-1.5-5-3-6.7c-1.5-1.6-4-2.3-6.1-3.3c-0.2-0.1-0.7,0.5-1.1,0.8
	c4.7,2.9,1.1,5.9-0.1,8.7C773,835.3,771.3,837.2,770,839.9"/>
<path d="M796,712.9c1.6-1,2.8-2,4-3c-1.5-0.7-2.9-1.3-4.4-2.1c-2.4-1.3-5.2-2.3-7.2-4.2c-4.4-4.2-9-7.8-14.4-11
	c-5.5-3.2-10.9-7.8-14.4-13.1c-3.2-4.8-2.2-12.5,1.3-16.4c7.4-8.6,12.8-19.2,22.8-25.4c10.1-6.3,21.2-9.7,33-10.8
	c1.1-0.1,2.2,0.6,3.3,1c-1,1-1.8,2.5-2.9,2.9c-6.1,1.8-12.4,3-18.4,5.1c-8.9,3.2-17.3,7.5-22.2,16.1c-1.4,2.3-2.3,5.3-2.4,7.9
	c0,3.1-1.3,3.1-3.5,3c-1.1-0.1-2.3,0.2-3.5,0.3c0.9,1.2,1.5,3,2.7,3.5c3.4,1.6,6.8,3.1,10.4,3.8c6.7,1.2,13.6,2.8,20.2-0.6
	c2.1-1,4-2.5,6.2-3c2.1-0.6,4.5-0.2,6.7-0.2c-1,1.7-1.5,4.2-3,5c-11.5,6.8-23.5,7.1-35.7,2.3c-1.8-0.7-3.7-1.2-5.5-1.8
	c1,1.7,1.6,3.8,3,5.1c5.1,4.8,9.9,10.4,15.9,13.5c4,2,5.5,2.8,5.3,7.5c-0.2,3.2,13.8,8.9,17,7.5c0.7-0.3,1-1.5,1.7-2.1
	c1.3-1,2.7-2.2,4.2-2.8c1-0.3,2.3,0.1,3.5,0.2c-0.4,0.9-0.8,1.9-1.2,2.7c-0.4,0.7-0.8,1.2-1.3,1.8c0.7,0.1,1.3,0.3,1.9,0.2
	c2.1-0.2,4.2-0.8,6.2-0.7c1.9,0.1,3.8,0.9,5.7,1.4c-1.4,1.1-2.6,2.7-4.2,3.2c-2,0.8-4.4,0.7-6.5,1.2c-1.2,0.3-2.2,1.3-3.3,2
	c1.1,1,2.2,2.7,3.4,2.8c5.1,0.3,10.1,0.1,15.2,0.2c0.9,0,1.9,0.3,2.6,0.8c1.1,0.7,1.8,1.8,2.7,2.7c-1.1,0.5-2.2,1.4-3.4,1.4
	c-5.2,0.1-10.4,0-15.6,0.1c-0.3,0-1,1.1-0.9,1.4c3.5,9.8,9.9,17.5,18.3,23.3c4.8,3.3,10.5,3.6,16.2,3.3c1.1,0,2.3,0.8,3.5,1.2
	c-1.1,0.9-2,2.1-3.2,2.7c-6.8,3.3-13.3,1.5-19.8-1.3c-4.1-1.8-8.4-3-12.5-4.7c-2.1-0.9-4.3-2.3-5.8-4c-0.9-0.9-0.4-3-0.6-4.6
	c1,0.2,1.9,0.6,2.9,0.6c1,0.1,1.9-0.2,2.9-0.3c-0.7-0.6-1.7-1-2.1-1.7c-2-3.6-3.8-7.3-5.9-10.8c-0.8-1.5-2-3.6-3.4-3.9
	c-6.5-1.4-13.1-2.1-19.7-3.3c-2.5-0.4-5.3-1-7.5-2.3c-1.5-1-2.2-3.3-3.3-5c2.1,0.1,4.4-0.4,6.3,0.3C790,712.7,792.4,715.2,796,712.9
	 M808.5,711.9c-1.5,0.5-3,1.1-4.5,1.7c0.8,0.8,1.6,2.1,2.5,2.1c1.8,0.2,3.7-0.3,5.5-0.6C811.1,714,810.3,712.9,808.5,711.9"/>
<path d="M979.2,701.9c1.7-10.3,2.8-20.4-3.2-29.8c-3.2-5-6.7-9.8-9.3-15.2c-3.4-7-9.1-11.5-15.1-16.1c-7.2-5.6-16.1-6.3-24.3-8.8
	c-6.6-2-13.4-3.3-20.2-4.4c-9.7-1.6-19.3-3.2-29.5-2.1c-13,1.4-24.9,5.3-36.9,10c-8.8,3.4-18.2,5.2-26.7,9.1
	c-7.4,3.5-14,8.8-21,13.3c-0.2,0.2-0.3,1.1-0.1,1.3c1,1.2,2.1,2.1,3.1,3.2c1,1.1,1.8,2.2,2.7,3.2c-1.9-0.1-4,0.4-5.6-0.3
	c-3.3-1.5-5.9-5-10.3-2.7c-0.5,0.3-3.1-2.2-3.7-3.8c-0.9-2.5,0.2-6,2.8-5.7c6.2,0.7,10-2.8,14.1-6.2c6.1-5.3,13.4-8.2,21-10.7
	c8.2-2.7,16-6.5,24.2-9.3c18.1-6.2,36.9-9.9,56.1-7.9c9.9,1.1,19.6,3.9,29.4,6.1c5.8,1.3,11.6,2.5,17.2,4.3
	c10.4,3.2,19,8.7,24.7,18.5c5,8.6,11.7,16.4,15.9,25.4c3.5,7.4,3.9,16.1,1.1,24.4C984.7,700.4,982.9,702.5,979.2,701.9"/>
<path d="M292,480.9c-1-9.1-2.1-17.7-3-26.3c-0.3-2.8-0.5-6,3.2-6.6c3.6-0.6,6.8,0.7,7.9,4.5c1.2,4.4,2.1,8.9,2.8,13.3
	c0.5,3.2,1.7,4.6,4.9,4.1c4.1-0.7,8.1-1.6,12.2-2c6.9-0.8,8.3-2.4,7-9c-0.6-3.2-1.5-6.4-2-9.7c-0.8-5.4,1.4-8.8,5.7-9.3
	c4.9-0.7,7.5,1.4,8.2,7.2c0.9,7.3,1.4,14.7,2.1,22.1c0.6,7.1,1.5,14.1,1.9,21.2c0.1,2.3-1,4.9-2.1,7c-1.4,2.5-6,2.2-7.4-0.8
	c-1.9-4-3.3-8.3-4.3-12.6c-0.7-2.9-2-3.6-4.5-3.2c-2.7,0.4-5.4,0.6-8.1,1.1c-3.5,0.7-9.1,0.6-10,2.6c-1.7,3.6-0.5,8.5-0.5,12.8
	c0,2,0.3,4.1-0.1,6.1c-0.6,3.4-5,4.7-6.7,1.9c-2.6-4.1-4.6-8.7-6.1-13.4C292.1,488.6,292.3,484.9,292,480.9"/>
<path d="M392,684.9c-3.3,19.3-16.3,28.5-33.2,33.9c-5.8,1.9-8.7-0.3-8.8-6.7c-0.3-10.6-0.6-21.3-1-32c-0.3-5.5-0.8-11-1-16.5
	c-0.1-5.3,3-8.5,8.4-8.7c15-0.5,28.8,4.9,34.8,21.8C392,679,391.7,681.8,392,684.9 M365,696.4c1.8,4.7,3.7,5.8,6.4,3.5
	c4.9-4.2,9.1-9.1,8.5-15.9c-0.8-8.8-5.3-15.7-14.1-18.6c-1-0.4-3.6,1.1-3.7,1.8C361.8,676.7,361.9,686.2,365,696.4"/>
<path d="M165,529.9c2.7-7.7,6-8.8,14.3-5.3c7.5,3.2,15,6.4,22.5,9.6c1.6,0.6,3.3,1,4.8,1.7c5,2.2,6.3,6.5,2.4,10.1
	c-2.7,2.6-6.4,4.3-10,5.8c-6.9,2.7-13.9,5-20.9,7.4c-2.3,0.8-4.8,1.4-7.1,2.2c-0.5,0.2-0.9,1-0.9,1.6c-0.1,0.2,0.8,0.8,1.3,0.8
	c10.4-0.3,19.1,5.1,28.6,8.2c2.4,0.8,4.7,3.7,5.7,6.1c0.4,1.2-2.2,4.6-4.1,5.3c-2.1,0.8-5-0.1-7.3-0.8c-8.9-2.7-17.7-5.7-26.5-8.4
	c-2.4-0.7-5-1.2-7.4-1.3c-3.9,0-6.7-1.5-7.3-5.2c-0.9-4.7,0.8-8.6,5.2-10.8c5.1-2.5,10.3-4.9,15.6-7c4.1-1.6,8.5-2.7,12.7-4.2
	c0.9-0.4,1.6-1.3,2.4-1.9c-0.8-0.7-1.6-1.6-2.5-1.9c-5.3-1.8-10.8-3-15.8-5.2C168.3,535.6,166.9,532.5,165,529.9"/>
<path d="M554,530.9c0,5,0,9.4,0,13.9c-0.1,3.2,0.3,7-4.5,7c-4.4,0-6-3.4-6.4-7c-0.5-4.1-0.1-8.3-0.1-12.5c0-1,0.3-2.2-0.1-3
	c-1-1.9-2.3-3.6-3.5-5.4c-1.3,0.9-3.1,1.6-3.7,2.9c-1.5,3-2.9,6.2-3.6,9.5c-0.8,3.7-0.4,7.8-1.2,11.5c-0.8,3.4-4.2,4.1-6.8,1.7
	c-5.2-5-6.7-8.3-3.7-15.8c1-2.5,1-5.9,0.4-8.7c-0.5-3-3-2.9-5.2-1.2c-3.5,2.8-5.5,6.5-5.6,11.1c0,2.3-0.2,4.7,0,7
	c0.4,3.9-0.4,6.7-5,7c-3.7,0.2-7.9-2.5-7.9-6.2c-0.1-7.5,0.6-15,0.9-22.5c0-1.3,0-2.7,0-4c0-5.2,1.8-7.3,6.2-7.3
	c5.5-0.1,7.5,1.8,7.8,7.2c0.1,0.9,0.3,1.8,0.5,2.7c0.6-0.6,1.2-1.2,1.8-1.7c5.7-5.4,7.9-5.9,13.9-1.3c3,2.3,4.2,0,5.8-1
	c8.3-5.2,12.6-4.3,17.1,4.8C552.7,522.9,553,526.7,554,530.9"/>
<path d="M425.2,783.1c-4.9,3.3-10,1.5-11.2-3.8c-0.8-3.8-1.2-7.8-2.1-11.6c-1.1-5-5.2-4.7-9.1-4.9c-3.9-0.1-5,2.6-5.8,5.4
	c-0.9,3.3-1.5,6.7-2,10.1c-0.4,2.9-2.6,4.7-4.7,4c-2.1-0.6-4.9-3.1-5-4.9c-0.3-3.9,0.6-7.9,1.8-11.7c3.3-10.7,7.1-21.3,10.6-32.1
	c1.6-5.1,3.3-10.1,9.7-10.7c5.1-0.4,9.5,3.4,11.5,10.8c2.5,9.2,4.1,18.6,6.1,27.9c0.7,3.1,1.4,6.1,2.3,9.1
	C428.6,775.1,428.3,779.1,425.2,783.1 M404,746.4c-1.9,1.9-1.4,3.6,0.9,4.4c1.8,0.6,3.6,0.3,3.1-2.6c-0.2-1.8,0.2-3.8-0.1-5.6
	c-0.2-1.3-1-2.5-1.5-3.7c-0.8,1.3-1.7,2.6-2.4,4C403.7,743.6,404,744.5,404,746.4"/>
<path d="M653.7,691.6c10.9-7.5,21.1-15.7,32.4-21.8c5.1-2.7,12.3-1.7,18.6-1.7c1.7,0,3.9,2.4,5,4.1c6,9,3.6,25.2-7.5,29.1
	c-9,3.2-16.6,1.5-22.3-5.9c-2.5-3.3-5.5-1.5-8,0.2c-1.9,1.3-3.4,3.1-5,4.9c-3.3,3.5-7.7,2.8-11.4,2.1
	C651.5,701.8,650.9,697.3,653.7,691.6 M692.5,680.9c-3.4,2.2-2.9,6.7,0.8,9c2.8,1.7,5.6,1.7,7.1-1.2c1-2,1.6-5.2,0.7-6.9
	C699.5,678.8,696.3,679.1,692.5,680.9"/>
<path d="M201.2,623.1c-9.7,1.4-19.2,2.6-28.7,3.8c-5.7,0.6-11.4,1.6-17.1,1.9c-5.3,0.3-8-2.9-8.5-8.2c-0.5-5.9-2-11.8,1-17.7
	c3.3-6.2,14.1-10,19.6-5.8c3.6,2.8,5.9,1.9,7.6-1c1.9-3.4,4.6-3.4,7.6-3.2c15.1,0.6,24,16.7,20.2,28.1
	C202.7,621.7,202,622.2,201.2,623.1 M163.5,606.9c-4.8-4.2-9.1-3.8-9.3,1.1c-0.2,3.4,0.2,7.7,2.2,10.2c1.6,2,6,1.9,9.1,2.6
	c0.4-2.5,1.3-5.1,1.1-7.7C166.4,611.2,164.9,609.3,163.5,606.9 M190.5,614.9c1.7-5-1.2-8.3-4.4-11.1c-0.8-0.8-3.8-0.4-4.8,0.5
	c-3.6,3.1-2.7,7.4-1.7,11.2c0.2,0.7,4.9,0.3,7.6,0.3C188.1,615.8,189.1,615.5,190.5,614.9"/>
<path d="M479,779.9c0.8-15.2,3.1-29.6,7.2-43.6c0.9-2.9,4.4-5.4,7.2-7.2c1-0.6,4.4,0.8,5.2,2.2c1,1.8,0.7,4.4,0.7,6.7
	c0,1-0.8,2-0.9,3c-0.2,1.6-0.1,3.2-0.1,4.7c1.3-0.5,2.6-1,3.8-1.5c5.4-2.2,10.3-6.7,16.7-3.3c1.6,0.9,2.8,2.5,4.2,3.8
	c-1.7,1.7-3,3.9-5,5c-2.2,1.3-5,1.6-7.6,2.1c-4.8,1-5.5,4.3-3.9,7.9c1.7,4.1,4.5,7.8,6.5,11.8c1.7,3.4,5.4,6.5,2.9,10.8
	c-1,1.6-3.3,3.3-4.9,3.3c-1.9,0-4.6-1.4-5.5-3c-3.5-6-6.4-12.3-9.5-18.5c-0.4-0.8-1-1.5-1.6-2.2c-0.8,0.8-2.2,1.5-2.3,2.4
	c-0.6,4.6-1,9.4-1.1,14c0,3.4,0,6.7-4,7.5C483,786.5,479.8,784.9,479,779.9"/>
<path d="M823.2,520.1c-3.3,2.4-6.1,5.2-9.5,6.6c-3.3,1.4-3.3,2.8-2,5.4c1.9,3.8,4,7.4,5.1,11.4c0.8,3,0.6,6.4-2.6,8.8
	c-3.5,2.6-6.5,2.5-8.1-1.6c-1.8-4.6-2.7-9.6-4.2-14.3c-0.3-1.3-1.2-2.4-1.8-3.5c-0.7,1-1.6,2-2.1,3.2c-1,2.6-1.6,5.3-2.7,7.9
	c-2.2,5.1-5.6,5.9-11.6,3.1c-4.4-2.1-5.1-4.2-2.2-9.2c6.7-11.5,13-23.1,17.1-35.9c2.7-8.6,7.4-8.4,14.4-5.1
	c6.1,2.9,9.7,8.1,11.5,14.3C825.3,513.7,823.9,516.9,823.2,520.1 M807,507.4c-0.4,1.3-0.9,2.6-1,4c-0.1,2.4,0.1,4.7,0.1,7.1
	c2.2-0.6,4.4-1,6.5-1.7c4.1-1.4,2.6-4.5,1.7-7.1C813.1,506.6,811.1,504.6,807,507.4"/>
<path d="M461.2,761.6c1.4,2.4,2.7,4.6,3.8,6.8c2.4,5.2,1.2,10.1-2.3,14.1c-3.4,3.8-8.2,5.2-13.1,4.2c-3.3-0.6-6.3-2.5-9.4-3.9
	c-4.1-1.8-5.5-4.9-3.6-9c1.8-3.8,4.8-3.4,8.2-2.1c2.1,0.9,4.6,0.6,6.9,0.9c-0.9-2.1-1.4-4.4-2.7-6.1c-3-4-6.2-7.8-9.4-11.5
	c-4.1-4.8-3.4-13.4,0.8-19c3.6-4.7,11.5-6.6,17.5-4.5c3.3,1.1,6.3,3.5,9,5.9c3,2.7,3,6.4,0.5,9.4c-2.4,2.9-5.4,3.8-8.9,1.2
	c-1.5-1.1-3.6-1.2-5.4-1.7c0.7,1.8,1.3,3.7,2.3,5.4C457.1,755,459.1,758.1,461.2,761.6"/>
<path d="M517.7,611.1c0.8,3.1,2,6,1.5,8.7c-0.2,1-4.5,2.4-6.2,1.8c-2.4-0.9-4.4-3.3-5.9-5.6c-1-1.6-0.6-4-1.2-5.9
	c-0.3-1-1.7-1.5-2.6-2.2c-0.5,0.8-1.3,1.6-1.3,2.4c0.2,4.2,0.6,8.4,1,12.6c0.3,3.2-0.5,5.9-3.6,6.9c-3.4,1-6.5-0.4-8.3-3.6
	c-0.8-1.4-1-3.3-1.1-5c-0.4-11.4-1-22.8-0.9-34.2c0.1-4.5,0.9-9.4,2.8-13.3c2-3.9,6.2-5.3,10.8-2.9c4.7,2.4,3.2,6.6,3.2,10.3
	c0,2.6-1,5.2-1.4,7.8c-0.1,0.4,0.2,1.3,0.4,1.4c0.8,0,1.7-0.1,2.4-0.3c2.8-1,5.4-2.5,8.3-3.1c1.5-0.3,4.6,0.4,4.9,1.3
	c0.5,1.9-0.3,4.2-0.7,6.3c-0.2,0.5-1.2,1-1.9,1.3c-8.3,4.8-8.5,7-1.5,14C516.8,610.1,517.1,610.5,517.7,611.1"/>
<path d="M683.7,556.1c-0.9-1.6-1.7-3-2.3-4.4c-1.3-2.6-1.6-5,0.7-7.6c2.4-2.7,5.1-4.4,8.5-2.9c2.9,1.2,4.8,0.8,6.9-1.3
	c4.4-4.1,9.7-4.2,14.8-2c5.4,2.2,7.3,6.8,7.8,12.6c0.8,8.3-4.9,12.3-10.4,15.1c-2.2,1.1-6.4,2-6.4,2.9c0.1,3.2,1.1,6.7,2.7,9.7
	c2.1,4,4.6,7.8,1.9,12.3c-0.9,1.6-2.6,4.2-3.5,4.1c-2-0.3-4.5-1.8-5.3-3.5c-4.6-10.3-8.8-20.7-13.1-31.1
	C685.4,558.8,684.6,557.6,683.7,556.1 M701,548.4c1.1,2.4,2,5.1,3.6,7.3c0.5,0.6,3.3,0.2,4.5-0.6c2.6-1.9,3.9-4.6,1.2-7.4
	C707.4,544.7,704.4,544.9,701,548.4"/>
<path d="M537,641.9c2-4.2,4.1-7.8,5.9-11.6c0.6-1.2,1.4-3.1,0.9-3.9c-4.3-7.4-5.1-16.5-11.5-22.9c-2.7-2.7-1.6-7.1,1.6-9.1
	c3.4-2.1,9.3-0.4,11,3.8c2,4.6,3.4,9.6,5.1,14.3c0.4,0.9,1.4,1.6,2.1,2.4c0.6-0.7,1.6-1.2,1.8-2c1.5-4.1,2.6-8.3,4.1-12.3
	c1.2-3.2,3.3-5.8,7.3-4.7c2.7,0.7,5.2,6.4,3.9,9.1c-5.2,11.2-10.5,22.3-16.2,33.2c-3.3,6.4-7.1,12.5-11.2,18.4c-1,1.4-4,2.2-6,2
	c-1.1-0.1-2.9-3.1-2.6-4.4C534,650.2,535.6,646.3,537,641.9"/>
<path d="M419,848.9c-2.2,2.3-4.2,5.3-6.7,5.7c-5.5,1-8.3-2.5-9.4-10c-0.2-1.3-1-2.5-1.5-3.7c-0.8,1-2,1.8-2.4,3
	c-0.8,2.6-1.2,5.4-2.1,8.1c-1.8,5.7-7.6,8.6-11.8,5.7c-1.8-1.2-3.1-3.7-4.1-5.9c-1.9-4.5-3.9-9-5.2-13.7c-1.1-3.8-2.2-8.1-1.4-11.7
	c0.4-2.2,4.3-5.1,6.8-5.2c4.2-0.3,5.1,4.1,5.7,7.5c0.4,2.4-0.1,5,0.2,7.4c0.1,1.3,1,2.5,1.5,3.8c0.9-1,2-1.8,2.7-2.9
	c1.1-1.7,1.6-3.7,2.7-5.4c3.6-5.5,11-5.1,13.9,0.7c0.6,1.1,1.2,2.2,1.7,3.4c0.5-1.5,1.2-3,1.3-4.5c0.5-6.5,3.1-10,7.8-9.2
	c1.6,0.3,4.2,2.8,4.1,4C421.9,833.5,420.3,840.9,419,848.9"/>
<path d="M474,541.9c-0.1-1.7-0.3-2.8-0.4-3.9c-0.6,0.8-1.1,1.6-1.7,2.5c-3.8,5.2-14.5,6.4-19.5,2.3c-5.6-4.6-8.7-10.3-7.3-17.4
	c1.1-5.8,10-12.2,17-12.4c2.5-0.1,5,1.5,7.6,1.9c1.4,0.3,3.7,0.1,4.3-0.8c1.6-2.6,2.9-4.2,6.3-2.3c3.3,1.7,6.7,3,6.6,7.4
	c0,2.9-0.9,5.8-0.8,8.6c0,4.5,0.7,9,0.8,13.6c0.1,3.1,1.1,7-3.9,7.4C477.4,549.3,474.5,547.7,474,541.9 M464.5,524.9
	c-1.8-0.2-4.9-1.1-5.2-0.5c-1,1.8-1.5,4.3-1.2,6.4c0.4,2.9,2.8,4.7,5.7,3.9c2.8-0.7,4.3-2.8,2.6-5.9
	C465.8,527.7,465.4,526.5,464.5,524.9"/>
<path d="M248.2,643.6c0.4,2.4,0.5,4.5,0.8,6.5c0.2,1,1.1,1.9,1.6,2.8c0.8-0.7,1.7-1.3,2.4-2.1c2-2.4,3.6-5.5,6.1-7.2
	c1.6-1.1,6.3-0.9,6.7,0c1.1,2.4,1.4,5.9,0.4,8.2c-1.3,3-3.8,6.1-6.6,7.6c-5.1,2.9-5.2,6.6-3.4,11.2c0.9,2.4,1.9,4.8,2.8,7.3
	c1.5,4.7,0.3,8.1-3.2,9c-4.7,1.1-8.7-1.3-9.8-5.7c-0.2-0.9-0.6-1.8-0.9-2.7c-1.5-5.8-1.4-5.6-6.7-1.8c-2.1,1.6-5,2.5-7.7,3
	c-1.4,0.3-4.3-0.7-4.5-1.5c-0.4-1.8-0.1-4.4,1-5.9c2.7-3.6,6.5-6.5,8.8-10.3c1.4-2.1,1.2-5.5,0.9-8.2c-0.6-4.6-2.5-9.2-2.4-13.7
	c0-4.2,3.4-6.7,7.9-6.2c4.4,0.5,5.2,3.9,5.6,7.5C248,642,248,642.7,248.2,643.6"/>
<path d="M402.2,617.6c-1.2-11-2.1-21.7-3.3-32.4c-0.3-2.9-2.7-3.8-5.5-3.2c-1.9,0.3-4,1.3-5.6,0.7c-2.1-0.8-4.6-2.4-5.4-4.3
	c-0.6-1.4,0.9-4.4,2.4-5.6c1.9-1.5,4.7-2.7,7.2-2.8c9.6-0.7,19.3-0.9,29-1.1c4.2-0.1,5.9,2.3,6.1,6.5c0.1,4.6-2.6,5.3-6.1,5.4
	c-7.4,0.3-8.3,0.9-8,8.5c0.5,9.7,0.4,19.5,3.7,28.9c1,2.8,1,6.1-2.4,7.6c-4,1.8-9.1-0.4-10.3-4.1C403.5,620.4,403,619.1,402.2,617.6
	"/>
<path d="M503.7,835.6c-1.7,9.3-2.9,18.4-5,27.3c-0.4,2-3.7,4.4-5.9,4.7c-3.4,0.4-6.1-2.1-5.7-5.9c0.4-5.9,1.1-11.8,2.2-17.6
	c0.8-4.4,1.3-8.6-1.2-12.8c-3.4-5.6-6.1-11.5-9.1-17.2c-2-3.7-1-7,2.9-9.2c3.1-1.8,8.3-0.4,10,3c1.6,3,2.8,6.2,3.9,9.4
	c1.3,3.5,3,3.4,5.2,1c1.8-1.9,3-4.9,5.1-5.7c2.5-1.1,6.4-1.4,8.6-0.2c3.6,2.2,2.4,6,0.2,9C511.4,826.1,507.6,830.7,503.7,835.6"/>
<path d="M444,806.9c0.9,4.5,1.4,9.1,1.7,13.7c0.1,1.4-0.5,2.8-0.7,4.2c-0.1,0.6,0.2,1.2,0.3,1.9c0.5-0.4,1-0.7,1.4-1.1
	c4-4.4,9.2-4.9,14.2-3.2c5.5,1.9,6.7,7,7.1,12.4c0.4,4.9,1.5,9.7,1.9,14.6c0.4,4.3-2.3,6.8-6.1,7.4c-4.9,0.7-5-3.7-5.7-6.7
	c-1-4.3-1.1-8.8-2.3-13.1c-0.5-1.9-2.8-3.4-4.2-5.1c-1.6,1.4-4.2,2.8-4.4,4.5c-0.7,4.4-0.4,9.1-0.5,13.7c0,2.3,0.3,4.7,0.3,7
	c-0.1,4.7-3.6,5.5-6.7,4.5c-2.1-0.7-4.7-3.4-5.1-5.6c-0.6-3.5,0.8-7.3,0.7-11c-0.1-11-0.7-22-0.9-33
	C434.9,806.7,438.3,804.8,444,806.9"/>
<path d="M455,670.9c7.8,0,9.6,0.9,11.3,7.9c1.7,7.2,2.6,14.6,3.6,22c0.6,3.9-0.3,7.4-4.9,8c-2.6,0.4-6.9-4.7-7-8.1
	c-0.1-4.5,0.2-9-0.1-13.5c-0.2-2.2-1.3-4.2-2-6.3c-1.9,1.4-4.1,2.5-5.6,4.2c-3.6,4.3-3,9.7-1.9,14.4c1,4.2-0.2,6.7-3.3,8.2
	c-3.4,1.7-8-0.9-9.1-4.8c-0.6-2.6-0.9-5.3-1-8c-0.1-6.5,0.2-13-0.1-19.5c-0.2-3.9,2.1-5.6,5-6.9c2.8-1.2,5.5-1.3,7.8,1.5
	C449.6,672.4,452,672.7,455,670.9"/>
<path d="M771,940.9c0.6,7.5,1.9,14.6,1.7,21.6c-0.1,3.6-2.7,7.1-4.5,10.5c-0.4,0.7-2.4,0.6-3.6,0.9c-0.2-0.9-0.7-2-0.4-2.6
	c5.1-10.6,2.7-21.1,0.2-31.8c-1.3-5.2-2.2-10.2,0.1-16.4c4.3-12,6-24.9,8.3-37.5c0.4-2.1-1.2-4.5-2-6.7c-2.4,0.9-5.4,1.3-7.1,3
	c-5.7,5.7-8,13.2-9.7,20.9c-1.3,5.8-2.5,11.6-4.1,17.3c-0.4,1.1-2.7,2.7-3.4,2.4c-1.3-0.5-3.2-2.7-2.9-3.5
	c4.4-13.7,5.2-28.7,14.5-40.5c2.1-2.6,5.1-5,8.2-6.2c3.8-1.5,7.2-0.5,9.8,3.7c4.6,7.4,2.7,14.6,0.9,22c-2.6,10.3-5.8,20.4-7.8,30.7
	C768.5,932.3,770.3,936.5,771,940.9"/>
<path d="M866,790.9c-1-7.6-1.8-14.8-3.2-21.7c-0.3-1.7-2.8-3.7-4.6-4.1c-1-0.2-3,2.4-3.8,4.1c-0.7,1.3-0.1,3.2-0.5,4.8
	c-0.3,1.3-1.1,3.4-2,3.6c-1.2,0.3-3.1-0.6-4.1-1.6c-3.3-3.2-1.7-8.9,0.8-13.1c2.9-5,8.1-6.2,13.3-4.9c4.6,1.1,7.1,4.8,8.1,9.6
	c2.9,13.4,3.6,27,2.8,40.7c-0.3,3.7-2.4,7.8-4.8,10.8c-4.6,5.8-10,10.9-15,16.3c-2.9,3.1-8.1,3.4-11.3,0.7c-3.4-2.9-4.2-9.1-1.5-13
	c3.4-4.9,7.6-5.6,12.4-2.1c3,2.1,8.1,0.4,9.2-4c2.1-8.2,6.7-16,4.9-24.9C866.6,791.8,866.2,791.6,866,790.9"/>
<path d="M485.2,707.6c-0.6-6.6-0.7-13-1.3-19.3c-0.2-1.9-1.5-4.2-3-5.3c-4.3-3.4-4.3-7.5,0.5-10.1c3.2-1.7,4.2-4.3,3.5-7.4
	c-1-5.3,1-9,5.7-9.6c6.3-0.9,8.9,1.1,9.4,7.1c0.1,1.3,0.2,2.7-0.1,4c-0.6,3.6,0.5,5.9,4.3,6.6c3.3,0.5,5,3.1,4.5,5.8
	c-0.3,2-2.6,5.1-4.3,5.3c-7.7,1-6.4,7.1-7.3,11.9c-0.5,2.1-0.3,4.3-0.1,6.5c0.3,3.4-0.4,5.8-4,7.3
	C489.5,711.9,487.5,710.2,485.2,707.6"/>
<path d="M371,449.9c9.3-3.6,18.9,2.5,19.1,11.4c0.1,4.3-2.2,5.2-5.6,5.6c-3.5,0.3-7.1,0.3-10.5,1.1c-1.5,0.3-2.7,2.2-4,3.3
	c1.7,0.3,3.4,0.8,5.1,0.9c3.9,0.2,8.4-2.7,10.9,3c1.9,4.3,1.4,9.4-2.7,11.5c-2.9,1.5-7.3,2.5-10.2,1.4c-12.2-4.6-17.6-17-14.1-28.9
	C360.7,453.4,365.7,451.9,371,449.9 M373.5,456.9c-1.2,0.7-2.4,1.5-3.5,2.3c1.6,0.6,3.1,1.6,4.7,1.5c2.4,0,4.8-0.9,7.2-1.4
	C380.2,456.2,377.2,456.9,373.5,456.9"/>
<path d="M637,720.9c-2.4-0.7-4.3-1.3-6.2-2.1c-5.4-2.4-7.4-1.5-8.8,4.2c-2.3,9.2,0,12.5,9.3,12.8c3.3,0.1,5.4,1.5,5.6,4.8
	c0.3,4-1.7,6.9-5.3,8.2c-7.2,2.6-14.3-1.7-17.8-7.7c-6-10.2-5.2-23.7,3.3-31.8c6-5.7,19.6-5.6,25,0.4c1.4,1.6,2.4,5.2,1.6,7
	C642.8,718.6,639.6,719.5,637,720.9"/>
<path d="M405,445.9c0-3.5-0.7-6.8,0.2-9.5c0.8-2.7,2.7-6,5-7.3c2.8-1.5,6.1-0.1,7.2,3.7c0.8,2.6,2.5,5.3,2.5,7.9
	c-0.1,11.2-0.6,22.4-0.9,33.6c-0.1,3.7-0.1,7.5,0,11.3c0.1,2.8-0.7,4.7-3.7,5.3c-3.5,0.6-6-1-7.2-3.9c-1.2-2.6-1.9-5.7-2-8.6
	C405.5,467.7,405.3,457,405,445.9"/>
<path d="M659.7,732.6c0.8-4.3-2.3-5.8-4.8-7.8c-2.4-1.9-6-3.4-4.7-7.6c1.4-4.4,4.9-2.8,7.5-2c2.6,0.8,4.9,2.6,7.2,4.2
	c3.6,2.5,6.8,5,11.8,3.6c3.8-1.1,5.4,2.6,4.1,4.8c-4.3,7.4,0.9,11.7,4.3,16.7c1.5,2.1,3.1,4.1,4.2,6.3c2.1,3.9-0.2,6.8-3,9.2
	c-2.4,2.1-8.6,0.8-11.5-1.8c-3.1-2.7-2.4-5.9-0.3-8.1c2.6-2.8,1-4.6-0.5-6.6c-1.4-2-3.2-2.7-5.8-1.4c-2.9,1.4-6.8,2.4-8.6-0.6
	C658.3,739.4,659.4,735.8,659.7,732.6"/>
<path d="M372,587.9c3.7,3.8,2,7.1-0.8,10.2c-0.5,0.6-1.4,0.9-2.1,1.4c1,0.5,1.9,1.1,3,1.3c6.7,1.5,10.9,6.6,10.9,13.5
	c0,6-6.3,13-12.5,14.6c-4,1-7.9,1.7-10.8-2c-1.3-1.6-2.9-4.4-2.3-5.6c1.2-2.3,3.9-3.7,6-5.4c0.3-0.3,1,0,1.5-0.1
	c2.2-0.4,6.2,1.6,5.7-2.7c-0.1-1.3-4.6-3.3-6.8-3c-5.1,0.6-8.7-1.4-10.3-5.5c-1.4-3.5-1-7.4,1.9-10.8
	C359.8,588.7,365.1,587.2,372,587.9"/>
<path d="M729.7,440.1c-1.4-2.4-2.6-4.6-3.7-6.8c-1.7-3.4-0.9-6.4,1.9-8.8c2.9-2.6,5.9-3.8,9.6-0.8c2.9,2.4,2.9,4.4,1.7,7.6
	c-0.6,1.7-0.1,4.3,0.9,6c5.6,9.6,8.1,20.1,7.8,31.1c-0.2,9.2-11.1,14.9-19.1,10.5c-3.9-2.1-3.4-5.7-2.5-8.5c0.6-1.8,3.2-3.5,6.4-1.7
	c1.8,1,5.7,1.4,4.3-3.3c-2.2-7.6-4.5-15.1-6.7-22.7C730.1,441.9,730.1,441.1,729.7,440.1"/>
<path d="M411,671.9c5.1,0.1,9.2-0.2,13.5,3.5c7.2,6.2,4.6,17.8,0.3,23c-1.7,2.1-3.9,4.1-6.2,5.4c-6.6,3.7-17.6-1.4-19.6-8.8
	C396.1,684,399.9,677.6,411,671.9 M417,687.4c-1.3-3-4-5.1-6.6-3.9c-1.1,0.6-0.9,5.5,0,7.9c0.5,1.4,3.7,1.7,5.7,2.5
	C416.4,692,416.7,690.2,417,687.4"/>
<path d="M769.2,614.1c-4,2.7-7.9,1.4-9.1-3.2c-1.2-4.4-2.6-6.1-7.6-4.3c-6.1,2.3-10.3-0.5-9.3-5.6c0.3-1.9,2.4-4.1,4.3-5
	c4.8-2.2,5.2-5.2,2.8-9.4c-0.7-1.2-1.1-2.6-1.8-3.7c-1.8-2.7-2.3-5.8,0.6-7.4c2.6-1.5,6-1.7,8.4,1.3c0.4,0.5,1.2,0.9,1.3,1.5
	c1.4,5.9,4.1,6.6,8.9,2.8c1-0.9,4.9,0.2,6,1.5c1,1.2,0,4.1-0.3,6.3c-0.1,0.5-0.9,0.9-1.3,1.4c-6.4,6.4-6.2,6.3-3.2,14.2
	C770,607.3,769.3,610.7,769.2,614.1"/>
<path d="M452.7,610.1c-1.9-7.8-0.5-14.1,6.8-18.3c5.2-3,10.4-2.3,15.8-1.1c3.1,0.7,4.7,3.2,3.5,5.8c-1,2.1-3.4,4.1-5.6,5.2
	c-2.2,1-5,0.8-7.5,1.2c-3.7,0.5-4.5,3.4-3.6,6.1c1.1,2.9,3.7,1.8,6.2,1.2c2.6-0.6,6.2-1.2,8.3,0.1c4.5,2.9,2.4,11.4-3,13.6
	c-6.2,2.5-12.6-0.4-15.6-4.7C456,616.5,454.6,613.3,452.7,610.1"/>
<path d="M438,463.9c0.2-3.4-0.1-6.5,0.8-9.2c2.9-8.5,8.5-9.7,17.5-6.8c8,2.6,12.1,9.3,11.1,16c-1,6.6-6,10.6-11.6,12.1
	c-3.3,0.9-8-1.4-11.3-3.5C441.7,470.7,440.1,467.1,438,463.9 M457,462.4c0-1.4,0.1-2.7,0-4c-0.3-2.3-5.4-4.5-5.9-2.9
	c-0.7,2.6-1,6.1,0.1,8.4C452.5,466.5,454.9,464.5,457,462.4"/>
<path d="M436,583.9c4.5-1.1,7.1,1.6,8.5,4.3c1.6,2.9,0.5,6.2-2,8.7c-0.8,0.9-1.4,2.2-1.5,3.4c-0.4,7.5-0.6,15-1.1,22.5
	c-0.1,1.9-0.1,4-1,5.5c-1.5,2.3-3.9,5-6.9,3.4c-2.4-1.4-5.8-4.4-5.7-6.5c0.6-9.3,2.3-18.5,3.6-27.8c0.2-1.6,0.4-3.4,0-4.9
	C428.7,586.7,429.7,585,436,583.9"/>
<path d="M383,550.9c-2.8-4.7-4.3-9.2-4.1-14.3c0.3-6.2,0.1-12.3,0.1-18.5c-0.1-3.9,1.7-7.2,5.3-8.1c3.6-0.9,5.8,1.7,6.7,5.2
	c0.6,2.5,1.7,5.1,1.9,7.6c0.6,7.5,0.9,15,1,22.5c0.1,2.5-0.4,5.1-1,7.6c-0.7,3-4.7,4-7.4,1.9C384.4,553.9,383.8,552.5,383,550.9"/>
<path d="M584,955.9c1.6-8.5,3.5-16.4,4.9-24.5c0.4-2.6,0.1-4.7,3.9-4.6c3.6,0.1,3.4,2.4,3.1,4.7c-0.4,3.6-1.3,7.1-1.7,10.7
	c-0.2,1.7,0,4.5,0.8,4.9c1.9,0.8,4.5,0.9,6.6,0.4c0.7-0.1,1.2-2.7,1.3-4.2c0.2-2.5,0.3-5,0-7.5c-0.3-2.4,0.7-3.3,2.8-3.1
	c1.3,0.1,3.4,0.5,3.7,1.3c0.9,2.6,1.7,5.6,1.5,8.3c-0.7,6.3-1.8,12.5-3,18.7c-0.4,2.1-1.2,5.1-2.6,5.6c-4,1.5-5.7-0.3-5.3-4.7
	c0.1-0.7,0.5-1.4,0.6-2.2c0.2-1.9,1.1-5.1,0.4-5.6c-3-1.9-9.5,0.3-9.7,3.2c-0.5,4-3,4-5.5,3.4C584.9,960.4,584.6,957.9,584,955.9"/>
<path d="M675.7,826.6c-4.1,1.6-6.5-0.5-7.7-6.4c-0.4-2.2-0.3-4.5-3.6-4.4c-4,0.2-5.4,2.5-4.1,6.9c0.6,2.2,1.5,4.5,1.5,6.7
	c0.1,1.1-1.5,3.3-2.2,3.2c-1.6-0.1-3.9-1-4.3-2.2c-3.4-8.2-6.4-16.7-9.2-25.1c-0.4-1.1,0.3-2.9,1.1-3.9c0.3-0.4,2.6-0.2,3.2,0.5
	c1.7,2,3.6,4.1,4.4,6.5c1,2.7,2.2,4.2,5,3.4c2.9-0.8,3.7-3.1,3.1-5.7c-0.3-1.5-1.5-2.8-1.8-4.2c-0.4-1.5-0.1-3.1,0-4.6
	c1.8,0.2,3.7,0,5.3,0.7c1.1,0.5,2,2.1,2.5,3.3c2.1,5.5,4.3,10.9,6,16.5C675.7,820.5,675.6,823.5,675.7,826.6"/>
<path d="M623,878.9c2.2,1.7,4.1,3.3,5.6,5.2c0.8,0.9,1.2,2.2,1.3,3.4c0.3,2.5,0.8,5.2,4.1,4.3c3.6-1.1,1.8-4.4,1.6-6.7
	c-0.1-1.1-1.8-2-1.9-3.1c-0.3-2,0.1-4.1,0.2-6.1c2.3,0.3,5.3-1.3,6.3,2.6c1.8,7.1,4.1,14.1,5.6,21.2c0.3,1.4-2,3.3-3.1,5
	c-0.9-1.3-1.9-2.6-2.7-4c-0.5-0.9-0.9-2-1-3.1c-0.2-3-1.9-2.2-3.2-1c-1.8,1.7-3.4,3.3-2.3,6.6c0.6,1.8-0.8,4.8-2.2,6.6
	c-1.8,2.3-3.6,1.2-4.3-1.5c-2.1-8.4-4.1-16.9-6.5-25.3C619.8,880.5,619.9,879.3,623,878.9"/>
<path d="M622.2,942.1c5.4-5.3,8.4-5.8,11.6-1.9c0.6,0.7,1.1,1.7,1.1,2.5c0.5,6.4,0.9,12.8,1,19.1c0,1.6-1,3.4-2.1,4.6
	c-0.8,0.9-2.5,1-3.8,1.5c-0.4-1.3-0.9-2.6-1-3.9c-0.1-2.1,2.4-5.4-1.3-5.9c-3.3-0.6-3.3,2.8-4,5.4c-0.6,1.9-0.6,5.2-4.4,4.4
	c-3.5-0.8-2.2-3.6-2.3-5.6C616.8,955.2,617.9,948.4,622.2,942.1 M629,950.4c0-0.7,0.1-1.4,0-2c-0.4-1.5-0.8-3-1.2-4.5
	c-0.9,1.6-1.9,3.3-2.8,5c-0.2,0.5-0.2,1.3,0,1.9c0.3,1.1,0.8,2,1.2,3.1C627.1,953,628,952.2,629,950.4"/>
<path d="M653,892.9c0-4.9-0.7-9.5,0.4-13.6c0.6-2.2,4.1-4.9,6.4-5.1c2,0,4.7,2.9,6.1,5.1c2.6,4.3,4.6,9.1,6.7,13.7
	c1.2,2.7,0.6,5.5-2.2,6.5c-0.9,0.3-3.5-2.3-4.3-4.1c-0.9-2.3-1.7-4.6-4.3-3.3c-1.1,0.6-1.4,3.4-1.7,5.3c-0.1,1.4,1,2.9,0.8,4.1
	c-0.3,1.2-1.7,3.2-2.5,3.2c-1.5-0.2-3.8-1.2-4.2-2.4C653.3,899.5,653.3,896.4,653,892.9 M661,882.4c-0.7-0.7-1.4-1.3-2.1-2
	c-0.3,2-0.7,4-0.8,6c0,0.4,1.1,0.8,1.6,1.2C660.3,886,660.9,884.4,661,882.4"/>
<path d="M680.2,792.1c7.9-1.1,10,5.4,13.7,9.7c1.2,1.2,2.1,2.8,2.8,4.3c0.6,1.6,1.5,3.5,1.1,4.9c-0.5,1.8-2.3,3.3-3.5,4.9
	c-0.8-1.2-1.6-2.4-2.4-3.6c-0.3-0.6-0.5-1.4-0.9-2.1c-0.8-1.1-1.7-2.2-2.5-3.3c-0.8,1.6-2.1,3.2-2.4,4.9c-0.2,1.2,1.2,2.6,1.1,3.9
	c-0.1,1.6-0.9,3.2-1.4,4.8c-1.5-0.6-4-0.8-4.3-1.8c-2.1-6.6-4.1-13.3-5.3-20.2C675.9,796.7,678.6,794.4,680.2,792.1 M684,805.4
	c0.4-0.5,1.3-1,1.3-1.4c-0.1-1.7-0.3-3.4-0.8-5.1c-0.2-0.5-1.3-0.7-2-1c-0.2,1.5-0.6,3.1-0.4,4.6C682.2,803.7,683,804.7,684,805.4"
	/>
<path d="M800.7,760.1c-3.6,1.8-6.9,3.8-10.2,5.7c-2.7,1.6-5.8,1.4-7-1.2c-0.7-1.6,0.3-5,1.8-6.3c7.7-6.8,19.9-5.9,26.3,1.9
	c1.2,1.4,1,4,1.4,6.1c-2.2-0.5-4.5-0.5-6.4-1.5C804.5,763.8,802.8,761.9,800.7,760.1"/>
<path d="M765,491.9c0.7,2,1,4.1,1.1,6.2c0,0.3-1.3,0.9-1.5,0.7c-0.7-0.6-1.6-1.5-1.5-2.2C763.3,495,764,493.4,765,491.9"/>
<path d="M978.7,701.9c0.1,0.3-0.1,0.6-0.3,0.9C978.4,702.5,978.5,702.2,978.7,701.9"/>
<path d="M241,188.9c3.3-0.4,6.2-0.8,9.1-1c1.8-0.2,3.9,0.3,5.5-0.3c4-1.7,6.5-0.8,7.4,3.2c0.7,3.1,1.5,6.1,1.9,9.2
	c0.2,1.4-0.7,3-1.1,4.5c-1.3-0.5-2.9-0.6-4-1.5c-1.2-0.9-2.2-2.4-2.8-3.8c-2.3-5.7-7.6-7.2-12.4-3.5c-1.2,0.9-2.7,1.8-4.1,2
	c-1.1,0.2-3.1-0.4-3.4-1.2c-0.4-1.3-0.3-3.1,0.3-4.4C238,190.8,239.4,189.9,241,188.9"/>
<path d="M276.2,176.1c4.1,0.1,8,0.4,11.8,0.8c0.9,0.1,2,0.4,2.5,1.1c1,1.3,1.7,2.9,2.5,4.4c-1.6,0.1-3.3,0.6-4.7,0.2
	c-5-1.8-9.5-1.2-13.2,2.7c-2.6,2.8-5.1,1.4-6.3-0.5c-0.7-1.2,0.6-4.3,1.9-5.8C271.8,177.6,274.2,177.2,276.2,176.1"/>
<path d="M796,71.9c5.7-0.4,10.9-1,16-1c6.6,0.1,13.1,0.5,19.6,1c1.5,0.1,2.9,1,4.4,1.5c-1.1,1-2.2,1.9-3.1,3.1
	c-1.1,1.5-2.7,3-2.8,4.7c-0.4,4.6,0.1,9.3-0.2,13.9c-0.1,1.3-1.5,3.2-2.6,3.6c-2.6,1-2.3-1.1-2.4-2.8c-0.2-4.4-0.7-8.7-0.9-13.1
	c-0.1-3.1-1.1-4.7-4.5-5.1c-2.2-0.2-4.3-2.1-6.5-2.2c-4.5-0.1-7,3.9-6,8.6c0.8,4,1.4,8.1,1.9,12.2c0.1,0.9-0.4,2.2-1,3
	c-0.7,1-1.8,1.7-2.8,2.6c-0.7-1.1-1.9-2.1-2-3.3c-0.6-4.8-0.8-9.7-1.1-14.5c-0.2-3.5-1-6.3-4.8-7.3C794.3,76.1,794.6,74,796,71.9"/>
<path d="M433,24.9c1.3,0.4,2.8,0.9,2.8,1.4c0.2,6.2,0.6,12.4-0.1,18.5c-0.2,2.2-2.7,5-4.8,5.8c-3.7,1.5-5.8-1.5-7.3-4.6
	c-0.4-0.8-1-1.4-1.6-2.1c-0.6,0.7-1.6,1.4-2,2.3c-1,2.9-2,6.7-5.8,5.4c-2.5-0.8-5.6-3.9-5.9-6.3c-0.6-5.4,0.2-11,0.8-16.5
	c0.1-1,1.5-2,2.3-2.9c0.5,1.2,1.5,2.4,1.5,3.7c0.2,4.7,0,9.3,0.2,14c0,1.4,0.9,2.8,1.4,4.2c0.9-1.2,2.1-2.2,2.4-3.5
	c1.2-5,2-10.2,3.1-15.2c0.3-1.2,1.4-2.2,2.1-3.2c0.6,1,1.6,1.9,1.8,3c0.8,3.7,1.4,7.4,2.1,11.1c0.2,0.9,0.5,1.9,1,2.6
	c0.9,1.2,2.1,2.2,3.2,3.3c0.6-1.6,1.7-3.1,1.7-4.6c-0.1-4.4-0.7-8.7-0.8-13.1C431,27.1,432,26,433,24.9"/>
<path d="M268,35.9c0.4,2.9,0.9,5.4,1.4,7.9c0.9-2.4,1.7-4.8,2.6-7.3c0.4-1.1,0.5-2.4,1-3.5c0.9-2.1,1.9-4.1,2.8-6.1
	c1.4,1.9,3.2,3.7,4.1,5.9c1.3,3.3,2,6.8,3.1,10.2c0.3,0.7,1.3,1.2,2,1.9c0.3-0.8,1-1.6,0.9-2.4c-0.2-4.2-0.9-8.3-0.8-12.5
	c0.1-2,1.5-4,2.3-6c0.8,1.5,2.4,3.1,2.5,4.7c0.3,5.7,0.3,11.4-0.1,17.1c-0.1,1.4-2.4,3.8-3.7,3.8c-2.1,0-4.5-1.2-6-2.7
	c-1.4-1.5-1.6-3.9-2.5-5.9c-0.4-0.8-1-1.4-1.5-2.1c-0.4,0.7-0.8,1.4-1.1,2.2c-0.9,2.6-1.5,5.3-2.7,7.8c-1.5,3.3-5.2,3.5-6.1,0.1
	c-2-7.1-2.9-14.5-4.1-21.7c-0.2-0.7,0.9-1.6,1.4-2.4c0.8,0.6,2.1,1,2.4,1.8C266.8,29.5,267.3,32.5,268,35.9"/>
<path d="M560.7,46.6c-0.4,0.7-0.4,1.2-0.7,1.5c-2.1,2-4.2,5.4-6.4,5.4c-3.7,0.1-4.6-3.6-4.6-7.1c0-4.9-0.2-9.7,0.1-14.6
	c0-1.2,1.3-2.4,2-3.5c0.9,1.1,2.7,2.3,2.7,3.4c0.1,3.6-0.5,7.1-0.8,10.6c-0.1,1-0.3,2.1,0,3c0.4,0.9,1.2,1.7,1.8,2.6
	c0.5-0.7,1.3-1.2,1.6-2c1.6-4.3,2.9-8.7,4.7-13c0.6-1.5,2.2-2.7,3.3-4c0.5,1.6,1.2,3.1,1.5,4.8c0.8,3.7,1.3,7.4,2.2,11.1
	c0.2,0.8,1.4,1.4,2.2,2.1c0.6-0.9,1.6-1.8,1.6-2.7c0.1-3.1-0.4-6.2-0.3-9.3c0.1-1.7,1-3.4,1.5-5c1,1.1,2.3,2.1,2.8,3.5
	c2.1,5.6,1.9,11.3-1.5,16.4c-2.7,4.2-7.1,2.6-10.6-3.6C562.9,44.7,561.7,42.6,560.7,46.6"/>
<path d="M429.2,73.6c6.9-0.1,7.8-3.7,5.9-9.2c-0.4-1,0.3-2.4,0.6-3.5c1.3,0.7,3.2,1.1,3.9,2.3c1.1,1.6,1.7,3.7,1.8,5.7
	c0.4,7.1,0.5,14.2,0.6,21.4c0,0.8-0.8,1.7-1.2,2.6c-0.9-0.7-2.5-1.3-2.7-2.1c-0.6-3-0.6-6.1-1.2-9c-0.3-1.4-1.6-2.6-2.4-3.9
	c-1.9,1.8-6.4-0.7-6.5,3.9c-0.1,3.1,0.1,6.3-0.1,9.4c-0.1,0.9-1.1,1.8-1.7,2.7c-0.7-0.8-2.1-1.4-2.1-2.2c-0.8-9.2-1.5-18.4-2.1-27.6
	c0-0.4,1.1-1.3,1.4-1.2c1,0.4,2.4,0.9,2.7,1.7C427.2,67.4,428,70.4,429.2,73.6"/>
<path d="M192,31.9c-0.4-2.9-1-5.3-0.9-7.6c0.1-1.2,1.5-2.3,2.3-3.4c0.9,0.9,2.3,1.7,2.5,2.8c0.9,4.5,1.5,9,2,13.6
	c0.5,4.2,1,8.4,1,12.5c0,1.4-1.5,2.7-2.3,4.1c-0.8-1.1-2.1-2.1-2.5-3.3c-0.7-1.9-0.9-4-1.1-6c-0.2-2.3,0.6-5-3.2-4.7
	c-3.3,0.3-4.9,2.2-4.8,5.5c0,2.6,0.3,5.2-0.1,7.7c-0.3,1.3-1.6,2.5-2.5,3.8c-0.8-1.4-2.2-2.6-2.3-4c-0.6-8.3-0.9-16.7-1-25
	c-0.1-1.3,1.1-2.7,1.7-4c0.7,1,1.6,2,2.1,3.2c0.7,1.5,1,3.2,1.7,4.8c0.4,1.1,1.3,2.8,2,2.8C188.6,34.8,191.5,36.1,192,31.9"/>
<path d="M165,35.9c-0.4-2.1-1-3.6-0.9-5.1c0-1.3,0.9-2.6,1.3-3.9c1.1,1,2.9,1.9,3,3c0.6,5.7,1,11.5,0.7,17.1
	c-0.1,1.7-2.4,3.9-4.2,4.7c-3.1,1.4-5.3-1.2-6.8-3.4c-1.4-1.9-2.1-4.3-3.1-6.4c-0.8,2.2-1.2,4.7-2.4,6.6c-0.9,1.5-3.7,3.5-4.3,3.1
	c-2.1-1.4-4.7-3.4-5.1-5.6c-1-5.3-1-10.7-1.1-16.1c-0.1-0.9,1-1.9,1.6-2.9c0.7,1,2,1.9,2.2,3c0.6,4,0.6,8.1,1.2,12.1
	c0.1,1.3,1.3,2.5,2,3.8c0.6-1.2,1.4-2.3,1.8-3.5c0.8-2.5,1.2-5.2,2.1-7.6c1.1-2.7,2.7-2.6,4-0.1c1.7,3.5,3.2,7,4.8,10.5
	c0.5,0.9,1.2,1.7,1.8,2.6c0.4-1.2,1.2-2.3,1.3-3.5C165.1,41.7,165,39,165,35.9"/>
<path d="M882.7,74.1c3.2,3.8,3.2,6.9-0.4,8.6c-4.6,2.2-3.3,4-0.5,6.6c2.3,2.1,4.3,4.7,6.3,7.2c0.5,0.8,0.5,2,0.7,3.1
	c-1.2-0.3-2.6-0.2-3.4-0.8c-3-2.5-5.9-5.2-8.8-7.8c-0.4-0.4-0.9-0.6-1.4-0.9c-0.1,0.5-0.2,1-0.2,1.4c0,1.4,0.2,2.7-0.1,4
	c-0.2,1.2-0.9,2.2-1.4,3.4c-1.5-1.2-4.2-2.2-4.3-3.5c-0.8-6.4-1.1-13-1-19.5c0-1.3,2.4-3.8,3.6-3.8
	C875.4,72.1,878.9,73.2,882.7,74.1 M874,80.4c1.1-0.2,2.4-0.1,3.4-0.6c0.5-0.2,0.5-1.5,0.7-2.4c-1.1,0.2-2.1,0.1-3.1,0.4
	C874.5,78,874.3,78.8,874,80.4"/>
<path d="M824.7,32.1c1.2,3.7,1,6.8-1.9,9.5c-2.5,2.5-2.3,4.7,1.5,6.4c2.6,1,4.8,3,7,4.8c0.5,0.4,0.4,1.7,0.6,2.6
	c-0.7,0.2-1.7,0.7-2.2,0.4c-4.3-2.1-8.6-4.3-12.8-6.5c-0.5-0.3-0.9-1-1.4-1.4c-0.2,0.7-0.5,1.5-0.5,2.2c-0.1,1.7,0.3,3.4-0.1,5
	c-0.4,1.6-1.4,3-2.2,4.5c-0.9-1.4-2.4-2.8-2.6-4.4c-0.7-4.3-0.8-8.7-1.1-13c-0.3-3.7-0.6-7.3-0.9-11c3.9-0.1,7.9-0.3,11.8-0.3
	C821.4,30.9,823,31.5,824.7,32.1 M816.5,40.9c1.3-1.1,2.8-2,4-3.2c0.3-0.2,0.2-1.1,0.2-1.6c-1.3-0.1-2.8-0.6-3.7-0.1
	c-1.3,0.6-2.1,2.1-2.9,3.4C814,39.6,815.3,40.7,816.5,40.9"/>
<path d="M603,87.9c0-5.4,0-10.2,0-15c-0.1-2.4,0.2-4.1,3.3-4.1c2.2,0,4.4-1,6.6-0.9c5.6,0.3,8.5,6,5,10.4c-3,3.7-1.5,5.6,1.7,7.6
	c0.8,0.4,1.9,0.8,2.3,1.5c0.9,1.6,1.3,3.3,2,5.1c-1.7-0.5-3.7-0.5-5.1-1.4c-2.8-1.9-5.2-4.3-7.8-6.5c-0.2-0.1-0.9,0-1,0.1
	c-0.3,0.6-0.8,1.5-0.6,1.9c1.2,3.2,1.1,6-1.9,8.2C606,92.7,604.5,90.5,603,87.9 M614,75.4c0-0.7,0-1.4,0-2c-1.1,0.1-3.1-0.1-3.2,0.4
	c-0.7,1.6-0.7,3.5-1,5.4c0.9-0.5,1.9-0.9,2.8-1.5C613.1,77.4,613.5,76.8,614,75.4"/>
<path d="M698,54.9c-3.1,3.9-4.1,1.3-5-1.3c-0.2-0.6,0.1-1.4,0-2c-0.4-1.2-0.8-2.3-1.2-3.5c-0.9,1-2.1,1.9-2.4,3
	c-0.9,3-2.7,4.7-5.8,3.7c-1.7-0.5-3.6-1.5-4.5-2.9c-4-6.2-3.2-13.3-3-20.1c0-1,1.5-2,2.4-2.9c0.8,1.1,2.2,2.1,2.4,3.3
	c0.7,4.8,0.8,9.6,1.4,14.4c0.2,1.2,1.3,2.2,2,3.3c0.9-1.1,2.3-2,2.6-3.2c1.2-4.5,1.9-9.2,3.2-13.7c0.4-1.4,1.7-2.6,2.6-3.9
	c0.8,1.5,1.9,3,2.2,4.5C696.1,40.5,697,47.4,698,54.9"/>
<path d="M646,79.9c-2.4-6.5-1.5-8,4.4-8c6.5-0.1,12,3,13.6,7.5c2.1,6,0.1,14.1-4.8,17.5c-1.9,1.3-5.2,1.8-7.3,1.1
	c-1.7-0.7-3.2-3.5-3.8-5.6C647,88.5,646.6,84.4,646,79.9 M659,89.4c0-2.7,0.7-5.7-0.2-8.1c-0.8-1.8-3.5-2.9-5.4-4.4
	c-0.4,1.9-1,3.8-1.1,5.8c0,1.8,0.3,3.8,0.7,5.6c0.4,1.9,1.2,3.7,1.8,5.6C656,92.5,657.2,91.2,659,89.4"/>
<path d="M357.2,68.1c1.1-2.6,0.6-6,4.5-6.3c3.7-0.2,6.7,0.6,8.1,4.4c2.5,6.8,5.3,13.5,4.1,20.9c-0.2,1.3-1.7,2.5-2.5,3.8
	c-0.8-1.4-2-2.6-2.3-4.1c-0.4-1.5,0.4-3.5-0.3-4.9c-0.6-1.3-2.4-2-3.8-3c-0.6,1.1-1.6,2.1-1.9,3.3c-0.4,1-0.1,2.3-0.1,3.5
	c-0.1,2.3,0.2,5.3-3.2,4.9c-1.1-0.1-2.6-3.1-2.7-4.8C356.8,80,357,74.2,357.2,68.1 M367,71.4c-0.4-0.4-0.8-0.7-1-1.1
	c-0.9-1.5-1.7-3-2.5-4.4c-0.5,1.8-1.2,3.5-1.4,5.3c-0.2,0.8,0.3,2,0.9,2.5c0.7,0.7,1.9,1.2,2.7,1C366.3,74.5,366.6,73.2,367,71.4"/>
<path d="M500.2,31.6c3.8,3.3,4.7,7,3.1,11.5c-1.9,5.5-6,8.4-11.2,8.5c-2.4,0-6.3-2.7-6.8-4.8c-1.5-6.1-2-12.4-2.2-18.6
	c-0.1-3.9,3.3-5.7,6.8-3.8C493.5,26.3,496.6,29,500.2,31.6 M497,36.4c-2.4-2.1-5-4.1-7.3-6.4c-1.8-1.8-1.9-0.8-1.7,0.9
	c0.6,4.1,1.2,8.1,2,12.1c0.7,3.6,3,4.6,5.9,2.4C498.7,43.1,500.3,40.3,497,36.4"/>
<path d="M851,101.9c-7.7-0.1-6.7-6.1-7.6-10.3c-1.2-5.6-1.7-11.4-2.4-17.1c0-0.2-0.1-0.4,0-0.5c1.4-5.3,5.7-2.6,8.7-3
	c2.2-0.3,5.5-1.2,5.2,2.9c0,0.7-1.1,1.5-1.8,1.9c-1.1,0.5-2.6,0.4-3.5,1.1c-0.8,0.8-1.1,2.2-1.6,3.3c1,0.2,2,0.6,3.1,0.6
	c0.5,0,1.1-1,1.5-0.9c1.9,0.4,3.6,1,5.4,1.5c-1.2,1.1-2.2,2.7-3.6,3.4c-3.9,1.8-5.9,5.2-4.3,8.9c0.3,0.8,2.3,0.8,3.6,1.2
	c1.7,0.5,4.9,0.7,5,1.5c0.7,3.3-2.4,3.6-4.6,4.5C853.2,101.2,852.3,101.5,851,101.9"/>
<path d="M709,70.9c3.8-0.4,7.2-0.9,10.5-0.9c0.8,0,1.7,1.8,2.5,2.8c-0.9,0.7-1.8,1.5-2.8,2c-1.1,0.5-2.6,0.3-3.6,1
	c-1,0.8-1.6,2.2-2.4,3.4c0.9,0.2,1.8,0.6,2.8,0.6c1.6,0.1,3.3-0.2,4.9,0.1c1.1,0.2,2.1,1.2,3.1,1.8c-0.9,0.7-1.7,1.6-2.7,2.1
	c-2.1,1.2-5.4,1.7-6.1,3.3c-1.1,3,0.3,5.5,4.3,5.9c2.6,0.3,5,1.9,7.5,2.9c-2.7,1-5.3,2.7-8,2.8c-7.6,0.3-9.6-2.2-10.1-9.9
	c-0.4-5.3-1.6-10.6-2.3-15.9C706.6,72.3,707.8,71.5,709,70.9"/>
<path d="M383,40.9c-2,10.1-6.6,10.6-14.7,6.7c-1-0.5-2.1-2.2-2.2-3.5c-0.6-5.8-0.9-11.6-1.1-17.5c0-3.3,1-5.3,5.3-4
	C381.7,25.9,383,27.3,383,40.9 M375.5,29.9c-2.8-2.2-4.7-2.7-4.5,1.9c0.1,3-0.4,6.1,0.1,8.9c0.3,1.5,1.9,3.2,3.4,3.8
	c0.6,0.3,2.7-1.3,3.4-2.5C380.3,37.8,378,34,375.5,29.9"/>
<path d="M220.7,27.1c1.3,5.5,2.5,10.7,3.2,16c0.3,2.1-0.5,4.3-1,6.5c-0.2,0.8-0.9,1.5-1.4,2.3c-0.9-1-2.1-1.9-2.4-3
	c-0.4-1.5,0.4-3.5-0.3-4.8c-0.6-1.4-2.3-3.1-3.5-3c-1.2,0.1-2.7,2-3.2,3.4c-0.5,1.6,0.1,3.6-0.2,5.4c-0.2,1-1.1,2-1.7,3
	c-1.1-0.9-2.9-1.7-3.1-2.7c-0.4-3.1-0.4-6.4-0.1-9.5c0.5-4.4,0.9-8.9,2.2-13c0.6-2,3.1-3.9,5.1-4.7C217.4,21.8,219.4,24,220.7,27.1
	 M213,29.4c0,1.6-0.2,3.3,0.1,4.9c0,0.6,1,1.4,1.7,1.5c0.7,0,2.1-0.7,2.1-1c-0.2-2.2-0.4-4.4-1-6.6C215.6,27.1,214.5,27.3,213,29.4"
	/>
<path d="M495,83.9c1.8,5,0.8,7.4-4,9.4c-3.5,1.5-8-0.1-8.9-3.7c-1.4-5.2-2.3-10.4-3.1-15.7c-0.8-5.4,5.1-8.9,10.1-6.1
	c6,3.4,6.4,4.5,4.5,11.1C493.2,80.2,494.5,81.9,495,83.9 M489.5,82.9c-0.3-0.3-0.5-0.5-0.7-0.7c-0.6,2-1.3,3.9-1.7,6
	c-0.1,0.4,0.9,1,1.5,1.6c0.8-1.7,1.7-3.2,2.3-4.9C491,84.5,490.3,83.9,489.5,82.9 M489,76.4c0-0.5,0.1-1.1-0.1-1.5
	c-0.5-1.1-1.1-2-1.7-3c-0.7,0.5-2.1,1-2.1,1.6c0,1.6,0.6,3.3,0.9,4.9C486.9,77.9,487.7,77.4,489,76.4"/>
<path d="M314.7,85.1c-2.1-2.8-3.9-5.4-5.7-7.9c-0.4-0.6-1-0.9-1.5-1.3c-0.2,0.6-0.5,1.1-0.5,1.7c0,3.4,0.1,6.7-0.1,10
	c-0.1,0.9-1,2.1-1.9,2.5c-0.5,0.3-2.2-0.6-2.3-1.1c-0.5-5.1-0.9-10.1-1.2-15.1c0-0.8,0.2-1.6,0.5-2.3c0.8-1.9,1.8-3.8,2.7-5.7
	c1.8,1.4,3.9,2.5,5.2,4.3c2,2.9,3.5,6.2,5.2,9.3c0.3,0.5,1,0.9,1.4,1.3c0.2-0.6,0.5-1.2,0.5-1.8c-0.3-3.5-0.8-7-0.9-10.6
	c-0.1-1.1,0.8-2.3,1.2-3.4c1.1,0.9,2.9,1.8,3,2.9c0.8,5.9,1.2,11.8,1.7,17.8C319.6,85.6,317.3,85.5,314.7,85.1"/>
<path d="M319,29.9c0.9-2.3,2.1-5.6,2.8-5.5c3.7,0.7,1.9,4,2.1,6.3c0.5,4.2,0.5,8.4,1.2,12.5c0.3,1.6,1.7,2,2.3-0.2
	c1.5-5.9,3-11.8,4.6-17.6c0.4-1.3,1.6-2.3,2.4-3.5c0.9,1.3,2.4,2.5,2.5,3.8c0.5,7.4,0.8,14.7,1,22.1c0,1-0.7,2-1.2,3.1
	c-0.9-1.1-1.9-2-2.7-3.2c-0.3-0.6,0.2-1.7-0.1-2.4c-0.5-0.9-1.3-1.6-1.9-2.4c-0.5,0.6-0.9,1.4-1.6,2c-1.9,1.7-3.9,3.3-5.8,5
	c-1.5-2.5-3.8-4.8-4.5-7.5C319.2,38.5,319.3,34.4,319,29.9"/>
<path d="M212.2,84.6c2.5,2.4,4.7,4.6,3.4,8.1c-2.2-1.4-4.4-2.8-6.6-4.3c-0.4-0.3-0.7-0.7-1-1.1c-1.2-1.4-2.4-2.9-3.5-4.4
	c-0.2,1.9-0.1,3.9-0.6,5.8c-0.3,1.1-1.4,2.1-2.1,3.2c-1.3-1.1-3.5-2-3.7-3.2c-0.6-6.3-1-12.7-1-19c-0.1-3.5,2.6-3.8,5.5-3.9
	c3.9-0.2,7.3,0.3,8.3,4.7c0.4,1.7,0.1,4-0.8,5.6C208.2,79.6,209,82.1,212.2,84.6 M204.5,76.9c0.3-2,0.7-4,0.9-6
	c0-0.2-0.8-0.5-1.3-0.7c-0.4,1.8-0.8,3.6-1.1,5.4C203,76,203.3,76.4,204.5,76.9"/>
<path d="M455.7,91.6c-1.1-1.6-2.6-3.4-2.6-5.2c0-6.2,0.2-12.4,1.1-18.5c0.3-1.9,2.9-4.1,4.9-4.9c2.6-1,5.3,0,5.9,3.4
	c1.4,7.9,2.7,15.9,3.9,23.8c0.1,0.8-1.1,1.8-1.6,2.7c-0.8-0.7-2-1.3-2.2-2.2c-0.9-3.1-1.4-6.4-2.2-9.6c-0.2-0.8-1.1-2.2-1.4-2.1
	c-1,0.2-2.5,0.9-2.6,1.6c-0.6,2.3-0.5,4.8-1,7.2C457.6,89,456.6,90.2,455.7,91.6 M461,68.4c-0.7,0.6-1.9,1.3-2,2
	c0,1.6,0.5,3.3,0.9,4.8c0.1,0.3,1.1,0.4,1.7,0.6c0.1-1.5,0.4-2.9,0.3-4.4C461.9,70.7,461.3,70,461,68.4"/>
<path d="M782.7,84.6c-0.7,1.8-1.1,3.4-1.5,4.9c1.4,0.5,2.9,1,4.4,1.2c1.8,0.4,3.6,0.5,5.4,0.7c-1.4,1.5-2.4,3.7-4.1,4.3
	c-9.9,3.5-11.8-1.2-12.9-9c-0.6-4.6-1.1-9.2-1.4-13.8c0-1,1.2-2.8,2-2.9c3.6-0.3,7.3-0.3,10.9,0c0.9,0,1.7,1.5,2.5,2.3
	c-0.8,0.5-1.7,0.9-2.2,1.6c-1.6,2.5-6.7-1.2-6.5,3.6c0,0.5,4.3,0.8,6.6,1.4c0.8,0.2,1.6,1,2,1.8c0.2,0.4-0.6,1.5-1.2,1.9
	C785.6,83.3,784.2,83.8,782.7,84.6"/>
<path d="M794.2,45.6c0.4,3.2,0.7,6.2,0.7,9.2c0,0.7-0.9,2-1.1,1.9c-1-0.3-2.4-0.7-2.7-1.5c-0.7-1.5-0.8-3.3-1.1-5
	c-0.3-1.1-0.6-2.2-0.9-3.3c-0.8,0.9-1.6,1.7-2.3,2.7c-3.6,5-6.4,4.8-9.3-0.7c-3-5.6-3.6-11.5-1.5-17.5c0.4-1,1.5-1.7,2.3-2.5
	c0.6,1,1.5,2,1.6,3.1c0.5,4.4,0.6,8.7,1.2,13.1c0.1,1,1.3,1.8,2,2.8c0.6-0.9,1.5-1.6,1.8-2.5c1.5-4.1,2.6-8.2,4.2-12.3
	c0.6-1.5,2-2.8,3.1-4.2c0.6,1.5,1.6,3,1.7,4.5C794.1,37.4,794,41.4,794.2,45.6"/>
<path d="M929,91.9c0,1,0.1,1.5,0,1.9c-0.6,2.1-1.3,4.1-1.9,6.1c-1.4-1.6-3.4-3-4-4.9c-2.3-7-1.7-13.7,3-19.8c0.4-0.6,0.8-1.3,1-2
	c0.5-1.2,0.8-2.3,1.2-3.5c-1.4-0.1-2.9-0.3-4.4-0.3c-1.7,0.1-3.5,0.5-5.2,0.4c-1-0.1-2.6-1.1-2.6-1.6c0-1.1,0.9-3.2,1.4-3.2
	c4.9-0.1,10-0.8,14.4,0.6c3.8,1.3,2.4,6,1.6,9.2C932,80.3,927.9,85.1,929,91.9"/>
<path d="M682,87.9c0,0.6-0.1,0.8,0,0.9c1.1,1.7,2.3,3.4,3.4,5.1c0.5-2.1,1.6-4.3,1.5-6.4c-0.3-3.7,0.7-5.4,4.7-4.7
	c1.3,0.2,2.6-0.1,4,0.1c1.1,0.1,2.2,0.5,3.4,0.8c-0.8,1-1.6,2-2.4,3c-1.2,1.7-2.8,3.1-3.5,5c-1.8,4-4,6.9-9,6.2
	c-4.7-0.7-6-4.2-7.1-8c-1.7-5.9-1.6-11.7,2.1-16.7c1-1.4,3.7-2.2,5.5-2.2c1.6,0.1,3.2,1.7,4.7,2.8c0.4,0.3,0.5,1.7,0.2,1.9
	c-0.6,0.5-1.8,1-2.3,0.7c-4.5-2.1-4.5,1.9-5.1,4C681.5,82.6,682,85,682,87.9"/>
<path d="M898,91.9c1.1,0.7,2.4,1.3,3.3,0.9c0.8-0.3,1.8-2.1,1.6-2.5c-1.3-2-2.8-4.1-4.6-5.5c-3.6-2.8-5.1-8.5-2.7-11.1
	c2.9-3.2,9.3-4.1,12.5-1.1c1,1,1.3,2.8,1.9,4.2c-1.1,0-2.3-0.1-3.4,0.1c-1.9,0.3-3.7,0.7-5.6,1.1c1.2,1.6,2.6,3.2,3.5,4.9
	c1.6,3.2,4.2,6.5,4.1,9.6c-0.2,2.3-3.9,5-6.6,6.1c-2.4,1-6.1,1.1-7.9-2.2c-1-1.8-1.9-4-1.9-6.1c-0.1-1.4,1.4-2.9,2.3-4.4
	C895.6,87.7,896.8,89.5,898,91.9"/>
<path d="M244,70.9c0.6-3.5,2.8-4.8,5.4-3.9c2.7,0.9,6.9,2.6,7.2,4.5c1.3,6.4,1.1,13.1,1.3,19.6c0,0.8-1.2,1.5-1.9,2.3
	c-0.7-1-1.7-2-1.9-3.1c-0.4-1.6,0.2-3.4-0.2-4.9c-0.5-1.3-1.8-2.4-2.8-3.5c-1,1-2.5,1.9-3,3.2c-0.8,2,1.3,5.8-2.7,5.6
	c-4.1-0.2-2.3-4.1-2.3-6.3C243.1,80.1,243.6,75.7,244,70.9 M250.5,71.9c-0.5,0.9-1.6,1.9-1.4,2.7c0.2,1.1,1.3,2.1,2.1,2.9
	c0.3,0.3,1.1,0,1.7-0.1c-0.3-1-0.5-2-0.9-3C251.7,73.7,251.3,73,250.5,71.9"/>
<path d="M286,81.9c-2.3,1-4.5,1.9-6.8,1.9c-3.8,0-7.2-0.2-6.3,5.2c0.1,0.6-0.6,1.8-0.8,1.8c-0.9-0.1-2.3-0.4-2.5-1
	c-1.4-3.1-2.8-6.2-3.5-9.5c-0.8-3.8-0.9-7.7-1-11.6c-0.1-1.2,0.9-2.5,1.4-3.8c1,0.7,2.5,1.1,3,2.1c0.8,1.6,1,3.6,1.5,5.4
	c0.2,0.8,0.5,1.6,0.8,2.5c0.7-0.6,1.6-1,2.1-1.8c2.4-3.3,5-6.2,9.5-6.2c0.5,0,1.6,0.9,1.5,1.2c-0.7,3-2.4,5.1-5.6,6.1
	c-1.7,0.6-2.9,2.6-4.3,4c1.9,0.2,3.7,0.4,5.6,0.7C282.6,79.2,285.5,77.6,286,81.9"/>
<path d="M758,30.9c5.9,1.1,8.3,3.8,9,9.6c0.8,6.3-0.6,10.5-5.3,12.2c-2.5,0.9-7,1.1-8.1-0.3c-2.4-2.9-4.3-7.2-4.4-10.9
	C749.1,34.6,752.5,31.2,758,30.9 M755,44.4c-0.4,3.4,1.8,3.7,4.3,3.4c4-0.3,3-3.7,2.5-5.5c-0.6-2.3-2.5-5.7-4.1-5.8
	c-2.7-0.3-3,2.9-2.7,5.4C755,42.4,755,42.9,755,44.4"/>
<path d="M221.7,65.6c3-0.4,5.8-0.8,8.6-0.6c0.9,0.1,1.8,1.6,2.7,2.5c-0.9,0.8-1.6,1.8-2.6,2.3c-0.8,0.4-2.2-0.3-2.9,0.2
	c-0.8,0.5-1,1.8-1.5,2.8c0.7,0.3,1.4,0.8,2.2,1c1.6,0.6,3.2,1.1,4.8,1.6c-1.2,1.2-2.7,2.2-3.5,3.5c-0.9,1.6-1.9,3.5-1.7,5.2
	c0.4,3.5,2.6,0.8,4.2,0.9c1.5,0.1,3,1.3,4.6,2c-1,0.9-1.9,2.3-3.1,2.8c-2.2,0.9-4.9,2.3-7,1.7c-2.1-0.5-5-2.9-5.3-4.8
	c-0.9-6.3-0.9-12.7-1.2-19.1C220,67.1,221,66.5,221.7,65.6"/>
<path d="M582.7,68.6c3.4-0.7,6.5-1.6,9.7-1.6c1.5,0,3,1.4,4.5,2.2c-1.4,0.9-2.7,2-4.2,2.6c-2,0.9-4.2,1.2-6.2,2.1
	c-0.7,0.4-1,1.5-1.5,2.3c0.7,0.2,1.4,0.5,2.1,0.6c0.3,0.1,0.7,0,1,0.1c2.2,0.7,4.4,1.4,6.6,2.2c-1.9,0.9-4.1,1.5-5.7,2.9
	c-1.4,1.2-2.2,3.1-2.9,4.9c-0.3,0.7,1,1.8,0.8,2.6c-0.4,1.8-1.2,3.6-1.9,5.4c-1.3-1.7-3.5-3.2-3.9-5c-1.1-5.2-1.6-10.4-2.1-15.7
	C578.8,71.8,578,68.5,582.7,68.6"/>
<path d="M706.2,33.6c-0.7-3.6,0.6-4.9,4.1-4.8c4.9,0.1,9.9-0.3,14.8-0.3c1,0,1.9,1,2.9,1.6c-0.9,0.9-1.6,2.1-2.6,2.8
	c-1.7,1-5,1.4-5.2,2.5c-0.6,3.3-0.1,6.8,0.1,10.3c0.2,2.5,0.7,5.1,0.6,7.7c-0.1,1.2-1.6,2.3-2.4,3.4c-0.8-1.1-2.2-2.1-2.4-3.4
	c-0.9-4.3-1.9-8.7-2-13.1c0-3.9-1.9-4.9-5-5.5C708.2,34.7,707.3,34.2,706.2,33.6"/>
<path d="M548.7,69.6c-0.9,0.6-1.6,1.2-2.3,1.2c-4.5-0.3-5.6,2.1-5.5,6.1c0.2,4.2,0.4,8.4-0.1,12.5c-0.1,1.6-1.8,3-2.8,4.5
	c-1-1.5-2.6-2.9-2.9-4.5c-0.7-4.3-0.6-8.8-1.2-13.1c-0.3-1.6-2-2.9-2.9-4.5c-0.8-1.2-1.4-2.5-2-3.8c1-0.4,2.1-1,3.2-1.1
	c3.8-0.5,7.7-0.8,11.5-1.3C547.4,65.2,549,66.3,548.7,69.6"/>
<path d="M511,44.9c0.3-3.8-0.2-7.4,1.1-10.2c2.9-6.1,8-6.3,12.4-0.8c5.5,6.8,3.9,16-3.2,17.2C516,52,513.3,49.4,511,44.9 M516,38.4
	c0,1.6-0.5,3.5,0.1,4.8c0.6,1.2,2.3,2.4,3.6,2.5c1.1,0,3.2-1.9,3.1-2.3c-0.8-2.6-2.1-5-3.3-7.5C518.5,36.5,517.5,37.2,516,38.4"/>
<path d="M179,65.9c3.5-0.7,6.5-1.7,9.6-1.9c1.4-0.1,2.9,1.2,4.4,1.8c-1.3,1-2.5,2.4-4,3c-2.3,0.9-4.9,1-7.2,1.9
	c-0.9,0.3-1.2,2-1.8,3c1,0.2,1.9,0.5,2.9,0.7c0.1,0,0.3-0.3,0.4-0.3c2.2,0,4.4,0.1,6.7,0.2c-1.7,1.5-3.4,3-5,4.6
	c-0.7,0.7-1.9,1.4-1.9,2.2c-0.3,3,0.1,6-0.3,9c-0.1,1-1.9,1.8-2.9,2.8c-0.7-1-1.7-1.9-1.9-2.9c-1.1-5.9-2-11.8-3-17.7
	C174.5,69.2,175.3,66.9,179,65.9"/>
<path d="M400,79.9c-0.4-3.4-0.8-6.3-1-9.1c-0.3-3.3-0.2-6.6,3.5-7.9c4.4-1.5,9.1,0.8,10.9,4.9c1.7,3.7,0.5,7.9-2.8,8.6
	c-6.4,1.2-4.2,5.4-4.6,9c-0.2,1.5-1,3-1.6,4.5c-1.1-1.2-2.7-2.1-3.3-3.5C400.3,84.6,400.3,82.4,400,79.9 M405,70.4
	c0.6,1.7,1.2,3.4,1.7,5.2c0.8-1,2-2,2.2-3.1c0.2-1.5-0.3-3.1-0.5-4.6C407.2,68.4,406.1,68.9,405,70.4"/>
<path d="M241,43.9c0,2.1,0.3,3.8-0.1,5.4c-0.3,1.3-1.5,2.4-2.3,3.6c-0.8-1.3-1.8-2.5-2.6-3.8c-0.3-0.5,0-1.3,0-1.9
	c-0.3-4.5-0.4-9.1-1.2-13.5c-0.3-1.4-2.7-2.3-4-3.6c-1.1-1-1.9-2.2-2.8-3.2c1.3-0.7,2.5-1.8,3.9-2c3.4-0.5,7-1.1,10.5-0.9
	c1.9,0.1,3.7,1.7,5.6,2.7c-1.3,0.9-2.6,2.1-4,2.6c-2.3,0.6-3.4,1.4-3.1,4.1C241.3,36.7,241,40,241,43.9"/>
<path d="M311.7,33.1c0.6,2.6,1.4,5,1.2,7.3c-0.3,3.4-0.7,7.4-5,8.4c-4.6,1-8.2-0.9-9.2-5.8c-0.6-3.3-1.1-6.9-0.6-10.3
	c0.6-3.5,3-5.9,7.1-5.9C309.3,26.8,310.5,29.7,311.7,33.1 M307.5,42.9c-0.2-2.3-0.1-4.7-0.6-6.9c-0.4-1.8-1.7-3.3-2.6-5
	c-0.7,2.5-2,5-2,7.5c0,1.9,1.7,3.9,2.7,5.8C305,44.3,306.3,43.7,307.5,42.9"/>
<path d="M662.7,32.1c1.3,1.3,3,2.2,3.2,3.3c0.6,4.1,1.4,8.3,0.8,12.2c-0.3,2-3,4.2-5.1,5.1c-3.3,1.3-6.8-0.6-7.4-3.7
	c-0.9-4.4-1-9.3,0.1-13.6C655,32.3,659,31.4,662.7,32.1 M658,40.4c0,0.3-0.1,0.6,0,1c0.8,2.4,1.6,4.9,2.5,7.4c0,0.1,1.2-0.1,1.2-0.3
	c0.2-2.7,0.3-5.4,0.3-8.1c0-0.3,0.1-0.7,0-1C660.7,36.9,659.4,37.1,658,40.4"/>
<path d="M607,44.9c-1.1-4.4,1.1-10.5-6.4-10c0.5-1.6,0.7-4.3,1.7-4.6c4-1.2,8.3-1.9,12.5-2.3c1-0.1,2.1,1.3,3.2,2
	c-0.9,0.9-1.5,2.5-2.5,2.7c-2.8,0.8-3.8,2.1-3.6,5c0.3,5,0.2,10,0,15c-0.1,1-1.4,2.1-2.1,3.2c-0.9-1.1-2.5-2-2.7-3.1
	C606.7,50.4,607,47.8,607,44.9"/>
<path d="M754,91.9c-0.4-5.6-0.9-10.6-0.9-15.6c0-1.5,1.8-3,2.8-4.4c1,1.4,2.7,2.7,2.9,4.2c0.5,3.5,0.2,7,0.2,10.5
	c-0.1,4.2,1.3,6.8,6.2,6.3c1.2-0.1,2.5,0.9,3.8,1.4c-1,1.2-1.7,2.8-2.9,3.5C760.4,100.8,757,99.2,754,91.9"/>
<path d="M347,34.9c0-3.2-0.2-5.9,0.1-8.5c0.1-0.9,1.4-1.7,2.2-2.5c0.9,0.8,2.5,1.7,2.6,2.6c0.3,3.8,0.2,7.6,0,11.4
	c-0.1,3.3,0.4,5.6,4.5,5c0.8-0.1,1.7,0.7,2.6,1.1c-0.6,1.1-1,2.8-1.9,3c-2.9,0.8-6.6,2.3-8.9,1.2c-2.8-1.4-3-5.1-1.3-8.4
	C347.5,38.6,347,36.8,347,34.9"/>
<path d="M384.7,88.1c-4.4-6.3-3.5-13.6-4.6-20.4c-0.2-0.8,0.8-1.9,1.3-2.8c1.2,0.5,3.2,0.9,3.4,1.8c1.1,3.2,1.9,6.7,2.1,10.1
	c0.3,5.8,0.1,5.8,6.2,6.6c0.3,0,0.8,2.6,0.3,3.4C391.2,90,388,89.1,384.7,88.1"/>
<path d="M639,82.9c0.3,3.8,1,7.2,0.8,10.5c-0.1,1.5-1.8,3-2.8,4.5c-0.7-1.3-1.7-2.6-2-3.9c-1.1-6.1-2.2-12.2-2.9-18.3
	c-0.2-1.5,1.2-3.2,1.9-4.8c1.3,1.1,3.3,2,3.8,3.4C638.7,76.8,638.6,79.7,639,82.9"/>
<path d="M291.2,88.6c-1.2-7.5-2.3-14.7-3.1-22c-0.1-0.5,1.5-1.8,1.8-1.6c1.5,0.7,3.8,1.7,3.9,2.8c0.7,6,1,12.1,1,18.2
	C294.8,86.9,292.6,87.9,291.2,88.6"/>
<path d="M588,28.9c2,5.1,3.7,10.3,4.9,15.6c0.5,2.4,0.2,5-0.1,7.6c0,0.4-2.5,1.3-3,0.9C587,50.8,585.3,32.2,588,28.9"/>
<path d="M331,69.9c-0.4-2.9-0.8-5.2-0.9-7.6c-0.1-0.8,0.7-2,1.4-2.2c0.5-0.3,1.7,0.5,2.3,1.1c3,2.9,3.1,12.3,0.1,15.1
	c-0.4,0.5-1.4,0.5-2.2,0.5c-0.3-0.1-0.7-1-0.7-1.5C330.9,73.7,331,72,331,69.9"/>
<path d="M924,104.9c1.5,0,3-0.5,3.5,0c1.1,1.1,1.9,2.6,2.4,4c0.2,0.4-1,1.9-1.2,1.9c-1.6-0.6-3.4-1.1-4.6-2.2
	C923.4,107.9,923.6,106.1,924,104.9"/>
<path d="M117,238.9c-0.4,1.3-0.5,2.3-1.1,3c-1,1.1-2.2,2-3.4,3c-0.8-1.1-2.2-2.2-2.4-3.4c-0.2-1.4,1-3.1,0.8-4.5
	c-0.3-1.8-1.2-4.7-2.2-4.9c-2.5-0.4-5.6,0.1-5.7,3.9c-0.1,1.9,0.4,3.8-0.1,5.5c-0.5,1.6-1.9,2.9-3,4.4c-0.9-1.5-2.7-3-2.7-4.5
	c-0.3-8.3-0.3-16.7-0.1-25c0-1.6,1.5-3,2.2-4.5c0.9,1.5,2.2,3,2.6,4.7c0.5,1.9-0.2,4,0.3,5.9c0.7,2.4,2,5.3,5.3,4.1
	c2.9-1,4.3-3.3,3.1-6.7c-0.5-1.6-0.7-3.5-0.5-5.2c0.1-1,1.1-2.5,1.9-2.7c0.9-0.1,2.7,1,2.9,1.8c0.9,3.8,1.7,7.7,2,11.6
	C117.2,229.7,117,234,117,238.9"/>
<path d="M62.2,291.6c-0.2-0.6-0.3-0.9-0.2-1.2c0.3-2.1-1.2-5.3,2.3-5.4c3-0.1,3.2,2.6,3.9,5.1c0.7,2.6-0.3,7.5,5,6.6
	c1.1-0.2,2.2-2.1,2.6-3.4c0.3-1-0.2-2.6-0.9-3.6c-1.6-2.4-1.1-4.8,1.3-5.6c1-0.3,3.9,2.3,4.4,4c1.8,6.3,3.2,12.7,4.2,19.2
	c0.3,1.7-1.7,3.7-2.7,5.6c-1-1.4-2.2-2.8-3.1-4.3c-0.5-0.9-0.5-2.2-1.1-3c-0.8-1-2-2.6-3-2.5c-1,0-2.5,1.6-2.8,2.8
	c-0.3,1.6,0.7,3.4,0.5,5.1c-0.2,1.9-1.2,3.7-1.8,5.5c-1.2-1.2-3.3-2.2-3.7-3.6C65.3,305.9,64,298.9,62.2,291.6"/>
<path d="M50,189.9c-0.6,2-1.3,3.5-1.9,5c-1.2-1.1-3.2-1.9-3.5-3.1c-1.8-7.1-3.2-14.4-4.5-21.6c-0.2-1,0.9-2.2,1.4-3.3
	c0.9,0.9,2.1,1.7,2.7,2.7c0.8,1.5,1,3.3,1.8,4.7c0.9,1.4,2.2,2.4,3.4,3.6c1.2-1.5,3-2.8,3.4-4.4c0.4-1.9-0.8-4-0.7-6.1
	c0-1.2,1.1-2.4,1.7-3.5c1.1,0.8,2.7,1.5,3.2,2.6c2.8,7.1,4.6,14.5,3.9,22.3c-0.1,1.1-1.5,2-2.2,3.1c-0.9-0.9-1.9-1.8-2.7-2.8
	c-0.5-0.7-0.7-1.6-1-2.5c-0.4-1.3-0.4-3.3-1.1-3.6c-1.2-0.4-3.6-0.1-4,0.7c-0.6,1.2,0,3.1,0.1,4.7C50,188.7,50,189,50,189.9"/>
<path d="M104.7,300.1c-1.9-0.6-3.6-0.9-5.3-1.2c-0.1,1.6-0.4,3.2-0.4,4.8c0,0.5,1,1.2,0.9,1.6c-0.7,1.5-1.5,3-2.3,4.5
	c-1.1-0.7-2.9-1.2-3-2c-1.6-8.3-5-16.7-0.5-25c1.1-1.9,4.3-3.5,6.5-3.6c1.4-0.1,3.6,2.9,4.3,4.9c2.3,6.7,4.2,13.5,6,20.4
	c0.3,1.2-0.9,2.9-1.4,4.3c-1.2-1.1-2.7-2.1-3.4-3.4C105.4,303.9,105.3,302,104.7,300.1 M101,288.4c-0.8-1.2-1.6-2.4-2.4-3.5
	c-0.5,1.4-1.1,2.8-1.6,4.2c-0.1,0.5-0.2,1.3,0,1.5c1.3,0.8,2.7,1.5,4.1,2.3C101.1,291.7,101,290.5,101,288.4"/>
<path d="M81.2,164.6c2.1,7,4,13.7,5.7,20.5c0.2,0.8-0.6,1.8-0.9,2.8c-1-0.7-2.3-1.1-2.9-2c-1-1.3-1.2-3.2-2.2-4.5
	c-0.7-0.9-2.1-1.3-3.2-1.4c-0.5-0.1-1.5,1.2-1.6,2c-0.3,1.8,0,3.6-0.2,5.5c-0.1,0.8-1,2.3-1.3,2.2c-1.3-0.2-3.4-0.7-3.6-1.5
	c-1.8-7.5-4.8-15.1-1.8-22.8c0.7-2,3.6-3.6,5.9-4.4C77.7,160.1,80.3,161,81.2,164.6 M77.5,173.9c0.1-1.7,0.6-3.3,0.4-4.9
	c-0.2-1.1-1.3-2.1-2.2-3.1c-0.1-0.1-1.6,0.6-1.6,1C73.7,169.5,72.4,172.7,77.5,173.9"/>
<path d="M137.2,218.6c4.3,7.5,5,15.3,4.6,23.3c-0.1,1.4-2.6,2.6-3.9,4c-0.7-1.5-1.2-3.1-1.9-4.5c-0.8-1.5,2-4.6-2.3-4.6
	c-3.5,0-3.2,2.3-3.8,4.6c-0.4,1.6-1.9,3-2.9,4.5c-1-1.7-3-3.4-2.8-4.8c0.9-6.9,1.9-13.8,4-20.3C129.7,216.2,133,215.8,137.2,218.6
	 M132,230.4c0.9,0.4,1.8,0.8,2.7,1.2c0.1-1.2,0.2-2.3,0.3-3.5c0-0.8,0.2-1.7-0.1-2.5c-0.3-1-1-1.8-1.5-2.7c-0.8,0.8-2.1,1.5-2.3,2.4
	C131,226.6,131.7,228,132,230.4"/>
<path d="M574,216.9c-0.4-2.9-0.3-5.4-1.1-7.6c-0.7-1.9-2.3-3.6-3.5-5.4c-0.8,2.2-2.2,4.3-2.3,6.5c-0.1,3.8,0.8,7.7,0.8,11.6
	c-0.1,1.3-1.6,2.6-2.4,3.9c-1-1.1-2.7-2-2.9-3.1c-1.1-6.6-1.9-13.3-2.5-19.9c-0.1-0.7,0.9-2,1.6-2.1c4.2-0.8,8.6-3.4,12.9,0.1
	c0.5,0.4,1.6,0.6,2.3,0.5c9.5-2.2,12-1,14,8c0.9,4.2,0.8,8.6,1,13c0,0.8-0.8,1.6-1.2,2.5c-1.1-0.7-2.8-1.1-3-2
	c-1.1-4.1-1.8-8.2-2.7-12.4c-0.3-1-0.5-2.1-1-3.1c-0.4-0.9-1.1-1.7-1.7-2.5c-0.8,1-2.1,2-2.2,3c-0.2,3.3,0.3,6.6,0.2,9.8
	c0,2.1-0.3,4.2-0.9,6.1c-0.2,0.6-2.7,1.1-2.8,0.9c-1.1-1.8-1.8-3.8-2.6-5.9C573.8,218.4,574,217.9,574,216.9"/>
<path d="M462,177.9c-0.7,2.7,1.7,6.3-2.4,6.6c-0.7,0.1-1.8-4.1-2.6-6.4c-0.1-0.3,0-0.7,0-1c-0.5-2.1-1.1-4.1-1.6-6.2
	c-0.9,1.6-1.8,3.3-2.9,4.8c-0.6,0.9-1.9,2.2-2.4,2c-1.5-0.6-3-1.6-4.1-2.8c-1.3-1.5-2.3-3.4-3.4-5c-0.2,1.8-0.4,3.7-0.6,5.6
	c-0.1,0.9,0.2,1.8-0.1,2.5c-0.6,1.4-1.6,2.6-2.5,3.9c-0.8-1.4-2.3-2.7-2.3-4c0.1-5.7,0.4-11.4,1-17c0.1-1.1,1.7-3,2.2-2.9
	c1.4,0.4,3.1,1.4,3.7,2.6c1.4,2.4,1.9,5.2,3,7.7c0.6,1.3,1.6,2.4,2.5,3.5c0.5-1.1,1.1-2.1,1.5-3.3c1-3.4,1.8-6.9,3.1-10.2
	c0.4-1.1,2.2-1.6,3.3-2.4c0.6,0.8,1.5,1.7,1.7,2.6c0.8,3.8,1.3,7.5,1.9,11.3C461.4,172.3,461.6,174.8,462,177.9"/>
<path d="M713,213.9c2.2,3.7-1,4.4-3.1,5.4c-8.2,3.9-11.8,1.5-12-7.2c0-3.7-0.3-7.5-1.3-10.9c-0.9-3-2.6-6,0.6-7.8
	c2.7-1.5,6.2-1.8,9.4-2.4c0.4-0.1,1,0.6,1.6,0.8c1.2,0.6,2.5,1,3.8,1.5c-1.3,1.2-2.5,2.5-3.9,3.5c-1.2,0.7-3.1,0.6-3.8,1.5
	c-0.9,1-0.8,2.8-1.1,4.3c1,0.1,2.1,0.4,3.1,0.4c1.8,0,3.7-0.3,5.4-0.1c1.8,0.3,3.5,1,5.2,1.5c-1.7,1.2-3.3,2.5-5.1,3.4
	c-1.4,0.7-3.3,0.3-4.4,1.2c-1.2,0.8-1.7,2.6-2.4,3.9c1.2,0.3,2.3,0.8,3.5,0.9C709.8,214,711.2,213.9,713,213.9"/>
<path d="M634.2,171.6c-0.6-3.9-1.3-7.6-1.1-11.3c0.1-1.9,1.9-3.6,2.9-5.4c1.1,1.2,2.9,2.4,3.1,3.8c0.7,3.8,0.6,7.7,0.9,11.6
	c0.1,1.2,0.9,2.3,1.4,3.4c0.7-0.9,1.7-1.8,2-2.9c1.3-4.3,2.2-8.7,3.7-12.9c0.5-1.6,2.2-2.7,3.4-4c1.1,1.4,3.1,2.8,3.3,4.4
	c0.7,5.8,0.9,11.7,1.2,17.5c0,1,0,2.1-0.4,2.9c-0.8,1.2-2,2.1-3.1,3.2c-0.5-1.3-1-2.6-1.5-3.9c-0.1-0.1,0-0.3,0-0.5
	c-0.4-2.1-0.9-4.3-1.3-6.4c-1.1,1.6-1.8,3.5-3.2,4.6c-1.8,1.4-5,3.5-6,2.9C637.3,177.1,636.1,174.2,634.2,171.6"/>
<path d="M446,223.9c-0.9-0.4-1.2-0.8-1.6-1c-1.9-1.4-3.9-2.7-5.9-4c-0.1,2.2,0.1,4.6-0.7,6.6c-0.4,1.4-2.2,2.3-3.5,3.4
	c-0.4-1.2-1.1-2.3-1.3-3.5c-1.2-6.5-2.2-13-3.5-19.5c-0.5-2.4-1.8-4.9,1.6-6c3.6-1.1,3.8,2.1,4.5,4.2c0.5,1.4,0.2,3.2,0.4,4.8
	c0.1,0.7,0.5,1.3,0.8,2c0.7-0.5,1.6-0.7,1.9-1.4c1.9-3,3.4-6.3,5.4-9.2c0.8-1.1,2.5-1.6,3.8-2.4c0.4,1.2,1.3,2.7,1,3.7
	c-0.9,2.6-2.1,5.2-3.7,7.4c-3.4,4.8-3.3,5.9,2,8.9c0.4,0.2,0.9,0.4,1.1,0.8c0.9,1.7,1.8,3.5,2.7,5.3
	C449.5,223.9,448,223.9,446,223.9"/>
<path d="M534,153.9c4.6,0,7,2.5,7.9,6.1c1.3,5,2.1,10.1,3.1,15.2c0.1,0.8,0.3,1.8-0.1,2.4c-0.9,1.5-2.1,2.9-3.2,4.3
	c-0.9-1.4-2.2-2.7-2.6-4.2c-0.6-2.2-0.3-4.5-0.6-6.8c-0.2-1.1-1-2-1.5-3c-1,1.1-2.5,2.1-2.9,3.4c-0.7,2.3-0.4,4.9-1.2,7
	c-0.7,1.8-2.6,3.1-3.9,4.6c-0.7-1.8-2-3.6-1.9-5.4c0.4-5.9,0.9-11.8,2.1-17.6C529.6,157.7,532,155.9,534,153.9 M537,161.4
	c-0.6-0.8-1.2-1.6-1.7-2.3c-0.5,1.4-1.2,2.8-1.2,4.3c0,0.8,1.1,1.6,1.7,2.5C536.2,164.7,536.6,163.5,537,161.4"/>
<path d="M568.2,166.6c1.7,9-1,13.4-9.4,14.7c-2.5,0.5-6,0.3-5.9-4.3c0-5.4-0.6-10.7-0.9-16c-0.3-3.8,1.6-5.3,5.3-5.2
	C563,156.1,567.6,160.5,568.2,166.6 M564,169.4c-1.5-2.9-3-5.7-4.5-8.5c-0.2,3.1-0.6,6.2-0.4,9.3c0.1,2.2,1,4.4,1.5,6.7
	C561.7,174.7,562.9,172.5,564,169.4"/>
<path d="M655.2,196.1c7.2-3.1,10.2-0.4,11.6,5c1.4,5.2,1.6,10.7,2.1,16.1c0.1,1.2-1.1,2.4-1.7,3.7c-0.7-1.1-1.8-2-2.2-3.2
	c-0.7-2.2-0.9-4.6-1.6-6.8c-0.2-0.8-1.6-2.1-1.9-1.9c-1,0.5-2.2,1.4-2.4,2.3c-0.4,1.9,0.2,4.1-0.2,6c-0.3,1-1.7,1.9-2.8,2.4
	c-0.4,0.2-2-0.8-2.1-1.4c-0.7-6.8-3.7-13.6-0.4-20.5C653.9,197.2,654.5,196.8,655.2,196.1 M658,204.4c0.5,0.7,1.1,1.5,1.7,2.2
	c0.8-1.1,2.2-2.3,2.1-3.4c-0.2-1.5-1.5-2.8-2.4-4.3C658.9,200.4,658.5,201.9,658,204.4"/>
<path d="M466.2,224.1c-7.5,3.6-11,1.4-11.3-6.6c-0.1-5-0.5-10-0.9-15c-0.3-2.8,1-3.8,3.7-3.7c1.9,0,3.8-0.9,5.6-0.7
	c1.6,0.2,3.1,1.2,4.7,1.9c-1.2,1.3-2.3,2.7-3.6,3.8c-0.5,0.4-1.7,0.1-2.3,0.5c-0.8,0.6-1.9,1.6-2,2.5c0,0.6,1.3,1.7,2.2,2
	c1.5,0.4,3.1,0.4,4.6,0.6c-1.2,1.3-2.5,2.5-3.8,3.8c-0.4,0.5-0.8,1-1.1,1.5c-2.2,3.8-1.5,4.9,2.7,5.2c1.3,0.1,2.6,0.7,4,1.1
	C467.9,222,467.2,222.9,466.2,224.1"/>
<path d="M627.7,196.1c0.7,1.5,1.1,2.8,1.5,4.1c-1,0.2-1.9,0.5-2.8,0.6c-1.8,0.4-3.6,0.6-5.4,0.9c1.1,1.7,1.9,4.1,3.5,5
	c4.4,2.4,7.4,5.2,6.5,10.6c-0.5,3.1-4.3,5.9-7.5,5.6c-4.8-0.6-6.8-2.9-6.6-7.1c0.2-2.3,0.6-2.6,2.5-1.1c1.8,1.4,3.9,3.8,5.9,0.9
	c0.3-0.5-2.6-3.4-4.1-5c-2-2.2-5.3-3.9-6-6.3c-1.6-5.7,1.8-8.5,7.3-8.4C624.2,195.9,625.8,195.9,627.7,196.1"/>
<path d="M684,193.9c1.6,1.1,2.8,2.3,3.9,3.4c-1.4,0.5-3,0.8-4.2,1.6c-1.7,1.2-4.4,2.8-4.5,4.3c-0.1,3.3,1.1,6.7,1.8,10.1
	c0.1,0.2,1.5,0.5,1.6,0.4c0.5-1.3,1.3-2.6,1.3-3.9c0.3-5.1,2.5-6.4,7.2-4.4c2.2,1,2.7,1.9,1.1,3.8c-1.9,2.3-3.5,4.9-5.4,7.3
	c-2.8,3.7-9.7,3.1-11.7-1.3c-2.5-5.4-3.5-11.5,0.1-16.6C676.8,196.2,680.6,195.4,684,193.9"/>
<path d="M494.2,168.1c0.4-0.2,0.6-0.2,0.8-0.2c2.6-0.2,5.2-0.4,7.9-0.6c-1.5,2.5-2.6,5.3-4.5,7.5c-2.1,2.3-4.6,5.1-7.4,5.8
	c-4.4,1.1-8-2.6-8-7.2c0-5.3-1.3-11.1,3.9-14.8c1.8-1.2,4.8-2,6.6-1.3c1.4,0.5,1.9,3.6,2.3,5.7c0.2,0.7-1.3,1.7-2,2.5
	c-0.4-0.6-1.2-1.1-1.3-1.7c-0.9-3.2-3.2-2-3.3-0.4c-0.5,4.1,0,8.3,0.3,12.4c0.1,0.4,1.7,1.1,2,0.9c0.6-0.5,1.2-1.4,1.4-2.3
	C493.4,172.4,493.6,170.4,494.2,168.1"/>
<path d="M644,215.9c-1.5-2.4-2.7-4.8-4.6-5.9c-5.1-3-6.8-6.1-4.7-10.4c1.5-2.9,8.7-5.3,11.8-3.6c0.7,0.3,1.5,1.6,1.4,2.3
	c-0.2,0.9-1,2.2-1.8,2.4c-1.1,0.5-2.6,0-3.9,0.2c-0.8,0.1-2.1,0.6-2.1,1.1c-0.1,0.9,0.2,2.2,0.8,2.8c1.1,1,2.6,1.7,4,2.4
	c3.7,2.1,5.7,8.1,3.7,11.5c-2.2,3.8-8.4,5.7-11.7,3c-1.4-1.2-2.2-4.5-1.6-6.4c0.7-2.6,2.5-0.1,3.9,0.3
	C640.8,216,642.4,216.1,644,215.9"/>
<path d="M598.2,183.6c-0.7-2.7-0.6-5.4-1.7-7.6c-2.3-4.4-5.1-8.5-7.7-12.8c-0.6-1.1-1.6-2.1-1.7-3.2c-0.1-1.4,0.7-2.8,1.1-4.1
	c1.6,0.6,3.8,0.9,4.6,2.1c1.3,1.8,1.5,4.4,2.4,6.5c0.4,0.9,1.5,1.6,2.3,2.4c0.5-1,1.2-1.9,1.4-2.9c0.5-1.8,0.3-4,1.2-5.5
	c0.8-1.3,2.8-1.8,4.3-2.6c0.4,1.5,1.5,3.2,1.3,4.6c-0.6,4.2-1.9,8.2-2.7,12.3c-0.3,2.2-0.2,4.5,0,6.7
	C603.4,183,601.9,184.4,598.2,183.6"/>
<path d="M608.7,198.6c-1.5,1.2-2.8,2.1-4,3.1c-2.2,1.8-2.9,3.7,0.3,5.1c2.1,1,2.4,1.8,0.8,3.9c-1.9,2.6-1.5,4.9,2.5,5.3
	c1.3,0.1,2.5,1.3,3.7,2.1c-1.1,1.2-2,2.9-3.3,3.4c-5.5,2.2-10.2-1-10.8-6.8c-0.4-4.3-1.1-8.5-2-12.6c-0.8-4.2,1.8-5.5,4.8-6.2
	c2.3-0.4,4.7-0.2,7,0.1C608.2,196,608.6,197.5,608.7,198.6"/>
<path d="M529.7,197.6c1.8-1.1,3.3-1.9,4.7-2.7c0.2,1.4,1.1,3.2,0.5,4.1c-4.6,7.1-4.4,14.7-3,22.5c0.2,1.4-1,2.9-1.5,4.4
	c-1.1-1.2-3.1-2.3-3.3-3.6c-1-8.1-5.5-14.7-9.1-21.7c-0.9-1.7-2.7-3.9,0.6-4.7c1.3-0.3,3,1.3,4.4,2.2c0.4,0.3,0.7,1,1,1.5
	c0.9,1.7,1.8,3.4,2.7,5.1c0.7-2,1.5-4,2.3-6C529.1,198.4,529.3,198.1,529.7,197.6"/>
<path d="M625.2,160.6c2.2,5.4,3.3,10.5-1.3,14.8c-1.8,1.8-4.4,4.5-6,4.1c-2.3-0.5-5-3.2-5.7-5.5c-0.9-3.3-0.9-7.3-0.1-10.6
	C613.8,157.1,620.2,155.8,625.2,160.6 M622,168.4c-0.3-0.9-0.3-1.9-0.8-2.7c-0.5-1-1.4-1.9-2.1-2.8c-0.7,1.2-1.5,2.4-2.1,3.7
	c-0.2,0.5-0.1,1.3,0,2c0.5,2.1,1,4.2,1.5,6.3C619.7,173,620.8,171.2,622,168.4"/>
<path d="M412,222.9c1.3,0.2,2.1,0.5,3,0.7c-0.4,1-0.6,2.6-1.3,2.9c-2.9,1.3-6,2.8-9.1,3.2c-3.4,0.5-4.2-2.8-4.5-5.1
	c-1-7.5-1.6-15-2-22.6c-0.1-1.3,1.7-2.7,2.5-4.1c1.2,1.1,3,2.2,3.3,3.5c0.9,5.3,1.7,10.7,2,16.1C406,221.5,406.3,224.4,412,222.9"/>
<path d="M508,163.9c0-2.7-0.3-4.9,0.1-7c0.3-1.2,1.8-2,2.7-3c1.1,1,2.9,2,3,3.2c0.4,3.9,0.2,7.9,0.2,11.9c0,3.5-0.2,7,5.2,4.9
	c0.6-0.2,1.9,0.5,2.3,1.2c0.3,0.4-0.2,1.7-0.6,2.3c-2.4,3.2-5.8,4-9.5,3.4c-0.9-0.2-2.2-1.5-2.3-2.4
	C508.5,173.7,508.3,169,508,163.9"/>
<path d="M419.2,222.6c-0.9-5.4-1.8-10.6-2.1-15.8c-0.1-2,1.2-4,1.8-5.9c1.4,1.4,3.6,2.7,3.9,4.3c1.1,5.3,1.8,10.7,2,16.1
	c0.1,1.5-1.7,3-2.7,4.6C421.2,224.9,420.4,223.9,419.2,222.6"/>
<path d="M419.7,158.6c2.2-2,2.7-2.1,3.2-0.2c1.3,4.8,2.5,9.8,2.9,14.7c0.3,2.5-0.9,5.2-1.9,7.6c-0.7,1.5-2.1,2.8-3.2,4.2
	c-0.5-1.5-1.4-2.9-1.4-4.3c-0.2-6.8-0.2-13.6-0.3-20.5C419,159.7,419.3,159.3,419.7,158.6"/>
<path d="M431.2,151.1c1.5-1.2,2.7-2.2,3.9-3.2c0.3,1.3,1.1,2.7,0.8,3.8c-1.1,3.9-2.6,7.6-4,11.3c0,0-1.7-0.4-1.7-0.5
	C430.4,158.8,430.7,155.1,431.2,151.1"/>
<path d="M721.7,217.6c2.1-0.4,3.9-0.6,5.7-0.8c-0.2,1.2,0.2,2.9-0.5,3.6c-1.1,1.2-2.9,1.7-4.4,2.5
	C722.2,221.2,721.8,219.5,721.7,217.6"/>
<path d="M796.2,222.1c-6.5,4.7-12.4,9.3-20.7,9.9c-7.9,0.6-14.4-2.2-17.9-8.5c-3.7-6.5-6.9-13.7-6.6-21.6c0.2-5.7,2.8-7.5,8.1-6.1
	c7.2,1.9,14.6,3.1,21.8,5.1c5.6,1.6,11,3.8,16.4,6c3.9,1.6,5.1,8,2.3,11.8C798.7,219.9,797.5,220.8,796.2,222.1 M789.5,218.9
	c0.9-1,2.1-1.8,2.8-2.9c1.5-2.5,1.3-5.1-1.8-6c-7.2-2.2-14.5-4.5-21.9-6c-8.4-1.8-10.2,0.7-7.6,9.2c0.4,1.3,0.4,2.8,1,4
	c4.5,9.5,8.8,12.1,18.7,7.4C783.6,223.2,786.2,221.1,789.5,218.9"/>
<path d="M451.9,38.9c-0.7,1.8-1.1,3.4-1.5,4.9c1.4,0.5,2.9,1,4.4,1.2c1.8,0.4,3.6,0.5,5.4,0.7c-1.4,1.5-2.4,3.7-4.1,4.3
	c-9.9,3.5-11.8-1.2-12.9-9c-0.6-4.6-1.1-9.2-1.4-13.8c0-1,1.2-2.8,2-2.9c3.6-0.3,7.3-0.3,10.9,0c0.9,0,1.7,1.5,2.5,2.3
	c-0.8,0.5-1.7,0.9-2.2,1.6c-1.6,2.5-6.7-1.2-6.5,3.6c0,0.5,4.3,0.8,6.6,1.4c0.8,0.2,1.6,1,2,1.8c0.2,0.4-0.6,1.5-1.2,1.9
	C454.8,37.6,453.4,38.1,451.9,38.9"/>
<path d="M631.5,38.4c6.9-0.1,7.8-3.7,5.9-9.2c-0.4-1,0.3-2.4,0.6-3.5c1.3,0.7,3.2,1.1,3.9,2.3c1.1,1.6,1.7,3.7,1.8,5.7
	c0.4,7.1,0.5,14.2,0.6,21.4c0,0.8-0.8,1.7-1.2,2.6c-0.9-0.7-2.5-1.3-2.7-2.1c-0.6-3-0.6-6.1-1.2-9c-0.3-1.4-1.6-2.6-2.4-3.9
	c-1.9,1.8-6.4-0.7-6.5,3.9c-0.1,3.1,0.1,6.3-0.1,9.4c-0.1,0.9-1.1,1.8-1.7,2.7c-0.7-0.8-2.1-1.4-2.1-2.2c-0.8-9.2-1.5-18.4-2.1-27.6
	c0-0.4,1.1-1.3,1.4-1.2c1,0.4,2.4,0.9,2.7,1.7C629.5,32.2,630.3,35.2,631.5,38.4"/>
<path d="M515.6,80.5c-0.7,1.8-1.1,3.4-1.5,4.9c1.4,0.5,2.9,1,4.4,1.2c1.8,0.4,3.6,0.5,5.4,0.7c-1.4,1.5-2.4,3.7-4.1,4.3
	c-9.9,3.5-11.8-1.2-12.9-9c-0.6-4.6-1.1-9.2-1.4-13.8c0-1,1.2-2.8,2-2.9c3.6-0.3,7.3-0.3,10.9,0c0.9,0,1.7,1.5,2.5,2.3
	c-0.8,0.5-1.7,0.9-2.2,1.6c-1.6,2.5-6.7-1.2-6.5,3.6c0,0.5,4.3,0.8,6.6,1.4c0.8,0.2,1.6,1,2,1.8c0.2,0.4-0.6,1.5-1.2,1.9
	C518.5,79.2,517.1,79.7,515.6,80.5"/>
<path d="M496.8,214.8c-0.4-2.9-0.3-5.4-1.1-7.6c-0.7-1.9-2.3-3.6-3.5-5.4c-0.8,2.2-2.2,4.3-2.3,6.5c-0.1,3.8,0.8,7.7,0.8,11.6
	c-0.1,1.3-1.6,2.6-2.4,3.9c-1-1.1-2.7-2-2.9-3.1c-1.1-6.6-1.9-13.3-2.5-19.9c-0.1-0.7,0.9-2,1.6-2.1c4.2-0.8,8.6-3.4,12.9,0.1
	c0.5,0.4,1.6,0.6,2.3,0.5c9.5-2.2,12-1,14,8c0.9,4.2,0.8,8.6,1,13c0,0.8-0.8,1.6-1.2,2.5c-1.1-0.7-2.8-1.1-3-2
	c-1.1-4.1-1.8-8.2-2.7-12.4c-0.3-1-0.5-2.1-1-3.1c-0.4-0.9-1.1-1.7-1.7-2.5c-0.8,1-2.1,2-2.2,3c-0.2,3.3,0.3,6.6,0.2,9.8
	c0,2.1-0.3,4.2-0.9,6.1c-0.2,0.6-2.7,1.1-2.8,0.9c-1.1-1.8-1.8-3.8-2.6-5.9C496.6,216.3,496.8,215.8,496.8,214.8"/>
</svg>
