<?xml version="1.0" encoding="utf-8"?>
<!-- Generator: Adobe Illustrator 23.1.0, SVG Export Plug-In . SVG Version: 6.00 Build 0)  -->
<svg version="1.1" id="Contours" xmlns="http://www.w3.org/2000/svg" xmlns:xlink="http://www.w3.org/1999/xlink" x="0px" y="0px"
	 viewBox="0 0 1050.9 1059.3" style="enable-background:new 0 0 1050.9 1059.3;" xml:space="preserve">
<desc  xmlns:shape="http://adobe.com/products/shape"></desc>
<path d="M965,1057c-46,0-91.5,0-137,0c-9.6,0-19.2,0.5-28.9,0.3c-6.8-0.1-13.6-1.2-20.4-1.2c-14,0-28.1,0.7-42.1,0.8
	c-18.9,0.2-37.8,0.4-56.6,0c-14-0.2-27.9-1.5-41.9-1.8c-26.4-0.6-52.8-0.8-79.2-1c-5.2-0.1-10.4,1-15.6,0.9c-17.7-0.5-35.4-1-53-2.1
	c-15.8-0.9-31.6-2.6-47.3-3.8c-6.4-0.5-12.8-0.9-19.1-1c-20.6-0.5-41.2-0.6-61.8-1.1c-12.4-0.4-24.8-1.3-37.1-2
	c-6.6-0.3-13.1-0.7-19.6-1c-21.4-0.7-42.8-1.2-64.2-2c-12.1-0.5-24.2-1.4-36.3-1.9c-11.7-0.5-23.3-0.9-35-1
	c-11.3-0.2-22.8,0.3-34.1-0.2c-14.1-0.6-28.2-2.2-42.3-2.8c-16.2-0.7-32.5-0.9-48.8-1.3c-12.2-0.3-24.4-0.4-36.5-0.8
	c-5.4-0.2-7-3.2-6.3-8.9c0.5-4.2-0.2-8.5-0.1-12.8c0.3-11.5,0.3-23,1.3-34.5c1.1-12.8,3.7-25.5,4.7-38.4c1-12,0.9-24,1.2-36.1
	c0.4-23,0.9-46,0.9-69.1c0-20.4-0.5-40.8-0.9-61.2c-0.3-13.9-0.6-27.8-1-41.8c-0.6-20.1-1.3-40.3-2-60.5c-0.3-8.6-0.5-17.1-1.1-25.7
	c-0.8-14.3-2.4-28.5-2.8-42.8c-0.7-23.3-0.9-46.7-1.1-70.1c-0.1-16.6,0.1-33.2-0.1-49.8c-0.1-11.6-0.9-23.2-0.8-34.8
	c0-21.7,0.8-43.3,0.8-65c0-18.6-0.8-37.1-0.8-55.6C0,311.6,0.7,296.4,1,281.1c0.1-7.6-0.1-15.2,0-22.8c0.2-10.2,1-20.3,0.9-30.4
	c-0.1-19.4-0.9-38.8-0.8-58.1C1.1,143.9,1.6,118,2,92c0.2-12.8,0.6-25.7,1-38.5c0.3-9.7,0.6-19.4,1-29.1c0.2-4.1,0.9-8.1,0.9-12.1
	C5.1,4,7.9,1,16.4,1.1C25.6,1.2,34.7,2,43.9,2C63.6,1.8,83.4,0,103,1.3c29.8,2.1,59.6,1.3,89.3,1.8c13.2,0.2,26.3,1,39.4,1.1
	c37.4,0.1,74.7-0.1,112.1-0.2c9.7,0,19.3-0.1,29,0.1C381,4.2,389.2,5,397.4,5c8.7-0.1,17.5-1.1,26.2-0.9c13.2,0.3,26.4,1.6,39.6,1.8
	c19.1,0.4,38.3,0,57.5,0.2c29,0.2,58,0.4,87,1c24.1,0.4,48.1,1.2,72.2,2c16.9,0.5,33.8,1.2,50.7,2c10.2,0.4,20.4,1.3,30.6,1.9
	c7.7,0.4,15.4,0.8,23.1,1c22,0.7,44,1.6,66,1.9c13.1,0.2,26.1-0.6,39.1-0.9c3.7,0,7.5,0.1,11.2,0c29.2-0.3,58.4-0.5,87.6-1
	c15.2-0.3,30.4-1.5,45.6-1.9c9.6-0.3,11,0.5,11,9.8c0,14.4-1.3,28.8-1.8,43.2c-0.3,9.5,0.1,19-0.1,28.5c-0.1,5-0.6,10-1.1,15
	c-0.1,1.8-0.7,3.5-0.8,5.2c-0.4,17.5-0.6,35-1.1,52.5c-0.5,18.3-1.5,36.5-1.8,54.7c-0.4,16-0.4,32-0.1,48
	c0.4,18.8,1.4,37.6,1.9,56.4c0.3,10.3,0,20.6,0.1,31c0.3,36.5,0.6,73,1,109.5c0.2,18.4,0.8,36.8,0.9,55.1
	c0.1,10.3-0.9,20.5-0.9,30.8c0.2,21.5,0.6,42.9,1,64.4c0.2,10.5,0.8,21.1,1,31.6c0.4,29,0.8,58,0.9,87.1c0.1,10.8-0.7,21.7-0.9,32.5
	c-0.1,8.1,0.1,16.2,0,24.2c-0.3,12.5-0.9,25-1,37.4c-0.4,38.9-0.7,77.8-1,116.6c-0.1,7.2,0.1,14.5,0,21.7c-0.3,10.5-1.2,21-0.8,31.6
	c0.2,7.3,2,14.7,3.2,22c1.4,8.3,3,16.4,4.6,24.6c0.4,2.3,1.2,4.6,1.8,6.8c1.1,4.1-0.6,6.6-5,6.7c-12.3,0.1-24.6,0.3-37,0
	C993.7,1058.6,979.6,1057.7,965,1057 M375,545.5c-0.3,0-0.6,0-0.9,0c0.3,0.1,0.6,0.3,0.9,1c0.6,0.1,1.3,0.1,1.9,0.1
	C376.3,546.4,375.6,546.2,375,545.5 M214,505.5c-0.3,0-0.6,0-0.9,0c0.3,0.1,0.6,0.3,0.9,1c1.4,5.7,7.4,8.6,11.6,5.3
	c0.7-0.6,1-1.8,1.3-2.9c0.1-0.1-0.8-0.8-1.3-0.8C221.8,507.3,217.9,506.7,214,505.5 M328.5,709c-1.3-0.2-2.8-0.2-3.8-0.8
	c-6.1-4.3-12.2-8.5-18-13.3c-4.2-3.4-9.2-6.9-11.4-11.5c-2.4-5.3-5.2-9.4-9.8-12.3c-8.8-5.7-17.7-11.2-26.7-16.6
	c-1.9-1.2-4.1-1.4-3.9,2.3c0.2,3.7,0.1,7.4,0.1,11.1c-0.1,0.7-0.5,2-0.7,2c-0.9,0-2.2-0.2-2.6-0.8c-0.8-1.2-1.4-2.7-1.7-4.2
	c-0.5-3.4-0.5-6.8-1.1-10.1c-0.2-1-1.7-1.9-2.5-2.8c-0.5,1-1.3,1.9-1.4,2.9c-0.7,10.1,0.5,20,4.1,29.3c2.8,7.5,6.8,14.5,9.8,22
	c4.7,11.5,6.2,24.1,12.8,35.2c5.8,9.7,9.5,20.7,14.3,31c2.5,5.4,5,6.3,9.5,2.5c13.4-11.4,26.5-23.1,39.8-34.6
	c1.7-1.5,5.3-3.8,5.6-3.4c3.3,3.4-2.4,4.3-2.4,7.1c0,0-0.7-0.1-0.9,0c-8.8,8.5-17.7,16.9-26.4,25.5c-0.9,0.9-0.9,3.8-0.1,4.9
	c4.5,6.6,9.3,12.9,14,19.3c6.2,8.4,12.3,16.9,18.4,25.3c5,7,11.6,10.8,20.3,10c8.7-0.9,17.5-1.9,26.2-3c5.7-0.7,11.5-1.1,17-2.6
	c8.3-2.3,16.4-5.3,24.4-8.4c10.4-4.1,20.5-8.5,30.7-13c9.6-4.2,19.1-8.5,28.5-13.2c7-3.5,13.8-7.6,20.5-11.9
	c2.2-1.4,3.8-2.3,6.3-0.9c1.1,0.5,2.6,0.5,3.8,0.3c2.9-0.6,5.7-1.3,8.5-2.3c6.7-2.3,14-3.8,19.9-7.5c7.5-4.8,14.2-11.2,20.7-17.5
	c7-6.7,13.7-13.8,20.1-21.1c2.2-2.6,3.2-6.3,4.5-9.6c0.3-0.7-0.7-1.9-1.1-2.9c-0.8,0.6-1.9,1-2.4,1.8c-1.6,2.6-2.6,5.8-4.5,8.1
	c-3.4,4-6.7,8.4-12.7,8.7c-0.9,0-2.2-0.4-2.5-1s0.1-1.9,0.5-2.6c0.6-1,1.6-1.7,2.5-2.5c6.2-6.3,12.5-12.4,18.6-18.8
	c1.7-1.7,3.6-3.9,4.1-6.2c0.5-2.4-0.5-5.1-0.8-7.7c-1.6,1.2-3.2,2.4-4.9,3.6c-0.1,0.1-0.2,0.2-0.3,0.3c-6.6,8-13,16.1-19.9,23.7
	c-2.3,2.5-6.1,3.7-9.3,5.1c-0.7,0.3-2.1-0.6-2.9-1.2c-0.2-0.2,0.3-2,0.9-2.3c9.9-4.9,16.1-13.6,22.7-21.9c1.5-1.9,2.6-4.1,3.9-6.2
	c-2.3,0.3-4.7,0.5-7,0.7c-0.6,0.1-1.3,0.1-2,0c-4.2-0.4-6.9,1.7-8.7,5.4c-4,8.4-11.3,13.6-18.3,19.1c-1.2,0.9-3.7,0.2-5.6,0.2
	c0.9-1.4,1.6-2.9,2.8-4.1c4.2-4.4,8.7-8.6,12.9-13.1c0.8-0.9,1.2-2.8,0.9-4c-0.2-0.7-2.1-1.2-3.2-1.4c-5.3-1.1-8.5,1.9-11.6,5.5
	c-4.8,5.6-9.4,11.3-14.7,16.3c-1.4,1.3-5.8,1.3-7.4,0.1c-2.3-1.7-1-4.5,1.1-6.7c2.7-2.7,4.8-5.9,7.2-9c2-2.7,0.7-4.8-2-5.1
	c-4.1-0.6-8.4-0.3-12.6-0.1c-3.6,0.1-7.1,0.9-10.6,0.9c-4.1-0.1-8.2-0.7-12.3-1c-6.3-0.3-12.7-0.9-19.1-0.9c-4.1,0-8.4,0.2-12.4,1.4
	c-4.2,1.2-8,3.9-12.2,5.5c-6.9,2.6-14.8,3.6-20.7,7.7c-11.3,7.7-22.8,14.8-36.2,17.6c-7.6,1.6-15.4,2.1-22.1-3.3
	c-2.8-2.2-2.9-5.3,0.3-6.9c7.8-3.9,15.9-7.4,23.9-11.1c0.9-0.4,1.8-1,2.7-1.5c-1.3-0.5-2.7-1.6-3.8-1.4c-4.9,1.1-9.9,2.1-14.4,4
	c-9.6,4.2-19.3,5.1-29.4,2.9c-2.8-0.7-5.8-1.9-6.3-5.2c-0.4-3.5,0.8-6.3,4.3-7.8c2.8-1.2,5.4-3.1,8.4-3.9c9.3-2.5,18.7-4.7,28-7.1
	c0.8-0.2,1.5-0.7,2.3-1c-0.8-0.3-1.6-1-2.3-0.9c-8.6,1-17.1,2.6-25.6,3.2c-4.6,0.3-9.4-0.5-13.9-1.5c-1.4-0.3-3.4-3.7-3-4.5
	c3-5.5,5.7-11.5,10.1-15.7c5.6-5.1,13-7.6,20.8-8.7c4.1-0.6,8.4-1,11.6-4.8c1.2-1.5,4.3-1.7,6.5-2c6.8-1.1,13.5-2.7,20.3-2.9
	c8.2-0.3,16.6-0.6,24.5,1.2c5.6,1.2,10.4,6,15.8,8.8c3.9,2.1,7.2,5.9,12.5,4.9c4-0.8,8.1-1.6,12.1-2c9.3-1.1,18.5-2.1,27.8-3.1
	c3.5-0.4,7-0.6,10.5-1.2c7.3-1.2,14.6-2.5,21.9-3.8c0.8-0.1,1.5-0.3,2.3-0.4c-0.4-0.8-0.7-1.8-1.3-2.4c-0.6-0.6-1.7-0.9-2.4-1.5
	c-3.7-3.3-8-6.3-11-10.2c-4.6-6.1-6.4-14.3-14.2-18c-0.3-0.1-0.5-0.4-0.7-0.7c-6-5.3-10.2-12.8-18.5-15.5c-0.7-0.2-1.3-1-1.8-1.6
	c-1.5-1.9-2.9-3.9-4.5-5.6c-0.8-0.9-2.1-1.3-3.1-2c0.1,1.4-0.2,2.9,0.3,4.1c1.7,3.6,4,7,5.5,10.7c0.5,1.4-0.4,3.4-0.7,5.1
	c-1.1-1.1-2.4-2.2-3.5-3.4c-0.5-0.5-0.6-1.4-1-2c-0.7-1.2-1.6-2.4-2.4-3.6c-0.2,1.4-0.7,2.8-0.6,4.1c0.8,5-1.5,8.4-5,11.5
	c-1.4,1.2-2.4,3-3.5,4.4s-2.1,2.7-3.2,4c-0.8-1.7-2.1-3.3-2.2-5c-0.3-5.2,0.1-10.4-0.3-15.5c-0.1-1.6-1.8-3-2.8-4.5
	c-0.4,1.5-0.6,2.9-1,4.3c-0.7,2.2-1.6,4.4-2.4,6.6c-0.9-2.2-2.4-4.4-2.5-6.6c-0.6-9.2-1.1-9.4-10.9-10.4c-3.6-0.3-7.3-1.6-10.7-3
	c-4-1.6-7.7-3.9-11.6-5.9c-2.2-1.1-4.5-2-6.6-3.2c-6.9-3.9-13.9-7.7-20.6-11.8c-3.9-2.4-8-4.9-11.1-8.1c-2.2-2.4-2.9-6.1-4.7-9
	c-1.7-2.7-3.9-5-6-7.4c-0.7-0.7-1.9-1-2.9-1.5c-0.3,0.9-1,1.9-1,2.8c0,6.5-1.9,12.1-6.9,16.7c-5.7,5.3-10.7,11.4-16.7,16.4
	c-8.3,7-17.8,10.2-29.3,8.4c-7.2-1.2-12.5-5.4-18.5-8.4c-2-1.1-3.1-3.9-4.6-5.9c-0.5-0.6-1-1.3-1.5-1.9c-0.5,0.5-1.4,1-1.7,1.6
	c-0.6,1.8-0.5,4-1.5,5.4c-2.3,3.1-5.1,5.8-7.6,8.8c-5.1,6-10.3,12-15.2,18.2c-7.1,8.8-12.9,18.1-11.8,30c0.1,1.7,1.1,4,2.4,4.8
	c6.8,4.3,14.1,7.9,20.9,12.2c8.1,5.2,15.6,11.3,20.6,19.9c1.7,3,4,5.6,6.5,8C314.3,695.8,321.7,702.4,328.5,709 M410,308.5
	c4.6-11.6,8.7-23.4,13.9-34.8c8.4-18.2,20.2-34.5,31.8-50.8c2.7-3.8,5.7-7.4,8.9-10.8c1.1-1.2,4.1-2.3,4.8-1.8
	c1.9,1.4,1,3.7-0.4,5.4c-0.5,0.7-0.8,1.4-1.2,2c-6.6,8.8-13.5,17.3-19.7,26.4c-10.3,15-18.8,30.9-25.8,47.8
	c-8.8,21.6-14.8,43.8-19.3,66.5c-0.5,2.7,0.1,4.9,2.8,6.7c11.2,7.7,22.2,15.6,33.2,23.5c4.1,2.9,8,3.8,12,0c1.6-1.5,3.6-2.8,5.6-3.5
	c18.3-6.1,36.5-12.6,55.1-17.9c9.8-2.8,20.1-3.8,30.3-5.1c12.3-1.6,24.6-2.8,36.9-4c6.3-0.7,12.6-0.8,18.9-1.4
	c4.3-0.5,9.8,2.7,11,6.7c0.6,2,0.6,4.1,1.2,6.1c3.3,11.1,5.9,22.5,10.3,33.2c2.7,6.7,8.7,12,12.6,18.3c8.7,13.8,15.1,28.6,20.6,43.9
	c4.2,11.8,4.7,23.7,2.3,35.6c-0.8,4,0.1,5.2,3.1,7c9.3,5.7,18.4,11.8,27.7,17.6c1.4,0.8,3.4,0.9,5.1,0.9c3.2-0.2,6.4-0.6,9.6-1
	c6.1-0.6,12.4-0.3,18.1-2.2c19.2-6.2,39.1-10.4,57-20.6c10.6-6.1,22.2-10.6,33.5-15.5c14.5-6.4,29.4-10.5,45.7-9.9
	c18,0.7,33.5,7.4,48.1,16.7c5.1,3.2,8.8,8.5,13.9,11.4c14.6,8.3,29.7,15.5,45.6,21.3c6.9,2.5,13.8,6,19.6,10.5
	c9.7,7.3,12.1,19,15.3,30c0.6,2.2,2.1,4.6,4,5.7c9.9,5.8,17.4,13.6,21.9,24.2c0.5,1.2,1.2,2.6,2.2,3c2.5,1.2,5.3,1.9,7.9,2.8
	c0.6-2.2,1.8-4.5,1.8-6.7c-0.2-13.3-0.8-26.6-0.9-39.9c-0.1-19.1,0.1-38.1,0-57.2c-0.2-23.4-0.8-46.8-1-70.2
	c-0.4-39.9-0.7-79.8-1.1-119.6c0-3.5-0.8-7.1-0.9-10.6c-0.7-19.1-1.6-38.1-1.9-57.2c-0.2-12.2,0.6-24.4,0.8-36.6
	c0.1-3.4-0.7-6.8-0.6-10.1c0.4-9.5,1.3-19,1.6-28.5c0.5-14.4,0.6-28.8,1.1-43.2c0.4-9.3,1.5-18.6,1.9-27.9
	c0.6-10.1,0.8-20.3,1.1-30.4c0.3-13.9,0.6-27.7,1-41.6c0.1-2.8-0.9-3.9-3.7-3.7c-5.7,0.4-11.4,0.8-17.1,1c-10.8,0.4-21.6,0.9-32.4,1
	c-32.4,0.4-64.7,1-97.1,1c-31.6,0-63.2-0.5-94.8-1c-12.2-0.3-24.5-1.3-36.8-2c-20-1-40.1-2-60.1-2.9c-11.1-0.5-22.2-0.8-33.3-1.1
	c-25-0.7-50-1.6-75-1.9c-15.3-0.2-30.7,1-46.1,0.8c-13.3-0.1-26.5-1.3-39.8-1.8c-5-0.3-10,0-15-0.1c-30.9-0.3-61.8-0.7-92.6-1
	c-12.7-0.1-25.5,0-38.2,0c-24.4,0-48.8,0-73.2,0c-12,0-24.1-0.1-36.1,0.1c-8.5,0.1-17,0.9-25.4,0.6c-19.1-0.6-38.2-1.8-57.4-2.6
	c-4.7-0.2-9.5,1-14.2,0.9c-16.8-0.5-33.6-1.6-50.4-1.9C85.2,7.9,72,8.9,58.8,9C46.1,9,33.4,8.3,20.7,8.1c-8.9-0.2-9.5,0.6-9.7,9.2
	c-0.3,9.9-0.7,19.7-1,29.6C9.6,57.3,9.1,67.7,9,78.1c-0.4,35.7-0.6,71.4-1,107.1c-0.3,22.6-0.7,45.2-1,67.8
	c-0.4,23.7-1,47.4-0.9,71.1c0,28.3,0.6,56.7,0.9,85c0,2.7,0.3,5.4-0.1,8c-0.8,4.9,2,4.6,5.2,3.9c0.8-0.2,1.7-0.6,2.5-1.1
	c12.2-8.4,26.3-13.2,38.7-21.5c15.3-10.4,32.1-18.7,48.6-27.3c13-6.6,26.5-12.4,39.9-18.3c11.3-5,22.6-9.9,34.2-14.1
	c9.5-3.4,19.5-5.8,29.4-8.7c8.3-2.4,17.1-3.6,25.1-0.6c11.6,4.3,23.2,9.5,33.8,15.9c11.5,6.8,21.9,15.6,32.9,23.3
	c1.1,0.7,3.7,0.6,4.7-0.2c7.9-6.2,15.2-13,23.3-18.9c8.3-6.1,17-11.8,26-16.9c3.5-1.9,8.2-4,12.5-0.5c1.7,1.3,2.8,3.3,4.5,4.6
	c9.1,7.3,18.4,14.4,27.6,21.5c0.3,0.3,2-0.5,2.1-1c0.5-3.1,0.4-6.4,1.2-9.5C402.4,334.8,406,321.9,410,308.5 M9.5,1028
	c1.9,0.4,3.9,1,5.8,1c13.8,0.1,27.7,0.1,41.5,0c2.7,0,5.4-1.1,8.1-0.9c6.8,0.4,13.7,1.4,20.5,1.9c14.2,1.1,28.5,2.2,42.8,3
	c9.6,0.5,19.3,0.8,29,1c18.6,0.4,37.1,0.6,55.6,1c9.3,0.3,18.5,0.7,27.8,1c13,0.4,26,0.6,39.1,1.1c12.7,0.5,25.5,1.3,38.3,1.9
	c12.7,0.7,25.5,1.4,38.2,2c8.8,0.4,17.7,0.8,26.6,1c14.8,0.4,29.7,0.4,44.5,1.1c14.5,0.7,28.9,2,43.3,2.9
	c15.8,1.1,31.5,2.6,47.3,2.9c20.1,0.3,40.3-0.8,60.5-0.8c19.2,0,38.4,0.5,57.6,0.9c10.6,0.3,21.1,0.7,31.6,1c0.5,0,1,0,1.5,0
	c11.7,0.7,23.4,1.5,35.2,1.9c5.1,0.2,10.3-0.8,15.4-0.8c16.7-0.2,33.3,0,50-0.1c2.1-0.1,4.5-0.6,6.3-1.6
	c14.3-8.4,29.3-15.6,42.1-26.6c13.2-11.4,25.5-23.4,34.7-38.1c8.1-13,15.5-26.6,22-40.4c9.5-19.8,13.5-41.2,14.1-63.1
	c0.4-12.2,0.1-24.4,0.1-36.7c0-1.1,0.1-2.3,0-3.5c-1.3-11.6-3.1-23.2-3.9-34.8c-0.6-10-0.6-20.2,0-30.2c0.8-11.6,1.8-23.4,4.1-34.8
	c2.9-14.5,8.3-28.5,18.2-39.8c3.1-3.4,8.2-5,12.4-7.3c0.5-0.3,1.2,0.1,1.9,0.1c-0.2,0.7-0.3,1.5-0.7,2c-2.5,2.3-5.1,4.5-7.5,6.8
	c-11.8,11.7-16.3,26.9-19.4,42.4c-1.6,8-2.5,16.2-3,24.3c-0.7,10.7-1.5,21.4-1,32.1c0.7,14.8,2.9,29.5,3.8,44.3
	c0.6,10.7,0.2,21.5,0,32.2c0,3.5-0.8,7-0.9,10.6c-0.4,15.6-3.6,30.7-9,45.4c-9.2,25.3-21.2,49.2-39.3,69.1
	c-16.8,18.6-34.7,36.3-59.3,44.8c-1,0.3-1.6,1.6-2.3,2.4c1,0.5,1.9,1.1,2.9,1.4c1,0.2,2,0,3,0c21-0.3,42.1-0.9,63.1-0.9
	c30.5,0.1,61,0.6,91.6,0.9c15.1,0.1,30.3,0,45.5,0c1.1,0,2.3,0,3.5,0c13.5,0.4,27,1.1,40.6,0.9c8.2-0.2,9-1.4,8.6-9.7
	c-0.3-4.8-1.6-9.6-2.6-14.4c-0.9-3.9-0.8-8.8-3.1-11.6c-2.9-3.3-3.4-6.5-3.2-10.3c0.2-2.2,0.9-4.4,0.9-6.6
	c0.4-19.5,0.8-39.1,1.1-58.7c0.4-31.2,0.6-62.4,1-93.6c0.2-18.9,0.7-37.8,1-56.8c0.1-8,0-16.1,0-24.1c0-12.5-0.1-25.1,0-37.6
	c0.2-12.3,0.9-24.6,0.9-36.9c0-12-0.6-24-0.9-36.1c-0.3-11.7-1.3-23.4-0.8-35c0.3-8-3-12.1-9.9-14.8c-4.7-1.8-7.7-5.2-9.8-10.3
	c-2.8-6.7-7.7-12.6-15.1-15.4c-1.9-0.7-2-0.2-2,2c-0.1,10.6,1.6,21.7-1.1,31.6c-4.4,16-11.7,31.1-17.9,46.5
	c-4.2,10.4-8,20.8-7.6,32.2c0.3,6.8,0.5,13.5,1.3,20.2c0.6,6.3,2,12.5,2.8,18.8c0.6,4.5,0.9,9,1,13.5c0,1.1-1,2.2-1.6,3.2
	c-0.8-0.8-2-1.6-2.3-2.5c-0.9-3.2-1.5-6.5-2-9.7c-1.1-8.1-1.4-16.3-3.2-24.2c-2.2-9.7-2.4-19.3-0.7-28.8
	c2.5-14.6,9.4-27.7,14.9-41.3c4.6-11.4,10.4-22.6,10.7-35c0.5-16.9,2.5-34.2-4.8-50.4c-3.8-8.5-8.2-16.5-17.7-20.4
	c-13.5-5.7-26.7-12-40-17.9c-0.7-0.3-1.6-0.1-2.4,0c0.1,0.7,0.2,1.4,0.6,2.1c0.4,0.7,0.9,1.5,1.5,2.1c11.3,11.9,18.9,25.6,22.2,42
	c4.2,20.5-2.2,37.5-16,52.2c-6.6,7.1-13.8,13.7-21.1,20.2c-5.5,4.9-11.2,9.7-17.4,13.5c-18.3,11.1-37.2,21.3-55.4,32.7
	c-12.2,7.6-23.8,16.2-35.1,25.1c-5.5,4.3-10.1,9.8-14.5,15.3c-7.1,9.3-13.8,18.9-20.5,28.5c-8.6,12.4-16.1,25.7-25.8,37.2
	c-9,10.7-19.9,20-30.7,29c-16.9,14.2-36,24.6-57,31.3c-18.4,5.9-36.8,12-55.4,17.1c-12.9,3.5-26.1,5.8-39.3,7.8
	c-7.9,1.2-16,0.9-24,1.1c-21.1,0.4-42.1,0.7-63.1,1c-0.8,0-1.7,0.1-2.5,0.2c-8.6,0.9-17.2,1.9-25.8,2.8c-0.8,0-1.7-0.8-2.5-1.2
	c0.9-0.9,1.7-2.5,2.6-2.7c11.6-1.5,23.2-3.1,34.9-4c12-0.8,24-0.7,36-1.1c11.7-0.3,23.5-1.3,35.1-0.8c12.5,0.5,24.6-1.6,36.3-4.5
	c20.6-5,40.9-11.3,60.9-18.3c13.2-4.6,25.7-11.2,38.4-17.1c16.5-7.7,28.6-21.1,41.8-32.9c4.8-4.4,8.8-9.6,12.7-14.7
	c6.9-9.1,13.8-18.2,19.8-27.9c9.2-15,18.6-30,31-42.4c9.1-9.1,19.3-17.2,30-24.2c18.5-12,37.6-23.2,56.8-34.1
	c20.2-11.5,38.1-25.7,52.8-43.7c11.9-14.7,14.7-31.3,9.4-49.5c-5.6-19-18.2-33.3-30.3-47.9c-9.3-11.2-21.4-18.7-34.9-24.3
	c-17.1-7-34.3-8.4-52.1-2.7s-34.8,13.3-51.3,22.1c-13.3,7.1-27.5,11.7-41.9,15.9c-12.4,3.7-24.8,7.2-38,6c-0.5,0-1.1-0.1-1.5,0.1
	c-0.9,0.3-1.6,0.9-2.4,1.3c0.5,0.6,0.9,1.3,1.6,1.8c6.6,4.7,11.3,10.9,15.5,17.9c1.6,2.6,5.3,4.2,8.2,5.9c4,2.3,8.5,3.8,12.3,6.4
	c5.1,3.5,6.8,10.8,13.6,12.7c0.3,0.1,0.2,1.9,0.2,2.9c0.1,2.1,0.1,4.3,0.4,6.4c0.2,2.2,1,4.3,1,6.5c0,2.9-0.6,5.7-0.9,8.6
	c2.9,0.2,5.8,0.3,8.8,0.5c0.4,0.1,0.8,0.4,1.2,0.6c10.3,4.5,21.2,6.1,32.4,6.4c8,0.3,15.3,2.8,22,7c4.6,2.9,8.8,2.4,11.5-2.2
	c7.2-12,7.7-23.9-3.6-33.3c-15-12.4-32-14.5-50.3-13c-2,0.1-4-0.8-6-1.2c1.5-0.7,3-1.5,4.5-2.3c0.6-0.3,1.1-0.9,1.6-0.9
	c16.6-0.5,33.3-1,47.7,9c14.6,10.2,19.7,17,16.2,31c-2,7.7-3.6,15.6-12.4,18.7c-2.5,0.8-1,1.5-0.2,2.1c4.2,3.4,7.2,3,11.6-1
	c10.2-9,15.8-19.8,15.7-32.9c-0.1-7.4-2.4-14.9-4.9-21.9c-4.1-11.7-11.7-21.2-24-24.4c-8.8-2.2-18.2-2-27.4-2.6
	c-2.3-0.2-4.7,0.7-7.1,0.8c-0.8,0.1-1.5-0.9-2.3-1.4c0.7-0.7,1.3-1.8,2.1-2c2.6-0.7,5.3-1.4,7.9-1.4c7.9,0.1,15.9,0.2,23.8,1
	c9,1.1,17.3,4.9,23.1,12c10.9,13.6,17.1,28.7,14.2,46.8c-2.3,14.7-10.7,25.5-21.7,33.9c-9.8,7.4-21.2,12.7-29.1,22.4
	c-5.3,6.5-10,13.4-15.6,19.5c-12.8,13.9-25.9,27.4-38.9,40.9c-2.3,2.4-5.1,4.5-7.9,6.4c-10.9,7.3-22,14.4-33,21.6
	c-5,3.2-9.8,6.8-15.1,9.3c-8.6,4.1-17.9,7-26.3,11.3c-13.2,6.7-27,12-41.4,14.7c-14.3,2.6-28.7,4.4-43,6c-9.7,1.2-19.5,1.3-29.2,2.2
	c-6.8,0.6-13.5,1.9-20.3,2.9c-6.2,1-12.5,2.9-18.7,2.8c-7-0.1-13,2-19.1,4.9c-10.3,4.8-20.7,9.6-31.1,14.1
	c-17.7,7.5-35.5,14.9-53.4,22.2c-1.1,0.5-2.7,0-4.1,0c-5.1,0.2-10.3,0-15.4,0.8c-7.6,1.3-15.1,4.4-22.8,5c-15.3,1.4-24.8-7.9-32-20
	c-5.9-10.1-6-7.6-14-2.3c-1.5,1-2.9,2.1-4.2,3.2c-12.3,10.7-24,22.3-39.9,27.9c-11.4,4.1-22.4,9.6-35,8.5
	c-7.5-0.7-15.2-0.2-22.6-1.2c-10.9-1.5-21.9-3.2-32.5-6c-17-4.7-33.7-9.2-51.7-7.1c-12.7,1.5-25.7,1-38.5,1.2
	c-11.7,0.1-23.1,2.1-34.1,6c-13.2,4.6-26.4,9.4-39.7,14c-1.2,0.4-2.5,0.4-3.8,0.5c0.5-1.5,0.6-3.2,1.5-4.3c0.8-1,2.3-1.6,3.6-2.1
	c7.1-2.8,14.5-5.3,21.5-8.3c13.3-5.6,26.9-10.1,41.2-11.6c13.3-1.3,26.9-0.8,40.4-1.2c1.3,0,2.7,0.2,4,0c13.1-2.2,26.1-1.3,39,1.7
	c14.2,3.3,28.4,7.1,42.7,10.2c13.1,2.9,26.4,3.1,39.7,1.1c12.6-1.9,24.6-6.2,35-13.3c12.3-8.5,23.8-18.2,35.6-27.5
	c0.9-0.8,1.5-3.4,0.9-4.3c-4.2-6.7-8.8-13.1-13.3-19.5c-3.9-5.7-5-5.9-10.6-2c-8.2,5.5-13,4.2-16.9-4.5c-0.3-0.7-0.7-1.4-1-2.1
	c-2.8-5-6.9-9.8-8-15.1c-1.6-8.3-5.8-15-9.3-22.2c-2.5-5.2-6.5-10.4-6.6-15.7c-0.2-9.3-3.9-17.1-7.6-25c-4.2-8.9-10.5-17.1-8.8-27.8
	c0-0.3,0.1-0.7,0-1c-0.8-2.4-1.4-4.4-4.9-4.1c-6.3,0.5-12.7-0.3-19,0.3c-3.8,0.3-7.8,1.5-11,3.5c-3.6,2.1-6.7,5.2-9.5,8.3
	c-9.1,9.9-20,16.5-33.2,18.9c-2,0.4-4.9-0.2-6.3-1.5c-13.5-12.3-26.8-24.9-40.1-37.5c-10.8-10.3-19.4-22.2-27.4-34.7
	c-9.4-14.8-18-30-25.1-46c-6.1-13.7-8.2-28.3-10.2-42.7c-1.1-8.1-1.7-15.6-8.3-21.3c-0.9-0.8-0.6-4.5,0.4-5.8c3.6-5,3.6-5.4-2-7.4
	c-1.2-0.4-2.3-1.3-3.4-2c0.8-1.3,1.3-3,2.4-3.9c3.1-2.4,6.6-4.3,9.7-6.7c11.2-8.7,21.3-18.7,33.7-25.9c17-9.9,34.8-16.9,54.1-20.5
	c13.2-2.5,26.7-3.3,39.3-8.8c3.5-1.6,4.7-3.8,5.8-6.9c2.1-5.8,4.4-11.5,6.5-17.3c3.2-8.8,10.6-13.8,17.4-19.1
	c7.8-6,16.4-10.6,27.4-10.3c7.1,0.2,14.5-3.1,21.7-5.1c6.1-1.7,12.1-3.6,18.2-5.5c0.9-0.3,1.9-0.6,2.8-1c-0.8-0.6-1.5-1.4-2.4-2
	c-7.3-4.6-14.4-9.3-21.8-13.6c-12.4-7.3-25-14.6-40-13.2c-7.9,0.8-15.6,4.2-23.5,5.8c-14.6,2.9-27.9,9-41.3,15
	c-14.9,6.7-30.1,12.8-44.6,20.3c-19.1,10-37.5,21.3-56.4,31.7c-11.5,6.3-23,12.7-35.1,17.8c-6.6,2.7-8.1,6.7-7.9,12.9
	c0.4,12.7,0.9,25.5,0.9,38.2c0,12.8-0.8,25.5-0.8,38.3c-0.1,8.1,0.8,16.2,0.8,24.4c0.2,16.4,0,32.8,0.1,49.2c0.1,5.3,0.6,10.7,1,16
	c1,16,2.2,31.9,2.9,47.8c0.4,9-0.1,18.1,0.3,27.1c0.8,19.2,1.9,38.3,2.8,57.5c0.5,11.6,0.7,23.2,1,34.8c0.4,21.6,0.7,43.3,1,65
	c0.1,9.9,0.1,19.8,0,29.7c-0.3,14.4-0.6,28.7-1,43.1c-0.3,10.4-0.6,20.7-1,31.1c-0.2,4.9-0.5,9.8-1.1,14.7
	c-1.2,9.1-2.8,18.2-3.9,27.4c-0.6,5.3-0.9,10.7-1,16.1C8,1008.7,8.3,1018.4,9.5,1028 M243,639.5c3.4-5.4,6.6-10.9,10.3-16.2
	c9.5-13.8,19.1-27.4,28.7-41.1c1.2-1.6,3.2-4.1,4.4-3.8c3.6,0.7,3-1.7,2.5-3.1c-1-2.7-2.1-5.8-4.1-7.8c-8.7-8.6-20.3-14-27.8-24.1
	c-2.2-2.9-5-2-6.9-0.8c-4.4,2.7-9,3.6-14.1,3.5c-7.4-0.2-21.2-9.8-18.9-19.2c1.5-6.4,0.1-10.6-5.6-14c-2.4-1.4-4.1-4.2-6.5-5.8
	c-2.9-2-6.4-3.2-9.3-5.1c-2.5-1.7-4.4-4.5-7.1-5.7c-6.6-3-11-8.1-12.4-14.7c-1.4-6.6-1-13.5-1.2-20.2c0-3.3,0-6.6,0.9-9.7
	c1.7-5.5,4.2-10.9,6.3-16.4c0.2-0.6,0.3-1.3,0.5-2c-0.6,0.2-1.3,0.5-1.9,0.7c-6,1.9-11.8,3.9-17.8,5.4c-7.8,2.1-15.7,4.1-23.7,5.6
	c-20.6,3.8-39.6,11.6-56.8,23.3c-9.3,6.2-17.6,14-26.3,21c-5.1,4.1-5.4,5.2-2.5,11c1.5,2.9,4.4,6.1,4,8.6c-1.3,7.7,4.4,11.1,7.7,16
	c6.8,10.2,14.5,19.9,20.4,30.6c7,12.8,12.3,26.5,18.9,39.6c10.8,21.7,22.9,42.6,37.6,62c6.2,8.1,11,17.4,16.8,25.9
	c1.3,1.9,4.5,4,6.5,3.8c3.8-0.5,8-1.9,11.1-4.3c6.4-4.8,12.3-10.5,18.3-16c6.5-5.9,13.7-10,23-9.5c5.4,0.3,10.8,0.1,16.2,0
	c1.3-0.1,3.7-1.2,3.6-1.5C236.8,649.5,242.4,645.9,243,639.5 M662,597.5c-1.7-4.4-4.1-8.8-4.8-13.4c-1.1-6.9-1.4-14.1-1.1-21.1
	c0.3-5.4-2.2-8.2-6.2-11.1c-8.6-6.3-17.1-13-25.2-19.9c-3-2.5-5-6.2-7.6-9.3c-0.6-0.7-1.8-1.1-2.7-1.6c0.2,1.2,0.2,2.4,0.6,3.4
	c2.6,6.4,5.7,12.7,7.8,19.3c1.6,4.9,1.9,10.2,2.8,15.3c1.4,7.9,3,15.8,4.3,23.7c0.2,1.3-0.6,2.8-1,4.2c-1.3-1.3-3.3-2.5-3.8-4
	c-5.6-18-6.8-37.2-14.1-54.7c-4.5-10.8-8.6-22.2-17.6-30.1c-5.9-5.2-13-8.9-21.5-4.8c-1.2,0.6-3.4-0.6-5.1-1
	c-1.2-0.3-2.9-1.3-3.7-0.8c-5.8,3.8-11.4,7.8-17,11.9c-0.4,0.3-0.5,0.9-0.8,1.4c0.5,0,1,0.2,1.5,0.1c0.9-0.2,1.7-0.7,2.6-1
	c1.1-0.3,2.3-0.4,3.4-0.6c-0.7,1.1-1.2,2.6-2.2,3.4c-4.8,3.7-7.1,8.9-5.6,14.6c3.6,13.5,7.3,26.9,11,40.4c0.7,2.6,1.5,5.1,1.9,7.7
	c0.1,1.1-0.8,2.3-1.3,3.4c-0.8-0.7-2-1.3-2.4-2.2c-1.2-3.2-2.4-6.4-3.2-9.7c-2.4-9.8-4.7-19.7-7.1-29.5c-0.3-0.9-1.2-1.7-1.9-2.5
	c-0.7,0.6-1.9,1.3-1.9,1.9c0.1,5.8-1.7,11.6,1.5,17.5c2.1,4,2.9,9,3.3,13.6c0.6,9.1-2,17.7-5.9,26c-0.5,1.1-0.4,2.6-0.6,3.9
	c1.1-0.7,2.3-1.5,3.4-2.2c0.3-0.2,0.5-0.5,0.7-0.7c3.7-3.8,6.1-3.7,9.5,0.8c0.5,0.6,1.4,0.8,2.1,1.2c0.1-0.7,0.3-1.4,0.2-2.1
	c-0.4-2.8-1.1-5.6-1.2-8.4c0-1.2,1.5-2.3,2.3-3.5c1.2,1,3,1.7,3.5,2.9c2.2,6.2,4.4,12.5,5.9,19c0.7,3,2.2,3.7,4.4,3
	c6.2-1.7,12.7-3.1,18.4-6c14.3-7.4,28.8-8.2,43.9-3.7c1.2,0.3,1.7,2.8,2.5,4.3c-1.1,0.5-2.2,1.4-3.3,1.4c-1.6,0.1-3.3-0.6-5-0.8
	c-0.5-0.1-1.5,0.4-1.5,0.6c1.5,10.3,3.2,20.6,4.8,31c1.4,9.6,1.7,19.5,4.3,28.7c2.7,9.6-2.3,17-5.4,24.7c-1.6,4-6.6,6.9-10.5,9.8
	c-2,1.5-4.9,1.8-7.4,2.6c2.4,1.4,4.9,2.7,7.2,4.3c6,4,12,8.1,17.9,12.2c15.5,11,30.9,22.1,46.5,32.9c1.3,0.9,4.1,1,5.6,0.2
	c1.9-1,3.7-2.9,4.7-4.9c3.3-6.8,6-13.9,9.2-20.7c2.8-6.2,7.2-11.9,8.6-18.4c3.8-16.7,11.4-31.8,20.2-46.1
	c6.2-10.2,14.5-19.1,22.1-28.4c3.3-4.1,7.1-7.7,10.5-11.7c0.5-0.6,0.6-2.5,0.2-2.8c-3.6-2.1-7.3-3.8-11.7-3.1
	c-1.9,0.3-4,0.5-5.7-0.1c-5-1.8-13.7,3.9-14.7-6.7c-0.1-0.4-1.3-0.7-2-1.1c-0.2,0.7-0.6,1.4-0.6,2.1c0.7,6.8-0.8,12.7-6,17.5
	c-2.6,2.4-5.7,4.5-7.4,7.4c-4.9,8.9-12.1,13.7-22.2,15.1c-7,0.9-10.6-1.5-10.4-8.8c0.1-3,0.6-6.1,1-9.1c0.3-2.1-0.3-2.2-2.1-1.3
	c-4.8,2.2-7.9,0.9-9.9-3.7C668,612.4,665,605.4,662,597.5 M606,385.5c-1.4-5.6-2.7-11.2-4-16.8c-1.6-7.1-2.2-7.5-9.3-6.7
	c-13.1,1.4-26.2,2.7-39.4,4c-8.7,1-17.6,1.3-26.2,3.2c-12.7,2.7-25.4,6-37.7,10.2c-12,4-24.5,7-35,14.6c-4.2,3.1-4.4,4-1,8
	c3,3.5,5.8,7.2,8.6,11c7.2,9.7,13.5,19.9,14.1,32.6c0.3,4.3,2.6,7,6.8,9.1c8.4,4.3,15.7,9.6,18.7,19.9c1.2,4.2,7.3,7,11.2,10.4
	c9.7-2.6,19.5-5.1,29.1-8c7.7-2.4,15.1-5.7,23.5-5c8,0.7,16.1,1.3,24.2,2.1c9.7,0.9,18.8,3.7,27.1,9.1c8.4,5.4,16.9,10.8,25.5,15.7
	c6.7,3.8,7.5,3,7.8-4.6c0.5-11.2-0.5-22.1-5-32.5c-3.5-8.2-6.3-16.8-10.6-24.6c-4.8-8.7-11.3-16.5-16.3-25.2
	C613.5,403.8,610,395,606,385.5 M574,614.5c0.6,8.4,1.1,16.8,2.1,25.2c0.4,4.2,1.8,8,7.6,5.4c1-0.5,2.8-0.5,3.4,0c1,1,1.6,2.6,1.7,4
	c0.1,0.6-1.3,1.7-2.2,1.9c-8.6,1.4-17.4,1.9-25.8,4.2c-14.8,4.1-29.5,8.2-44.9,9.9c-10.1,1.1-20.2,2.7-30.3,3.9
	c-5,0.6-10.2,0-15,1.2c-5.2,1.4-9.8,1.1-14.2-1.4c-4.5-2.5-8.8-5.3-13.2-8.1c-6-3.7-12.7-4.8-19.5-4.6c-4.4,0.2-8.8,1.2-13.2,1.9
	c-2.8,0.5-5.6,1-8.4,1.4c2.4,0.9,4.9,1.6,7.2,2.5c1,0.4,1.8,1.2,2.7,1.7c-1,0.5-1.9,1.4-2.9,1.4c-8,0.1-16-0.4-24,0.2
	c-8.1,0.5-16.3,1.5-23.5,5.8c-0.9,0.5-1.6,1.1-2.4,1.7c1.1,0.5,2.3,1.4,3.4,1.2c4.6-0.4,9.1-1.5,13.7-1.8c7.2-0.6,14.4-0.9,21.6-0.9
	c1.3,0,2.7,1.7,4.1,2.7c-1.4,0.7-2.8,1.9-4.3,2c-10.7,0.9-21.5,1-32.1,2.3c-5.8,0.7-11.3,3.1-16.9,4.9c-0.6,0.2-1.2,1-1.5,1.6
	c-0.1,0.2,0.8,1.2,1.4,1.3c3.3,0.4,6.7,1.2,10,0.9c13.7-1.1,27.3-2.6,40.9-3.7c1.4-0.1,3.6,1.5,4.2,2.9c0.4,0.8-1.3,3.6-2.5,4
	c-6.8,2.2-13.6,4.3-20.6,5.8c-9.4,2.1-18.7,4.6-26.8,10.2c-0.7,0.5-1.2,1.3-1.8,2c0.8,0.3,1.5,0.8,2.3,0.9c4.1,0.4,8.3,1.6,12.1,0.9
	c11.9-2.4,23.3-7.2,35.7-8.2c4-0.3,7.2-0.6,8.2,3.3c0.9,3.8-2.2,5.7-5.7,7.1c-8.4,3.4-16.7,7.1-25,10.8c-0.7,0.4-1.1,1.5-1.6,2.2
	c0.8,0.3,1.6,0.9,2.4,0.9c5.3-0.3,11.1,0.5,16-1.2c8.6-3.1,17.5-6.8,24.8-12.2c3.9-2.9,7.7-5.5,12-7.2c9.8-3.8,21-3.9,29.1-12
	c1.1-1,3.8-0.4,5.8-0.3c6.2,0.2,12.5,0.8,18.7,0.9c3.4,0,6.8-1.1,10.1-0.9c5.9,0.4,11.8,1.7,17.7,1.8c6.2,0.2,12.4-0.5,18.6-0.9
	c9.2-0.6,18.4-1.4,27.6-2c12.2-0.7,24.5-1.5,36.7-1.9c7-0.2,13.3-1.6,19-6c8.4-6.3,12.7-17.6,10.5-27.6c-2-9.8-3.6-19.6-5-29.5
	c-1.2-8.8-1.8-17.8-3.2-26.7c-0.3-1.9-2.7-4-4.6-5.2c-4.3-2.5-8.6-0.8-12.7,0.9c-8.2,3.4-16.1,7-24.4,9.9
	C570.7,608.1,570.5,607.7,574,614.5 M348.5,475c2.1,3.8,4.3,7.6,6.3,11.4c1.2,2.2,2.3,4.4,3.4,6.6c0.7-2.2,1.3-4.4,1.9-6.6
	c0.1-0.2,0.5-0.4,0.7-0.7c4.5-7.4,8.2-15.5,13.6-22.3c7.2-9.1,16.7-16.2,28.3-18.1c12.6-2.1,25.5-2.3,38.3-3.3
	c8.8-0.6,17.1,0.7,24.8,5.3c1.2,0.7,2.7,0.9,4.1,1.3c-0.2-1.3-0.5-2.6-0.7-3.8c-2.6-16.5-12.6-29.1-23.1-40.8
	c-7.1-7.8-16-14-24.4-20.6c-5.8-4.7-12-8.8-18-13.1c-0.7-0.5-1.6-0.7-2.4-1.1c-0.1,0.8-0.3,1.6-0.3,2.4c-0.4,6-0.6,12-1,18.1
	c-0.6,7.7-1.4,15.4-2,23.1c0,1,0.8,2,1.2,3c0.7-0.5,1.5-1,2.1-1.6c2.5-2.8,4.7-5.9,7.5-8.3c1.5-1.2,4-1,6-1.5
	c-0.6,1.7-0.7,3.8-1.9,5c-4.4,4.8-9,9.3-13.6,13.8c-3,3-6.6,2.2-8.3-1.6c-1.5-3.4-3.3-6.6-4.9-10c-1.8-3.7-3.5-7.5-5.1-11.3
	c-0.2-0.6,0.3-1.5,0.5-2.3c0.7,0.4,1.6,0.6,2,1.1c2.6,3.8,5,7.7,7.5,11.4c0.6,1,1.6,1.7,2.4,2.5c0.2-1,0.5-2.1,0.6-3.2
	c0.7-13.2,1.4-26.5,1.9-39.8c0-1.8-0.8-4.4-2.1-5.5c-10.7-8.3-21.6-16.2-32.2-24.6c-3.4-2.7-6.8-2.7-9.8-0.8
	c-7.7,4.8-15.3,10-22.6,15.3c-5.6,4.1-10.8,8.7-16.1,13.1c-7.2,5.9-10.6,6.3-3.4,17.9c4,6.6,6.1,14.1,6.1,21.9
	c0.1,3.8-1.4,7.7-2.1,11.5c-0.7,3.9,3.1,8.1,6.2,6.7c6.6-2.9,13-2.4,19.3,0.6c4.5,2.1,10.1,3.7,10.7,9.6c0.8,8.5-0.1,17-4,24.8
	c-1.9,3.8-1.7,7.2,0.6,10.6C347.2,472.1,347.5,473.4,348.5,475 M184,444.5c-0.1,0.8-0.1,1.6-0.4,2.4c-4.1,11.1-3.5,22.6-1.4,33.9
	c1.2,6.7,10.6,13.7,15.6,12.1c7.8-2.5,13.2,0.7,18.4,5.8c3,2.8,6.1,5.9,10.8,5.3c0.6-0.1,1.2-0.2,1.8-0.3c-0.3-0.5-0.7-1-1.1-1.4
	c-4.1-4.5-8.4-8.8-12.3-13.5c-1.5-1.8-2.2-4.3-3.2-6.5c2.4,1.2,4.8,2.4,7.2,3.7c0.2,0.1,0.4,0.5,0.6,0.7c3.9,4.2,7.7,8.5,11.8,12.5
	c1.9,1.9,4.3,0.9,4-1.4c-1-7.1,2.4-12.6,5.1-18.5c0.6-1.2,0.4-2.8,0.5-4.3c-1.5,0.9-3.3,1.4-4.4,2.6c-2.1,2.4-3.5,5.4-5.8,7.5
	c-1.3,1.2-3.7,1.3-5.7,1.9c-0.5-1.7-1.8-3.7-1.3-5.2c0.7-2.7,2.3-5.1,3.8-7.4c5.6-8.8,12-16.7,23-18.7c1.7-0.3,3.8,1,5.8,1.6
	c-0.8,1.6-1.5,3.3-2.5,4.8c-0.6,0.8-1.9,1.1-2.7,1.8c-0.5,0.6-0.7,1.4-1.1,2.1c0.9,0.1,1.9,0.5,2.7,0.2c1.8-0.6,3.4-1.6,5.1-2.1
	c8.6-2.8,17.2-4.9,24.5,3.1c0.5,0.6,2,0.4,3,0.5c-0.1-1.2,0.2-2.9-0.4-3.6c-3.3-3.9-4.1-8.5-3.3-13.1c1-5.6-1-6.6-6.1-6.2
	c-1.8,0.2-4.3-1.5-5.5-3.1c-0.6-0.8,0.3-3.6,1.3-4.9c7.1-8.9,15.3-16,27.4-16.8c1-0.1,1.9-1,2.8-1.6c-0.7-0.8-1.2-2-2-2.3
	c-4.3-1.7-8.3-4.4-13.4-2.2c-2.4,1.1-5.7,1.6-8.1,0.9c-9.8-2.6-17.5,0-23.6,7.8c-3.5,4.6-8.4,6.7-13.8,6.9c-4.1,0.2-8.2-1-12.3-1.4
	c-0.9-0.1-1.9,0.3-2.8,0.4c0.5,0.8,0.9,1.7,1.4,2.4c3.9,5.4,6.2,11,3.6,17.7c-3,7.8-5.9,15.5-9,23.3c-2.7,6.6-13.6,10.2-18.7,9
	c-2-0.5-5-2.3-5-3.6c-0.1-3.4,3.2-2,5.3-2.2c1.3-0.2,2.6,0.1,3.9-0.1c0.6-0.1,1.5-1.1,1.4-1.3c-1.1-2.9,0.6-4,2.9-5
	c9.4-4.2,12-12.9,13-21.8c1.2-9.8-2.6-18-10-24.8c-1.3-1.3-1.8-5.7-0.7-6.9c2.3-2.6,4.9-0.1,6.5,2c4.4,5.5,8.1,6.9,14.7,5
	c3.2-1,6.8-3.6,9.6-2.9c6.4,1.7,8-2.5,10.6-6.2c2-2.8,4.3-5.3,6.7-7.7c1.1-1,2.7-1.5,4.2,0.4c2,2.7,4.3,3,7.6,1.1
	c1.9-1.1,5.5-0.7,7.5,0.5c2.9,1.7,5.4,1.5,7.6-0.1c3.1-2.4,5.7-3.3,8.8-0.3c2.3,2.3,4.7,4.4,7.1,6.6c0.6,0.7,0.9,1.6,1.4,2.4
	c0.8-0.9,2.4-1.8,2.4-2.7c0.1-3.2-0.7-6.4-0.8-9.6c-0.4-11.7-5.3-20.7-15-27.2c-7.1-4.7-14.2-8.2-23-4.6c-8.5,3.5-17.1,6.3-25.7,9.2
	c-1.9,0.7-4,0.6-6.1,0.7c-4.3,0.2-9.2-0.8-13,0.9c-5.6,2.5-10.4,6.9-15.7,10.3c-9.1,5.8-13.2,14.9-16.5,24.6
	C190.1,426.3,190.2,436.1,184,444.5 M675,586.5c-1.2-2.9-2.3-6.3,1.3-7.9c1-0.5,4.6,2,5.2,3.7c3.8,9.6,8.2,19.1,7.6,29.9
	c-0.4,6.4-0.2,12.8-0.1,19.2c0,0.9,0.7,1.7,1.1,2.6c1-0.6,2.4-1.1,2.8-2c3.9-9.9,3.9-20.1,2.2-30.4c-0.7-4.4-0.9-9-1-13.5
	c0-1,1.6-2.6,2.7-2.9c0.9-0.2,2.9,1.1,3.1,2c1.5,8.4,3,16.9,4,25.4c0.7,6.1-0.9,11.9-4.1,17.2c-0.6,1.1-0.4,2.7-0.5,4
	c1.3-0.4,2.6-0.7,3.7-1.4c0.8-0.5,1.4-1.4,2-2.2c5.2-7.8,4.4-16.5,3.5-25.1c-0.7-6.7-1.9-13.3-2.3-19.9c-0.1-1.7,2.1-3.4,3.2-5.1
	c0.5,1.4,1.3,2.8,1.5,4.2c1.9,9.8,6,19.2,5.2,29.4c-0.1,0.8,0.9,1.6,1.5,2.3c0.5-0.6,1.4-1.1,1.6-1.8c0.8-3.1,1.8-6.3,1.9-9.5
	c0.4-10.5-4.4-19.6-8.1-29.1c-0.4-1.2-0.5-3.2,0.2-4c0.9-1,3.1-1.9,4.1-1.4c2.6,1.1,5.7,2.6,6.9,4.8c4,7.6,7.2,15.7,10.8,23.5
	c0.5,1.2,1.2,2.4,1.9,3.5c0.8-1,1.9-1.9,2.6-3c0.4-1,0.5-2.2,0.5-3.3c0.1-9.5-5-17-10.2-24.3c-2.8-4-5.3-8.1-11.8-7.6
	c-5.4,0.4-10.2-2.3-13.3-7.5c-2.3-4-4.6-8.3-7.8-11.5c-7.3-7.3-14.5-15-23-20.5c-11.7-7.6-24.8-13.2-37.1-20.1
	c-8.9-5-17.6-10.6-26.3-16.2c-9.4-6-20.1-8.4-30.8-9.8c-9.9-1.2-20.1-0.7-29.7,2.9c-3.2,1.2-7.5,1.6-7.9,6.1
	c-0.4,3.5-0.2,7-0.1,10.5c0.1,0.7,0.8,1.3,1.2,2c0.5-0.4,1.3-0.6,1.7-1.1c8.7-10.1,19.1-15.7,32.9-12.6c10.2,2.2,19,6.5,26.1,14.4
	c8.2,9.1,16.1,18.6,25.1,26.8c9.8,8.9,20.9,16.4,31.2,24.7c1.5,1.2,2.6,3.8,2.7,5.8c0.3,6.9,0.2,13.9,0,20.8c-0.1,5,2,9,4.2,13.3
	c3.7,7.1,6.6,14.6,9.9,21.9c0.5,1.1,1,2.2,1.5,3.3c0.8-1.3,2.3-2.6,2.4-4C681,604.1,680,595.3,675,586.5 M293.5,500
	c-6.9,7.9-15.1,13.3-25.7,15.1c-12,2-21.7-0.8-27.8-12.1c-0.3-0.4-1.2-1-1.3-0.9c-0.6,0.6-1.8,1.6-1.6,2c1.1,2.9,2.6,5.6,3.8,8.4
	c0.5,1.1,0.5,2.3,0.7,3.4c-1-0.3-2.1-0.4-3.1-0.9c-0.5-0.2-0.9-0.9-1.4-1.4c-2.8-2.6-5.2-2.7-7.1,1c-0.7,1.2-1.5,2.6-2.6,3.4
	c-4.8,3.5-5.9,9.1-3,14c4.2,7,10.7,8.9,18.1,7.9c3.5-0.4,6.8-2,10.2-3.1c-1.6-2.1-3.1-4.1-4.7-6.2c-0.3-0.4-0.9-0.7-1-1.1
	c-0.3-1.8-0.4-3.6-0.6-5.4c1.8,0.4,4,0.3,5.4,1.4c3.8,2.9,6.8,7.2,11,9.4c13.2,6.7,26.6,12.9,40.1,19c2.8,1.3,6.7,2.9,9,1.9
	c8.8-4.1,18.1-8.1,25.5-14.2c9-7.6,12.3-19.2,15.6-30.4c2-6.8,1.3-13.3-2.7-19.5c-2.9-4.5-5-9.6-7.3-14.5c-1.9-4.2-3.3-8.6-5.2-12.8
	c-0.6-1.2-2-2.1-3.1-3.1c-0.6,0.9-1,2-1.7,2.7c-3.4,3.3-6.8,6.5-10.2,9.7c-0.9,0.8-1.9,1.4-2.8,2.1c1,0.4,2.1,0.7,3.1,1.3
	c1.7,1,4.6,2.3,4.6,3.5c0.1,3.5-0.5,7.4-1.9,10.5c-0.9,1.9-4,2.7-6.1,3.9c0.1-1.8-0.1-3.8,0.4-5.6c1.6-5.2,0.9-6.1-4.3-7.5
	c-6.1-1.5-12.1-3.8-18.1-5.6c-1.4-0.5-2.9-0.7-4.4-1.1c0.6,1.5,0.9,3.2,1.9,4.5C300.5,486.3,300.2,493.3,293.5,500 M796,648.5
	c5.9-5.1,11.8-10.4,17.9-15.4c1.6-1.4,3.8-2.1,5.7-3.2c-1.6-1.1-3.3-2.2-4.7-3.5c-7.7-6.7-16.8-10.6-26.5-13.3
	c-5.6-1.6-11.6,0.3-14.1,4.1c-9.1,14.1-18.6,27.9-27.2,42.2c-8.2,13.6-15.4,27.6-23.1,41.4c-3.7,6.5-7.4,13-11.6,19.2
	c-3.3,4.7-7.5,8.8-11.2,13.4c-0.7,0.8-0.7,2.2-1,3.3c1-0.1,2.2,0,3-0.5c9.7-6.5,19.7-12.5,28.7-19.9c10.6-8.7,20.5-18.5,30.3-28.1
	c5-4.9,9.3-10.4,13.8-15.8C782.6,664.7,789,656.8,796,648.5 M485,512.5c-0.8-1.1-1.7-2.3-2.5-3.4c-0.5-0.7-1-1.4-1.6-2.1
	c-0.6,0.8-1.4,1.6-1.8,2.5c-2.5,5.5-4.2,11.4-7.2,16.5c-5,8.4-12.7,13-22.7,13c-3,0-6-0.8-9.1-0.9c-1.3,0-2.6,0.8-3.9,1.2
	c0.8,0.9,1.5,2.2,2.5,2.7c3.7,1.7,5.7,4.8,7.3,8.4c4.1,9.2,4.2,9.1,14,6.1c0.9-0.2,1.8-0.2,2.7-0.3c0,1.3,0.4,3.1-0.2,3.6
	c-2.8,2.3-5.7,4.6-8.9,6.1c-1.6,0.7-4.5,0.1-5.9-1c-1.9-1.3-2.9-3.8-4.3-5.8c-1,2.7-1.9,5.3-2.9,7.9c0,0.1-0.2,0.2-0.3,0.3
	c-4.6,6.4-9.5,12.2-18.2,12.8c-1,0.1-1.9,0.8-2.9,1.3c0.8,0.6,1.6,1.3,2.5,1.8c2.5,1.2,5.1,2.2,7.6,3.5c8.3,4.5,17.1,8.2,26.5,8.1
	c15.7,0,30.2-3.7,41-16.7c3.3-4,5.2-8,5.3-12.9c0-8.8,0.2-17.7-0.1-26.5c-0.1-6-2.4-11.4-6.5-15.8
	C492.2,519.6,488.8,516.3,485,512.5 M394,500.5c-1.7,5.7-3.3,11.3-5,17c-2.8,9.3-7.4,18.2-5.9,28.4c0.4,2.8,1.8,5.4,2.7,8.1
	c1.7-1.8,3.3-3.8,5.2-5.4c4.7-4,7.6-10.7,15.1-10.5c1,0,1.9,0.5,2.9,0.8c-0.6,1.1-1,2.7-1.8,3c-6.9,2.5-8.9,9.2-12.7,14.4
	c-0.8,1.1,0.5,3.7,0.9,5.6c1.8-0.5,4.5-0.5,5.5-1.7c4.5-5.7,8-12.3,13.1-17.4c13.5-13.8,23.1-30.6,35.2-45.5
	c0.3-0.4,0.5-1.1,0.8-1.6c-0.7-0.2-1.4-0.7-2.2-0.6c-5.2,0.1-7.2,4.6-9.7,7.9c-3.8,5-6.7,10.6-10.4,15.6c-1,1.4-3.6,1.5-5.4,2.3
	c-0.1-1.9-0.9-4-0.2-5.5c3.6-7.7,8.8-14.2,15.5-19.5c0.6-0.5,0.9-1.3,1.4-1.9c-0.8-0.3-1.6-0.7-2.3-1c-10.6-4.2-21.3-8.1-31.7-12.7
	c-6.1-2.6-8.7-1.3-9.1,5.6C395.7,490.4,394.6,495,394,500.5 M277.5,555c10,8.7,20.2,17.3,30.1,26.2c2.7,2.5,4.9,3.5,8.6,2.2
	c7.3-2.4,14.9-4.3,22.3-6.4c1-0.2,2.1,0.1,3.1,0.2c-0.4,0.7-0.8,1.5-1.4,2.1c-1.2,1-2.4,2.2-3.9,2.7c-6.6,2.1-13.3,4-19.9,6
	c-0.9,0.3-1.6,0.6-2.4,1c0.8,0.6,1.4,1.7,2.3,2c11.5,2.8,21.7,0,30.2-8.1c3.1-2.9,5.4-6.8,8.6-9.4c10.5-8.2,14.2-22.9,8-34.7
	c-2.2-4.4-5.1-8.6-7.7-12.8c-0.3-0.6-0.7-1.2-1-1.9c-0.5,0.7-1,1.3-1.4,2c-0.4,0.8-0.7,1.7-1,2.6c-3,8.6-6.6,16.7-15.8,20.7
	c-2.8,1.2-5.2,3.4-8,4.8c-6.9,3.6-13.6,8.7-21.7,7.6c-6-0.9-11.7-3.7-17.4-6.2c-5.2-2.3-10-5.5-15.2-8c-1-0.5-2.6,0-3.9,0
	c0.8,1.1,1.5,2.4,2.5,3.4C273.8,552.3,275.5,553.4,277.5,555 M662,736.5c-7-4.9-13.8-10-21-14.7c-1.4-0.9-4.5-0.7-6.2,0.1
	c-2.6,1.4-5,3.7-7,5.9c-7,7.4-14,14.8-20.5,22.5c-6.7,7.8-12.8,16.1-19.2,24.1c-0.3,0.4-0.6,0.9-0.8,1.4c0.6,0.1,1.3,0.3,1.9,0.2
	c2.9-0.6,5.7-1.7,8.6-1.9c11.8-0.6,23.3-2.7,34.3-6.8c15.1-5.6,30-12,45-17.8c2.8-1.1,1.2-1.9,0.3-2.5
	C672.4,743.6,667.4,740.3,662,736.5 M92,613.5c0.6,0.8,1.4,1.4,2,2.2c7.7,10.3,15,20.9,23.2,30.8c6.9,8.4,14.9,15.9,22.5,23.7
	c2.1,2.2,4.1,4.3,6.4,6.3c0.5,0.5,1.7,0.2,2.6,0.3c-0.2-0.7-0.4-1.4-0.7-2c-3.4-5.1-6.2-10.7-10.2-15.3c-13.9-16-23.8-34.5-33.7-53
	C93.5,586.8,87,565,74,546.5c-4.4-6.3-8.7-12.7-13.1-19c-0.4-0.6-0.9-1-1.4-1.4c-0.2,0.7-0.6,1.5-0.5,2.2c0.6,4.5,1.3,9.1,2,13.6
	c1.8,11.9,4.4,23.7,10.1,34.3C77.6,588.5,85,600.4,92,613.5 M535.5,553c-0.4-5.7-1.7-11.2-5.6-15.6c-0.9-1.1-3.1-2.6-3.9-2.2
	c-6.2,3-11.8,1.8-17.5-1.2c-0.7-0.3-1.6-0.4-2.4-0.6c0,0.8,0,1.6,0.1,2.4c0.9,4.4,2.6,8.9,2.6,13.3c0,6.7-1.1,13.3-1.8,20
	c-1.1,9.3-5.1,16.4-14.3,20c-0.8,0.3-1.1,1.7-1.7,2.6c0.8,0.4,1.6,1,2.4,1.3c3.8,1.2,7.8,2.2,11.5,3.5c3.8,1.4,7.4,4.2,11.2,4.3
	c8.2,0.1,14.4-4.4,17.6-12.1c4.2-10.1,9.5-20.3,3-31.5C536.1,556.2,536.2,554.8,535.5,553 M587,768.5c0.8-1.1,1.6-2.3,2.5-3.4
	c6.8-8.2,13.4-16.5,20.5-24.5c6.7-7.5,13.4-15.1,20.9-21.6c3.5-3,1-3-0.5-3.9c-7-4.1-14.6-7.4-20.8-12.4c-4.9-4-4.6-2.7-7,2
	c-2.6,5-3.5,9.5-1.2,13.9c1.6,3.1,1.2,5.3-0.5,7.5c-3.8,4.9-7.5,10-12,14.3c-8.3,8-17.1,15.5-25.9,23c-5.3,4.6-10.3,9.5-17.8,11.1
	c-7.6,1.7-14.8,4.6-22.1,7c-0.7,0.2-1.2,0.9-1.8,1.4c0.7,0,1.4,0.2,2.1,0.2c13.8-1.7,27.7-3.2,41.4-5.2
	C572.7,776.8,581.9,778.3,587,768.5 M261,490.5c9.5-0.6,14-7,16.8-15c0.9-2.4,0.8-5-3-6.7c-6.6-2.9-12.1-1-18.1,1.1
	c-9.1,3.2-16.1,15.9-12.7,25.2c2.3,6.1,5.3,12,12.1,13.8c8.9,2.4,17.5,0.2,24.4-5.2c10.7-8.3,13.8-9.9,7-25.5
	c-0.5-1.3-2.3-2.1-3.5-3.2c-0.3,0.8-1,1.5-1,2.3c0.1,11.4-13,18.4-22.2,19.6c-1.5,0.2-3.2-1.2-4.8-1.9
	C257.5,493.7,259,492.3,261,490.5 M548,636.5c-0.8-7.1,2.8-13.1,5.5-19.2c1.9-4.3,2.3-8.2,1.4-12.5c-0.2-1.1-1.7-1.9-2.6-2.8
	c-0.4,0.8-0.8,1.7-1.3,2.4c-0.8,1.2-1.7,2.4-2.4,3.6c-5.5,8.2-8.2,16.9-5.7,26.8c0.3,1.5-1,3.5-1.6,5.2c-1.8-0.8-4-1.3-5.2-2.7
	c-1-1.1-1-3.3-1.1-5c-0.1-4.7-0.1-9.4,0-14.1c0-3.6-0.5-6.9,2.9-9.9c3.2-2.7,5.3-6.7,7.5-10.3c0.8-1.5,0.4-3.6,0.6-5.5
	c-1.4,0.8-2.8,1.4-4.2,2.2c-1.4,1-2.8,2.1-4.2,3.2c-6.8,5.5-9.2,13.5-10.4,21.6c-1.7,10.7,1.2,22,12.8,27.6c1.5,0.7,2.6,2.4,4,3.5
	c1.2,0.9,2.8,2.5,3.9,2.3c6.7-1.1,13.2-2.6,19.8-4.2c0.9-0.2,2.1-1.2,2.2-1.9c0.2-3,0.2-6.1,0.1-9.1c-0.1-2.6-0.4-5.1-0.7-7.7
	c-1.4,2.4-2.9,4.8-4.3,7.2c-1.9,3.3-3.5,6.6-5.6,9.7c-0.6,0.9-2.6,0.8-3.9,1.1c0.2-0.9,0.1-2,0.5-2.8c2-4.7,4-9.4,6.3-13.9
	c3.3-6.4,7.5-12.5,3.4-20.2c-1.5-2.7-3.1-1.5-3.6-0.2c-3.5,9.5-6.8,19.2-10.1,28.8c-0.9,2.4-1.7,4.9-2.6,7.3
	c-3.6-1.7-2.1-5.1-2.4-7.9C547,638.6,547.6,638.1,548,636.5 M299.5,467c-2.1,0-5.2,1.1-2.7,2.8c3.5,2.5,8.6,4.5,12.6,3.9
	c7.4-1,13.3-5.8,18-11.7c2.8-3.4,3.7-10.1,1.6-12.4c-4.6-5.1-9.3-10.2-14.1-15.1c-3-3-6.6-3.6-10.5-1.5c-4.9,2.7-9.8,5.3-14.6,8.1
	c-0.9,0.5-1.7,2-1.7,3c0.1,3.9,0.4,7.7,0.9,11.6c0.8,5.7,3.6,8.4,7.6,7.2c8.9-2.8,16.7-6.7,17.7-17.6c0.2-1.5,2-2.9,3-4.3
	c0.9,1.8,2.4,3.5,2.6,5.3C320.8,456.2,310.6,467,299.5,467 M460,491.5c-1.3,1.3-2.8,2.5-3.9,3.9c-7,9.6-13.8,19.3-20.9,28.8
	c-3.1,4.3-2.3,7.5,2.6,8.8c6.7,1.9,13.4,1.6,19.4-1.8c10.5-6.1,15.1-15.9,15.7-27.7C473.2,497.9,466.1,491.1,460,491.5 M708,713.5
	c-0.2,1.5-0.4,3-0.6,4.4c1-0.9,2.4-1.7,3.1-2.9c5.9-10.6,11.9-21,17.4-31.8c6.3-12.3,12.5-24.6,21-35.8c6.9-9.2,12.8-19.2,19.1-29
	c1-1.5,1.2-3.4,1.8-5.1c-1.1,1.2-2.1,2.4-3.2,3.6c-4.6,5.3-8.9,10.8-13.8,15.7c-10.6,10.5-19.2,22.4-25.5,35.8
	C720.5,683,714.7,698.1,708,713.5 M432,541.5c-1.2-5-4.2-6.3-7.2-2.7c-6.8,8.1-13.3,16.4-19.7,24.8c-0.9,1.3-1.1,4.3-0.2,5.6
	c4,6.2,10.4,8.2,17.1,5.8c12-4.2,18.5-17.8,14.9-25.9c-0.5-1.1-1.4-2-2.2-3.1c-0.6,1.2-1.5,2.4-1.7,3.7
	c-1.7,11.4-4.8,15.8-14.8,19.3c-3.1,1.2-6.1,2.2-8.7-1c2.1-1.6,4.1-3.7,6.4-4.9c3.9-2,7.4-3.8,9.2-8.2
	C426.8,550.4,429.3,546.3,432,541.5 M377.5,487c4.3-5,8.4-10.2,13.1-14.9c2.1-2.1,5.3-4,8.7-2c2.4,1.5,4.4,2.1,7.3,1.1
	c1.3-0.4,3.5,1,4.9,2c3.6,2.4,6.8,5.3,10.3,7.8c1,0.7,2.6,0.5,4,0.8c-0.7-1.2-1.2-2.6-2.1-3.5c-2.7-2.5-5.6-4.8-8.2-7.4
	c-0.9-0.9-1.4-2.6-1.4-3.9s0.9-2.6,1.4-3.9c-1.7,0.6-3.4,1.3-5.1,1.9c-1,0.4-2.1,0.9-3.1,1c-3.7,0.1-7.5-0.5-11.1,0.1
	c-6.7,1.1-12.8,4.3-17,9.4c-10.4,12.5-16.1,26.6-15.4,43.3c0.3,7,3.9,12,7.2,17.4c0.1,0.3,0.7,0.5,0.8,0.4c0.4-0.2,1.1-0.7,1-1
	c-0.1-1-0.6-2-0.8-3c-1.4-7-4.5-14.2-3.6-20.8C369.6,503.5,374,495.6,377.5,487 M535,494.5c2.4-6,1.4-8.1-3.9-7.4
	c-4.8,0.7-9.5,1.9-14.2,3c-0.7,0.1-1.9,1.1-1.8,1.3c1.6,5.2,3.1,10.4,5.2,15.3c1.8,4.1,4.4,7.9,6.7,11.7c0.4,0.7,1.5,1.7,1.7,1.5
	c0.9-0.4,2-1.2,2.2-2.1C532.4,510.4,533.6,503,535,494.5 M479.5,479c-3.2-1.1-7.1-2.9-8.9,1.2c-1.4,3.1-1.4,6.6,1.7,9.9
	c5.7,5.9,10.7,12.5,16,18.7c0.7,0.8,1.7,1.3,2.5,1.9c0.4-1.1,1.5-2.7,1.1-3.4c-2.3-4.4-1.7-8.7-1-13.3
	C492.2,485.9,486.1,482.5,479.5,479 M418.5,454c-1.7-1-3.4-2.6-5.2-2.9c-15.3-1.9-25.8,6.6-35.5,16.7c-0.4,0.4-0.4,1.3-0.6,2
	c0.7-0.2,1.5-0.3,2.1-0.6c5.2-2.4,10.2-5.2,15.5-7c3.9-1.4,8.1-1.6,12.2-2.2c5.1-0.7,10.3-1.3,15.5-1.9c1.4-0.2,2.9-0.3,4.3-0.4
	c-1.3-0.5-2.7-0.9-4-1.4C421.5,455.8,420.2,455.1,418.5,454 M507,610.5c3.8,3.5,7.7,7,11.5,10.6c1.8,1.6,2,1.3,2.6-1
	c1.5-5.1,3.6-10.1,5.4-15.1c0.2-0.6,0.2-1.2,0.2-1.7c-0.5,0-1.1,0.1-1.7,0.2c-3,0.5-6,1.1-9,1.5c-5.5,0.8-10-1.8-14.7-4.1
	c-0.9-0.4-2-0.5-3-0.7c0.5,1.1,0.8,2.3,1.5,3.1C502,605.6,504.3,607.8,507,610.5 M389,482.5c-2.4-2.1-2.7-2.1-3.7,0.8
	c-3,8.2-6.2,16.4-8.7,24.8c-1.5,5.1-2,10.5-2.5,15.9c-0.1,1.2,1.5,2.6,2.3,3.9c0.9-1,2.3-2,2.5-3.2c1.2-6,1.9-12.2,3.2-18.2
	c1-4.8,2-9.8,4.3-14C388.1,489.5,389.2,486.8,389,482.5 M460.5,452c-3.3-1-6.5-2.7-9.8-2.8c-8.5-0.4-17.1-0.2-25.6-0.1
	c-1,0-2,0.8-3,1.3c0.9,0.9,1.6,2.1,2.7,2.5c1.1,0.5,2.6,0.2,3.9,0.1c10.6-0.9,20.7,1.3,30.9,3.9c2.1,0.5,4.7-0.6,7-1
	c-1.6-1.2-3.2-2.3-4.8-3.5C461.7,452.3,461.6,452.1,460.5,452 M342,434.5c-4.6-3.8-9.7-6.4-15.8-6.4c-1.3,0-2.6,0.7-4,1.2
	c1,0.8,1.9,2,3,2.4c7.3,2.6,11.2,8.2,13.1,15.3c0.7,2.2,0.4,4.8,0.7,7.2c0.2,1.3,1,2.5,1.5,3.8c0.7-1,2-2.1,2-3.1
	C342.5,448.4,342.2,442,342,434.5 M458,479.5c-6.6-5.6-13.2-11.2-19.9-16.7c-0.8-0.7-2.6-0.3-3.9-0.4c0.4,1.2,0.5,2.8,1.4,3.6
	c3.5,3.1,6.9,6.3,10.8,8.8C450,477.1,454.1,478.6,458,479.5 M457,461.5c-0.1,0.6-0.4,1.6-0.2,1.7c3.7,2.4,7.2,5.6,11.2,6.5
	c3.5,0.8,7.7-1,11.5-1.7c-1.8-1.8-3.6-3.5-5.3-5.3c-0.4-0.4-0.4-1.2-0.8-1.7c-0.4-0.4-1-0.7-1.5-1c-0.3,0.7-0.9,1.3-0.9,1.9
	c0.1,5-2.1,3.3-4.7,2C463.5,462.6,460.4,462,457,461.5 M488,477.5c1.6,0.5,3.2,1.5,4.7,1.4c2.3-0.2,5.1-0.8,2.3-4.2
	c-3.5-4.1-6.9-8.4-10.5-12.6c-1-1.1-2.4-2-3.8-2.7c-0.7-0.4-1.8,0-2.7,0.1c0.4,0.7,0.5,1.5,1,2c2.1,2.2,4,4.6,6.4,6.3
	C488.8,470.2,489.9,473.1,488,477.5 M500,504.5c0-0.6,0-1.3,0-2c-0.4,0.4-0.9,0.7-1,1.1c-0.3,1.4-1.1,3.4-0.5,4.3
	c2.5,3.6,5.3,7.1,8.4,10.4c1.2,1.2,3.3,1.5,5.1,2.3c-0.7-2.1-0.9-4.5-2.2-6.1C507,511.1,503.6,508.2,500,504.5 M473,613.5
	c0,0.5-0.1,1,0,1.5c0.1,1.3,0.3,2.7,0.4,4c0.9-0.9,2.3-1.8,2.5-2.8c0.6-4.3,1.3-8.8,0.9-13c-0.3-2.7-2.9-4.8-6.2-4.1
	c-0.5,0.1-1.1,1.8-1.1,1.8C473.6,603.9,473.1,608.3,473,613.5 M510,503.5c-2-4.8-3.9-9.7-6.1-14.4c-0.4-0.9-1.8-1.2-2.7-1.8
	c-0.4,0.8-1.4,1.9-1.1,2.4c2.4,5.2,4.9,10.3,7.6,15.4C507.8,505.2,509.2,504.7,510,503.5 M536,517.5c-0.4,3.7-0.7,7.3-1,11
	c-0.1,0.7,0.2,1.5,0.3,2.3c0.7-0.5,1.9-1,2-1.7c1-5,1.8-10.1,2.7-15.2c-0.7-0.1-1.8-0.4-1.9-0.2C537.4,514.7,537,515.9,536,517.5
	 M205,501.5c1.6-0.1,3.3-0.3,5-0.5c-1.5-1.3-2.8-2.9-4.5-3.9c-0.8-0.5-2.2-0.2-3.4,0c-1,0-2.1,0.3-3.1,0.5c0.8,0.8,1.5,1.8,2.5,2.4
	C202.3,500.5,203.5,500.7,205,501.5 M251,639.5c-0.3-1.1-0.5-2.3-0.7-3.5c-0.9,1-2.2,1.8-2.6,2.9c-0.6,1.8-0.9,3.8-0.6,5.6
	c0.2,1,1.8,1.7,2.7,2.5c0.4-0.8,1-1.7,1.1-2.5C251.1,643.2,251,641.8,251,639.5 M521,526.5c-0.4-2.3-0.6-4.6-1.1-6.9
	c-0.1-0.6-1.1-0.9-1.6-1.4c-0.8,1-2.2,2.1-2.2,3c0.2,2.1,0.9,4.2,1.8,6.1C518.1,527.7,520.3,527.1,521,526.5 M428,463.5
	c-1.6-0.4-3.2-0.8-4.7-1.2c0.6,1.4,1.2,2.9,1.9,4.4c0.2,0.4,0.6,0.8,1,1c1.8,0.8,3.6,1.5,5.4,2.2c-0.5-1.5-1.1-3-1.7-4.5
	C429.6,464.9,429,464.5,428,463.5 M457.5,472c0.6,0.6,1,1.4,1.7,1.7c1.6,0.6,3.3,0.9,4.9,1.3c0.2,0,0.6-0.6,0.9-0.8
	c-1.2-0.8-2.3-1.8-3.7-2.2C460,471.6,458.7,468.3,457.5,472 M543.5,699c-1.2,1.7-2.4,3.3-3.5,5c-0.1,0.1,0.4,0.6,0.6,0.9
	c1.3-1.3,2.6-2.5,3.8-3.9C544.7,700.6,544.5,699.7,543.5,699 M560,599.5c-0.5-0.8-0.9-1.6-1.4-2.3c-0.2,0.9-0.7,1.9-0.6,2.9
	c0.3,1.6,0.9,3.2,1.3,4.8C559.6,603.4,559.8,602,560,599.5 M445.5,481c-0.5-0.6-0.9-1.5-1.5-1.9c-0.4-0.2-1.2,0.4-1.9,0.6
	C442.9,480.1,443.7,480.6,445.5,481 M428,457.5c0.7,0.2,1.4,0.5,2.2,0.5c0.5,0,1.1-0.3,1.7-0.4c-0.7-0.2-1.3-0.4-2-0.6
	C429.5,457,429,457,428,457.5 M448,481.5c-0.2-0.1-0.4-0.2-0.6-0.4C447.4,481.4,447.4,481.7,448,481.5"/>
<path d="M407,43c0.1-1.3,0.1-2.7,0.3-2.7c4-0.5,8.1-0.9,12.1-1.3c1.2-0.1,2.6,0.4,3.6,0c9.5-4.3,14.7-1.7,15.9,8.5
	c0.5,4.9,0.3,10,0,15c-0.1,1.2-1.8,2.3-2.7,3.5c-0.8-1-2-2-2.1-3.1C433.5,59,433.3,55,433,51c-0.1-1.5,0.3-3.1-0.1-4.5
	c-0.6-1.6-1.9-3-2.9-4.5c-1.4,1.9-3.6,3.6-3.8,5.6c-0.6,5.1,0,10.3-0.4,15.5c-0.1,1.7-1.8,3.3-2.8,4.9c-1-1.6-2.7-3.2-2.9-5
	c-0.7-5.1-0.6-10.4-1.2-15.5c-0.2-1.3-1.9-2.3-2.9-3.5c-0.6,1.5-1.8,2.9-1.9,4.4c-0.3,4.1-0.1,8.3-0.1,12.4c-0.1,1.1,0,2.6-0.7,3.2
	c-1.1,1.2-2.7,1.9-4.1,2.8c-0.4-1.8-1.1-3.5-1.2-5.2C407.5,55.6,407.3,49.5,407,43"/>
<path d="M450,67c-1.4-0.9-2.8-1.8-2.9-2.9c-0.5-7.1-0.6-14.4-1.2-21.5c-0.3-3.4,1-4.1,3.8-3.6c3.8,0.7,7.5,1.4,11.2,2
	c1.5,0.2,3.4,0.6,4.4-0.1c2.6-1.6,5.4-3.1,7.8-0.8c2.1,2.1,4.2,5,4.7,7.8c1,5.2,1,10.7,1.1,16c0,1.4-1.4,2.8-2.2,4.1
	c-0.9-1.4-2.4-2.7-2.6-4.2c-0.9-5.3-1.4-10.7-2.2-16.1c-0.2-1-1.3-2.2-2.2-2.5c-0.7-0.2-2.5,0.8-2.6,1.4c-0.8,4.4-1.6,8.7-1.8,13.1
	c-0.2,2.9,0.6,5.8,0.6,8.7c0,0.9-1.4,1.7-2.1,2.6c-0.9-0.7-2.2-1.3-2.4-2.2c-0.8-2.3-1.2-4.6-1.4-7c-0.2-3.8,0.4-7.7-0.2-11.4
	c-0.3-1.9-2.3-3.6-3.5-5.4c-1.1,1.9-2.9,3.7-3.2,5.7c-0.5,3.7,0.1,7.6-0.2,11.4C452.7,63.8,451.3,65.4,450,67"/>
<path d="M913.7,212.3c-2.5-1.6-4.7-2.9-6.9-4.3c-0.3,2.7-0.3,5.4-0.9,8c-0.4,1.5-1.8,2.7-2.8,4c-1-1.2-2.8-2.4-3-3.8
	c-0.9-8-1.5-16-2.1-24c-0.2-2.8,0.4-4,3.8-3.3c3.2,0.7,6.6,0,9.9,0.2c5.7,0.3,8.4,5.2,4.9,9.6c-3.2,4.1-3.7,6.7,1.1,9.9
	c2.1,1.4,3,4.6,4.2,7.1c0.3,0.5-0.5,1.5-0.8,2.3c-1.1-0.4-2.3-0.5-3.1-1.2C916.5,215.5,915.3,214,913.7,212.3 M913,194.5
	c-1.2-0.1-2.9-0.8-3.6-0.2c-1.4,1.3-2.4,3.1-3.3,4.8c-0.3,0.4,0.4,1.3,0.6,1.9c1.3-1,2.6-1.8,3.7-2.9
	C911.2,197.2,911.8,196,913,194.5"/>
<path d="M608.7,194.3c-0.8,1.4-1.9,3.1-2,4.9c-0.2,3.4,0.5,6.9,0.1,10.3c-0.1,1.3-2.1,2.3-3.2,3.5c-0.9-1.2-2.5-2.5-2.5-3.8
	c0.1-7.7,0.5-15.4,1-23c0-1.1,1.2-3.1,1.6-3c1.8,0.3,4.4,0.8,5.1,2c2.8,4.7,4.8,9.7,7.2,14.5c0.8,1.8,1.7,3.5,2.6,5.2
	c0.5-2,1.2-3.9,1.3-5.9c0.2-4.4-0.2-8.8,0.2-13.2c0.2-1.3,2-2.5,3.1-3.8c0.6,1.6,1.7,3.1,1.7,4.6c-0.1,6.7-0.5,13.4-1,20.1
	c-0.1,1.5-1.1,4-2,4.1c-1.8,0.3-4.8-0.1-5.7-1.3c-2.5-3.5-4.2-7.5-6.2-11.4C609.5,197,609.3,195.7,608.7,194.3"/>
<path d="M662,137c0-3-0.1-5.5,0-8c0.1-1,0.8-2,1.3-3c1.2,0.7,3.2,1.2,3.5,2.2c1.1,3.3,1.8,6.7,2.1,10.1c0.6,5,0.6,10.1,1.1,15.1
	c0.4,3-0.8,4.9-3.4,5.2c-0.6,0.1-2.1-3-2.5-4.9c-0.7-2.7-0.5-5.7-1.3-8.5c-0.3-1-2.2-1.9-3.5-2.1c-2.9-0.4-4.7,1.5-5.2,4.1
	c-0.4,1.9,0.2,4-0.2,6c-0.3,1.4-1.6,2.5-2.4,3.8c-1.2-1.1-3.2-2.2-3.4-3.5c-0.9-7.8-1.6-15.7-2-23.6c-0.1-1.2,1.2-2.6,1.9-3.9
	c1.3,1.2,2.8,2.2,3.9,3.5c0.7,0.9,0.8,2.3,1.1,3.5C654.3,139.8,655.3,140.3,662,137"/>
<path d="M218,65c-6.3-0.1-7.9-5.9-11.9-8.4c-1.8-1.2-3.3-2.8-5-4.2c0,2.3,0.2,4.8-0.2,7.1c-0.4,2.3-0.9,5.3-3.8,5.3
	c-1.1,0-2.9-2.9-3-4.6c-0.3-5.9,0.1-11.9-0.2-17.9c-0.1-3.8,0.2-6.8,5-6.7c1.1,0,2.2-0.7,3.3-0.5c3.2,0.6,7.8,0.4,9.2,2.4
	c2,2.9,0.8,7-2.2,10.1c-0.7,0.7-0.2,3.5,0.6,4.6c2.1,2.5,5,4.3,6.9,6.9C217.9,60.6,217.9,63,218,65 M201.5,46
	c1.8-1.4,3.7-2.9,5.4-4.4c0.1-0.1-0.8-1.6-1-1.5c-1.8,0.5-3.7,0.9-5.1,1.9C200.3,42.3,200.9,44.3,201.5,46"/>
<path d="M862,202c0.3,3.6,1,6.6,0.8,9.6c-0.1,1.5-1.8,3-2.9,4.4c-0.9-1.3-2.3-2.5-2.8-4c-0.7-1.9-1.2-4.1-1-6
	c0.3-3.2-1.5-3.6-3.4-2.8c-1.8,0.6-3.7,2.1-4.6,3.7c-0.7,1.5,0.3,3.8-0.2,5.4c-0.6,1.8-2.1,3.2-3.2,4.7c-0.9-1.4-2.4-2.7-2.6-4.2
	c-0.6-4.6-0.8-9.3-1.1-14c-0.3-3.6-0.8-7.1-0.9-10.6c-0.1-1,1-2.1,1.6-3.2c1.1,0.7,2.8,1.2,3.2,2.2c1,2.4,1.1,5.1,2.2,7.5
	c0.6,1.4,2.5,3.3,3.5,3.1c1.6-0.4,3.6-1.9,4.2-3.4c0.7-1.9,0-4.3,0.3-6.4c0.1-1.1,1.1-2.6,1.9-2.8s2.6,0.8,2.9,1.7
	c0.7,2.1,0.8,4.3,1.1,6.5C861.3,196.1,861.6,198.8,862,202"/>
<path d="M282.7,38.3c0.6,7.5,1.1,14.7,1.1,21.9c0,1.3-1.9,2.6-2.9,3.8c-1-1.3-2.3-2.5-2.8-3.9c-0.5-1.4,0.3-3.2-0.2-4.4
	s-2.2-2.6-3.2-2.5c-1.3,0.1-3.2,1.4-3.6,2.5c-0.5,2,0.2,4.4-0.2,6.4c-0.3,1.1-1.9,2.7-2.9,2.7s-2.8-1.6-2.9-2.6
	c-0.3-4.5-0.1-9-0.1-13.5c0-3.4-0.1-6.8,0.1-10.1c0-0.9,1-1.7,1.6-2.6c1.1,0.9,2.6,1.6,3.2,2.7c0.7,1.5,1,3.3,1,5
	c0,3.1,1.8,3.8,4.1,3.2c0.9-0.3,1.8-2.1,1.9-3.2c0.1-1.7-0.8-3.4-0.8-5.1c0.1-1.8,0.8-3.6,1.2-5.4c1.5,1,3,2,4.5,3.2
	C282.2,36.7,282.2,37.5,282.7,38.3"/>
<path d="M859,164c-7.3,1.1-11.4-2.4-12-11.6c-0.2-3.6,0.1-7.3,0-10.9c-0.2-3.5-0.4-7.1,4.4-7.4c3.2-0.2,6.8-0.7,9.4,0.6
	c3.4,1.6,3.7,5.1,2.4,9c-0.8,2.2-0.5,5.2,0.5,7.3C866.3,157,865.3,160.5,859,164 M854,150.5c-0.3,0-0.6,0-0.9,0
	c0.3,0.1,0.6,0.3,0.9,1c0,1.7-0.4,3.5,0.1,4.9c0.5,1.4,2.1,2.4,3.2,3.6c0.8-1.8,2.6-3.8,2.4-5.6C859.3,151.7,857,150.3,854,150.5
	 M857.5,142c1-2.5,1.2-4.9-2.5-3.8c-1.1,0.4-1.5,3.3-2,5.2c-0.1,0.8,0.4,1.7,0.6,2.6C854.7,144.9,855.8,143.7,857.5,142"/>
<path d="M521,60c-0.4,0.7-0.6,1.4-1,2.1c-0.8,1.3-1.7,2.6-2.5,3.9c-1.2-1.3-3.3-2.5-3.4-3.9c-0.3-6.6-0.6-13.4,0.2-19.9
	c0.3-2,4.2-4.4,6.8-5c3.8-0.8,8.7-1,9.7,4.4c0.5,2.2-0.7,5.3-2.2,7.1c-4.3,5-4.4,4.7,1.1,8.6c2,1.4,3.7,3.3,5.2,5.2
	c0.6,0.9,0.3,2.5,0.4,3.8c-1.3-0.1-2.7,0.1-3.8-0.3c-1.4-0.7-2.5-2-3.9-2.8c-2-1.1-4.1-2.1-6.4-3.4c-0.3-0.7-0.4-1.1-0.5-1.5
	c-0.2,0-0.4,0.1-0.6,0.2C520.4,59,520.7,59.5,521,60 M526,43.5c-1.9-2.8-3.6-1.1-4.4,0.6c-0.6,1.3-0.1,3.3,0,4.9
	c1.1-0.9,2.3-1.9,3.4-2.9C525.4,45.7,525.6,45.1,526,43.5"/>
<path d="M826.2,155.3c1.4-5.8,2.4-11.3,3.9-16.8c0.4-1.7,2.2-3,3.4-4.5c0.8,1.5,2.2,2.9,2.4,4.4c0.6,6.7,0.8,13.4,1,20.1
	c0.1,2-0.3,4.1-1.1,6c-0.3,0.8-2.1,1-3.2,1.5c-0.4-1-0.8-2-1-3c-0.1-0.6,0.4-1.2,0.4-1.8c-0.1-1.7-0.2-3.3-0.3-4.9
	c-1,1.2-1.9,2.8-3.2,3.6c-2.1,1.3-4.5,3.1-6.6,2.9c-4.2-0.3-5.3-4.5-5.7-7.6c-1-5.9-1-12-1.1-18c0-1.1,1.4-2.1,2.1-3.2
	c0.9,0.9,2.2,1.6,2.7,2.7c0.7,1.5,0.9,3.3,1.1,5c0.4,4.4,0.6,8.7,1,13.1c0.2,1.1,1.1,2.1,1.6,3.2
	C824.4,157.2,825.2,156.4,826.2,155.3"/>
<path d="M611,124c4,3.3,3.5,7.3,1.9,11c-1.6,3.6-1,6.4,1.6,9.1c0.5,0.5,1.3,1.1,1.4,1.8c0.7,3.4,1.2,6.7,1.7,10
	c-2.2-2.3-4.6-4.4-6.6-7c-2-2.7-3.5-5.8-5.4-8.7c-0.3-0.5-1.3-0.8-1.9-1.2c-0.3,0.7-0.7,1.4-0.7,2.1c-0.1,3.2,0.3,6.4-0.2,9.5
	c-0.2,1.3-2.1,2.3-3.2,3.4c-0.9-1.1-2.5-2.1-2.5-3.3c-0.2-6.4-0.3-12.9-0.1-19.4C597.2,125.3,604.3,121.6,611,124 M606.5,135
	c0.5-0.9,1.3-1.8,1.4-2.9c0.2-1.2-0.2-2.6-0.3-3.9c-1.2,1.3-2.8,2.5-3.5,4.1C603.1,134.5,603.6,135,606.5,135"/>
<path d="M785,137c-3.3,4.7-4.9,8.6-1.1,13.7c2,2.9,2.3,7.1,3,10.7c0.2,1.1-1.1,2.4-1.7,3.6c-0.7-0.8-1.8-1.6-2.2-2.6
	c-2-4.5-3.8-9.1-5.8-13.6c-0.5-1-1.5-1.9-2.2-2.8c-0.4,1.1-0.9,2.2-1,3.3c-0.1,2.4-0.1,4.7,0,7c0.2,2.7-0.3,5.3-3.3,5.4
	c-0.8,0.1-2.4-3.4-2.4-5.3c-0.1-6.4,0.5-12.8,0.7-19.2c0.1-5,2.9-8,7.9-8.2C782.7,128.9,784.6,130.6,785,137 M774,141.5
	c4.2,1.6,3.9-2.3,4.9-4.3c0.3-0.7-0.6-2.1-1-3.2c-1.3,1.7-2.6,3.3-3.9,5.1C773.8,139.4,774,140,774,141.5"/>
<path d="M57.2,31.3c4-0.3,7.7-0.4,11.4-0.2c0.8,0.1,1.6,1.3,2.4,1.9c-1,0.7-1.8,1.6-2.9,2c-1.8,0.5-3.7,1.1-5.5,0.9
	c-5.1-0.5-5.1,2.7-4.5,5.9c0.6,3.8,3,3.9,6.2,2.6c1.2-0.5,3.1,0.7,4.7,1.2c-1,1.1-1.8,2.5-3,3.4c-1.2,0.8-2.8,1.4-4.2,1.7
	c-3.6,0.8-3.2,3.6-2.6,5.7c0.3,1.2,2.6,1.9,4.1,2.6c1.5,0.7,3.1,1.1,4.7,1.6c-1.5,1.1-2.9,2.9-4.6,3.3c-8.3,2.1-11.2-0.6-11.5-9.5
	c-0.2-6.1-1.5-12.1-1.8-18.2c0-1.3,1.8-3,3.2-4.1C54.1,31.4,55.7,31.7,57.2,31.3"/>
<path d="M503.2,129.8c1.2,3.5,2.1,6.8,3.2,10c0.3,1.2,1.3,2.1,2,3.2c0.5-1.3,1.4-2.5,1.5-3.8c0.2-3.9,0.1-7.9,0.1-11.9
	c-0.1-2.3-0.1-4.8,3.1-4.1c0.8,0.2,1.9,2.5,1.8,3.7c-0.5,7-1.1,13.9-2,20.8c-0.5,4.1-2.9,4.4-5.2,1.4c-2.1-2.8-3.6-6.1-5.3-9.2
	c-0.4-0.6-0.8-1.1-1.1-1.7c-0.4,0.7-1.2,1.3-1.2,2c-0.1,1.9,0.2,3.8,0.3,5.8c0.2,1.7,0.7,3.5,0.5,5.2c-0.1,1-1.1,2.3-2.1,2.7
	c-0.6,0.2-2.1-0.6-2.7-1.4c-0.7-0.8-1-2-1.1-3c-0.2-7.1-0.5-14.3-0.5-21.4c0-1.4,1.1-3.9,1.4-3.9c2,0.4,4,1,5.6,2
	C502.4,126.8,502.5,128.4,503.2,129.8"/>
<path d="M918,150c-2.7,1.7-5.5,2.6-8,4.1c-1.3,0.8-2.7,2.4-2.8,3.8c-0.1,0.9,1.9,2.2,3.1,3.1c0.4,0.3,1.3-0.1,1.9,0
	c1.9,0.5,3.9,1.1,5.8,1.6c-1.8,1.4-3.3,3.3-5.3,4c-6.5,2.3-11.3-1.4-11.8-8.2c-0.4-6.9-1.4-13.8-1.8-20.6c-0.1-1.2,1.6-3.6,2.5-3.6
	c4.5,0,9,0.4,13.5,0.9c0.7,0.1,1.8,1,1.8,1.4c-0.1,0.9-0.7,2-1.4,2.4c-1.2,0.6-2.7,1.3-4,1c-4.6-0.7-5.2,2.9-5.3,5.5
	c-0.2,4,3.4,2.2,5.5,2.6C913.8,148.5,915.9,149,918,150"/>
<path d="M83.2,62.3c-3.6,1.9-5.2-0.1-5.1-2.9c0.3-7.1,0.9-14.1,2.1-21.1c0.4-2.4,2.7-4.6,4.6-6.5c2.3-2.1,7.1-1.1,8.1,2.1
	c2,6.9,3.5,13.9,5,20.9c0.2,0.9-0.4,2.1-1,3c-0.6,0.9-1.7,1.4-2.5,2.1c-0.5-1-1.1-1.9-1.4-2.9c-0.4-1.8-0.6-3.7-1-5.6
	c-0.8-3.3-3.5-4.2-6-3.2c-1.4,0.7-2.5,3.5-2.8,5.5C82.8,56.4,83.4,59.2,83.2,62.3 M89,42.5c0-1.7,0-3.4-0.2-5c0-0.2-2.3-0.5-2.5-0.1
	c-0.7,1.3-1.2,2.9-1.1,4.4C85.2,42.3,87.3,42.6,89,42.5"/>
<path d="M106.7,50.3c-0.7-3.7-2.2-7.4-1.4-10.5c0.8-3,3.6-5.9,6.3-7.6c1.8-1,5.3-0.6,7.2,0.5c2.9,1.6,4.1,5.3,2.1,8
	c-4.5,6,0.6,9.8,2.6,14.3c0.2,0.4,0.9,0.7,1,1.1c0.2,1.8,0.3,3.6,0.5,5.4c-1.7-0.7-4.1-1-5.1-2.2c-1.7-2.3-2.5-5.3-4-7.8
	c-0.6-1-1.9-1.7-2.8-2.5c-0.4,1.1-1.1,2.2-1,3.2c0.1,2.4,0.8,4.7,0.8,7.1c-0.1,1.2-1.3,2.5-2,3.7c-1.3-1.2-3.5-2.2-3.7-3.5
	C106.6,56.6,107,53.5,106.7,50.3 M112.5,43c0.8-0.6,2.1-1,2.4-1.8c0.5-1.3,0.3-2.8,0.5-4.2c-1.2,1-2.6,1.7-3.6,2.9
	C111.4,40.4,111.9,41.6,112.5,43"/>
<path d="M379,53c0.3-4.3,0.5-8.2,1.1-12c0.2-1.4,1.6-2.7,2.4-4c0.8,1.7,2.2,3.3,2.4,5c0.3,3.6,0.1,7.3,0.1,11c0,1-0.4,2.2,0.1,2.9
	c0.8,1.5,2.2,2.8,3.3,4.1c0.9-1.1,2.3-2.1,2.5-3.3c0.6-4.4,0.6-9,1.1-13.5c0.2-1.8,1.1-3.5,1.7-5.2c1.4,1.6,3.9,3.1,4.1,4.8
	c0.8,7.6,0.9,15.3,1.1,23c0,1.1-1.4,2.2-2.1,3.2c-0.8-0.7-1.6-1.5-2.5-2.1c-1.1-0.7-2.4-1.8-3.6-1.8C382.3,64.8,379.6,62.2,379,53"
	/>
<path d="M310.7,57.3c0.3,1.1,0.6,2,0.2,2.7c-0.8,1.6-2,3.1-3,4.6c-1-1.5-2.1-2.9-2.9-4.5c-0.6-1.4-0.4-3.2-1.1-4.5
	c-0.5-1.1-2.3-2.6-2.7-2.4c-1.3,0.6-2.7,1.8-3.1,3.1c-0.5,1.7,0.4,3.8-0.3,5.4c-0.5,1.4-2.3,2.2-3.5,3.3c-0.8-1.2-2.3-2.4-2.2-3.6
	c0.4-7.4,1-14.8,2.1-22.1c0.2-1.9,2.6-4.8,4.1-5c2.1-0.1,5,1.4,6.6,3.1C310.2,42.8,308.6,50.5,310.7,57.3 M299,40.5
	c0,0.5-0.1,1,0,1.5c0.4,2,0.9,4,1.5,5.9c0.1,0.2,1.5-0.1,2.3-0.1c-0.3-2-0.4-4-0.9-5.9C301.6,41.1,300.3,40.6,299,40.5"/>
<path d="M515.2,181.3c2.4-1.9,4.4-4.7,6.6-4.9c1.6-0.2,4.4,2.9,5,5c1.8,6.3,2.9,12.8,4.1,19.2c0.2,1-0.4,2.2-1,3.1
	c-0.6,0.9-1.6,1.6-2.5,2.3c-0.8-0.9-2-1.8-2.3-2.9c-0.4-1.4,0-3-0.1-4.5c-0.3-2,0.2-4.7-3.3-4.6c-3.8,0.1-3.9,3.1-4.5,5.7
	c-0.1,0.4,0.9,1.3,0.7,1.6c-1.1,1.9-2.4,3.8-3.7,5.7c-1.1-1.7-3.2-3.6-3-5.2C512.1,195,513.6,188.3,515.2,181.3 M523,186.5
	c-0.6-1.5-1.2-3-1.8-4.5c-0.7,1.6-1.5,3.1-2.2,4.6c-0.1,0.3-0.1,0.7,0,1c0.6,1.2,1,3.1,1.8,3.3C524.1,191.7,522.7,189,523,186.5"/>
<path d="M678,156c0.3-6.8,0.2-13.2,1.1-19.4c0.6-4,3-6.7,8-6.7c4.5-0.1,5.1,3.6,5.7,5.8c1.6,6.2,2.4,12.7,3,19.1
	c0.2,1.6-1.3,3.3-2.1,5c-0.9-1.6-2.1-3.2-2.6-4.9c-0.7-2.3,1.3-6.4-3.6-5.7c-1.3,0.1-2.7,1.9-3.4,3.2c-0.6,1,0.2,2.7-0.2,3.9
	c-0.5,1.4-1.7,2.5-2.6,3.7C680.2,158.9,679.1,157.7,678,156 M688,144.5c0-2.7,0-5.3-0.1-8c-0.1-0.4-1.1-0.8-1.7-1.2
	c-0.7,2.7-1.6,5.3-2,8C684.1,143.7,686.3,144.4,688,144.5"/>
<path d="M927,193c-0.6-3.9,0.8-5.4,4.4-5c1.4,0.2,3.1-0.2,4.3,0.4c1.9,0.8,3.5,2.3,5.3,3.5c-1.4,0.9-3,1.8-4.3,3
	c-1,0.9-1.8,2.1-2.7,3.2c1.5,0.6,3,1.5,4.6,1.9c2.4,0.6,4.9,1,7.4,1.5c-2.2,1.5-4.3,3.1-6.6,4.5c-1.4,0.9-4,1.4-4.2,2.5
	c-1,3.8,2,3.5,4.6,3.6c1.7,0,3.4,0.3,5.2,0.5c-1.5,1.5-2.8,3.5-4.7,4.4c-7.2,3.9-12.2,0.7-12.4-7.4C927.8,204.2,927.3,198.9,927,193
	"/>
<path d="M692.7,186.3c1.3,7.8,2.3,15.4,3.3,22.9c0.1,1.2,0.3,2.5-0.1,3.5c-0.7,1.6-2,2.9-3.1,4.3c-0.6-1.5-1.4-2.9-1.8-4.5
	c-0.5-2.5-0.5-5.1-1.1-7.5c-0.3-1.4-0.9-3.6-1.8-3.8c-2.7-0.7-4.5,0.6-5.2,3.6c-0.5,2.5-1.6,5-2.7,7.4c-0.3,0.5-1.7,0.7-2.5,0.7
	c-0.2,0-0.8-1.3-0.7-2c1-7.4,1.6-14.9,3.1-22.2C681.3,183.4,686.6,182.5,692.7,186.3 M684,193.5c0,2.1,0,4.6,3,2.8
	c1.2-0.7,1.7-2.9,1.8-4.5c0.1-0.9-1.2-1.9-1.9-2.8C685.9,190.2,684.9,191.4,684,193.5"/>
<path d="M181.7,38.8c-1.5,0.2-3.2-0.3-4.1,0.3c-1.8,1.1-3.1,2.9-4.6,4.4c1.6,0.5,3.1,1,4.7,1.5c1.1,0.5,2.2,1.1,3.3,1.6
	c-0.6,0.9-1.1,2-1.9,2.7c-0.9,0.8-2.5,0.9-3.2,1.8c-0.9,1.2-2,3.1-1.7,4.4c0.2,1.3,1.9,2.8,3.3,3.4c1.2,0.6,3-0.1,4.4,0.2
	c1.1,0.2,2.1,1.1,3.1,1.7c-0.7,0.8-1.3,1.9-2.2,2.1c-3.5,0.9-7.1,1.9-10.6,1.9c-1.4,0-3.8-2.1-4-3.6c-1.1-7.3-1.7-14.8-2.1-22.2
	c0-1.1,1.6-2.9,2.7-3.1c3.7-0.9,7.5-1.7,11.2-1.7C181.9,34.2,184.8,35.5,181.7,38.8"/>
<path d="M885,210c1.6,0.7,2.8,1.3,4,1.9c-1.4,1.2-2.5,2.9-4.1,3.6c-6.8,2.9-10.4,0.4-11-7c-0.4-6.5-1.4-13-1.8-19.5
	c-0.1-1.3,1.2-3.8,1.7-3.8c4,0.1,8,0.6,12,1.3c0.4,0.1,0.7,2.4,0.5,3.6c-0.1,0.6-1.5,0.9-2.3,1.4c-1.7,1.2-4.7,2.4-4.7,3.8
	c-0.2,2.3,1.7,4.3,4.9,3.8c0.5-0.1,1.8,1.2,1.7,1.4c-0.4,1-1.3,1.7-1.8,2.5c-1.1,1.8-2.7,3.6-3,5.6C880.6,212,883.1,210.1,885,210"
	/>
<path d="M488,41c0.6-1.7,0.9-3.7,1.8-4.1c3.3-1.3,6.8-2.1,10.3-2.8c0.8-0.1,1.9,1.2,2.9,1.9c-0.8,1-1.4,2.1-2.4,3
	c-0.6,0.6-1.8,0.7-2.3,1.3c-1,1-2.1,2.3-2.1,3.5c0,0.7,1.8,1.6,2.9,2.2c1.2,0.7,2.6,1.3,3.9,2c-1,1-1.9,2-2.8,3
	c-1.5,1.8-3.2,3.4-4,5.4c-0.3,0.7,1.8,2.6,3,3.6c1.1,0.9,2.5,1.4,3.8,2.1c-1.1,1.2-1.9,2.9-3.2,3.5c-6.2,2.6-9.6,0.2-9.9-6.5
	C489.6,53.2,488.6,47.4,488,41"/>
<path d="M795,201c0-4.9-0.3-9.3,0-13.6c0.4-5.5,4.5-5.7,8.7-5.4c4.1,0.3,6.1,2.5,6.3,6.7c0.3,5.2-0.5,9-6.8,9.5c-0.8,0-2,1.9-2.1,3
	c-0.3,3.1,0.2,6.3-0.3,9.4c-0.2,1.6-1.9,3-2.9,4.4c-1-1.3-2.6-2.6-2.8-4C794.7,207.9,795,204.7,795,201 M802,187.5
	c-0.4,0.9-0.9,1.7-1,2.6c0,1,0.4,2,0.9,2.9c0.1,0.1,1.8-0.1,2.1-0.6c0.5-0.8,1-2.1,0.8-2.9C804.5,188.5,803.3,187.8,802,187.5"/>
<path d="M352.2,55.3c1.8,0.7,3.3,1.6,4.8,2.7c1.7,1.3,3.3,2.7,5,3.9c0.2,0.1,2-1.2,1.9-1.7c-0.5-2.3-0.8-4.8-2-6.6
	c-2.4-3.5-6.9-5.4-7-10.7c-0.1-3.6,1.4-5,4.6-6c3.9-1.2,7.5-2.1,10.5,1.7c0.5,0.7,0.7,1.7,1,2.6c-1,0.3-2,0.8-2.9,0.8
	c-1.8-0.1-3.4-0.8-5.1-0.9c-1-0.1-2,0.5-3,0.7c0.4,1,0.6,2.2,1.3,3c2.5,3,5.6,5.6,7.6,8.8c2.9,4.9,0.4,10.8-4.9,12.9
	c-4.9,2.1-9.1-0.4-11-6.4C352.5,58.6,352.3,57.1,352.2,55.3"/>
<path d="M568.2,129.8c-0.9-4.5,0.7-6.5,5.1-5.8c1.8,0.3,3.7-0.2,5.4,0.4c1.8,0.6,3.4,1.9,5.1,3c-1.8,0.5-3.8,0.8-5.4,1.7
	c-1.4,0.8-2.8,2.1-3.3,3.5c-0.8,2.4,0.4,4.1,3.2,4.4c0.9,0.1,1.8,0.4,2.7,0.7c-0.6,0.9-1.1,1.9-1.9,2.7c-1.3,1.3-3.4,2.2-4,3.7
	c-1.5,4,0.9,6.2,5.9,6c1-0.1,2,0.3,3,0.4c-0.6,0.9-1.1,2.5-1.8,2.7c-3.6,0.7-7.8,2.2-11,1.2c-3.5-1.2-3-5.7-2.8-9.4
	C568.7,140.1,568.5,135,568.2,129.8"/>
<path d="M712.7,206.8c2.8-4.2,1.1-6.3-2.6-8.2c-5.8-2.9-6.4-5-5.2-9.9c1.3-5.7,11.3-5.9,14.1-2.9c0.7,0.7,0.2,2.7-0.1,4.1
	c-0.1,0.2-1.8,0.2-2.6,0.1c-1.3-0.2-2.4-0.9-3.6-0.9c-0.8,0-2,0.6-2.4,1.3c-0.2,0.4,0.3,1.7,0.9,2.3c1.6,1.5,3.3,3.3,5.2,4.1
	c4.3,1.8,4.5,5.8,3.3,8.4c-1.2,2.8-4.4,5.4-7.3,6.6c-4.1,1.8-7.4-1.2-9.2-4.5c-0.7-1.2,1-3.7,1.6-5.6c1.1,0.8,2.1,1.6,3.2,2.4
	C709.5,205.1,711,206,712.7,206.8"/>
<path d="M497.7,182.8c-1.4,1-2.6,1.8-3.7,2.6c1.2,0.9,2.4,1.9,3.7,2.6c0.9,0.3,2-0.2,3,0.1c1.4,0.3,2.9,0.9,4.3,1.4
	c-1.3,1.2-2.7,3.4-3.9,3.3c-5-0.1-5.1,2-4.3,6.1c0.5,2.6,1.8,7.2-2.5,7.9c-4.8,0.9-3.5-4.4-4-6.5c-1.5-5.8-1.5-12-2.4-18
	c-0.7-4.8,3.1-4.7,5.7-5.2c2.8-0.5,5.7-0.4,8.5,0.1c1.4,0.2,2.6,1.8,3.9,2.8c-1.3,0.7-2.4,1.5-3.8,2
	C500.9,182.4,499.4,182.4,497.7,182.8"/>
<path d="M313,37c1.1-1.3,2.2-2.8,3.3-2.9c4.7-0.2,9.5-0.4,14.1,0.1c1.6,0.1,3.1,2.1,4.6,3.2c-1.3,0.9-2.6,2.6-3.8,2.5
	c-4.2-0.3-4.3,2.1-4.3,5.2c0.2,5.7-0.2,11.3,0.2,16.9c0.2,2.9-1.5,3.9-3.5,3.8c-0.9,0-2.4-2.2-2.5-3.5c-0.3-4.9-0.4-10,0-14.9
	c0.4-4.3-1.8-6.1-5.2-7.4C314.8,39.5,313.9,38.4,313,37"/>
<path d="M248,63c-0.3-5.5-1.4-10.6-0.8-15.5c0.5-4,0.4-6.3-4.2-6.5c-0.9-0.1-1.8-0.5-2.6-1c-0.9-0.6-1.6-1.5-2.4-2.3
	c0.9-0.9,1.8-2.5,2.7-2.6c6-0.2,12-0.2,17.9,0.1c0.8,0,1.8,1.7,2.2,2.9c0.2,0.3-1.2,1.6-2.1,1.9c-4.4,1.1-5.8,4.1-5.7,8.3
	c0,4.7,0.3,9.4-0.1,14.1C252.6,65.6,250.6,65.9,248,63"/>
<path d="M763,185c-1.2,1.7-2.3,2.8-3.5,4c-0.8,0.9-1.7,1.8-2.5,2.8c1,0.7,2,1.7,3.1,2.2c1.2,0.4,2.5,0.3,3.8,0.4
	c-0.9,1-1.8,1.9-2.7,2.9c-0.5,0.6-1.2,1.1-1.7,1.7c-2.8,3-2.1,5.6,1.7,7c1,0.4,1.8,1.1,2.7,1.6c-0.8,1.1-1.4,2.7-2.5,3.4
	c-4.2,2.4-9.8-0.3-10.3-5.2c-0.7-6.3-0.7-12.7-1.1-19.1c-0.2-2.7,0.8-4.1,3.6-3.7C756.8,183.5,759.9,184,763,185"/>
<path d="M808,151c-1.4,2.6-2.6,5-4.3,6.7c-3.8,3.7-8.8,3.3-10.5-1.5c-1.6-4.6-2.2-9.7-2-14.6c0.1-4,5.9-6.5,11.3-5.5
	c4,0.7,6.1,3,5.5,7.5C807.7,145.8,808,148.2,808,151 M797,151.5c0.8,1.2,1.5,2.4,2.3,3.5c0.8-0.7,1.8-1.4,2.4-2.2
	c2.7-4,0.6-7.8-1-11.4c-0.2-0.4-3.5,0-3.5,0.1C797,144.5,797,147.5,797,151.5"/>
<path d="M560,51c-2.9-3.4-5.9-6.2-8.6-9.2c-1.1-1.2-1.5-2.9-2.3-4.4c1.9-0.3,4.4-1.6,5.7-0.8c8.8,5.2,15,15.6,11.1,26.7
	c-1.3,3.6-3.1,7.1-5.2,10.3c-0.8,1.1-3,1.3-4.6,2c0.1-1.8-0.5-4,0.4-5.4C560.2,64.4,562.8,58.5,560,51"/>
<path d="M774,184c3.5,0,6.5-0.1,9.5,0.1c0.8,0.1,1.6,1.2,2.5,1.8c-0.6,0.7-1,1.8-1.8,2.1c-4,1.6-5.9,3.5-1.7,7.2
	c0.4,0.4-0.1,2.3-0.5,3.3c-1.5,3.5-3,6.6,1.8,9.1c2.9,1.4,2.2,3.4-0.6,4.7c-4.5,2.2-7.8,0.9-8.7-4.5c-1.3-7-1.8-14.2-2.4-21.4
	C772,185.7,773,184.8,774,184"/>
<path d="M762,133c-0.4,0.9-0.7,1.3-1.1,1.6c-6.5,3.8-7.5,6.6-6,14c0.6,2.9,0.4,6.1-0.1,9c-0.2,1-2.4,1.9-3.8,2.3
	c-0.4,0.1-1.9-1.7-1.9-2.6c-0.2-5.3,0-10.6-0.2-15.9c-0.1-3-0.9-5.6-5-5.5c-1.6,0.1-3.3-1.2-4.9-1.8c2-1.4,3.8-3.6,6-3.9
	c4.7-0.6,9.7-0.2,14.5-0.1c1,0,2.1,0.7,3.1,1C762.4,131.6,762.2,132.1,762,133"/>
<path d="M34.7,59.3c-0.4-9.4-0.7-18.5-0.5-27.6c0-1.6,2.3-3.1,3.6-4.7c0.7,1.9,2.3,3.9,2,5.7c-1.6,11.2-2,22.2,3.8,32.6
	c0.6,1.1-0.3,3.1-0.4,4.7c-1.6-0.6-3.8-0.9-4.6-2C37,65.4,36.2,62.4,34.7,59.3"/>
<path d="M708,157c-4-2.8-5.8-5.8-3.3-10.4c0.6-1.2,0.1-3.8-0.8-4.9c-2.8-3.2-2.9-6.8-1-9.8c2.5-4.1,7.2-2.9,11.2-2.7
	c1,0,1.9,1.9,2.9,2.9c-1.2,0.6-2.2,1.5-3.5,1.9c-2.1,0.6-4.3,0.8-6.5,1.2c1.8,2.6,3.2,5.6,5.4,7.7c2.8,2.8,5.6,5.4,4.5,9.6
	C715.8,156.4,712.6,157.8,708,157 M710.5,148c-1.2-0.5-2.3-1-3.4-1.6c0.6,1.7,1,3.5,1.9,5c0.4,0.8,1.7,1,2.6,1.5
	C711.4,151.4,711.2,150,710.5,148"/>
<path d="M558.2,143.3c-1.6,2.7-2.9,5.2-4.2,7.7c-2-1.7-4.7-3-5.9-5.1c-2.3-4.1-4.1-8.6-5.7-13.1c-0.4-1.3,0.2-4.3,1-4.6
	c2.1-0.6,4.5-0.6,4.7,3c0.2,2.9,1.2,5.8,2.2,8.5c0.4,1.2,1.6,2.1,2.4,3.1c0.4-1.1,1.1-2.3,1.2-3.5c0.5-3,0.4-6.1,1.2-9
	c0.5-1.6,2.3-2.9,3.6-4.3c0.7,1.7,2.3,3.5,2.1,5.1C560.5,135.1,559.3,139,558.2,143.3"/>
<path d="M646.2,196.3c1.9,0.3,3.5,0.7,5,1.5c2,1.1,1.7,2.2,0,3.5c-1.5,1.3-3.3,2.6-4.1,4.2c-1.5,3.5-4.2,5.7-7.5,4.3
	c-2.6-1.1-6-4-6.3-6.4c-0.5-4.7,0.3-9.9,1.9-14.5c1.6-4.7,8.9-5.6,11.1-1.9c0.6,0.8,0.6,2.1,0.6,3.2c0,0.3-1.4,0.9-1.8,0.8
	c-2.5-1-5.1-1.1-5.9,1.6c-0.9,2.7-0.8,5.8-0.3,8.6c0.3,1.8,2,3.2,3.2,4.8c0.6-1.9,1.2-4,1.9-5.9
	C644.5,198.9,645.3,197.7,646.2,196.3"/>
<path d="M733,181c1.3,1.3,2.8,2.5,2.9,3.9c0.5,6.3,0.9,12.6,1,19c0.1,3.4,0.9,5.4,4.9,4.2c0.9-0.3,2-0.2,3,0c0.8,0.1,2,0.6,2.1,1
	c0.1,1-0.3,2.6-0.8,2.8c-3.2,1.2-6.4,2.8-9.7,3c-4.9,0.3-4.9-4.4-5.3-7.5c-0.8-6.6-1-13.3-1-19.9C730.1,185.3,731.6,183.2,733,181"
	/>
<path d="M133,51c0-4.8-0.1-9.1,0.1-13.4c0-1.1,1.2-2.1,1.9-3.1c1.1,0.7,2.4,1.2,3,2.2c0.7,1,0.9,2.4,0.9,3.6c0.1,4.2,0,8.3,0.1,12.5
	c0.1,3.1,0.7,6,5.1,5.3c0.9-0.1,2.7,0.5,2.7,0.8c0.1,1.2-0.1,3.1-0.9,3.5c-2.3,1.2-5.7,3.2-7.1,2.3c-2.6-1.6-4.3-4.9-5.7-7.8
	C132.4,55.5,133,53.4,133,51"/>
<path d="M547,192c0,2.2,0.2,3.9-0.1,5.5c-0.3,2.7,0.3,3.9,3.4,3.6c1.1-0.1,2.4,1,3.7,1.6c-0.6,1.2-1,3.1-1.9,3.5
	c-2.3,1-5.1,2.2-7.2,1.5c-1.7-0.5-3.5-3.4-3.8-5.4c-0.7-6.6-0.9-13.3-1-20c0-1.4,1.6-2.8,2.5-4.3c1.1,1,3,1.8,3.2,3
	C546.6,184.4,546.6,188,547,192"/>
<path d="M875,141c0.7-1.3,1.6-2.9,2.2-2.8c1.4,0.2,3.4,1,3.6,2c1,4.1,1.8,8.4,2.1,12.6c0.5,5.3,1.1,5.9,6.4,5.3
	c1.5-0.1,3.1,1,4.7,1.6c-1.2,1.1-2.3,2.7-3.7,3.2c-2.6,0.9-5.7,2-8.3,1.4c-5-1-4.4-5.9-5-9.6C876.3,150.3,875.6,145.9,875,141"/>
<path d="M567.7,201.3c0.5,0.4,0.8,0.6,1.1,0.7c1.4,0.4,2.8,0.7,4.2,1.1c-1.2,1.3-2.1,3.1-3.5,3.8c-4.8,2.6-9.5-0.2-9.5-5.6
	c0-6.6-0.1-13.2,0.1-19.8c0-1.2,1.2-2.3,1.8-3.5c1,0.9,2.8,1.8,3,2.8c0.6,5.5,0.7,11,1.1,16.5C566.2,198.5,567,199.8,567.7,201.3"/>
<path d="M588,204c-1.5,2.7-3,4.8-4.5,7c-0.5-2.5-1.3-4.9-1.5-7.4c-0.5-5.5-0.7-11-1-16.6c0-0.5-0.2-1.1,0-1.5c0.9-1.8,2-3.6,2.9-5.5
	c1.1,1.8,2.7,3.6,3,5.5C587.5,191.5,587.6,197.5,588,204"/>
<path d="M158.7,54.3c0.6,2.7,1.2,5.3,1.2,7.8c0,1-1.4,2.9-1.7,2.8c-1.5-0.4-3.9-1.2-4.1-2.1c-1.3-7.4-2.2-14.8-3-22.2
	c-0.1-1.1,1.7-2.4,2.7-3.6c1.4,1.6,3.7,3,4,4.8C158.5,45.8,158.3,49.9,158.7,54.3"/>
<path d="M544,65c0.8-1.6,1.6-2.8,2.4-4c0.5,1.4,1.7,3,1.4,4.2c-0.3,1.5-2,2.6-3,3.8C544.5,67.9,544.2,66.7,544,65"/>
<path d="M399,772c-8.4,2-16.2,4-24,6c-1.1,0.3-2.1,1-3.1,1c-2-0.1-4-0.6-5.9-0.9c0.9-1.8,1.9-3.5,2.7-5.3c0.5-1.2,1.2-3,0.7-3.7
	c-7.3-10.2-14.5-20.5-22.3-30.3c-3.1-3.8-7.8-6.2-11.4-9.6c-5.9-5.7-11.7-11.6-17.5-17.5c-0.7-0.7-0.8-1.9-1.2-2.9
	c1.2-0.3,2.5-1,3.5-0.7c1.7,0.6,3.5,1.6,4.8,2.8c5.6,5.1,11,10.5,16.7,15.5c3.2,2.8,7.6,4.4,10.2,7.6c5.1,6.2,9.1,13.2,13.8,19.7
	c3.4,4.7,7,9.1,10.8,13.5c3.2,3.9,7.3,1.8,11.2,1.3c0.7-0.2,1.2-1.4,1.9-2.1c-0.8-0.4-1.6-1.2-2.5-1.3c-8.6-1.5-9.3-9.7-13.1-15.3
	c-0.2-0.4,0.1-1.1,0.1-1.7c0.6,0.2,1.3,0.2,1.7,0.6c4.6,3.8,9.8,7.2,13.5,11.8c4.6,5.6,9.9,5.7,15.9,4.5c12.7-2.6,25.5-5.2,38.2-8
	c10-2.2,20.1-4.6,30-7.3c6.8-1.8,13.4-4.5,20.2-6.6c4.7-1.5,7-4.7,8.1-9.2c2.4-10,5.9-19.5,13.5-26.9c0.6-0.6,1.1-1.5,1.8-1.7
	c2.1-0.5,4.3-0.7,6.4-1.1c-0.9,1.8-1.4,3.8-2.7,5.2c-6.2,6.7-10,14.9-12.1,23.4c-2.6,11-10.6,15.2-19.7,18.1
	c-14.3,4.5-28.8,8.6-43.5,12c-15,3.4-30.3,5.7-45.5,8.4C399.9,771.4,399.7,771.8,399,772"/>
<path d="M329,709.3c0.3-0.1,0.6,0.1,0.9,0.3C329.6,709.6,329.3,709.6,329,709.3"/>
<path d="M505,452c-0.1,0.6-0.3,0.8-0.4,0.9c-1.7,2-1.8,7-6.2,4c-3.6-2.5-0.7-5.3,1-7.8c3.6-5.4,7.1-10.7,10.6-16.1
	c0.2-0.4,0.4-1,0.7-1.2c2.3-0.9,4.6-1.8,6.8-2.7c-0.5,2.2-0.5,4.6-1.6,6.4C512.5,441,508.6,446.2,505,452"/>
<path d="M521.2,459.3c-1.1,3.2-3.2,4.8-5.9,3.2c-0.9-0.6-1.1-4.4-0.2-5.8c3.9-5.4,8.3-10.5,12.5-15.7c0.1-0.1,1.3,0.3,1.3,0.5
	c0.2,1.4,0.6,3,0,4.1C526.6,450.2,524,454.6,521.2,459.3"/>
<path d="M322.2,522.3c-4.3,2.3-8.3,4.6-12.6,6.4c-1.2,0.5-3.1-0.4-4.6-0.7c1-1.6,1.6-3.8,3-4.9c3.1-2.2,7.1-3.3,10-5.8
	s4.9-6.1,7.4-9.2c0.6-0.7,1.3-1.5,2.1-2.1c1.7-1,3.4-1.9,5.2-2.8c-0.3,2.1,0.2,4.7-0.8,6.3C329.1,513.9,325.6,517.9,322.2,522.3"/>
<path d="M467.2,572.3c4.8-5.7,9.8-10.8,13.6-16.7c2.6-3.8,3.3-8.9,5.3-13.2c1-2.3,2.7-4.3,4.1-6.4c0.6,2.4,2.1,5,1.6,7
	c-1.5,5.5-3.1,11.2-6,15.9c-4,6.4-9,12.1-14.1,17.6c-1.2,1.3-4.4,0.8-6.6,1.1C465.7,575.9,466.4,574.2,467.2,572.3"/>
<path d="M463.2,516.3c-3.5,8.2-9.9,12-17.9,13.6c-1.8,0.4-4-0.5-5.9-1.1c-0.4-0.1-0.7-2.1-0.4-2.4c1.8-1.3,3.7-3.1,5.6-3.2
	c5.4-0.2,8.6-3.1,11-7.3c1.6-2.8,2.9-5.8,4.7-8.5c0.6-1.1,2.2-1.5,3.4-2.2c0.4,1.2,1.3,2.3,1.2,3.4
	C464.7,511.1,464,513.6,463.2,516.3"/>
<path d="M526.9,124.6c3.7-0.3,7.1-0.3,10.6-0.2c0.7,0.1,1.5,1.1,2.2,1.6c-0.9,0.6-1.7,1.4-2.7,1.7c-1.7,0.4-3.4,0.9-5.1,0.8
	c-4.7-0.4-4.7,2.3-4.2,5c0.6,3.2,2.8,3.3,5.7,2.2c1.1-0.4,2.9,0.6,4.4,1c-0.9,0.9-1.7,2.1-2.8,2.9c-1.1,0.7-2.6,1.2-3.9,1.4
	c-3.3,0.7-3,3-2.4,4.8c0.3,1,2.4,1.6,3.8,2.2c1.4,0.6,2.9,0.9,4.4,1.4c-1.4,0.9-2.7,2.5-4.3,2.8c-7.7,1.8-10.4-0.5-10.7-8
	c-0.2-5.2-1.4-10.2-1.7-15.4c0-1.1,1.7-2.5,3-3.5C524,124.6,525.5,124.9,526.9,124.6"/>
</svg>
