<?xml version="1.0" encoding="utf-8"?>
<!-- Generator: Adobe Illustrator 23.1.0, SVG Export Plug-In . SVG Version: 6.00 Build 0)  -->
<svg version="1.1" id="Contours" xmlns="http://www.w3.org/2000/svg" xmlns:xlink="http://www.w3.org/1999/xlink" x="0px" y="0px"
	 viewBox="0 0 1052.1 727.4" style="enable-background:new 0 0 1052.1 727.4;" xml:space="preserve">
<desc  xmlns:shape="http://adobe.com/products/shape"></desc>
<path d="M2,220c0.3-13.7,0.7-26.9,1-40.1c0.3-19.9,0.6-39.8,1-59.7c0.2-11.3,1-22.5,0.9-33.8C4.8,67.8,4.4,49.2,4,30.7
	c-0.2-6.9,2.9-10.1,9.4-9.9c13.6,0.6,27.3,0.1,41,0.2c12.7,0.2,25.4,0.6,38.1,1c9,0.3,18,1.1,27,0.9c14.4-0.3,28.8-1.4,43.2-1.9
	c23-0.7,45.9-1.3,68.9-2c24.6-0.7,49.3-1.4,74-2c7.6-0.1,15.3,0.1,23,0c16.6-0.3,33.2-0.5,49.7-1.1c9.6-0.3,19.2-1.4,28.7-1.9
	c15.8-0.8,31.6-1.6,47.4-1.9c10.2-0.2,20.5,0.8,30.7,0.8c11.2,0,22.3-0.4,33.5-0.9c11.9-0.5,23.7-1.5,35.6-2
	c18.3-0.7,36.5-1.5,54.7-1.9C629.6,7.5,650.3,7.3,671,7c24.2-0.3,48.4-0.7,72.6-1c28.1-0.3,56.2-0.4,84.2-1.1
	c26.7-0.6,53.4-1.8,80.1-2.9c11-0.5,22-1.8,33-1.9c15-0.1,30,0.6,45,0.9c16.2,0.4,32.4,0.7,48.6,1c0.9,0,1.8-0.4,2.7-0.7
	c4.6-1.3,9.5,0.9,10.7,5.4c1.6,6,2.8,11.8,1.4,18.3c-1.1,4.7,0.5,10,0.6,15.1c0.2,5.7,0.2,11.4,0,17.1c-0.1,4.6-0.8,9.2-0.9,13.8
	c-0.4,26.8-0.7,53.7-1,80.6c-0.1,12.9,0.1,25.8-0.1,38.6c0,4.9-0.9,9.8-0.9,14.6c-0.1,19.8,0.1,39.5-0.1,59.2
	c-0.1,10.6-0.8,21.2-0.9,31.8c-0.1,15.6-0.1,31.3,0,47c0.3,30.7,0.4,61.4,1.1,92.1c0.3,17,1.5,34.1,2.3,51.2
	c0.3,6.8,0.2,13.6,0.6,20.4c0.4,4.7,1.5,9.4,1.9,14.1c0.2,2.4-0.8,4.8-0.9,7.1c-0.4,19.7-0.9,39.4-1,59.1c0,19,0.8,38.1,0.9,57.1
	c0.1,7-0.8,14.1-0.9,21.1c0,6,0.9,11.9,0.9,17.9c0,5.9-0.6,11.8-1.1,17.7c-0.4,4.8-1.6,9.5-1.7,14.3c-0.3,10.8-2.1,12.5-12.7,11.2
	c-7-1-14.1-1.9-21.2-2c-17.5-0.3-35,0-52.5-0.1c-29-0.3-58.1-0.9-87.2-0.9c-29.2,0-58.3,0.8-87.4,0.8c-29.7,0-59.4-0.5-89.1-0.9
	c-12.9-0.2-25.8-0.6-38.6-1c-20-0.6-39.9-1.2-59.9-2c-7.9-0.4-15.7-1.5-23.6-1.9c-3.9-0.2-7.8,0.6-11.7,0.6
	c-8.4-0.1-16.9-0.7-25.3-0.6c-18,0.1-36,0.9-54,0.8c-16.4-0.1-32.8-1.2-49.2-1.7c-11.7-0.3-23.4-0.1-35.2-0.3
	c-10.6-0.2-21.3-0.6-32-0.9c-12.4-0.3-24.7-0.6-37.1-1c-10.7-0.3-21.4-0.6-32.1-1c-14.4-0.6-28.8-1.5-43.2-1.9
	c-17.4-0.6-34.8-0.9-52.2-1.1c-15.3-0.1-30.6,0.1-45.9,0c-20-0.2-40-0.6-60-1c-15.9-0.3-31.7-0.5-47.5-1.1
	c-8.8-0.3-17.6-1.5-26.5-1.8c-3.7-0.1-7.6,0.8-11.3,1.7c-4.3,1-5.7,0.1-5.7-4.3c0-10.8,0.1-21.7-0.1-32.5c-0.1-9.6-0.5-19.2-1-28.8
	c-0.5-11.5-1.4-23.1-1.9-34.6c-0.5-10.1-0.9-20.1-1-30.1c-0.4-39.8-0.7-79.6-1.1-119.4c0-6.3-0.9-12.6-0.9-18.8
	c0.1-10.6,0.9-21.3,0.9-31.9C1.8,392,1.2,375.5,1,359.1c-0.2-14.8,0-29.7,0-44.5c0-6.4,0.1-12.9-0.1-19.3C0.7,286.9,0,278.5,0,270.2
	c0.1-13.5,0.6-27.1,1-40.6C1.1,226.6,1.6,223.5,2,220 M180,348.5c0.3,0,0.6,0.1,0.9,0.1c-0.3-0.2-0.6-0.4-0.9-1.1
	c-0.8-1.1-1.7-2.3-2.5-3.4c-1.5-2.2-3.3-4.2-4.4-6.6c-1.1-2.2-5.4-5.2-7.5-4.5c-0.6,0.2-1.2,0.8-1.4,1.4c-0.1,0.3,0.6,0.9,1,1.3
	c3,2.7,6,5.5,9.1,8.1C176.1,345.3,178.1,346.6,180,348.5 M123,427.5c0.3,0,0.6,0.1,0.9,0.1c-0.3-0.2-0.6-0.4-0.9-1.1
	c0-2.5-0.1-5.1,0-7.6c0.6-11.2,1.4-22.4,1.9-33.6c0.1-1.4-1-2.8-1.5-4.2c-0.8,1.3-2.2,2.6-2.3,3.9c-0.9,11.7-1.7,23.4-1.9,35.1
	C119.1,422.4,121.6,424.7,123,427.5 M9.5,525c4,0,8.1,0.1,12.1,0c7.5-0.3,14.9-0.7,22.3-1c23-0.8,45.9,1.1,68.7,3.1
	c1.2,0.1,2.3,1.3,3.4,2c-1.2,0.6-2.2,1.4-3.5,1.8c-0.9,0.4-2,0.2-2.9,0.1c-9.8-0.7-19.5-1.8-29.2-1.9c-22.5-0.3-45-0.1-67.5-0.1
	c-3.6,0-5.1,1.5-4.9,5c0.3,7.4,0.8,14.8,1,22.1c0.4,15.7,0.6,31.4,1,47.1c0.2,7.5,0.6,15.1,1,22.6c0.2,3.1,1.1,5.6,5.2,5.2
	c8.4-0.7,16.9-1.4,25.3-2c14.8-1,29.5-2.2,44.3-2.9c11.5-0.6,23-0.8,34.6-1.1c0.6,0,1.3,0,2,0c8.6-0.4,17.3-0.9,26-1.1
	c8.8-0.1,17.6,0.3,26.4,0c13.6-0.4,27.1-1.6,40.7-1.8c13.5-0.1,27,0.7,40.5,0.8c1.3,0,3.7-2.1,3.8-3.3c0.7-6.9,1-13.7,1.1-20.6
	c0.5-18,0.7-36.1,1.1-54.1c0.1-1.8,0.6-3.7,1-5.6c2.1-9.3-0.4-14.2-9.2-17.9c-1.1-0.5-2.3-0.9-3.4-1.4c-6.4-2.9-7.8-9.1-2.8-14
	c3.8-3.6,8-6.9,12.3-9.9c8.4-5.9,17.5-10.8,24.3-18.8c3.6-4.2,6.4-8.8,5.7-14.6c-1.3-13-3.5-26-3.1-39.2c0.1-6.1-3-11.9-7.3-16.4
	c-8.6-8.9-16.2-18.3-20.6-30c-0.4-1.1-1.4-2.1-2.2-3.1c0,1.4-0.5,3.1,0.1,4.2c1.9,3.6,4.7,6.8,6,10.5c2.4,6.9,4.8,13.6,10.1,18.9
	c0.8,0.7,0.8,2.3,1.1,3.5c0.5,2.6,0.6,5.4,1.5,7.9c6.9,19.8,6.7,39.4-2.7,58.2c-7.4,14.9-19.6,19-33,16.5
	c-10.8-2.1-22.1-4.8-30.3-13.5c-0.4-0.5-3-2.4-2.6,1.1c0.3,1.8,0.2,3.7,0,5.5c-0.1,0.8-0.9,2-1.6,2.1s-2-0.7-2.2-1.4
	c-0.9-2.2-1.6-4.4-2.1-6.7c-3.2-15.7-10.6-29.5-20-42.2c-10.7-14.3-21-28.8-25.1-46.6c-0.1-0.7-0.7-1.6-1.4-1.9
	c-5.7-2.4-3.6-6.4-2.7-10.8c1.6-7.4,5.4-15.1-0.8-22.4c-0.5-0.6-0.2-2,0-2.9c1.1-5.8-1.1-8.5-6.6-7.9c-3.8,0.4-4-1.4-3-4
	c1.1-2.7,2.6-5.2,3.8-7.9c1-2.2,1.8-4.5,2.7-6.8c-2.4,1.4-4.9,2.5-6.9,4.2c-5.1,4.1-8.8,9.2-11.1,15.4c-0.6,1.5-2.5,2.4-3.8,3.6
	c-0.2-1.9-0.6-3.9-0.4-5.8c1.2-9.5,9.6-13.6,15.3-19.7c1.4-1.5,3.6-2.6,5.6-3.1c2.2-0.5,5.1-0.9,6.6,0.2c1.1,0.8,0.9,4,0.7,6.1
	c-0.2,2-1.3,3.8-2.4,5.7c0,0.3-0.1,0.6-0.1,0.9c0.2-0.3,0.4-0.6,1.1-0.9c3-3.6,5.2-8.7,11.5-7c2.1,0.6,4.1,1.4,6.3,1.7
	c1.5,0.2,4.4-0.2,4.5-0.7c0.7-4.6,4-4,7.1-4c7.9,0.1,15.5-0.5,22.5-4.8c9.8-6.1,19.4-12.5,29.8-17.5c5.9-2.9,12.9-4.3,19.5-4.4
	c6.1,0,12.1,2.8,18.2,4.1c4.9,1,9.9,1.8,14.9,2.5c0.5,0.1,1.8-1.6,1.7-1.8c-4.8-6.9-9.6-13.7-14.5-20.5c-0.7-0.8-2.1-1.3-3.3-1.5
	c-12.3-2.2-24.6-2.9-36.8,0c-19.3,4.5-38.4,9.4-57.6,14.1c-1.1,0.3-2.1,1-3.2,1.4c1.2,0.8,2.2,1.9,3.5,2.3c3.1,1.1,6.3,1.8,9.4,2.7
	c0.8,0.3,1.3,1.1,2,1.6c-0.5,0.6-1.1,1.7-1.6,1.7c-3.6-0.1-7.5,0.4-10.7-0.9c-9.6-3.9-18.8-8.6-28.2-12.9c-8.3-3.8-16.4-8-24.9-11
	c-13.7-4.7-28.1-2.9-42.2-2.9c-1.5,0-4.1,2.1-4.2,3.4c-1.4,12.1-3,24.3-3,36.4c-0.1,17.1,1.1,34.1,1.8,51.2c0.1,4.3,0.2,8.6-0.1,13
	c-0.2,3.6,1.9,4.6,4.6,3.7c4.6-1.6,9.1-3.8,13.7-5.6c3.9-1.5,5.8-4.7,5.7-8.5c-0.6-10,6-16.9,10.2-24.8c0.5-0.9,2.4-1.1,3.7-1.7
	c0.9,3.9,2,0.3,2.4-0.1c0.8-0.9,1-2.3,1.8-3.2c4.2-5.1,8.3-10.3,12.8-15c0.8-0.8,3.5,0.4,5.3,0.7c-0.7,0.9-1.3,2-2.1,2.8
	c-2.1,1.8-4.6,3.2-6.3,5.4c-4.2,5.5-8.5,11-7.7,18.7c0.5,4.6,0.7,9.2,1,13.8c0.1,1.1-0.3,2.6,0.3,3.3c4.7,5.2,9.6,10.2,14.4,15.3
	c1.6,1.7,3.7,3.1,4.7,5.1c2.7,5.1,6.2,10.3,3.6,16.7c-0.3,0.7-0.2,1.7,0,2.4c4.9,16.7,9.8,33.3,14.6,50c1.4,5.1,2.4,10.4,3.3,15.6
	c0.1,1-1,2.1-1.6,3.2c-0.8-0.8-2-1.6-2.2-2.5c-0.9-3-1.3-6.2-2.2-9.2c-0.3-1.2-1.3-2.2-2-3.3c-0.6,1.2-1.9,2.4-1.8,3.5
	c0.6,5.8,1.1,11.7,2.5,17.4c0.8,3.7,3.2,6.3,7.7,7.3c6.1,1.3,12,4.9,18.1,5.4c7.8,0.7,16.4,2.8,23-4.4c0.5-0.5,1.8-0.4,2.7-0.6
	c0.1,1.2,0.6,2.4,0.3,3.4c-2.6,7-6.9,8.4-13.6,8.9c-11.7,0.9-23.2-0.3-33.9-6.2c-1-0.6-4.2,0.4-4.8,1.5c-5.3,9.6-14.3,13-24.3,14.3
	c-1.8,0.2-5.2-1.6-5.6-3c-1-4.4,2.8-2.1,4.5-2.4c7.6-1.6,14.3-4.1,19-11c2.1-3,0.3-3.2-1.2-4c-3.5-1.7-7.3-3.1-10.9-5
	c-8.9-4.7-14.7-11.8-15.7-22.3c-0.2-2.3-1-4.6-1.5-6.8c-0.5-2.5-1.8-2-2.3-0.4c-0.6,1.7-0.1,3.7-0.1,5.6c-0.1,1.3-0.4,2.5-0.5,3.8
	c-0.9-0.6-2-1.1-2.8-1.8c-7.1-6.5-9-14.3-7-23.9c1.3-5.7,1.1-12.1,0-17.9c-2.6-13.6-7.7-26.9-6.8-41.1c0.1-0.8-0.3-1.5-0.5-2.3
	c-0.6,0.4-1.3,0.8-2,1.1c-4.2,2-8.2,4.4-12.6,5.8c-6.3,2.1-13,3.2-19.4,5.2c-8.1,2.4-16,5.5-24.2,7.8c-3.9,1.2-3.9,3.2-2,5.7
	c4,5.4,7.9,11.1,12.7,15.7c12.8,11.9,28.3,20.8,38.8,35c8.3,11.2,16.2,22.6,24.1,34.1c5.1,7.4,6.5,16.2,7.1,25
	c0.2,2.8-1.7,4.7-4.6,3.4c-6.1-2.9-12.1-6.1-18.2-9.2c-5.9-3-11.7-6.2-18.6-5.6c-1.6,0.1-3.2,0.3-4.8,0.2c-6.4-0.5-11-4.3-15.5-8.5
	c-4.8-4.4-9.3-9.4-14.5-13.3c-6.4-4.7-11.1-10.6-14.6-17.4c-5.1-9.8-6.6-20.6-7.2-31.6c-0.1-1.4-1-3.8-1.8-3.9
	C15.7,430.2,8,438,8,442.4c0,18.2,0,36.4,0,54.5c0,7.7-0.1,15.4,0,23c0,1.7,0.6,3.4,0.5,5.1c0,0.3-0.1,0.6-0.1,0.9
	C8.6,525.6,8.8,525.3,9.5,525 M360.5,366c-1.3-0.6-3-0.8-3.7-1.8c-4.1-5.6-8.6-11-11.7-17.2c-6.4-12.8-15.9-22.2-29.4-26.5
	c-18.3-5.8-37-10.6-55.6-15.3c-4.9-1.2-10.3-1.2-15.3-0.4c-10.3,1.8-18.7,7.9-27.4,13.3c-6.6,4.1-12.5,9.7-20.6,10.5
	c-5.2,0.5-10.4,0.2-15.6,0.5c-1.4,0-2.8,0.6-4.2,0.9c1.3,1,2.6,2.2,4,3c5.5,3.1,11.4,5.8,16.6,9.3c2.7,1.9,4.8,2.1,7.4,0.7
	c8.1-4.3,16.5-1.6,24.3,0.2c9.1,2,17.8,6,26.6,9.3c5.2,2,10.2,4.4,15.3,6.5c7.7,3.1,15.8,5.5,23.2,9.2c6.6,3.2,11.7,8.5,14.1,15.8
	c0.6,1.8,1.3,3.5,2.1,5.1c4.8,9.4,11.8,17.8,12.6,28.8c0.2,2-0.8,4.1-1.2,6.1c-1.3-1.6-3.1-3.1-3.9-5c-1.3-2.9-1.6-6.4-3-9.2
	c-4-8.1-8.7-15.8-12.5-23.9c-1.8-3.6-3.8-6.4-7-9.1c-11.8-9.9-27.9-9.4-40.2-17.8c-0.7-0.5-1.7-0.9-2.6-0.9
	c-0.9-0.1-1.8,0.2-2.8,0.4c0.3,1,0.4,2.3,1.1,2.9c1.2,1.1,3.1,1.5,4.3,2.6c2.6,2.3,6.1,4.4,7.2,7.4c4.4,12,11.2,22.2,20.3,31
	c6.3,6,9.8,13.7,9.8,21.9c-0.1,13,2.4,25.6,4.1,38.3c0.5,3,0.3,7.3-1.5,9.2c-6.9,7.5-14.1,14.9-22.2,21c-6.2,4.6-13.4,8-18.6,14.1
	c-3.8,4.5-3.7,8.4,2.2,9.3c0.6,0.1,1.1,0.6,1.7,0.8c7.6,2.5,10.7,6.4,10.5,14.3c-0.1,4.4-0.7,8.7-0.9,13.1c0,2.1,0.8,4.3,0.6,6.4
	c-0.3,3.6-1.5,7.2-1.5,10.8c-0.2,14.2-0.1,28.4-0.2,42.5c0,1.7-0.8,3.5-0.7,5.2c0.5,9.1,1.1,18.2,1.8,27.2c0.4,4.6,1.4,9.1,1.9,13.7
	c0.4,3,0.2,6,0.8,8.9c0.9,5.1,2.6,10,3.2,15.1c0.7,6.7,0.7,13.5,1.1,20.3c0.1,1,0.7,2,1,3c0.8-0.5,1.7-1,2.5-1.5
	c0.5-0.3,1-0.7,1.6-1c11.1-6,22.3-12.1,33.5-18.1c8.2-4.4,17.1-6.6,26.2-7.9c10.8-1.5,21.7-1.9,32.3-4.2
	c12.5-2.7,24.8-6.6,37.1-10.6c18.7-6,34.6-17,49-30c9.5-8.7,18.1-18.6,27.6-27.3c5.9-5.4,12.3-10.5,20.6-11.8
	c1.1-0.2,2.3,0.2,3.5,0.3c-0.7,0.9-1.3,2-2.2,2.6c-7.9,5.5-15.8,10.9-23.6,16.5c-0.8,0.5-1.2,1.6-1.7,2.4c1,0,2.1,0,3.1,0.1
	c5.2,0.8,11.1,0.4,15.3,2.8c8.8,4.9,17.4,9.4,27.4,11.3c10.6,2,21.1,4.3,31.5,7.3c9.6,2.8,18.8,6.9,28.3,10
	c5.1,1.7,10.7,2.3,15.8,4.1c5,1.6,9.6,4.2,14.4,6.1c0.7,0.3,2.6-0.5,2.7-1c1.4-11.8,3-23.5,4-35.3c0.5-6.8-0.8-13.8,0.3-20.5
	c1-6.1,3.4-12.3,6.5-17.7c5.2-9.1,11.1-17.7,10.3-28.8c-0.4-4.3-1.5-8.8-0.8-13c0.8-5.3,1.3-10.6,4.2-15.8
	c4.1-7.3,5.9-15.8,8.5-23.9c1.6-4.9,4.3-10,3.7-14.8c-1-9.5-3.7-18.8-9.9-26.8c-4.9-6.2-10.4-10.1-18.4-11.1
	c-10-1.4-20-2.9-29.6-5.9c-10.2-3.3-19.8-8.3-29.8-12.5c-1-0.4-2.3-0.3-3.4-0.5c0.3,1.1,0.5,2.3,1.2,3.1c2.4,2.7,5.2,5.2,7.7,7.8
	c6.7,7.2,7.2,10.2,2.5,16.4c-1.4,1.9-3.4,3.4-5.4,4.6c-6.1,3.8-11.9,8.3-18.5,10.9c-17.7,7.1-36.5,8.2-55.2,9.2
	c-3,0.1-6.1-0.4-9,0.1c-10.3,1.8-20.2,0-30.2-2c-5.3-1-10.7-3.5-15.7-2.7c-6.4,0.9-12.4,4.4-18.6,6.8c-1.6,0.6-3.1,1.4-4.7,1.7
	c-0.8,0.2-1.8-0.3-2.6-0.6c0.3-0.8,0.2-2.1,0.8-2.6c3.6-2.4,7.1-5.4,11.1-6.9c5.9-2.3,11.6-4.7,18.6-3.1c11.1,2.6,22.2,4.7,33.8,4.5
	c18.6-0.4,37.1-1.4,55.4-5.1c13.5-2.7,25.6-7.6,35.3-17.6c2.5-2.5,2.7-4.5,0.6-7.6c-3.7-5.4-9.8-9.4-9.7-17c0-0.4-1.1-0.9-1.7-1.1
	c-5.1-2.2-10.1-4.7-15.4-6.3c-7-2.2-14.1-4.4-21.3-5.3c-7.5-0.9-13.7-2.5-16.4-10.5c-0.5-1.3-1.5-2.5-2.5-3.5
	c-2.5-2.7-5.4-5-7.7-7.8c-9.8-12.6-22.2-22.5-34-33c-10-8.8-19.9-17.9-29.8-26.8c-6.3-5.6-12-12.2-19.1-16.7
	c-11.2-7.2-23.6-12-37.5-11.9c-13.8,0-27.6,0.1-41.3,2.8c-7.4,1.5-15.4,0.5-23,1.3c-6.3,0.8-12.6,2.5-18.8,4
	c-0.9,0.1-1.6,0.9-2.4,1.4c0.9,0.5,1.8,1.2,2.9,1.5c4.9,1.1,9.8,1.8,14.7,3c16.5,4.2,30.1,12.2,38.1,28.1c2.8,5.7,6.3,11,9.2,16.7
	C359.3,359.7,360,362.9,360.5,366 M527.5,17c-7.1,0.7-14.2,1.8-21.4,1.9c-39.9,0.9-79.9-1.6-119.7,2.9c-13.5,1.5-27.2,0.9-40.8,1.2
	c-20.5,0.4-41,0.6-61.6,1c-12.4,0.3-24.8,0.7-37.2,1c-19.6,0.4-39.2,0.5-58.8,1.1c-13.6,0.3-27.1,1.4-40.7,1.9
	c-14.2,0.5-28.4,0.7-42.6,1c-6.8,0.1-13.7,0.3-20.6-0.1c-8.7-0.4-17.4-1.5-26-1.8c-13.2-0.6-26.4-0.8-39.6-1.1
	c-6.1-0.1-7.7,1.6-7.5,8.5c0.5,14,1.9,28.1,1.8,42.1c-0.1,19.1-1.2,38.1-1.8,57.1c-0.7,21.2-1.4,42.4-2,63.6
	c-0.4,12.4-0.7,24.9-1,37.3c-0.1,5.8,0.1,11.7-0.1,17.5c-0.2,8.7-0.7,17.4-0.8,26.1c-0.1,0.9,1.1,2.6,1.9,2.7c7.4,0.8,13-4,18.7-7.6
	c1.7-1,1.7-5.1,2.2-7.8c0.5-2.4,0.7-4.8,1.1-7.1c0.7-5.1,3.3-7.7,6.5-7.4c3.7,0.3,7.5-0.1,11.2,0c2.1,0.1,5.3-1.1,5.2,2.6
	c-0.1,9.1-0.7,18.1-0.9,27.1c0,2.7,0,5.9,1.4,7.9c1.6,2.2,9.7,0,11.3-2.9c1.7-3.2,3.3-6.7,4.2-10.2c0.9-3.9,2.8-5.5,6.6-5.5
	c10.7,0.1,21.4-0.2,32,0.1c3.9,0.1,8.2,0.4,11.7,1.8c13.7,5.6,27.2,11.8,40.8,17.5c2.6,1.1,5.9,2.1,8.4,1.4c6.7-1.8,13-5.1,19.7-6.7
	c15.4-3.7,31-6.5,46.3-10.2c9.7-2.3,19.2-2.6,28.8-0.9c7.8,1.4,15.4,3,20.4,10c0.6,0.9,1.8,1.7,2.7,1.8c4.2,0.1,8.3,0.1,12.5-0.1
	c9.9-0.5,19.8-1.2,29.8-1.7c7.8-0.4,15.7-0.7,23.6-1c9.2-0.3,18.4-0.9,27.6-1c35.8-0.4,71.7-0.6,107.5-1c19.3-0.2,38.7-0.6,58-1
	c17.7-0.3,35.4-0.7,53.1-1c12.7-0.1,25.4,0.4,38.1-0.2c4.7-0.3,9.2-3.5,14-4.7c11-2.9,22-5.6,33.2-8c4.6-1,9.5-1.9,14.1-1.6
	c6.6,0.6,13.1,2,19.5,3.6c6.4,1.6,13.1,3.2,18.9,6.1c5.7,2.9,11,5.9,17.6,4.8c2.3-0.4,4.7-0.9,7.1-0.9c4.6,0,9.3,0.6,13.9,0.5
	c14.2-0.4,28.3-1.2,42.5-1.6c16.2-0.4,32.4-0.6,48.6-1c14.7-0.3,29.4-0.6,44.1-1c10.2-0.3,20.4-0.5,30.5-1.2
	c1.6-0.1,4.2-2.4,4.3-3.8c0.2-4.5-0.5-9.1-0.8-13.6c-0.2-3,0.6-5.3,4.1-5.4c3.6-0.1,7.4-0.6,10.9,0.2c3.1,0.7,8-0.7,8.8,4
	c0.6,3.2,0,6.8-0.7,10.1c-1.8,7.5,0.4,12.3,6.7,13.7c1.8,0.4,3.7,0.7,5.5,1c18.7,2.6,37.2,5.8,55.1,11.9c2.7,0.9,4.6,0,4.6-3.7
	c0.2-14.9,0.8-29.9,0.9-44.9c0.2-13,0.1-26,0.1-39c0-9.8-0.2-19.6,0-29.4c0.1-7.8,0.9-15.6,0.9-23.4c0.2-23.5,0-47,0.1-70.5
	c0.1-7.2,1.2-14.5,0.8-21.7c-0.3-5-1-9.5,2.1-14c0.7-1.1,0.6-3.5-0.1-4.8c-2.7-5.4-1.3-10.6,0.1-15.9c2-7.6-0.2-12.8-6.9-13.4
	c-12-1.1-24-1.3-36-1.7c-5.6-0.2-11.3,0.3-16.9,0c-9.4-0.3-18.8-1.3-28.2-1.4C946.3,7,935.8,7.6,925.3,8c-26.2,1-52.4,2.3-78.6,2.9
	c-25.8,0.7-51.5,0.9-77.3,1.1c-17.9,0.1-35.9-0.1-53.8,0c-23.7,0.2-47.4,0.6-71.1,1c-10,0.2-19.9,0.7-29.9,1
	C585.9,15,557.2,16,527.5,17 M836.5,526c-30,0-60,0.1-90,0c-5-0.1-10.1-0.6-15.1-1c-3.9-0.3-7.9,0-11.5-1.1
	c-12.3-3.9-24.4-0.9-36.4,0.3c-10.1,1.1-19.9,3.1-29.9,0c-4.2-1.3-5.6-0.1-5.6,4.5c0,5.2-0.3,10.4,0,15.5c0.6,9.4-3.2,17.5-7.3,25.5
	c-2.6,5.1-5.5,9.6-7.2,15.5c-4,13.5-1.1,27.4-4.5,40.6c-0.6,2.5,0.4,3.4,3.1,3.3c5.9-0.3,11.8,0,17.6-0.1
	c12.4-0.3,24.8-0.8,37.1-0.9c7-0.1,14.1,0.8,21.1,0.9c29.8,0.1,59.7-0.1,89.5,0.1c13.1,0,26.3,0.6,39.4,0.9
	c14.9,0.4,29.9,0.7,44.8,1c15.4,0.3,30.9,1.1,46.4,0.9c25.3-0.3,50.5-1.2,75.8-1.9c12.5-0.3,25.1-0.7,37.6-0.9
	c2.9-0.1,3.8-1.2,3.6-3.9c-0.4-3.9-1-7.8-1-11.7c0.2-17.1,0.7-34.1,0.9-51.1c0.2-10.8,0-21.7,0.1-32.5c0-3.2-1.3-4.8-4.6-4.9
	c-9.9-0.3-19.7-1.1-29.6-0.9c-18.1,0.3-36.2,1.4-54.3,1.8c-5.7,0.2-11.4-0.9-17.1-0.8c-11.7,0.1-23.4,0.7-35.1,0.9
	c-10,0.1-20,0-30,0C862,526,849.8,526,836.5,526 M1045,683.5c0-3.8-0.1-7.7,0-11.5c0-3.4-0.8-5.3-4.9-5.1c-10.7,0.6-21.5,1.4-32.2,1
	c-16.4-0.8-32.6-2.6-48.9-3.9c-7-0.5-14-0.7-21.1-1c-15.5-0.7-31.1-1.6-46.6-1.9c-29.5-0.6-58.9-1.1-88.3-1
	c-39.2,0-78.4,0.7-117.6,0.8c-14.2,0.1-28.3-0.6-42.5-0.9c-19.8-0.4-39.6-0.8-59.3-0.9c-11.7-0.1-23.4,0.5-35.1,0.9
	c-9.1,0.3-18.1,0.7-27.1,1c-14.2,0.4-28.4,0.8-42.6,1c-14.4,0.1-28.8,0-43.2,0c-5.5,0-11,0.1-16.5,0c-2.8-0.1-5.9-1.4-8.5-0.9
	c-10.5,2.4-20.7,5.7-31.2,7.9c-10.1,2.1-20.3,3.4-30.5,5c-5.7,0.9-11.6,1.6-17.3,2.9c-13.8,3.2-25.3,11.3-37.6,17.7
	c-5.3,2.7-10.4,5.5-15.5,8.5c-0.8,0.5-1,2.2-1.5,3.3c1,0.2,2.1,0.6,3.1,0.6c2.9-0.2,5.8-1.1,8.6-0.9c8.9,0.4,17.8,1.4,26.7,1.9
	c10.2,0.5,20.4,0.7,30.6,1c15,0.4,30,0.6,45.1,1c7.7,0.2,15.4,0.7,23.1,1c9.9,0.4,19.8,0.9,29.7,1c19.8,0.1,39.7-0.2,59.5,0
	c34.4,0.4,68.9-1.2,103.3,1.9c10.3,1,20.8,0.8,31.1,1.1c10.2,0.3,20.4,0.7,30.6,1c13.1,0.4,26.2,0.9,39.2,1c34.2,0.1,68.3,0,102.4,0
	c8.8,0,17.6,0.1,26.3,0c25.2-0.3,50.3-0.9,75.5-0.9s50.5,0.6,75.7,0.9c7.2,0.1,14.3-0.2,21.5,0.1c8.6,0.4,17.1,1.6,25.7,1.7
	c2.4,0,6.7-2.3,7-4.1C1043.3,704.7,1044,694.6,1045,683.5 M484,362.5c4.7,4.7,9.3,9.4,14.1,14.1c7.4,7.2,14.5,14.9,22.6,21.2
	c4.5,3.5,10.5,6.4,16.8,3.2c6.7-3.5,13.2-7.4,20-10.9c5.7-3,11.5-5.9,17.5-8.4c1.2-0.6,3.1,0.3,4.7,0.5c-1.1,1-2.1,2.1-3.3,2.8
	c-3.5,2.1-7,4.1-10.5,6c-7.1,3.7-14.3,7.3-21.4,11.1c-1,0.5-1.7,1.6-2.5,2.4c0.9,0.5,1.8,1.2,2.9,1.5c3.7,1.1,7.6,1.7,11.2,3.1
	c9,3.6,17.8,7.6,26.8,11.2c0.8,0.4,2.8-0.2,3-0.8c2.8-8.5,9.6-11.5,17.6-12.4c6.6-0.8,7.9-2.4,6.5-8.7c-2.4-10.4-3.6-21.1,0.1-31.4
	c1.5-4.1,4.7-7.5,3.9-12.4c-0.6-4.3-0.7-8.7-1-13.1c-0.4-6.3,7.9-19.1,15.3-20.7c4.8-1,9.3-3.8,14-5.8c1.3-0.5,2.5-1.4,3.8-1.6
	c4-0.6,8.2-0.6,12.1-1.5c4.9-1,9.6-2.4,14.3-4c3.2-1.1,4.2-3.4,3.1-6.8c-1.5-4.5,0.2-7.5,4.3-9.6c9.2-4.8,17.8,3.8,17,11.3
	c-0.3,3.3,0.5,4.3,4.1,4.3c8.6,0.2,17.1,1.6,24.6,6.1c8.2,5.1,16.9,9.2,23.9,16.3c5.4,5.5,10.1,10.7,12.5,17.9
	c1.8,5.7,3.9,6.5,10.2,5c5-1.2,8.9,1,12.3,4.6c2.8,3,3.2,6.5,1.4,10c-2.4,4.8-6.1,8.4-11.8,9.1c-0.7,0.1-1.9,1-1.9,1.6
	c-0.3,6,0.3,12.2-0.8,18c-0.6,3.7,0.8,5.1,3.1,6.2c10.5,4.8,12.6,15.4,4.7,22.5c-3.2,3-6,6.7-8.1,10.6c-3.8,6.8-9.4,12.2-16.7,11.6
	c-7.5-0.7-14.1,0.9-21.1,2.3c-5.2,1-10.7,0.4-16,1.2c-9.3,1.4-18.5,2-27.5-1.7c-2.8-1.2-4.9-0.5-6.6,2.7c-1.6,2.9-3.9,5.7-6.6,7.6
	c-3.2,2.3-7.1,3.7-10.8,5.3c-4.4,1.9-1.8,5.4-1.6,8.1c0,1,2,2.4,3.3,2.8c1.7,0.5,3.6,0.3,5.4,0.1c9.5-1,18.9-2.4,28.3-2.9
	c7.2-0.3,14.4,0.7,21.6,0.9c6.9,0.2,13.6,1.1,19.5,4.9c10.8,6.9,22.9,9.7,35.4,11c13.7,1.4,26.9-0.9,39.3-7.4
	c13.2-6.9,26.8-12.1,42.2-10.6c6.8,0.7,13.7,1,20.6,1c9.2,0.1,11.3-2.2,11.1-11.3c0-1.4-0.8-2.7-0.9-4.1c-0.1-2.6-0.1-5.1,0-7.7
	c0.1-0.6,1-1.2,1.5-1.8c0.5,0.6,1.4,1,1.6,1.7c1.4,4.1,2.6,8.3,3.9,12.4c0.2,0.7,0.9,1.8,1.4,1.8c8.5-0.2,17-0.5,25.6-1
	c0.7,0,1.3-1.1,2-1.8c-0.7-0.5-1.3-1.2-2-1.5c-3.3-1.3-6.7-2.4-10-3.6c-12.5-4.2-17.7-12.6-14.9-23.6c2.9-12,0.5-19.2-12.9-23.6
	c-4.2-1.3-8.8-1.8-13.1-3.3c-7.7-2.6-15.4-5.3-22.9-8.6c-3.4-1.5-4.1,0.3-4.1,2.4c-0.4,9-4.4,16.6-9.2,23.7c-4.6,7-10,13.4-18.9,15
	c-0.9,0.1-2-0.3-3-0.4c0.6-0.9,1-1.9,1.8-2.6c2.1-1.7,4.6-3,6.4-4.8c13-12.9,20.9-27.4,14.7-46.2c-2-6.3-4.6-12.5-7.1-18.6
	c-0.4-0.9-1.8-1.3-2.8-1.9c-0.3,1-0.9,2-1,3c-0.1,3.9,0.7,8-0.2,11.7c-2.2,9.8-6,19-13.1,26.5c-1.1,1.1-2.9,1.4-4.4,2.1
	c0.4-1.6,0.4-3.3,1.2-4.7c8.2-14.5,13.6-29.4,9.6-46.6c-3.1-13.4-8.3-24.9-21.8-30.7c-3.8-1.6-7.6-3.3-11.3-5.3
	c-12.4-6.6-22.3-16.3-32.1-26.1c-15.6-15.5-35.1-22-56.3-23.1c-8.7-0.5-17.5,2.4-26.3,3.7c-17.7,2.7-33.1,10-45.6,22.8
	c-12.3,12.6-24.2,25.7-36.5,38.3c-4.5,4.7-9.5,8.9-14.6,12.8c-10.2,7.8-21.7,13.1-34.3,14.9c-9.5,1.4-19.2,3-28.8-0.7
	C503.2,357.6,493.7,357.4,484,362.5 M958.5,520c17.8-0.3,35.7-0.8,53.6-0.9c8.9-0.1,17.8,0.7,26.7,0.9c3.2,0,5.4-0.9,5.3-5.2
	c-0.9-21.8-1.5-43.5-2.1-65.3c-0.1-4.1,0.4-8.3-5.5-8.6c-0.8,0-1.4-1.4-2.2-2c-1.9-1.7-3.6-3.8-5.9-4.8c-6.3-2.8-13.2-4.5-19.3-7.6
	c-14.9-7.7-29.3-16.1-44.1-23.9c-11.5-6-23.6-10.4-37-9.7c-3.9,0.2-7.7-0.5-11.6-1c-9.1-1.2-18.2-3.1-27.4-3.7
	c-9.4-0.7-18.9-0.1-28.4-0.2c-3.9-0.1-7.8-0.8-11.6-0.9c-1-0.1-2,0.8-2.9,1.3c0.9,0.5,1.7,1.2,2.6,1.6c12.1,4.5,24.1,8.8,36.8,11.4
	c12.8,2.7,24.2,10.8,20.6,30.1c-2,11.1-0.5,12.7,9.9,18c4.1,2.1,9.2,3.4,12.1,6.6c5.3,5.7,11.7,8.6,18.9,10.3c4.2,1,8.6,1,12.8,1.7
	c0.8,0.1,1.5,1.4,2.2,2.1c-0.9,0.6-1.8,1.8-2.6,1.7c-5.8-0.3-11.7-0.6-17.4-1.5c-5.7-0.8-11.3-2.9-17.1-3.2
	c-7.3-0.4-14.7,0.3-22,0.9c-1.7,0.1-3.6,1.3-4.9,2.5c-8.7,8-19.2,7.9-29.8,7.1c-9.1-0.7-18.3-2.7-27.2,0.4
	c-8.8,3.1-17.4,6.8-26.1,10.5c-8.6,3.7-17.5,6.2-26.8,6.3c-5.4,0-10.8-1.4-16.2-1.9c-9.2-0.7-18-2.7-25.8-7.6
	c-9.8-6-20.6-8.2-31.6-8.2c-15.6,0.1-31.1,1.8-46.7,2.8c-0.6,0.1-1.6,0.2-1.8,0.5c-2.4,4.8-5.1,9.6-6.9,14.6
	c-2,5.5-3.2,11.4-4.8,17.1c-0.5,1.9-1,3.9-1.2,5.9c-0.1,0.6,0.7,1.8,1.3,1.8c3.3,0.5,6.7,1.3,10,1c10.6-0.7,21.2-2.8,31.8-2.7
	c16.7,0.2,33.5,2.6,50.2,2.7c55.9,0,111.7-0.6,167.6-0.9C928.5,519.9,943,520,958.5,520 M190.5,655c-1.2-0.3-2.4-1-3.6-0.9
	c-4.3,0.2-8.5,0.7-12.8,0.9c-8.8,0.4-17.7,0.6-26.5,1c-10,0.6-19.9,1.5-29.8,2c-15.1,0.8-30.3,1.3-45.4,2c-7.6,0.3-15.3,0.6-23,1
	c-10.7,0.6-21.5,1.2-32.2,2.2c-1.5,0.1-4,2.6-4,4c-0.4,9.2-0.1,18.3-0.3,27.5c0,4.1,2.9,4.9,5.7,5.2c7.9,0.9,15.8,1.6,23.7,2.1
	c10.2,0.5,20.4,0.7,30.5,1c13.7,0.4,27.4,0.8,41.1,1c11.3,0.1,22.7-0.1,34,0c23.3,0.3,46.7,0.8,70,1c15.4,0.1,30.7,0.1,46-0.1
	c1.6,0,3.6-1.6,4.5-3c1.1-1.6,1.5-3.9,1.5-5.9c-0.3-13.9-2.9-27.4-6-40.9c-0.3-0.9-2.1-2-3.3-2c-6.7-0.2-13.5-0.2-20.3-0.1
	c-14.8,0.3-29.7,0.7-44.5,1C194.2,654.1,192.6,654.3,190.5,655 M667.5,445c7.5-0.7,15.8-3.6,22.5-1.5c13.7,4.2,26.8,1.4,40.2,0.5
	c9.2-0.6,15.2-6.4,20.4-13.2c2.2-2.9,1.9-6.1-0.4-9.2c-2.2-2.8-3.9-6.2-6.3-8.8c-4.8-5.4-9.5-11.3-15.2-15.6
	c-8.7-6.4-18.3-11.3-27.2-17.4c-5.6-3.7-11.4-6.2-17.8-7.9c-8-2.2-16.6-2.3-23.8-7.8c-8.5-6.5-17.7-11.9-20.8-23.3
	c-1.4-4.9-4.8-5.1-8.9-1.6c-6.1,5.3-8.8,12.4-11,19.9c-3.1,10.7-7.7,21-5.2,32.5c0.8,3.8,2.5,7.5,2.9,11.3
	c1,10.2,5.6,18.7,12.5,25.7c4.1,4.1,10.7,5.5,14.8,9.6C650.7,444.6,658.6,444.4,667.5,445 M948,370.5c-0.4-16-0.7-32-1-48
	c-0.1-1.9-0.2-3.7,0-5.5c0.5-3.9-0.9-5.3-4.9-5.1c-12.4,0.9-24.8,1.4-37.2,2.1c-9.7,0.6-19.4,1.4-29.1,2c-12.4,0.7-24.8,1.4-37.1,2
	c-7.7,0.4-15.4,0.7-23.1,1c-2.1,0.1-4.1-0.2-6.1,0.1c-1.6,0.3-3,1.2-4.5,1.8c1.4,0.7,2.8,1.4,4.3,2.1c0.4,0.2,0.7,0.6,1.1,0.9
	c6.9,5.6,11.5,12.6,13.7,21.3c0.9,3.7,1.8,8.4,4.4,10.4c7.8,5.9,11.9,13.6,14.5,22.6c1,3.2,3.1,5,7.2,4.9
	c13.8-0.3,27.6-0.1,41.5-0.1c1.3,0,2.6,0,3.9,0.2c8.8,1.2,17.6,2.6,26.4,3.8c6.7,0.8,13.4,1.3,20.1,2c3.9,0.5,6.1-0.6,5.9-5
	C947.8,379.8,948,375.7,948,370.5 M642.5,334c0.4,0.5,1.3,0.9,1.3,1.4c0.8,8.2,5.8,13.9,11.8,18.6c6.5,5,12.9,10.1,21.9,11.3
	c7.8,1,15.8,3.5,22.9,7c8.5,4.3,16,10.4,24,15.7c13,8.4,24.8,17.9,30.9,32.7c0.1,0.3,2.2,0.2,2.6-0.3c6.4-8.2,7.4-18.2,8-28.1
	c0.6-11,0.9-22.1-5.2-32.3c-2.4-3.9-3.2-8.6-5.1-12.8c-5.4-11.8-14.6-19.9-26.2-25.1c-7-3.1-13.2-8.4-21.4-8.6
	c-4.6-0.2-9.4,0.3-13.7-0.9c-6.9-1.7-13.4-3.8-20.1,0.4c-1.5,0.9-3.1,1.5-4.7,2c-8.4,2.2-17,4-23.8,10
	C643.2,327.2,639.3,329,642.5,334 M424,308.5c1.4,1.1,2.9,2,4.1,3.2c2.9,2.7,6.2,3.9,10.2,3.3c2-0.3,4-0.9,6.1-1c11-0.4,22-0.5,33-1
	c9.2-0.5,18.5-1.3,27.7-2c13.1-1,26.1-2.1,39.2-3c13.1-0.8,26.2-1.2,39.3-2c8.3-0.5,16.5-1.2,24.7-2.1c1.5-0.1,3.2-1.2,4.5-2.3
	c6.2-5.4,12.4-11,18.5-16.6c0.9-0.8,1.6-1.8,2.5-2.7c-1.4-0.4-2.7-1.3-4-1.2c-3.7,0.4-7.4,1.6-11.2,1.8c-10.1,0.6-20.3,0.9-30.5,1.1
	c-33.1,0.4-66.3,0.7-99.4,1c-13.7,0.1-27.4-0.2-41.1,0c-30.6,0.6-61.2,1.3-91.8,2c-20.5,0.6-40.9,1.4-61.3,2c-5.9,0.2-5.9,0-3.5,4.6
	c0.7,1.2,1,2.8,2,3.6c1.7,1.2,3.9,2.8,5.7,2.6c5.7-0.5,11.4-2.1,17.2-2.7c13.9-1.6,27.9-3.1,41.8-4c9.3-0.6,18.8-1,28,0.1
	C399.4,294.8,412,300.3,424,308.5 M767.5,296c5.7,4.7,11.1,9.8,17.2,14c5.4,3.8,11.3,6.8,18.5,6c10.3-1.1,20.8-2.1,31.2-3
	c9.8-0.8,19.7-1.4,29.6-2c16-1,31.9-2.1,47.9-3c10.3-0.5,20.7-0.8,31-0.9c3.5,0,4.3-1.4,4.1-4.4c-0.4-6.9-0.9-13.7-0.9-20.6
	c-0.1-3.4-1.3-4.3-4.4-4.1c-6.4,0.4-12.7,0.7-19.1,1c-8.9,0.4-17.8,0.7-26.7,1c-12,0.4-24,0.8-36,1c-20.7,0.4-41.3,0.8-61.9,1
	c-13.7,0.1-27.4,0-41.1,0.1c-1.2,0-2.4,0.7-3.6,1c0.6,0.9,1.1,1.9,1.8,2.5C759,288.9,763,292.2,767.5,296 M1040.5,351
	c-1.1-1-2-2.5-3.2-2.9c-11.1-3.4-22.3-6.5-33.5-9.7c-9.6-2.8-19.2-5.8-29-8.3c-2.4-0.6-5.5-1.2-4.9,3.8c1,9.5,1.4,19.1,2.1,28.6
	c0.7,10.4,1.4,20.8,1.8,31.2c0.1,1.4-1.5,2.9-2.5,4.3c-0.4,0.5-1.3,0.5-2,0.8c0.6,0.4,1.2,0.9,2,1.2c3.5,1.5,7.3,2.5,10.6,4.5
	c14.6,9.1,29.1,18.2,46,22.7c4.1,1.1,8.8,2.7,10.1,8.1c0.3,1,1.4,1.8,2.1,2.7c0.6-1.2,1.8-2.3,1.8-3.5c0-2.9-0.9-5.7-0.9-8.6
	C1040.9,401.1,1041,376.3,1040.5,351 M597.5,319c2.4-2.4,4.9-4.9,7.3-7.4c0.5-0.5,0.8-1.3,1.2-2c-0.7-0.2-1.5-0.5-2.2-0.6
	c-1.3-0.1-2.7-0.1-4,0c-7.1,1-14.1,2.3-21.2,2.9c-8.4,0.7-16.8,0.6-25.1,1.1c-17.8,1.3-35.6,2.8-53.5,4c-13.3,0.8-26.7,1.5-40.1,1.9
	c-6.2,0.2-12.4-0.6-18.6-0.8c-1.3-0.1-2.7,0.7-4,1.1c0.7,0.9,1.3,2,2.2,2.8c4.6,4.4,9.3,8.7,14,13.1c7.7,7,15.3,14.2,23.2,20.9
	c1.5,1.3,4.7,1.5,6.7,0.9c6.5-2.1,12.6-4.8,20-3.1c12.1,2.7,23.9,5.9,37,2.6c14-3.6,26.2-9.1,36.7-19
	C583.6,331.3,590.3,325.5,597.5,319 M231,420.5c-0.7-1.7-1.3-3.5-2.1-5.2c-0.5-1.1-1.3-2.2-2-3.3c-0.6,1.3-1.5,2.6-1.9,3.9
	c-1.1,4.8-1.8,9.6-3.1,14.2c-0.6,2-2.5,3.7-3.9,5.3c-0.8,0.9-2,1.5-3,2.2c1.4,0.5,2.7,0.8,3.9,1.4c8,3.7,16.1,7.2,23.9,11.2
	c1.3,0.6,1.5,3.3,2.2,5.1c-1.6-0.1-3.3,0.1-4.6-0.5c-6.4-2.8-12.3-6.6-18.9-8.6c-10.2-3-20.7-4.9-31.1-7.2c-0.7-0.1-1.5,0.3-2.3,0.4
	c0.5,0.6,1.1,1.1,1.5,1.8c3.8,6.2,7.5,12.5,11.4,18.7c2.6,4.2,1.7,10.2,6.6,13.3c4.8,2.9,9.5,6,14.4,8.8c6,3.4,12.5,4.3,19.3,5.4
	c8.8,1.4,16,0.2,21.8-6.2c6.5-7.3,11.2-15.6,10.9-25.9c-0.1-4.7,0.2-9.4-0.1-14c-0.6-9-2.8-17.5-6.7-25.7c-1.3-2.9-2.8-3.1-5.2-2.1
	c-7.2,3-14.2,6.4-19.3,12.5c-1,1.2-1.2,3.6-0.8,5.3c1.1,4.7,2.8,9.2,4,13.8c0.2,0.9-0.5,1.9-0.8,2.9c-0.7-0.7-1.7-1.4-2.1-2.3
	C239.1,437.5,235.3,429.3,231,420.5 M28.5,417c0.5,1.8,1.9,4,1.3,5.3c-3.1,6.6-1.5,13.2-0.9,19.8c1.1,12.4,5.2,23.4,14,32.2
	c7.2,7.3,14.6,14.4,22.2,21.2c3.8,3.4,7.9,6.5,13.7,5.6c3-0.4,6.5-0.3,9.3,0.7c6.9,2.7,13.5,6.1,20.3,9c1.5,0.7,3.3,0.8,5,1.2
	c0.2-1.7,0.5-3.5,0.5-5.2c0-0.7-0.4-1.5-0.8-2.1c-3.4-6.6-6.4-13.4-10.2-19.8c-11.6-19.6-27.1-35.7-45.1-49.6
	c-10-7.8-20.1-15.6-25.7-27.6c-0.3-0.7-1.1-1.1-1.7-1.7c-0.4,0.8-1.2,1.6-1.4,2.4C28.6,411.1,28.3,413.8,28.5,417 M986.5,326
	c0.5,0.2,1.1,0.5,1.7,0.7c15.8,4.8,31.6,9.6,47.5,14.2c2.3,0.7,4.5,0.8,4.4-3.4c-0.1-8.9,0.5-17.9,0.9-26.8
	c0.3-8.3-1.5-12.7-6.3-14.4c-1.3-0.5-2.7-0.7-4-1.1c-8-2-15.9-4.4-23.9-6.1c-9.1-2-18.3-3.2-27.3-5.1c-8.3-1.8-11.5,0.5-11.5,8.9
	c0,8,0,15.9-0.1,23.9c0,3.5,1.2,5.6,4.8,6.3C977,323.9,981.2,325,986.5,326 M262.5,407c-1-3.6-1.5-7.4-3-10.8
	c-2.3-5.5-5.5-10.7-7.9-16.2c-1.1-2.7-0.9-5.9-1.7-8.8c-2.6-9.9-7.5-18.1-18.2-20.9c-3.9-1-8.5-0.6-12-2.4c-5-2.6-9.2-2.3-13.7,0.5
	c-0.7,0.5-1.3,1.1-2,1.6c0.8,0.6,1.5,1.5,2.4,1.9c2.1,0.9,4.6,1.2,6.4,2.5c9.1,6.8,8.7,16.5,8,26.4c-0.3,3.3-0.6,7.2,0.7,10
	c4.2,9.2,9.1,17.9,13.6,26.9c1.8,3.7,3.4,3.3,6.7,1.2C248.3,414.7,255.2,411.3,262.5,407 M8,372.5c-0.4,1-1,2.1-1,3.1
	c0.3,5.9,0.8,11.8,0.9,17.7c0.2,11,0.1,22,0,33c0,1.9,0.2,3,2.6,2.7c5.2-0.6,11.7-6.1,12.4-10.9c0.4-2.6-0.2-5.4,0.2-8
	c0.2-1.9,0.7-4.6,2-5.5c5.2-3.4,7-6.9,6.2-13.8c-1.7-15.1-1.8-30.4-2.3-45.7c-0.1-4.8,0.7-9.7,0.9-14.5c0.1-1.4-0.6-2.8-0.9-4.1
	c-1,0.6-2,1.2-2.9,1.9c-3.2,2.5-6.8,4.8-9.7,7.8c-3.2,3.3-8.5,5-8.8,10.7c-0.1,2.2,0.3,4.5,0.4,6.8C8,359.6,8,365.6,8,372.5
	 M44.5,393c0.5-1.6,1.4-3.2,1.4-4.9c0.4-19.5,0.8-39,1.1-58.5c0-3.9-0.1-7.8,0-11.7c0.3-7.3,0.7-14.7,1-22.1c0.4-11.3,0.7-22.7,1-34
	c0-2.2,0.6-4.7-3.1-4.9c-5.8-0.3-9.6,1.2-9.9,4.8c-0.8,8.8-1.6,17.7-2,26.6c-0.5,15.4-1.2,30.8-0.9,46.2c0.4,18.1,2,36.2,2.8,54.3
	C36.3,397.2,36,397.2,44.5,393 M963.5,325c-0.2-9-0.4-18-0.5-26.9c-0.1-12.4,0.1-24.7-0.1-37c-0.1-1.4-1.5-3.5-2.8-4
	c-6.3-2.3-9.1-1.1-9.1,6.7c0.2,16.2,0.6,32.4,1,48.6c0.2,10.7,0.5,21.4,0.9,32c0.3,6.5,1,12.9,1,19.3c0,5-0.2,10.1-1,15
	c-1.4,8.9,1,15,10.5,17.3c2.6,0.7,4,1.6,3.6-2.3c-0.8-11.2-1.5-22.4-2-33.6C964.5,348.6,964.3,337,963.5,325 M211,403.5
	c-1-3.9-2-7.8-3.1-11.7c-0.2-0.7-0.9-1.2-1.4-1.8c-0.5,0.4-1.2,0.8-1.5,1.3c-3,6.2-8.8,8.6-14.8,9.6c-7.8,1.2-15.3-0.2-21.6-5.6
	c-1.2-1-3.5-0.7-5.3-1.1c-0.1,1.8-0.8,3.9-0.1,5.3c0.6,1.2,2.7,1.8,4.3,2.5c2.1,0.9,5.1,1,6.3,2.6c3.7,4.9,7.7,8.4,14.4,7.5
	c0.5,0,1.9,1.9,1.7,2.3c-1.7,3.6-9.2,4.6-12.2,1.8c-2.3-2-4.7-4-7-6c-0.4-0.3-0.9-0.7-1.4-1c0,0.6-0.2,1.3,0.1,1.7
	c4.1,6.4,7.6,13.3,12.6,18.9c4.8,5.4,13,3.9,18.1-1.3C206.8,421.8,211.6,414.4,211,403.5 M7,314.5c0,6.3-0.1,12.7,0,19
	c0,1,0.7,2,1,3c0.5-0.1,1.1-0.2,1.4-0.5c6.1-5.3,12.3-10.6,18.1-16.3c1.5-1.4,2.4-4.2,2.4-6.4c-0.1-9.7-0.8-19.4-0.8-29
	c-0.1-4-1.5-4-4.3-2.6c-4.7,2.4-9.2,5.4-14.2,6.9c-3.4,1-3.7,2.6-3.7,5.4C7,300.5,7,307,7,314.5 M521.5,629c2.6,0,5.3,0.1,8,0
	c1.4-0.1,2.8-0.5,4.3-0.7c-1.5-0.8-3.1-1.5-4.6-2.3c-0.1,0-0.3,0-0.5,0c-9.6-1.5-18.8-3.8-27-9.6c-10.1-7.2-25.5-4.2-31.8,3.9
	c-2.8,3.7-6.8,6.4-10.3,9.6c-0.9,0.8-1.6,1.8-2.5,2.8c1.4,0.1,2.7,0.4,4.1,0.3c2.2-0.2,4.3-0.8,6.6-1C485.3,631,502.9,630,521.5,629
	 M134.5,446c1.3,1.6,2.6,3.3,3.8,4.9c0.6,0.7,1.1,1.5,1.7,2.3c-1,0.3-2,0.7-3,0.8c-1.3,0-2.9,0.2-3.8-0.4c-3.2-2.1-6.4-2.4-9.2,0
	c-2.6,2.3-1.7,5.4-1.2,8.7c2.5,17.2,11.5,20.2,23.9,24.7c0.6,0.2,1.3-0.1,1.9-0.2c-0.1-0.6-0.1-1.4-0.4-2c-4.4-7.9-4.1-15.8-0.7-24
	c0.7-1.5-0.1-4.1-1.1-5.7c-2-3.5-5-6.5-6.8-10.1c-2.9-5.7-6.4-9.5-13.3-8c-1.5,0.4-4.1,1-4.1,1.5c-0.1,2.2,0.3,4.6,1.4,6.3
	c0.5,0.8,3.2,0.1,4.9,0.2C130.3,445.1,132.2,445.3,134.5,446 M1042.5,662c0.8-2.1,2.2-4.3,2.4-6.5c0.3-5.8,0.1-11.6,0-17.5
	c0-1-0.4-2-0.7-3c-0.9,0.7-1.9,1.2-2.6,2c-3.3,3.8-6.5,7.6-9.6,11.5c-2,2.5-3.9,5-5.6,7.7c-1.2,1.9-1.8,5.2-4.6,3.5
	c-1.1-0.6-0.3-4.3-0.3-6.7c0-0.3,0.7-0.7,1-1c4.3-4.3,8.7-8.7,13-13c0.8-0.8,1.4-1.9,2.2-2.8c-1.4-0.4-2.7-1.2-4.1-1.1
	c-2.5,0.1-5.1,0.3-7.5,1c-2.2,0.6-4.9,1.2-6.3,2.8c-6.1,7-11.9,14.3-17.8,21.6c-0.3,0.3-0.7,0.7-1,1c0.6,0.2,1.2,0.5,1.8,0.5
	c6,0,12-0.1,18,0c4.7,0.1,9.8,1.4,11.3-5.4c0.2-1.1,1.6-2.2,2.7-2.8c1.2-0.7,2.7-0.9,4.1-1.4c-0.4,1.8-0.5,3.8-1.3,5.4
	c-0.8,1.4-2.4,2.3-3.6,3.4c1.6,0.3,3.3,0.6,5,0.8C1039.8,662.1,1040.6,662,1042.5,662 M69,304.5c0.3-4,0.7-8,0.9-12.1
	c0.1-1.4-0.3-2.9-0.5-4.4c-0.8,1.4-2,2.6-2.4,4c-2.1,8.7-4.1,17.3-6,26c-3.1,13.8-3.4,27.6,0.1,41.3c2,7.9,5.2,15.5,7.9,23.2
	c0.3,0.9,0.9,1.6,1.4,2.4c0.2-0.8,0.6-1.7,0.5-2.6c-0.2-4.5-0.7-9-0.9-13.6c-0.4-7.3-0.8-14.7-1-22c-0.4-12.1-0.7-24.1-1-36.1
	C68,308.9,68.6,307.2,69,304.5 M54,345.5c1-10.2,1.7-20.5,3.1-30.7c0.8-6.5,2.5-12.9,3.9-19.3c0.1-0.5,0.4-0.9,0.5-1.4
	c-2.3,0-4.7-0.4-6.9,0.1c-0.7,0.1-1.5,2.3-1.6,3.6c-0.7,13.7-1.7,27.4-1.9,41.1C50.7,355,51,371.2,51,387.3c0,0.9,0.4,1.8,0.6,2.7
	c4.2-1,8.5-1.9,12.6-3.3c0.2,0-0.5-4-1.3-6C58.6,369.7,55,358.4,54,345.5 M190,367.5c-5.7,5.6-11.3,11.3-16.9,16.9
	c-3.2,3.2-3,5.6,0.3,8.6c4.2,3.7,9.3,3.2,14.3,3c5.7-0.3,12.9-5.8,14.3-10.6c2-7.3-0.3-13.5-6.7-17.5
	C194,367.1,192.1,367.3,190,367.5 M771,653.5c0.2,0.5,0.5,1.4,0.8,1.4c6,0.1,12,0.2,18.1,0c1.4,0,3.4-1.1,4-2.2
	c3.1-7,9.3-10.5,15-14.7c0.8-0.6,1.4-1.6,2.1-2.3c-0.9-0.5-1.8-1.5-2.7-1.5c-6.2,0.2-12.4,0.5-18.6,0.9c-1.1,0-2.6,0.4-3.4,1.2
	C781.3,641.8,776.4,647.4,771,653.5 M593,417.5c-2.1,3.5-1,6.5,2.2,8.1c9.1,4.5,18.7,7.1,28.8,7.4c0.7,0,1.3-0.5,2-0.8
	c-0.4-0.7-0.7-1.6-1.3-1.9c-5-2.7-6.9-7.4-8.8-12.2c-0.9-2.3-2.9-5.8-4.4-5.8C605.2,412.4,598.3,411.1,593,417.5 M952.5,638
	c-1.7,0.4-4,0.1-5,1.2c-5,4.9-9.7,10.1-14.5,15.3c-0.8,0.9-1.3,2.1-1.9,3.1c1.3,0.2,2.6,0.3,3.8,0.4c4.2,0.3,8.4,1,12.6,0.9
	c1.8-0.1,4.4-1,5.3-2.4c4.1-6,7.2-12.7,13.8-16.7c0.7-0.4,0.9-1.6,1.3-2.4c-0.8-0.1-1.6-0.4-2.3-0.4
	C961.5,637.3,957.5,637.7,952.5,638 M179,372.5c2.6-2.9,5.2-5.8,7.7-8.8c0.4-0.5,0.1-1.5,0.1-2.3c-0.5,0.3-1.2,0.6-1.7,1
	c-0.8,0.6-1.4,1.4-2.1,2c-5.4,4.4-11.4,7.1-18.4,7.5c-1.1,0.1-2.4-1-3.6-1.6c0.7-1.4,1-3.3,2.2-4.2c1-0.9,2.9-0.8,4.4-1.1
	c2.6-0.4,5.1-0.5,7.6-1c1-0.2,1.8-1.1,2.7-1.6c-0.8-0.5-1.6-1-2.4-1.4c-3.5-1.8-6.8-3.7-10.4-5.2c-1.1-0.4-3.8,0.2-3.9,0.7
	c-1,5.1-1.6,10.4-2.2,15.6c-0.2,2,0.7,4.5-0.2,6.1c-2.4,4-0.9,7.2,0.6,10.9c0.9,2,1.3,1.8,2.6,0.4C167.4,384,173,378.5,179,372.5
	 M112,631.5c-4.3-3.2-7.5-0.1-10.2,2.4c-6.5,5.8-12.7,12-18.9,18.1c-0.4,0.4-0.6,0.9-0.9,1.4c0.5,0.2,1.1,0.6,1.7,0.6
	c4.8,0,9.7,0.4,14.4-0.1c5.2-0.6,10.6-1.2,13.9-6.4c0.8-1.3,1.6-2.7,2.8-3.8c4-3.5,8.2-6.8,12.2-10.3c0.8-0.7,1.3-1.7,2-2.6
	c-1-0.3-2.2-1-3-0.7c-3.3,1.2-7,2.2-9.7,4.3c-6.2,4.8-11.9,10.5-18.1,15.5c-1.4,1.2-3.8,1.4-5.7,2.1c1.1-2.1,2.1-4.2,3.2-6.2
	c0.3-0.4,0.7-0.8,1.1-1.1C101.7,640.5,106.6,636.2,112,631.5 M51.5,656c3.5-1,7.8-1,10.3-3.1c6.7-5.5,12.6-11.9,18.7-18
	c0.5-0.5,0.1-1.9,0.1-2.8c-3.4,0.6-7.7,0.2-10,2.1c-5.8,5-10.6,11.2-16.1,16.6c-1.2,1.2-3.4,1.5-5.1,2.2c0.7-1.6,0.9-3.6,2-4.8
	c3.9-4.3,8.2-8.2,12.2-12.4c0.5-0.6,0.3-1.8,0.5-2.8c-3.4,0.1-7.2-0.8-9,3.4c-0.7,1.5-1.4,3.3-2.6,4.4c-4.8,4.5-9.9,8.7-14.9,13.1
	c-0.6,0.5-1,1.2-1.5,1.8c0.8,0.1,1.6,0.3,2.4,0.3C42.5,656,46.5,656,51.5,656 M753.5,655c3,0,6,0.2,9-0.1c1.2-0.1,2.9-0.8,3.4-1.8
	c3.4-7,8.6-12.2,15.3-16.1c0.8-0.5,1.1-1.7,1.7-2.6c-0.8-0.1-1.5-0.4-2.3-0.4c-5.4,0.3-10.8,0.6-16.2,1.1c-1.1,0.1-2.2,1.3-3.1,2.1
	c-5.3,4.9-10.5,9.8-15.8,14.8c-0.5,0.5-1,1.1-1.5,1.7c0.6,0.5,1.3,1.2,2,1.2C748.1,655.1,750.3,655,753.5,655 M911.5,646
	c-1.7,2.6-3.4,5.3-4.9,8c-0.2,0.4,0.5,1.9,0.8,1.9c5,0.5,10,0.9,15.1,1c1.1,0,3.1-0.9,3.3-1.8c1.8-6.7,6.7-10.6,11.9-14.4
	c0.9-0.6,1.4-1.6,2-2.4c-1.1-0.5-2.3-1.3-3.4-1.2c-3.6,0.1-7.2,1.2-10.6,0.8C919,637,915,640.1,911.5,646 M851,649.5
	c3.8-3.5,7.7-7,11.5-10.5c0.6-0.5,1.1-1.2,1.4-1.9c0.1-0.1-0.7-1-1.1-1c-6-0.1-12-0.1-18,0c-0.5,0-1.1,0.6-1.5,1.1
	c-4.1,6.5-9.9,11.2-16.6,14.9c-0.8,0.4-1.1,1.7-1.6,2.6c1,0.4,2,1.3,3,1.2c4-0.1,8-1,12-0.8C844.8,655.4,848.4,654.6,851,649.5
	 M1006,646.5c2.2-2.2,4.4-4.4,6.6-6.6c0.9-0.9,1.6-2,2.4-3c-1.2-0.3-2.3-0.9-3.4-0.8c-2.7,0.1-5.4,1-8.1,0.8c-4.5-0.4-7.4,1.9-9.9,5
	c-4.1,5.2-8,10.6-11.9,16c-0.5,0.7,0,3,0.1,3c4.3,0.1,8.6,0.5,12.9-0.1c1.3-0.2,2.2-2.9,3.4-4.4C1000.5,653.2,1003,650.1,1006,646.5
	 M818,654.5c5-6.7,10.9-12.4,18.7-15.9c0.7-0.2,0.9-1.5,1.3-2.4c-0.9-0.4-1.7-1.1-2.6-1.1c-4.5-0.2-9.1-0.1-13.6-0.1
	c-1,0-2.2,0-2.8,0.5c-2.2,2-4.1,4.2-6.2,6.2c-3.7,3.5-7.5,6.8-11.2,10.2c-0.9,0.8-1.7,1.6-2.5,2.4c1.2,0.3,2.3,0.7,3.4,0.7
	C807.5,655,812.5,655,818,654.5 M908,641.5c1-1.2,2-2.5,3-3.7c-1.7-0.3-3.4-0.7-5-0.8c-2.7-0.1-5.4,0.4-8-0.1
	c-3.9-0.7-6.2,1.4-8.4,4c-3.3,3.9-6.6,7.9-9.8,11.8c-0.6,0.7-1,1.4-1.5,2.1c0.8,0.4,1.7,1.1,2.5,1.2c5.3,0.1,10.7,0.2,16-0.1
	c1.1-0.1,2.5-1.4,3.2-2.5C902.6,649.7,905,645.8,908,641.5 M726,639.5c0.8-0.5,1.7-0.8,2.4-1.4c0.9-0.8,1.6-1.8,2.4-2.7
	c-1.2-0.2-2.3-0.4-3.5-0.4c-3.5,0-7-0.2-10.4,0.1c-1.8,0.1-3.9,0.7-5.2,1.8c-5.9,5.2-11.5,10.7-17.2,16.1c-0.5,0.5-0.9,1.2-1.3,1.8
	c0.7,0.1,1.3,0.2,1.9,0.2c5.2,0,10.3,0.2,15.5-0.1c1.3-0.1,3.5-1,3.9-2.1C716.5,647,721.7,644.1,726,639.5 M675.5,655
	c4.9-0.5,10.7,2,14.2-4.1c1-1.9,2.5-3.7,4.2-5.2c3.4-3.1,7.1-5.9,10.7-8.9c0.9-0.7,2.6-1.9-0.5-1.8c-3.9,0.1-7.7,0.2-11.6-0.1
	c-2.9-0.1-4.8,0.8-6.9,2.8c-5.2,5.3-10.7,10.2-16,15.2c-0.7,0.7-1.1,1.5-1.6,2.3c0.8,0.2,1.6,0.8,2.4,0.7
	C671.8,655.8,673.1,655.3,675.5,655 M979.5,653c3-4.4,5.9-8.9,9.2-13c1.4-1.8,1-2.8-0.6-2.9c-5.2-0.2-10.7-0.9-14.7,3.2
	c-4.4,4.4-8.4,9.4-12.4,14.2c-0.9,1.2-1.3,2.7-1.9,4.1c1.4,0.1,2.8,0.3,4.3,0.4c0.8,0.1,1.6-0.1,2.4,0
	C974.7,660.6,974.7,660.6,979.5,653 M732.5,655c2.9-0.1,4.8-1.6,6.9-3.7c4.8-4.8,10.2-9,15.3-13.5c0.8-0.7,1.4-1.6,2.1-2.5
	c-1.1-0.4-2.3-1.3-3.4-1.2c-4.2,0.1-8.4,0.5-12.6,0.9c-0.8,0.1-1.6,0.4-2.2,0.9c-5.9,5.5-11.7,11-17.6,16.6c-0.5,0.5-0.7,1.3-1,2
	c0.8,0.2,1.5,0.5,2.3,0.5C725.4,655,728.4,655,732.5,655 M762,423.5c-0.4,1.8-0.6,3.5-1.1,5.2c-0.3,1.5-1.3,4.1-1.4,4.1
	c-5.6-1.6-6.6,4.1-9.8,6.1c-0.6,0.3-0.9,1.3-1.3,2c0.8,0.4,1.6,1,2.5,1.1c5.3,0.6,12.4-3.4,14.9-8.3c2.5-5,4.2-10.1,9.3-13.6
	c4.3-2.9,3.8-7.8,0-12.4c-0.8-1.1-1.9-1.9-2.8-2.9c-0.4-0.4-0.7-1-1.1-1.6c-0.4,0.5-1,1-1.2,1.5C767.5,410.8,765,416.9,762,423.5
	 M631.5,655c1.3,0,2.6,0,4,0c3.8,0.1,7.8,1,8.3-5.1c0.1-1.7,2.6-3.5,4.2-4.8c3.3-2.8,6.9-5.2,10.2-7.9c0.6-0.5,0.9-1.4,1.4-2.1
	c-1-0.3-1.9-0.8-2.9-0.8c-3.6,0.1-7.3,0.2-10.9,0.8c-2.2,0.4-4.7,1.4-6.2,3c-2.3,2.5-3.6,5.8-5.7,8.6c-1.2,1.6-2.8,3.2-4.6,4.3
	c-1.9,1.2-4.1,1.8-6.2,2.6C625.5,654.1,628,654.5,631.5,655 M879,643.5c1.8-1.2,3.9-2.1,5.4-3.6c0.8-0.8,0.6-2.6,0.9-3.9
	c-4.6,0.7-10,0-13.6,2.3c-6.4,4-11.6,9.8-17.3,14.9c-0.5,0.4-1,1.1-0.9,1.7c0,0.4,0.9,1.1,1.4,1.1c4.6,0,9.4,0.5,13.8-0.4
	C874.5,654.3,874.9,647.7,879,643.5 M529,643.5c-4.7,3.2-9.4,6.3-14,9.5c-0.5,0.4-1.1,1.5-0.9,1.7c0.4,0.6,1.3,1.3,2,1.2
	c2.8-0.1,5.7-1,8.5-0.8c3.5,0.4,5.5-1.3,7.4-3.7c0.6-0.9,1.2-1.8,2-2.4c6.5-4.4,13.1-8.6,19.5-13.1c0.6-0.4,0.5-1.9,0.7-2.9
	c-4.6,0.8-9.6,0.8-13.9,2.5C536.3,637,533.1,640.4,529,643.5 M662.5,654c1.5-2.2,2.7-4.7,4.6-6.5c3.9-3.6,8.1-6.9,12.1-10.3
	c0.7-0.6,1.2-1.5,1.8-2.3c-0.6-0.3-1.3-0.9-1.9-0.8c-4.7,1-10,1.1-13.9,3.5c-6,3.9-11.1,9.4-16.5,14.3c-0.8,0.6-1.1,1.8-1.6,2.7
	c1.1,0.5,2.3,1.4,3.4,1.3C654.3,655.6,658.1,655,662.5,654 M173.5,649c0.9-0.2,2-0.2,2.6-0.7c4.5-3.4,8.8-6.9,13.3-10.1
	c2.8-2,5.9-3.4,8.8-5.2c1.1-0.8,1.8-2.1,2.8-3.2c-0.5-0.2-1-0.8-1.5-0.8c-6.9,0-13.7-0.2-19,5.8c-3.6,4-8.3,7.1-12.5,10.7
	c-1.4,1.2-2.6,2.7-3.9,4.1c2.1,0.2,4.2,0.4,6.3,0.4C171.1,650,171.8,649.3,173.5,649 M236.5,628c-2.4,0.3-4.8,0.6-7.1,1
	c-1.4,0.3-2.9,0.4-4,1.2c-7.2,5.2-14.3,10.5-21.4,15.8c-0.8,0.6-1.3,1.6-2,2.4c0.9,0.2,1.8,0.7,2.7,0.6c6.8-0.9,15,1.4,18.7-7.7
	c0.8-2,3.5-3.2,5.5-4.6c2.9-2.1,6-4,8.9-6.2C237.9,630.4,237.3,629.2,236.5,628 M495.5,642c-6.1,4.1-12.2,8.2-18.3,12.3
	c-0.6,0.4-0.9,1.3-1.2,2c0,0.1,0.7,0.6,1.1,0.7c3.7,1.2,12.2-1.7,15-4.6c2.9-3,6.1-5.7,9.4-8.4c3.6-2.8,7.4-5.4,11.1-8.1
	c0.5-0.4,0.9-0.9,1.4-1.4c-0.8-0.2-1.5-0.4-2.3-0.5C505,633.5,499.5,635.5,495.5,642 M465.5,645c2.9-1.9,5.8-3.7,8.6-5.7
	c0.4-0.3,0.6-1,0.9-1.6c-0.6-0.2-1.1-0.7-1.6-0.6c-3.6,0.5-7.7,0.3-10.5,2.1c-7.5,4.8-14.4,10.5-21.4,15.9c-0.5,0.4-0.1,1.8-0.2,2.8
	c4.5-0.8,9.6-0.5,13.4-2.5C458.7,653.2,461.6,648.9,465.5,645 M501.5,650c-1.7,1.3-3.3,2.6-4.9,3.9c-0.6,0.5-1,1.2-1.5,1.8
	c0.8,0.1,1.6,0.2,2.4,0.3c5.4,0.7,9.8-0.6,13.4-5.2c2.1-2.7,5.2-4.7,8.1-6.7c3.7-2.6,7.8-4.7,11.5-7.2c1.1-0.8,1.6-2.3,2.4-3.4
	c-1.2-0.2-2.7-0.8-3.8-0.4c-3.4,1.3-7,2.5-10.1,4.5C513.2,641.3,507.6,645.5,501.5,650 M203,364.5c3.1,5.5,6.3,11,9.5,16.5
	c0.4,0.8,1.3,1.3,2,2c0.5-1,1.4-1.9,1.4-2.9c0.2-3.5,0.6-7.1-0.1-10.4c-0.8-4.3-2.1-8.9-6.7-11c-2.5-1.1-6.3-2.9-7.9-1.9
	C197.5,359.1,201.8,361.5,203,364.5 M124.5,651c0.8-1.1,1.4-2.6,2.5-3.4c6.1-5,12.3-9.7,18.4-14.6c0.9-0.8,1.5-1.8,2.3-2.8
	c-1.2-0.4-2.5-1.4-3.4-1.1c-4.1,1.5-8.5,2.6-11.8,5.2c-5.2,4-9.6,9.1-14.4,13.7c-1.4,1.4-2.7,2.9-4.1,4.4c1.9,0.1,3.8,0.5,5.7,0.3
	C121,652.5,122.2,651.6,124.5,651 M551.5,653c4.4-4.1,8.8-8.2,13.3-12.3c1.3-1.1,2.8-2,4.2-3c-2.1-0.6-4.2-1.5-6.2-1.6
	c-1.4,0-2.9,1-4.2,1.8c-7.1,4.7-14.1,9.4-21.1,14.1c-0.7,0.5-1,1.6-1.5,2.4c0.9,0.2,1.8,0.6,2.6,0.6
	C542.7,654.6,546.9,654,551.5,653 M89.5,632c-7.5,6.8-15,13.6-22.4,20.5c-0.5,0.5-0.5,1.5-0.8,2.3c3.9-0.8,8.8-0.4,11.6-2.6
	c6.1-5,11.2-11.4,16.7-17.2c0.9-1,2-1.9,3-2.9c-1.5-0.3-3-0.9-4.5-1C92.2,631,91.3,631.7,89.5,632 M132.5,649
	c-0.8,0.5-1.6,0.9-2.4,1.4c0.7,0.5,1.5,1.6,2.1,1.5c3.3-0.7,7.2-0.8,9.8-2.7c7.2-5.1,14-11,20.9-16.7c0.5-0.4,0.2-1.7,0.2-2.5
	c-2.9,0.4-6.6-0.1-8.8,1.4C146.9,636.7,140.1,642.8,132.5,649 M184.5,647c0.4,0.8,1,2.3,1.4,2.3c3.4-0.5,7.3-0.3,10-2
	c7.3-4.8,14-10.4,20.9-15.7c0.6-0.4,0.8-1.3,1.2-2c-0.4-0.2-0.8-0.6-1.2-0.6c-2.6,0.5-5.7,0.3-7.7,1.6
	C201,635.8,193.3,641.5,184.5,647 M216,417.5c-1.9,3.9-3.8,7.7-5.6,11.7c-0.4,0.8-0.4,1.9-0.6,2.8c1.3,0,3,0.5,3.6-0.1
	c1.9-2,3.9-4.3,4.9-6.8c3.2-8.2,5.3-16.7,2.6-25.5c-0.4-1.3-1.8-2.2-2.7-3.3c-0.4,1.3-1.1,2.6-1.2,4
	C216.6,405.7,216.3,411.1,216,417.5 M466.5,652c-1.2,0.7-2.6,1.2-3.7,2.1c-0.9,0.7-1.6,1.9-2.4,2.9c1.5,0.2,3,0.8,4.4,0.6
	c3.3-0.4,5.6-2.4,8.1-4.7c5.6-5.2,11.9-9.5,17.9-14.3c0.8-0.6,1.2-1.6,1.8-2.4c-0.7-0.4-1.4-1.2-2-1c-2.2,0.6-4.7,0.9-6.4,2.3
	C478.3,641.9,472.7,646.8,466.5,652 M37.5,649c4.9-4.2,9.8-8.4,14.6-12.7c0.6-0.5,0.8-1.5,1.2-2.3c-3.5,0.5-7.9-0.1-10.1,1.8
	c-6.6,5.7-12.3,12.4-18.2,18.7c-0.7,0.7-1,1.7-1.5,2.5c1,0,2.3,0.4,3.1-0.1C30.1,654.6,33.5,652,37.5,649 M673,454.5
	c1.6-1.3,3.3-2.5,4.8-3.9c0.6-0.5,0.8-1.3,1.2-2c-0.9-0.2-1.9-0.7-2.7-0.5c-6.3,1.2-12.4,3-18.8,1c-1.6-0.5-3.6,0.1-5.4,0.2
	c1.1,1.2,2.2,2.4,3.2,3.6c0.9,1.1,2,2.2,2.5,3.5c1.2,3.3,4,3.1,6.3,2.5C667,458.1,669.7,456.3,673,454.5 M253,632.5
	c0.6-1,1.2-2.1,1.9-3.1c-1.1-0.1-2.3-0.5-3.4-0.3c-1.5,0.2-3.1,0.5-4.3,1.3c-5.7,3.8-11.2,7.6-16.6,11.6c-2.1,1.6-3.8,3.7-5.6,5.5
	c3.4-0.3,6.8-0.5,10.1-1.2c1.2-0.3,2-2.2,3.2-3.1C243,639.8,247.7,636.4,253,632.5 M447.5,640c-2.9,2-5.5,4.3-8.5,5.9
	c-5.3,2.9-10.8,5.4-16.1,8.1c-0.8,0.4-1.3,1.3-1.9,2c0,0.1,0.5,1,0.8,1c3.8-0.3,8.4,0.7,11.4-1.1c6.6-4,12.5-9.4,18.6-14.3
	c0.9-0.7,1.5-1.9,2.2-2.9c-1.3-0.1-2.7-0.3-4-0.2C449.3,638.6,448.7,639.2,447.5,640 M570,653.5c4-2.7,8-5.4,12-8.1
	c0.7-0.4,1.4-1,1.9-1.6c0.1-0.2-0.7-1.4-1.1-1.4c-2.7-0.3-5.9-1.5-8-0.4c-5.7,2.8-10.9,6.5-16.2,10c-0.7,0.4-1.1,1.5-1.6,2.2
	c1,0.3,2,0.8,2.9,0.8C563.1,654.8,566.3,654.3,570,653.5 M177.5,631c-0.5-2.4-2.5-2.9-5.1-0.9c-6.4,5-12.8,10-19.1,15.1
	c-1.8,1.4-3.4,3.1-5.1,4.6c2.6,0.1,5.1,0.2,7.6,0.2c0.5,0,1.1-0.5,1.6-0.9C163.9,643.2,170.4,637.4,177.5,631 M779.5,360
	c-3.4-3.5-7.3-2.3-11.1-1c-0.5,0.2-1.4,0.6-1.4,0.9c0,3.5-1.1,7.6,3,9.5c1.9,0.9,4.9,1.4,6.3,0.5C779.3,367.8,782.5,365.1,779.5,360
	 M15,652.5c-0.1,0.8-0.1,1.7-0.1,2.5c1.8-0.3,4.3,0,5.4-1.1c5.8-5.6,11.1-11.5,16.6-17.4c0.2-0.2-0.1-1.4-0.2-1.4
	c-4.7-0.3-8.8,0.4-11.8,4.8C22.1,644.2,18.6,648,15,652.5 M158,349.5c0.6,0.1,1.5,0.5,1.7,0.2c2.7-2.9,4.8-3,7.8,0.1
	c3.1,3.1,7,5.4,10.7,7.8c0.9,0.6,2.4,0,3.7,0c-0.7-1-1.1-2.3-2-3.1c-5.6-5.3-11.2-10.5-17-15.7c-0.5-0.5-2.7-0.2-2.8,0.1
	C159.2,342,158.6,345.3,158,349.5 M621.5,333c-1.5,3.2-3.2,6.4-4.4,9.7c-0.3,0.7,0.6,2,1,3c0.6-0.7,1.3-1.4,1.9-2.1
	c2.4-2.8,4.7-5.7,7.3-8.3c3.2-3.3,6.8-6.2,10.1-9.3c0.6-0.5,0.9-1.1,1.3-1.7c-0.6-0.1-1.2-0.4-1.8-0.3
	C630.8,324.9,625,326.2,621.5,333 M116.5,436c2.6-1.2,5.6-2.2,0.5-4.6c-1.7-0.8-2.6-3.2-3.9-4.8c-0.7-0.9-1.5-1.7-2.3-2.6
	c-0.3,1.3-0.7,2.6-0.8,4c-0.1,3.7,0,7.4,0,11.1c0,4.5-0.1,9,0,13.6c0,0.4,0.6,0.9,0.9,1.3c0.4-0.4,0.9-0.8,1-1.2
	c0.5-1.2,0.8-2.4,1.1-3.6C114,445,115,440.7,116.5,436 M248.5,642c-1,0.4-2.2,0.5-3,1.1c-1,0.7-1.7,1.9-2.5,2.8
	c1.2,0.4,2.5,1.1,3.7,1c2.7-0.1,5.3-0.8,8-0.8c7.1-0.2,7.9-0.9,7.1-7.4c-0.2-1.3-0.4-2.8-0.9-4c-0.3-0.5-1.8-1.1-2.1-0.9
	C255.4,636.3,252.2,638.9,248.5,642 M135,394.5c-0.7-1.7-1.3-3.5-2.2-5c-0.4-0.7-1.6-1.5-2.3-1.4c-0.6,0.2-1.5,1.5-1.5,2.2
	c0.3,6.4,0.6,12.7,1.1,19c0.1,0.3,3.2,0.9,3.4,0.5C136.1,405.2,139.1,400.5,135,394.5 M134,426.5c1.1,3.3,3.9,2.7,6.3,2.4
	c0.7-0.1,1.7-2.1,1.6-3.1c-0.8-4.7-1.9-9.4-3-14.1c-0.1-0.4-1-1-1.2-0.8C133.4,413.9,131.7,420.5,134,426.5 M591.5,646
	c-3.5,1.7-6.9,3.3-10.3,5c-1.2,0.7-2.1,1.7-3.1,2.6c1.4,0.5,2.9,1.4,4.4,1.3c5.7-0.3,11.2-2.2,16.1-5.1c0.9-0.5,1.5-1.6,2.2-2.4
	c-0.9-0.5-1.9-1.2-2.9-1.3C596.1,645.9,594.3,646,591.5,646 M111,349.5c-1,2.3-2,4.5-2.8,6.8c-0.1,0.4,0.9,1.7,1.3,1.6
	c3.1-0.5,2.5,1.7,2.5,3.4c0,4,0,8.1,0,12.1c0,0.5,0.4,1,0.6,1.5c0.4-0.4,1-0.7,1-1.1c0.9-5,2-10,2.2-15c0.2-3.2-1.2-6.4-1.8-9.6
	c-0.2-1.1-0.4-2.1-0.7-3.2C112.6,346.8,111.8,347.7,111,349.5 M690,297.5c-2.9-0.4-5.8-0.9-8.7-1.3c0.3,2.2-0.1,5.6,1.2,6.4
	c2.6,1.8,6.1,2.2,9.3,3.1c0-0.3,0.2-0.6,0.2-0.9C691.5,302.5,691,300.3,690,297.5 M107,373.5c0-2.3,0.1-4.6-0.1-7
	c0-0.5-0.9-0.9-1.3-1.4c-0.2,0.5-0.6,1-0.7,1.5c-1.5,6.8-3.6,13.6,0.1,20.3c0.4,0.7,1.1,1.3,1.7,1.9c0.4-0.8,1.2-1.6,1.2-2.4
	C107.7,382.4,107.3,378.5,107,373.5 M192.5,345c-3.2-1.9-6.4-3.8-9.7-5.6c-0.4-0.2-1.1,0-1.7-0.1c0,0.5-0.1,1.2,0.1,1.4
	c4.9,4.2,9.7,8.5,14.7,12.6c0.5,0.4,1.8-0.3,2.7-0.4c-0.2-0.8-0.2-1.8-0.7-2.4C196.3,348.7,194.6,347.2,192.5,345 M143,441.5
	c1.6,3,3.2,6,4.9,8.9c0.2,0.3,1.1,0.4,1.6,0.5c0.2-0.6,0.6-1.3,0.4-1.8c-1.6-5.2-3.3-10.5-5.1-15.7c-0.2-0.6-1.2-0.9-1.8-1.4
	c-0.4,0.6-1,1.2-1,1.8C142.1,436.2,142.3,438.6,143,441.5 M21.5,637c-10.2,0-10.2,0-9.5,8.8c0,0.7,0.3,1.5,0.5,2.2
	c0.8-0.5,1.8-0.8,2.4-1.5C17.3,643.6,19.6,640.5,21.5,637 M627,642.5c0.1,1.5,0.3,3,0.4,4.5c0.9-1,1.9-1.8,2.5-2.8
	c1.4-2.1,2.5-4.3,3.8-6.4c0.7-1.2,1.4-2.3,2.1-3.5c-1.6,0-3.2-0.3-4.7,0.1C627.8,635.5,626.7,638.2,627,642.5 M601,653.5
	c4.5,0.5,9.1,1,13.7,1.5c0.1,0,0.7-0.9,0.6-1.1C613.1,650.2,603.8,649.6,601,653.5 M107,410.5c0.3,0.5,0.7,1,1,1.5
	c0.2,0.6,0.4,1.2,0.7,1.8c0.1-0.6,0.3-1.2,0.2-1.8c-0.2-1.2-0.6-2.3-0.9-3.5C107.6,408.9,107.3,409.2,107,410.5 M149.5,337
	c-0.1,0.6-0.2,1.1-0.3,1.7c0.4-0.3,1.1-0.4,1.3-0.8C150.7,337.6,150.2,337,149.5,337"/>
<path d="M142,162c0,3.2,0.2,5.9-0.1,8.5c-0.1,0.9-1.5,2.3-2.3,2.3c-0.8,0.1-2.3-1.1-2.5-2c-0.8-3.6-1-7.3-1.8-10.8
	c-0.2-1.1-1.3-2-2-3c-0.9,1-2.4,1.8-2.6,2.9c-0.5,3-0.3,6.2-0.8,9.2c-0.3,1.4-1.6,2.6-2.4,3.9c-1.2-1.3-3-2.4-3.4-3.9
	c-0.8-3.3-0.6-6.7-1.2-10.1c-0.2-1.1-1.5-2-2.3-3c-0.9,0.7-2.2,1.3-2.5,2.3c-1,2.2-1.6,4.7-2.1,7.1c-0.2,1.1,0.3,2.5-0.1,3.4
	c-1,2.2,0.2,6.4-3.7,5.9c-1.3-0.2-2.7-3.8-3.1-6c-1.2-5.5-2-11.2-2.7-16.8c-0.2-1.6,0.6-3.2,1-4.8c1.2,0.9,3,1.4,3.6,2.6
	c1.8,3.2,2.6,8.6,6.6,1.4c0.5-0.9,3.1-1.5,3.9-1c4.5,3.1,9.5,1.8,14.3,2.2c1.9,0.2,3.6,3.6,5.1,5.7C141.6,158.9,141.6,160.3,142,162
	"/>
<path d="M271.7,73.8c-0.1-6.1-0.5-12-0.6-17.9c-0.1-1.2,0.8-2.5,1.3-3.8c1.1,1,2.9,1.9,3,3c0.6,6.6,1.6,13.2,1,19.7
	c-0.5,5.4-6.9,7.3-11.3,3.7c-1.8-1.5-2.8-4.1-4.1-6.2c-0.6-1-1.1-2.2-1.6-3.2c-0.7,1-1.5,2-2.1,3.1c-0.5,1.1-0.6,2.6-1.4,3.4
	c-1.4,1.3-3.3,3.1-5,3.1c-1.3,0.1-3.5-2.2-3.8-3.7c-1-5.9-1.6-11.8-2-17.7c-0.1-1,1.6-2.2,2.4-3.3c0.8,1.1,2.2,2.2,2.4,3.4
	c0.6,4.4,0.7,8.7,1.1,13.1c0.1,0.8,0.5,1.7,0.8,2.5c0.7-0.9,1.9-1.7,2.1-2.7c0.9-4,1.3-8.1,2.1-12.1c0.2-1.1,1-2.1,1.6-3.2
	c1.4,1,3.6,1.7,4.2,3.1c1.2,2.5,1.2,5.5,2.3,8.1c1.2,2.8,2.9,5.4,4.7,8C269.1,74.6,270.6,74.1,271.7,73.8"/>
<path d="M817,139c5.5-2,9.1-0.6,12,4.2c2.7,4.3,3.5,8.9,2.9,13.7c-0.2,1.4-1.5,2.7-2.3,4c-0.9-1.2-2.1-2.3-2.6-3.7
	c-1.1-3.4-1.9-6.9-2.7-10.4c-0.7-3.4-3.7-3.6-5.6-2.5c-1.4,0.7-2,3.8-2,5.8c0,2.8,1,5.7,1.3,8.5c0.2,1.1-0.4,2.3-0.7,3.4
	c-1-0.4-2.5-0.5-2.9-1.2c-1.6-3.4-2.9-7.1-4.5-10.6c-0.6-1.5-1.7-2.8-2.6-4.2c-1.1,1.6-2.9,3-3.2,4.7c-0.5,2.7,0.1,5.7-0.2,8.5
	c-0.2,1.3-1.3,2.5-2,3.8c-1.3-1.2-2.7-2.2-3.9-3.5c-0.5-0.7-0.7-1.8-0.7-2.7c-0.1-3.8-0.5-7.7-0.1-11.4c0.4-3,2.1-5.3,6-4.4
	c2.6,0.5,5.4,1,8.1,0.7C813.1,141.5,814.7,139.9,817,139"/>
<path d="M838,62c-1.4-7.8-2.7-15-4-22.3c-0.1-0.9,0.4-1.8,0.6-2.7c1,0.4,2.4,0.5,2.9,1.2c1.1,1.5,2,3.2,2.4,5c0.4,1.6-0.2,3.3,0.1,5
	c0.5,2.3,1.3,4.5,2,6.8c1-1.8,2.1-3.6,2.9-5.5c0.5-1.1,0.7-2.4,1.1-3.6c1.1-3.1,3.3-5.7,6.5-4.6c1.9,0.6,3.1,3.8,4.5,5.9
	c0.7,1.2,1.3,2.5,2,3.8c0.7-1.3,1.7-2.6,1.9-3.9c0.3-2.6-0.1-5.4,0.2-8c0.1-1.1,1.4-2.1,2.2-3.1c0.9,1.1,2.6,2.2,2.5,3.2
	c-0.4,5.9-1,11.8-1.9,17.6c-0.2,1.2-1.7,3-2.6,3c-1.6,0.1-3.9-0.6-4.6-1.8c-1.6-2.7-2.5-5.9-3.7-8.9c-0.4-1-0.9-2-1.4-2.9
	c-0.9,1-2.1,1.9-2.6,3.1c-1.4,3.9-2.2,8-3.8,11.9C843.2,66,841.8,66.2,838,62"/>
<path d="M483.7,160.8c1-3.7,1.3-7.2,2.5-10.3c0.6-1.5,3.3-3.6,4.3-3.2c1.8,0.6,3.3,2.6,4.4,4.4c0.8,1.2,0.5,3.1,1.1,4.5
	c0.5,1,1.7,1.8,2.6,2.7c0.4-1.1,1.2-2.2,1.3-3.4c0.2-2.7-0.3-5.5,0.2-8.1c0.3-1.5,1.8-2.7,2.8-4c1,1.7,2.8,3.4,2.9,5.2
	c0.2,3.3-0.2,6.7-0.9,10c-0.5,2.1-1.6,5.3-3.2,5.8c-1.8,0.6-4.8-0.7-6.6-2c-1.5-1.1-2.1-3.4-3.1-5.1c-0.6-1.1-1.1-2.2-1.6-3.2
	c-0.5,1.3-1,2.6-1.4,3.9c-1,2.9-1.6,6-3.2,8.6c-0.9,1.6-3.2,3-5,3.2c-1.2,0.1-3.5-2-3.7-3.4c-1.3-6.8-2.2-13.8-3-20.7
	c-0.1-0.5,0.9-1.6,1.4-1.6c0.9,0.1,2.2,0.6,2.4,1.3c0.9,3,1.6,6,2,9.1c0.3,2-0.3,4.1,0.2,6C480.5,162.4,481.9,163.6,483.7,160.8"/>
<path d="M517.2,97.3c0.4-1.1,0.4-1.9,0.8-2.6c0.6-0.9,1.4-1.8,2.1-2.7c0.6,0.8,1.7,1.6,1.8,2.5c0.5,4.1,0.7,8.3,1.1,12.5
	c0.1,0.7,0.5,1.3,0.8,2c0.4-0.5,1-1,1.2-1.6c1.2-3.1,2.2-6.4,3.7-9.4c0.4-1,2.3-1.9,3.4-1.8c1,0,2.3,1.3,2.8,2.4
	c0.7,1.5,0.5,3.4,1.2,5c0.5,1.3,1.9,2.3,2.8,3.4c0.5-1.4,1.4-2.7,1.4-4.1c0.1-3.4-0.3-6.9-0.2-10.3c0-0.9,1.3-2.2,2.2-2.4
	c0.7-0.2,2.5,0.9,2.6,1.4c0.2,5.8,0.6,11.5-0.2,17.1c-0.3,2-4,5.3-5.4,4.9c-2.4-0.5-4.4-3.4-6.3-5.5c-0.9-1.1-1.2-2.6-1.7-3.9
	c-0.8,1.3-1.6,2.7-2.3,4c-0.2,0.4,0.2,1.2-0.1,1.5c-1.7,2.4-3.4,6.7-5.3,6.8c-3.1,0.1-5.5-3.1-5.7-6.9
	C517.7,105.5,517.3,101.5,517.2,97.3"/>
<path d="M59.7,72.3c-0.8,0.7-3.1-3.1-2.7,0.6c0.3,3.2,0.9,6.3,0.8,9.5c0,1.5-1.4,3-2.2,4.5c-0.9-1.2-2.1-2.4-2.6-3.7
	c-0.6-1.8-0.7-3.7-1-5.6c-0.7-4.3-1.2-8.7-2.1-13.1c-0.6-3.6,1.8-10.3,5.4-11c3.3-0.7,7.7-0.4,10.5,1.2c4.2,2.5,5.1,7.7,2.5,11.3
	c-3,4.1-2.3,7.4,0.2,11.1c0.7,1.1,1.3,2.5,1.4,3.8c0.1,1.3-0.4,2.7-0.6,4.1c-1.4-0.9-3.4-1.4-4.2-2.7C63.1,79.2,61.6,75.8,59.7,72.3
	 M57.5,59c-0.4,0.7-1.1,1.5-1,2c0.6,2.4-1.3,6.4,2.3,6.8c3,0.2,5.5-2.6,5.1-6.1C63.5,58.4,61.3,57.2,57.5,59"/>
<path d="M359,64c0.3,3.5,0.9,6.6,0.8,9.6c0,1.1-1.5,2.3-2.3,3.4c-0.8-1.1-1.8-2.1-2.5-3.3c-0.3-0.5,0.1-1.4-0.1-2
	c-0.3-1.2-0.8-2.3-1.2-3.5c-0.7,0.9-1.5,1.7-2.1,2.7c-1.8,3.1-6.3,2.9-8.5-0.3c-1-1.4-1.9-2.9-2.9-4.4c0,1.9,0,3.8-0.3,5.6
	c-0.4,2.4-1,4.8-1.6,7.2c-1.4-2.1-3.8-4-4.1-6.2c-0.7-4.4-0.5-9-0.1-13.4c0.2-1.6,2.2-4.1,3.5-4.1c1.6-0.1,3.9,1.5,4.9,3
	c1.6,2.4,2.2,5.4,3.4,8c0.3,0.7,1.1,1.2,1.7,1.7c0.4-0.6,1.2-1.2,1.3-1.9c0.8-3.2,1.2-6.5,2.2-9.6c0.5-1.6,1.9-3,2.9-4.5
	c1.3,1.5,3.1,2.8,3.8,4.5C358.7,58.6,358.6,61.2,359,64"/>
<path d="M884,200c3.4,2.6,6.9,4.7,10.3,6.9c0.6,0.4,1.1,1.1,1.6,1.6c-0.8,0.5-1.7,1.6-2.3,1.4c-3.8-1.2-7.6-2.6-11.3-4.1
	c-0.7-0.3-1.1-1.2-1.8-1.7c-1.3-1-2.7-2-4.1-3c0.1,1.7,0.1,3.4,0.2,5.1c0.1,1.9,0.4,3.8,0.3,5.8c0,0.7-0.9,2-1.2,1.9
	c-1-0.3-2.4-0.7-2.7-1.5c-1.2-4-2.1-8.1-3-12.2c-0.5-2.4-0.6-5-1-7.5c-1.1-6.2,4.5-9.2,10.2-9c7.8,0.4,10,5.1,5.9,11.8
	C884.4,196.6,884.3,198.2,884,200 M879,194.5c0.8-1.8,1.7-3.6,2.5-5.4c-1.7,0.4-4.3,0.2-5.1,1.3c-1.1,1.6-1,4.1-1.3,6.2
	C876.2,196.1,877.3,195.5,879,194.5"/>
<path d="M901.7,147.8c0,3.8,0.4,7.4,0.5,11c0,1.4-0.7,2.8-1,4.2c-1.2-0.6-2.8-1-3.6-2c-0.9-1.2-1.5-2.8-1.6-4.3
	c-0.2-4.3-0.3-8.7,0.1-13c0.1-1.6,1.6-4.3,2.6-4.4c2-0.2,4.8,0.5,6.1,1.9c2.2,2.3,3.3,5.7,5.3,8.2c1.4,1.9,3.6,3.1,5.4,4.6
	c0.8-2.3,2.2-4.6,2.3-7c0.1-2.3-1.4-4.7-1.7-7.1c-0.2-1.2,0.5-2.6,0.8-3.9c1.4,0.6,3,0.9,4.2,1.8c0.7,0.5,1,1.9,1.1,2.9
	c0.2,4.7,1,9.5,0.3,14c-0.5,3.4-3.6,5.4-7.5,5.3c-5.3-0.1-7.7-3.9-10-7.7C904,150.6,903,149.1,901.7,147.8"/>
<path d="M121,53c1,1.8,1.6,3.5,2,5.3c0.5,2.6,0.4,5.6,4.2,5.7c3,0.1,5.4,0.1,3.9-4.2c-0.7-1.8-0.4-4,0-6c0.1-1,1.1-2.3,2-2.6
	c0.7-0.3,2.1,0.6,2.8,1.3c0.6,0.8,1,2,1,3c0.4,7.2,0.9,14.4,0.9,21.6c0,1.6-1.9,3.3-2.9,4.9c-0.6-1.5-1.5-2.9-1.9-4.4
	c-0.3-1.3,0.4-3-0.2-4.1c-1-1.9-0.1-5.4-4.8-4.7c-3.8,0.6-4.3,2-4,5c0,0.2,0,0.4,0,0.5c-0.7,2.3,1.7,6-2.2,6.6
	c-4.5,0.6-3.3-4.3-3.5-6.1c-0.8-6.4-0.4-12.9-0.2-19.4C118.1,54.6,119.6,53.8,121,53"/>
<path d="M86,112c0.3,4.5,0.8,8.6,0.8,12.6c0.1,1.1-1.5,2.3-2.3,3.4c-0.8-0.9-2-1.7-2.4-2.8c-0.7-1.6-0.7-3.4-1.1-5.1
	c-0.9-2.9-3-4.8-5.8-3.9c-1.2,0.4-1.6,3.3-2.2,5c-0.2,0.8,0.2,1.9-0.1,2.7c-0.3,0.8-1.3,2.1-1.6,2c-1.2-0.4-3-1.1-3.2-2
	c-1.6-6-2.9-12.1-4-18.3c-0.3-1.4,0.6-4.1,1.6-4.4c3.1-1.1,3.8,1.3,4.4,3.8c0.4,1.9,1.3,4.1,2.8,5.1c1.2,0.9,3.5,0.2,5.3,0.2
	c-0.1-1.4-0.1-2.8-0.3-4.2c-0.1-0.9-1-1.8-0.8-2.6c0.3-1.5,1.1-3,1.8-4.5c1.3,0.8,3.4,1.2,3.9,2.3C84.2,104.6,85,108.1,86,112"/>
<path d="M403,65c-0.1-4.7-0.3-9-0.2-13.2c0.1-1.3,1.1-2.5,1.7-3.8c1.6,1,3.7,1.5,4.7,2.9c2.1,2.9,3.7,6.1,5.4,9.2
	c0.4,0.7,0.6,1.6,1.1,2.1c0.8,0.7,1.8,1.2,2.7,1.8c0.2-1.1,0.6-2.2,0.5-3.2c-0.2-2.9-0.8-5.7-0.8-8.6c0-1.4,0.8-3,1.6-4.3
	c0.4-0.6,1.6-0.7,2.5-0.8c0.2,0,0.7,1.3,0.7,2c0.4,5.5,0.9,11,1,16.5c0,1.7-1,4.4-2.2,4.9c-1.5,0.6-4.3,0-5.6-1.1
	c-1.9-1.7-3.1-4.3-4.7-6.4c-0.7-0.8-1.8-1.3-2.7-2c-0.2,1-0.7,2-0.7,3c0.2,2.7,1.1,5.5,0.8,8.1c-0.2,1.7-1.9,3.3-2.9,4.9
	c-0.6-1.3-1.6-2.5-1.9-3.9C403.5,70.6,403.3,68,403,65"/>
<path d="M880.2,57.3c-1.3,1.4-2.5,2.5-3.6,3.7c-0.5-1.2-1.6-2.5-1.5-3.6c0.4-6.4,1.4-12.8,1.8-19.2c0.3-4.2,3.1-6.7,6.5-6.9
	c3.5-0.1,6.9,2,8.3,5.9c0.4,1.3,0.9,2.7,1,4.1c0.5,5.3,1,10.6,1.1,15.9c0.1,1.2-1.5,2.5-2.4,3.8c-0.8-1.1-1.8-2.2-2.4-3.4
	c-0.5-1.1-0.6-2.4-1-3.6c-0.5-1.4,1.6-4.2-2.3-4c-3.2,0.1-4.8,1.5-4.8,4.7C881,55.5,880.6,56.2,880.2,57.3 M887,42.5
	c0-0.7,0.2-1.5-0.1-2c-0.8-1.5-1.9-3-2.9-4.5c-0.7,1.8-1.7,3.5-1.9,5.4c-0.1,1.1,0.8,2.7,1.7,3.5C884.2,45.2,885.9,44,887,42.5"/>
<path d="M194,78c0-6.9-0.1-13.2,0.1-19.6c0-0.8,1.8-2.4,2.3-2.2c2.3,0.6,5.1,1.2,6.4,2.9c2.3,2.8,3.6,6.4,5.5,9.6
	c0.5,0.9,1.6,1.4,2.4,2.1c0.4-1,1.2-2,1.2-2.9c-0.1-1.9-1.1-3.8-0.8-5.6c0.4-2.2,1.6-4.3,2.5-6.4c0.2-0.3,1.3-0.4,1.4-0.3
	c0.7,1.8,1.6,3.7,1.9,5.6c0.3,2,0.2,4,0,6c-0.2,2.8-0.5,5.5-1,8.2c-0.2,1.3-1,3.3-1.7,3.4c-1.6,0.2-3.9-0.1-4.9-1.2
	c-2.4-2.8-4.3-6.1-6.3-9.2c-0.8-1.3-1.4-2.8-2.3-4.1c-0.3-0.5-0.9-0.8-1.3-1.2c-0.2,0.6-0.4,1.3-0.4,1.9c0.1,4.3,0.5,8.6,0.3,12.9
	c-0.1,1.4-1.6,2.7-2.5,4.1C195.9,80.8,194.9,79.7,194,78"/>
<path d="M298.2,99.3c1.4-0.2,3.6-0.1,3.6,0.1c0.5,6.1,1.4,12.3,0.7,18.3c-0.7,5.3-7,5.9-10.7,1.6c-1.4-1.7-2.7-3.5-4.1-5.3
	c-0.2,2.4-0.2,4.8-0.8,7c-0.4,1.2-1.8,2.8-2.8,2.8s-3-1.6-3-2.6c0.1-6,0.4-12,1-18c0.1-1.1,2.6-3.2,3-3c1.8,1,3.8,2.4,4.8,4.1
	c1.7,3.1,2.6,6.6,4.1,9.7c0.6,1.1,1.9,1.8,2.8,2.6c0.4-1.1,1.2-2.3,1.1-3.5c-0.1-2.7-0.8-5.3-0.9-8
	C297,103.2,297.6,101.4,298.2,99.3"/>
<path d="M754,185c9.1,1.8,13.3,7.8,11.9,17.3c-0.8,5.1-6.1,10.9-14,10.8c-3.8,0-3.6-2.3-4-5c-0.8-5.9-2.3-11.7-2.8-17.6
	C744.6,184.4,747.5,182.8,754,185 M750.5,196c0.5,2.6,0.8,5.3,1.5,7.9c0.5,1.4,1.4,3.6,2.4,3.7c1.4,0.2,3.7-0.8,4.3-2
	c1.2-2.8,2.5-6.1,2-9c-0.6-4.1-4.7-6.1-8.4-6.4C748.8,189.9,750.3,193.5,750.5,196"/>
<path d="M740.7,101.3c-0.7-2.7-1.6-5.2-1.6-7.6c0-1.6,1.3-3.1,2.1-4.7c1.2,1,3.3,1.8,3.6,3.1c1.1,3.9,1.4,8.1,2.2,12.1
	c0.2,1,1,1.9,1.5,2.8c0.8-0.8,2.1-1.5,2.3-2.5c1.2-4.8,2.1-9.7,3.2-14.6c0.2-1,1-2.8,1.4-2.7c1.2,0.1,3.4,0.7,3.6,1.5
	c1.5,7.2,2.7,14.5,3.9,21.8c0.1,0.4-0.9,1.5-1.1,1.4c-1-0.3-2.3-0.7-2.8-1.5c-0.7-1.1-0.7-2.7-1.2-4c-0.2-0.5-0.9-0.9-1.3-1.4
	c-0.2,0.5-0.3,0.9-0.5,1.3c-1.9,4-4.7,7.2-9.4,5.6C742.1,110.3,740.8,106.1,740.7,101.3"/>
<path d="M627.2,66.8c-1.4-5.1-2.8-9.9-3.7-14.8c-0.4-2.4-0.6-5.9,0.7-7.2c1.2-1.1,4.9-0.6,7,0.3c3.7,1.6,7.6,3.5,10.4,6.3
	c5.8,6,5,17.3-4.5,20C632.5,72.7,629.4,71.2,627.2,66.8 M632.5,51c-2.3,0-5-0.7-2.8,3.5c1.4,2.6,1.3,6,2.4,8.9
	c0.4,1.1,2,2.4,3.2,2.4c1.2,0.1,2.9-0.9,3.6-2C641.6,59.5,639.4,55,632.5,51"/>
<path d="M214,168c0,1.5,0.4,2.8-0.1,3.4c-0.8,1.1-2.1,2.3-3.3,2.4c-0.8,0.1-2.2-1.5-2.5-2.6c-0.6-1.6-0.5-3.5-0.6-5.2
	c-0.3-3.1-2.4-3.7-4.6-2.8c-1.3,0.5-2.5,2.4-2.8,3.8c-0.6,2.5,0.7,6-3.5,5.8c-1.2,0-3.6-2.1-3.4-3c1-6.5,2.2-13,4-19.3
	c0.5-1.5,3.5-3.2,5.3-3.2s4.6,1.6,5.3,3.3C210.3,156,212,161.8,214,168 M201,156.5c1.2,0.5,2.4,0.9,3.6,1.4c0-0.9,0.4-1.9,0-2.6
	c-0.5-1.2-1.5-2.1-2.3-3.1C201.9,153.3,201.4,154.4,201,156.5"/>
<path d="M928.7,190.3c0.9-2,1.8-4.9,3-5c2-0.2,4.9,0.9,6.1,2.5c2.4,3,3.7,6.7,5.6,10.1c0.5,0.8,1.4,1.4,2.1,2.1
	c0.5-1.1,1.4-2.3,1.4-3.4c-0.1-2.8-0.8-5.7-0.8-8.5c-0.1-1,1-2.1,1.6-3.1c1.1,0.9,3,1.7,3.1,2.6c0.4,4,0.7,8.2,0,12.1
	c-0.4,2.2-2.3,5-4.3,5.8c-1.2,0.5-3.9-1.9-5.7-3.2c-1.5-1.2-2.8-2.9-4.1-4.3c-0.2,2.2-0.5,4.4-0.7,6.6c0,0.7,0.2,1.5-0.1,2.1
	c-0.7,1.4,1.9,4.8-1.9,4.1c-1.3-0.3-2.6-2.9-2.9-4.7C930.1,201,929.6,195.7,928.7,190.3"/>
<path d="M539,165c-0.4-6.7-1.2-12.9-0.8-19c0.2-2.9,3.5-3.1,5.2-0.9c2.8,3.5,5,7.5,7.5,11.3c0.8,1.2,1.6,2.4,2.3,3.6
	c0.6-1.7,1.7-3.4,1.7-5.1c0-3-0.7-6.1-0.9-9.1c0-0.9,0.6-1.9,1-2.8c1.3,0.6,3.5,1,3.8,1.9c0.8,2.6,0.9,5.4,1.2,8.1
	c0.1,1.4-0.1,3,0,4.4c0.2,3.2-0.1,6.2-3.5,7.5c-3.8,1.4-6-1.8-8.5-3.9c-1.1-1-1.9-2.5-2.8-3.7c-0.4,1.8-1.2,3.6-1.1,5.5
	C544.2,167.4,542.3,167.7,539,165"/>
<path d="M115,124c-1.1,1.3-2.3,2.2-3.4,3c-0.5-1.1-1.2-2.1-1.6-3.2c-0.6-1.9-0.5-4.6-1.8-5.6c-2.2-2-5,0.5-5.3,4.3
	c-0.1,1.5-1.1,3-1.7,4.5c-1.1-1.4-3-2.8-3.1-4.3c-0.3-6.1-0.1-12.3-0.1-18.4c-0.1-3.3,1.7-4.9,4.7-5.2c3.5-0.4,6.5,0.5,8.3,4.1
	C114.2,109.6,115.1,116.5,115,124 M106.5,106c-1.2-0.5-2.3-1-3.4-1.6c-0.4,2.3-0.8,4.7-1,7c0,0.1,2.4,0.7,3.6,0.6
	C111.5,111.4,105.4,108.1,106.5,106"/>
<path d="M902,39c1.9-4.7,4.8-4.1,7.1-1.2c2.6,3.2,4.5,7,6.9,10.5c0.7,1,1.8,1.7,2.7,2.5c0.4-1.2,1.1-2.3,1.2-3.5
	c0.2-2.7-0.2-5.5,0.2-8.1c0.2-1.2,1.7-2.1,2.6-3.2c0.5,1,1.5,1.9,1.6,2.9c0.3,5.4,1,10.8,0.5,16.2c-0.4,3-4,2.7-5.9,1.1
	c-2.9-2.3-5.3-5.3-7.9-8c-0.6-0.7-1.1-1.4-1.7-2c-0.4,0.9-1.3,1.9-1.2,2.9c0.1,2.5,0.9,5,0.9,7.5c0,1.8-0.9,3.5-1.3,5.2
	c-1.3-1.2-3.3-2.1-3.6-3.5c-1-4.5-1.5-9.1-2.1-13.6C901.8,43,902,41.2,902,39"/>
<path d="M395,157c0-2.3-0.2-4.2,0.1-6c0.1-1,1-2.6,1.8-2.8c0.8-0.2,2.9,0.9,2.9,1.5c0.3,5.6,1.1,11.3-0.1,16.6
	c-0.9,4-7.1,3.2-9.7-1.1c-1.4-2.1-2.9-4.1-4.3-6.2c0.1,2.4,0.2,4.8,0.3,7.2c0,1,0.2,2.1-0.1,2.9c-0.4,1.1-1.2,2.6-2,2.7
	c-0.8,0.2-2.3-0.8-2.8-1.7c-0.7-1.2-0.9-2.7-1.1-4.1c-0.4-3.8-1.1-7.7-0.9-11.5c0.1-2.5,1.5-5,2.3-7.5c2.1,1.4,4.6,2.4,6.1,4.2
	c1.9,2.4,2.8,5.5,4.4,8.1c0.8,1.4,2.1,2.5,3.2,3.7C395.1,161.2,395,159.3,395,157"/>
<path d="M243,162c-0.6,2.7-0.8,6.3-2,6.7c-3,1-6-0.1-7.7-3.7c-0.9-2-3.1-3.3-4.7-5c0.1,2.1,0.6,4.2,0.3,6.2c-0.2,1.7-1.3,3.2-2,4.8
	c-1.3-1.1-3.6-2.2-3.8-3.5c-0.7-6.1-0.8-12.3-1-18.5c0-0.2,2.9-1.2,3.5-0.7c2.6,2.4,5,5.1,7.3,7.8c0.5,0.5,0.4,1.5,0.8,2.1
	c1,1.2,2.1,2.3,3.2,3.4c0.3-1.7,1.5-3.8,0.9-4.9c-1.9-3.6-0.1-5.9,2.1-7.9c0.8-0.7,2.8-0.1,4.3-0.1c-0.1,1.1-0.1,2.2-0.2,3.3
	C243.7,155.1,243.3,158.3,243,162"/>
<path d="M615,64c-1,4.7-3.2,6-6.5,3.9c-2.4-1.4-4.4-3.7-6.6-5.5c-0.7-0.5-1.6-0.9-2.4-1.4c-0.1,0.9-0.4,1.8-0.3,2.7
	c0.1,0.7,0.8,1.5,0.7,2.2c-0.2,1.7-0.7,3.4-1.1,5.1c-1.5-1.4-4-2.6-4.4-4.3c-1.3-4.7-1.9-9.6-2.3-14.5c-0.1-1.3,1.3-2.8,2-4.2
	c1.7,0.8,3.8,1.3,4.8,2.6c2.6,3.3,4.7,7,7.1,10.5c0.6,0.8,1.9,1.1,2.8,1.6c0.1-0.9,0.3-1.8,0.1-2.6c-0.6-3.6-1.4-7.1-1.8-10.7
	c-0.1-1,1.2-2.2,1.8-3.4c1,0.9,2.7,1.7,3,2.8C613.1,53.7,614,58.6,615,64"/>
<path d="M712.7,64.8c-8.5,0.2-9.3-0.5-9.7-9.2c-0.3-4.3-0.6-8.6-1.1-13c-0.2-2.2,0.7-3.2,2.7-2.5c5.1,1.6,10.4,3.1,15.2,5.4
	c5.8,2.8,3.8,14.4-1.9,16.5C716.2,62.7,714.6,63.7,712.7,64.8 M708.5,56c0.7,1,1.6,2.9,2,2.8c2.2-0.4,5-0.9,6.3-2.4
	c1.1-1.4,1.5-5.3,0.6-6c-2.5-2-5.9-3-9-4.3c-0.1,1.8-0.3,3.6-0.4,5.4C707.9,52.9,708,54.2,708.5,56"/>
<path d="M570.2,94.8c1.4,3.2,3.2,6.1,3.6,9.3c0.6,4.2,0.3,8.6,0.1,12.9c-0.1,1-1.5,2-2.3,3c-0.9-0.9-2.3-1.7-2.5-2.7
	c-0.4-2.1-0.2-4.3-0.1-6.5c0.1-3.3-1.4-5.7-4.7-5.7c-3,0.1-3.4,2.8-3.4,5.5c0,2-0.5,4.1-1.1,6c-0.2,0.6-1.7,1.4-2.3,1.2
	c-0.7-0.1-1.5-1.4-1.5-2.2c0.4-6.1,0.2-12.4,1.5-18.4C558.6,92.6,563.2,89.1,570.2,94.8 M563,97.5c0.5,0.8,1.1,1.7,1.6,2.5
	c0.5-0.4,0.9-0.9,1.4-1.3C565.1,98.1,564.3,97.6,563,97.5"/>
<path d="M757.2,53.3c0.1,3.2,0.7,6.3,0.6,9.3c0,0.8-1.8,2.2-2.8,2.2s-2.8-1.2-2.9-2.1c-0.9-6.2-1.6-12.4-2-18.7c-0.1-1.1,1-3,2-3.4
	c1.1-0.3,3.2,0.2,3.9,1.1c2.3,2.8,3.9,6.1,6,9c0.9,1.3,2.4,2.1,3.6,3.2c0.1-1.8,0.5-3.6,0.3-5.4c-0.4-3.4-1.4-6.7-1.8-10.1
	c-0.1-1,1.3-2,2-3c0.6,0.8,1.6,1.6,1.8,2.5C769,43,770,48,771,53.1c0.5,2.7-0.3,5.6-3.1,5.7c-2.3,0.1-4.7-1.7-6.9-2.9
	C759.7,55.2,758.6,54,757.2,53.3"/>
<path d="M256,167c-0.7-5.9-1.4-11.3-1.9-16.7c-0.1-0.7,1.1-2,1.9-2.2c7.1-2.2,17,4.4,18,11.8c0.7,5.2-1.5,9.8-5.3,11.9
	c-5,2.8-8.5,0.4-11.7-3.2C256.7,168.2,256.3,167.9,256,167 M262.5,154c-4.3,3.2-1.5,7.3-1,10.8c0.5,4,3.1,4.2,6,1.2
	C270.8,162.5,269.1,157.5,262.5,154"/>
<path d="M1001,91c0,1.8,0.5,3.6-0.1,4.4c-4.3,5.3-0.1,7.2,3.3,9.7c0.9,0.5,1.5,1.6,1.8,2.5c0.5,1.3,0.6,2.7,0.8,4.1
	c-1.3-0.4-2.7-0.5-3.7-1.2c-2.5-1.8-4.8-3.9-7.1-5.8c-0.6-0.5-1.1-1-1.7-1.5c-0.3,0.6-0.8,1.3-1,2c-0.2,0.6-0.1,1.3-0.3,1.9
	c-0.6,1.7-1.3,3.3-2,4.9c-1.3-1.7-3.5-3.2-3.9-5c-1.1-5-1.3-10.1-2.2-15.2c-0.5-3.3,1.1-3.9,3.9-4.2C993.2,87.2,998,85,1001,91
	 M991,95.5c2.5,3.3,3.6,0.3,4.9-1.2c0.5-0.5,0.4-1.5,0.6-2.3c-1.6,0.9-3.1,1.8-4.7,2.7C991.7,94.7,991.6,94.9,991,95.5"/>
<path d="M948,151c2.8,1.1,3.2,2.2,0.4,3c-1.9,0.6-4.1,0.5-6,1.1c-1.3,0.3-2.3,1.2-3.4,1.9c1.1,0.7,2.1,1.7,3.3,1.9
	c1.8,0.4,3.7,0.1,5.5,0.1c0.7,0.1,1.5,0.4,2.2,0.6c-0.4,0.7-0.7,1.9-1.2,2c-3.7,0.6-7.5,1.9-11.1,1.4c-4.4-0.6-4.9-4.8-4.8-8.7
	c0.2-4.3,0.3-8.7,0-13c-0.2-3.5,1.2-4.6,4.6-4.3c2.8,0.2,5.7-0.1,8.5,0.1c1,0.1,2,1.1,3,1.7c-0.9,1.1-1.6,2.4-2.7,3.1
	c-1,0.7-2.6,0.4-3.5,1.2c-1.2,1-2.5,2.6-2.6,4c0,0.9,1.9,2.2,3.2,2.8C944.6,150.6,946.1,150.7,948,151"/>
<path d="M492,108c0.8-3.6,1-7.2,2.6-9.9c1.5-2.5,4.5-5.8,6.7-5.6c2.3,0.1,5.7,3.5,6.4,6.1c1.5,5.4,1.7,11.3,2.2,17
	c0.1,1.1-0.9,2.3-1.4,3.4c-0.9-0.9-2.2-1.7-2.7-2.8c-0.6-1.2-0.3-2.9-0.9-4.1c-0.7-1.5-1.8-2.7-2.7-4.1c-1.4,1.4-3.2,2.6-4.1,4.3
	c-1.2,2.2,1.9,7-3.3,6.5c-4.4-0.3-2.3-4.6-2.8-7.3C491.8,110.5,492,109.5,492,108 M503,99.5c-0.6-0.8-1.2-1.5-1.7-2.3
	c-0.8,1.8-1.6,3.6-2.2,5.5c-0.1,0.2,1.4,0.8,2.2,1.3C501.9,102.8,502.4,101.7,503,99.5"/>
<path d="M849,138c1.7,0.6,3.1,1,4.2,1.8c0.6,0.5,0.5,1.7,0.8,2.6c-0.8,0.2-1.5,0.4-2.2,0.6c-2.3,0.8-4.6,1.7-6.8,2.6
	c2.2,0.4,4.5,0.9,6.8,1.4c0.5,0.1,1-0.1,1.5,0c1.9,0.5,3.8,1.1,5.7,1.7c-1.9,1.1-3.7,2.2-5.6,3.3c-0.4,0.2-1.3-0.2-1.5,0
	c-1,1.3-2,2.6-2.9,4c1,0.6,2,1.6,3.2,2c2.2,0.6,4.5,1,6.8,1.5c-2.2,1.5-4.2,3.6-6.6,4.4c-5.6,1.8-10.1-1.9-10.5-7.9
	c-0.1-2.5-0.3-5.1-1-7.5C838.7,141.2,839.1,137.4,849,138"/>
<path d="M581,70c-0.7-2.7-1.1-5-2.1-7.1c-0.4-0.9-2-1.9-2.9-1.7c-0.8,0.1-1.8,1.7-1.9,2.7c-0.3,1.9,0.1,4-0.2,6
	c-0.2,1.1-1.5,2.9-2.1,2.9c-1.3,0-3.4-1.3-3.4-2.1c-0.2-6.8-0.8-13.9,0.3-20.6c0.6-4,8-4.6,9.8-0.8c3.1,6.2,5.3,12.8,7.3,19.4
	c0.5,1.6-1.3,4-2,6C582.9,73.3,581.9,71.9,581,70 M573,56.5c0.5,0.5,1.1,0.9,1.6,1.4c0.5-1.5,1.1-2.9,1.3-4.3c0-0.4-1-1-1.6-1.4
	C573.9,53.3,573.4,54.4,573,56.5"/>
<path d="M713.2,103.8c0.1-3.6,0.6-7,0.7-10.4c0.2-4,2.8-5.7,6.2-6.3c4.1-0.9,6.6,1.9,7.8,5.2c2,5.8,3,12,2,18.2
	c-0.2,0.9-1.5,1.7-2.3,2.5c-0.6-0.7-1.3-1.4-1.6-2.2c-0.5-1.8-0.5-3.7-1.1-5.5c-0.4-1.4-1.5-3.7-1.8-3.7c-2,0.5-5.3-0.1-4.1,3.9
	c0.1,0.5,0.1,1,0,1.5c-0.4,1.7-0.9,3.3-1.3,5c-1.2-1.7-2.6-3.4-3.7-5.2C713.6,106,713.6,104.9,713.2,103.8 M724,96.5
	c-0.7-1-1.3-2.1-2.1-3.1c-0.5-0.4-1.2-0.7-1.8-1.1c-0.3,1-0.9,2-1.1,3c0,0.5,0.6,1.5,1,1.6C721.1,97.2,722.3,97,724,96.5"/>
<path d="M350.7,160.8c-1.2,6.7-6.4,10.6-13.7,8.1c-1.3-0.4-2.6-2.1-2.9-3.4c-1-4.6-1.5-9.4-2.1-14.1c-0.5-3.7,3.3-7.1,7.1-6.4
	c5.8,1.1,10.1,5.9,10.9,11.9C350.2,158.1,350.6,159.3,350.7,160.8 M339,157.5c0.3,1.7,0.4,3.5,1.1,5c0.3,1,1.4,1.9,2.4,2.4
	c0.2,0.1,1.8-1.2,1.9-1.9c0.1-2.4,0.3-5-0.4-7.3c-0.6-1.8-2.5-3.1-3.8-4.7C339.8,152.8,339.4,154.7,339,157.5"/>
<path d="M843.2,184.3c3.6-0.3,6.9-0.5,10.2-0.2c1.3,0.1,2.4,1.5,3.6,2.3c-1.1,0.8-2.1,1.8-3.3,2.6c-1.5,1.1-3.1,2.1-4.7,3.2
	c1.5,1.3,2.9,3,4.6,3.7c2.7,1,2.4,1.9,0.6,3.4c-0.5,0.4-1.1,0.8-1.4,1.4c-0.7,1.4-2,3.2-1.6,4.1c0.5,1.1,2.6,1.6,4.1,2.2
	c1.1,0.5,2.3,0.8,3.4,1.3c-0.9,0.9-1.7,2-2.8,2.7c-6.6,3.8-9.2,2.9-11-4.7c-1.4-5.8-2.1-11.8-2.9-17.7
	C841.9,187.3,842.6,185.9,843.2,184.3"/>
<path d="M906,210c-4.3-0.9-4.3-4.2-5-7c-0.8-3.2-1.3-6.4-2-9.6c-1.6-7,2.5-11,10-9.3c1.5,0.3,2.7,1.8,4,2.8c-1.4,1-2.8,2.1-4.3,3.1
	c-1.2,0.8-2.5,1.4-3.7,2.1c1.3,0.6,2.6,1.5,4,1.9c1.9,0.4,4,0.5,6,0.7c-1.8,1.4-3.6,2.8-5.3,4.1c-1,0.8-1.8,1.6-2.7,2.3
	c1,1,1.9,2.3,3.1,2.8c2.2,1.1,4.6,1.8,6.9,2.6c-2.9,1.2-5.7,2.4-8.5,3.5C907.9,210.2,907.1,210,906,210"/>
<path d="M966,104c-0.4,1.5-0.6,2.6-1,3.6c-0.6,1.2-1.3,2.3-2,3.4c-1-1.3-3.1-2.9-2.8-3.9c1.5-6.3-0.2-13.4,4.3-19.1
	c2.2-2.8,8.1-2.9,9,0.3c2,6.4,3.2,13,4.3,19.6c0.2,1.2-1.4,2.7-2.1,4.1c-0.9-1.4-2-2.7-2.6-4.2c-0.5-1,0.1-2.4-0.2-3.4
	c-0.4-1.6-1.3-2.9-2-4.4C969.3,101.2,967.6,102.3,966,104 M967.5,96c0.8-1.3,1.7-2.5,2.4-3.9c0.1-0.1-0.7-0.7-1.1-1.1
	C968.2,92.5,967.6,94,967.5,96"/>
<path d="M792,99c-0.4-2.2-0.9-3.9-1-5.6c-0.2-6.5,2.6-8.5,9.2-6.7c0.8,0.2,1.6,0.1,2.4,0.3c0.8,0.4,1.6,0.9,2.4,1.4
	c-0.6,0.9-1,2.1-1.8,2.5c-2.4,1.3-7,0.1-5.9,4.7c0.2,1,4.7,0.9,7.2,1.4c0.8,0.2,1.6,0.9,2.5,1.3c-0.7,1-1.1,2.4-2,3
	c-1.4,0.9-3.3,1-4.6,2c-0.8,0.6-1.6,2.5-1.2,3.2c0.4,0.8,2.7,1.8,3.2,1.4c2.2-1.7,4.1-1.2,4.3,1.1c0.2,1.2-2.1,3.3-3.7,3.9
	c-4.8,1.8-8.7-0.4-9.9-5.4C792.4,104.9,792.3,102.2,792,99"/>
<path d="M939,110c-0.7-8-1.5-15.5-1.9-23.1c0-0.9,1.8-2.6,2.9-2.8c3.5-0.6,7.1-1.3,10.5-0.9c1.7,0.2,4.1,2.8,4.2,4.4
	c0.2,2.4-1.1,5.1-2.4,7.3c-0.6,1.1-2.6,1.6-4,2.1c-6.8,2.1-6.7,2-4.9,9c0.4,1.8-0.4,3.8-0.7,5.8C941.5,111.3,940.2,110.9,939,110
	 M943.5,89c-0.5,1.1-1,2.2-1.5,3.4c1.2,0.2,2.6,0.9,3.5,0.5c1.9-0.7,3.5-2,5.2-3.2c0,0-0.3-0.9-0.5-0.9
	C948.3,88.8,946.4,88.9,943.5,89"/>
<path d="M828,201c-3.9-0.5-5.5,0.8-5,4.4c0.1,1.1,0.4,2.5-0.1,3.4c-0.7,1.3-2,2.4-3.3,3c-0.4,0.2-2.3-1.5-2.5-2.5
	c-0.9-5.1-1.4-10.4-2.1-15.6c-0.2-1.3-1.3-2.9-0.9-4c0.5-1.4,1.9-3.4,3.1-3.5c3.8-0.5,7.8-0.5,11.6,0c1.5,0.1,2.8,2,4.2,3.1
	c-1.4,0.9-2.7,2.2-4.2,2.6c-1.7,0.5-3.7-0.2-5.4,0.2c-1,0.2-1.6,1.6-2.4,2.4c0.7,0.5,1.4,1.2,2.3,1.5c1.3,0.4,2.7,0.9,4,1
	C832.3,197.1,830.1,199.1,828,201"/>
<path d="M432.7,119.8c-4.5-0.7-8.5-2.1-9.4-7.1c-1.1-5.6-0.8-11.3,2.8-15.9c1.4-1.8,4.8-3.2,7-2.9c4.9,0.6,3.3,5.5,2.6,7.8
	c-1.1,3.4-0.2,3.7,2.4,3.3c3.4-0.6,3.6,1.9,2.7,3.4C438.6,112.3,435.6,115.8,432.7,119.8 M428.5,103c0.3,3.4,0.6,6.7,1.1,10
	c0.1,0.8,1,1.4,1.5,2c0.6-0.8,1.7-1.6,1.8-2.4c0.2-3.3,0.2-6.6,0-9.9c-0.1-1.3-1-2.5-1.6-3.7C430.5,100.2,429.8,101.3,428.5,103"/>
<path d="M1018,274c-10.3,0.3-20.1,0.8-29.8,0.9c-4.2,0.1-8.4-0.5-12.6-0.9c-0.6-0.1-1.1-0.8-1.6-1.1c0.5-0.7,0.8-1.6,1.4-1.8
	c1.7-0.6,3.4-1,5.1-1c16.6-0.1,33.2-0.1,49.8-0.1c0.7,0,1.4-0.2,2,0.1c1.1,0.5,2.1,1.2,3.2,1.9c-1.2,0.7-2.4,1.9-3.6,1.9
	C1027.5,274.1,1023,274,1018,274"/>
<path d="M505.2,63.3c0.4-3.2,0.2-6.2,0.9-9c0.5-1.9,2.3-5,3.6-5c3.4-0.1,2.4,3.3,2.2,5.2c-0.4,4.9-0.8,9.9-2.1,14.6
	c-0.6,2.3-3,5-5.1,5.6c-1.8,0.5-5.5-1.3-6.3-3.1c-2.6-6-4.4-12.4-6.3-18.7c-0.3-1,0.6-2.4,1-3.5c1,0.8,2.6,1.4,3,2.4
	c1.8,4.7,3.3,9.6,4.9,14.4c0.2,0.6,0.2,1.3,0.5,1.8c0.6,1,1.4,1.9,2.1,2.9c0.4-1.1,1.1-2.2,1.3-3.4C505.2,66.2,505,64.8,505.2,63.3"
	/>
<path d="M58.2,164.3c-2.1,2.4-3.6,5.7-5.9,6.5c-4.1,1.3-7.3-1.2-9.3-5c-2.8-5.2-0.4-14.7,4.5-17.8c3.6-2.3,9.5-0.5,10.3,3.7
	C58.7,155.7,58.3,159.9,58.2,164.3 M53,156.5c-0.6-1.5-1.2-3-2-4.4c0-0.2-1.5,0.1-2,0.6c-1.9,1.9-2.4,9.8-0.7,12
	c0.5,0.7,2,1.4,2.8,1.2c0.8-0.2,1.7-1.5,1.8-2.4C53.2,161.5,53,159.5,53,156.5"/>
<path d="M965,191c-1.3-1.3-2.7-2.2-4-3c-0.7-0.4-2-1-1.9-1.2c0.3-1,0.8-2.2,1.5-2.7c2.8-2,15.5-1.8,18.2,0.3
	c0.6,0.5,1.1,1.6,1.1,2.4c0,0.4-1.3,1.1-2.1,1.2c-4.2,0.5-6.5,2.3-5.9,7.1c0.5,4.6,0.3,9.3,0,14c-0.1,1.3-1.6,2.6-2.4,3.9
	c-1.2-1.3-3.2-2.5-3.4-3.9c-0.4-4.3,0-8.7-0.2-13C965.9,194.6,965.3,193,965,191"/>
<path d="M706.2,162.8c-0.9-7.3-1.8-14.3-2-21.4c0-1.1,3.4-3.1,5.3-3.2c2.3-0.1,4.7,1.2,7.1,1.9c-1.2,1-2.3,2-3.5,2.9
	c-1,0.8-2.1,1.5-3.1,2.3c1.2,0.6,2.4,1.3,3.6,1.7c0.9,0.2,2.1-0.2,2.9,0.2c0.7,0.4,1.3,1.5,1.4,2.3c0,0.4-1,1.2-1.7,1.5
	c-2.3,0.7-5.1,0.6-5.3,4.2c-0.2,3.7,1.9,3.8,4.6,4c0.9,0,2.1,1.3,2.3,2.3c0.2,0.6-0.8,2.1-1.6,2.4
	C712.8,165.4,709.4,166.3,706.2,162.8"/>
<path d="M460.7,99.3c0.6,4.8,1.7,9.5,1.1,13.9c-0.7,4.5-5.3,6.9-9.7,5.7c-4-1.1-6.4-3.8-6.1-8.4c0.1-1.8,0.2-3.7-0.1-5.5
	c-0.5-4.1,1.6-7.3,4.8-8.8C454.1,94.7,458,95.3,460.7,99.3 M457,110.5c0-2.2,0.4-4.4-0.2-6.4c-0.3-1.3-2.1-2.1-3.2-3.1
	c-0.9,1.1-2.2,2-2.5,3.2c-0.4,1.9-0.5,4.1,0,6c0.3,1.4,1.6,2.5,2.5,3.8C454.7,113.2,455.9,112.3,457,110.5"/>
<path d="M790,194c-2.4-6-1.5-10.4,6-10c2.5,0.2,5.1,0.3,7.5,1.2c1.1,0.4,1.7,2.4,2.5,3.7c-1.1,0.4-2.1,0.8-3.2,1.1
	c-0.8,0.1-1.8-0.3-2.5,0.1c-1.8,0.9-3.6,2-5.3,3c1.6,0.7,3.3,1.3,5,1.9c0.9,0.3,2,0.5,3,0.8c-0.6,1.1-0.9,2.8-1.7,3.1
	c-3.2,1.1-3.1,3.5-3.5,6.2c-0.3,2.1-2.2,3.9-3.3,5.9c-1.2-2-2.9-3.8-3.4-6C790.3,201.6,790.3,198,790,194"/>
<path d="M622,140c1.8,0.3,3.3,0.5,4.5,1.1c0.4,0.2,0.6,2.2,0.5,2.3c-6.8,2.6-4.4,8.1-3.9,12.9c0.2,2.2,1.7,4.4,1.7,6.6
	c0,2-1.3,4.1-2.1,6.1c-1.2-1.6-3-2.9-3.6-4.7c-1.3-4.1-2.4-8.4-2.9-12.7c-0.5-4-2.3-4.9-5.9-4.7c-1.4,0.1-2.9-1.3-4.3-1.9
	c1.3-1.4,2.4-3.5,4-3.8C613.7,140.3,617.6,140.3,622,140"/>
<path d="M802.2,52.8c0.1,2.3,0.3,4.6-0.2,6.6c-0.4,1.3-1.8,2.4-2.8,3.6c-0.7-1.4-1.9-2.7-2.1-4.1c-0.6-3.8-1-7.7-1.1-11.6
	c0-3.7-1.4-5.4-5.2-5.4c-1.3,0-2.5-1.2-3.8-1.9c1.3-1,2.5-2.5,4-2.9c5.2-1.2,10.4-2.3,15.7-3c1.8-0.2,3.8,0.4,5.5,1
	c0.4,0.2,0.1,2.1-0.1,3.2c0,0.3-0.7,0.5-1.1,0.7C802,42.1,802,42.1,802.2,52.8"/>
<path d="M210,120c0,3.1-4.2,7.1-6.9,6.6c-3.5-0.6-5.1-2.8-5.2-6.6c-0.1-5-0.5-10-0.9-15c-0.3-3.3,0.2-5.6,4.3-5
	c0.9,0.1,1.7-0.1,2.5,0c2.1,0.5,4.1,1.1,6.2,1.7c-1.5,1.4-2.9,2.8-4.3,4.1c-0.6,0.5-1.2,0.8-1.7,1.2c0.8,0.7,1.5,1.5,2.4,2
	c1.1,0.7,2.4,1.2,3.6,1.8c-1,0.9-2,1.7-3,2.6c-0.6,0.6-1.3,1.1-1.7,1.8c-0.6,0.9-0.9,2-1.3,3c0.9,0.2,1.9,0.5,2.9,0.8
	C207.8,119.3,208.6,119.7,210,120"/>
<path d="M947,45c0.6,4.9,1.4,9.3,1.6,13.7c0,1.1-2.2,2.2-3.3,3.3c-0.8-1.2-2-2.3-2.2-3.6c-0.9-4.6-1.9-9.3-2-14
	c-0.1-4.3-2.4-4.9-5.7-5.5c-1.2-0.2-2.3-1.2-3.4-1.8c0.9-1,1.9-3,2.8-2.9c6,0,12,0.4,18,0.9c0.8,0.1,1.5,1.4,2.2,2.1
	c-0.9,0.6-1.7,1.6-2.6,1.7C949.1,39.4,946.4,40.3,947,45"/>
<path d="M69,162c-0.7-4.5-1.4-8.6-2-12.6c-0.4-2.9,0.4-4.8,3.9-4.4c3.8,0.4,7.5,0.5,11.2,1.1c1.4,0.2,2.5,1.6,3.8,2.5
	c-1.3,0.8-2.6,1.9-4,2.3c-1.6,0.4-3.3-0.1-5,0.2c-1.3,0.2-2.6,0.9-3.9,1.3c1.2,1.2,2.1,2.5,3.4,3.4c0.7,0.5,2,0,2.9,0.3
	c0.7,0.2,1.6,1.1,1.6,1.6c-0.1,0.8-1,2.2-1.5,2.2c-5.5-0.1-4.3,3.8-4.5,7c-0.1,1.8,1.4,4.4-2.6,4.2c-3.6-0.2-3.4-2.2-3.3-4.6
	C69,165.2,69,163.8,69,162"/>
<path d="M151.2,147.3c3.5,0,6.7,0.2,9.8,0.8c0.8,0.2,1.3,1.8,2,2.8c-0.9,0.4-1.8,0.7-2.7,1.1c-1.5,0.7-2.9,1.4-4.3,2.1
	c1.3,0.9,2.6,2,4,2.9c1.2,0.7,2.6,1.2,4,1.9c-1.2,0.7-2.5,1.4-3.7,2.3c-1.1,0.9-2.2,2-3.3,3c1,1.1,2.1,2.4,3.2,3.5
	c0.8,0.8,1.6,1.4,2.4,2.1c-1.1,0.8-2.3,1.9-3.5,2.1c-6.7,1-7.9-0.4-8.2-7.2c-0.2-4.4-1.4-8.8-1.8-13.2
	C149,150.3,150.3,148.9,151.2,147.3"/>
<path d="M175.2,125.3c-2.8-0.2-3.9-1.2-4.2-4.6c-0.5-6-0.9-12-0.9-18c0-1.3,1.9-3.4,3.1-3.5c3.8-0.5,7.7-0.3,11.5-0.1
	c1.1,0.1,2.2,1.3,3.3,2c-1,0.8-1.8,1.9-2.9,2.2c-1.8,0.5-3.9,0.2-5.7,0.8c-1.2,0.4-2.3,1.5-3.4,2.3c0.9,0.9,1.7,1.9,2.8,2.6
	c1.1,0.5,2.5,0.5,3.5,1.1c0.8,0.4,1.1,1.4,1.7,2.2c-0.7,0.4-1.3,0.9-1.9,1.1c-4.4,0.8-5.6,3.6-5.2,7.7
	C177,122.4,176,123.7,175.2,125.3"/>
<path d="M645.7,149.3c0.3,3.3,1.1,6.6,0,9.3c-1,2.5-3.5,5-6.1,6.2c-2.9,1.5-5.3-0.8-7.5-3.1c-3.2-3.3-2.8-11.9-1.3-13.9
	C635.2,141.8,640.7,142.6,645.7,149.3 M641,154.5c-0.1-0.8,0-1.8-0.4-2.3c-1-1.2-2.3-2.1-3.5-3.2c-0.7,1.4-1.5,2.8-2.1,4.3
	c-0.2,0.5-0.3,1.4,0,1.9c1,1.7,2.1,3.2,3.1,4.8C639.1,158.5,640,157,641,154.5"/>
<path d="M589,116c1.8-5.2,1.2-9.2-2.4-13.2c-2.1-2.3-2.6-6.2-3.6-9.4c-0.2-0.7,0.5-1.6,0.8-2.4c1.1,0.4,2.6,0.5,3.1,1.2
	c1.3,1.9,2,4.1,3.1,6.2c0.5,0.9,1.1,1.7,1.7,2.6c0.4-0.8,0.7-1.7,1.3-2.5c1.4-1.9,3-3.6,4.5-5.5c0.2,2.7,0.7,5.4,0.4,7.9
	c-0.7,5-1.9,9.9-2.9,14.8c-0.1,0.1,0,0.3,0,0.4c-1.4,2.3-2.8,4.6-4.2,6.9C590.2,120.8,589.6,118.7,589,116"/>
<path d="M47,119c0-5.6,0-10.7-6.2-12.8c-0.8-0.2-1.2-1.7-1.8-2.6c1.1-0.5,2.3-1.7,3.2-1.5c4.4,0.9,8.6,0.4,12.8-0.9
	c1.2-0.4,3,1.2,4.6,1.9c-1.2,1-2.2,2.5-3.5,2.8c-5.2,1.4-4.3,5.2-3.9,8.8c0.5,4.6,1.3,9.2,1.7,13.9c0,1.1-1.2,2.3-1.9,3.4
	c-0.8-1-2.1-1.9-2.5-3.1C48.5,125.9,47.8,122.7,47,119"/>
<path d="M361,167c-4.9-5.6-5.6-11.4-2-17.7c2.1-3.8,7.6-4.7,10.3-1.4c3.2,4.2,5,8.9,2.8,14.6C369.9,168.2,367.5,169.4,361,167
	 M363,160.5c1.1,1.2,2.3,2.3,3.4,3.5c0.5-1.6,1.3-3.1,1.5-4.8c0.3-1.6,0.5-3.4,0-4.9c-0.5-1.3-2-2.2-3.1-3.3
	c-0.6,1.2-1.5,2.3-1.8,3.6C362.7,156.2,363,157.9,363,160.5"/>
<path d="M676.7,103.8c-0.7,1.7-1.2,3.1-1.7,4.6c1.2,0.2,2.4,0.4,3.6,0.6c1.4,0.3,2.7,0.5,4.1,0.8c-1.2,1.4-2.1,3.3-3.6,4.1
	c-6.7,3.5-10.1,1.2-10.1-6.3c0-4.5-0.2-9,0.1-13.4c0.1-1.1,2.1-3.1,3.1-3c2.6,0.1,5.4,0.8,7.7,2.1c0.7,0.4,0.5,3.1-2.3,2.8
	c-0.7,0-1.6,1.5-2.5,2.3c0.7,0.2,1.3,0.4,1.9,0.6c1.7,0.5,3.3,0.9,5,1.4C680.3,101.4,678.6,102.5,676.7,103.8"/>
<path d="M738,62c-3.9,1.1-6.3-0.5-8.5-2.9c-2.2-2.4-2.2-12.3,0.3-14.5c3.1-2.7,6.3-3.6,10-1.6s6.5,7.3,4.9,12.3
	C743.9,58,740.6,59.8,738,62 M737.5,57c4.3-1.4,2.7-4.6,1.7-7c-0.4-1-2.5-1.7-3.9-1.8c-0.7-0.1-2.4,1.8-2.2,2.3
	C734,52.8,735.3,54.9,737.5,57"/>
<path d="M1020,110c-0.7-5-1.8-9.6-1.9-14.1c0-3.9-1.5-5.4-5.1-6c-1.1-0.2-2-1.5-3-2.3c1-0.8,2.1-2.4,3.2-2.5
	c5.3-0.2,10.6-0.2,15.9,0c1,0,1.9,1.2,2.9,1.9c-0.8,1-1.4,2.3-2.5,2.8c-1.6,0.8-4.9,0.8-5.1,1.5c-0.5,3.2-0.1,6.4,0,9.7
	c0.2,2.5,0.9,5.2,0.4,7.7C1024.4,110.8,1023.1,113.9,1020,110"/>
<path d="M433,162c-0.7-3.9-1.7-7.2-1.9-10.6c-0.2-3.1-1.7-3.6-4.1-3.4c-0.9,0.1-1.9,0.3-2.5-0.1c-1-0.5-2.3-1.4-2.4-2.3
	c0-0.7,1.3-1.7,2.2-2.4c0.5-0.3,1.3-0.1,1.9-0.2c4.4-0.3,8.8-0.9,13.2-0.9c1.5,0,3.1,1.5,4.6,2.2c-1.3,0.9-2.4,2.2-3.7,2.6
	c-3.5,1.2-3.6,3.8-3.2,6.7c0.6,4.2,1.3,8.4,1.8,12.7c0.1,0.8-0.6,1.8-1,2.7c-1-0.6-2.5-0.9-3.1-1.8C433.9,165.8,433.6,164.1,433,162
	"/>
<path d="M787.7,156.8c-3.2,1.7-5.6,3.9-9.6,2.4c-3.9-1.5-4.8-4.2-5.1-7.5c-0.4-4.5,0.3-9.2,4.1-12.1c4-3.2,11.2,1.6,11.8,7.9
	C789.1,150.4,788.3,153.5,787.7,156.8 M784,147.5c-1.6-0.7-1.4-6.1-4.7-2.1c-0.9,1.1-0.6,3.3-0.4,5c0.3,1.5,1.1,3,1.7,4.5
	c1.1-1.6,2.3-3.2,3.3-4.9C784.2,149.6,784,149,784,147.5"/>
<path d="M318.2,122.8c-5-5.1-5.9-15.4-1.8-20.6c1.3-1.5,3.6-2.4,5.6-3.1c0.8-0.2,2,1.2,3,1.8c-0.6,0.8-1,1.7-1.7,2.2
	c-5.3,4.2-5.3,9.3-3.3,13.8c0.5,0.9,1.8,1.4,2.7,2.1c0.5-1,1.2-2,1.2-3c0-3.3,0.3-6.3,4.6-5.9c1.5,0.2,3.2,1.3,4.3,2.5
	c0.4,0.4-0.9,2.5-1.6,3.6c-1,1.6-2.4,3-3.5,4.6C325.3,124.3,322.2,124.9,318.2,122.8"/>
<path d="M389,101c2.6,0.3,5,0.1,6.8,1.1c6.1,3.3,6.6,14.9,0.9,18.6c-5.6,3.8-11.4-0.7-12.6-8.6C383.4,107.9,385.2,104,389,101
	 M392.5,117c4.5-2.3,2.7-5.8,1.4-8.9c-0.6-1.3-2.2-2.1-3.3-3.1c-0.2,2.8-0.6,5.6-0.5,8.3C390.1,114.4,391.3,115.5,392.5,117"/>
<path d="M470.2,58.3c1.4-5,4.2-6.9,9-6.3c3.4,0.4,7.2,4.1,7.7,8.4c0.9,7.5-2.3,13.3-9.8,11.5c-5.1-1.3-6-6.5-7.1-10.9
	C469.8,60.2,470,59.3,470.2,58.3 M476,64.5c1.4,0.8,2.9,1.7,4.4,2.5c0.3-1.7,1.3-3.5,0.9-5c-0.6-2-2.4-5.3-3.3-5.2
	c-3.8,0.5-1.3,4-2,6.2C475.9,63.2,476,63.3,476,64.5"/>
<path d="M756.2,138.3c1.4-0.3,2.8-0.7,3.7-0.2c1.4,0.7,2.5,2,3.7,3c-1,0.6-1.9,1.3-2.9,1.9c-1.2,0.6-2.5,1.1-3.7,1.7
	c0.8,1.1,1.6,2.4,2.6,3.4c0.9,0.8,2.2,1.2,3.1,2.2c2.5,2.9,3.2,8.3,1.2,9.7c-3.8,2.8-12.3,3.3-14-0.6c-0.6-1.5-0.5-3.4-0.8-5
	c1.3,0.3,2.6,0.6,3.8,1c1,0.4,1.8,1.4,2.8,1.5c1.4,0.2,2.9-0.2,4.3-0.4c-0.7-1.1-1.4-2.2-2.2-3.1c-1.2-1.4-2.5-2.6-3.8-3.9
	C748.9,144.4,749.4,141.6,756.2,138.3"/>
<path d="M224.2,74.8c-1.8-5.7-2-10.9,2.7-15.2c3.1-2.8,8.2-2.2,9.7,1.7c1.3,3.4,2.5,7.4,2.1,10.9c-0.3,2.4-2.9,5.8-5.1,6.5
	C230.3,79.8,226.1,79.7,224.2,74.8 M233,66.5c-0.7-1.8-1.6-5.3-3.5-3c-1.5,1.9-0.5,6.1-0.2,9.2c0.1,0.8,1.5,1.4,2.4,2.1
	c0.7-2.5,1.4-5,2.1-7.4C233.8,67.3,233.6,67.1,233,66.5"/>
<path d="M361,104c0.6-1.7,1.2-3.8,1.8-3.8c5.3-0.2,10.6-0.2,15.9,0.1c1,0.1,2.1,1.3,3.1,2c-0.7,0.8-1.3,2.1-2.1,2.4
	c-3.6,1.2-3.9,3.8-3.8,6.9c0.1,3.8,0,7.6-0.4,11.3c-0.2,1.1-1.6,2.1-2.4,3.1c-1.1-1.3-2.8-2.5-3-3.9c-0.4-3.4-0.1-6.9-0.1-10.4
	c0-5.6-0.9-6.5-6.7-6.7C362.5,105,361.7,104.7,361,104"/>
<path d="M133,107c0.6,5.1,1.4,9.7,1.6,14.3c0.1,1.5-1.4,3.1-2.1,4.7c-1.2-1.1-3.1-2.1-3.4-3.4c-1-4.1-1.2-8.5-2.3-12.6
	c-0.4-1.5-2.3-2.8-3.8-3.9c-1.5-1.2-3.3-2-5-2.9c1.9-1.1,3.7-2.8,5.8-3.1c3.8-0.4,7.7-0.3,11.6,0c1.6,0.1,3,1.4,4.6,2.2
	c-1.2,0.9-2.4,1.9-3.7,2.7C135.3,105.6,134.1,106,133,107"/>
<path d="M904,87c2,0.4,4.4,0.5,4.8,1.4c0.8,1.9,0.6,4.2-2.9,3.7c-1.6-0.2-3.3,0.4-4.9,0.7c1.3,1.3,2.5,2.7,4,3.7
	c5.2,3.7,6.8,6.8,3.8,10.2c-1.9,2.2-5.7,3.7-8.6,3.7c-3.2,0-6.9-1.6-6.2-6.3c0.1-0.9,0.6-1.7,1-2.6c0.7,0.4,1.4,0.7,2.1,1.1
	c0.5,0.4,0.9,1.3,1.4,1.4c1.8,0.3,3.6,0.4,5.4,0.6c-0.7-1.4-1.2-2.8-2-4.1c-0.3-0.6-0.9-0.9-1.3-1.4c-1.5-2-4.1-4-4.1-5.9
	C896.7,89.6,899.3,87.1,904,87"/>
<path d="M871.7,158.3c-3.9-3.6-4.6-7.8-3.3-12.2c1.5-4.8,7-6.9,11.8-5.1c3.4,1.3,5.8,7.5,4.5,11.8
	C882.9,158.7,879,160.5,871.7,158.3 M880,149.5c-1-1.2-1.8-2.7-3-3.3c-0.5-0.3-2.8,0.9-2.9,1.6c0,2,0.6,4.1,0.9,6.2
	C876.7,152.8,878.3,151.7,880,149.5"/>
<path d="M781,90c-0.8,0.2-1,0.6-1.2,0.7c-1.6,0.8-3.2,1.5-4.8,2.3c1.5,1,2.9,2.1,4.4,3c3.7,2.1,5.2,5.3,4.6,9.5
	c-0.6,3.9-3.6,6.1-8,5.4c-3.6-0.5-6.3-1.9-6.1-6.5c0-2.8,1.5-1.9,2.5-1.3c2,1.2,4,4.7,6.1,1.6c2.2-3.4-2.1-4.5-4.2-5.6
	c-3.7-1.8-5-4.6-4.3-8.3c0.6-2.8,6.8-5.8,9.7-4.6C780.7,86.5,780.9,88.7,781,90"/>
<path d="M864,109c-0.7-3.2-1.4-5.9-2-8.6c-0.8-3-1.7-5.7-5.2-6.5c-1-0.2-1.9-1.3-2.8-2c0.8-0.6,1.6-1.8,2.4-1.8
	c5.8-0.1,11.5,0,17.2,0.2c0.5,0,1.4,1.4,1.3,1.8c-0.3,0.8-1.1,1.5-1.9,1.9c-6.9,2.9-6.8,2.9-4.7,9.9c0.7,2.1,1.5,4.2,1.5,6.3
	c0.1,1.2-1.2,2.5-1.9,3.8c-1-1-2-1.9-2.9-2.9C864.6,110.6,864.3,110,864,109"/>
<path d="M110.7,68.3c0.3,3-8.1,13.3-10.3,12.6c-2.2-0.8-4.4-2.4-6.1-4.2c-3.7-4-3.3-15.2,1.4-17.8c1.6-0.9,3.6-0.9,5.4-1.2
	c-0.5,1.4-0.7,2.9-1.5,4.1c-2.4,3.6-3.7,7.3-1.6,11.5c0.5,1,1.4,1.8,2.1,2.7c0.6-1,1.6-1.9,1.8-3c0.7-2.7,1-5.6,4.5-5.9
	C107.7,67,109.1,67.7,110.7,68.3"/>
<path d="M156.7,58.8c-0.4,4.9-0.5,9.7-0.7,14.4c-0.1,1.3,0,2.8-0.6,3.7c-0.6,1-2,1.4-3,2c-0.5-1-1.3-1.9-1.4-2.9
	c-0.1-3.7-0.3-7.4,0-11.1c0.4-4.4-0.7-7.6-4.6-9.9c-2.1-1.3-2-2,0.2-3.1c1.1-0.5,2.4-0.9,3.6-0.8c3.6,0.1,7.2,0.4,10.7,1
	c1.1,0.2,2.1,1.8,3.1,2.7c-1.1,0.7-2.1,1.6-3.2,2.2C159.6,57.6,158.3,58,156.7,58.8"/>
<path d="M576,141c1.8,0.3,3.3,0.5,4.5,1.1c0.7,0.2,1.4,1.1,1.4,1.8c0,0.7-0.6,1.9-1.1,2c-4.9,1.2-4.1,4.6-3.4,8.1
	c0.6,2.9,1.2,5.8,1.5,8.8c0.1,1-0.6,2.1-1,3.2c-1.3-0.8-3.3-1.3-3.8-2.5c-1.4-3.3-2-6.8-3.2-10.2c-0.8-2.4-2.2-4.7-3.2-7.1
	c-0.6-1.3-1.1-2.5-1.6-3.8c1.3-0.5,2.5-1.2,3.9-1.3C571.8,140.8,573.6,141,576,141"/>
<path d="M462.7,65.3c1.6,1,2.9,1.8,4.1,2.7c1.1,0.9,2.1,1.9,3.2,2.8c-1.1,0.8-2.1,1.8-3.2,2.2c-6.1,2.1-9.7,2.4-9.9-6.7
	c-0.2-5.2-1.4-10.4-1.8-15.6c-0.1-1.2,1.3-2.5,2.1-3.7c0.9,0.9,2.5,1.6,2.7,2.6C460.9,54.7,461.6,59.9,462.7,65.3"/>
<path d="M702.2,111.3c-4.4,2.1-7.9,2.3-10.3-2.7c-2.7-5.5-2.9-12.1,1.1-14.8c1.8-1.3,5.1-0.8,7.7-0.6c0.5,0,1.1,2.1,1.1,3.3
	c0.1,0.5-1.5,1.5-2.1,1.4c-4.6-0.9-4.2,2.8-4.1,5.1c0.1,2.5,1,5.7,5.1,3.1c1.1-0.7,2.8-0.4,4.3-0.5
	C704.1,107.4,703.3,109.2,702.2,111.3"/>
<path d="M255.7,119.3c-0.8,1.7-1.6,4.2-2.9,4.5c-2.8,0.6-7,1.3-7.7-2.8c-0.9-6.5-0.8-13.3-1.1-19.9c0-0.3,1.3-1.2,1.6-1
	c1.2,0.5,3.1,1.1,3.2,2c0.7,3.4,1.1,6.9,1.1,10.4C250,116.4,251.5,118.6,255.7,119.3"/>
<path d="M777.2,210.8c-1.7-7.5-3.3-14.6-4.7-21.8c-0.3-1.6,0-3.3,0.1-5c1.5,0.6,4.1,0.8,4.5,1.9c2,4.8,3.8,9.8,4.7,14.9
	c0.6,3.4,0.1,7.1-0.7,10.4C780.2,214.6,778.6,213.2,777.2,210.8"/>
<path d="M85,57c0.6,8.3,1.4,16.2,1.9,24c0.1,1-0.8,2-1.2,3c-1.2-0.7-3.5-1.3-3.6-2.1c-0.9-8.6-1.5-17.1-2-25.7
	c-0.1-0.7,1.6-2.2,2-2.1C83.2,54.6,84,55.7,85,57"/>
<path d="M681,61c0,1,0.2,1.6-0.1,2c-1,1.7-2.2,3.3-3.4,4.9c-0.8-1.5-2.1-3-2.5-4.7c-1.2-5.3-2.3-10.5-2.9-15.8
	c-0.2-2.1,1.2-4.3,1.8-6.4c1.4,1.5,3.5,2.7,3.9,4.4C679.2,50.3,680,55.5,681,61"/>
<path d="M395,72c-0.6,1.7-1.2,2.8-1.8,4c-1.1-1-2.9-2-3.1-3.1c-0.9-6.5-1.6-13-2-19.6c-0.1-1.4,0.9-2.8,1.4-4.3
	c1.1,1.2,3.1,2.2,3.3,3.5c1,4.9,1.5,10,2.2,15C395.1,68.8,395,70.2,395,72"/>
<path d="M267,124c-0.7-3.2-1.6-5.9-2-8.7c-0.5-3.5-0.9-7-0.9-10.5c0-1.6,1-3.2,1.5-4.8c1.5,0.9,2.9,1.7,4.4,2.6
	c0.3,0.2,0.4,0.9,0.4,1.3c0.2,6.2,0.5,12.3,0.5,18.4C270.9,124.7,269.4,125.8,267,124"/>
<path d="M313.2,76.8c-0.9-6.7-1.7-13-2.1-19.4c-0.1-1.8,1.2-3.6,1.9-5.4c1.3,1.3,3.6,2.6,3.8,4c0.7,6.7,0.9,13.4,1.1,20.1
	c0,0.9-1.2,1.9-1.8,2.9C315.2,78.3,314.3,77.7,313.2,76.8"/>
<path d="M310,150c0.6,6.9,1.4,13.3,1.9,19.6c0,0.8-1.5,2-2.5,2.3c-0.6,0.1-2.2-1.1-2.3-1.8c-1.1-7-1.9-14-2.6-21
	c-0.1-1,0.6-2,0.9-3.1C307,147.2,308.5,148.4,310,150"/>
<path d="M846.2,109.8c-1.2-5.7-2.3-11.1-3.1-16.5c-0.2-1,1.2-2.2,1.8-3.3c1.4,0.9,3.6,1.7,3.9,2.9c1.1,4.1,1.5,8.3,2.2,12.5
	c0.1,0.8,0.3,1.6,0.2,2.4c-0.1,1.7-0.4,3.4-0.6,5.1C849.2,111.9,847.8,111,846.2,109.8"/>
<path d="M885.7,101.3c-1.4-3.8-2.8-7.2-3.7-10.8c-0.5-2.4-0.7-4.9-0.5-7.4c0-1,1.2-2.1,1.9-3.1c1.2,1,3.2,1.8,3.4,2.9
	c1,5.6,1.5,11.3,2.2,17C889.3,102.8,887.6,102.3,885.7,101.3"/>
<path d="M409,154c-0.4-3.4-0.9-6.2-0.9-9.1c0-0.9,1.1-2.6,1.9-2.7c0.8-0.2,2.6,0.8,2.9,1.7c1.2,4.5,2.4,9.1,2.9,13.7
	c0.3,2.4-1.9,3.5-3.9,1.7C410.6,158.1,409.9,156.1,409,154"/>
<path d="M779.7,49.3c-1.1-4.4-2.1-8.5-2.6-12.7c-0.1-1,1.7-2.2,2.6-3.4c0.7,1,2,1.9,2.2,3c0.5,4.1,1,8.4,1,12.6
	C782.9,51,781.5,51.5,779.7,49.3"/>
<path d="M327.2,51.3c-1.3,1-2.4,1.9-3.5,2.7c-0.6-1.2-1.2-2.4-1.7-3.6c-0.1-0.1-0.1-0.4,0-0.5c1.5-1.9,3-3.9,4.4-5.9
	C326.8,46.3,327.1,48.7,327.2,51.3"/>
<path d="M988,207c-0.7-1.8-1.3-3.2-2-4.5c1.4-0.3,3.2-1.2,4-0.7c1.1,0.8,1.4,2.7,2,4C990.6,206.4,989.3,207,988,207"/>
<path d="M430,507c12.2-3.2,24.6,0.1,27.6,12.4c1.7,7.1,0.4,14.6-2.1,21.8c-3.6,9.9-10.4,17.6-16.8,25.5
	c-11.5,14.1-24.6,26.4-40.1,35.9c-5.5,3.5-11.9,5.8-18.1,8.1c-1.4,0.5-3.7-1.2-5.5-1.9c1.3-0.9,2.6-2.4,4.1-2.7
	c11-2.7,19.6-9.6,28.3-16.1c15.4-11.4,27.7-25.7,38.5-41.4c5.8-8.5,8.3-17.9,6.9-28c-0.9-7.1-8.9-11.2-16.6-10.4
	c-15.8,1.5-31.2,6.6-47.2,5.7c-11.4-0.6-22.8-1.5-33.6-5.9c-5.8-2.3-11.5-0.4-17.1,1.2c-2.5,0.8-5,1.9-7.5,2.4
	c-1,0.1-2.3-1.1-3.5-1.7c0.7-0.7,1.3-1.6,2.1-1.8c5.6-2.1,11.2-4.9,17-5.8c4.3-0.6,9,1.3,13.5,2.1c7.8,1.5,15.7,3,23.6,4.6
	c14.2,2.9,27.8-1.1,41.5-4C426.4,506.7,428,507,430,507"/>
<path d="M426,430c11.5-10,9.1-15.8,3.7-29.6c-2.3-5.9-5.8-11.2-8.7-16.9c-0.5-1-0.4-2.3-0.6-3.4c1.1,0.4,2.6,0.5,3.3,1.3
	c6.7,6.5,10.3,14.8,13.3,23.4c1.9,5.4,4.1,10.4,2.3,16.5c-2.1,7.2-7.9,11.2-13,15.5c-10.3,8.9-22.6,14.3-35.7,18.6
	c-7.6,2.5-14.4,8.3-20.8,13.5c-6.6,5.5-13.2,6.3-19.8,3.6c-1.1-0.5-1.9-1.4-2.9-2.1c1-0.7,2.1-1.4,3.1-2.1c0.3-0.2,0.6-0.3,0.9-0.3
	c9.5,2.4,15.5-4,21.9-9c8.1-6.4,17.7-9.5,27.1-12.9C409.8,442.5,418.3,437.4,426,430"/>
<path d="M640,489c-2.3-2.8-1.6-13.8,0.6-16.1c0.4-0.4,1.4-1,1.6-0.8c0.7,0.5,1.7,1.3,1.7,2C644.1,479.4,644.5,484.7,640,489"/>
<path d="M361,366.3c0.3-0.1,0.6,0.1,0.9,0.3C361.6,366.6,361.3,366.5,361,366.3"/>
<path d="M214.7,531.8c-14.6-0.1-28.9-0.7-43.3-0.7c-12.8,0-25.7,0.6-38.6,0.9c-1.2,0-2.5,0.3-3.5-0.1c-1.8-0.6-3.5-1.6-5.2-2.5
	c1.6-0.5,3.3-1.3,4.9-1.3c20.2-0.5,40.5-0.8,60.7-1c4.8-0.1,9.7,1,14.5,0.8c12.4-0.4,24.8-1.3,37.1-1.9c3.8-0.1,7.5-0.1,11.2,0.1
	c0.8,0,1.6,0.8,2.5,1.2c-0.9,0.9-1.7,2.4-2.7,2.6c-3.7,0.6-7.4,1-11.1,1.1C232.5,531.3,223.7,531.3,214.7,531.8"/>
<path d="M679,321c9.3,3.3,10.5,7.8,4.4,15.1c-2.3,2.8-4.2,5.9-8.4,5.9c-6.3,0.1-9-3.5-7-9.6C669.8,327.1,672.9,322.9,679,321
	 M678,334.5c1.3-2.2,2.6-4.5,4-6.7c-0.7-0.3-1.7-0.9-2-0.7c-2.1,1.7-4,3.6-6,5.4c-0.2,0.1-0.4,0.3-0.4,0.4c0.2,1.5,0.3,3.1,0.5,4.7
	C675.2,336.7,676.3,335.9,678,334.5"/>
<path d="M736.7,349.3c0.6,5.7-0.1,10.5-4.2,14.9c-3.1,3.3-6.7,3.6-9.8,2.6c-3.2-1-3.7-4.7-3.8-8.2c-0.2-5.1,1.2-8.8,6-11
	C729.1,345.6,733.1,344.9,736.7,349.3 M724.5,360c1.1,0.5,3.1,1.7,3.2,1.5c1.6-2.3,3.5-4.6,4.1-7.2c1-3.7-1.1-3.7-4-2.7
	C723.6,353.1,723.8,356.2,724.5,360"/>
<path d="M195.7,379.3c-0.1,1.6,0,3.3-0.8,4.4c-3.6,5.7-12.5,9.3-17.6,7.3c-0.9-0.4-1.7-1.2-2.2-2.1c-0.2-0.2,0.8-1.7,1.3-1.7
	C183.9,387,188.7,380.8,195.7,379.3"/>
<path d="M519.4,58c-0.4-2.2-0.9-3.9-1-5.6c-0.2-6.5,2.6-8.5,9.2-6.7c0.8,0.2,1.6,0.1,2.4,0.3c0.8,0.4,1.6,0.9,2.4,1.4
	c-0.6,0.9-1,2.1-1.8,2.5c-2.4,1.3-7,0.1-5.9,4.7c0.2,1,4.7,0.9,7.2,1.4c0.8,0.2,1.6,0.9,2.5,1.3c-0.7,1-1.1,2.4-2,3
	c-1.4,0.9-3.3,1-4.6,2c-0.8,0.6-1.6,2.5-1.2,3.2c0.4,0.8,2.7,1.8,3.2,1.4c2.2-1.7,4.1-1.2,4.3,1.1c0.2,1.2-2.1,3.3-3.7,3.9
	c-4.8,1.8-8.7-0.4-9.9-5.4C519.8,63.9,519.7,61.2,519.4,58"/>
<path d="M517.4,166c-1.3,1.4-2.5,2.5-3.6,3.7c-0.5-1.2-1.6-2.5-1.5-3.6c0.4-6.4,1.4-12.8,1.8-19.2c0.3-4.2,3.1-6.7,6.5-6.9
	c3.5-0.1,6.9,2,8.3,5.9c0.4,1.3,0.9,2.7,1,4.1c0.5,5.3,1,10.6,1.1,15.9c0.1,1.2-1.5,2.5-2.4,3.8c-0.8-1.1-1.8-2.2-2.4-3.4
	c-0.5-1.1-0.6-2.4-1-3.6c-0.5-1.4,1.6-4.2-2.3-4c-3.2,0.1-4.8,1.5-4.8,4.7C518.2,164.2,517.8,164.9,517.4,166 M524.2,151.2
	c0-0.7,0.2-1.5-0.1-2c-0.8-1.5-1.9-3-2.9-4.5c-0.7,1.8-1.7,3.5-1.9,5.4c-0.1,1.1,0.8,2.7,1.7,3.5
	C521.4,153.9,523.1,152.7,524.2,151.2"/>
<path d="M220,110.2c-0.4-2.2-0.9-3.9-1-5.6c-0.2-6.5,2.6-8.5,9.2-6.7c0.8,0.2,1.6,0.1,2.4,0.3c0.8,0.4,1.6,0.9,2.4,1.4
	c-0.6,0.9-1,2.1-1.8,2.5c-2.4,1.3-7,0.1-5.9,4.7c0.2,1,4.7,0.9,7.2,1.4c0.8,0.2,1.6,0.9,2.5,1.3c-0.7,1-1.1,2.4-2,3
	c-1.4,0.9-3.3,1-4.6,2c-0.8,0.6-1.6,2.5-1.2,3.2c0.4,0.8,2.7,1.8,3.2,1.4c2.2-1.7,4.1-1.2,4.3,1.1c0.2,1.2-2.1,3.3-3.7,3.9
	c-4.8,1.8-8.7-0.4-9.9-5.4C220.4,116.1,220.3,113.4,220,110.2"/>
<path d="M647.6,115.8c-1.4-7.2-2.7-14.3-3.4-21.4c-0.3-2.5,6.6-5.3,10.1-4.7c3.7,0.7,7.7,5.4,6.2,8c-1.6,2.8-1,4.6,1.2,6.7
	c4.1,3.8,1.1,9.6-3.6,12C654.6,118.1,651,119.3,647.6,115.8 M654.7,105.6c-5.2,0.2-3.1,3.1-2.3,5.3c0.4,1,0.6,2,1,3
	c1.2-0.9,2.7-1.7,3.5-2.9C658.5,108.9,657.5,107.1,654.7,105.6 M650.5,96.8c0.5,1.5,0.8,3,1.3,4.5c1.1-1.2,2.7-2.2,3.1-3.6
	c0.4-0.9-1-2.2-1.6-3.4C652.5,95,651.7,95.8,650.5,96.8"/>
<path d="M684.4,164.2c-1.4-7.2-2.7-14.3-3.4-21.4c-0.3-2.5,6.6-5.3,10.1-4.7c3.7,0.7,7.7,5.4,6.2,8c-1.6,2.8-1,4.6,1.2,6.7
	c4.1,3.8,1.1,9.6-3.6,12C691.4,166.5,687.8,167.7,684.4,164.2 M691.5,154c-5.2,0.2-3.1,3.1-2.3,5.3c0.4,1,0.6,2,1,3
	c1.2-0.9,2.7-1.7,3.5-2.9C695.3,157.3,694.3,155.5,691.5,154 M687.4,145.3c0.5,1.5,0.8,3,1.3,4.5c1.1-1.2,2.7-2.2,3.1-3.6
	c0.4-0.9-1-2.2-1.6-3.4C689.3,143.4,688.6,144.2,687.4,145.3"/>
</svg>
