<?xml version="1.0" encoding="utf-8"?>
<!-- Generator: Adobe Illustrator 23.1.0, SVG Export Plug-In . SVG Version: 6.00 Build 0)  -->
<svg version="1.1" id="Contours" xmlns="http://www.w3.org/2000/svg" xmlns:xlink="http://www.w3.org/1999/xlink" x="0px" y="0px"
	 viewBox="0 0 1021.5 1499.5" style="enable-background:new 0 0 1021.5 1499.5;" xml:space="preserve">
<desc  xmlns:shape="http://adobe.com/products/shape"></desc>
<path d="M559.5,360.3c-28.1,0.4-55.6,0.7-83.1,1.1c-14.4,0.2-28.7,0.8-43.1,0.9c-71.6,0.4-143.2,0.7-214.7,1.1
	c-9.9,0-19.8,0.5-29.6,1c-11.1,0.5-22.1,1.4-33.2,1.9c-9.7,0.5-19.4,0.7-29.1,1c-17.4,0.7-34.9,1.3-52.3,2.1
	c-12.2,0.5-24.5,1.6-36.7,1.8c-5.4,0.1-10.9-0.6-16.1-2.1c-2.2-0.7-3.5-4.4-5.1-6.8c-0.2-0.4,0-1,0-1.5c-0.4-12.9-0.7-25.7-1-38.6
	c-0.4-13.7-0.6-27.4-1.1-41.1c-0.5-17.5-1.1-35.1-2-52.6c-0.8-15.5-1.9-30.9-3-46.3C8.9,173.8,8,165.4,7.5,157
	c-0.8-12.3-1.4-24.7-2-37.1c-0.4-7.7-1.1-15.4-1-23.1c0.4-13.1,1.3-26.1,1.9-39.2C6.8,49.4,7.1,41.2,7.5,33c0.2-5.6,0.5-11.4,1-17
	c0.3-3.7,2.1-5.9,6.3-5.7c5,0.2,10,0.2,15,0C49.4,9.4,69,8.1,88.5,7.4c20.2-0.7,40.4-0.9,60.6-1c11.2,0,22.3,0.9,33.4,0.9
	c41.7,0.1,83.4,0.2,125,0c45.2-0.2,90.3-0.9,135.5-0.9c35.6,0,71.3,0.5,107,1.1c4.8,0,9.5,2.5,14.3,2.7c9.2,0.5,18.5,0.1,27.8,0.1
	c10.6,0,21.1,0.2,31.7,0c19.2-0.2,38.4-0.6,57.6-1c22.5-0.3,45-0.6,67.6-1c19.8-0.3,39.7-0.6,59.5-1c9.7-0.2,19.4-0.7,29.1-0.9
	c16.2-0.4,32.3-0.7,48.5-1.1c17.1-0.3,34.3-0.6,51.5-1c8.9-0.2,17.8-0.5,26.6-1c3.9-0.3,7.8-1.1,11.7-2c6-1.3,9.7,1.4,9.5,7.5
	c-0.2,8.6-0.7,17.2-0.9,25.8c0,2.8,1,5.7,0.9,8.6c-0.5,12.2-1.5,24.4-1.8,36.6c-0.2,7,0.8,14,0.8,21c-0.1,11.8-0.6,23.7-0.9,35.5
	c-0.1,1.2,0,2.4,0,3.5c0,11.5,0.1,23-0.1,34.5c-0.2,23.7-0.6,47.4-1,71.1c-0.2,12.4-0.8,24.7-0.9,37.1c-0.2,15.5,0.1,31-0.1,46.5
	c-0.1,12.9-0.6,25.8-1,38.8c-0.1,5.3-2.6,6.4-7.5,4.7c-4.3-1.6-9-2.7-13.7-3.1c-15.6-1.2-31.2-2.1-46.9-3c-11.9-0.8-23.9-1.5-35.8-2
	c-17.3-0.8-34.6-1.4-51.9-2c-10.7-0.4-21.5-0.9-32.2-1c-38-0.4-76.1-0.7-114.1-1.1c-30.5-0.3-61.1-0.7-91.6-0.9
	C577.8,359.3,568.9,360,559.5,360.3 M236,170.3c1.1-0.4,2.2-0.9,3.4-1.4c-0.2-0.2-0.5-0.6-0.6-0.5c-1.1,0.4-2.2,0.9-3.3,1.5
	c-0.1,0,0,0.3-0.5,0.4c-0.2,0.7-0.4,1.4-1,2c-5,2-10,4-15,6.1c-0.6,0.2-1,0.9-1.4,1.3c0.6,0.2,1.3,0.6,2,0.6
	c6.2-0.3,11.3-2.7,15.4-8C235.1,171.7,235.3,171,236,170.3 M331.5,74.8c-0.4,0-0.7,0-1,0c0.3,0.2,0.6,0.4,1,1
	c-1,3.6-1.9,7.3-2.9,10.8c-0.4,1.6-1.9,3.3,1.5,2.7c4-0.7,6.7,1.6,9.2,4.3c3.2,3.7,6.5,7.3,9.9,10.9c2,2.2,4.3,4.2,6.2,6.5
	c0.7,0.8,0.7,2.3,1.1,3.5c0.2,0.7,0.6,1.4,1,2.1c0.6-0.7,1.5-2.3,1.9-2.1c5.9,1.4,4.8-1.4,3.1-4.7c-0.7-1.2-1-2.8-1.9-3.7
	c-6.2-6.4-12.6-12.7-18.9-19c-1.2-1.3-3.1-2.8-3.1-4.1C338.7,77.9,335,76.8,331.5,74.8 M249,174.3c-0.9,0.3-1.9,0.3-2.5,0.9
	c-3.6,3.4-6.7,7.6-10.9,10.1c-4.5,2.8-9.9,4.2-15,5.9c-0.7,0.3-1.9-0.7-2.9-1.1c0.8-0.6,1.5-1.3,2.3-1.8c0.6-0.4,1.4-0.9,2.1-0.9
	c7-0.5,12.2-4.7,17.3-8.8c1.6-1.2,1.9-3.9,2.8-6c-1.6,1.1-3.3,2.2-4.9,3.4c-0.1,0.1-0.2,0.2-0.3,0.3c-4.6,4.8-10.7,6.3-16.7,8.1
	c-5.5,1.5-8.7-2.2-12.3-5.1c-0.7-0.5-1-1.5-1.5-2.3c0.7-0.2,1.4-0.4,2.1-0.7c6.9-2,13.7-3.9,20.5-6c0.9-0.3,1.6-1.3,2.4-2
	c-1-0.3-2-1-2.9-0.9c-5.5,0.6-11.1,1.2-16.7,1.9c-9.4,1.2-18.8,2.8-27.2,7.9c-1.4,0.9-4,0-6-0.1c1-1.2,2-2.4,3-3.5
	c1.2-1.3,2.5-2.5,3.7-3.8c-2.1,0.2-4.6-0.3-6.3,0.7c-1.9,1.1-3.2,3.4-4.6,5.4c-0.6,0.8-0.6,2.1-1.2,3c-0.5,0.6-1.5,1-2.3,1.4
	c-0.2-0.7-0.6-1.5-0.5-2.2c0.2-4.7-2.9-2.7-4.9-2.3c-1.5,0.3-2.7,1.4-4.2,2c-0.8,0.3-1.7,0.2-2.7,0.3c0.2-1,0-2.5,0.6-2.9
	c2.7-2.1,5.4-4.8,8.5-5.7c7.8-2.3,14.1-5.8,18.5-13.2c5.2-9,13.4-14.6,23.7-17c9.7-2.3,16.2-8.4,20.5-17.4
	c6.2-13.1,11.4-26.7,22.6-36.6c2.9-2.6,6.4-4.6,9.6-7c0.7-0.5,1.2-1.4,1.8-2.1c-1-0.3-2-0.7-3-0.8c-0.7-0.1-1.5,0.3-2.2,0.6
	c-9.2,3.1-18.4,6.2-27.6,9.3c-1.7,0.6-3.4,1.1-5.1,1.6c1.5,1.2,3.1,2.2,4.5,3.5c0.9,0.7,1.6,1.6,2.3,2.5c-1.1,0.5-2.4,1.5-3.4,1.3
	c-2.2-0.4-4.4-1.3-6.5-2.3c-11.7-5.5-23.8-10.2-37-9.4c-14.3,0.8-28.1,4.2-41.4,9.8c-1.1,0.5-2.1,2-2.6,3.2c-1.7,4.3-2.8,8.9-4.8,13
	c-6.5,13.2-11.3,27-13.1,41.5c-1.3,10.5,1.1,20.7,3.7,30.9c4.6,18,14.1,32.4,28.8,43.4c5.3,4,10,8.5,12,14.5c1.8,5.3,4,4.5,8.2,3.4
	c5-1.3,10.6-2.4,15.6-1.6c8.6,1.4,16.8,4.6,25.2,6.6c1.8,0.4,4.6-0.8,5.9-2.2c2.3-2.3,4-5.3,5.4-8.2c5.1-11.2,13.6-19.4,23-26.9
	c5-4,8.5-9.1,8.9-15.7c0.1-1.3-1.2-2.6-1.9-3.9c-0.6,1-1.3,1.9-1.9,2.9c-1,1.4-1.6,3.2-2.8,4.3c-3.5,3.1-7.1,6.1-10.9,8.8
	c-1.1,0.7-3.1,0.2-4.7,0.2c0.7-1.1,1.4-2.3,2.1-3.4c0.4-0.7,0.8-1.4,1.3-2c-0.6-0.3-1.2-0.8-1.6-0.7c-9.8,3.9-21.1,2.7-30.3,9.1
	c-1.1,0.8-3.4,0.1-5.1,0.1c0.6-1.5,0.8-3.8,1.9-4.6c6.8-4.1,13.8-7.8,20.7-11.7c8.4-4.8,19.5-6.7,21.9-19c0.8-0.4,2.1-0.7,2.2-1.4
	c0.4-1.4,0.3-3,0.2-4.5c-0.1-0.3-1-0.6-1.6-0.9c-0.4,1.3-1,2.6-1.3,3.9C249.3,172.3,249.5,173.4,249,174.3 M498.5,82.8
	c2.1-0.8,4.5-2.6,6.4-2.3c7.6,1.5,15.2,3.5,22.7,5.5c7.3,2,14.5,5,21.9,6.2c11.5,1.7,23.1,2,34.7,3.2c13.6,1.3,25.9,5.9,36.1,15.4
	c4.6,4.2,9.7,5.7,15.7,3.5c4.6-1.7,9.3-3.3,13.9-5c8.4-3,16.9-5.2,26-5c11.8,0.3,23.9-0.7,35.5,0.9c9.2,1.3,18,5.4,26.9,8.6
	c4.2,1.4,8.5,3,12.3,5.3c13.6,8.2,28.1,10.9,43.7,8.2c5-0.8,6.4,0.2,6.1,5.3c-0.1,1.4-0.4,2.8-1,4.1c-5.9,11.9-9.6,24.3-8.9,37.7
	c0.5,10.6,1.7,21.2,1.8,31.7c0.1,7.6-0.3,15.3-2,22.7c-2.4,10.4-11.7,15.5-19.5,21.6c-2.9,2.3-5.3,5.4-8,8.1c-2,2-3.8,4.2-6,5.7
	c-1.5,1.1-3.6,1.1-5.3,1.6c1.8,0.9,3.6,1.7,5.4,2.6c0.4,0.2,0.7,0.7,1.1,0.9c17.3,7.1,34.9,6.4,52.2,0.9c11.1-3.6,21.7-9,32.7-12.7
	c11.5-3.9,23.2-6.9,34.9-10c14.4-3.7,29-4.3,43.8-2.2c4.8,0.7,9.7,1.1,14.5,0.9c5.1-0.1,10.2-1,15.2-1.9c6.7-1.2,13.3-2.4,19.8-4.1
	c1.4-0.4,3.1-2.6,3.2-4c0.6-7.7,0.9-15.4,1.1-23.1c0.4-9.7,0.9-19.4,1-29.1c0.2-22-0.1-44.1,0.1-66.2c0.1-16.8,0.8-33.7,0.9-50.5
	c0.2-17.7,0.1-35.4,0-53c0-2.8-1.3-4.2-4.4-4c-6.8,0.5-13.7,0.8-20.6,1c-12.7,0.4-25.4,0.9-38.1,1c-23.3,0.3-46.6,0.3-69.9,0.4
	c-5.7,0-11.4-0.5-17.1-0.3c-10.9,0.5-21.7,1.5-32.6,1.9c-8.7,0.3-17.4,0-26,0c-21.1,0-42.1-0.1-63.2,0.1
	c-10.1,0.1-20.2,0.7-30.2,0.9c-15.6,0.4-31.1,0.9-46.6,1c-8.7,0-17.4-0.8-26.1-0.9c-9.3-0.2-18.6,0.1-27.9-0.1
	c-17-0.2-34-0.7-51-0.9c-29.4-0.4-58.8-0.7-88.1-1.1c-3.7,0-7.5,0.1-11.2,0c-9.3-0.3-18.7-0.9-28.1-0.9c-21.1,0.1-42.1,0.7-63.2,0.9
	c-30.4,0.4-60.9,0.9-91.3,1c-21.7,0-43.4-0.6-65-1c-16.4-0.3-32.8-0.7-49.1-0.9c-6.2-0.1-12.3,0.8-18.4,0.9
	c-7.2,0.2-14.4-0.2-21.6,0.1c-17,0.8-34.1,2-51.2,2.9c-5.5,0.3-11-0.2-16.5,0.2c-1.6,0.1-3.9,1.8-4.4,3.3c-0.9,2.8-1,6-1.1,9.1
	c-0.7,24.3-1.5,48.7-2,73.1c-0.1,7.8,0.6,15.5,1,23.3c0.6,11.7,1.2,23.4,2,35.1c0.6,9.4,1.3,18.8,1.9,28.2c1.1,15.1,2.2,30.2,3,45.3
	c0.6,11.5,0.9,23,1,34.5c0.2,12.3-0.2,10.8,10.7,6.7c15.8-5.9,32.1-10.1,49-10.7c5.5-0.2,11.1,0.4,16.6,1
	c10.1,1.2,20.3,2.1,30.3,4.1c11.2,2.3,21.9,2.6,33-1c14.1-4.5,28.3-8.8,43.6-7.2c4.7,0.5,8.3-1.6,11-6.1c2.2-3.5,0.6-3.3-1.9-3.9
	c-6.1-1.4-12.3-2.5-18.1-4.5c-7.9-2.7-14.6-1.8-20.8,3.7c-4.1,3.4-6.7,2.6-8.3-2.5c-2.8-8.7-7.5-15.6-14.9-21.4
	c-7.8-6.2-15.4-13.2-19.9-22.5c-7.6-15.7-13.9-31.9-13-49.5c0.6-12.8,4.3-25.2,9.2-37.1c2.3-5.7,6.1-11.1,7.3-16.9
	c1.8-9,6.6-14.2,15.1-16.2c8.9-2.2,17.9-4.1,27-6c8.1-1.8,16.2-2,24.3,0c2.6,0.6,5.3,0.9,7.6,2c8.5,4,16.4,1,24.4-1.7
	c10.2-3.4,20.1-7.8,31-8.4c3.7-0.2,7.7-0.1,10.8-1.7c10.7-5.3,21.9-6.5,33.5-5.2c3.7,0.4,7.4,1.5,11.2,1.9c3.8,0.3,8.5,1.4,11.5-0.2
	c8.7-4.6,17.8-4.6,27.1-4.7c13.3-0.2,26.6,0.1,39.9-0.1c3.5-0.1,6.9-0.9,10.2-1.9c9.7-2.9,19.2-6,28.8-9.1c4.6-1.4,7,0,6.8,4.7
	c-0.5,13.8,4.9,26.2,9.2,38.7c4.2,12.2,9.8,24,14.9,35.8c0.5,1.1,1.7,1.8,2.6,2.7c0.4-1,1.2-1.9,1.3-2.9c1.3-9,6.1-16.3,11-23.5
	C488.3,97.7,493.1,90.5,498.5,82.8 M359,283.3c-0.3,0.3-0.5,0.6-0.8,0.7c-11.3,5.5-23.8,9.1-32.7,18.8c-0.4,0.3-1.6,0.3-2,0
	c-2.2-1.9-2.5-12.5-0.5-14.5c4.1-3.9,8.3-7.9,12.7-11.5c2.5-2.1,3.6-4.8,2.5-7.3c-0.5-1.3-3.7-2.2-5.6-2c-6.9,0.6-13.8,1.8-20.8,2.8
	c-9.1,1.4-18.1,3.1-27.3,3.9c-8.6,0.9-17.5,2-26,0.9c-12.6-1.6-24.8-5.5-37.3-7.7c-14.8-2.5-29.5-1.5-44,2.6
	c-13.9,3.9-27.4,9.8-42.6,6.5c-11.3-2.4-23-3.2-34.4-5.2c-12.1-2.1-24.4-1.7-36.3,0.4c-11.1,2-22.1,5.9-32.8,9.8
	c-10.2,3.6-8.7,1.6-8.6,11.4c0.2,13.6,0.6,27.2,1,40.8c0.2,8.8,0.5,17.6,1.1,26.4c0.1,1.5,2.1,3.6,3.6,4.1c3.2,0.9,6.7,1.1,10,1.1
	c9.1-0.2,18.1-0.6,27.1-1c13.3-0.6,26.6-1.3,39.9-1.9c16.2-0.8,32.4-1.3,48.6-2.1c10.4-0.5,20.8-1.5,31.2-1.9c13-0.5,26.1-1,39.1-1
	c42.5-0.1,85.1,0,127.6-0.1c15.7-0.1,31.4-0.6,47.1-1c14.9-0.3,29.9-0.7,44.8-0.9c20.7-0.4,41.5-0.7,62.2-1.1
	c10.7-0.2,21.4-0.7,32.1-0.9c14.2-0.4,28.4-1,42.6-1c30.8,0.1,61.6,0.7,92.4,0.9c17.7,0.2,35.3,0,53,0.1c13.9,0,27.9,0.1,41.8,0.2
	c10,0.2,20.1,0.4,30.1,0.8c17.6,0.6,35.1,1.4,52.7,1.9c9.5,0.3,19.1-0.1,28.6,0.2c11.6,0.4,23.1,1.2,34.7,1.8
	c5.1,0.3,10.1,0.8,15.1,1c13.2,0.7,26.5,1.5,39.7,1.9c1.2,0,3.5-1.7,3.7-2.9c0.7-4.6,1-9.3,1.1-14c0.4-12.6,0.9-25.1,1-37.6
	c0.2-18.2,0.1-36.5,0-54.7c0-4.6-1.4-5.1-6-4.2c-10,1.7-20,3.8-30.1,4.3c-8,0.5-16.2-1.2-24.3-1.7c-14.9-0.9-29.5,1.4-43.7,5.7
	c-14,4.2-28.2,8.2-41.7,13.9c-16.2,6.9-32.6,11.7-50.1,10.1c-8.8-0.9-18.1-3.3-25.8-7.5c-12.2-6.7-23.3-15.5-34.9-23.4
	c-12.8-8.6-27.3-14.3-42.4-15.5c-14.1-1.1-28.6,0-42.6,1.9c-22.8,3-41.7,15.5-60.5,27.6c-11.7,7.6-22.2,16.9-34,24.4
	c-6.8,4.3-13.7,10.7-23.3,6.8c-2.7-1.2-5.4-2.2-8.2-3.2c-0.7-0.2-1.4-0.4-2-0.7c0.1,0.7,0.2,1.4,0.4,2.1c1.3,3.6,3,7.2,3.8,10.9
	c1.5,6.3,1.1,13.3-3.9,17.4c-11.4,9.2-24.9,10.7-38.7,6.7c-7.6-2.2-14.8-5.3-22.1-8.3c-14.9-6-29.9-11.6-43.7-20.1
	c-1.3-0.8-3.9-0.8-5.3-0.1c-7.9,4.6-15.6,9.8-23.6,14.3c-2.7,1.6-6.1,2.2-9.3,2.8c-0.7,0.2-1.8-1.1-2.4-2c-0.2-0.2,0.6-1.5,1.2-1.8
	c9.7-5.7,19.2-11.7,29-17c7-3.7,12.1-8,11.3-16.8c-0.1-0.7,0.6-1.5,0.9-2.3c1,0.5,2.8,0.9,2.8,1.5c0.4,3.5,0.9,7.2,0.5,10.7
	c-0.4,3.4-0.5,6.2,2.6,8.2c3.2,2,6.3,4.1,9.7,5.6c11.5,4.8,23.1,9.3,34.6,14.1c9.9,4.1,19.8,8.2,30.7,7.9
	c11.1-0.2,20.2-8.1,18.9-17.5c-0.7-5.7-2.8-11.5-5.6-16.6c-4.9-9-11.3-17.2-15.9-26.4c-4.2-8.2-9.1-13.4-19.1-11.5
	c-1.7,0.3-3.6-0.1-5.4,0.1c-8.1,0.7-15.9,2.1-22.6,7.1c-1.1,0.8-1.9,3.6-1.4,4.8c0.6,1.4,3,3,4.5,2.9c15.5-1.3,30,2.5,44.1,8.3
	c1.6,0.6,2.5,3.1,3.7,4.7c-1.8,0.4-3.6,1.1-5.4,1.2c-1.4,0-2.8-0.5-4.1-1.1c-10-4.6-20.3-7.8-31.6-7c-5.6,0.3-11.3,0.1-17,0
	c-2.6,0-5.3-0.2-7.9-0.5c-2.8-0.4-5.8-0.6-8.4-1.5c-2.8-0.9-5.1-3.1-7.9-3.9c-8.4-2.2-16.9-5-25.5-5.8c-7.6-0.6-15.4,1.2-23,2.2
	c-0.9,0.1-1.5,2.2-2.2,3.3c1,0.4,2,1,3,1.2c0.9,0.1,1.9-0.2,2.9-0.4c4.1-0.5,8.2-1.1,12.3-1.5c0.8-0.1,1.7,0.8,2.5,1.2
	c-0.5,0.7-0.9,1.8-1.6,2c-3.3,1.1-6.5,2.3-9.9,2.7c-13.5,1.5-24.1,8.2-32.8,18.2c-0.8,0.9-0.7,2.5-1,3.8c1.1-0.5,2.5-0.6,3.3-1.3
	c8.2-6.8,17.9-10.6,27.9-13.7c1.3-0.4,2.9,0.4,4.4,0.7C361.6,281.1,360.8,282.2,359,283.3 M536,97.3c-6.9-2.2-13.7-4.8-20.8-6.5
	c-5.5-1.3-11.9-4.5-16.5,1.9c-7.8,10.7-16.7,20.9-20.8,33.8c-1.9,6-3.3,11.9-0.8,18.8c3.6,9.9,5.9,20.5,7,31
	c0.7,6.9-0.5,14.6-2.9,21.1c-3.1,8-5.1,17.2-13.7,22c-0.5,0.2-0.9,1.2-0.8,1.6c1.2,3,2.5,6,3.9,8.9c1.5,3.2,3.8,6.2,4.7,9.6
	c3.4,12.4,8.4,11.3,17.7,12.8c6.7,1,13.5,1.2,20.2,2.1c2.8,0.5,6,3.4,8.1,2.6c2.3-0.9,3.4-4.9,5.3-7.2c2.7-3.4,6-6.4,8.7-9.9
	c2.6-3.6,4.7-7.7,7.2-11.4c0.7-1,2.1-1.5,3.2-2.2c0.6,1.3,1.4,2.4,1.7,3.7c0.1,0.8-0.5,1.8-0.8,2.7c-1.4,4.7-2.9,9.5-4.1,14.3
	c-0.2,1,0.5,2.2,0.8,3.3c0.7-0.7,1.4-1.5,2.2-2.2c1.6-1.6,3-4.1,4.9-4.6c9.2-2.2,15.8-9.8,25.4-11.4c5.8-0.9,11.3-3.9,17-5.7
	c1.4-0.4,3.1,0.4,4.7,0.6c-1.2,1.1-2.2,2.7-3.7,3.3c-6.5,2.8-12.5,7-20.1,7.2c-1.8,0-3.6,1.5-5.4,2.5c-4.5,2.4-9,4.9-13.4,7.4
	c-5.5,3.2-11.8,6.1-13.2,12.7c-1.2,5.4-0.3,11.3-0.2,17c0,0.6,0.8,1.3,1.2,2c0.6-0.4,1.2-0.8,1.7-1.2c4.2-3.5,8.1-7.4,12.6-10.5
	c11.8-8.1,23.5-16.3,35.7-23.7c13.9-8.3,29.3-12.9,45.2-15.2c10.2-1.4,20.6-0.9,31-1.1c13-0.3,25.2,3.1,36.8,8.9
	c0.8,0.4,1.6,0.6,2.5,0.8c-0.1-0.9,0.2-1.9-0.2-2.7c-2.3-4.4-4.6-8.8-7.1-13c-0.8-1.3-2.4-2.6-3.8-2.8c-6.6-0.9-13.4-1.9-20.1-2.1
	c-5.7-0.3-11.5,0.5-17.2,0.9c-2.1,0.1-4.1,0.6-6.1,0.9c-4.9,0.7-10,2.7-14.6,1.8c-8.6-1.7-15.6,1.9-23.1,4.1
	c-3.6,1.1-7.4,1.6-11.2,2c-1,0.2-2.2-0.9-3.3-1.4c0.9-0.9,1.6-2.3,2.7-2.6c10.9-3.5,21.5-8,33.3-8c7.9,0,15.8-1.5,23.7-1.8
	c10.5-0.3,21.1-0.4,31.6,0.2c3.2,0.2,2.9-0.7,2.6-2.5c-0.2-1-0.9-2-1.6-2.9c-6.6-9.3-15.8-15.7-25.5-21.4c-10.4-6.2-22.6-6.8-34-7.9
	c-9.7-0.9-19.8,2.9-29.7,4.9c-5.2,1-10.5,2.1-15.2,4.3c-7.1,3.5-13.6,8.3-20.5,12.2c-6,3.4-10.2,8.3-13.5,14.2
	c-1.7,3.1-3.9,5.8-6.2,8.4c-0.8,1-2.6,1-3.9,1.4c-0.3-1.3-0.9-2.6-0.8-3.9c0.2-1.1,0.9-2.4,1.7-3.2c6.6-6.6,9-13.3,3-21.9
	c-2.1-3.1-1.3-7.2,1.4-10.7c2.5-3.4,6.2-4.5,9.1-3c3.8,1.9,6.8,5.4,9.8,8.5c1.4,1.4,1.5,3.1,4,0.9c6.8-5.9,15-9.6,23.7-11.6
	c9.8-2.3,19.6-4.5,29.5-5.9c5.6-0.8,11.6-3.1,17,1.5c1.2,1,3.2,1.2,4.9,1.3c2.4,0.2,4.2-0.1,5.1-3.5c0.8-3.3,2.7-7.1,5.3-9
	c2.5-1.9,6.7-2.8,9.8-2.2c3,0.6,4.2,4.2,3.7,7.7c-0.3,2.5-0.1,5,0,7.5c0.1,3.8,0.9,6.9,4.8,9c6.8,3.8,13.4,7.9,17.9,14.7
	c2.2,3.3,5.4,5.4,9.9,5c1.5-0.2,3.2,1.1,4.7,1.7c14.6,5.4,24.4,26.2,22.4,40.4c-0.6,4.5,0.4,6.4,4,8.1c1.4,0.6,2.6,1.8,3.9,2.7
	c5.9,4.2,11.4,4.1,16.3-1.7c4.8-5.7,10.2-10.4,16.5-14.4c8.7-5.5,14.7-12.9,13.6-24.2c-1.1-11.4-2.3-22.8-3-34.3
	c-0.9-15.3,3.4-29.8,8.2-44c1-3-0.1-3.2-1.9-3.4c-5.2-0.5-10.4-0.4-15.6-1.1c-5.2-0.8-10.6-1.6-15.5-3.4c-10.2-4-20-9-30.2-12.9
	c-10.4-4-20.8-8.2-32.3-7.7c-8.8,0.3-17.6-0.1-26.4,0.1c-2.8,0.1-5.6,0.7-8.3,1.5c-7.7,2.4-15.3,4.9-22.9,7.5
	c-2.2,0.7-4.1,1.9-6.1,2.8c1.8,1.4,3.7,2.6,5.3,4.2c4.5,4.2,8.8,8.5,13,12.9c0.7,0.8,0.1,2.6,0.2,4c-1.6-0.2-3.4,0-4.7-0.7
	c-1.8-1.1-3.1-2.9-4.7-4.2c-5.5-4.4-12-7.9-16.4-13.2c-8.9-10.7-19.9-17.6-32.8-21.1c-8.8-2.4-18.3-2.9-27.5-3.7
	C555.4,99.6,545.7,101.8,536,97.3 M346,262.3c5.2-3.1,10.6-4.5,16.8-5.3c9.7-1.2,18.9,0.1,28.4,1.3c10.7,1.4,19.9,8,30.7,9
	c1.7,0.1,3,0.8,1.9-2.4c-3.5-10.1-6.4-20.4-8.9-30.8c-0.5-2.1,1.5-4.7,2.4-7.1c1.4,1.3,3.5,2.4,4,4c2.3,6.9,5,13.9,5.9,21
	c0.7,5.7,3,2.8,5.1,2c4.4-1.8,8.6-4.6,13.2-5.5c6.9-1.3,14.1-1.6,21.2-2.1c1.8-0.1,3.5-0.2,2.7-2.5c-1.3-3.6-3-7.1-4.5-10.6
	c-1.5-3.3-3.5-6.4-4.3-9.7c-1.7-6.8-2.4-13.7-3.9-20.5c-2.7-12.1-8.9-21.9-20-28c-6.7-3.6-13.7-7.1-21.8-5.8
	c-3.9,0.7-7.8,1.3-11.7,2.1c-3.5,0.6-7,1.3-10.5,2.3c-1.1,0.3-2,1.6-3,2.4c1.2,0.4,2.3,1,3.5,1.2c2,0.5,4,0.7,6.1,1
	c5.8,0.9,11.6,1.8,17.3,2.8c1.1,0.2,1.9,1.4,2.9,2.1c-1.1,0.7-2.2,2-3.3,2c-10.6,0.3-21-0.5-30.5-5.8c-1.1-0.6-2.7-0.6-4-0.8
	c0.5,1.4,0.8,3,1.7,4.1c3.6,4.2,7.6,8,11.1,12.3c1.5,2,2.2,4.8,2.8,7.3c0.3,0.8-0.7,1.9-1.2,2.9c-0.9-0.5-2.3-0.7-2.7-1.5
	c-5.2-9.6-16-10.4-24.1-15.3c-0.8-0.5-1.9-0.4-2.8-0.5c0.2,0.9,0.4,1.8,0.7,2.7c2.5,7,4,14.2,1.2,21.3c-2.9,7.1-5.5,15.3-13.4,18.1
	c-13.8,5-27.8,3.1-39.9-4.9c-8.2-5.5-15-13.2-22.3-20c-2.9-2.6-5.5-2.5-8.6-0.1c-2.3,1.8-5.1,3-7.7,4.3c-3.2,1.5-6.5,2.8-9.7,4.3
	c-2.3,1-4.4,3.2-6.6,3.3c-9.2,0.6-15.3,6.2-20.3,12.7c-7.3,9.5-13.7,19.6-20.7,29.4c-1.6,2.3-0.4,2,1.4,2.4
	c11.4,2.2,22.7,4.6,34.1,6.9c6.6,1.4,6.7,1.2,7.8-5.2c0.3-2,1-4,2-5.7c0.6-1,2.2-1.4,3.3-2.1c0.5,1.1,1.6,2.2,1.6,3.3
	c-0.1,2.1-0.4,4.5-1.2,6.4c-2,4.5,0,5.7,4,5.3c3.2-0.2,6.4-0.6,9.6-1c8.1-1,16.4-1.2,24.2-3.2c11.7-3.1,23.1-5.6,35.2-2.8
	C342.5,263.6,344,263,346,262.3 M387.5,138.8c9.5,1.2,19,2.8,28.5,3.4c4.7,0.3,9.4-1.2,14.2-1.8c0.7-0.1,1.5,0.6,2.3,1
	c-0.5,0.6-0.8,1.4-1.4,1.9c-2.4,2.5-4.7,5-7.4,7.1c-1.2,1.1-3,1.6-4.7,1.9c-1.6,0.3-3.7-0.6-4.9,0.2c-6.3,4.1-12.4,2.7-18.8,0.3
	c-0.8-0.3-1.7-0.1-2.6-0.2c0.4,1,0.6,2.2,1.4,2.8c5.5,4,11.5,6.5,18.6,4.3c1-0.3,2.3,0.4,3.4,0.8c2.8,1.2,5.5,3.1,8.4,3.8
	c19.1,4.2,32.1,15.2,37.8,34.1c1.6,5.1,1.4,10.7,2.2,16.1c0.1,1,1,1.9,1.5,2.8c0.5-0.8,1.1-1.5,1.4-2.4c2.9-8.5,8.5-16,8.5-25.5
	c0-7.1,1.8-14.6,0.3-21.3c-3.3-14.6-8.5-28.7-15.4-42.1c-5.7-11.3-10.5-23-14.8-34.9c-3.2-8.7-5.7-17.8-7.4-26.9
	c-1.2-6.7-2.8-8.6-9.3-6.1c-15.7,5.9-31.6,9.5-48.6,8.4c-9.5-0.7-19.1-0.4-28.7-0.1c-5,0.2-10.1,1.2-15.1,2
	c-0.9,0.2-1.6,1.3-2.4,1.9c0.6,0.5,1.3,1.1,2,1.6c0.9,0.5,1.9,1,2.9,1.4c10.5,4.1,17.5,12.7,25.9,19.5c3.4,2.7,6.5,5.9,9.9,8.7
	c4.9,4,11.2,2.8,16.8,3.8c6.3,1.1,12.6,2.1,18.9,2.9c2.3,0.3,4.7,0.1,7.1,0.1c2.6,0.1,5.3-0.2,8,0.2c0.9,0.1,1.6,1.4,2.5,2.2
	c-0.8,0.6-1.4,1.4-2.2,1.6c-3.9,0.8-7.8,1.3-11.7,2.1c-1.4,0.3-2.7,1.1-4,1.6c1.2,0.5,2.3,1.1,3.5,1.3c2.1,0.5,4.4,0.7,6.6,1
	c4.5,0.8,9,1.3,13.5,2.4c3.2,0.7,6.5,1.3,4.5,6.6c-1.6,3.9-2.9,6.4-6.5,4.9c-6.3-2.5-12.1-1.5-18.1,0.9c-8,3.3-16.3,5-24.9,2.3
	c-0.6-0.2-1.4-0.2-2,0c-0.9,0.2-1.6,0.8-2.5,1.2C385.5,137.2,386.2,137.8,387.5,138.8 M333.5,126.8c-9.2,13.1-21.5,20.3-39.4,12.7
	c-5.6-2.3-5.6-2.2-5.6,4c0,4.9-1.6,10.4,5.1,12.6c0.1,0.1-0.2,2.7-0.9,3.1c-1,0.5-2.8,0.6-3.9,0.1c-3.7-1.9-4.9,0.4-6.4,3.2
	c-3.3,6.3-7.4,11.6-15.6,10.9c-0.8-0.1-1.6,0.3-2.3,0.4c0.4,0.8,0.8,1.7,1.4,2.4c8.9,10.1,19.6,17.8,32.4,21.9
	c7.5,2.4,16,3.4,23.2-1.8c8-5.8,13.1-13.5,16.3-23.3c3.3-9.8,2.4-19.7,3.3-29.5c0.7-6.6-1.6-13.5-2.7-20.2c-0.1-0.7-0.8-1.3-1.3-2
	c-0.6,0.6-1.3,1-1.7,1.7C334.8,124,334.4,125.2,333.5,126.8 M349.5,177.8c-0.7-1.8-1.4-3.7-2.1-5.6c-0.4-1.3-1-2.6-1.5-3.8
	c-0.8,1.3-2.2,2.5-2.4,3.9c-1.6,13.4-10,22.2-20.2,29.4c-5.5,4-12.2,5-19,2.7c-0.8-0.3-1.9,0.2-2.8,0.4c0.1,0.4,0,1.1,0.3,1.3
	c3.5,3.4,7,6.9,10.6,10.2c7.7,7.3,17.6,9.4,27.4,10.8c6,0.9,12-0.7,16.7-5.3c8.9-8.8,10.3-19.1,6.3-30.6c-0.7-2-1.4-4.4-2.9-5.7
	C356.9,182.8,353.3,180.7,349.5,177.8 M256,111.3c-1.2,4.7-2.4,9.4-3.5,14.1c-0.1,0.6,0.5,1.3,0.8,1.9c0.4-0.5,0.8-1.1,1.3-1.5
	c3.1-3.3,6.3-5.7,11.3-3.7c1.5,0.6,4,0.1,5.4-0.8c9.6-6.6,20.5-10.1,31.4-13.7c1.3-0.4,2.5-1.2,3.7-1.8c-1.6-0.5-3.4-1.7-4.8-1.3
	c-4.4,1.1-8.7,2.9-13.2,4.3c-1.8,0.6-3.8,0.9-5.7,1.3c0.9-1.7,1.4-3.9,2.8-5.1c5.1-4.8,11.8-5.2,18.2-4.7c5.6,0.4,11.2,2,16.7,3
	c1,0.1,2-0.5,3.1-0.7c-0.7-0.9-1.1-2.2-2-2.6c-5.8-2.7-11.5-5.5-17.4-7.5c-4.5-1.6-5.5-2.8-4-7.3c0.4-1.5,0.4-3.3,0.3-4.9
	c0-1-0.5-2-0.8-3c-0.7,0.9-1.5,1.8-2.1,2.7c-0.8,1.1-1.3,3-2.2,3.2c-1.1,0.2-2.7-0.6-3.7-1.4c-0.9-0.7-1.3-2.1-1.9-3.2
	c-0.7,1.5-1.5,3-2.2,4.5c-0.4,0.9-0.4,2-1,2.6c-4.5,4.3-8.9,8.7-13.7,12.7C267.5,102.8,261.9,106.7,256,111.3 M330,121.3
	c0.7-1,2-2.1,1.9-3.1c-0.2-3-0.6-6.1-1.6-8.9c-0.4-1-3-2.1-4.3-1.8c-12.8,2.9-25.9,4.8-37.8,10.9c-1.2,0.6-2.8,2.3-2.6,3.1
	c1,3.8,0.1,8.6,4.6,11c6,3.3,12.7,5.7,19.4,4.6C318.6,135.7,325.3,130.2,330,121.3 M260.5,164.8c6.5,4.9,11.1,4.3,15.3-2.4
	c6.2-9.7,11.5-19.7,4.1-31.3c-0.7-1-0.5-2.8-0.4-4.2c0-1.5,0.4-3,0.6-4.4c-1.4,0.6-2.9,1-4.1,1.9c-6.1,4.2-12,8.7-18.1,12.9
	c-4.4,3.2-7,8.3-5.2,12.6C254.7,154.9,257.5,159.5,260.5,164.8 M490,258.3c-3.5-0.4-4.7,0.7-2.6,3.9c0.7,1,1.5,2.1,2,3.2
	c5.7,11,13.7,19.3,26.1,22.3c2.7,0.7,5.8,0.7,8.6,0.4c3.6-0.5,4.4-2.8,2.6-6.1c-1.5-2.6-4-5.4-4-8.2c-0.1-7.7-4.8-10.8-11-12.6
	c-3.6-1-7.4-1.3-11.2-1.8C497.3,258.9,494.1,258.7,490,258.3 M381,186.3c-1.5-1.7-2.7-3.6-4.3-5.2c-6.9-6.9-11.2-14.6-10.5-25.2
	c0.6-9.1-1-18.3-1.8-27.5c-0.2-1.4-1.6-2.7-2.4-4c-0.5,1.4-1.5,2.8-1.5,4.2c0.2,6,0.7,12,0.9,18c0.4,7.9,0.5,15.7,1.1,23.5
	c0.6,7.4,11.3,17.6,18.6,18.2C381.2,188.3,381.3,187.3,381,186.3 M709.5,224.8c2,3.4,5.2,6.6,5.7,10.1c0.6,5.7,3.5,8.7,8.2,10.9
	c0.7,0.3,1.4,0.6,2.2,0.9c0.3-0.8,1-1.8,0.8-2.6c-0.9-3.6-1.7-7.2-3-10.7c-3.5-10-8-19.2-18.8-23.4c-0.9-0.3-2-0.2-3-0.3
	c0.2,1.1,0.2,2.5,0.9,3C706,215.7,708.3,219.4,709.5,224.8 M240.5,121.8c3.3-9.3,9.2-17.2,14.4-25.5c1.6-2.6,2.1-5.9,3.2-8.8
	c-2.2,2.1-5.1,3.9-6.6,6.4c-5.9,10-11.7,20.1-16.9,30.5c-4.8,9.5-10.6,17.4-22.1,19c-0.3,0-0.6,0.4-0.9,0.6c0.3,0.1,0.6,0.3,0.9,0.3
	c6.1,1.7,17.4-2.6,20.9-8.4C236,131.7,238.1,127.2,240.5,121.8 M246.5,144.8c0-1.3,0.1-2.7-0.2-3.9c0-0.4-2-0.8-2.2-0.5
	c-7.7,10.3-17.9,16.8-29.8,21c-0.7,0.2-1.2,1-1.8,1.5c0.6,0.5,1.3,1.5,1.9,1.4c6.5-1.2,13.7-1.1,19.2-4.2
	C238.8,157.1,242.2,150.7,246.5,144.8 M338.5,109.8c3.1,7.5,7.5,14.5,7,23.1c0,0.8,1.3,1.6,1.9,2.4c0.5-0.6,1.4-1.2,1.5-2
	c1-4.6,2.1-9.3,2.4-14c0.4-3.5-0.9-6.4-5.4-7.1c-1.8-0.3-3.6-1.7-5-3.1c-1.9-1.7-3.4-3.8-5-5.8c-0.9-1.2-2.4-2.7-2.3-3.9
	c0.6-4.9-2.1-5.6-5.9-5.1c-1.1,0.2-2.2,0.4-3.2,0.6c0.7,1,1.3,2.2,2.2,3.1C330.5,101.7,334.5,105.2,338.5,109.8 M357,137.3
	c-0.2-0.6-0.5-1.1-0.5-1.7c-0.3-1.8-0.4-3.5-0.6-5.2c-1.1,2-2.4,3.9-3.4,6c-0.4,0.9,0,2-0.1,3c-0.3,5.5-0.8,11-0.9,16.5
	c-0.1,7-1.2,14.2,3.5,20.4c0.8,1.1,2,2,3.1,2.9c0.1-1.4,0.5-2.9,0.3-4.3c-0.5-4.5-1.8-9-1.8-13.6C356.5,153.5,357.1,145.7,357,137.3
	 M528.5,264.8c1,5.1,1.9,10.2,3.3,15.2c0.3,1,2.5,1.6,3.9,2.3c0.2-1.3,1-2.7,0.7-3.9c-2.2-9.8-0.8-19.6,0.1-29.4
	c0-0.9,0.2-1.8,0.2-2.7c-1,0.6-2.8,0.8-3.1,1.7C531.7,253.2,530.1,258.5,528.5,264.8 M301,72.3c5.4,2.4,4.9,6.6,3.8,11.3
	c-0.3,1.4,0.7,3.2,1.2,4.7c0.6-0.3,1.5-0.5,2-1c2.4-2.8,2-14.9-0.6-17.5c-0.6-0.6-1.3-1.3-2-1.4c-8.4-0.7-16.8-0.1-24.8,3
	c-1.2,0.4-1.9,1.8-2.9,2.7c1.4,0.1,2.8,0.5,4.1,0.3C287.9,73.8,293.9,73,301,72.3 M371.5,165.8c0.6,1.4,1.2,2.9,2,4.2
	c0.5,0.9,1.3,1.6,2,2.3c0.3-0.9,0.9-1.8,0.9-2.8c0.1-7.8,0.6-15.7-0.1-23.4c-0.4-4.3-2.7-8.5-4.3-12.7c-0.4-0.8-1.4-1.3-2.1-2
	c-0.2,0.9-0.5,1.9-0.4,2.8C370.1,144.4,370.8,154.6,371.5,165.8 M193.5,157.8c0.1,0.5,0.3,1.5,0.3,1.5c4.6-1,9.3-1.6,13.8-3
	c6.4-2.1,12.7-4.6,19-7c0.8-0.3,1.2-1.7,1.8-2.5c-0.9-0.1-1.8-0.3-2.7-0.2c-3.1,0.5-6.3,0.8-9.3,1.8
	C208.7,151,201.1,154,193.5,157.8 M280,78.3c-7.6,3.5-15.8,6.2-19.6,14.6c-0.4,1-0.6,2.1-0.8,3.1c1.1-0.2,2.3-0.4,3.4-0.7
	c1.7-0.6,3.4-1.3,5.1-2c1.9-0.6,4.3-0.8,5.5-2.1c3.4-3.3,6.3-7.2,9.2-10.9C282.9,80.2,281.6,79,280,78.3 M383,113.3
	c1.6,0,3.3,0,4.9,0.1c5,0.2,10.1,0.7,15.1,0.9c0.8,0,1.6-0.9,2.4-1.4c-0.8-0.5-1.4-1.3-2.2-1.5c-2.3-0.5-4.7-1-7.1-1
	c-9.5-0.3-19.2,0.2-27.3-6.2c-0.6-0.4-1.4-0.4-2.1-0.6c0.2,0.6,0.2,1.5,0.6,2c2.3,2.8,4.4,6.1,7.4,8.1
	C376.3,114.8,379.5,113.5,383,113.3 M408,122.3c-4.4,0.4-8.7,0.6-13,1.1c-1.6,0.2-3,1.2-4.5,1.8c1.4,1,2.7,2.5,4.3,3.1
	c6.2,2,12.2-0.5,18.1-2c1.7-0.5,3.1-1.9,4.6-2.9c-1.7-0.5-3.4-1.3-5.2-1.6C411.3,121.6,410.1,122.1,408,122.3 M564.5,190.8
	c-1.7-1.5-3.3-3.2-5.2-4.4c-1-0.6-3.5-0.8-4-0.2c-3.3,4-0.6,7.7,1.2,11.2c0.4,0.8,2.2,1.8,2.7,1.5
	C562.1,197.5,565.1,195.9,564.5,190.8 M231,196.3c-0.9,0.5-1.7,1-2.5,1.5c0.7,0.2,1.5,0.7,2.1,0.5c5.3-1.4,10.6-2.6,15.7-4.5
	c1.5-0.5,2.5-2.8,3.5-4.4c0.5-0.7,0.4-1.8,0.6-2.7c-1,0.2-2.1,0.2-3,0.7C242.1,190.1,236.8,193,231,196.3 M274.5,197.8
	c-0.4,1.9-0.8,3.7-1,5.6c-0.1,0.5,0.4,1.1,0.7,1.7c1.9-0.9,4.3-1.5,5.6-3c0.9-0.8,0.6-3.4,0-4.8c-1.9-4.6-5.9-6.9-10.3-8.4
	c-1.2-0.4-2.7,0-4,0c1,0.8,1.8,2,3,2.4C271.5,192.1,273.7,193.6,274.5,197.8 M390.5,156.8c-1-0.7-1.9-1.4-2.9-2.1
	c-0.4,0.6-1,1.3-1.1,2c-0.4,4.9,8.4,12.1,13,10.6c0.8-0.3,1.3-1.3,2-1.9c-0.6-0.4-1.2-0.8-1.7-1.2
	C396.7,162.1,393.6,159.9,390.5,156.8 M662.5,166.8c-0.7,2.8-1.9,5.5-1.8,8.2c0,1.1,2.5,2.2,3.9,3.3c0.6-1.1,1.6-2.2,1.8-3.4
	c0.3-2.1-0.1-4.3,0.1-6.5C666.9,164.7,665.1,164.6,662.5,166.8 M318,81.3c-0.2-2.4-0.2-4.9-0.5-7.3c-0.1-1-1.1-1.8-1.6-2.7
	c-0.5,1-1.3,1.9-1.4,2.9c-0.5,3.5-0.8,7-1,10.5c-0.1,1.5,0.4,3.1,0.6,4.6c1.1-1.3,2.5-2.5,3.3-4C317.8,84.4,317.5,83,318,81.3
	 M247,127.3c0.5-2.4,1-4.8,1.4-7.3c0.1-0.8-0.3-1.7-0.5-2.6c-0.7,0.7-1.7,1.3-2,2.1c-1.6,3.8-3.1,7.7-4.4,11.6
	c-0.3,1,0.5,2.4,0.8,3.6c0.2,0.5,0.5,1.1,0.7,1.6c0.5-0.5,1.2-0.8,1.3-1.4C245.1,132.6,245.8,130.2,247,127.3 M327,76.3
	c1.5-3-0.8-3.9-2.8-5c-0.6,1.4-1.4,2.7-1.7,4.1c-0.5,3-0.8,6-1,9c-0.1,1,0.2,1.9,0.4,2.9c0.7-0.7,1.7-1.2,2-2
	C324.9,82.5,325.6,79.7,327,76.3 M401,145.3c-1.3-0.2-2.5-0.5-3.8-0.6c-0.8-0.1-1.7,0-2.7,0c0.5,0.8,0.7,1.8,1.3,2.4
	c3.3,3.9,7.8,3.3,12.1,3.2c0.5-0.1,1-1.2,1.6-1.8c-0.6-0.4-1.1-1.1-1.7-1.2C405.7,146.7,403.6,146.3,401,145.3 M380.5,164.8
	c0.7,1.7,0.9,4.1,2.2,5c1.5,1,3.9,0.6,5.9,0.9c-0.5-1.1-0.9-2.2-1.5-3.2c-0.9-1.6-1.8-3.2-2.8-4.8c-0.7-1.1-1.6-2.2-2.5-3.3
	C381.4,160.9,380.9,162.4,380.5,164.8 M263.5,205.8c-1,1.1-2.1,2.1-3,3.3c-0.4,0.5-0.6,1.3-0.8,1.9c0.7,0.1,1.6,0.5,2.3,0.2
	c3.5-1.5,6.8-7.4,6.4-11.6c-0.1-0.8-0.6-1.5-1-2.3c-0.5,0.7-1.1,1.4-1.5,2.1C265,201.2,264.3,203,263.5,205.8 M249.5,162.8
	c-0.7-1.6-1.3-3.4-2.1-5c-0.5-1-1.5-1.6-2.2-2.5c-0.6,1.6-2,3.8-1.5,4.4C244.9,161.3,247.1,162.2,249.5,162.8 M258.5,127.8
	c-0.4,0.4-0.8,0.7-1.1,1.1c-0.7,1.2-1.3,2.4-1.9,3.6c1-0.4,2.1-0.6,3-1.2c1.2-0.8,2.3-1.9,3.3-2.9c0.6-0.5,1.1-1.1,1.6-1.7
	c-0.8-0.1-1.6-0.4-2.4-0.3C260.3,126.5,259.6,127,258.5,127.8 M382,124.3c0.1,1.2,0.1,2.4,0.5,3.5c0.3,0.9,1.1,1.6,1.7,2.3
	c0.4-1.1,1.3-2.3,1.1-3.4C385.2,125.8,383.8,125.1,382,124.3 M387,118.3c-1.3-0.1-2.5-0.2-3.7-0.2c-0.2,0-0.4,0.6-0.6,1
	c1.1,0.4,2.2,0.9,3.4,1.2c0.7,0.2,1.6,0.2,2.4,0c0.7-0.2,1.3-0.8,2-1.2C389.6,118.8,388.8,118.6,387,118.3 M210.5,144.8
	c-0.2-0.1-0.4-0.2-0.6-0.4C209.9,144.7,209.9,145,210.5,144.8"/>
<path d="M414.5,731.3c-10.7,0-20.9-0.2-31,0.1c-22.3,0.5-44.6,1.3-66.9,2c-8.2,0.2-16.5,0.7-24.7,0.9c-17.7,0.4-35.4,0.8-53.1,1
	c-8.7,0.1-17.5,0.3-26.2,0c-15.9-0.5-31.7-1.3-47.6-2c-7.8-0.3-15.5-0.8-23.3-0.9c-34.2-0.8-68.4-1.4-102.6-2.1
	c-5.9-0.1-11.8-0.6-17.6-1c-3.6-0.1-4.1-2.5-4.1-5.4c0.4-15.2,0.8-30.4,1-45.6c0.2-8.8-0.1-17.6,0.1-26.5c0.2-11,0.7-22,0.9-33
	c0.4-15.7,1-31.4,1-47.1c-0.1-22.6-0.7-45.1-0.9-67.6c0-9.5,0.7-19.1,0.9-28.6c0.4-13.7,1.1-27.4,0.9-41.1
	c-0.1-12.6-1.1-25.3-1.9-38c-0.1-1.6-0.8-3.3-1.3-4.9c-1.6-5-0.2-6.9,4.9-7.2c17.9-0.9,35.8-2.1,53.7-2.9c12.6-0.6,25.1-1,37.6-1
	c15.2,0,30.4,0.8,45.6,0.9c11.2,0,22.4-0.8,33.6-0.9c27.5-0.4,55-0.6,82.6-1.1c19.2-0.4,38.5-0.4,57.6-2.2
	c28.9-2.7,57.8-1.4,86.7-1.7c27.2-0.3,54.5-0.2,81.8,0c34.6,0.2,69.2,0.7,103.7,0.9c26.4,0.2,52.8,0,79.2,0
	c19.5,0,38.9-0.1,58.3,0.1c27.7,0.2,55.3,0.6,83,1c14,0.2,28,0.6,42,0.9c26.5,0.7,52.9,1.4,79.4,2c7,0.2,14.1,0.2,21.1,0
	c4.3-0.2,6,2.3,6.5,5.6c2.2,13.6,4.2,27.3,6,41c1.3,9.5,2.3,19.1,3,28.7c0.9,12.5,1.4,24.9,2.1,37.4c0.6,10.7,1.3,21.4,2,32.1
	c0.6,10.3,1.2,20.6,2,30.9c0.9,12.1,1.7,24.2,3,36.2c1.4,12.8,3.4,25.6,4.9,38.4c0.6,4.9,0.8,9.8,1,14.6c0.7,11.6,1.3,23.1,2.1,34.7
	c0.9,12.6,1.9,25.3,3,37.9c0.2,3.3-3.4,10.5-6,10.9c-2.9,0.5-5.9,0.5-8.9,0.6c-3.8,0.1-7.6,0-11.3,0c-20.4,0-40.7-0.1-61,0.1
	c-14.9,0.1-29.8,0.9-44.6,0.9c-19.5-0.1-39.1-0.6-58.6-1c-5.7-0.1-11.4-0.9-17.1-0.9c-8.5,0.1-17,0.8-25.6,0.9
	c-6,0-12.1-0.9-18.2-0.9c-7.6,0-15.3,0.9-22.9,0.9c-12.7-0.1-25.3-0.8-38-0.9c-16.9-0.2-33.9-0.4-50.8,0
	c-18.4,0.6-36.8,2.3-55.2,2.8c-11.2,0.4-22.4-0.5-33.6-0.9c-7.7-0.2-15.4-0.9-23.1-0.9c-35.2,0.2-70.4,0.6-105.6,1
	C421,730.4,418,731,414.5,731.3 M381.5,548.8c-0.4,0-0.7,0-1,0c0.3,0.2,0.6,0.4,1,1c1.3,2.5,2.5,5,4,7.4c3.2,5,7,6,12.2,3.4
	c1.1-0.5,2.3-1,3.5-1.2c0.7-0.1,1.5,0.3,2.3,0.5c-0.4,0.7-0.6,1.6-1.2,2c-1.7,1.3-3.6,2.3-5.4,3.6c-0.6,0.3-1,0.9-1.4,1.4
	c0.6,0.1,1.2,0.3,1.8,0.4c15.1,2.8,28.2,9.4,36.2,22.9c7,11.8,14.9,22.6,25.5,31.3c3.2,2.6,5.3,3.7,8.8,0.2
	c7.5-7.4,13-16.1,17.9-25.2c4.5-8.3,7.9-17.5,5.4-26.5c-3.3-12.3-8.3-24.2-13.5-35.8c-6.2-14-14-27.2-19.8-41.3
	c-3.7-9-5-18.9-7.4-28.5c-1.1-4.3-1.6-8.8-8-9.2c-9.1-0.5-18.1-2.7-27.2-2.6c-9.4,0-18.9,1.4-28.3,2.8c-16.2,2.4-31.7,7.2-46.7,13.7
	c-4.8,2.1-5.1,4.8-1.1,8.4c9.2,8.4,18.4,16.9,27.4,25.5c6.4,6,13.4,8.8,22.3,5.6c8.4-3,16.9-2.8,24.8,1.8c0.9,0.5,1.3,2,1.9,3
	c-0.8,0.3-1.7,0.9-2.4,0.9c-1.7-0.1-3.4-0.6-5.1-0.9c-2.9-0.7-5.9-2.1-8.7-1.9c-5.1,0.4-10.2,1.7-15.2,2.9c-1.2,0.3-2.9,1-1.7,3.3
	c2.7,5.4,8.5,7.3,14.6,4.7c2-0.9,4.1-1.5,6.2-2c0.7-0.2,1.5,0.3,2.3,0.5c-0.4,0.6-0.6,1.5-1.1,2c-4.6,4.2-9.6,6.6-16,4.9
	c-1.6-0.4-3.3,0.1-4.9,0.2c1.2,1.1,2.2,2.7,3.7,3.3c4.2,1.6,8.6,2.1,12.7-0.9c2.8-2,5.7-3.8,8.7-5.6c0.6-0.4,1.5-0.3,2.3-0.5
	c0,0.4,0.1,0.7,0,1c-0.9,4.4-3.2,7.7-7.5,9c-8,2.4-16.1,3.9-23.5-1.9c-0.6-0.5-1.6-0.4-2.4-0.6c0.5,0.9,0.9,2,1.6,2.6
	c1.4,1.1,3.3,1.4,4.4,2.6c4.1,4.2,8.7,3.8,13.7,2.1c2-0.6,4.1-1.3,6.2-1.7c0.6-0.1,1.4,0.4,2.1,0.7c-0.5,0.7-0.7,1.6-1.3,1.9
	c-5.2,2.9-10.7,4.6-16.7,4.3c-0.7,0-1.4-0.1-2-0.1c0.5,0.7,0.9,1.8,1.6,2.1c5.3,1.7,10.6,1.7,15.8-0.8c4.2-2,8.5-3.6,12.9-5
	c1-0.3,2.4,1,3.7,1.5c-0.9,0.8-1.6,1.8-2.6,2.3c-3.7,1.9-7.4,3.9-11.3,5.3c-7,2.7-14.2,4.6-21.3,0.1
	C383.5,549.3,382.4,549.5,381.5,548.8 M446,449.3c1.6,0,3.3,0,5,0c5.4,0.1,6.2,1.2,6.5,6.5c0.3,5.3,0.5,10.7,1.9,15.8
	c3.3,12,7.3,23.9,11.1,35.8c0.2,0.8,0.9,1.3,1.4,1.9c0.5-0.6,1.3-1.1,1.5-1.8c1.2-3.7,2-7.6,3.6-11.1c4.9-10.9,10.9-21.3,18.4-30.9
	c4.1-5.2,5.3-5.9,9.5-1.1c12.2,13.9,29,16.8,45.8,18.7c12,1.3,24.1,1.1,36.2,2.9c12.8,2,23.9,6.7,34.6,13.5c2.4,1.5,6.6,1.2,9.6,0.5
	c5.5-1.4,10.7-5,16.2-5.4c19.4-1.6,38.7,0.1,57.2,6.4c9,3.1,17.9,6.8,26.7,10.4c15.3,6.2,31.6,6.1,47.6,6.9c6.3,0.3,7.3,1.5,4,7.1
	c-8.7,14.9-13.4,30.7-12.4,48.1c0.5,6.8,0.8,13.7,1,20.5c0.5,11.7-2.8,21.1-14.3,26.5c-6.1,2.8-9.2,7.9-8.8,15.2
	c0.3,5-2.2,9.9-7,11.4c-6.4,2.1-6.5,6.6-5.7,11.4c0.5,3.7,0.3,8.6,5.2,9.6c10.8,2.3,21.6,4.8,32.5,6.1c10,1.1,20.5,1.7,30.2-1.1
	c12.2-3.5,24.4-7.9,35.9-13.4c17.6-8.6,34.5-18.8,52-27.6c7.8-4,16.1-8.3,24.6-9.4c13.6-1.7,27.5-1.1,41.3-1.3
	c2.9,0,5.8,1.2,8.6,0.8c4.1-0.5,8.1-2,12.3-2.8c9.8-1.9,12.9-6.2,11.3-14.5c-1.7-8.9-3.1-17.9-4-26.8c-1.3-13.8-2.1-27.6-3-41.5
	c-1.1-17.4-2-34.8-3.1-52.2c-0.8-13.2-1.7-26.3-3-39.4c-1.4-15-3.4-30-4.9-45c-0.6-6.1-4-11.4-8.1-11.6c-8.7-0.5-17.4-0.7-26.1-1.1
	c-15.6-0.6-31.2-1.4-46.8-1.9c-13.5-0.5-26.9-0.7-40.4-1.1c-15.3-0.3-30.5-0.7-45.8-0.9c-28.7-0.4-57.4-0.8-86.1-1
	c-2.6,0-5.4,0.9-8,0.9c-10.3-0.2-20.5-0.9-30.8-0.9c-41.3-0.1-82.7,0-124-0.1c-20.3-0.1-40.5-1.1-60.8-0.9
	c-54.3,0.8-108.8-2.2-163.1,1.9c-10.5,0.8-21.1,0.7-31.6,1c-12.4,0.4-24.7,0.8-37.1,1c-22,0.4-44,0.7-66.1,1.1
	c-16.2,0.2-32.4,0.9-48.6,0.9c-15.5,0-31-0.7-46.5-0.9c-9.2-0.2-18.4-0.5-27.5,0c-14.7,1-29.2,2.8-43.9,3.8c-4.1,0.3-5,1.5-4.8,5.3
	c0.8,12.5,1.9,25.1,1.9,37.6c0.2,17.7-0.5,35.4-0.9,53.1c-0.2,9.6-0.9,19.3-0.9,28.9c0.1,17.4,0.8,34.9,0.9,52.3
	c0.2,21.8,0.2,43.5,0,65.3c-0.1,13.2-0.6,26.4-0.9,39.6c0,0.7,1.1,1.9,1.7,2c5.2,0.4,10.4,0.8,15.6,1c17.3,0.9,33.5-3.9,49.6-9.5
	c9.9-3.4,19.6-5.8,30.3-5.7c14.8,0.2,29.4,1.8,43.9,4.3c9.9,1.7,19.6,4,29.5,5.9c2.2,0.4,5.6,1.1,6.5,0c3.7-4.4,6.5-9.6,9.9-14.3
	c3.3-4.5,0.8-5-3-4.6c-16.3,1.6-31.6-3.2-47-7.2c-5.4-1.4-10.3-2.7-15.4,0.1c-2,1.1-4.3,1.9-6.2,3.2c-2.5,1.7-4.2,0.9-5.9-1.1
	c-3.8-4.5-4.9-10.5-3.2-15.4c2.6-7.3,1-13.6-1.3-20c-6.2-17.6-9-35.9-9.9-54.4c-0.4-6.6,0.2-13.4,1-20c0.8-6.9,1.8-13.9,3.7-20.5
	c3.1-10.3,6.8-20.4,10.6-30.6c0.6-1.4,2.9-2.8,4.5-3c2.5-0.3,5.2,1.1,7.6,0.7c9.3-1.7,18.7-3.7,28-6c8.1-2,15.9-0.8,23.2,2.6
	c6.7,3.1,12.8,3.4,19.4,0c3.8-2,7.8-3.5,11.9-4.9c1.4-0.5,3.3,0.1,4.8,0.6c0.3,0.1,0.5,2.5,0.1,2.7c-5.7,2.9-11.4,5.5-17.1,8.1
	c-0.9,0.4-1.9,0.7-2.8,1c0.9,0.7,1.8,1.4,2.8,2c0.7,0.4,1.7,0.5,2,1.1c1.2,1.7,2.1,3.5,3.2,5.4c-1.8,0.1-3.9,1-5.4,0.4
	c-5.4-2.2-10.7-4.8-15.8-7.6c-13-7-26.3-7.1-40.1-2.6c-4.2,1.4-8.7,2.8-13.1,3.2c-7.1,0.6-7.1,0.3-9.6,6.6c-0.7,1.8-1.1,3.8-2.1,5.6
	c-6.9,13.1-8.6,27.5-9.8,41.9c-0.6,8.9,0,18.1,1,27c1,8.6,3,17,4.8,25.5c2.6,12.3,10.3,23.7,5.2,37.3c-1.4,3.8,2.6,6.4,6,4.2
	c4.2-2.8,8.7-3.7,13.3-2.8c3.8,0.7,7.2,2.7,11,3.7c14.7,3.8,29.5,7.4,44.9,6.1c1.3-0.1,3.4-1,3.5-1.7c1.1-7.5,6.9-12.2,10.6-18.2
	c1.1-1.7,2.2-3.8,3.9-4.8c6.6-3.6,13.5-6.8,20.2-10.3c0.6-0.3,0.8-1.1,1.2-1.7c-3.9-1.2-0.8-2.4,0-3.5c6.9-8.3,7.6-13,3.2-20.6
	c-0.8-1.4-2.4-2.4-2.9-3.8c-1.2-3.6-2.5-2.4-4.4-0.6c-6.2,6.1-12.4,12.2-19,17.9c-3.5,3.1-7.7,5.4-11.7,7.8
	c-0.9,0.4-2.5-0.5-3.8-0.8c0.5-0.9,0.8-2,1.5-2.7c0.7-0.8,1.7-1.3,2.7-1.8c1.8-0.9,3.6-1.7,5.5-2.5c-1.8-0.2-3.6-0.3-5.4-0.7
	c-0.8-0.2-1.6-0.9-2.4-1.4c0.7-0.4,1.3-0.7,2-1.1c3.7-2.1,7.9-3.8,11.2-6.6c5.4-4.7,11.4-9.2,13.1-16.8c0.3-1.2-0.3-2.5-0.6-3.8
	c-0.8,0.7-1.7,1.2-2.4,1.9c-3.7,4.3-7,9.1-11.1,12.9c-4.4,4.1-9.1,8.4-15.7,8.9c-1.5,0.1-3-0.9-4.4-1.4c1-0.8,2-2.1,3.2-2.5
	c9.3-3.1,15.7-10,21.9-17c4.2-4.8,8.8-9.9,7.7-17.2c-0.2-1.4-1.3-2.6-2-3.9c-0.6,1.3-1.4,2.6-1.9,4c-1,2.4-1.4,5.3-2.9,7.2
	c-3.8,4.7-7.9,9.2-12.3,13.4c-8.6,8.2-20,11-30.6,15.3c-1.2,0.5-3.3-1.4-5-2.1c1-0.8,1.9-1.7,3-2.5c0.8-0.5,1.6-0.9,2.5-1.3
	c7.4-3.3,15.1-6.2,22.3-10.1c8-4.4,14-11.1,17.9-19.5c0.6-1.4,0.1-3.2,0.2-4.7c-1.1,0.9-2.4,1.7-3.2,2.9
	c-7.6,12.3-19.2,18.6-32.6,22.3c-1.9,0.6-4.5-0.2-6.5-0.9c-2.6-1.1-2.5-2.7,0.1-3.9c2.9-1.4,6-2.5,8.8-4.1c7.5-4.4,15-9,22.3-13.6
	c0.9-0.6,1.2-2.1,1.7-3.1c-1.1,0.2-2.4,0.3-3.4,0.8c-5.3,2.6-10.6,5.1-15.7,8c-7,3.8-13.8,7.9-20.6,12c-2.1,1.3-3.9,3.2-6.1,4.4
	c-2,1.1-3.3,1.4-4.2-2c-1.3-4.9,2-5.2,4.6-6.4c1.6-0.8,3.5-1.2,5.1-2.1c8.6-4.2,16.9-9.1,25.7-12.8c13.9-5.9,20.2-17.5,24.8-30.7
	c0.3-0.9-0.5-2.3-0.7-3.5c-0.8,0.8-1.7,1.4-2.2,2.2c-1.8,3.3-3.2,6.7-5.1,9.9c-4.6,7.9-9.6,15.6-18.2,19.6
	c-8.8,4.1-17.9,7.7-26.9,11.3c-2.4,0.9-7.2,2-7.5,1.3c-1.7-3.4,1.3-5.5,3.6-7.7c0.2-0.2,0.5-0.4,0.8-0.6c9.2-4.6,18.4-9.3,27.7-14
	c7-3.5,14.3-6.6,17.6-14.7c3.1-7.7,6.9-15.1,9.9-22.9c3.6-9.4,9.9-16.4,17.7-22.6c5.6-4.5,13.9-5.7,16.7-13.6
	c0.5-1.1,1.4-2.1,2.1-3.2c-1.5,0.3-3.1,0.4-4.7,0.8c-1.1,0.3-2.4,0.7-3.4,1.4c-9.4,7-18.7,14.2-25.3,24.2c-0.6,1-2,1.4-3.1,2.1
	c0.2-1.2,0.1-2.5,0.6-3.4c4.7-9.3,11-17.3,19.4-23.3c4.9-3.5,9.9-7.4,16.7-6.9c3.5,0.3,7.1-0.7,10.6-0.8c5.9-0.2,11.9-0.4,15.4,6
	c2.1,3.7,5.3,3.8,8.6,1.2c0.7-0.5,1.6-0.9,2.4-1.3c6.2-2.9,11.3,0.8,16.5,2.9c4.6,1.8,7.8,4.2,13.4,0.7c6.4-4,14.4-5.5,21.9-7.4
	c12.7-3.3,25.3-7.2,38.3-8.8c11.7-1.5,23.7-0.5,35.6-0.3C436.2,447.5,440.6,448.7,446,449.3 M174,671.3c-3.6-0.6-7.1-1.4-10.7-1.9
	c-8.1-1.1-16.2-2.6-24.3-2.9c-10.1-0.4-20.5-1.2-30.4,0.6c-12.6,2.3-24.6,7.4-37.1,10.5c-7.8,1.9-15.9,3-23.9,3.6
	c-6.2,0.4-12.4-0.4-18.6-0.9c-2.7-0.2-3.7,0.3-3.6,3.3c0.2,11.2,0.2,22.3,0,33.5c-0.1,4.3,2.5,5.7,5.9,6.2c3.8,0.6,7.7,0.9,11.6,1
	c11.1,0.4,22.3,0.8,33.5,1c7.2,0.2,14.4-0.1,21.6,0.1c9,0.2,18,0.6,27,0.9c15.1,0.7,30.2,1.4,45.2,2c15.1,0.7,30.1,1.9,45.2,1.9
	c23.8,0.1,47.7-0.4,71.6-0.9c15.9-0.4,31.7-1.4,47.6-1.9c14.1-0.5,28.1-0.8,42.1-1c26.9-0.4,53.8-0.8,80.6-1
	c17.8-0.2,35.7-0.1,53.5-0.1c1.2,0,2.3,0.1,3.5,0c14.5-0.3,29.1-0.9,43.6-0.9c15.3,0,30.5,1,45.8,0.8c13.5-0.1,27.1-1.8,40.6-1.8
	c60.7,0.1,121.4,0.7,182.1,0.9c33.7,0.2,67.5,0.1,101.2,0c8.7,0,17.5-0.8,26.2-0.9c11.9-0.2,23.7-0.1,35.5-0.1
	c3.6,0,6.3-0.8,6.2-5.3c-0.2-7.6,0.2-15.1-0.1-22.7c-0.4-10.2-1.4-20.4-1.9-30.7c-0.8-13.2-1.5-26.4-1.9-39.6
	c-0.1-2.9-1.5-3-3.3-2.6c-3.3,0.7-6.8,1.3-9.9,2.6c-11.3,4.7-23.1,3.3-34.8,3.3c-9.2,0.1-18.9-1.8-27.5,0.5
	c-13,3.5-25.7,9-37.6,15.3c-18.7,9.9-36.2,22.2-56.4,29.3c-11.6,4.1-23.3,8-35.7,7.8c-10.9-0.2-21.9-1.5-32.8-2.9
	c-15.8-2.1-29.7-9-42.2-18.6c-7.8-6-15.1-12.6-23-18.3c-11.1-8-24-11.9-37.2-15.1c-12.1-3-24-4.8-36.5-3.1
	c-16.4,2.2-31.5,8.2-44.7,17.5c-14.2,10-27,22-40.4,33c-8.7,7.1-17.3,14.3-29.8,12.8c-2-0.2-4.9,1.7-6.3,3.5
	c-2.4,3.1-3.7,7.2-6.1,10.4c-3,3.6-6.3,7.2-10.1,9.8c-9.2,6.2-20.1,6.7-30.5,6.9c-13.9,0.2-27.8-1.1-41.7-1.7
	c-9.5-0.5-19-0.7-28.6-1.1c-1.1,0-2.4,0.3-3.5,0c-11.3-3.1-22.3-3.3-31.7,5.1c-3.4,3-7.2,1-10.6,1.6c-3.5,0.6-6.3,4.3-10.5,3.3
	c-0.5-0.1-1-0.1-1.5-0.2c0.3-0.4,0.5-1,0.9-1.4c2.9-2.6,5.9-5.1,8.7-7.8c4-3.7,7.3-9.3,14-4.6c0.2,0.2,0.7,0.1,1,0
	c6-1.7,11.9-3.3,17.8-5.2c2.5-0.8,4.5-2.2,7.3-0.5c2.7,1.7,5.9,3.3,8.9,3.6c15.8,1.3,31.5,2.6,47.3,3c12.5,0.3,25.1,0.1,37.6-1.1
	c9-0.9,17.8-4,21.3-14.2c0.5-1.4,1.6-2.9,2.8-3.8c3.1-2.5,2.8-5.5,1.1-8.2c-8.2-12.8-16.6-25.5-25.1-38.1c-1.2-1.7-4.1-3.5-6-3.2
	c-3.9,0.5-7.9,1.9-11.3,3.9c-5.8,3.4-11.3,7.5-16.7,11.5c-5.1,3.8-5.3,7.9-0.5,12c1.7,1.4,4.6,1.9,7,2.3c3.8,0.6,7.7,0.6,11.5,1.1
	c3,0.4,3.9,2.8,3,5.1c-0.4,1-2.7,1.8-4.1,1.7c-2.9-0.3-5.7-1.5-8.7-1.8c-14.3-1.8-28.2,2.8-42.3,4c-11.1,1-22.2,2.8-33.4,3.8
	c-4.5,0.4-8.1-1.5-9.4-6.6c-0.6-1.8-1.9-3.7-3.3-5.1c-8.6-7.7-22.7-5.6-31.2-1.1c-0.6,0.3-1,0.8-1.4,1.3c0.5,0.2,1,0.6,1.6,0.6
	c3.5,0.1,7-0.2,10.5,0.2c1,0.1,2.6,1.9,2.6,2.9s-1.5,2.5-2.7,2.8c-1.4,0.5-3.2-0.1-4.8-0.1c-3,0-5.9-0.2-8.8,0.3
	c-9.4,1.7-17.2,6.2-23.5,13.4c-0.5,0.7-1.5,1-2.3,1.5c-0.2-0.8-0.8-1.8-0.6-2.6c0.7-2.2,1.2-4.8,2.7-6.3c2.1-2.1,5.2-3.4,7.8-5.1
	c0.6-0.4,1-1.2,1.5-1.8c-0.6-0.4-1.1-1.1-1.7-1.1c-8.4-0.2-16.9-0.7-25.3-0.5c-9.2,0.2-18.3,1-27.4,1.4c-7.7,0.4-15.5,0.2-23.1,1.2
	c-6.8,0.8-13.5,0.9-19.3-2.3C194,674.2,184.5,672.8,174,671.3 M770.5,538.8c1.5-3.5,3.2-7,4.4-10.6c0.4-1-0.6-3.6-1.2-3.7
	c-4.6-0.6-9.4-0.7-14-1.2c-6.8-0.7-13.8-1-20.4-2.8c-9.7-2.8-19.1-6.8-28.7-10.1c-19.7-7-39.8-12.1-60.8-9.9
	c-5.8,0.6-11.3,3.2-16.9,5c-0.6,0.2-1.3,2.4-1,2.6c3.4,3.2,7,6.2,10.5,9.2c3.6,3.2,8.3,5.6,8,11.4c-0.1,1.2-0.7,3.2-1.3,3.3
	c-1.2,0.1-2.8-0.5-3.7-1.3c-7.1-6.6-13.5-14.1-21.3-19.8c-8.2-6.1-17.1-11.5-26.6-15.3c-14.7-5.9-30.7-5.6-46.3-6.3
	c-17.9-0.7-34.6-4.9-48.4-17.1c-2.3-2.1-4.8-1.8-6.2,0.6c-6.2,11-12.4,22.1-18,33.5c-2.3,4.5-1.9,9.6,0.8,14.2
	c1.8,2.9,3.7,5.8,5,8.9c4.1,9.7,8.5,19.2,11.5,29.2c2,6.3,3.4,13.6,2.2,19.9c-2.7,15.1-10,28.5-20.3,40c-0.6,0.7-0.9,1.6-1.3,2.4
	c1,0.2,2.1,0.7,2.8,0.4c5.4-2.6,9.7,0.3,13.5,3c10.7,7.7,22,13.8,34.8,17.3c4.2,1.1,5.6,0.2,6.8-3.1c3.1-8,8.9-13.9,15-19.7
	c5.1-4.7,10-9.7,14.7-14.8c0.9-0.9,1.1-3.1,0.8-4.6c-0.6-3-1.8-5.9-2.7-8.9c-1.4-4.4,2.1-10,7.4-10.3c6.1-0.2,8.7,3.8,10.7,8.1
	c1.5,3.2,3.2,4.7,6.6,4c4.7-0.9,9.6-1.6,14.2-3c14.6-4.4,28.7-11.5,44.8-9c4.4,0.7,7.9,0,8.5-5.4c0.1-1,0.4-2.2,1.1-3
	c2.6-2.8,5.1-6.7,9.6-5.3c2.1,0.6,4.1,3.3,5.2,5.6c1,2.2,1.5,5.1,1,7.5c-1,5.2,2.2,6.6,6,7.6c6.5,1.7,11.4,5.7,15.1,11.1
	c4.9,7.2,9.2,14.9,14.1,22.1c2.8,4,4.8,9.3,11.1,9.6c6.4,0.2,9.3,4.8,11.9,9.7c0.8,1.5,1.8,3,3,4.2c0.9,0.8,2.9,1.6,3.3,1.2
	c3.1-2.5,7-4.8,6.6-9.6c-0.7-9.8,4.4-16.1,12.5-20c7.5-3.7,11-9.2,10.6-17.5c-0.5-11.5-0.6-23-1.1-34.5
	C764.1,555,766.1,546.9,770.5,538.8 M345,554.3c1.1,4.2,1.8,8.6,3.5,12.6c4.1,9.2,7,19.7,19.9,20.5c0.4,0,0.9,0.4,1,0.7
	c1.1,3.6,4,3.1,6.8,3.4c2,0.2,4,1.4,6,2.1c-1.7,0.6-3.5,1.5-5.3,1.7c-3.8,0.4-5.5,2.4-6.5,6c-2.9,10.3-7.4,19.8-17,25.3
	c-8,4.6-17.1,5.9-26.5,5.9c-12.9,0-22.4-6.6-30.1-15.6c-6.9-8.1-15.3-11.5-25.1-8.3c-2.1,0.7-4.2,1.3-6.3,1.7
	c-10.5,2.3-20.2,6.5-28.8,12.6c-9.9,7-13.8,18.1-17.1,29.3c-2,6.9-4.7,13.3-9.9,18.4c-1.4,1.4-3.4,2.1-5.1,3.1
	c2.4,0.9,4.8,1.8,7.3,2.6c0.1,0.1,0.3,0,0.5,0c10.7-0.3,21.4-0.5,32.1-1c4-0.2,9.7,0.5,11.4-1.7c2.1-2.6,0.6-7.9,0.7-12
	c0-0.8,0.7-2.1,1-2.1c0.9-0.1,2.2,0.4,2.5,1c1,2.4,2.2,4.9,2.2,7.4c0.1,3.7,0.5,5.6,4.9,5.6c8.6-0.1,17.1,0.8,25.6,0.7
	c4.7,0,10.2,0.1,14.1-2.1c10.5-5.8,21.3-10.1,33.3-8.5c5.8,0.8,11.9,3.3,15,9.1c3.5,6.2,8,8.9,15.3,7.7c12.4-2,24.9-3.3,37.4-5.1
	c3.2-0.4,6.5-1.1,9.6-2.1c0.9-0.3,1.7-2,2-3.2c0.1-1-0.6-2.1-0.9-3.1c-0.9,0.6-1.9,1.1-2.8,1.7c-3.8,2.9-7.6,2.6-9.9-1.5
	c-4.5-8.2-8.9-16.6-12.9-25.1c-0.8-1.7,0-5.8,1.2-6.4c2.5-1.2,4.2,1.3,5.4,3.7c3.1,6.4,6.4,12.7,9.4,19.1c1.6,3.3,3.3,4.1,6.3,1.7
	c3.5-2.8,6.8-5.8,10.5-8.4c10.7-7.7,21.1-16,35.2-16.4c0.5,0,1-0.5,1.6-0.7c-0.3-0.5-0.5-1.2-0.9-1.6c-2.8-2.5-5.5-5.1-8.5-7.4
	c-8-6.4-14.9-13.5-19.8-22.7c-4.6-8.8-9.9-17.2-19.1-22.5c-7.2-4.2-13.3-4.4-18.1,2c-5.8,7.8-12.9,7.5-20.9,5.2
	c-13.8-4-19-15.6-23.6-27.3c-1.7-4.3-1.4-9.4-2.2-14.1c-0.2-1.3-1-2.6-1.5-3.8c-1.1,1.1-3,2.1-3.3,3.5
	C344.1,548.4,344.5,551.2,345,554.3 M569,635.3c7.4-3.6,14.8-7.6,22.4-10.9c6.7-2.8,13.6-6.4,20.6-6.7c17.2-1,34.6-1.4,51.3,4.9
	c8.2,3.2,16.3,6.4,25.7,4c2.7-0.7,6.3,1.1,9.3,2.3c0.8,0.3,0.8,2.6,1.2,3.9c-1.1,0.2-2.2,0.6-3.3,0.5c-1.4-0.1-2.7-0.8-4.1-0.9
	c-1.5-0.1-3,0.2-4.5,0.3c1.1,1.2,1.9,2.9,3.2,3.4c7.9,2.8,14.2,7.4,19.1,14.1c0.7,1,2.1,1.4,3.1,2.1c0.1-1.3,0.8-2.7,0.4-3.8
	c-2.9-6.9-5.6-14-9.1-20.7c-3.5-6.6-8.1-12.6-11.9-19.1c-4.9-8.2-11.6-14.4-20.7-17.2c-7.6-2.4-15.6-3.3-23.4-5.2
	c-7.5-1.9-15-1-22.2,1c-5.8,1.7-11.3,4.4-17,5.9c-7.1,2-15,2-21.5,4.9c-9.2,4.1-19.5,7.2-24.8,17.2c-1.1,2.1-3.4,3.6-5.4,5
	c-7.7,5.8-15.5,11.7-18.6,21.3c-1.9,5.8-3,11.8-4.3,17.7c-0.2,0.9,0.2,1.9,0.3,2.9c0.9-0.5,2-0.8,2.7-1.5c6.5-5.7,13-11.5,19.4-17.3
	c1-0.9,1.7-2.2,2.6-3.3c-1.6,0.1-3.2-0.1-4.7,0.3c-2.9,0.8-5.8,2.3-8.8,2.8c-1.7,0.3-3.6-0.7-1.7-3.3c3.8-4.8,12.3-6.9,18-4.7
	C564,635.9,566.1,635.3,569,635.3 M301,603.3c13.8,0,29.8-13,32.4-26.8c0.9-4.9,0.1-10.2,1.5-14.9c2.7-8.4-0.1-16.6,0.3-24.9
	c0.2-3.6-1-7.4-1.8-11.1c-0.2-0.9-1.4-1.5-2.1-2.3c-0.3,0.9-0.6,1.7-0.8,2.5c-0.6,1.9-0.8,4.1-1.8,5.7c-7,10.2-23.1,14.9-34.3,10.2
	c-2.5-1-4.8-2.2-7.1-3.4c-0.7,2.6-1.2,5.1-1.9,7.6c-0.2,0.7-0.7,1.3-1,2c-2.3,5.2,0.1,10,5.4,11.5c0.4,0.2,1,1.8,0.8,2.2
	c-2.6,3.5-6.6,3.9-9.8,0.4c-2.9-3.1-5.1-2.4-8.8-1.1c-4.9,1.8-10.6,1.9-15.9,2.3c-1.8,0.2-3.7-0.9-5.5-1.5c0.7,1.8,1.2,3.8,2.2,5.5
	c5.1,8.2,9.4,17.2,15.8,24.3C276.6,600.3,287.6,604.5,301,603.3 M244.5,520.8c0.3,5.2,0.6,10.4,1,15.6c0,0.6,0.2,1.2,0.4,1.8
	c0.6-0.2,1.4-0.4,2-0.8c12.7-9.6,26.6-17.3,41.9-21.9c11.3-3.4,23-5.6,34.6-8.1c3.9-0.8,3.6-2.8,2.1-5.5c-1.3-2.3-2.4-4.7-4.1-6.7
	c-2.8-3.1-5.8-6.2-9.1-8.8c-2.4-1.8-5.6-2.5-8.3-4c-7.8-4.4-16.1-6.1-24.9-4c-3.6,0.9-7.3,2.1-10.2,4.2c-3.4,2.7-5.8,6.6-9,9.7
	C253,500,246.1,508.4,244.5,520.8 M340,576.3c-1.5,3.5-2.2,7.4-4.4,10.2c-4.6,5.7-9.8,11-15,16.2c-4.8,4.7-9.9,9-17.5,5.7
	c-1-0.4-2.3-0.1-3.5,0c-1,0.1-2.1,0.4-3.1,0.6c0.6,0.9,1,1.9,1.8,2.7c3.1,2.9,6.2,5.8,9.5,8.4c2.7,2,5.7,3.9,8.9,5.2
	c10.5,4.2,20.9,2.4,31-1.8c10.4-4.4,14.5-14,17.6-23.9c1-3.1,0.2-6-3.9-7.4c-3.2-1.2-5.8-3.8-8.5-6c-6.2-5-7.6-12.7-10.5-19.6
	c-0.3-0.8-0.6-1.5-1-2.3c-0.6,0.8-1.9,1.7-1.8,2.5C339.6,569.8,340.1,572.8,340,576.3 M498,680.3c4.1-0.3,8.4-0.4,12.5-1
	c5.8-1,8.8-4,7.9-7.6c-2.1-8.3,0.9-15.4,4.6-22.3c0.7-1.3,2.4-1.5-0.6-2.2c-5-1.4-9.9-3.5-14.5-5.9c-6.2-3.4-12-7.3-18-10.9
	c-2-1.2-4.1-2.8-6.2-2.9c-6.1-0.4-12.1-0.2-18.2-0.2c0.1,0.6,0,1.2,0.2,1.8c0.9,2.6,2.3,5.1,2.6,7.8c0.5,3.5,0.4,6.6,2.9,9.9
	c7.5,10.2,14.4,21,21.7,31.4C493.7,679.3,495.6,679.6,498,680.3 M288.5,529.8c2.3,4.3,5.7,7.2,10.8,7.5c2.4,0.2,5,0.1,7.4,0
	c13.8-0.5,18.7-9.3,20.8-21c0.4-2.5-0.5-3.4-2.9-3c-9.6,1.8-19.3,3.4-28.8,5.3c-2.4,0.5-5.5,1.2-6.6,2.9
	C287.9,523.3,288.6,526.4,288.5,529.8 M252,540.3c-2.5,2.8-6,4.5-3.7,9.8c5,11.9,20.8,9.4,26.7,1.7c3.8-5,5.4-11.7,7.3-17.9
	c0.6-2-0.8-4.9-2.1-7c-0.4-0.7-3.5-0.6-4.8,0.1C267.8,531.3,260.4,535.9,252,540.3 M354.5,527.8c-0.7,6.7,3.7,11.8,5.7,17.7
	c1.4,4.3,3.4,8.5,5.3,12.7c0.2,0.5,1,0.7,1.6,1c-0.2-0.5-0.5-0.9-0.6-1.4c-1.1-4.3-2-8.5-3.1-12.8c-2.7-10.5-5.5-21-8.2-31.5
	c-0.2-0.7,0-1.6,0-2.4c0.9,0.1,2.1-0.2,2.7,0.3c1,0.9,2.1,2,2.5,3.3c2.4,8.3,4.5,16.8,7.1,25c2.1,6.3,4.7,12.4,7.4,18.4
	c0.5,1.1,2.6,1.5,4,2.2c-0.2-1.2-0.3-2.5-0.7-3.7c-1.9-6.2-4.5-12.2-5.6-18.6c-2.7-14.7-8-27.6-22-35.1c-0.7-0.3-1.2-0.9-1.8-1.4
	c-0.1,0.8-0.5,1.6-0.3,2.4c1.1,4.1,2.4,8.3,3.5,12.5C352.9,519.8,353.6,523.4,354.5,527.8 M254.5,478.8c-8.6,6.1-14.5,14.1-18,24
	c-0.3,0.9,0,2,0,3.1c0.8-0.5,1.9-0.9,2.4-1.6c3.6-5,6.8-10.3,10.6-15.1c3.1-3.8,6.8-7.2,10.3-10.7c0.6-0.5,1.6-0.6,2.4-0.9
	c0.1,1,0.5,2.1,0.2,2.9c-0.4,1-1.5,1.7-2.2,2.6c-2,2.6-4,5.3-5.9,8c-0.4,0.5-0.4,1.3-0.6,2c0.7-0.2,1.6-0.2,2.1-0.6
	c2.9-3.1,5.7-6.4,8.7-9.4c2.7-2.7,5.5-5.4,8.5-7.7c3.1-2.4,5.3-4.9,4.5-9.1c-0.3-1.3-0.6-2.6-0.9-4c-1.3,0.8-3.4,1.3-3.9,2.5
	C269.2,472.5,262.4,475.8,254.5,478.8 M335,488.3c-6.2-9.3-14.7-16-24.6-20.8c-1.8-0.9-4.4-0.2-6.6,0.1c-0.5,0.1-1.4,1.6-1.2,2.2
	c0.2,0.7,1.4,1.4,2.3,1.5c13.3,2.2,20.7,11.1,25.4,22.7c2.6,6.2,5.3,11.9,12.3,13.9c0.5,0.2,1.8-0.6,1.8-0.8c-0.2-1.4-0.4-2.9-1-4.1
	C340.9,498.2,338.1,493.6,335,488.3 M336.5,520.8c1.3,5.8,2.6,11.6,4,17.4c0.2,1,0.4,2.1,0.6,3.1c1-0.7,2.7-1.3,3-2.2
	c1.6-6,3.8-12.1,4.1-18.2c0.4-5.8-2.3-7.5-8.2-7.6c-1.2,0-2.3-0.1-3.4-0.3c-0.7-0.2-1.4-0.8-2.1-1.2c-0.1,1.3-0.5,2.6-0.2,3.8
	C334.6,517.2,335.4,518.8,336.5,520.8 M722,658.3c2,1.4,4.2,2.7,6.1,4.3c2.3,1.7,2.6,0.4,2.3-1.4c-1.1-9.1-3.5-17.7-11.3-23.6
	c-1-0.8-2.2-1.4-3.4-2c0,1.4-0.4,2.9-0.1,4.3c1.2,5.1,2.5,10.2,3.9,15.3C719.8,656.2,720.8,657,722,658.3 M365.5,567.8
	c-2-2.6-4-5.3-6-7.9c-0.7-0.9-1.6-1.7-2.4-2.6c0.1,1.5-0.4,3.2,0.2,4.3c2.9,5.1,5.6,10.4,9.2,15.1c3.2,4.1,7.5,7.3,13.2,7.6
	c0.5,0.1,1.1-0.3,1.7-0.4c-0.4-0.6-0.7-1.1-1.2-1.6C375.3,577.8,370.4,573.3,365.5,567.8 M530.5,648.8c-5.9,5.4-6.9,12.5-7,19.9
	c0,0.9,0.4,1.8,0.6,2.6c0.7-0.4,1.8-0.8,2.3-1.5C530.8,663.3,530.8,655.8,530.5,648.8 M260.5,603.8c-0.5,0.2-1,0.3-1.3,0.6
	c-0.9,0.8-1.7,1.7-2.6,2.6c1.2,0,2.6,0.3,3.7-0.1c2-0.6,3.9-1.6,5.8-2.6c2.2-1,4.3-2,6.4-3.1c-2.3-1.1-4.7-2-6.9-3.3
	c-2.1-1.1-3.2-1.1-3.2,1.8C262.3,600.8,261.1,601.8,260.5,603.8 M282,464.3c0.9,0.6,1.9,1.1,2.7,1.8c2,1.6,3.9,3.5,6,4.9
	c0.8,0.5,2.2,0.2,3.3,0.3c0-0.4,0-0.9-0.2-1.1c-3.6-3.6-7.1-7.4-10.9-10.7c-0.6-0.6-2.8,0.8-4.3,1.2
	C279.5,461.8,280.5,462.8,282,464.3 M577,594.3c-1.7-2.6-3.1-5.3-5-7.8c-0.6-0.6-3.1-0.9-3.4-0.4c-2.2,3.3,1.2,11.1,5.1,11.9
	c1.5,0.2,3.1-0.7,4.7-1.1C578.1,596.2,577.8,595.5,577,594.3 M391,577.3c2.1,0,4.3,0.3,6.4-0.1c1.1-0.2,2-1.5,3-2.3
	c-1.1-0.5-2.1-1.4-3.2-1.5c-2.9-0.4-5.9-0.7-8.8-0.5c-1.3,0.1-2.6,1.4-3.9,2.1c1.1,0.5,2.3,0.9,3.4,1.3
	C388.6,576.6,389.3,577,391,577.3 M661,573.3c-0.5,1.6-1.4,3.2-1.4,4.9c-0.1,1.6-1.6,4.2,2.4,4.3c3.4,0.1,3.9-1.3,3.4-3.9
	c-0.3-2-0.7-4-1.3-5.9C664.1,572.5,662.4,572.8,661,573.3 M382,568.3c0.1-0.1,0.2-0.2,0.3-0.3c0-0.1,0-0.3-0.1-0.4
	c-2.8-1.5-5.6-3.1-8.5-4.5c-0.9-0.4-2-0.3-3.1-0.4c0.3,1,0.3,2.1,0.8,3C373.7,569.9,377.4,570,382,568.3 M375.5,516.8
	c-1.5-1.7-2.8-3.5-4.3-5.1c-0.4-0.5-1.6-0.2-2.3-0.3c0,0.7,0,1.5,0.2,2.1c0.7,1.7,1.5,3.4,2.4,5c0.7,1.3,1.7,2.5,2.5,3.8
	C374.5,520.8,375,519.3,375.5,516.8 M346.5,491.8c-1.3-0.9-2.6-1.9-3.9-2.7c-0.2-0.1-0.8,0.4-1.1,0.6c2.2,2.6,4.4,5.4,6.9,7.9
	c0.4,0.4,2-0.5,3-0.7c-0.4-0.8-0.7-1.8-1.4-2.4C349.1,493.6,348,493,346.5,491.8 M237.5,519.8c-0.4,2.4-0.7,4.8-1,7.2
	c-0.1,0.4,0.3,0.9,0.4,1.3c0.4-0.3,0.9-0.6,1-1c0.9-3.4,1.8-6.8,2.5-10.3c0.1-0.7-1-1.7-1.6-2.5c-0.4,0.8-1,1.5-1.3,2.4
	C237.3,517.5,237.5,518.2,237.5,519.8 M313,478.3c-1.8-0.5-3.6-1-5.4-1.6c1.3,1.2,2.6,2.4,4,3.6c0.3,0.3,0.7,0.7,1.1,0.8
	c0.9,0,1.8-0.1,2.7-0.2C314.7,480.2,314.1,479.5,313,478.3 M286.5,472.8c-0.3-0.5-0.4-1.2-0.8-1.6c-0.8-0.7-1.7-1.3-2.7-1.9
	c-0.1,0.4-0.6,1-0.5,1.2c0.6,0.9,1.3,1.7,2.1,2.5C284.9,473.2,285.5,473.2,286.5,472.8 M389,582.3c0.4-0.2,0.8-0.4,1.3-0.6
	c-1.2-0.5-2.3-1.1-3.4-1.3c-0.7-0.2-1.6,0.2-2.3,0.3c0.6,0.4,1.2,0.7,1.8,1.1C387.1,582.1,387.8,582.5,389,582.3 M206,542.3
	c-0.2,0.2-0.3,0.4-0.4,0.6C205.9,542.9,206.2,542.9,206,542.3"/>
<path d="M962.7,1087.1c-13.4-0.1-26.5,0.2-39.6,0.2c-16.4,0.1-32.7,0-49,0.1c-47.1,0.2-94.1,0.6-141.1,1
	c-14.3,0.1-28.5,0.6-42.8,0.9c-15.3,0.4-30.7,0.8-46.1,1c-24.2,0.4-48.4,0.5-72.5,1.1c-12.1,0.3-24.2,1.3-36.2,1.9
	c-13,0.7-25.9,1.1-38.9,2.1c-23.5,1.8-47.1,3.5-70.7,3c-10-0.2-20.1,0.8-30.1,0.9c-21.1,0.1-42.1,0.2-63.2,0
	c-11.9-0.1-23.8-0.6-35.7-1c-18.6-0.6-37.1-1.5-55.7-1.9c-25.2-0.6-50.4-0.6-75.6-1.1c-25-0.5-50.1-1.3-75.1-2
	c-9.1-0.2-18.1-0.7-27.1-0.9c-5.8-0.2-11.5,0.1-17.2-0.1c-7.9-0.2-15.7-0.5-23.6-1c-5-0.3-7.7-4.9-6.7-9.9
	c1.2-6.4,2.5-12.9,2.5-19.4c0.1-14.2-0.6-28.4-0.8-42.6c-0.2-11.1,0.1-22.3-0.1-33.5c-0.2-12.2-1-24.4-0.8-36.6
	c0.2-16.7,1.6-33.5,1.7-50.3c0.1-13.4-1.5-26.8-1.7-40.2c-0.2-10.8,0.5-21.7,0.9-32.6c0.1-6.3,0.2-12.6,0.5-18.8
	c0.4-8.2,1.1-16.3,1.4-24.5c0.1-2.2-0.9-4.4-0.9-6.6c0.2-4.5,0.6-9,1-13.5c0.5-5.5,1-10.9,1.7-16.3c0.2-1.4,1.4-2.8,2.3-4.1
	c0.2-0.3,1,0,1.5-0.1c15.3-0.3,30.7-0.6,46-0.9c3.8-0.1,7.6-0.1,11.4,0c14.9,0.3,29.7,0.7,44.6,0.9c7.9,0.2,15.8-0.3,23.6,0.1
	c14.5,0.7,28.9,2.3,43.3,2.8c10.2,0.3,20.5-0.7,30.8-0.8c15.9-0.2,31.9-0.2,47.8,0c11.9,0.1,23.8,0.6,35.8,1
	c5.9,0.2,11.8,0.9,17.7,0.9c43.3-0.2,86.5-0.7,129.8-0.9c12.7-0.1,25.4,0.9,38.1,0.9c61.6-0.2,123.3-0.6,185-1
	c6.1,0,12.2-0.9,18.3-0.9c11.4,0.1,22.7,0.8,34.1,0.9c6.1,0,12.2-0.8,18.2-0.9c7-0.2,13.9-0.2,20.9,0c9.7,0.2,19.4,0.7,29.1,0.9
	c9.4,0.2,18.8,0.2,28.2,0c16.7-0.2,33.3-0.7,50-0.9c23.1-0.4,46.1-0.7,69.1-1.1c11.1-0.2,22.2-0.6,33.3-1c3.9-0.1,7.7-0.8,11.6-0.9
	c6-0.2,11.5,5.3,11.7,11.5c0.4,8.5,0.6,17,1.1,25.5c0.9,15.3,2,30.6,2.9,45.8c0.8,11.1,1.4,22.1,2,33.2c0.8,13.2,1.3,26.4,2.1,39.6
	c0.9,14.6,2,29.2,2.9,43.8c0.7,10.4,1.4,20.8,2.1,31.2c0.6,9.8,1.4,19.5,1.9,29.3c0.8,13.2,1.4,26.5,2,39.7
	c0.4,7.5,1.1,14.9,0.9,22.4c-0.1,6.6-1.1,13.1-2.1,19.6c-0.6,3.4-3.5,3.5-6.5,3.4c-4.7-0.2-9.4-0.2-14.1,0
	c-6.3,0.1-12.6,0.5-18.9,0.7C974.1,1087.3,968.5,1087.3,962.7,1087.1 M209,937.3c0.1-0.3,0.3-0.6,1-1c0.1-0.3,0.3-0.6,1-1
	c4.8-4.4,10.1-8.3,14.3-13.3c7-8.2,13.2-17.1,19.6-25.7c1.5-2,2.4-4.3,3.5-6.5c-2,1.3-4.4,2.3-5.8,4.1c-7.5,9.1-14.9,18.4-22.1,27.7
	c-3.5,4.4-6.7,9.1-10.5,13.7c-0.2,0.4-0.4,0.7-1,1c-0.2,0.4-0.4,0.7-1,1c-0.1,0.4-0.1,0.7-0.1,1C208.1,938,208.3,937.7,209,937.3
	 M209,940.3c-1.2,1.4-2.4,2.7-4,4c-0.5,0.4-1.1,0.8-1.5,1.2c-0.1,0,0.2,0.5,0.3,0.7c0.6-0.6,1.1-1.2,2.2-1.9c1.1-1.3,2.3-2.6,4-4
	c0-0.3,0-0.6,0-0.9C209.8,939.7,209.6,940,209,940.3 M225,907.3c-1.9,2.7-3.7,5.4-6,8c-0.1,0.4-0.1,0.7-0.1,1c0.2-0.3,0.4-0.6,1.1-1
	c1.8-2.6,3.6-5.3,6-8c0-0.3,0-0.6,0-0.9C225.8,906.7,225.6,907,225,907.3 M326.5,868.8c0.3,0.1,0.6,0.1,0.9,0.1
	c-0.3-0.2-0.6-0.4-0.9-1.1c-0.4-0.8-0.6-1.7-1.1-2.5c-0.3-0.7-0.9-1.3-1.3-2c-0.6,0.8-1.5,1.5-1.5,2.3c-0.1,0.9,0.3,2.2,0.9,2.6
	C324.2,868.7,325.5,868.3,326.5,868.8 M245.5,912.8c-0.7,0.7-1.6,1.3-2.1,2.2c-0.5,0.8-0.6,2-0.8,3c0.6,0.1,1.4,0.5,1.7,0.3
	c0.9-0.6,2-1.4,2-2.2c0.2-1.2-0.5-2.5-0.8-4.3c1.6-3.5,3.3-7,5.5-10.5c0-0.3,0-0.6,0-0.9c-0.2,0.3-0.4,0.6-1,0.9
	c-2.2,1.9-4.8,3.4-6.4,5.6C242.4,908.7,239.7,912.3,245.5,912.8 M677.5,1015.8c-0.4,0-0.7,0-1,0c0.3,0.2,0.6,0.4,1,1
	c0.3,4.3,0,8.7,1.2,12.7c0.6,1.9,4.2,2.7,6.5,4.1c0.8,0.4,1.6,0.9,2.4,1.4c0.8,0.4,1.6,0.9,2.4,1.3c0.1-1.2,0.5-2.6,0.1-3.7
	c-1-2.7-2.4-5.3-3.6-8C684.6,1020.7,682,1017.4,677.5,1015.8 M259.5,909.8c-5-2-4.1,5.2-8,5.1c-0.6,0-1.2,1.1-1.8,1.7
	c0.4,0.2,0.8,0.7,1.1,0.7c3.3-0.1,7.4,1.1,7.7-4.3c0-0.2,0.7-0.4,1.1-0.7c0,0.5-0.2,1.1-0.1,1.6c0.6,3.1,1.5,6.2,1.9,9.3
	c0.3,2.9,0.2,5.8,0,8.7c-0.2,5.4-1,10.8-0.8,16.2c0.2,3.5,2.2,6.8,2.8,10.3c3,16,12.6,29.5,30.6,31.9c3.2,0.5,6.6,0.1,9.6,1.2
	c6.4,2.2,11.4-0.3,16.1-4c3.7-2.9,6.7-6.8,10.6-9.3c5.7-3.7,8.2-9.1,10.1-14.9c3.1-9.4,6-18.8,8.9-28.3c0.2-0.7,0-1.6,0-2.3
	c-0.8,0.2-1.6,0.5-2.4,0.7c-1.8,0.7-3.6,1.1-5.2,2c-5,2.5-11.5-1.3-16,3.8c-0.7,0.8-3.5,0.9-3.3-2.3c0.1-2.7,0.2-6-1.1-8
	c-4.5-6.7-5.4-13.8-4.9-21.5c0-1.4-1.1-2.9-1.7-4.3c-0.7,0.3-2,0.5-2.2,1c-1.8,4.9-2.9,10.1-5.1,14.8c-4.2,8.8-11.7,13.9-21,15.3
	c-10.6,1.6-21.8-8.7-23.1-19.8C263.1,912.8,263.7,908.8,259.5,909.8 M301.5,849.8c1.2,0.9,2.4,2.1,3.8,2.5
	c9.8,2.7,20.1,4.2,25.3,14.7c0.3,0.6,1.3,0.9,1.9,1.3c0.3-0.7,0.9-1.5,0.9-2.3c0.4-5.3-6.8-13.7-12.8-14.6c-6.3-1-12.8-1.4-19.1-2.6
	c0-0.3-0.1-0.9,0-1c7-4.1,20.5-2.5,26.8,1.7c2.4,1.6,5.5,2.5,8.3,2.7c6.5,0.5,13.1-0.4,19.6,0.5c9.7,1.4,19.4,2.1,28.5-1.3
	c13.6-5.1,26.8-11.1,40-16.9c4.8-2.1,6.7-1.5,7.7,3.6c0.3,1.4-0.1,3,0.1,4.5c1.2,8.3,2,16.7,3.8,24.9c2.3,10.5,5.4,20.8,8.2,31.1
	c0.2,0.9,0.8,1.7,1.2,2.5c0.6-0.8,1.4-1.4,1.7-2.3c1.5-4,2.4-8.4,4.4-12.2c6.4-12.2,13-24.3,19.8-36.3c0.9-1.7,3.2-3.5,5-3.7
	c1.3-0.1,3.3,2.1,4.2,3.7c4.4,7.6,10.4,14.2,18.4,16.7c10.8,3.4,22.2,4.9,33.5,6.2c11.8,1.3,23.1,3.8,33.9,8.7
	c3.9,1.7,8.6,3.7,12.5,3c7.6-1.4,14.8-5.2,22.5-7c12.1-2.9,24.7-3.8,37-1.4c12.7,2.6,25.1,7,37.7,10.1c8.1,2,16.4,4.6,24.6,4.4
	c11-0.3,22.4-0.6,33.1-4.6c4.8-1.7,6.6,0,6.4,5.4c-0.1,1.8-0.4,3.7-1,5.5c-3.6,12-6.4,24.4-11.2,35.9c-3.4,8.1-4.3,15.1-1.2,23.4
	c4.6,12.3,6.4,25.2,2.5,38.3c-3.1,9.9-7.6,19.3-7.3,30.1c0.1,3.5-1.8,7.2-7,7.5c-5.1,0.3-10.2,1.9-15.3,2.8
	c-0.7,0.1-1.6-0.8-2.4-1.3c0.7-1.2,1.2-3.2,2.2-3.5c3.1-1.1,6.4-1.5,9.6-2.2c2.9-0.5,5.7-0.7,6.3-4.8c0.5-4.6,1.5-9.3,2.9-13.7
	c3.1-9.3,7.4-18.2,6.2-28.3c-0.6-5.6-0.8-11.5-2.7-16.8c-3.1-8.7-6.8-17-2.5-26.3c1.8-4,4.2-7.9,5.4-12.2c2.8-9.2,5.2-18.5,7.5-27.9
	c0.8-2.9-0.3-4.3-3.8-4c-11.2,0.8-22.3,4.6-33.8,2.1c-9.7-2.1-19.8-2.8-29.2-5.7c-15.4-4.6-30.8-10.1-47.1-9.1
	c-11.2,0.7-22.3,3.7-33.5,5.8c-0.6,0.2-1.1,1.8-1.4,2.8c-0.1,0.1,1.2,0.8,2,1.1c2.7,1.1,6.1,1.4,8.1,3.2
	c9.9,8.6,19.5,17.6,28.9,26.7c0.9,0.9,0.2,3.5,0.2,5.3c-1.7-0.1-3.9,0.3-5.1-0.6c-2.5-1.8-4.5-4.4-6.8-6.6
	c-11.3-10.7-23.1-20.3-37.5-27.3c-20.7-10.1-42.7-13-64.7-16.6c-13.6-2.2-25.4-6.6-32.3-19.5c-0.2-0.3-1.8-0.2-2,0.1
	c-6.5,12.4-13.3,24.7-19.3,37.4c-2.9,6-5.4,12.6-2.7,19.6c2.4,6.2,5.3,12.3,6.9,18.7c2.2,8.5,5.5,17.6,4.6,26
	c-1.6,16-5.5,31.8-13.4,46.2c-2.7,5-1.1,7.6,4.5,7.4c5.1-0.3,9.1,1.7,12.3,5.4c6.2,7.3,13.5,12.9,22.8,16c3.1,1,5.2,0.4,6.1-1.8
	c2.1-5.1,4.8-10.5,5-15.8c0.3-10,6.8-15.5,12.7-21.8c2.6-2.8,5.7-5.4,7.2-8.8c0.7-1.6-1.9-4.6-3-7c-2-4.5-3-9.4-0.4-13.7
	c4.5-7.7,12.6-6.9,17.4,1.9c2.3,4.2,4.4,4.3,8.1,2.7c6.6-2.9,13.6-4.9,20.1-8.2c6.9-3.5,13.7-2.8,21.1-2.1c11.4,1,22.7,1.5,33.5,6.1
	c4.9,2.1,9.9-0.2,12.6-4.8c3.5-6.2,13.6-7.3,16.8-1.3c1.6,3.2,0.2,8,0.1,12c0,1.4-1.1,3.2-0.5,3.9c2,2.7,4.2,5.3,6.8,7.3
	c6.8,5,15.1,8.8,17.7,17.8c1.8,6.4,4.3,11.1,11.6,13.5c10.8,3.6,11,14.4,13.3,23.5c0.2,1.1,0.6,2.5,1.5,3.2c6,4.8,13.5,4.9,20.4,4.7
	c8.7-0.2,17.6-1.9,26.1-4.2c14-3.9,27.6-9.2,41.5-13.2c13.6-3.9,27.3-8.1,41.3-9.9c12.1-1.5,24.7,0.1,37,0.7
	c16.6,0.9,32.5-1,47.5-8.7c16.4-8.5,31.8-19.1,49.4-25.5c15.5-5.5,31.3-7.8,47.6-6.9c0.6,0,1.8-0.7,1.8-1c-0.9-10.9-2-21.8-2.9-32.6
	c-1.1-13.8-2.2-27.5-3-41.3c-0.8-13.9-1.4-27.8-2.1-41.6c-0.2-4.7-0.6-9.4-0.9-14.1c-1-14.6-2.2-29.2-3-43.8
	c-0.8-14-1.2-28.1-2.1-42.2c-0.5-7.1-3.4-10.8-11.3-10.4c-12.8,0.5-25.7,0.8-38.5,1c-22.9,0.4-45.8,1-68.6,1
	c-89.7,0.1-179.4,0-269,0.1c-21.9,0-43.7,0.7-65.6,0.9c-22.8,0.2-45.7,0.2-68.5,0c-17.9-0.1-35.7-0.9-53.6-0.9
	c-29.5,0.1-59,0.7-88.6,0.9c-10,0-20-0.8-30.1-0.9c-18.7-0.2-37.4,0.1-56.1-0.1c-18.9-0.2-37.8-0.4-56.6-1
	c-16.8-0.7-33.5-2.1-50.3-2.9c-5-0.2-10.1,0.9-15.2,0.9c-8.4-0.1-16.7-1-25.1-0.9c-22.5,0.2-45.1,0.7-67.6,0.9
	c-3.7,0-4.9,1.8-5.2,4.7c-0.5,4.7-0.8,9.4-1,14.1c-0.4,8.7-0.7,17.4-1,26.1c-0.4,10.7-0.8,21.4-1,32.1c-0.2,8.4-0.2,16.8,0,25.2
	c0.2,11.6,0.9,23.2,0.9,34.9c-0.1,17.9-0.6,35.7-0.9,53.6c-0.1,3.7,0.1,7.4-0.1,11.1c-0.2,7-1,14-0.8,21c0.1,7.4,1.6,14.7,1.8,22.1
	c0.5,23.9,0.7,47.8,1.1,71.6c0.1,4.7,0.4,9.4,1,14.1c0.4,3.3,2.6,5.2,6.1,5.4c10.7,0.7,21.5,1.5,32.3,2c12.4,0.5,24.7,0.7,37.1,1
	c23.4,0.7,46.9,1.4,70.3,2c16.4,0.4,32.8,0.7,49.1,1.1c25.6,0.6,51.1,1.2,76.7,2c7.2,0.2,14.4,0.8,21.6,0.9c20.2,0.1,40.5,0,60.8,0
	c0.6,0,1.6-0.4,1.6-0.7c0.5-5.9-7.5-11.6-12.9-9.3c-4.7,2.1-7.8,0.9-9.7-3.3c-2.8-6.4-5.8-12.6-8.9-18.9c-0.4-0.8-1.7-1.7-2.6-1.7
	c-8,0.2-16-0.9-23.9,2.5c-4.3,1.9-9.6,2.3-14.4,2c-12.5-0.8-25-2.2-37.4-3.6c-12-1.3-22.4-7.1-33.2-11.7c-4.2-1.8-8.7-3.7-13.2-4.1
	c-7.4-0.7-14.9-0.2-22.4-0.2c-11.7,0-23.4-0.5-35.1,0.2c-8.9,0.5-17.6,2-25.4,7.5c-7.4,5.3-15.6,9.5-23.7,13.9
	c-9.6,5.3-20.4,4.9-30.7,5.2c-12.2,0.3-24.5-1.3-36.7-1.6c-6.7-0.2-13.5,0.6-20.3,0.8c-1,0-2.1-1-3.1-1.6c0.9-1.1,1.8-3,3-3.2
	c3.6-0.7,7.3-1.1,11-1.1c7.2,0.1,14.3,0.8,21.4,0.9c11.3,0.2,22.5-0.3,33.7,0.1c10.5,0.4,19.3-3.8,27.9-8.7
	c9.5-5.3,18.5-11.8,28.5-15.9c6.5-2.7,7.9-7.1,8.4-12.5c0.8-10.6,7-18.5,13.6-25.8c6.3-6.9,14-12.3,23.7-14c1.3-0.2,2.5-1.4,3.8-2.2
	c-1.3-0.5-2.6-1-3.8-1.7c-0.8-0.4-1.5-1-2.1-1.7c-0.2-0.2,0.3-1,0.5-1.6c2.2,1.3,5.4-3.6,7.2,1.2c0.3,0.6,2.7,0.8,3.9,0.5
	c2.2-0.6,4.3-1.7,6.4-2.7c0.9-0.4,1.7-1.2,2.5-1.8c-1-0.4-2.1-1.3-3-1.1c-6.5,1.4-12.9,0.1-19.3-0.2c-2.2-0.1-4.2-1.6-6.3-2.5
	c1.6-1.3,3.1-2.9,4.9-3.7c8.4-3.9,17.3-6.8,25.1-11.6c5.6-3.5,9.8-9.3,14.5-14.2c0.8-0.9,0.7-2.5,1.1-3.7c-1.1,0.6-2.3,1-3.1,1.9
	c-4.8,4.6-8.7,10.6-14.3,13.7c-10.9,5.9-22.6,10.4-34.2,15.1c-2.2,0.9-5.2,0-7.8-0.1c2-1.6,4-3.2,6.1-4.7c0.7-0.5,1.7-0.7,2.6-1.1
	c7.5-2.6,15.3-4.7,22.6-8.2c12.3-5.8,20.8-16,27.3-27.7c2.1-3.7,2.9-8.1,4.1-12.3c0.2-0.5-0.2-1.2-0.5-1.7c0-0.1-1.1,0-1.3,0.3
	c-1.1,1.7-2.1,3.5-3.1,5.2c-2.9,4.5-5.4,9.2-8.6,13.4c-8.1,10.5-19.6,16.4-31.3,22.2c-7.2,3.5-16.3,3.6-21.3,11.4
	c-0.7,1.1-2.3,1.6-3.4,2.4c0.1-1.7-0.2-3.5,0.2-5.1c1.9-6.3,7.7-8.2,12.8-10.9c5.6-3,11.1-6.3,16.5-9.5c0.6-0.3,0.7-1.3,1-2
	c-0.8-0.2-1.7-0.6-2.3-0.4c-1,0.3-1.9,1.2-2.8,1.6c-4,1.8-7.8,4.2-11.9,5.1c-3,0.6-5.6,0.9-7.7,3.4c-0.8,0.9-2.4,1.2-3.7,1.8
	c-0.1-1.5-0.6-3.1-0.3-4.6c0.2-1.1,1.1-2.3,2.1-3.1c5.6-4.8,10.7-10.7,17.1-14c19-9.9,29.4-27.1,40.5-43.9
	c5.9-8.9,12.3-17.2,20.9-23.7c1.2-0.9,2.1-2.1,3.1-3.1c-1.4-0.2-2.8-0.7-4.2-0.5c-5.1,0.9-10.2,1.9-15.3,3c-1.8,0.3-3.6,0.9-5.4,1.4
	c1.7,1,3.7,1.8,5,3.2c1.2,1.4,1.8,3.4,2.7,5.1c-1.7,0.1-3.6,0.9-5,0.3c-4.3-1.8-8.4-4-12.5-6.1c-11.8-6-24.2-6.4-37.2-5.2
	c-12.8,1.3-25.8,0.9-38.7,1.2c-1.7,0.1-4.6-0.3-4.8,0.4c-0.7,1.6-0.3,3.7-0.1,5.6c0.5,5.1,2,10.4,1.3,15.3c-0.8,4.8-3.7,9.4-5.8,14
	c-3.7,8.3-7.9,16.4-11.4,24.8c-6.3,15.3-8.9,31.4-4.3,47.4c4.2,14.8,10.5,28.9,15.7,43.4c1.6,4.6,4.2,4.5,8.2,3.7
	c4.5-1,9.2-1.3,13.9-1.4c1.3-0.1,2.6,1.4,4,2.2c-1.5,1.2-2.8,2.7-4.4,3.5c-1.4,0.7-3.2,0.5-4.7,0.7c-6.2,0.8-12.4,1.8-18.6,2.4
	c-2.9,0.3-4.5-1-4.5-4.4c0.1-3.5-0.2-7.2-1.4-10.4c-3-8.2-7.1-16.1-10-24.3c-5.4-15-8.9-30.7-5.2-46.4c2.8-11.8,7.5-23.2,12.4-34.3
	c4.4-10.3,10.6-19.8,9.4-31.6c-0.4-3.2-1-6.4-1-9.6c0.1-8.5,2.8-10.4,10.6-7.8c1.2,0.4,2.4,0.8,3.6,0.8c11.9-0.3,23.8-0.6,35.6-1
	c0.7,0,1.3-0.2,1.9-0.2c10.5-1.1,20.9-1.8,31.2,1.6c3.9,1.2,8.3,1.9,12.3,1.5c7.9-0.8,15.7-2.2,23.4-3.9c5.7-1.3,11.8-0.5,17.3-4.1
	c3.6-2.3,8.5-3.3,12.9-3.7C288,848.9,294.7,849.3,301.5,849.8 M560,1040.3c-3.2,1.2-6.6,2.1-9.6,3.6c-14,7.2-27.9,14.7-41.9,21.9
	c-7.6,3.8-15.1,7.8-23,10.8c-5.1,1.8-10.9,2-16.4,2.7c-4,0.5-8.2,1.6-12,0.8c-8.2-1.7-16.1-4.5-24.2-6.7c-1.3-0.4-2.9,0.2-4.3,0.3
	c0.8,0.9,1.7,1.9,2.5,2.8c0.3,0.3,0.5,0.6,0.8,0.7c4.9,3.1,8.5,7.1,8.6,13.4c0.1,0.6,1.3,1.7,2,1.7c10.9-0.3,21.7-0.5,32.6-1
	c11.5-0.5,23.1-1.3,34.7-2c6.8-0.3,13.7-0.6,20.5-1c12.1-0.6,24.1-1.6,36.2-1.9c25.5-0.5,51.1-0.7,76.6-1.1
	c14.3-0.2,28.7-0.7,43.1-1c17.5-0.3,35-0.7,52.5-0.9c38.4-0.4,76.8-0.7,115.1-1.1c36.7-0.3,73.3-0.6,109.9-1
	c15.4-0.2,30.8-0.6,46.1-1.1c1.3,0,3.4-1.6,3.5-2.6c0.7-5.9,1-11.7,1.1-17.6c0.1-3.7-0.6-7.3-0.8-11c-0.4-10.4-0.6-20.8-1.2-31.2
	c-0.5-10.4-1.5-20.7-1.8-31.2c-0.1-3.2-1.5-4-4.2-4.3c-17.8-1.5-34.5,2.3-50.3,10.1c-11.8,5.8-23.2,12.5-34.8,18.6
	c-10.5,5.5-21.5,10.3-33.3,11.1c-11.5,0.8-23.1-0.2-34.6-0.8c-17.9-0.9-35.3,1.2-52.2,6.8c-12.7,4.3-25.2,9.2-38.1,12.9
	c-11,3.2-22.4,4.9-33.5,7.4c-9.5,2-19,1.7-28-1.7c-9-3.3-17.4-7.9-26.1-11.8c-12.4-5.6-25.4-9.4-39.1-9.5c-7.5,0-15.1,0.2-22.5,1.1
	c-8.9,1-17.9,2.4-26.6,4.6C578.2,1033.5,569.4,1036.9,560,1040.3 M363.5,911.8c3.5,5.3,3.3,11.4,2.9,17.3
	c-0.7,8.7,6.1,15.4,12.8,17.5c1.5,0.5,2.8,2,4.3,3c-1.9,0.6-3.8,1.3-5.7,1.7c-0.7,0.1-1.6-0.2-2.3-0.4c-6.4-2-10.2-6.5-12.6-12.5
	c-0.3-0.8-1-1.4-1.5-2.1c-0.7,1-2.1,2.3-1.8,3c2.2,5.5,4,11.2,9.2,15.2c4.3,3.3,8.3,0.3,12.3,0.9c0.8,0.1,1.6,0.6,2.4,0.9
	c-0.5,0.7-0.8,1.6-1.5,1.9c-8.5,4.8-19.5,3.9-22.6-7.3c-0.2-0.8-0.6-1.5-1-2.1c-0.5-1.1-1.2-2.1-1.8-3.1c-0.7,1.3-2,2.7-2.1,4.1
	c-0.6,8.5,6,15.5,14.3,15.5c1.2,0,2.4-0.2,3.5,0.1c0.8,0.2,1.7,1,2,1.8c0.2,0.3-0.5,1.5-1.1,1.8c-1.2,0.7-2.6,1.1-4,1.3
	c-7,1.3-12.3-1.2-15.8-7.5c-0.4-0.7-1.5-1-2.3-1.5c-0.2,0.6-0.6,1.1-0.6,1.7c-0.1,7.6,6.4,14.3,13.9,14.3c1.4,0,2.7-0.1,4,0.1
	c1.1,0.2,2,0.9,3,1.4c-0.8,0.8-1.4,1.9-2.4,2.4c-6.4,3-18-1.8-20.6-8.5c-0.4-1.1-1-2.2-1.5-3.4c-0.5,1.5-1.5,3-1.3,4.4
	c0.2,1.6,1.1,3.6,2.3,4.4c4.2,2.7,8.4,6.3,13,7c12.3,1.9,20.8,8.7,27.5,18.4c6.1,8.6,11.8,17.4,17.9,26c0.7,1.1,2.8,1.8,4.2,1.7
	c6.5-0.4,13.1-1.1,19.6-2c1.2-0.1,2.7-1.4,3.3-2.5c3.5-6.4,6.9-12.8,10-19.4c5.6-11.7,10.6-23.8,12.9-36.6c1.8-9.9,2.6-20-1.7-29.8
	c-5.3-12-9.9-24.3-15.2-36.2c-8.4-18.8-11.6-38.8-14.7-58.8c-0.8-4.9-2.2-4.4-5.4-2.9c-10.1,4.5-20.3,8.8-30.4,13.4
	c-8.3,3.8-17,4.6-25.9,3.9c-7.9-0.7-15.8-1.9-23.7-3c-2.5-0.3-3.2,0.5-1.8,2.6c1.9,3-0.8,7.2,3.7,10c7.8,4.8,16.3,9.7,16.3,20.9
	c0,1.2,0.6,2.5,1.4,3.4C363,899.1,363.8,904.8,363.5,911.8 M289,1057.3c2.4,0.2,4.9,0.4,7.3,0.4c4.8,0,9.6,0.1,14.4-0.2
	c10.7-0.5,20.8-5.4,31.8-4.2c3.4,0.4,5.7,0.4,2.7-3.9c-1.2-1.6-2.1-3.8,1-5.4c3.1-1.7,3.9,0.5,5.2,2.3c0.5,0.6,0.7,1.3,1.1,2
	c3.6,7.9,7.2,15.7,11,23.5c2.4,5.1,4.4,5.8,9.9,4.1c6.1-1.9,12.2-3.5,18.2-5.6c5.8-2.1,11.6-4.3,17.1-7.1c2.8-1.5,5.9-4,3.8-8.4
	c-2.1-4.1-3.6-8.6-6.2-12.4c-4.1-6.1-10.6-10.7-11.2-18.9c-0.1-0.5-1-0.9-1.4-1.4c-3.8-4.8-7.7-9.4-11.3-14.3
	c-7.6-10.5-17.8-16.1-30.7-17.6c-2.5-0.3-4.8-2.8-7.1-4.3c-0.8-0.5-1.6-1-2.3-1.6c-0.2,1-0.7,2-0.5,2.8c2,7.1,4,8.3,11.4,7.3
	c1.3-0.1,2.7,0.7,4,1.3c0.1,0,0.1,1.2-0.2,1.6c-1.8,2-11.2,2.8-13.8,1.3c-5.2-3.2-7.3-9.1-5.8-15.8c0.2-1-0.1-2.2-0.4-3.3
	c0-0.2-1.6-0.4-1.8-0.1c-2.3,3.3-5.5,6.4-6.5,10.1c-1.3,4.8-0.6,10.2-1.3,15.2c-1,6.5-1.6,13.1-6.9,18.1c-10.7,10-23.4,11.8-37,9
	c-10.5-2.3-19.5-7.4-23.7-17.8c-2.5-6.2-6.1-12.2-5.4-19.4c0.1-1.2-0.7-2.6-1.1-4c-1,0.8-1.9,1.6-2.9,2.3c-2.2,1.5-4.3,3.1-6.7,4.3
	c-0.8,0.5-2.1-0.2-3.2-0.3c0.6-1,0.9-2.4,1.7-2.7c9.9-4.3,12.3-15.3,19.6-21.9c0.5-0.4-0.2-2.1-0.3-3.2c-0.8,0.3-1.8,0.5-2.3,1.1
	c-2.7,3.3-4.9,7-7.8,10.1c-4.7,4.9-9.7,9.5-14.9,13.9c-1.1,1-3.3,0.9-5,1.1c-0.6,0.1-1.4-0.4-2-0.7c0.4-0.7,0.6-1.5,1.2-2
	c0.9-0.8,2-1.6,3.1-2.1c10-4.7,17.3-12.1,21.6-22.2c0.8-2,0.4-4.6,0.6-6.9c-1.2,1.9-2.4,3.9-3.5,5.8c-3.2,5.3-4,12-11.1,14.9
	c-6.8,2.9-15,2.4-20.6,8.2c-0.3,0.3-1.3-0.1-2,0.1c-5.7,1-11.6,1.4-17.1,3.3c-19.4,6.9-32.5,19.3-34.3,41c-0.2,3.2,0,4.9,4.3,4.8
	c11.4-0.4,22.9-0.3,34.4-0.1c6.9,0.1,9-0.4,8.6-8.2c-0.2-2.2,2.2-4.6,3.4-6.9c0.8,2.2,1.6,4.4,2.3,6.5c0.2,0.5,0.1,1,0.1,1.5
	c0,6.1,0.8,6.4,6.9,7.2c4.9,0.6,9.9,1.8,14.3,4c9,4.6,18.1,8.8,28,10.8C275.8,1055.5,281.9,1056.3,289,1057.3 M574.5,962.8
	c-1.6,0.3-3.3,0.3-4.8,0.9c-8.6,3.4-16.9,7.9-25.7,10.2c-4.9,1.2-8.2,3.4-11.3,6.7c-6.3,6.5-12.6,13-18.7,19.8
	c-2.5,2.9-6.1,6.4-6.2,9.7c-0.3,7.9-3.1,14.7-6.3,21.5c-0.5,1.1-0.5,2.3-0.8,3.5c1.3-0.4,2.8-0.5,3.7-1.3c4.9-4.1,9.7-4.2,15.4-1.7
	c4.8,2,9.7,2.5,13.4-2.8c0.9-1.2,3.3-1.6,5.1-1.9c3.6-0.5,7.3-0.7,11-1.1c6.7-0.6,13.5-1.3,20.3-1.9c0.6-0.1,1.2,0.2,1.8,0.4
	c-0.3,0.7-0.5,1.8-1,2c-2.9,1-5.9,2-8.9,2.5c-7.7,1.3-15.2,4.3-23.3,3.1c-0.8-0.1-2.2,0.8-2.8,1.6c-5.2,7.1-11.6,5.7-18.1,2.6
	c-3.8-1.8-6.8-0.7-10,1.3c-2.5,1.6-5.1,3.7-6.9-0.9c0,0-1.5,0.3-1.5,0.5c-0.1,1.5-0.3,3.2-0.1,4.7c0.8,4.1,1.8,8.2,2.6,12.4
	c0.5,2.5,0.9,5,1.3,7.5c2.3-1.1,4.6-2.3,6.9-3.4c1.2-0.6,2.5-1.1,3.7-1.8c10.4-5.5,20.6-11.5,31.2-16.4c10.2-4.7,20.8-8.7,31.5-12
	c9.9-3.1,20-5.7,30.1-6.9c11.5-1.4,23.2-1.5,34.7-1.1c7.7,0.3,15.3,2.3,22.9,4c2.9,0.6,5.5,2.5,8.3,3.8c-0.2-3.3-0.2-6.6-0.6-9.9
	c-0.1-0.8-1.4-1.8-2.2-2c-2.9-0.4-6-0.3-8.9-0.8c-9.2-1.5-18-5.4-27.9-1.5c-5.7,2.3-12.4,2.3-18.7,3.2c-1,0.1-2.1-0.3-3.2-0.5
	c0.8-1.1,1.4-2.5,2.5-3.4c0.7-0.6,2-0.8,3-1c4.4-1.1,8.8-2,13.3-3.1c7.5-1.8,15.1-3.5,22.9-1c4.7,1.5,9.6,2.6,14.5,3.7
	c1.1,0.3,2.4,0,3.7-0.1c-0.3-1-0.5-2.1-1-3c-1.2-2.5-3.2-4.8-3.8-7.4c-1.3-4.9-4.3-8.1-8.4-11c-6.8-5-13.2-10.7-20-15.8
	c-2.7-1.9-5.9-3.5-9.2-4.2c-4.9-1.2-10.3-0.7-15.1-2.3c-10.6-3.7-21.4-4.3-32.4-3.9C578.7,964.3,576.8,963.7,574.5,962.8
	 M475,1073.3c1.6-0.3,3.4-1,5-0.9c3.6,0.1,3.8-2.1,3.4-4.5c-1.5-8.5,0.9-16,5.1-23.2c1.7-2.9,3.4-4.9-2.1-6.7
	c-6.7-2.1-13.3-5.7-18.6-10.3c-5.7-4.8-10.3-10.5-18.7-10.4c-3.4,0.1-6.4-0.2-7.7,3.8c-0.6,1.9-1,4-2,5.6c-2.3,3.6-2.9,8.8-8.2,9.6
	c-3.9,0.6-8,0.7-12,1c-2.2,0.2-4.3,0.2-6.4,0.2c0.9,1.9,2,3.7,2.8,5.6c0.5,1.1,0.6,2.4,0.9,3.6c0.8,4.2,1.2,8.4,2.5,12.5
	c0.5,1.6,2.5,3,4,4.2c5.6,4.1,12,6.3,18.7,7.8C452.4,1073.7,463,1076,475,1073.3 M263.5,1007.8c2,3.4,3.4,7.3,6.1,9.9
	c10.1,10.3,22.4,11.7,35.9,8.1c6.4-1.6,11.6-4.5,13.7-10.9c1.4-4,1.5-8.4,2.3-12.6c0.5-2.5,1.4-5.1,1.9-7.6c0.2-1.1-0.3-2.2-0.4-3.3
	c-0.7,0.7-1.5,1.3-2.1,2c-2.5,3.1-5.5,4.3-9.4,4c-10.1-0.8-20.1-1.3-30.2-2.1c-1.1-0.1-2.3-1-3.2-1.8c-4.3-4.6-8.4-9.2-12.6-13.8
	c-0.5-0.4-1-0.9-1.4-1.4c-0.2,0.6-0.5,1.2-0.6,1.7C260.4,989,260.9,997.9,263.5,1007.8 M315,898.3c6.8,0.7,13.8,1.1,20.6,2.2
	c3.4,0.5,6.6,2.3,10,3.4c1,0.4,2.2,0.3,3.3,0.4c0-0.3,0.1-0.7,0-1c-1.1-5.5-9.4-11.1-14.7-10c-1.8,0.4-3.7,0.9-5.5,1
	c-1.4,0-2.8-0.7-4.2-1c1.1-1.3,2.1-3.5,3.5-3.8c3.8-0.8,7.7-0.8,11.6-1.2c0.9-0.1,1.9-0.6,2.9-0.9c-0.8-0.7-1.5-1.4-2.3-2
	c-1.6-1.3-3.6-2.3-4.9-3.8c-4.7-5.4-10-8.2-17.7-7.5c-11.5,1.1-22.2,3.8-31.8,10.4c-1.1,0.7-2.2,1.6-3.3,2.4
	c1.6,0.1,3.2,0.1,4.7,0.1c0.3,0,0.5-0.6,0.8-0.6c5.7-1.1,11.2-4.2,17.3-2c1.5,0.6,2.8,1.7,4.2,2.6c-1.6,0.8-3.1,2.3-4.6,2.2
	c-8.3-0.6-15.4,2.3-22.7,5.6c-5.3,2.4-11.6,2.7-15,8.3c-0.6,0.9-1.1,1.9-1.7,2.8c1.2-0.2,2.3-0.2,3.4-0.6c5.9-1.9,11.5-4.9,17.5-5.7
	C295.5,898.4,304.8,898.7,315,898.3 M423,1077.3c-2-2.6-4-5.3-6.1-7.9c-1.9-2.4-4.2-1.6-6.4-0.5c-2.4,1.1-4.6,2.5-7.1,3.4
	c-5.4,1.8-10.9,3.4-16.4,5c-2.3,0.7-3,1.6-2.1,4.1c1.4,3.6,2.4,7.4,3.6,11c0.2,0.5,1.2,0.9,1.8,0.9c14.5,0.1,28.9,0.1,43.4-0.1
	c0.3,0,1.2-1.7,1-2C431,1086.7,427.2,1082.3,423,1077.3 M281,906.3c-3,1.3-6,2.6-8.9,3.9c-3.1,1.4-4.2,3.3-2.8,7
	c3.4,8.5,13.8,16.6,25,8.8c1.5-1,2.8-2.2,4.2-3.2c0.6-0.4,1.2-0.7,1.9-1.1c-0.7-0.1-1.5,0-1.8-0.4c-1.5-1.9-3.5-3.8-3.9-6
	c-0.3-1.4,1.6-4.6,2.7-4.7c2,0,4.1,1.5,6.2,2.4c0.6,0.3,1.2,0.6,1.8,0.9c0.7-2.5,1.6-5,1.8-7.6c0.1-0.6-2.7-1.9-4.1-1.9
	C296,904.9,289,905.7,281,906.3 M351.5,915.8c0.2-4-1.5-6.6-5.6-7.5c-5-1-10.1-1.9-15.2-3c-9.3-2-9.5-2-9.2,7.2
	c0.2,6.7,2.7,13.1,8.1,16.6C337.5,934.3,353.2,929.5,351.5,915.8 M256.5,934.8c0.3-2,1.1-4.1,0.8-6c-0.2-2.2-1.1-5.9-2.3-6.2
	c-3.7-0.8-7.5-0.1-8.5,4.7c-0.7,3.2-1.6,6.3-2,9.6c-0.2,1.9-0.1,4.4,0.9,5.7c2,2.2,4.7,3.7,7.2,5.3c1.9,1.2,2.9,0.8,2.9-1.8
	C255.5,942.5,255.8,938.9,256.5,934.8 M294,870.3c-13.3,3-19.8,14.6-28.9,23c-0.7,0.6-0.8,2-1.1,3c-0.2,0.5-0.3,1.1-0.4,1.7
	c0.7-0.2,1.4-0.3,1.9-0.7c3.6-3,7.9-5.5,10.4-9.3c4.2-6.2,10.6-9,16.4-12.5c4-2.3,9.1-2.8,13.7-4.2c0.9-0.3,1.6-0.9,2.4-1.4
	c-0.8-0.5-1.6-1.5-2.3-1.4C302.4,869,298.7,869.7,294,870.3 M236.5,891.8c-0.3,0.6-0.5,1.2-0.8,1.7c-0.5,1-1.1,1.9-1.7,2.8
	c0.9-0.6,2-1,2.7-1.8c5.9-6.1,11.8-12.3,17.6-18.5c2.7-2.9,5.3-5.8,7.7-8.8c1.5-1.8,2.6-3.9,3.9-5.9c-2.4,1.1-5.2,1.7-7,3.3
	c-5.6,5-10.5,10.7-16,15.7C239.5,883.4,237.6,887,236.5,891.8 M232,972.3c-4.1,2.7-8.2,5.4-12.2,8.1c-0.5,0.3-0.9,0.9-1.3,1.4
	c0.5,0.2,1.1,0.5,1.7,0.5c1.1,0,2.2-0.4,3.3-0.5c9.1-0.9,14.1-7.9,19.6-13.9c2-2.2,2.5-5.9,3.2-9c0.3-1-0.8-2.3-1.2-3.4
	c-0.9,1-2.3,1.9-2.6,3.1C241.1,964.6,237.4,968.7,232,972.3 M267,867.3c-1.1,1-2.3,1.9-3.3,3.1c-0.8,1-1.4,2.3-2.2,3.5
	c1.3-0.3,2.7-0.3,3.8-0.9c4.3-2.5,8.2-6.2,12.8-7.5c5.1-1.4,8.3-4.7,11.7-8c0.5-0.5,1-1.2,1.6-1.8c-1-0.1-2-0.5-2.9-0.3
	c-3.1,0.9-6.4,1.5-9.1,3.1C275.2,860.9,271.4,864,267,867.3 M213.5,971.8c-0.7,1.1-1.3,2.1-1.9,3.1c0.7,0.2,1.7,0.7,2.2,0.4
	c8.8-4.6,18.2-8.5,22.6-18.4c0.5-1,0.5-2.2,0.7-3.4c-1.2,0.5-2.6,0.7-3.6,1.5C226.9,960.4,220.5,965.9,213.5,971.8 M490.5,1054.8
	c-0.7,2.3-1.8,4.5-1.9,6.7c-0.1,2.3,0.9,4.6,1.4,6.8c1.6-0.5,3.4-0.8,4.6-1.8c1-0.8,1.8-2.5,1.8-3.7c-0.1-3.2-0.5-6.4-1-9.6
	c-0.3-2.6-0.9-5.2-1.4-7.8c-1.2,2.6-2.4,5.3-3.5,7.9C490.4,1053.5,490.5,1053.7,490.5,1054.8 M215.5,921.8c0.2-0.4,0.3-0.9,0.5-1.4
	c-0.4,0.1-1,0-1.3,0.2c-2.6,2.2-5,4.7-7.7,6.7c-7.1,5.3-14.4,10.4-21.5,15.5c-0.6,0.5-1.1,1-1.6,1.4c0.7,0,1.6,0.1,2.3-0.1
	C197.7,939.4,208,933.1,215.5,921.8 M300,857.3c-4,2.3-7.9,4.4-11.7,6.8c-0.8,0.6-1,2-1.5,3.1c1.1,0,2.4,0.3,3.3-0.1
	c4.1-1.8,8.1-3.8,12.1-5.8c2.7-1.2,5.4-2.4,8-3.7C307,857.4,303.7,857.1,300,857.3 M276.5,875.8c-0.3-0.5-0.6-1-0.9-1.5
	c-2.4,1.9-4.7,3.8-7.2,5.5c-1.9,1.3-3.8,2.8-6,3.4c-2.8,0.9-10.1,6.7-10.8,9.6c-0.1,0.4,0.1,0.9,0.1,1.3c0.3-0.1,0.5-0.1,0.7-0.2
	C260.3,888.1,269.8,884.5,276.5,875.8 M530.5,975.8c2.2-4.6-0.8-7.5-3.6-10.5c-0.6-0.7-1.3-1.3-2-1.9c-0.5,1-1.5,2-1.4,2.9
	c0.5,2.8,1.6,5.7,1.9,8.5C525.7,979.6,527.1,980,530.5,975.8 M634.5,962.8c-1.2,5,3.8,4.6,5.8,6.8c0.8,1,1.8,1.8,2.8,2.6
	c0.1-1.3,0.3-2.5,0.3-3.8c0.1-0.8,0.3-1.7,0-2.5c-0.7-2.1-1.5-4.3-2.3-6.4C639,960.4,637,961.4,634.5,962.8 M336,875.3
	c3.2,2.6,6.4,5.2,9.7,7.7c0.6,0.4,1.8,0,2.6-0.1c-0.1-0.5-0.1-1.3-0.5-1.6c-4.2-3.4-8.4-6.7-12.7-9.9c-0.5-0.4-1.4-0.1-2.1-0.1
	c0.2,0.6,0.4,1.3,0.7,1.8C334.2,873.7,334.9,874.3,336,875.3 M311,861.3c-1.9,0.8-3.7,1.7-5.5,2.5c1.9,0.5,3.8,1,5.6,1.5
	c1.4,0.4,2.7,1,4.1,1c1.6-0.1,3.3-0.7,4.9-1.1c-0.2-0.5-0.3-1-0.7-1.4C317.5,861.3,315.2,859.9,311,861.3 M358.5,905.8
	c-0.4-1.3-0.5-2.8-1.1-4c-0.6-1.3-1.6-2.3-2.4-3.5c-0.5,1.5-1.4,2.9-1.4,4.3c-0.1,1.5,0.4,3.3,1.2,4.4
	C355.3,907.5,357.2,906.9,358.5,905.8 M252.5,959.8c0.6-0.7,1.6-1.3,1.9-2.1c0.5-1.9,0.7-3.9,1-5.9c-0.5-0.1-1.5-0.4-1.6-0.2
	c-1.1,2.1-2.3,4.2-3.1,6.4C250.5,958.6,251.5,959.6,252.5,959.8 M347.5,888.8c0.7,2.2,1.5,4.3,2.4,6.4c0.1,0.1,1.7-0.4,2.6-0.6
	C351.5,892.1,352.6,888.2,347.5,888.8 M202.5,971.8c2,2.5,3.3,0.5,4.7-0.7c0.4-0.4,0.7-0.9,1.1-1.4c-1.3,0.2-2.6,0.4-3.8,0.7
	C203.9,970.5,203.5,971,202.5,971.8 M242.5,975.8c0.3-0.3,0.6-0.6,0.9-0.9c-0.5-0.2-1-0.3-1.5-0.5
	C241.9,975.1,241.9,975.7,242.5,975.8 M357,914.3c-0.2,0.6-0.3,1.1-0.4,1.6c0,0.1,0.4,0.1,0.6,0.2
	C357.3,915.7,357.4,915.3,357,914.3"/>
<path d="M670.5,1492.3c-44.4,0-88.2,0-132,0c-22.9,0-45.8,0-68.7,0c-12.6,0-25.1,0.1-37.7,0c-42.4-0.3-84.8-0.7-127.2-0.9
	c-15.9-0.1-31.8,0.6-47.6,1c-7.2,0.2-14.3,0.9-21.4,0.9c-9.6-0.1-19.1-0.8-28.6-0.9c-7.3,0-14.5,1.1-21.8,0.8
	c-15.1-0.6-30.1-1.9-45.2-2.8c-4.2-0.3-8.4,0.2-12.5-0.1c-15-1.2-30-2.6-45-4c-4.2-0.3-8.4-0.7-12.6-0.9c-9.1-0.4-18.1-0.3-27.1-1.2
	c-9.2-0.8-18.2-2.6-27.4-3.8c-3.2-0.4-6.6,0-10-0.1c-3.3,0-5.7-2.8-5.2-6.1c1-7.5,2.4-14.8,2.9-22.3c0.7-11.2,0.7-22.4,1.1-33.6
	c0.6-16.9,1.2-33.8,2-50.6c0.5-9.8,1.3-19.5,1.9-29.2c0.8-11.8,1.4-23.6,2-35.4c0.8-14.6,0.9-29.3,2.1-44c3.4-39.9,2.9-80,3-120.1
	c0.1-8,1.2-16.1,2-24.1c0.6-6.4,3.2-8.3,10-7.5c14.4,1.6,28.7,2.8,43.2,1.1c9.5-1.1,19.1-0.9,28.6-1.1c18.9-0.4,37.9-1,56.8-1
	c18.8,0,37.7,0.7,56.6,0.9c10.1,0.2,20.3-0.1,30.5,0.1c15.3,0.2,30.7,0.6,46,1c7.9,0.2,15.8,0.9,23.6,0.9c40,0.1,80,0,120,0.1
	c4.5,0,8.9,0.8,13.3,0.9c3,0,6.1-0.9,9.1-0.9c18.5-0.1,37,0,55.5-0.1c8.1-0.1,16.3-0.9,24.4-0.9c16.4,0.1,32.7,0.7,49.1,0.9
	c9.7,0.2,19.4,0,29.2,0c40.3,0,80.6,0.3,121,0c26.5-0.3,53-1.2,79.5-2c19.9-0.5,39.9-1.3,59.8-2c18.5-0.6,36.9-1.3,55.3-2
	c8.1-0.3,16.1-0.7,24.1-1c9.9-0.3,19.8-0.5,29.6-1c3.3-0.2,6.6-0.8,9.8-1.6c6.3-1.6,10.9,1.7,11,8.2c0.3,17.5,1,35.1,0.9,52.6
	c-0.3,24.9-1.7,49.9-1.8,74.8c-0.1,16.3,1.5,32.6,1.8,48.9c0.1,12.4-0.7,24.8-0.9,37.2c-0.2,6.9-0.3,13.8,0,20.7
	c0.5,13.4,1.2,26.8,2,40.2c0.6,11,0.7,22.2,2.1,33.1c2.8,21.7,2.9,43.5,3,65.3c0,4.1,1.7,8.2,2.9,12.2c1,3.5-1.1,6.6-5.1,6.4
	c-13.1-0.6-26.1-1.5-39.2-1.9c-16.3-0.5-32.7-0.7-49.1-1.1c-10.2-0.2-20.4-0.6-30.6-1c-16.2-0.6-32.4-1.3-48.6-2
	c-8.2-0.3-16.4-0.8-24.6-0.9c-32.2-0.8-64.4-1.5-96.7-2c-11.3-0.1-22.7,0.6-34.1,1C680.7,1491.5,675.8,1492,670.5,1492.3
	 M297,1231.3c3.4-5.1,7-10.2,10.3-15.4c0.4-0.6-0.3-2.2-0.9-2.9c-0.3-0.4-2.1,0-2.6,0.6c-4.3,5.1-8.1,10.5-7.8,17.7
	c-1.9,1.3-3.7,2.6-5.5,3.9c-0.1,0.1,0.3,0.8,0.5,1.1c1.7-1.3,3.4-2.7,5.1-4.1C296.3,1232,296.3,1231.6,297,1231.3 M317,1257.3
	c5.4-3.3,10.8-6.5,16.1-10c0.9-0.6,1.5-2.4,1.2-3.4c-0.3-1-1.6-2.1-2.7-2.5c-3.7-1.4-7.9-2-11.3-3.9c-2.6-1.5-2.7-0.3-2.8,1.4
	c-0.4,6.1-0.7,12.3-1.5,18.4c-0.1,0.4-0.1,0.7-0.1,1C316.1,1258,316.3,1257.7,317,1257.3 M322,1195.3c-4.2,3.2-8.4,6.3-12.4,9.7
	c-0.5,0.4-3.3,3.3,1.2,3.5c7.3,0.2,13.3-1.4,17.2-8.1c0.8-1.4,2.7-2.2,4.1-3.2c8.7-6.4,17.4-12.7,26-19.1c0.5-0.3,1-1.5,0.8-1.7
	c-1.7-1.8-11.4,0.8-12.4,3.3c-1.3,3-11.9,9.9-14.8,9.4c-4.3-0.7-7.1,0.9-8.7,5.2C322.8,1194.7,322.6,1195,322,1195.3 M798,1223.3
	c-7.6,1-15.2,2.2-22.8,3c-15.3,1.5-29.9-2-44.4-6.2c-14.7-4.3-29.5-6.9-44.8-5.7c-9.6,0.7-19.4,0.9-28.4,4.9c-1.7,0.8-3.4,1.6-5,2.4
	c1.4,0.9,2.8,1.7,4.2,2.6c4.2,2.9,8.9,5.5,8.6,11.7c0,0.8-0.3,1.6-0.4,2.3c-0.7-0.3-1.5-0.6-2.1-1c-6.4-5.1-12.7-10.2-19.2-15.1
	c-12.1-9.4-25.4-16.3-40.7-18.9c-6.5-1.1-13.1-1.9-19.5-3.5c-8.2-2.1-16.4-4.6-24.4-7.6c-5.6-2.1-11.3-4.5-16-8.1
	c-5-3.8-4.3-4.4-6.5,1.6c-3.9,10.2-8.7,20.1-12,30.5c-4,12.2-7.3,24.7-9.9,37.3c-1.2,5.6-0.9,11.9,0.2,17.5
	c1.5,8.4,5.2,16.4,6.3,24.8c1.9,14.1-1.2,27.4-8.6,39.8c-4.6,7.6-2.9,15.9-0.4,24c1.6,5.2,3.3,10.8,8.9,12.6
	c4.8,1.5,10,1.6,15.1,2.1c5.9,0.5,11.8,0.5,17.6,1.1c10.5,1.1,20.9,3.2,31.4,3.8c8.9,0.5,18-0.5,27-0.9c3.9-0.2,7.9,0,11.6-1.1
	c12.5-3.4,24.9-7.5,37.4-11c9.1-2.6,18.4-4.8,27.7-6.8c2.9-0.6,6.1-0.2,9.1,0c0.9,0.1,1.6,1.2,2.5,1.9c-0.8,0.7-1.5,1.7-2.4,2
	c-2.3,0.5-4.7,0.7-7.1,1c-4.5,0.7-9.1,1.2-13.6,2.1c-1.1,0.2-2,1.6-2.9,2.4c0.9,0.5,1.7,1.2,2.7,1.5c3.2,1.1,6.5,2.2,9.8,3
	c8,2.1,15.9,4.9,24,5.8c11.3,1.2,22.7,1.1,34.1,1.1c3.7,0,7.4-1.1,11.1-1.9c10.5-2.1,20.6-6.3,31.6-5.9c3,0.1,6,0.5,9,1
	c2.3,0.3,3-0.6,2.7-2.7c-0.7-3.8-1.5-7.5-2-11.2c-0.5-3.8-0.3-7.8-1.1-11.6c-2.9-13.7-6-27.5-9.1-41.2c-1.5-6.8-3.6-13.6-4.8-20.5
	c-1.9-12.4,3.9-23,7.8-34.2c3.3-9.4,5.5-19.1,8.7-28.7c0-0.3,0-0.6,0-0.9C798.8,1222.7,798.6,1223,798,1223.3 M154,1339.3
	c-2.9-13.6-7.3-27.2-8.1-41c-1.1-16.8,0.3-33.8,1.7-50.6c1.2-13.9,6.9-27.3,3.8-41.5c-1.3-6,0.8-12.7-3.6-18.1
	c-0.3-0.4-0.5-1.2-0.3-1.8c0.3-1,0.9-1.9,1.4-2.9c0.7,0.6,1.7,1.2,2,2c1.6,4.4,5.3,3.9,8.8,4c7.6,0.1,15.3,0.4,22.9,0.6
	c5.7,0.2,11.5,1.1,17.1,0.4c8.7-1.1,17.2-4,25.9-4.9c10.7-1.1,21.5-1,32.2-1.1c3.6,0,7.2,1.2,10.8,1.6c2.6,0.2,5.9,1,7.6-0.2
	c6.5-4.8,13.4-7.6,21.5-7.5c8.5,0.2,17.3-1,25.5,0.7c8.5,1.7,15.2,1.6,21-5.7c1.4-1.7,4.4-2.7,6.7-2.8c9-0.4,18-0.1,27-0.2
	c2.8,0,6.3-1.6,8.3-0.4c8.1,4.7,16.4,9.5,23.4,15.7c3.1,2.7,6,4.8,9.5,4.6c8.3-0.5,15.3,3.5,22.9,5.3c6.6,1.5,13.1,4.7,19.5,4.5
	c8.4-0.4,16.7-3.6,25.2-5.3c2.4-0.5,6-1.2,7.1,0.1c1.5,1.5,1.1,4.9,1.2,7.5c0.1,6-1.2,12.3,0.2,18c2.9,11.6,7.3,22.9,11.1,34.3
	c0.3,1,0.8,1.8,1.2,2.7c0.6-0.9,1.6-1.8,1.9-2.9c2.4-10.1,3.9-20.6,7.2-30.5c5.3-15.8,11.6-31.2,17.6-46.7c0.8-1.9,2.9-4.6,4.2-4.5
	c2.1,0.1,4.2,2.1,6,3.7c1.9,1.8,3.1,4.9,5.3,5.8c9.1,3.7,18.3,7.4,27.8,10c10.2,2.7,20.7,3.8,31,6.2c11.2,2.6,22.1,6.4,31.2,13.8
	c5.5,4.5,10.7,5.7,16.6,1.2c0.8-0.6,2-0.9,3.1-1c6.9-1.1,13.8-1.9,20.7-3.1c15.4-2.5,30.5-0.8,45.5,3c9.1,2.4,18.4,4.7,27.5,7.1
	c8.6,2.2,17.2,2.2,25.8,0.9c6.7-1,13.5-2.1,20.2-3.1c2-0.3,4-0.4,6.1-0.7c0,2.2,0.7,4.5,0.1,6.4c-4.3,13.2-9.1,26.2-13.2,39.5
	c-1.8,5.8-3,11.9-3.5,18c-0.9,9.6,2.5,18.7,5.2,27.8c5.3,17.9,9.8,36,8.7,55c-0.1,0.7-0.1,1.5,0.3,1.9c3.4,3.6,2.6,8.1,2.6,12.4
	c0.1,4.8-2,6.7-6.3,4.7c-11.5-5.3-22.5-2.5-33.9,0.7c-8.1,2.2-16.7,3.7-25.1,4.3c-12.2,0.9-24.3-0.2-36.3-2.8
	c-12.1-2.7-24.3-5.3-35.2-11.5c-3.3-1.9-5.9-1.6-9.3-0.1c-13.5,6.2-27.7,9.7-42.6,10.5c-5.5,0.4-11.1,0.8-16.6,1
	c-7.5,0.4-15.1,1.4-22.6,0.9c-10.8-0.7-21.5-2.6-32.3-3.8c-10.4-1.2-20.9-2-31.3-3.1c-0.8-0.1-2.2-1.1-2.4-1.9
	c-2.4-9.3-7.6-18-7.1-28.1c0-0.9-1-2.8-1.3-2.7c-1.3,0.2-3.1,0.6-3.5,1.6c-0.8,1.6-1.4,3.7-1,5.5c1.9,9.2,1.6,17.8-5.8,24.8
	c-0.6,0.6-0.9,1.6-1.3,2.4c1,0.2,1.9,0.3,2.9,0.4c4.2,0.7,8.6,0.9,12.6,2.1c13.7,4.4,27.3,8.8,40.7,13.9c13.7,5.2,27.5,9.8,42,10.8
	c17.3,1.1,34.7,0.1,52.1,0.3c23.9,0.2,47.7,0.6,71.6,0.9c0.5,0,1,0,1.5,0c10.3,1.4,20.5,3.6,30.8,3.8c10.4,0.1,21-1.1,31.3-2.9
	c17.7-3.1,35.4-6.5,52.9-11c17.2-4.5,34.7-6.1,52.1-6.5c20.1-0.5,40.2,1.6,60.3,2.7c0.7,0,1.5,0.5,2.2,0.5c7.9,0.1,15.9,0.7,23.7,0
	c9.6-0.9,19-3.4,28.6-4.4c3.6-0.3,3.8-1.5,3.7-4.3c-0.7-16.7-1.6-33.4-2-50.1c-0.5-24.9-0.7-49.8-1.1-74.6
	c-0.2-20-0.6-40.1-0.9-60.1c-0.1-4.5-0.2-9.1,0-13.7c0.5-11,1.7-22,1.8-33c0.2-13.1-0.5-26.1-0.8-39.2c-0.1-4.9-2.1-7.2-7-7.1
	c-20.5,0.2-41,0.6-61.5,1c-12.4,0.2-24.8,0.6-37.1,0.9c-11.7,0.4-23.4,0.6-35.1,1.1c-17.4,0.6-34.8,1.4-52.2,1.9
	c-17.2,0.5-34.4,0.8-51.5,1c-9.3,0.2-18.5-0.1-27.7,0.1c-12.9,0.2-25.8,0.8-38.8,0.9c-32.7,0.1-65.4,0.1-98.1,0
	c-13-0.1-26-0.7-39-0.9c-11.5-0.2-23-0.1-34.5,0c-2.8,0-5.7,0.9-8.5,0.9c-8.1-0.2-16.2-0.9-24.3-0.9c-7.4,0-14.8,0.9-22.3,0.9
	c-23.4,0.1-46.8,0.2-70.3,0c-14.9-0.1-29.7-0.8-44.6-0.9c-40.7-0.4-81.4-0.7-122-1.1c-12.4-0.1-24.8-0.9-37.1-0.9
	c-26.5,0.1-53.1,0.4-79.6,1c-15.2,0.3-30.4,1.6-45.7,1.8c-10.1,0.1-20.2-1.1-30.3-1.4c-2.3,0-5.6,0-5.9,4c-0.6,9-1.7,18.1-1.9,27.2
	c-0.5,31.7,1,63.4-2,95.1c-1.2,12.9-1.4,25.8-2.1,38.7c-0.6,12.1-1.3,24.2-1.9,36.3c-1,17.8-2.1,35.5-3,53.3
	c-0.5,10.7-0.7,21.4-1.1,32.1c-0.1,3.5,1.7,5.1,5.1,4.8c11-0.9,21.9-2.4,32.8-2.8c9.5-0.4,19.1,0.3,28.6,0.9c6,0.4,12.1,1.2,18.1,2
	c9.1,1.2,18.3,3.8,27.4,3.6c10.4-0.2,20.7-2.7,31.1-4.2c10.2-1.5,20-5.4,30.6-4.5c9,0.7,18.1,0.9,27.1,1c6.1,0,12-1.4,16.9-5.1
	c7.1-5.5,14.1-11.1,23.6-11.9c0.5-0.1,0.9-1.2,1.3-1.9c-3.6-2-7.6-6.1-10.9-5.7c-9.7,1.3-18.9,0-28.3-1.2
	c-5.5-0.6-11.3-0.3-16.6,0.8c-8.5,1.8-16.7,4.7-25.2,6.8c-1.3,0.3-3.9-1.2-4.6-2.5c-2.8-5.6-5.3-11.4-7.5-17.4
	C159.2,1355.5,156.9,1347.6,154,1339.3 M277,1388.3c6.5,1,13.1,2.7,19.7,2.9c15.5,0.4,31,0.4,46.5,0c3.5-0.1,7-2.3,10.5-3.6
	c1-0.4,1.9-1.1,2.9-1.2c12.2-2.1,24.4-4.1,36.6-6c2.3-0.4,4.8-0.4,7.2-0.5c-2.3,2.1-4.5,4.3-6.8,6.4c-0.1,0.2-0.6,0-0.9,0
	c-6.8,1.4-13.6,2.8-20.4,4c-5.6,1-11.7,0.8-16.8,2.9c-7.3,2.9-14.6,4.2-22.3,4.1c-14.6-0.2-29.2-0.5-43.7-1c-9.2-0.4-18.1-2-26-7.3
	c-1.6-1-4.2-1.9-5.7-1.3c-6.8,2.9-14.2,5.3-19.7,10c-10.2,8.6-22.2,9.5-34.1,9.4c-9.4-0.1-18.7-2.8-28.3-0.8
	c-10,2-20.1,3.7-30.2,5.5c-7,1.2-14.1,3.5-21,3.3c-10.2-0.3-20.3-2.5-30.4-3.7c-3.7-0.5-7.4-0.7-11.1-1.1c-8.5-0.8-17-2.5-25.5-2.3
	c-13.9,0.4-27.7,2.1-41.6,3.5c-1.2,0.1-3.2,1.7-3.3,2.8c-0.9,11.2-1.5,22.4-2.1,33.6c-0.4,6.9-0.5,13.7-1.1,20.6
	c-0.4,4.5,2.2,6.3,5.8,6.8c13.1,1.5,26.2,2.9,39.3,4c13.7,1.2,27.5,2,41.3,3.1c11.2,0.9,22.4,2.2,33.7,2.9
	c16.4,0.9,32.8,1.9,49.2,1.9c37.2,0,74.5-0.8,111.7-0.8c48.8,0.1,97.5,0.6,146.3,0.9c14.1,0.1,28.2,0,42.3,0
	c38.2,0,76.3,0.1,114.5,0c4.6,0,9.2-0.9,13.8-0.9c8.4,0.1,16.8,0.7,25.2,0.9c8,0.2,15.9,0.2,23.9,0c9.5-0.2,19-0.7,28.5-0.9
	c12.4-0.4,24.8-1,37.1-1c24.2,0.1,48.4,0.6,72.6,1c8.5,0.1,17.1,0.6,25.6,0.9c16.7,0.7,33.4,1.4,50.2,2c9,0.4,18,0.7,27,1
	c8.9,0.4,17.8,0.9,26.6,1c25.1,0.4,50.1,0.7,75.1,1c4.2,0.1,6.5-1.1,6.4-6.1c-0.3-20.6,0.6-41.2-2.9-61.8c-1.3-7.8-0.9-16-1.1-24
	c-0.1-3.5-1.4-5.4-5-5c-2.8,0.3-5.5,1.2-8.3,1.6c-7.8,1.2-15.7,2.9-23.6,3.2c-20.1,0.9-39.9-2.5-59.9-3.6c-16.3-0.8-32.7,1-49.1,1.8
	c-3.2,0.1-6.5,0.3-9.6,1c-10,2.2-20,4.8-30.1,6.9c-15.9,3.2-31.9,5.8-47.7,9.1c-12.3,2.5-24.6,1.6-36.8,0.8
	c-12.2-0.7-24.2-2.8-36.4-3.8c-7.2-0.5-14.6-0.2-21.9,0c-10.7,0.2-21.4,0.9-32.1,0.9c-10.5,0-20.9-0.5-31.3-1
	c-11.2-0.5-22.7,0-33.6-2.3c-13.4-2.7-26.3-7.9-39.5-12c-13.5-4.2-27-8.9-40.8-12.4c-4.4-1.2-9.5-1-14.2,2.7
	c-7,5.6-15.4,8.9-24.7,9.1c-6.1,0.2-13.5-0.7-14.5,8.6c-0.1,0.8-0.6,1.7-1.2,2c-3.7,2.2-7.3,5.1-11.4,6.1c-4.2,1.1-5.6,2.6-5.4,6.8
	c0.4,12.5-3.7,23.9-14.6,30.1c-9.1,5.1-19.5,8.4-30.5,8.4c-9.8,0-17.2-12-15.6-20.8c0.6-3.7,1.5-7.5,1.6-11.2c0-1.3-1.6-3.1-2.9-3.9
	c-0.8-0.6-2.5,0-3.8,0.2c0.9,0.3,1.9,0.6,2.7,1c0.2,0.1,0.2,0.7,0.1,1c-1.2,4.3-1.6,9.1-3.9,12.8c-7.3,12.1-18,16.1-32.1,13
	c-17.3-3.8-21.6-17.6-19.9-30.6c0.9-6.6,3.7-13.4-3.9-18c-0.6-0.4-0.8-1.4-1.1-2c0.7-0.2,1.6-0.8,2.2-0.5c3.5,1.6,7.5,2.7,10.3,5.2
	c3.3,3.1,7,3.9,11.1,4.8c2.2,0.4,4.9,0.7,6.6,2c7.3,5.7,16,6.3,24.7,6.9c6.6,0.4,13.5-0.9,19.9,0.3c10.3,1.8,20.3,0.6,30.1-1.9
	c5.4-1.4,10.1-5.6,15.5-7c4.6-1.2,9.5-0.8,13.3-4.3c2.5-2.5,5.3-4.8,7.9-7.2c0.3-0.3,0.4-1.2,0.3-1.3c-0.5-0.3-1.1-0.6-1.7-0.5
	c-10.7,0.5-20-3.3-29-8.8c-2.5-1.6-5.3-2.3-6.2-5.4c-0.1-0.5,0.7-1.8,0.9-1.8c2.9,0.6,5.8,1.6,8.7,1.9c18.9,1.9,33.8-6.8,47.3-18.5
	c1.2-1.1,1.3-3.4,1.9-5.1c-1.5,0.6-3,1-4.4,1.8c-6.5,3.3-12.8,6.9-19.3,10.1c-1.3,0.6-3.4-0.5-5.1-0.7c1-1.1,1.8-2.4,3.1-3.1
	c5.5-3.1,11.4-5.6,16.7-9c4-2.5,7.7-5.8,11.1-9.1c1-1,0.7-3.3,0.9-5c-1.2,0.7-2.5,1.4-3.8,2.1c-1.1,0.5-2.2,1-3.3,1.5
	c-6.2,3.2-12.5,6.3-18.6,9.5c-2.2,1.1-4.3,2.6-6.6,3.4c-1.1,0.4-2.7-0.5-4-0.9c0.7-1,1.2-2.5,2.2-3.1c7.1-4,14.3-7.9,21.5-11.8
	c3.8-2.1,7.8-3.9,11.5-6.2c1-0.6,1.5-2.5,1.6-3.8c0.1-0.7-1.8-2.1-2.4-1.9c-6.3,1.9-12.7,3.7-18.8,6.4c-4.4,1.9-8.3,4.9-12.4,7.4
	c-0.7,0.4-1.7,0.6-2.5,0.8c0.3-1,0.2-2.2,0.8-2.9c5.2-6.9,11.7-11.6,20.5-12.9c3.1-0.5,8,0.6,7.3-4.9c-0.5-4.6-4.6-3.8-7.8-4.1
	c-0.5,0-1-0.1-1.5,0.1c-11.6,2.6-23.1,5.6-32.2,14c-1,0.9-2.4,1.6-3.7,1.9c-1.1,0.2-2.4-0.4-3.6-0.6c0.3-1.3,0.5-2.8,1.2-4
	c0.6-1.1,1.8-1.8,2.8-2.7c-1.6-0.2-3.2-0.8-4.7-0.6c-1.6,0.3-3.5,0.8-4.7,1.9c-6.5,5.6-9.3,12.8-8.8,21.4c0.1,1.4-1.2,4.1-2.2,4.2
	c-5.9,0.8-12.2,2.3-17.9,1.2c-9.2-1.9-17.9-5.6-26.9-8.4c-22.1-7-44.4-12.6-67.8-11.3c-4.5,0.2-6.6-1.5-6-6c0.5-4.7-1.2-8.3-5.7-10
	c-3.4-1.3-2.7-2.6-0.6-4.3c1.9-1.6,3.1-3.1,1.4-5.7c-0.7-0.9-0.4-2.7-0.1-3.9s1.1-2.1,1.7-3.2c0.8,0.9,1.8,1.7,2.2,2.7
	c0.6,1.9,0.7,4,1.3,6c0.2,0.8,0.9,1.5,1.3,2.3c0.5-0.8,1.2-1.6,1.4-2.5c0.7-3.5,0.5-7.4,2-10.7c3-7,6.9-13.8,10.4-20.6
	c0.6-1.2,1-2.5,1.5-3.8c-1.5,0.2-3.1,0.1-4.4,0.7c-4.8,2-7.7,5.5-8.6,10.8c-0.3,2.3-1.3,5.5-3.1,6.5c-5.5,3.2-9.1,7.4-10.4,13.7
	c-0.1,0.7-1,1.3-1.5,1.9c-0.6-0.7-1.7-1.3-1.8-2c-0.1-3.6-0.6-7.1,2.5-10c4.9-4.7,9-10,11.6-16.6c2.1-5.4,10.4-10.7,14.4-9.2
	c5.5,2.1,8.3-0.2,10.2-4.6c1.8-3.9,3-8.1,4.2-12.2c0.3-1.3-0.6-2.9-0.9-4.4c-1,1.2-2.3,2.2-3,3.5c-2.1,3.9-3.8,8.1-6.1,11.9
	c-0.6,1-2.7,1.1-4.2,1.6c0.1-1,0-2.1,0.3-3c0.5-1.5,1.4-2.8,1.9-4.2c1-2.5,1.8-5.1,2.7-7.6c-1.9,2.1-3.9,4.1-5.6,6.3
	c-2.7,3.8-5.2,7.8-8,11.5c-0.4,0.6-1.9,0.5-2.8,0.7c0.2-0.8,0.3-1.7,0.8-2.4c1.4-2.5,3.1-4.7,4.3-7.2c1-1.9,1.3-4,2-6.1
	c-1.8,1.5-4.1,2.5-5.3,4.3c-4.1,6.5-6.9,13.9-15.2,16.6c-1.2,0.3-3.5,1.8-2,4.3c0.2,0.3-1.7,2.3-2.9,2.8c-8.8,3.3-16.5,8-18.4,18.1
	c-1,4.9-1.7,10-1.4,14.9c0.5,9,1.8,17.9,2.9,26.8c0.1,0.7,0.8,1.3,1.2,2c0.6-0.6,1.4-1.1,1.7-1.8c3.4-8,9.5-13.3,16.9-17.1
	c1.6-0.9,4-0.4,6-0.5c-0.8,1.3-1.5,2.7-2.6,3.8c-4.3,4.2-9.3,7.8-13.1,12.4c-9.2,11.2-10.3,18.6,1.6,30.3
	C262.3,1382.1,269.6,1384.7,277,1388.3 M294,1184.3c-1.4,0.4-2.9,0.5-4.1,1.1c-2.2,1-4.3,2.4-6.4,3.6c1.3,1.2,2.7,2.4,3.8,3.8
	c0.8,1,1.2,2.3,1.8,3.4c-1.4,0.4-2.9,1.3-4.1,1c-2.8-0.6-5.4-2-8.3-2.8c-12.9-3.8-26.1-5.1-39.4-4c-7.7,0.7-15.4,2.4-23,3.6
	c-7.2,1.1-14.4,3-21.6,3.1c-9.2,0.2-18.5-1.3-27.7-1.7c-6.6-0.3-9,3.3-7.3,9.7c0.9,3.4,1.9,7,1.6,10.3c-0.6,7.3-2,14.5-3.1,21.7
	c-1.6,10.8-3.8,21.6-4.6,32.5c-0.6,9,0.2,18.1,0.9,27.1c0.7,8.4,1,17.1,3.2,25.1c4.7,16.9,10.4,33.4,15.9,49.9
	c0.5,1.6,3.3,3.7,4.7,3.4c5.7-0.9,11.2-2.8,16.8-3.9c6.8-1.2,13.7-2.7,20.5-2.7c9.7,0,19.5,1.2,29.2,1.8c0.6,0,1.8-0.9,1.8-1.2
	c-0.6-5.1-0.8-10.3-2.3-15.1c-3.9-12.5-5.6-25.1-4.9-38.1c0.8-16.2,7.1-28.6,22.3-35.6c1.7-0.8,3-2.5,4.5-3.7
	c-1.7-0.4-3.3-0.8-5-1.3c-0.7-0.2-1.4-0.5-2.1-0.8c-3.5-2.1-6.2-1-9,1.5c-1.5,1.5-3.6,2.3-5.6,3.3c-0.4,0.2-1.2-0.2-1.8-0.2
	c0.2-0.7,0.3-1.5,0.6-2.1c2.6-4.4,6.1-7.4,11.3-8.8c7-1.8,13.2-5.2,17.8-11.2c1.4-1.8,4-4.8,4.9-4.4c6.9,3,7.6-3.5,10.7-6.3
	c0.3-0.3,0.1-1.1,0.2-1.7c-0.5,0.2-1,0.5-1.5,0.7c-7,3.8-14,7.5-21,11.3c-3.8,2.1-7.5,4.4-11.4,6.2c-0.9,0.5-2.5-0.5-3.7-0.8
	c0.6-0.7,1.1-1.6,1.8-2.1c6-3.9,12-7.8,18.2-11.5c5.6-3.4,11.4-6.4,16.9-9.8c0.9-0.5,0.9-2.2,1.3-3.4c-1.1,0.3-2.4,0.2-3.4,0.8
	c-6.1,3.3-11.9,7.4-18.3,10c-6.7,2.7-12.8,6-18,11.1c-0.9,0.9-2.2,1.3-3.4,2c0.2-1.5,0.3-3.1,0.8-4.5c0.4-1,1.2-1.8,1.9-2.7
	c4.6-5.6,11.4-7.7,17.6-10.5c4.8-2.2,9.6-4.3,14.3-6.5c0.5-0.2,0.8-0.7,1.1-1c-0.6-0.2-1.1-0.6-1.7-0.5c-3,0.2-6.1,1-9.1,0.8
	c-1.4-0.1-2.8-2.1-4.1-3.1c1.3-0.6,2.7-1.5,4.1-1.7c4-0.5,8.1-0.6,12.1-1.2c1-0.1,1.8-1.6,2.8-2.5c-0.9-0.4-1.6-1-2.5-1.3
	c-2.4-1.1-7.6,2.3-7.2-2.8c0.3-4.3,5.2-2.2,7.8-2.1c6.8,0.3,12.4-1.4,16.8-6.7c0.5-0.5,0.7-1.3,1-2c-0.8,0.2-1.6,0.3-2.4,0.5
	c-4.3,1.3-8.5,2.8-12.9,3.9c-1,0.3-2.3-0.9-3.5-1.5c1-1,2-2.2,3.1-3c0.6-0.4,1.6-0.1,2.4-0.4c7.4-2.7,15.4-4,21.3-10.2
	c4.4-4.7,9.7-8.5,14.6-12.8c0.7-0.6,1.4-1.2,2.1-1.8c-1-0.4-2-1.1-3-1.1C312.4,1184.3,303.7,1184.3,294,1184.3 M300,1282.3
	c-1.3,1.7-2.6,3.4-4,4.9c-3,3.5-2.2,6.4,2.1,8.2c14.6,6,29.6,10.3,45.5,11c3.9,0.1,7.7,0.5,11.6,1c1.1,0.2,2.2,1.3,3.3,2
	c-1.1,1-2,2.1-3.1,2.9c-0.6,0.4-1.7,0.1-2.5,0c-6.1-0.6-12.1-1.4-18.2-1.9c-14.3-1.2-28-4.9-40.8-11.3c-3-1.5-4.4,0-5.1,1.6
	c-3.7,8.1-7.4,16.4-3.9,25.7c0.4,1.1,0.8,2.7,0.2,3.6c-1.7,2.9,0.4,3.1,2.1,3.3c4.4,0.5,8.8,0.4,13.1,1.1c10.8,1.7,21.6,3,32.2,5.7
	c15.3,3.8,30.3,8.8,45.4,13.2c8.9,2.6,10.2,1.8,14.1-6.9c1.6-3.9,3.2-7.8,5.3-11.3c4.6-7.8,7-10.4,16.8-8.6
	c4.9,0.8,9.1,0.8,13.6-1.7c4-2.2,8.7-3,13.1-4.5c0.4-0.1,0.8-1.3,0.6-1.7c-2.9-5-5.5-10.2-9.1-14.7c-2.5-3.1-6.3-5.3-9.7-7.8
	c-0.7-0.5-1.7-0.5-2.6-0.8c0.2,1,0.2,2.1,0.8,2.8c2.3,2.5,5,4.8,7.2,7.4c1.5,1.8,4.4,4.1,1.2,6.4c-2.5,1.8-4.2-0.4-5.8-2.5
	c-4.7-6.1-9.5-12.2-14.5-18c-4.3-5-9-9.6-13.3-14.5c-0.8-1-0.8-2.7-1.1-4c1.3,0,2.9-0.4,4,0.1c1.6,0.8,3,2.2,4.5,3.4
	c5.7,4.5,8.7,12.9,17.7,12.7c0.1,0,0.3,0.2,0.4,0.2c9.8,4.7,18.2,11.2,23.3,21.1c2.9,5.6,6,9.6,13.2,8c1.2-0.2,2.8,0.4,4,1
	c4.3,2,5.6-1,6.8-3.9c1.2-3.2,2.5-6.4,2.9-9.8c0.4-2.4,0.4-5.9-1-7.4c-4.7-5-4.4-11.2-5.9-17.1c-1.5-5.8-3.1-11.7-8.2-15.6
	c-3.3-2.6-6.3-5.4-9.8-7.7c-5.3-3.6-10.9-6.7-16.1-10.3c-5-3.5-10.5-4.4-16.3-4.2c-7.4,0.2-14.7,0.7-22.1,0.9c-3.3,0-6.8-1.1-10-0.8
	c-8.4,1-16.6,2.8-24.9,3.8c-11.2,1.2-21.9,3.5-31.4,10C315.8,1264.1,306.9,1271.6,300,1282.3 M515.5,1312.8c0.5-9.8-0.1-19.6-4-28.8
	c-5.3-13-11-25.8-16.5-38.6c-6-13.8-9.9-27.9-7.6-43.1c0-0.4-1.3-1.3-2-1.3c-1,0-2.1,0.6-3.1,1c-10.5,3.6-21.3,5.6-32.3,2.3
	c-8.6-2.5-17.2-5.3-25.8-7.6c-2.3-0.6-4.9-0.2-7.3-0.3c0.5,1.9,1,3.7,1.6,5.5c0.1,0.5,0.2,0.9,0.4,1.4c5.4,15.4,16.2,21.4,32.1,18.1
	c1.3-0.3,2.9,0.6,4.5,0.9c-1.3,1-2.5,2.7-3.9,2.9c-5.3,0.7-10.7,0.8-16,1.2c-0.7,0-1.4,0.4-2,0.6c0.6,0.4,1.2,1.1,1.9,1.3
	c1,0.2,2,0.1,3,0c3.4-0.3,6.7-0.8,10.1-0.9c0.9,0,1.9,1.3,2.9,2c-1,0.6-1.9,1.7-3,1.9c-3.3,0.5-6.7,0.6-10,1.1c-1.1,0.1-2,0.8-3,1.2
	c0.8,0.9,1.6,2.3,2.6,2.6c1.4,0.5,3,0.2,4.5,0.1c2.3-0.1,4.6-0.3,6.9-0.4c-1.7,1.1-3.4,2.2-5,3.5c-0.8,0.6-1.4,1.5-2,2.3
	c0.8,0.2,1.7,0.6,2.6,0.6c3.3,0.1,6.7,0.1,10,0c3.4-0.1,6.3,1,7,4.4c0.7,3.5,0.3,7.3,0.3,11c0,1.9-1,4.6-0.1,5.5
	c5.3,5,7.1,11.7,8,18.3c1.5,11,7.1,19.8,14.9,26.6c9.4,8.3,13.5,18.3,9.9,30.2c-0.6,2,0.3,4.5,0.6,6.8c0.6-0.1,1.4,0.1,1.7-0.3
	C507,1336.6,512.4,1325.9,515.5,1312.8 M471.5,1355.8c-0.7,5.6-2.6,10.3-7,14.2c-9.9,8.6-20.8,15-33.9,17.4
	c-1.4,0.3-2.8,1.4-4.1,2.1c1.5,0.6,3,1.6,4.5,1.8c6.2,0.5,12.4,1,18.6,1c10.7-0.2,20.8-2.3,29.9-8.8c8.9-6.4,15-13.7,14-25.4
	c-0.9-9.6-5.6-17.5-11.6-24.7c-3.6-4.4-7.6-8-3.8-14.5c1.3-2.2,0.5-5.6,0.3-8.4c-0.1-1.1-1.1-2.1-1.6-3.2c-0.8,1.1-1.9,2-2.3,3.1
	c-1.2,3.6-1.5,7.4-3.2,10.7c-1.9,3.8-1.7,6.6,1.6,9.3c1.2,1,2.6,2.7,2.4,3.9c-0.6,5.5-1.8,11-2.8,16.5
	C472.2,1352.2,471.8,1353.5,471.5,1355.8 M417.5,1429.8c0.3-3.3,0.6-6.7,1-10c0.1-1.1,0.3-2.3,0.5-3.4c-1.1,0.4-2.7,0.5-3.3,1.4
	c-2.7,3.5-6.6,4.2-10.4,5.1c-2.3,0.6-4.7,1-7,1.1c-7.2,0.2-14.4,0.6-21.5,0.2c-4.7-0.3-7,1-7.3,6.3c-0.2,3.3,0,6.6,0,9.9
	c0,10.4,4.6,14.8,14.8,13.9c1.5-0.1,3.1-0.6,4.6-1C401.9,1450.3,413.9,1445.9,417.5,1429.8 M312.5,1412.8c-0.5,2.8-0.8,5.7-1.5,8.4
	c-2.1,9.7,0.8,18.6,8.6,23.1c9.4,5.4,21.5,5.5,27.9-1.5c4-4.3,6.7-9.1,8.5-15c1.3-4.3-0.1-3.1-2.6-3.6c-7.4-1.4-15.3-1.8-21.7-5.2
	C325.6,1415.7,319.3,1414.2,312.5,1412.8 M363,1209.3c-4.7,0.4-9.4,1-14.1,1c-10.1-0.1-19.5,3.3-28.9,6.1c-2.2,0.7-3.8,2.2-3.7,5.4
	c0.3,7.1,4.4,10.4,10.1,13.1c4.1,2,7,2.5,8.6-2.6c0.3-0.9,0.8-1.7,1.4-2.4c1.7-1.8,4.7-3.4-0.8-4.1c-1.2-0.2-2.1-2.9-3.1-4.4
	c1.6-0.3,3.2-1,4.8-1c4.3,0.1,8.7,1.5,12.7,0.7c3.5-0.7,6.4-3.7,9.7-5.4c1.1-0.6,2.5-0.6,3.7-0.9c0,1.4,0.6,3.4-0.1,4.1
	c-2.5,2.4-5.2,4.7-8.2,6.3c-3.2,1.8-4.7,3.6-3.1,7.2c0.3,0.8,0.4,1.9,0.4,2.8c0.3,2.4,0.5,4.8,0.7,7.1c1.7-1.4,3.2-3.1,5.2-4.2
	c7.5-4.2,10.6-11.3,12.8-19C374,1209.4,374,1209.3,363,1209.3 M392,1205.3c4,0.4,8,0.8,12,1c1.2,0,2.3-0.9,3.5-1.3
	c-1-1.9-1.6-5-2.9-5.4c-4.4-1.3-9.1-1.5-13.6-2.3c-1.6-0.3-3-1.5-4.5-2.3c1.4-0.9,2.7-1.8,4.2-2.6c0.8-0.5,1.6-0.9,2.5-1.3
	c-0.8-0.6-1.4-1.2-2.2-1.7c-2.1-1.5-4.1-3.1-6.3-4.2c-1.2-0.6-3.1-0.6-4.3-0.1c-2,0.7-3.7,2.3-5.6,3.4c-5.9,3.1-11.5,5.7-18.8,3.3
	c-3.4-1.1-8,0.8-12,1.6c-0.6,0.2-1,1.5-1.5,2.2c0.8,0.3,1.7,0.7,2.5,0.7c3.3-0.2,6.5-0.6,9.7-0.7c1.1,0,2.3,0.6,3.4,0.9
	c-0.6,0.8-1.1,2.2-1.8,2.4c-3.3,0.8-6.7,2.1-9.9,1.7c-6.6-0.9-12.1,0.5-16.4,5.7c-0.3,0.4-0.3,1.1-0.4,1.7c0.5-0.2,0.9-0.6,1.4-0.6
	c13.5-1.4,26.9-3.1,40.3-3.9C377.8,1203.2,384.4,1204.7,392,1205.3 M381.5,1225.8c6.2,5.6,14.1,6.1,21.8,6.4
	c5.5,0.2,9.3-3.5,11.9-8.2c0.8-1.4,1.3-2.9,2-4.4c-1.6,0.4-3.4,0.5-4.7,1.3c-2.6,1.6-4.7,4.6-7.4,5.2c-4.1,0.9-8.6,0.3-12.9,0.2
	c-1.2-0.1-2.3-0.8-3.5-1.2c-3.2-0.9-4.1-3.4-3-5.9c0.4-0.8,4.3-0.8,6,0.1c4,1.9,7.8,2.9,12.2,1.2c2.8-1.1,5.3-2.6,4.3-5.5
	c-0.6-1.7-3.6-3.3-5.6-3.5c-6.7-0.7-13.4-0.6-20.1-1.2c-3.7-0.4-4.8,1-4,4.3C379.3,1218,380.5,1221.4,381.5,1225.8 M388,1234.3
	c-0.9,0-1.9,0.4-2.5,0c-3-2-5.9-4.3-9-6.2c-0.6-0.4-2.6-3.9-3.3,0.7c-0.4,2.8-2.8,5.5-4.7,7.9c-1.3,1.7-3.2,2.9-4.9,4.3
	c2.6,0,5.3,0.5,7.7-0.1c9.6-2.3,19.3-1.5,29-1.6c3.4,0,6.8,0.2,10.2,0c2.5-0.1,5-0.7,7.5-0.8c1.4-0.1,2.7,0.4,4.1,0.7
	c-0.5-1.4-1-2.7-1.4-4.1c-1.3-4.5-4.4-2.9-6.8-1.6C405.7,1238.1,397.4,1236.9,388,1234.3 M311.5,1242.8c0.3-2,0.9-4,0.9-6
	c-0.1-1.8-0.8-5.1-1.4-5.1c-2.2-0.1-5,0.1-6.6,1.5c-2.5,2.1-4.4,5-6,7.8c-2,3.4,0,8.8,3.4,10.2c3.8,1.5,6.9,0,8.6-4.3
	C310.8,1245.9,311.1,1244.9,311.5,1242.8 M490.5,1325.8c-1.1-3.3-2-6.8-3.3-10c-0.4-1.1-1.9-1.7-2.9-2.5c-0.3,1.2-0.7,2.3-0.8,3.4
	c-0.2,1.5,0.2,3.2-0.4,4.3c-1.5,3.1-0.6,5.2,1.7,7.2c1,0.9,1.8,1.9,2.6,2.9c1.2,1.4,2.2,2.8,3.2,4.2c0.3-1.9,0.7-3.9,0.8-5.9
	C491.4,1328.6,490.8,1327.7,490.5,1325.8 M394,1186.3c3.1,2.1,6.1,4.3,9.3,6.3c0.8,0.5,2,0.3,3,0.4c-0.1-0.9,0.1-2.3-0.4-2.6
	c-6.3-4.8-12.7-9.4-19.1-14c-0.4-0.3-1.3,0-1.9,0c0.2,0.8,0.1,1.9,0.6,2.4C388.1,1181.2,390.8,1183.5,394,1186.3 M447.5,1248.8
	c-0.4,0.7-1.1,1.8-0.9,2c2.8,3.1,5.7,6,8.8,8.8c0.2,0.3,1.9-0.4,1.9-0.7c0.2-3.4,1.2-7.5-0.3-9.8
	C456,1247.5,451.1,1248.5,447.5,1248.8 M347.5,1235.8c-0.4-1.2-0.6-2.4-1.1-3.5c-0.5-1.1-1.2-2-1.9-3c-0.8,0.7-2.1,1.2-2.5,2.1
	c-1,2.7-1.8,5.6-2.5,8.4c-0.9,3.3,0.9,3.8,3.7,3.6c2.5-0.1,5.1,0.5,4.3-3.6C347.3,1238.9,347.5,1237.8,347.5,1235.8 M365.5,1181.8
	c0.9-0.9,1.9-1.8,2.7-2.8c0.5-0.6,0.7-1.6,1.1-2.4c-1.1,0.2-2.3,0-3,0.5c-3.4,2.5-6.6,5.1-9.8,7.7c-0.5,0.5-0.7,1.3-1,2
	c0.7,0.2,1.4,0.4,2.2,0.5C361.7,1188,363.4,1185.3,365.5,1181.8 M426.5,1232.8c0.5,4.3-0.7,9.6,5.9,10.6c0.7,0,1.3,0.4,1.9,0.6
	c-0.2-0.7-0.4-1.4-0.8-2.1c-2-3.4-4-6.9-6-10.4c-0.6-1-1.1-2-1.7-3.1C426.1,1229.6,426.3,1230.7,426.5,1232.8 M269.5,1272.8
	c2-1.7,4.3-3.3,6.2-5.3c0.8-1,0.9-2.7,1.4-4.1c-1.4,0.3-2.9,0.3-4,1C268.6,1266.9,267.1,1270.5,269.5,1272.8 M287.5,1252.8
	c1.5-1.1,3.1-2.2,4.4-3.5c0.5-0.5,0.3-1.7,0.4-2.6c-0.8,0.2-1.9,0.2-2.4,0.8c-1.6,1.7-3,3.6-4.4,5.5
	C286,1253.1,286.5,1253.2,287.5,1252.8 M370,1183.3c-0.1,0.9-0.2,1.8-0.3,2.7c1.4-1.2,2.8-2.3,4.1-3.6c0.2-0.2-0.1-0.9-0.2-1.4
	C372.6,1181.6,371.5,1182.2,370,1183.3 M436.5,1245.8c0.3,0.4,0.6,0.9,1,1.1c1.4,0.5,2.9,1,4.4,1.4c0.1,0,0.5-1.1,0.5-1.1
	c-1.1-0.7-2.3-1.3-3.5-1.8C438.3,1245.2,437.6,1245.3,436.5,1245.8 M277.5,1259.8c0.6-0.7,1.2-1.3,1.9-2c-0.8-0.2-1.8-0.7-2.3-0.4
	c-0.9,0.7-1.6,1.7-2.5,2.6C275.4,1260.1,276.2,1260.2,277.5,1259.8"/>
<path d="M417.5,44.3c2,4.1,0.7,6-3.7,6.1c-4.1,0.1-8.2,1.2-12.2,0.8c-3.6-0.4-4.2-3.6-1.9-6.6c1.9-2.5,3.6-5.2,5.7-7.6
	c1.7-2.1,1.6-2.8-1.2-2.7c-2.1,0.1-4.3,0.2-6.4,0c-1.2-0.1-2.2-1-3.3-1.5c0.9-1.1,1.6-2.9,2.9-3.3c2.9-1.1,6-1.8,9.1-2
	c2.1-0.2,4.6-1.4,6.1,2.2c1.4,3.4,1,6.2-0.9,8.9c-1.2,1.5-2.9,2.7-4.2,4.3c-0.6,0.7-0.7,2-1,3c1.2,0.1,2.5,0.4,3.7,0.2
	C412.5,45.6,414.7,44.9,417.5,44.3"/>
<path d="M360.7,45.1c1.8-4.6,3.8-8.9,5.7-13.3c0.4-0.7,0.4-1.6,0.6-2.4c-0.8,0-1.6-0.1-2.4,0c-2.4,0.2-4.7,0.7-7.1,0.9
	c-2.9,0.3-2.4-1.4-1.5-3c1.6-2.6,14.9-6.9,16.7-4.8c1.5,1.7,1.5,5.4,1,7.9s-2.6,4.6-3.7,7c-0.5,1-0.2,2.4-0.4,3.6
	c1-0.3,1.9-0.9,2.8-1.1c1.3-0.3,2.6-0.7,3.8-0.5c1.1,0.2,2.2,1,3.3,1.6c-0.9,0.8-1.6,1.9-2.6,2.3C371.8,45.2,366.8,49,360.7,45.1"/>
<path d="M333.5,42.3c-0.4,0-0.7,0.1-1,0c-2-0.6-4-1.2-6-1.8c1.4-1.3,2.8-2.7,4.3-4c0.5-0.4,1.2-0.4,1.7-0.7c2.4-2.1,5.7-4.2,7.9-1.5
	c1.4,1.7,0.2,5.6,0,8.5c-0.1,1.2-0.7,2.4-0.9,3.6c0,0.2,1.2,0.9,1.8,0.9c1.1-0.1,2.1-0.9,3.1-0.9c0.9,0,2.2,0.4,2.5,1
	c0.2,0.7-0.2,2.4-0.8,2.6c-3.3,1.6-6.6,3.5-10.2,4.2c-3.9,0.7-5.3-2.1-3.9-6c0.7-1.7,1-3.6,1.7-5.6c0.3-0.6,0.3-0.9,0.3-1.2
	C333.8,41.7,333.6,42,333.5,42.3"/>
<path d="M325.5,309.3c11.4-7.5,22.8-14.6,34.2-21.6c0.9-0.6,1.9-1.3,2.9-1.3c1.3,0,2.6,0.6,3.9,0.9c-0.8,1-1.4,2.3-2.4,3
	c-9.1,5.7-18.3,11.3-27.4,17.1c-2.2,1.3-4,3.3-6.2,4.3C328.8,312.3,325.6,314.5,325.5,309.3"/>
<path d="M340.5,319.3c-2.3,0-4,0-5.7-0.1c0.7-1.2,1.1-3,2.1-3.7c9.7-6.9,19.4-13.6,29.2-20.1c1.1-0.8,2.9-0.4,4.3-0.6
	c-0.5,1.6-0.6,3.8-1.8,4.7c-6.4,4.8-13.1,9.2-19.6,13.9C346.2,315.3,343.6,317.3,340.5,319.3"/>
<path d="M560.5,330.1c-4.3,1.1-7.5-1.3-10.4-3.7c-3-2.5-5.8-5.5-8.4-8.4c-0.8-1-0.9-2.6-1.2-4c1.3-0.2,3.3-1.1,3.9-0.6
	c5.5,5.2,10.8,10.6,16,16C560.5,329.4,560.5,329.7,560.5,330.1"/>
<path d="M721.7,300.6c-1.3,5.8-4.6,9.6-9.4,12.3c-1,0.5-2.4,0.1-3.7,0.1c0.4-1.1,0.5-2.4,1.1-3.4c2.9-4.3,5.8-8.6,8.8-12.8
	c0.7-1,1.9-1.6,2.9-2.5c0.3,1.3,0.8,2.5,1,3.8C722.5,298.8,722.1,299.6,721.7,300.6"/>
<path d="M560.5,330.6c0.3-0.1,0.6,0.1,0.9,0.3C561.1,330.9,560.8,330.9,560.5,330.6"/>
<path d="M600.5,206.3c-0.5,6.9-3,9.7-7.6,10.1c-3.9,0.4-6.1-2.3-6.2-4.7c-0.2-5,0.8-10.2,1.9-15.1c0.7-3.1,3.4-5.3,6.6-4.1
	c2.1,0.8,4.3,3.1,5.1,5.3C601.1,200.2,600.5,203.1,600.5,206.3 M596.5,202.8c-0.7-1.5-1.3-3-1.9-4.5c-0.8,1.3-1.9,2.4-2.2,3.7
	c-0.6,2.5-0.7,5.1-0.9,7.6c0,0.6,0.7,1.2,1,1.7c0.7-0.4,1.6-0.7,1.9-1.3C595.2,208,595.8,205.9,596.5,202.8"/>
<path d="M644.2,187.6c3.9,3.8,6.7,7.9,4.2,13.2c-1.2,2.3-3.3,5.7-5.2,5.9c-3.2,0.3-7.6,0-8.7-4.6c-0.9-3.8-2.1-7.8-1.9-11.6
	C633,185,638,183.8,644.2,187.6 M641,190.3c-0.9,0.5-2.5,1-2.4,1.3c0.4,3.1,1,6.1,1.8,9.1c0.2,0.7,1.4,1.1,2.2,1.6
	c0.3-0.6,0.9-1.3,0.8-1.9C642.8,197.2,642.1,194,641,190.3"/>
<path d="M294.7,169.6c1.2-0.3,2.3-0.5,3.2-0.2c1.6,0.6,3,1.5,4.6,2.2c-1.4,1.3-2.7,3.1-4.3,3.6c-2.4,0.8-4.1-0.5-3.8-3.4
	C294.5,171.2,294.5,170.5,294.7,169.6"/>
<path d="M297.5,132.3c-2.7-1.7-4.9-3.4-7-5.1c2.6,0.1,5.3-0.2,7.9,0.2c4.8,0.7,8.2-1.7,11.8-4.2c1.4-1,3.4-1,5.1-1.5
	c-0.5,1.9-0.4,4.2-1.5,5.6C309.8,132.6,303.8,132.4,297.5,132.3"/>
<path d="M266.5,148.3c3-2.2,5.5-4.4,8.1-6.6c1.4-1.2,3-2.1,4.5-3.2c0.1,2,0.9,4.3,0.2,6c-2.3,5.6-9.2,10.8-14.5,9.8
	c-0.7-0.1-1.7,0-2.2-0.4c-1.5-1.1-2.8-2.5-4.1-3.7c1.6-0.6,3.3-1.3,5-1.8C264.2,148.2,265.1,148.3,266.5,148.3"/>
<path d="M246.2,593.1c-5.4,4.7-10.5,9.2-15.7,13.6c-0.9,0.8-2.1,1.4-3.3,1.5c-0.8,0.2-1.6-0.7-2.5-1.1c0.4-0.6,0.7-1.3,1.3-1.7
	c8-7.1,16-14.2,24.1-21.2c0.5-0.4,1.4-0.4,2.1-0.6c-0.2,1.6,0.2,3.7-0.6,4.9C250.3,590.3,248.2,591.4,246.2,593.1"/>
<path d="M243.7,603.1c2.4-3.9,5-7.7,7.8-11.2c0.6-0.7,1.8-0.9,2.7-1.3c0.1,1,0.6,2.2,0.2,2.8c-2.9,3.7-5.9,7.3-8.9,10.9
	C245.4,604.4,244.5,603.7,243.7,603.1"/>
<path d="M955.5,586.1c-0.4,0.1-0.7-0.1-1-0.3C954.8,585.8,955.1,585.8,955.5,586.1"/>
<path d="M957.2,585.1c-0.3-0.1-0.3-0.4-0.3-0.7C957.1,584.6,957.3,584.7,957.2,585.1"/>
<path d="M958.7,584.6c0.3,0,0.3,0.3,0.4,0.6C958.9,585.1,958.7,585,958.7,584.6"/>
<path d="M955.5,586.6c0.3-0.1,0.6,0.1,0.9,0.3C956.1,586.9,955.8,586.9,955.5,586.6"/>
<path d="M312.2,694.1c-8.9,3.9-17,8.3-23.5,15.3c-1,1.1-3,1.3-4.6,1.9c0-1.7-0.2-3.6,0.3-5.2c0.4-1.5,1.5-3,2.7-3.8
	c7.5-4.8,15.1-9.3,22.7-14c0.2-0.1,0.5-0.5,0.7-0.5c2.7,0,5.3,0.1,8,0.2C316.5,690,314.5,691.9,312.2,694.1"/>
<path d="M305.5,723.3c-1.1,0.4-1.6,1-2.1,1c-3,0.3-6,0.4-8.9,0.6c1.9-1.7,3.8-3.4,5.8-4.9c7.1-5.4,14.1-10.9,21.3-16.1
	c1.1-0.9,3.2-0.4,4.9-0.6c-0.1,1.6,0.4,4-0.5,4.7c-4.5,4-9.4,7.6-14.2,11.3C309.9,720.8,307.9,722,305.5,723.3"/>
<path d="M318.5,700.3c-3.9,3.7-7.6,7-11.5,9.9c-4.1,3.1-8.5,5.9-12.7,8.8c-2.3,1.6-4.4,1.3-6.1-0.6c-0.4-0.3-0.2-1.7,0.2-2
	c7.7-5.7,15.4-11.4,23.4-16.7C313.4,698.7,316.2,699.8,318.5,700.3"/>
<path d="M527.5,693.3c0-1.3-0.4-2.3,0-2.9c1-1.5,2.2-2.7,3.4-4.1c0.8,1.5,2.5,2.9,2.4,4.3c-0.2,5.6,0.9,10.6,4.1,15.3
	c0.4,0.7-0.2,2.1-0.3,3.3c-1.1-0.4-2.5-0.4-3.3-1.1C529.3,704.4,527.8,699.4,527.5,693.3"/>
<path d="M731.5,702.3c0.2-1.4,0.2-2.5,0.7-3.1c0.8-1,2-1.7,3.1-2.6c0.1,2.1,0.8,4.4,0.1,6.1C734.4,705,733.6,704.8,731.5,702.3"/>
<path d="M598.2,600.6c-0.4,5.3,1.5,10.4-1.6,15.4c-1.9,3.1-4.5,4.1-7,3.1c-1.8-0.7-3.7-3.6-4-5.7c-0.8-5.6,0-11.1,5.7-14.3
	C593.5,597.9,596.3,596.9,598.2,600.6 M592.5,604.8c-0.4,0.6-0.9,1-1,1.6c-0.3,2.3-0.5,4.5-0.7,6.8c0.6-0.1,1.6-0.2,1.7-0.4
	c0.4-2.4,0.7-4.8,0.9-7.2C593.5,605.2,593.1,604.8,592.5,604.8"/>
<path d="M647.2,590.6c6.2,3,9.3,9,7.1,15c-0.8,2-3.9,4.6-5.6,4.4c-2.6-0.3-5.7-2.4-7-4.7c-1.6-2.6-2.3-6.3-2.1-9.5
	C639.9,591.9,642.6,589.6,647.2,590.6 M647.5,595.8c-1,0.1-2,0.1-3,0.1c0.9,2.9,1.8,5.8,2.8,8.7c0.1,0.2,1.2,0.2,1.3,0
	C650.1,601.8,650.2,599.1,647.5,595.8"/>
<path d="M295.5,578.3c1.3-1.6,2.6-2.8,3.9-4c0.5,0.7,1.5,1.4,1.4,2c0,1.4-0.2,3.1-1,4C297.4,583.3,296.6,580.2,295.5,578.3"/>
<path d="M299.5,503.3c-2.8,1-5.1,1.9-7.4,2.8c-1.7,0.7-3.6,1.8-5.4,1.8c-0.8-0.1-2.5-3.2-2.1-3.7c1.2-1.8,3-3.7,4.9-4.2
	c7.8-2.2,15.6-5.3,24-2.7c0.7,0.3,1.7,0.3,2.1,0.8c1.4,1.7,2.6,3.5,3.9,5.3c-2.1,0.1-4.1,0.4-6.1,0.3
	C308.9,503.7,304.4,503.5,299.5,503.3"/>
<path d="M272.5,508.3c1.3,1.2,2.1,2.3,3,3.4c-0.9,0.6-1.7,1.4-2.7,1.7c-4.9,1.7-9.9,3.1-14.8,5c-2.4,0.9-4.5,2.7-6.9,3.9
	c-0.3,0.2-1.1-0.4-1.6-0.6c1-2.5,1.3-5.9,3.2-7.2C258.4,510.7,264.8,508.1,272.5,508.3"/>
<path d="M301.2,532.1c-6-0.1-8.7-3-6.4-6.5c1.4-2,3.3-4.7,6.4-2.9c3,1.8,2.9,4.8,1.6,7.7C302.6,531,301.9,531.4,301.2,532.1"/>
<path d="M269.2,539.6c0.3,3,0.7,5.8,0,8.3c-0.2,1.1-2.9,2.5-4.2,2.2c-1.4-0.3-3.2-2.2-3.4-3.7C260.6,540.8,264.2,537.6,269.2,539.6"
	/>
<path d="M703.2,1068.6c-0.1-1.2-0.1-2.3,0.3-3c0.9-1.5,2-2.9,3-4.3c0.7,1.5,2,3,1.8,4.4C708,1068.2,706.7,1070.3,703.2,1068.6"/>
<path d="M508.7,1079.1c-0.3-4.2,2.6-3.8,5.1-3.7c0.6,0.1,1.7,1.9,1.6,2c-1,1.1-2.1,2.3-3.4,2.8
	C511.2,1080.5,510,1079.7,508.7,1079.1"/>
<path d="M562.5,990.3c0,5.2,0.9,10.2-0.3,14.6c-1.5,5.4-8.1,6-11.8,1.9c-3.7-4.1-5.2-14.2-3-18.9c2.1-4.3,5.3-6.2,10-5.6
	C561.9,982.9,561.4,987,562.5,990.3 M553,989.3c0.5,4.5,0.9,8.9,1.6,13.3c0.1,0.7,1.6,1.3,2.6,1.7c0.2,0,1.2-1,1.2-1.4
	c-0.4-4.6-0.7-9.2-1.7-13.7C556.2,986.7,555.7,986.8,553,989.3"/>
<path d="M603.5,989.3c0.1-2.9-0.6-5.8,0.5-7.7c1.7-2.8,4.3-6.1,7.2-7c4.8-1.5,6.6,3.4,7.6,6.8c1,3.7,0.4,7.9,0.7,11.9
	c0.2,4.2-2.7,5.3-6,6c-4.1,0.9-7.1-1-8.9-4.5C603.8,993.4,603.8,991.5,603.5,989.3 M610,980.3c-1.5,4.1-1.4,8.1,0.5,11.9
	c0.6,1,2.1,1.4,3.1,2.1c0.3-0.9,0.7-1.9,0.8-2.9c0.1-1.8,0.6-3.9-0.1-5.4C613.3,983.9,614.8,979.9,610,980.3"/>
<path d="M314.2,964.1c-1.8,1.6-3.2,3.6-4.9,4c-1.4,0.3-4.2-1-4.6-2.3c-1-2.6,0.2-5.3,3.5-5.4C310.6,960.4,314.7,958.6,314.2,964.1"
	/>
<path d="M259.2,910.3c0.1,0.4-0.1,0.7-0.3,1C258.9,911,258.9,910.7,259.2,910.3"/>
<path d="M339.7,912.6c3.7-0.3,7.9-1.1,6.6,4.6c-0.4,1.9-2.2,3.8-3.9,5c-0.7,0.5-3.6-0.7-3.9-1.6c-0.8-1.9-0.5-4.2-0.4-6.3
	C338.1,913.8,339,913.3,339.7,912.6"/>
<path d="M452.5,1153.3c-5.3,0.7-10,1.4-14.7,2c-3.7,0.5-4.2-1-2.4-4c2.2-3.5,4.4-7.1,6.3-10.8c0.7-1.4,0.5-3.1,0.7-4.7
	c-1.2,0.3-2.5,0.5-3.7,0.8c-0.2,0.1-0.3,0.4-0.4,0.4c-2.8-0.2-5.6-0.5-8.4-0.7c2.2-1.3,4.3-2.7,6.4-3.9c0.7-0.4,1.4-1,2.1-1
	c3.1-0.2,6.2-0.3,9.3-0.4c-0.2,3.4,0.1,6.9-0.7,10.1c-0.7,2.6-2.7,4.8-4.1,7.3c-0.2,0.5-0.1,1.1-0.2,1.7c0.5-0.3,0.9-0.7,1.5-0.7
	c2.5-0.4,5-1,7.5-0.9c1.3,0,2.5,1.3,3.8,2C454.6,1151.4,453.8,1152.4,452.5,1153.3"/>
<path d="M417.5,1171.3c-1,0.2-1.4,0.4-1.9,0.4c-2.7,0.1-5.4,0.2-8,0.2c0.6-2.2,1.1-4.4,1.9-6.6c0.7-2,1.9-3.9,2.3-6
	c0.5-2.1,0.4-4.4,0.5-6.6c-1.7,0.5-3.4,1.1-5.1,1.4c-1.5,0.3-3,0.3-4.4,0.2c-1-0.1-2-0.5-3-0.8c0.9-1.4,1.4-3.4,2.6-4
	c2.4-1.2,5-1.7,7.6-2.1c7-1.1,10.4,3.5,8,10.8c-0.7,2.2-2,4.1-3.1,6.2c-0.4,0.9-0.8,1.8-1.2,2.7c1.2,0.1,2.3,0.2,3.4,0.1
	c2.5-0.2,5.1-0.6,7.6-0.8c0.6,0,1.2,0.6,1.8,1c-0.5,0.6-0.8,1.7-1.4,1.9C422.8,1170.1,420.3,1170.7,417.5,1171.3"/>
<path d="M478.7,1139.6c0.7-1.5,1.1-2.8,1.5-4c-1.2,0.2-2.3,0.5-3.5,0.7c-1.8,0.4-3.7,1.1-5.5,0.9c-1.3-0.2-2.5-1.7-3.7-2.6
	c1-0.7,1.9-1.9,3.1-2.2c4.1-0.8,8.3-1.5,12.6-2c3-0.4,3.8,1.6,3.2,4c-0.6,2.2-1.8,4.2-2.8,6.3c-0.8,1.5-1.9,3-2.8,4.5
	c2,0,4,0,5.9,0.2c1.6,0.1,3.2,0.4,4.8,0.6c-1.3,1.1-2.3,3-3.7,3.2c-4,0.7-8.1,0.9-12.2,1.1c-3.3,0.2-2.5-1.4-1.4-3.3
	C475.7,1144.7,477,1142.2,478.7,1139.6"/>
<path d="M614.5,1272.3c1.8-4.1,2.3-7.6,1.1-11.8c-0.9-3.5-2.3-2.7-3.7-1c-2.1,2.7-4,5.6-5.3,8.7c-1.2,2.6-2.4,4.8-5.2,5.8
	c-2,0.7-3.2,0.8-2.9-1.9c0.7-7.1,1.5-14.3,2.2-21.5c0.4-3.9,0.4-7.8,0.8-11.7c0.2-1.9,0.6-4.5,1.9-5.4c2.5-1.8,5.3,0.2,5,3.5
	c-0.5,6-1.3,12.1-1.9,18.1c-0.1,0.8,0.3,1.5,0.5,2.2c0.6-0.2,1.2-0.4,1.7-0.7c1.6-1.1,3-2.7,4.7-3.2c4.9-1.4,8.3,1.5,9,7.4
	c0.7,5-1,9.4-3.6,13.5c-0.6,1-2.3,1.4-3.6,2C615,1275.2,614.7,1274,614.5,1272.3"/>
<path d="M679.5,1264.3c-0.7,5.6-1.2,10.8-2.1,15.8c-0.7,3.9-5.8,8.1-9.5,8.2c-4.1,0.1-7.5-1.6-9.1-5.3c-0.6-1.4,0.5-3.5,0.8-5.3
	c1.3,0.9,2.5,1.8,3.9,2.6c1.5,1,4.1,3,4.6,2.5c2.1-1.8,3.7-4.2,5.3-6.5c0.4-0.6,0.1-1.7,0-2.5c0-1.1-0.2-2.2-0.3-3.3
	c-0.8,0.7-1.6,1.9-2.5,2.1c-2.6,0.6-5.6,1.7-8,1c-1.5-0.4-2.7-3.7-3.1-5.8c-1.5-8.5,8.6-15.3,15.5-12.6
	C679.4,1257,678.3,1260.8,679.5,1264.3 M669,1260.3c-0.2,0-0.5,0-0.5,0.1c-1.4,2.3-2.8,4.5-3.9,6.9c-0.2,0.3,1.9,2.1,2.1,1.9
	c2-1.4,4.2-2.8,5.7-4.8C674.7,1261.2,673.4,1259.5,669,1260.3"/>
<path d="M630.5,1262.3c0.5-3,0.7-5.9,1.9-8.1c0.7-1.4,3-1.9,4.6-2.8c0.4,1.6,1.2,3.2,1.1,4.7c-0.3,3.8-1.1,7.6-1.6,11.3
	c-0.1,0.6,0.2,1.3,0.4,1.9c0.4-0.5,1.1-0.8,1.4-1.3c2.1-3.8,4-7.7,6.2-11.4c0.9-1.5,2.1-2.9,3.2-4.3c0.7,1.4,1.9,2.6,2.1,4
	c0.7,5.6,1.4,11.2,1.5,16.8c0,1.4-2.4,2.8-3.6,4.2c-0.8-1.5-1.7-3-2.2-4.6c-0.5-2.1-0.7-4.2-1-6.4c-1.1,1.6-2.2,3.3-3.3,4.8
	c-0.6,0.8-1.3,1.7-2.2,2.1c-1.7,0.8-3.9,2-5.4,1.5c-1.3-0.4-2.7-2.7-3-4.4C630.1,1267.9,630.5,1265.3,630.5,1262.3"/>
<path d="M375.5,1266.3c-2.6,4.4-4.9,8.6-7.8,12.2c-2.9,3.6-6.6,3.8-10.6,1.1c-3.5-2.4-4.5-6-3.5-9.4c1.3-4.3,3.3-8.8,6.1-12.4
	c4-5,9.4-6,13.5-3.1C377.3,1257.5,376.8,1261.7,375.5,1266.3 M370.5,1265.8c0-1,0-2-0.1-2.9c-0.1-1.6-0.5-3.1-0.7-4.6
	c-1.9,0.7-4.6,0.8-5.5,2.1c-2.4,3.2-4.2,6.9-5.5,10.6c-0.4,1.1,1.3,3.7,2.7,4.5c1,0.5,3.7-0.3,4.6-1.4
	C367.7,1271.8,368.7,1269,370.5,1265.8"/>
<path d="M372.2,1320.6c4.7,5,9.2,9.8,13.6,14.6c1.2,1.3,2.1,2.8,3.1,4.2c-2.2,0-5.3,1.1-6.6,0c-4.9-4.2-10.2-8.4-13.7-13.7
	c-5.4-8.1-10.3-16.7-11.1-26.8c-0.1-1.5,0-3.1,0.5-4.5c0.3-0.9,1.7-1.4,2.5-2.1c0.3,1,0.6,2,1,2.9
	C364.9,1303.6,368.5,1312,372.2,1320.6"/>
<path d="M431.7,1290.1c-8.7-4.2-10.1-16.9-2.8-22.8c4.1-3.2,11.9-0.4,12.4,4.9c0.4,4.3-0.6,8.9-1.6,13.2
	C438.8,1289.2,435.7,1290.5,431.7,1290.1 M429.5,1281.8c1.3,1.2,2.6,2.4,3.9,3.5c0.7-1.5,1.7-3.1,2-4.7c0.3-2.3,0.3-4.7,0-6.9
	c-0.3-2.1-1.2-3.2-3.6-1.4C428.7,1274.7,429.6,1277.8,429.5,1281.8"/>
<path d="M389.2,1318.6c1.4,1.8,2.6,3.3,3.7,4.8c-2.8-0.2-6.7,0.7-8.2-0.8c-4.3-4.2-7.8-9.2-11.2-14.2c-2.5-3.7-4.5-7.8-6.2-11.9
	c-0.7-1.6,0.1-3.8,0.2-5.7c1.5,0.9,3.6,1.4,4.4,2.7c4.1,6.1,7.6,12.5,11.6,18.6C385,1314.4,387.1,1316.3,389.2,1318.6"/>
<path d="M389.7,1298.1c3.7,4.3,7.2,8.3,10.4,12.5c1,1.4,0.9,3.5,1.3,5.3c-1.7-0.4-3.9-0.3-5.1-1.3c-8.2-7.5-14.4-16.4-19.3-26.3
	c-0.5-1.1,0-2.6,0.1-4c1.4,0.5,3.5,0.5,4.2,1.5C384.3,1289.6,386.8,1293.8,389.7,1298.1"/>
<path d="M401.2,1291.6c3.7,4.3,7.3,8.2,10.3,12.5c0.9,1.3,0.1,3.8,0,5.7c-1.3-0.6-2.9-0.8-3.7-1.8c-6.7-7.4-13.3-15-19.7-22.7
	c-1-1.2-0.5-3.5-0.7-5.4c1.6,0.6,3.6,0.7,4.7,1.7C395.2,1284.7,398,1288.1,401.2,1291.6"/>
<path d="M322.5,1195.6c0.3-0.4,0.6-0.6,1-1c0.6,0,1.2,0.2,1.8,0.4c-2.4,2.8-4.8,5.5-7.3,8.2c-0.2,0.2-0.9-0.1-1.3-0.1
	c0.2-0.4,0.3-0.8,0.6-1.1C319,1200,320.7,1197.9,322.5,1195.6"/>
<path d="M579.8,1245.8c1.5,0,3.1-0.3,4.5,0c1.3,0.3,2.4,1.2,3.5,1.8c-1,0.7-2.1,2-3.2,2.1c-2.4,0.1-3.6,0.1-1,2.4
	c0.7,0.6,1.1,1.9,1.2,2.9c0.1,1.2-0.3,2.5-0.5,3.8c-0.9-0.6-2-1-2.7-1.8c-2.8-3.2-5.4-5.3-8.4-0.2c-0.4,0.7-1.5,1.2-2.3,1.4
	c-1,0.2-2,0-3.1,0.1c0.3-0.9,0.2-2.2,0.8-2.7c4.6-3.8,4.9-5.5-2-5c-1.1,0.1-2.5-1.9-3.8-3c1.4-0.6,2.7-1.7,4-1.7
	c2.2-0.1,4.4,0.6,6.6,0.8c0.4,0.1,0.9-0.2,1.3-0.3c-0.2-0.4-0.5-0.8-0.8-1.1c-1.5-1.5-3.1-2.9-4.5-4.5c-0.6-0.8-0.9-1.8-1.3-2.8
	c1.2,0.1,2.4,0.1,3.7,0.2c0.2,0.1,0.5,0.4,0.7,0.7c1.1,2,2.2,3.9,3.3,5.9c0.7-2.1,1.2-4.3,2.2-6.3c0.3-0.6,1.9-0.8,2.9-0.6
	c0.4,0,1,1.5,0.9,2.2c-0.5,1.8-1.3,3.5-2.2,5.4c-0.3,0.6-0.3,0.9-0.3,1.2C579.5,1246.4,579.7,1246.1,579.8,1245.8"/>
<path d="M706.4,1259.9c1.5,0,3.1-0.3,4.5,0c1.3,0.3,2.4,1.2,3.5,1.8c-1,0.7-2.1,2-3.2,2.1c-2.4,0.1-3.6,0.1-1,2.4
	c0.7,0.6,1.1,1.9,1.2,2.9c0.1,1.2-0.3,2.5-0.5,3.8c-0.9-0.6-2-1-2.7-1.8c-2.8-3.2-5.4-5.3-8.4-0.2c-0.4,0.7-1.5,1.2-2.3,1.4
	c-1,0.2-2,0-3.1,0.1c0.3-0.9,0.2-2.2,0.8-2.7c4.6-3.8,4.9-5.5-2-5c-1.1,0.1-2.5-1.9-3.8-3c1.4-0.6,2.7-1.7,4-1.7
	c2.2-0.1,4.4,0.6,6.6,0.8c0.4,0.1,0.9-0.2,1.3-0.3c-0.2-0.4-0.5-0.8-0.8-1.1c-1.5-1.5-3.1-2.9-4.5-4.5c-0.6-0.8-0.9-1.8-1.3-2.8
	c1.2,0.1,2.4,0.1,3.7,0.2c0.2,0.1,0.5,0.4,0.7,0.7c1.1,2,2.2,3.9,3.3,5.9c0.7-2.1,1.2-4.3,2.2-6.3c0.3-0.6,1.9-0.8,2.9-0.6
	c0.4,0,1,1.5,0.9,2.2c-0.5,1.8-1.3,3.5-2.2,5.4c-0.3,0.6-0.3,0.9-0.3,1.2C706.1,1260.5,706.3,1260.2,706.4,1259.9"/>
</svg>
