<?xml version="1.0" encoding="utf-8"?>
<!-- Generator: Adobe Illustrator 23.1.0, SVG Export Plug-In . SVG Version: 6.00 Build 0)  -->
<svg version="1.1" id="Contours" xmlns="http://www.w3.org/2000/svg" xmlns:xlink="http://www.w3.org/1999/xlink" x="0px" y="0px"
	 viewBox="0 0 1055.4 938.5" style="enable-background:new 0 0 1055.4 938.5;" xml:space="preserve">
<desc  xmlns:shape="http://adobe.com/products/shape"></desc>
<path d="M1046,0c1.8,0,3.7,0,5.7,0.3C1052,4,1052,7.5,1052,11c0,5.7,0,11.5,0,17.2c-0.1,5.5,3.4,11.3-1.8,16.6
	c-1,0.9,0.9,4.2,0.7,6.4c-0.4,6.7-1.5,13.4-1.8,20.2c-0.6,10.3-0.8,20.6-1.1,30.9c-0.3,9-0.7,18.1-1,27.1c-0.7,17.6-1.5,35.1-2,52.7
	c-0.2,9.6,0.1,19.3,0,29c-0.3,30.7-0.7,61.4-1,92.1c0,3,0,6.1,0,9.1c0,14.4-0.1,28.8,0,43.2c0.2,12.4,0.7,24.8,1,37.3
	c0.4,18.3,0.5,36.7,1,55c0.5,14.9,1.6,29.8,1.9,44.7c0.6,24.9,0.6,49.7,1.2,74.6c0.2,11.4,1.4,22.8,1.8,34.2
	c0.6,13.2,0.9,26.4,1.1,39.6c0.1,16.1-0.1,32.3,0,48.5c0.2,13.7,1,27.4,0.9,41.1c-0.1,27.8-0.5,55.7-0.9,83.5
	c-0.1,4.6-0.7,9.1-1,13.6c-0.7,11.4-1.7,22.8-1.9,34.2c-0.6,22-0.7,44.1-1.1,66.1c-0.2,10.5-0.3,10.6-10.4,9.1c-0.4,0-0.7,0-1,0
	c-12.1-0.3-24.1-0.6-36.1-1c-6.9-0.2-13.8-0.7-20.6-1c-15.2-0.7-30.5-1.4-45.7-2c-8.8-0.4-17.7-0.8-26.6-1
	c-10.3-0.1-20.5,0.3-30.8-0.1c-9.9-0.3-19.8-1.3-29.7-1.9c-14.5-0.7-29.1-1.4-43.7-2c-15.8-0.7-31.7-1.4-47.6-2
	c-9.2-0.4-18.4-0.6-27.6-1c-13.3-0.6-26.6-1.3-39.9-2c-10.5-0.6-21.1-1.5-31.6-2c-24.8-1.1-49.6-2.1-74.5-3
	c-20.8-0.7-41.7-1.3-62.6-2c-11.9-0.4-23.7-0.7-35.6-1c-11.5-0.3-23.1-0.7-34.6-1c-14.5-0.4-29.1-0.6-43.6-1
	c-19-0.6-38.1-1.3-57.2-2c-10.1-0.3-20.3-0.9-30.5-1c-16.5-0.1-33,0.1-49.5,0c-4.9-0.1-9.8-0.5-14.6-1c-12-1.3-23.9-2.8-35.9-4
	c-8.5-0.8-17.1-1.2-25.6-2c-15.2-1.6-30.3-3.4-45.5-5c-11.7-1.1-23.5-2.2-35.2-2.9c-10.2-0.7-20.4-0.9-30.6-1.1
	c-14.5-0.1-29,0-43.5,0c-2.8,0-5.7,0.7-8.5,0.7c-6.1-0.1-12.2-0.8-18.3-0.6c-5,0.2-7-1-6.9-5.9c0.3-14,0.7-28,1-42.1
	c0.1-9.1,0.1-18.2,0-27.3c-0.2-12.1-0.9-24.3-0.8-36.4c0-16.3,0.7-32.5,0.7-48.8c0-12-0.6-24-0.9-36.1c-0.7-25.7-1.3-51.4-2-77.1
	c-0.3-12.9-0.9-25.8-0.9-38.6C1,572.6,1.8,563.4,2,554.2c0.4-18.7,0.7-37.4,0.9-56.1c0.1-3.2-0.8-6.4-0.9-9.6c-0.1-9,0.1-18,0-27
	c-0.3-14.4-0.9-28.7-1-43.1c-0.1-27.7,0.1-55.3,0-83c-0.2-19.2-0.8-38.5-0.9-57.7c-0.1-7,0.6-13.9,0.9-20.8
	c0.7-21.6,1.3-43.1,2-64.7c0-1.6-0.1-3.3,0-5c1.3-14.6,3.4-29.3,3.8-44c0.9-27,0.9-54,1.2-81.1c0-5.7,0-11.5,0-17.3
	c-0.1-5.2,1.8-8,6.8-8.7c8.4-1.3,16.9-2.4,25.3-3c9.7-0.7,19.4-0.7,29.1-1.1c14.7-0.6,29.4-1.3,44.2-2c12.5-0.6,25.1-1.3,37.6-2
	c11.1-0.6,22.1-1.4,33.2-2c9.9-0.4,19.7-1,29.6-0.9c24,0.1,48,0.7,72.1,0.8c6.7,0.1,13.4-0.6,20.1-0.9c4.5-0.1,9.1,0.1,13.6,0
	c21.2-0.6,42.4-1.9,63.5-1.9c39.4,0,78.8,0.7,118.1,0.9c57.1,0.1,114.2,0.1,171.2,0c45.6-0.2,91.2-0.9,136.8-0.9
	c28.7-0.1,57.4,0.5,86.1,0.9c23.2,0.3,46.3,0.6,69.5,1c11.3,0.2,22.6,0.6,33.8,1c4,0.2,8,0.7,12,1.1c9.8,1,19.6,2.1,29.4,2.8
	c2.4,0.2,5-0.7,5-4.3C1045.2,17.1,1045.7,8.5,1046,0 M888.5,395c0.2-0.3,0.3-0.7,1-1c0.8-1,1.7-2,3-3c0-0.3,0-0.6,0.1-0.9
	c-0.2,0.3-0.4,0.6-1.1,0.9c-0.8,1-1.7,2-3,3c-0.2,0.3-0.3,0.7-1,1c0,0.3-0.1,0.6-0.1,0.9C887.6,395.6,887.8,395.3,888.5,395
	 M973.5,387c0.2-0.3,0.3-0.7,1-1c0-0.3,0-0.6,0.1-0.9c-0.2,0.3-0.4,0.6-1.1,0.9c-0.2,0.3-0.3,0.7-1,1c0,0.3-0.1,0.6-0.1,0.9
	C972.6,387.6,972.8,387.3,973.5,387 M937.5,458c-0.2,0.3-0.3,0.7-1,1c0,0.3-0.1,0.6-0.1,0.9c0.2-0.3,0.4-0.6,1.1-0.9
	c0.2-0.3,0.3-0.7,1-1c0-0.3,0-0.6,0.1-0.9C938.4,457.4,938.2,457.7,937.5,458 M947.5,338c0.2-0.3,0.3-0.7,1-1c0.2-0.3,0.3-0.7,1-1
	c0-0.3,0-0.6,0.1-0.9c-0.2,0.3-0.4,0.6-1.1,0.9c-0.2,0.3-0.3,0.7-1,1c-0.2,0.3-0.3,0.7-1,1c-0.2,0.3-0.3,0.7-1,1c-0.5,0.7-1,1.3-2,2
	c-0.8,0.7-1.7,1.3-3,2c0,0.3-0.1,0.6-0.1,0.9c0.2-0.3,0.4-0.6,1.1-0.9c0.8-0.7,1.7-1.3,3-2c0.5-0.7,1-1.3,2-2
	C946.7,338.7,946.8,338.3,947.5,338 M916.5,484c0.2-0.3,0.3-0.7,1-1c5.8-6.8,11.7-13.7,17.5-20.5c0.3-0.4,0.4-1,0.6-1.4
	c-0.6,0.2-1.3,0.2-1.7,0.6c-5.3,5.5-10.7,11.1-15.8,16.8c-0.9,1-0.8,3-1.6,4.5c-0.2,0.3-0.3,0.7-1,1c0,0.3-0.1,0.6-0.1,0.9
	C915.6,484.6,915.8,484.3,916.5,484 M965.5,395c-0.2,0.3-0.3,0.7-1,1c-0.6,0.6-1.2,1.1-1.7,1.7c-0.6,0.7-1,1.4-1.5,2.1
	c0.9-0.4,2-0.7,2.6-1.3c0.6-0.6,0.8-1.7,1.6-2.5c0.2-0.3,0.3-0.7,1-1c0-0.3,0-0.6,0.1-0.9C966.4,394.4,966.2,394.7,965.5,395
	 M797.5,590c0,0.6-0.1,1.3-0.1,1.9c0.2-0.6,0.4-1.3,1.1-1.9c0-0.3,0-0.6,0.1-0.9C798.4,589.4,798.2,589.7,797.5,590 M581.5,821
	c-0.5,0.8-1,1.6-1.5,2.4c0,0,0.4,0.3,0.6,0.5c0.5-1,0.9-1.9,1.9-2.9c0-0.3,0-0.6,0.1-0.9C582.4,820.4,582.2,820.7,581.5,821
	 M949.5,443c0.8-0.5,1.6-1.1,2.4-1.6c-0.5-0.2-1.1-0.5-1.3-0.4c-0.6,0.6-1.1,1.3-2.1,2c0,0.3-0.1,0.6-0.1,0.9
	C948.6,443.6,948.8,443.3,949.5,443 M993.5,386c0.8-0.8,1.6-1.6,2.4-2.4c-0.3-0.2-1-0.6-1-0.6c-0.7,1-1.3,2-2.4,3
	c0,0.3-0.1,0.6-0.1,0.9C992.6,386.6,992.8,386.3,993.5,386 M806.5,590c-0.5,0.5-1,0.9-1.4,1.4c-0.6,0.8-1.2,1.6-1.8,2.4
	c1.2-0.4,2.6-0.7,3.6-1.4c0.4-0.3,0.1-1.6,0.6-2.4c0.5-0.7,1-1.3,2-2c0.3,0.3,1,0.9,1,0.9c3.9-3.1,7.9-6,11.4-9.5
	c4-3.8,7.4-8.2,11.1-11.9c0.3,0,0.6,0,0.9,0.1c-0.3-0.2-0.6-0.4-0.9-1.1c1.6-1.6,3.4-3.1,4.8-4.9c0.7-0.9,0.6-2.2,0.9-3.4
	c-1,0.6-2.3,0.9-3.1,1.7c-6.5,6.5-13.1,13-19.5,19.6c-2.6,2.6-4.8,5.7-7.6,8.5C808,588.7,807.5,589.3,806.5,590 M922,537.5
	c0.4,0.5,0.7,1,1.1,1.5c0.1,0,0.5-0.3,0.8-0.4c-0.7-0.5-1.3-1.1-1.9-2.1c-2-1.8-4-3.7-6-6c-0.3,0-0.6,0-0.9-0.1
	c0.3,0.2,0.6,0.4,0.9,1.1C918,533.3,920,535.2,922,537.5 M436,547.5c0.3,0,0.6,0,0.9,0.1c-0.3-0.2-0.6-0.4-0.9-1.1
	c-2.7-1.8-5.4-3.7-8.2-5.4c-0.3-0.3-1.1,0.2-1.7,0.3c0.2,0.2,0.3,0.5,0.6,0.6C429.8,543.7,432.9,545.3,436,547.5 M549,317.5
	c0.3,0,0.6,0,0.9,0.1c-0.3-0.2-0.6-0.4-0.9-1.1c-0.3-2.2-0.5-4.4-1.1-6.5c-0.2-0.8-1.5-1.3-2.2-2c-0.3,0.9-0.9,1.9-0.6,2.5
	C546.2,312.8,547.7,314.9,549,317.5 M444,421.5c0.3,0,0.6,0,0.9,0.1c-0.3-0.2-0.6-0.4-0.9-1.1c-1.1-3.8-1.4-8.4-7-9
	c-2.4-0.8-4.7-1.6-7-2.6c-0.5-0.2-1-1.2-0.9-1.7s0.9-1.1,1.5-1.2c6.9-1.2,15.6,3.5,17.3,10.1c1.2,4.7,3.8,6,8.2,5.9
	c10-0.1,20.1-0.3,30.1,0.1c11.8,0.3,23.6,1.3,35.4,1.9c1.1,0,2.9-0.2,3.3-0.9c2.8-4.9,7.5-6.7,12.4-8c4.2-1.2,6.4-3.4,5.7-7.9
	c-0.4-3.2-1-6.4-0.9-9.6c0.1-9,0.6-18.1,0.9-27.1c0.4-12.4,0.7-24.7,1-37.1c0-3.4,0.6-7.3-0.8-10.1c-0.8-1.7-5.1-1.4-7.7-2.4
	c-7.5-2.7-10.5-9.2-7.6-15.4c1.6-3.4,3.5-5.4,7.7-3.6c2,0.9,4.3,0.8,6.6,1.1c3,0.3,6.1,0.4,9.1,0.8c6.9,1,13.8,3,20.7,3
	c10.8,0,20.5,2.7,30,7.5c3.8,2,5.1,5.1,3.8,8.2c-1.1,2.7-4.3,6.2-6.6,6.2c-11.6,0.1-23.4,2.5-34.9-1.6c-2-0.7-4.9-1-4.4,3.3
	c0.3,3-0.9,6.1-0.8,9.1c0.2,15.8,0.7,31.5,0.8,47.3c0.1,8.3-0.7,16.7-0.8,25.1c0,1,1.2,2.7,2.2,3c4.1,1.2,8.7,1.5,12.6,3.3
	c4,1.8,3.2-0.6,3.1-2.6c-0.6-14.1,1-27.9,5.1-41.4c1.8-6,5.6-11.2,12.2-12c9.5-1.3,18.9,0.1,27.6,4.3c6.8,3.4,13.5,7.2,19.6,11.7
	c6.2,4.7,12.3,9.6,14.3,18c2.2,9.2-6.5,19.8-15.7,17.6c-6.6-1.5-12.8-4.3-19.1-6.9c-3.1-1.2-4.9-1.5-5,2.6c-0.2,6-1,12-0.8,17.9
	c0,1.6,2.2,4.2,3.7,4.4c10.9,1.7,21.9,3.1,32.8,4.1c14.4,1.3,28.9,2.2,43.3,3c3.2,0.2,5.8,1.3,5.7,4.6c0,0.9-3.6,2.4-5.5,2.4
	c-5.3-0.3-10.5-1.5-15.7-1.9c-14.8-1.1-29.5-2.1-44.3-3c-8.3-0.5-16.7-0.6-25.1-1c-3.5-0.2-7.2,0-10.5-1.1c-15-5-30.6-5.5-46.1-6.8
	c-11.7-1-23.5-1.5-35.2-2.1c-13.2-0.7-26.5-1.4-39.7-2c-12.1-0.5-24.3-0.7-36.4-0.9c-1.1,0-2.1,1-3.2,1.5c0.8,1.1,1.5,3.1,2.5,3.2
	c2.8,0.5,5.8,0,8.6,0.2c14,1,27.9,2.1,41.8,3c13.7,0.8,27.4,1.4,41.2,2c12.3,0.4,24.7,0.7,37,1c0.6,0,1.2,0.3,1.9,0.5
	c-0.6,0.1-1.2,0.4-1.7,0.5c-1.6,0.3-3.1,1-4.6,0.9c-9.8-0.2-19.6-0.6-29.5-0.9c-0.4,0-0.8,0.4-1.2,0.5c0.5,0.2,0.9,0.4,1.3,0.5
	c6.9,0.7,13.8,1.5,20.7,2c11.6,0.8,23.2,1.4,34.8,2c12.8,0.7,25.5,1.4,38.2,2c9,0.4,18.1,0.6,27.1,1c11.1,0.6,22.1,1.3,33.2,2
	c3.1,0.2,6.1,0.7,9.2,1c4.3,0.4,7.9,0,11-3.8c3.2-4,7.3-7.3,10.7-11.1c1-1,2-3,1.7-4.2c-2.2-7.5-0.7-15.2-0.8-22.8
	c-0.1-7,4.2-12.1,9.4-15.9c4.3-3.2,10.3-0.8,16.4,5.2c4.8,4.8,6.3,4.6,10.1-0.9c0.8-1.2,1.2-2.5,2-3.7c2.3-3.4,5.4-5.2,9.3-2.9
	c8.5,4.9,17.4,9.4,25.1,15.3c10.5,8,20.2,16.9,29.9,25.7c10.1,9,19.8,18.4,29.6,27.5c3.5,3.2,4.5,2.9,6.1-1.3
	c4.2-10.7,8.4-21.5,12.6-32.2c0.3-0.8,0-1.8,0.1-2.7c-0.8,0.3-1.7,0.6-2.4,1.1c-0.8,0.6-1.5,1.3-2.2,2.1
	c-4.7,5.7-9.5,11.3-14.1,17.1c-1.6,2.1-3,3.6-5.5,1.5c-4.3-3.7-4.8-7.7-1-12c7.1-7.9,14.3-15.6,21.4-23.4c8-8.7,15.9-17.5,24.1-26
	c5.9-6.1,12.2-11.6,18.3-17.4c1.4-1.5,2.4-3.5,3.9-4.9c5.3-4.7,10.7-9.4,16.1-14.1c7.8-6.8,15.3-13.9,23.5-20.3
	c7-5.5,14.3-11.1,22.2-15.1c10.5-5.4,21.6-9.8,32.7-13.9c8.2-2.9,16.7-6.2,25.7-2.1c2.2,1,2.6-0.3,2.6-2.4c0.3-14.4,0.8-28.8,1-43.2
	c0.4-28.6,0.6-57.1,1-85.6c0.1-8.1,0.7-16.1,1-24.1c0.4-12.9,0.6-25.7,1-38.6c0.2-7.7,0.7-15.4,1-23.1c0.4-12.2,0.6-24.4,1-36.6
	c0.1-2.4-0.3-3.2-3.1-3.3c-7.5-0.3-15-1.3-22.5-1.9c-14.1-1-28.1-2.3-42.2-2.9c-10.3-0.5-20.6-0.1-30.8-0.2
	c-29.4-0.6-58.8-1.4-88.2-1.8c-19.3-0.3-38.6-0.1-57.9-0.1c-5.1,0-10.2-0.1-15.3,0c-13.1,0.3-26.2,1-39.3,0.9
	c-83.1-0.2-166.2-0.6-249.2-0.9c-30.3-0.1-60.5-0.3-90.7,0.1c-29.2,0.3-58.5,1.4-87.7,1.9c-47.4,0.7-94.8-1.6-142.2,2
	c-11,0.8-22.1,1.4-33.1,2c-12.9,0.7-25.8,1.5-38.7,2c-14.3,0.5-28.7,0.5-43.1,1c-12.7,0.5-25.4,1.2-38.1,2.1c-2.6,0.2-6,0.2-6,5
	C15.8,68,15.3,88.8,15,109.7c0,3.3,0.9,6.7,1,10.1c0.1,18.7-1.2,37.3-3.8,55.8c-1.6,11.1-1.6,22.5-2.2,33.7
	c-0.7,13.4-1.9,26.8-1.9,40.1C8.2,305,8.6,360.5,9,416c0.1,13.1,1,26.1,0.9,39.1c-0.1,24.5-0.8,49.1-0.8,73.6
	c0,25.2,0.5,50.4,0.9,75.6c0.2,10.2,0.8,20.5,1,30.7c0.1,10.2-0.1,20.4,0,30.5c0.1,3.1,1,6.2,0.9,9.3c-0.1,6.9-1,13.7-0.8,20.6
	c0.3,9.6,1.8,19.2,1.8,28.8c0,18.9-0.8,37.7-0.9,56.6c-0.1,32,0,64-0.1,96c0,2.4-0.6,4.7-0.9,7.1c-0.3,2.7-0.1,4.4,3.7,4.2
	c7.7-0.4,15.5-0.2,23.3-0.1c19.5,0.3,39.1,0.6,58.6,1c4.7,0.1,9.4,0.7,14.1,1c14.9,1,29.8,1.9,44.7,3c6.6,0.5,13.2,1.3,19.7,2
	c11.8,1.3,23.6,2.8,35.4,4c8.3,0.8,16.7,1.4,25.1,2c15.9,1,31.8,2.2,47.8,2.9c14.7,0.7,29.4,0.7,44.1,1.1c18.7,0.6,37.4,1.4,56.1,2
	c16.9,0.4,33.8,0.6,50.6,1c9.9,0.3,19.7,0.7,29.6,1c20.8,0.7,41.6,1.3,62.3,2c11.3,0.4,22.5,0.6,33.8,1c18.9,0.6,37.9,1.3,56.8,2
	c15.3,0.6,30.6,1.3,45.9,2c11.5,0.6,23.1,1.4,34.6,2c13.3,0.7,26.5,1.4,39.7,2c16.2,0.7,32.5,1.3,48.7,2c14.4,0.6,28.9,1.3,43.3,2
	c7.9,0.4,15.7,0.7,23.6,1c13.4,0.4,26.7,0.6,40.1,1c7.9,0.3,15.7,0.7,23.6,1c16.4,0.7,32.8,1.4,49.1,2c10.1,0.4,20.1,0.7,30.1,1
	c13.6,0.4,27.1,0.5,40.6,1.1c4.8,0.2,5.9-1.9,6-6c0.3-11,1-22.1,0.9-33.1c-0.1-24.3,0.9-48.5,2.8-72.8c1.4-17.2,0.4-34.7,0.3-52.1
	c-0.2-19.5-0.8-39.1-1-58.6c-0.4-33.5-0.5-67-1.1-100.6c-0.2-13.9-1.5-27.7-1.8-41.6c-0.6-21.2-0.7-42.4-1.1-63.6
	c-0.2-10-0.7-20.1-1-30.1c-0.4-11-0.8-22.1-1-33.1c-0.4-20.2-0.7-40.5-1-60.7c0-0.7,0-1.4,0-2c0-10.6,0.1-21.2-0.1-31.7
	c0-3.2-0.6-6.4-0.9-9.6c-0.1-0.5-0.2-0.9-0.4-1.4c-0.2,0.5-0.5,1-0.7,1.5c-2.1,5.4-3.3,11.4-6.5,16.2c-8.1,12.3-16.8,24.2-25.7,35.9
	c-11.6,15.3-23.4,30.4-35.3,45.3c-8.3,10.4-16.9,20.4-25.5,30.5c-4.2,5.1-8.6,10.2-12.9,15.2c-6.7,7.7-13.4,15.5-20.4,22.9
	c-1.1,1.1-5,0.7-6.6-0.4c-3.2-2.2-5.7-5.4-8.5-8.2c-0.5-0.5-1-1.7-0.7-1.9c6.4-7.1,13.1-14,19.6-21c11.9-12.9,23.8-25.8,35.7-38.7
	c1.3-1.3,3.2-3.4,4.5-3.2c4.4,0.5,6.3-2.6,8.6-4.9c2.6-2.7,5-5.6,7.4-8.5c5.2-6.1,10.3-12.3,15.4-18.6c1-1.2,1.7-2.7,2.6-4.1
	c-1.4,0.6-2.7,1.3-4.1,1.9c-0.4,0.1-1,0-1.5-0.5c2.5-2.8,4.9-5.6,7.4-8.4c3.9-4.2,8-8.2,11.6-12.7c5.7-7,10.8-14.5,16.7-21.5
	c6.9-8.2,12-17.2,14.2-27.6c0.3-1.3-1-2.9-1.5-4.3c-0.8,0.8-1.9,1.5-2.4,2.5c-9.3,17.9-21.5,34-34,49.8c-11.3,14.3-23,28.3-35,42
	c-13.2,15.2-26.8,30-40.6,44.7c-9.1,9.7-18.8,18.9-28.3,28.3c-2,2-3.1,3.4-0.4,6c5.2,5.2,10.2,10.6,15.1,16.1
	c8.2,9.1,15.8,18.7,24.6,27.2c11.4,11.1,19.2,24.2,25.8,38.4c2.2,4.8,1.9,7.9-1.9,11.2c-10.4,9.3-20.5,18.8-31,27.9
	c-5.8,5-12,9.5-18.1,14.2c-2,1.6-1.4,2.8,0.7,3c2.6,0.3,5.2-0.4,7.8-0.3c6.6,0.3,13.1,0.6,19.6,1c2.9,0.2,5.8,0.5,8.6,1.1
	c0.9,0.2,1.4,1.8,2.1,2.7c-0.7,0.4-1.4,1.1-2.1,1.1c-5.8,0.1-11.6,0.1-17.3,0.1c-7.7,0-15.4,0.1-23-0.1c-2.9,0-4.8,0.9-7,2.8
	c-5.3,4.6-8.6,11.7-16.3,13.6c-0.6,0.1-0.9,1.2-1.3,1.9c0.7,0.3,1.3,0.6,2,0.8c8.3,2.3,16.7,4.6,25,7.1c0.9,0.2,1.4,1.5,2,2.3
	c-0.7,0.5-1.5,1.5-2.2,1.5c-2,0-4.1-0.5-6.1-0.7c-4.2-0.4-8.3-0.9-12.4-0.9c-2.6,0.1-5.2,1.1-7.8,1.7c-2.1,0.5-4.3,0.9-6.4,1.4
	c1.8,0.6,3.7,1.2,5.6,1.8c0.3,0.1,0.4,0.5,0.7,0.7c0.8,0.4,1.7,0.8,2.6,1.2c-1,0.3-2,0.9-2.9,0.9c-10.7-0.3-21.4-0.9-32.1-1
	c-19.8-0.1-39.7,0-59.5,0c-1.2,0-2.6,0.4-3.5-0.1c-1.5-0.8-2.7-2.2-4-3.4c1.3-0.8,2.5-2.3,3.8-2.4c3.2,0,6.4,0.8,9.6,0.9
	c24.4,0.7,48.8,1.3,73.2,2c1.1,0,2.2-0.3,3.3-0.4c-1.1-0.5-2.1-1.1-3.3-1.4c-0.7-0.2-1.6-0.1-2.4-0.2c-7.2-1-14.5-2-21.7-3
	c-0.9-0.2-1.6-1-2.4-1.4c0.7-0.5,1.4-1.2,2.3-1.4c1.2-0.3,2.6-0.3,3.9-0.2c11,0.7,22.1,1.4,33.1,2c1.2,0,2.4-0.5,3.6-0.7
	c-1-0.8-2-2-3.1-2.2c-4.9-0.9-9.8-1.8-14.7-2c-13.5-0.6-26.9-0.9-40.4-1.1c-17.9-0.1-35.7,0-53.5,0c-1.7-0.1-3.7-0.2-5-1.1
	c-1.7-1.1-2.9-3.1-4.3-4.7c1.8-0.4,3.7-1.2,5.5-1.1c8.3,0.5,16.5,1.6,24.7,1.8c15.3,0.3,30.7-0.2,46,0.2c7.8,0.3,15.5,1.9,23.3,2.9
	c1.1,0.1,2.2-0.2,3.3-0.3c-0.6-0.9-1.3-1.8-2-2.7c-0.5-0.7-1.2-1.4-1.8-2c0.8-0.4,1.5-0.7,2.3-1c1-0.4,2.1-0.6,3.1-1
	c0.9-0.4,1.7-0.8,2.6-1.2c-1-0.6-2.1-1.7-3.1-1.7c-3.3,0.1-6.7,0.8-10.1,0.9c-24.8,0-49.6,0-74.5,0c-1.1,0-2.6,0.4-3.4-0.1
	c-1.2-0.8-2-2.3-2.9-3.5c1-0.5,1.9-1.2,2.9-1.3c2.2-0.2,4.5-0.1,6.7-0.1c20.8-0.3,41.7-0.8,62.6-0.9c7.3-0.1,14.7,0.6,22,0.9
	c2.5,0.1,9.8-8.8,8.7-9.3c-2.2-0.8-4.9,0.1-7.3,0.3c-1.2,0.1-2.4,0-3.5,0c-12.4,0-24.7,0-37.1,0c-16.5,0-33.1,0-49.6,0.1
	c-1.5,0-3.3,0.5-4.3,1.5c-12.3,11.1-25.8,20-42.1,24c-2,0.4-3.9,1.3-5.9,2.1c2.4,0.7,4.7,1.5,7.1,2.3c0.4,0.1,1,0,1.5,0
	c9.4,0,18.8-0.1,28.1,0.1c1.1,0,2.1,1.4,3.2,2.1c-1,0.6-2,1.5-3.1,1.7c-1.5,0.3-3,0.2-4.5,0.1c-4.2-0.3-8.4-0.9-12.6-0.9
	c-2.6,0-5.2,0.9-7.8,1.4c2.9,1.2,5.7,2.4,8.6,3.5c0.6,0.2,1.3,0,2,0c6.2,0.3,12.4,0.5,18.6,1.1c2,0.2,5.3,1.4,5.5,2.6
	c1.3,5.3,5.8,4.1,9,5.3c2.4,0.9,4.9,1.6,7.3,2.7c1.8,0.9,3.3,2.4,5.2,3.3c3.3,1.6,8,0.9,8.9,6.3c0.2,0.7,2.3,1.4,3.6,1.6
	c3.3,0.6,6.7,0.5,10,1.2c5.2,1,10.3,2.5,15.4,4c0.8,0.2,1.3,1.5,1.9,2.4c-1,0.5-2,1.5-2.8,1.4c-2.8-0.3-5.6-1.2-8.4-1.5
	c-6.8-0.9-13.6-1.6-20.5-2.4c-0.7,0-1.5,0.3-2.3,0.5c0.5,0.8,0.7,2,1.4,2.3c3.6,1.5,7.1,3.6,10.8,4.1c10.4,1.4,20.9,1.7,31.2,3.3
	c4.3,0.6,8.3,3.3,12.3,5.1c0.6,0.3,0.9,1.3,1.3,2c-0.9,0.2-1.8,0.8-2.5,0.7c-7.6-1.2-15.1-2.4-22.6-3.6c-5-0.8-10-1.7-15-2.3
	c-0.8-0.1-1.7,0.6-2.5,1c0.4,0.7,0.7,1.7,1.3,2.1c3.2,2,6.2,4.8,9.7,5.6c5.9,1.4,12.1,1.3,18.1,2.3c6.5,1,12.9,2.5,19.3,4
	c1.2,0.3,2.1,1.7,3.2,2.6c-1.2,0.4-2.4,1.3-3.5,1.2c-6.2-0.5-12.5-1.2-18.7-1.9c-5.2-0.6-10.4-1.5-15.7-1.9
	c-3.1-0.3-6.3-0.4-9.4,0.1c-1.4,0.2-2.5,2-3.7,3.1c1.4,0.6,2.8,1.5,4.2,1.6c4.7,0.5,9.4,0.8,14.1,1.1c5.7,0.4,11.4,0.4,17,1.1
	c4.2,0.5,8.3,1.8,12.3,3c0.9,0.3,1.6,1.6,2.4,2.4c-1,0.5-1.9,1.2-2.9,1.4c-0.9,0.3-2,0.2-3,0.1c-5.4-0.6-10.7-1.6-16.2-1.9
	c-8.8-0.6-17.7-0.5-26.5-1.2c-5.6-0.5-7.9,3.8-11.3,6.5c-0.6,0.5-1.2,0.9-1.8,1.4c0.8,0.4,1.6,1.1,2.5,1.2c4.4,0.4,8.8,0.3,13.1,1.1
	c5.6,1,11.3,2.5,16.8,4c1,0.3,1.5,2,2.3,3c-1,0.3-2,1-2.9,0.8c-7.1-0.8-14.2-1.8-21.4-2.6c-4.6-0.6-9.3-1.3-14-1.1
	c-1.9,0-3.7,2-5.6,3.2c1.7,0.5,3.4,1.1,5.1,1.6c0.8,0.2,1.6,0,2.4,0.1c8.3,1.3,16.6,2.5,24.9,3.9c7.3,1.2,14.6,2.5,21.8,4.1
	c1.8,0.4,3.1,2.4,4.7,3.7c-2,0.4-4.1,1.3-6.1,1.1c-10.5-1.1-20.9-2.6-31.4-3.9c-6.3-0.8-13.1-0.4-19-2.4c-5-1.8-8.1-1.7-11.1,2.5
	c-0.7,0.9-1.6,1.6-2.4,2.4c1.3,0.5,2.6,1.3,3.9,1.4c4.3,0.5,8.8,0.5,13.1,1.1c10.3,1.6,20.6,3.2,30.9,5.1c2,0.4,3.9,1.9,5.7,3.1
	c0.4,0.3,0.3,1.5,0.4,2.3c-0.7,0-1.4,0.1-2.1,0.1c-2.5-0.2-5-0.3-7.4-0.6c-9.5-1.3-18.9-2.8-28.4-4c-5-0.6-10.3,0.2-15-1.2
	c-6.3-1.8-11.4-0.2-16.5,3.1c-0.6,0.4-1.1,0.8-1.6,1.3c0.6,0.2,1.3,0.7,1.9,0.8c9.6,0.3,19.1,0.6,28.6,1c5.1,0.2,10.1,0.5,15.1,1.1
	c3.8,0.4,7.5,0.9,11.1,2c1.7,0.5,2.9,2.4,4.3,3.6c-1.5,0.5-3.1,1.3-4.5,1.2c-6.1-0.5-12.1-1.6-18.2-1.8c-12.2-0.6-24.4-0.8-36.6-1.1
	c-1,0-2.4,0.4-2.9-0.1c-5.9-5.1-10.1,1.4-15.1,2.2c-0.7,0.1-1.1,1.4-1.7,2.1c0.8,0.3,1.6,0.7,2.5,0.8c13.5,0.7,27.1,1.2,40.6,2.1
	c4.9,0.3,9.8,1.1,14.7,2c1.2,0.2,2.1,1.4,3.2,2.1c-1.2,0.6-2.4,1.7-3.6,1.7c-4.8-0.1-9.7-0.7-14.6-0.9c-10.8-0.4-21.7-0.5-32.5-1.1
	c-4.3-0.2-8.5-1.6-12.7-1.7c-2.7,0-5.3,1.7-7.9,2.6c0.4,0.7,0.6,2.1,1.1,2.1c6.7,0.8,13.4,1.5,20.1,2.1c16.1,1.4,32.3,2.5,48.3,4.1
	c4.7,0.4,9.3,1.7,13.8,3c0.9,0.3,1.4,2.5,1.9,3.8c0.1,0.2-1.1,1.1-1.6,1c-2.7-0.2-5.4-0.6-8.1-0.9c-13.3-1.7-26.6-3.8-39.9-4.9
	c-13-0.9-26.1-0.8-39.1-1.1c-1.2,0-2.7-0.5-3.4,0.1c-1.5,1.3-2.6,3.1-3.8,4.7c0.7,0.4,1.4,1.1,2.1,1.2c10.4,0.7,20.8,1.4,31.2,2
	c7.2,0.4,14.4,0.5,21.6,1.1c4.4,0.3,8.8,1.1,13.1,2c0.8,0.2,1.3,1.9,2,2.8c-0.7,0.4-1.5,1.1-2.2,1c-5.4-0.2-10.7-0.7-16.1-0.9
	c-14-0.4-28.1-0.6-42.1-1c-2.9-0.1-5.7-1-8.6-0.9c-1.3,0.1-3.4,1.2-3.9,2.3c-2.2,5.5-4.9,10.7-9.5,14.5c-4.5,3.8-8.8,7.6-13.3,11.3
	c-6.6,5.3-13.1,10.8-19.9,15.9c-6.3,4.7-13,8.9-19.4,13.4c-1.7,1.2-3.4,2.5-5,3.8c1.9,0.2,3.7,0.6,5.6,0.7
	c5.5,0.1,11.1-0.2,16.7,0.1c1.2,0.1,2.4,1.7,3.7,2.5c-0.8,0.8-1.6,2.2-2.5,2.3c-6.4,0.5-12.8,0.9-19.1,1c-1.7,0-4.5-1-4.9-2.2
	c-1.6-5-5.3-3.2-8.1-2.5c-7.9,1.9-11,0.2-12.4-7.5c-0.1-0.6-0.4-1.1-0.6-1.7c-0.6,0.3-1.2,0.4-1.7,0.8c-4.4,3.4-8.4,7.5-13.3,10
	c-4.6,2.3-10.9,5-14.9,3.4c-5.5-2.1-9.3-1.5-13.9,0.8c-4.9,2.4-12.6,0.8-14.1-3.2c-1.3-3.3-3.2-3.9-6.4-3.9
	c-6.5,0.1-9.3-2.8-9.1-9.4c0.4-11.8,5-22.4,10.7-32.5c2-3.6,4.2-6.4,1.5-10.5c-0.4-0.5,0.4-2,0.8-3c2.9-8,9.9-12.3,15.9-17.5
	c5.1-4.2,10.3-8.2,15.2-12.7c3.3-3.1,5.6-7.5,9.1-10.2c7.8-5.8,16.9-8.2,26.6-8.2c3.9,0,7.8-1.5,11.7-1.8c6.2-0.6,11.6-5,18.5-3.2
	c4.7,1.2,8.6-1.4,11.8-5.1c7.1-8.6,14.2-17.2,21.6-25.5c2.3-2.6,1.1-3.4-0.9-4.3c-11.9-5-23.9-10-35.9-14.7c-1.4-0.6-4-0.2-4.9,0.8
	c-2.2,2.5-4.4,5.4-5.6,8.5c-1.8,4.7-3.5,5.8-8.1,4c-6.6-2.6-13.1-5.5-19.9-7.5c-19.9-5.8-38.4-14.3-56.1-25.1
	c-2.4-1.5-4.5-3.5-6.9-5c-6.4-3.8-12.1-8.4-16.1-14.8c-1.1-1.6-2.5-3-3.8-4.4c-0.4-0.4-1.1-0.5-1.6-0.8c-0.1,0.7-0.2,1.4-0.1,2
	c0.8,6.2,1.9,12.3,2.4,18.5c0.4,4.4,2.3,6.3,6.5,5.4c0.6-0.1,1.4-1.1,1.3-1.6c-0.2-1.1-0.9-2.1-1.4-3.1c1.7,0.2,3.4,0.4,5,0.7
	c6.2,0.8,9.8,5.5,14.2,9.1c0.5,0.5,0.8,1.2,1.2,1.8c-0.8,0.4-1.6,1-2.4,1.2c-4.3,0.7-8.5,1.2-12.7,2c-4.6,1-9,2.4-13.6,3.4
	c-3.5,0.8-6.5,1.6-6.3,6.3c0.1,0.7-1.1,1.5-1.8,2.3c-0.6-1-1.3-2-1.9-3c-0.3-0.6-0.5-1.3-0.8-2c-0.7,0.5-1.8,0.9-2.2,1.7
	c-2.1,3.9-4,8-6,11.9c-0.5,0.9-1.4,1.6-2,2.4c-1,1.1-2.6,2.1-2.9,3.4c-1.2,6.1,1.6,11.4,7.1,14.4c0.7,0.4,0.7,2.1,1.1,3.2
	c-1.8,0.1-3.7,0.8-5.3,0.3c-6.1-1.6-6.7-4.7-8-11.4c-0.2-1-0.6-1.9-0.9-2.9c-0.9,0.3-1.8,0.6-2.6,1c-2.9,1.5-5.6,3.2-8.6,4.5
	c-7.3,3.3-14.5,6.9-22.1,9.3c-6.7,2.2-13.8,3.5-20.8,4.1c-13.4,1.1-26.8,1.5-40.2,2c-2.5,0.1-5.3-0.1-7.5-1.2
	c-7.5-3.7-15.4-4-23.4-3.7c-1.2,0.1-2.4,0.9-3.6,1.1c-2.1,0.5-4.4,1.5-6.4,1.2c-11.9-1.8-21.6-8.5-31.2-15.1c-0.7-0.5-1.6-0.7-2.4-1
	c0.3,0.8,0.3,1.8,0.9,2.4c4.7,5.6,10.7,9.4,17.7,11.5c1.2,0.3,2.1,1.4,3.1,2.2c-1.2,0.6-2.6,1.7-3.7,1.6c-3.1-0.4-6.3-0.9-9-2.3
	c-8-4.1-13.7-10.8-19.4-17.6c-1.1-1.3-2.9-2-4.4-3c0.5,1.7,1,3.3,1.5,5c0.2,0.5,0.6,1.1,1,1.5c4,4.4,8,8.7,12,13
	c0.6,0.7,1,1.6,1.5,2.5c-1.2,0.1-2.5,0.4-3.7,0.2c-5.1-0.7-8.5-3.6-10.8-8.1c-3.3-6.5-6.7-12.9-10-19.4c-0.4-0.6-1.1-1.1-1.6-1.6
	c-0.2,0.8-0.4,1.6-0.4,2.4c0,0.7,0,1.6,0.3,2.3c2.7,6.4,5.4,12.8,8.1,19.2c0.4,0.9,0.7,2,1,3c-1.2-0.3-2.9-0.1-3.6-0.9
	c-2.1-2.1-4.9-4.4-5.6-7.1c-2.8-10-4.8-20.3-7.3-30.5c-0.5-2.2-1.6-4.3-2.4-6.5c-0.5,2.3-1,4.6-1.5,6.9c0,0.1,0,0.3,0,0.5
	c0.7,5.8,1.1,11.8,2,17.6c1.3,7.7,2,15.6,9.2,20.7c1.4,1.1,2.5,2.6,3.8,3.8c-2.2-0.1-4.4-0.1-6.4-0.5c-1.5-0.3-3-1.2-4.2-2.1
	c-6.4-5.1-6.2-12.8-7.3-19.9c-0.8-5-0.7-10.1-1.2-15.1c0-0.7-1.1-1.8-1.8-1.8c-13-0.8-26.1-1.6-39.1-1.9c-2.7-0.1-5.4,1.8-8.5,2.8
	c-4.3,0.7-8.6,1.3-12.8,2.1c-0.6,0.1-1.1,1-1.7,1.6c0.6,0.5,1.1,1.3,1.8,1.6c1.7,0.8,3.7,1.1,5.1,2.2c3,2.3,5.5,5.1,8.5,7.3
	c4.4,3.2,9.3,5.8,13.6,9.3c6.7,5.4,14.1,7.5,22.6,7c2.3-0.2,4.7,0.5,7,1.1c0.9,0.3,1.6,1.6,2.3,2.4c-1.1,0.4-2.2,1.3-3.4,1.3
	c-2.5,0-5-0.6-7.6-0.9c-0.6,0-1.3,0.6-1.9,0.8c0.5,0.5,1.1,0.8,1.6,1.3c6.8,6.1,15.6,4.2,23.5,5.9c10.4,2.3,21.1,3.6,31.1,7.1
	c7,2.5,13.4,7.5,19.4,12.3c4.7,3.8,8.3,9,12.4,13.7c0.7,0.8,1,1.9,1.5,2.9c0.8-1.2,2.2-2.2,2.4-3.4c0.4-2.8,0.4-5.6-3.3-6.7
	c-1.6-0.4-3.1-1.4-4.5-2.4c-0.6-0.4-1-1.6-1-2.4c0-0.4,1.5-1.2,2.1-1c3.5,0.8,6.9,1.7,10.3,3c3,1.1,4.6,4,3.3,6.8
	c-1.7,4,0.2,4,3.1,4.1c8.5,0.3,17.1,0.6,25.6,1c1.7,0.1,3.5,0.5,5,1.1c1,0.4,1.7,1.6,2.5,2.4c-1,0.5-1.9,1.1-3,1.5
	c-0.5,0.2-1.3,0-1.9,0c-10.7-0.3-21.4-0.6-32.1-1c-1.1-0.1-2.1-0.7-3.1-1c-0.6-0.2-1.3-0.3-1.9-0.5c-0.1,0.9-0.5,2-0.2,2.7
	c0.9,2.3,2.2,4.5,3.2,6.7c2.8,6.4,9.3,9.5,16,7.6c1.1-0.3,2.2-0.5,3.3-0.5c9.2,0,18.4-0.3,27.7,0.1c3.4,0.2,6.9,1.7,10.3,2.8
	c0.7,0.2,1.1,1.4,1.7,2.1c-0.8,0.3-1.6,1-2.3,0.9c-5-0.2-10.1-0.9-15.1-0.8c-8.2,0-16.4,0.8-24.6,0.8c-3.7,0-5.9,1.2-6.3,4.9
	c-0.3,3.2-0.8,6.5-0.5,9.7c0.1,1.3,2.1,3.3,3.3,3.3c9.2,0,18.4-0.8,27.6-0.6c4.2,0.1,8.5,1.8,12.6,3.1c1,0.3,1.5,1.9,2.3,2.9
	c-1.4,0.6-2.8,1.8-4.1,1.7c-4.2-0.4-8.4-1.7-12.7-1.8c-9.1-0.3-18.3-0.1-27.5,0c-1.1,0-2.5,0.5-3.4,1.2c-2.2,1.6-4.3,3.4-6.3,5.2
	c-1.8,1.7-3.5,3.5-5.2,5.2c-2,2-4,4-6,6c-0.6,0.5-1.2,1.1-1.8,1.6c0.9,0.5,1.8,1.5,2.6,1.5c6.3-0.2,12.5-0.7,18.7-0.7
	c2.5,0,5.1,1.1,7.6,2c0.8,0.2,1.4,1.1,2.1,1.7c-0.8,0.7-1.4,1.7-2.3,1.9c-1.2,0.4-2.6,0.3-3.9,0.3c-10.3,0-20.5,0.1-30.7-0.1
	c-2.4-0.1-6.6,2-6.9-2.2c-0.3-4.6,4.1-2,6.4-2.7c0.8-0.3,2.2-0.6,2.3-1c0-0.8-0.4-1.9-1-2.5c-5.1-4.9-10.2-9.7-15.4-14.5
	c-2.9-2.6-5.9-5-8.7-7.8c-6-5.7-11.7-11.7-17.7-17.5c-4.3-4.3-9-8.2-13.3-12.5c-1-1.1-1.2-3.1-1.8-4.7c1.6-0.5,3.3-1.5,4.8-1.4
	c1.4,0.1,2.9,1.3,4,2.3c5.7,5.2,11.4,10.4,16.9,15.8c11.4,11.3,22.6,22.6,33.9,33.9c0.8,0.8,1.4,1.8,2.1,2.7
	c0.8-1.2,2.1-2.3,2.2-3.6c0.2-2.1,0.3-4.7-0.7-6.3c-5.2-7.9-10.1-16.1-16.3-23.2c-7.2-8.4-15.6-15.9-23.4-23.8
	c-1.1-1.1-1.7-2.6-2.5-3.9c1.5-0.7,3.3-2.3,4.3-1.8c3.6,1.5,7.3,3.2,10.1,5.8c11.5,11.1,22,23.2,30.7,36.7c1.5,2.4,4.8,3.7,7.4,5.2
	c0.5,0.3,2.3-0.3,2.4-0.8c2-8.2,1.7-16-3.5-23.2c-4.5-6.3-9.2-12.4-13.3-19c-6.6-10.2-15.4-18.3-25.8-23.7c-13.9-7.1-29.6-9-44.9-11
	c-10-1.3-18.4-6.1-26.4-11.1c-13.4-8.3-25.6-18.6-38.8-27.2c-15.2-9.9-31.2-18.1-48.5-24.1c-9.9-3.4-19.1-8.6-28.5-13.3
	c-1.8-0.9-2.8-3.3-4.2-5c2.3,0.3,5-0.2,6.7,0.9c12.8,8,28.7,7.5,41.7,15.4c7.4,4.6,15.8,7.7,23.8,11.1c2.6,1.1,5.7,2.4,8.3,1.9
	c8.2-1.3,16.2-3.6,24.3-5.1c6.9-1.2,13.9-2.4,20.9-2.3c6.7,0,13.5,1.6,20.3,2.6c2.9,0.5,3.6-1.1,2.9-3.3c-1.3-4-2.7-8.2-4.8-12
	c-7.5-13.8-15.9-27.2-19.7-42.8c-3.6-15.1-4-30.2,0.6-45.2c0.8-2.5,2.1-4.8,2.9-7.3c0.3-1-0.2-2.2-0.3-3.3c-0.8,0.4-1.6,0.9-2.5,1.2
	c-2.1,0.9-4.2,1.8-6.3,2.7c-1,0.5-1.9,1.1-2.8,1.6c0.7,0.7,1.4,1.3,2.1,2.1c0.7,0.6,1.3,1.4,1.9,2.1c-0.9,0.4-1.7,1-2.6,1.2
	c-3.5,0.7-7.1,1.5-10.7,2c-2,0.2-4.1,0-6.1,0c-3.1,0-6.2,0.1-9.2,0c-2.7-0.2-5.5-0.4-8-1.1c-1.3-0.4-2.1-2.1-3.2-3.1
	c1.3-0.3,2.5-0.7,3.7-0.8c4.2-0.1,8.4,0.2,12.5-0.1c3.3-0.2,6.6-0.8,9.8-1.7c1.7-0.5,3.2-1.8,4.7-2.7c-1.8-0.5-3.5-1.3-5.4-1.4
	c-1.5-0.2-3.1,0.5-4.7,0.5c-5.9,0.2-11.9,0.4-17.8,0.3c-1,0-2-1.6-3-2.4c1.1-0.5,2.2-1.3,3.4-1.4c4.5-0.5,9-0.9,13.6-1.1
	c6.1-0.1,12.3,0.4,18.4-0.2c3.6-0.3,7.1-2.1,10.6-3.4c0,0-0.2-1.3-0.4-1.3c-2.4-0.1-4.8-0.2-7.2-0.1c-8.2,0.3-16.4,0.6-24.5,1
	c-5.6,0.3-11.1,0.9-16.6,0.9c-1.5,0-2.9-1.6-4.3-2.5c1.3-0.8,2.6-2.2,4-2.3c6-0.6,12-0.8,18.1-1.1c0.8,0,1.6-0.1,2.4,0
	c10.5,0.1,21,0.4,31.5,0.5c1.7,0,3.9-0.2,4.9-1.3c5.3-5.8,10.2-12.1,15.5-18c1.5-1.7,3.7-3.1,5.9-3.8c1.3-0.4,3.1,0.7,4.7,1.1
	c-0.8,0.8-1.5,1.7-2.4,2.5c-1.9,1.7-4,3.2-6,4.9c-7.4,6.3-11.6,14.7-15.8,23.4c-7.1,14.7-8.8,30.3-6.4,45.6
	c3.4,22,14.7,41.2,29.1,57.7c12.9,14.9,27.8,27.9,47.1,34.5c9.5,3.3,18.7,7.7,29.2,5c1.3-0.4,2.8,0.2,4.2,0.5
	c2.3,0.4,4.6,1.2,6.9,1.4c16.5,1.1,31.7-3.2,45.8-11.4c13.6-7.8,23.6-19,29.4-34c3.8-9.7,5.7-19.7,7.1-30.1
	c1.6-12.2,0.6-23.9-2.8-35.6c-1.5-5.2-6.1-9.5-4.4-15.7c0.1-0.3-0.3-0.8-0.5-1.2c-2.6-5.3-5.1-10.6-7.8-15.8
	c-10-18.3-21.2-35.7-37.9-48.6c-6-4.7-11.5-11.4-20.6-10.7c-0.7,0.1-1.5-1-2.3-1.5c-3.1-1.8-6-4.1-9.3-5.3c-4.4-1.5-9.2-2-13.7-3.1
	c-9.5-2.4-19.1-2.8-28.8-0.9c-0.8,0.1-2.1,1.8-2,2c2.7,4.3-1.1,2.7-2.6,2.9c-4.9,0.7-10.6,0-14.6,2.2c-11.9,6.7-22.6,15.3-30.9,26.4
	c-2.3,3.1-4.7,6.1-7.2,9c-0.6,0.7-1.6,0.9-2.4,1.3c0.2-0.8,0.3-1.6,0.6-2.4c1.3-3.1,2.6-6.2,4-9.3c0.9-2,1.9-3.7-1.7-3.2
	c-3.7,0.4-7.4,0.8-11.1,1c-10,0.4-20.1,0.8-30.1,1c-18,0.4-36,0.6-54.1,1c-11.5,0.3-23,0.7-34.6,1c-0.7,0-1.5,0.3-2.3,0.4
	c-5.4,0.5-10.9,1.4-16.3,1.4c-1.6,0-3.2-2.3-4.8-3.5c1.5-0.8,3-2.1,4.6-2.2c8.7-0.9,17.4-1.7,26.1-2c14.4-0.6,28.7-0.8,43.1-1.1
	c12.9-0.3,25.8-0.7,38.8-1c11.7-0.3,23.4-1.4,35-0.8c9.9,0.6,17.7-1.6,23.6-9.8c1.2-1.6,3.3-2.6,4.8-4c1.7-1.5,3.3-3.2,5-4.8
	c-2.1,0.1-4.2,0.3-6.3,0.4c-14.4,0.7-28.8,1.3-43.2,2c-6.8,0.3-13.7,0.9-20.5,1c-15.2,0.2-30.1,3.9-45.4,2.2
	c-8.6-0.9-17.4,0.5-26.1,0.8c-0.8,0.1-1.5,0.4-2.3,0.7c0.8,0.4,1.6,1.2,2.4,1.2c11.7,0.8,23.5,2,35.2,2c14.2-0.1,28.4-1.5,42.7-1.8
	c13.3-0.4,26.6-0.1,39.9-0.1c1.6,0.1,3.2,0.4,4.6,1.1c0.9,0.5,1.3,1.8,2,2.8c-0.9,0.4-1.8,1-2.7,1.1c-15.4,0.4-30.7,1-46.1,0.9
	c-25,0-50.1-0.5-75.1-1c-4.2-0.1-8.5-0.9-12.6-2c-3.1-0.8-6-2.5-8.9-4c-1-0.5-1.7-1.7-2.6-2.7c1-0.7,2.1-2.1,3.1-2.1
	c8.2-0.2,16.4,0,24.5-0.1c1.9-0.1,3.8-0.7,5.6-1c0.6-0.1,1.2-0.3,1.8-0.5c-0.6-0.2-1.2-0.4-1.8-0.5c-5.9-0.7-11.8-1.1-17.7-2.1
	c-2.3-0.4-4.3-2.3-6.5-3.4c0.4-0.7,0.8-1.9,1.1-1.8c9.5,1,19,2.1,28.6,3.3c2.8,0.4,6.7,0.1,8.1,1.7c2.2,2.8,4.6,2,7.1,2.3
	c2.4,0.3,4.7,0.9,7.1,1c3.7,0.1,7.4,0.2,11-0.1c1.4-0.1,2.6-1.6,4-2.4c-1.2-0.8-2.3-2.3-3.4-2.4c-6.2-0.2-12.4-0.1-18.5-0.1
	c-2,0-4-0.3-6-0.4c1.6-1.4,3.2-2.9,5-4.1c0.7-0.5,1.9-0.5,2.8-0.5c23.6-0.3,47.1-0.7,70.6-1c9.5-0.1,19,0,28.5,0c1.2,0,2.3,0,3.5,0
	c5.1,0,10.3-0.8,15.1,0.2c5,1.1,8.3,1.2,10.7-3.9c1-2.1,3.1-3.7,4.5-5.6c1.2-1.7,2.1-3.5,3.2-5.2c-1.6,0.2-3.3,0.4-4.9,0.5
	c-0.7,0-1.3,0-2,0c-13.8,0-27.6-0.1-41.3,0c-14.9,0.2-29.8,0.7-44.6,1c-16.5,0.3-33.1,0.6-49.6,1c-2.5,0.1-5,0.8-7.6,1
	c-2.1,0.1-4.4,0.3-6.5-0.1c-1.3-0.3-2.3-1.8-3.5-2.8c1.4-0.7,2.8-1.9,4.2-2c7.9-0.5,15.7-0.9,23.6-1.1c17.9-0.4,35.7-0.7,53.6-1
	c0.2,0,0.3,0,0.5,0c0.6-0.1,1.2-0.2,1.9-0.3c-0.6-0.2-1.3-0.4-1.8-0.7c-1.7-1.1-3.3-2.3-5-3.5c1.8-0.5,3.6-1.3,5.4-1.4
	c11.2-0.8,22.4-1.9,33.7-2c16.8-0.1,33.7,0.6,50.6,0.9c1.3,0,2.8-0.5,4-1.1c0.9-0.4,1.5-1.3,2.3-2c-1-0.3-1.9-0.8-2.9-0.9
	c-14.7-0.3-29.4-0.6-44.1-1.1c-1.7-0.1-4.7-1.8-4.8-2.8c-0.1-3.7,3.1-3.3,5.5-3.1c4.5,0.6,8.8,1.7,13.2,1.9
	c12.5,0.6,25.1,0.8,37.6,1c1.1,0.1,2.4-0.7,3.4-1.4c0.8-0.5,1.4-1.3,2.1-2c-1-0.2-1.9-0.5-2.9-0.5c-7,0-14,0.1-21,0
	c-1.7-0.1-3.5-0.4-5-1.1c-1.2-0.5-2.1-1.8-3.1-2.7c1.4-0.7,2.7-1.9,4.2-2.1c1.8-0.1,3.7,0.8,5.6,0.9c7.8,0.1,15.6,0.2,23.5-0.1
	c2.4-0.2,5.1-1.5,7.2-3c4.8-3.4,9.4-7.2,13.9-10.9c1.7-1.4,3-3.1,4.5-4.6c-2.1,0.2-4.3,0.2-6.4,0.7c-1.3,0.2-2.5,1.3-3.8,1.6
	c-7.6,2-15,4.2-23.2,2.5c-6.8-1.4-13.9-1.5-20.8-1.1c-12.9,0.9-25.8,2.6-38.8,3.8c-2.1,0.2-4.4-0.9-6.5-0.7
	c-6.7,0.7-13.2,2.6-19.8,2.6c-14.4,0.2-28.8-0.4-43.1-0.8c-7.2-0.2-14.4-0.7-21.6-1c-15-0.7-29.9-1.7-44.8-1.9
	c-20.1-0.4-40.2-0.3-60.2,0c-11.6,0.1-22.9-1.9-33.4-6.4c-6.3-2.7-13.5-4.6-17.2-11.6c-0.9-1.7-4-2.7-6.1-3c-4.4-0.6-8.2-2-9.8-6.3
	c-1.2-3.4-3.6-3.3-5.8-2.7c-3.8,1.2-7.4,3-11,4.8c-5.2,2.7-5.3,4.9-0.3,8.1c15.8,10.4,33.6,15.5,51.7,19.9
	c6.1,1.5,12.5,2.1,18.7,3.2c0.8,0.1,1.5,0.9,2.3,1.4c-0.8,0.5-1.5,1.4-2.3,1.4c-2.9,0.2-5.8,0.3-8.7,0.1c-4.3-0.4-8.8-0.3-12.9-1.5
	c-11-3.2-21.9-6.5-32.6-10.6c-7.1-2.8-14.4-6.1-20.5-10.7c-7.4-5.7-6.8-11.5,1.4-16c2.5-1.4,5.4-2.3,8.2-3.2
	c5.7-1.9,12-2.9,14.1-10.1c0.4-1.2,2.3-2.2,3.7-2.9c5.6-2.6,11-6,16.9-7.6c13.7-3.6,27.6-7.1,41.6-9.1c11-1.6,22.4-0.9,33.6-1.3
	c1.5-0.1,3.1-0.5,4.7-0.7c6.5-0.4,13-1.3,19.4-1.2c6.3,0.1,12.6,1.6,18.9,1.8c3.3,0.1,6.8-2,10.1-1.8c11.8,0.7,23.5,2.3,35.3,2.8
	c13.3,0.5,26.6,0.1,39.8,0.1c2.9,0,3.5-1.1,3-4c-0.5-2.5-0.5-5.5,0.4-7.7c1.8-4.1,4.2-8.1,7-11.6c3.3-4.2,6.9-8.3,11-11.6
	c11.3-9.2,24-8.1,37-4.5c3.4,0.9,7,1.6,10.1,3.2c7.4,3.8,14.7,8.1,22,12.2c9.3,5.2,18.8,10.2,27.9,15.8c7.9,4.7,15.6,8,25.1,5.3
	c8.7-2.6,11-0.3,8.8,8.2c-0.2,0.5-0.5,1-0.7,1.5c0.5-0.1,1.1-0.1,1.7-0.3c3.3-1.1,6.6-2.3,10-3c1.7,2.8,2.1,5.2-2.1,6.1
	c-0.7,0.2-1.3,1-1.9,1.5c0.6,0.3,1.3,0.8,1.9,0.9C437.9,421,441,421,444,421.5 M297.5,392c1.5-0.5,3.1-0.6,4.4-1.4
	c5.7-3.8,11.4-7.7,17.1-11.6c0.6-0.5,1.2-1.2,1.7-1.8c-0.9,0.1-2-0.1-2.6,0.3c-7.1,4.8-14.1,9.6-21.6,14.5c0,0.3-0.1,0.6-0.1,0.9
	C296.6,392.6,296.8,392.3,297.5,392 M653,613.5c-1.5-1.5-3-3.1-4.6-4.5c-0.3-0.3-1.1-0.2-1.7-0.2c0.1,0.6,0,1.5,0.4,1.7
	c1.9,1.2,3.9,2.3,5.9,4c1.2,0.8,2.5,1.5,3.7,2.3c0.6-3.3,2.1-6.7,1.5-9.8c-0.5-2.6-3.2-4.9-5-7.3c-0.5-0.6-1.1-1.1-1.7-1.7
	c-0.1,0.7-0.7,1.7-0.4,2.2c1.3,2.9,3.1,5.7,4.1,8.7c0.6,1.7-0.2,3.8-0.3,5.7C654.3,614.4,653.6,614.2,653,613.5 M768,620.5
	c0.3,0,0.6,0,0.9,0.1c-0.3-0.2-0.6-0.4-0.9-1.1c-1.8-0.2-3.9-1-5.4-0.4c-2.1,0.8-3.9,2.5-5.8,3.9c-3.8,2.7-7.7,5.4-11.5,8.2
	c-0.4,0.4-0.6,1.2-0.9,1.8c0.8,0,1.6,0.2,2.2,0c2.6-1.2,5.3-2.4,7.8-3.9C759,626.2,763.5,623,768,620.5 M741.5,636
	c-4.4,2.3-8.7,4.8-13.1,7c-2.5,1.2-5.2,2-7.7,3c-2.6,1.1-5.1,2.2-7.7,3.3c3.2,0.5,6.4,1.1,9.6,1.6c0.2,0,0.4-0.6,0.7-0.7
	c7.6-2.9,14.6-6.6,19.2-14.2c0-0.3,0-0.6,0.1-0.9C742.4,635.4,742.2,635.7,741.5,636 M912.5,377c-9.3,10.3-18.2,20.9-27.9,30.8
	c-9.2,9.2-9.7,21.9-14.6,32.9c-0.2,0.6,0.3,1.5,0.5,2.3c0.8-0.5,1.7-0.8,2.3-1.4c0.6-0.7,0.8-1.7,1.2-2.5
	c4.1-7.9,7.6-16.2,12.3-23.8c6.9-10.9,14.5-21.3,21.8-31.9c1.5-2.2,3.2-4.3,5.4-6.4c0-0.3,0-0.6,0.1-0.9
	C913.4,376.4,913.2,376.7,912.5,377 M527.5,490c5.1-2.9,7.3,0.9,9.5,4.2c8.4,13,16.3,26.3,25.2,39c4.1,5.8,9.8,10.6,15.2,15.5
	c1.4,1.2,4.2,1,6.4,1.2c0.3,0,1.2-2.1,0.9-2.5c-9.5-12.8-19.6-25.1-28.7-38.1c-7.6-10.7-14.1-22.1-21-33.3c-1-1.7-1.8-3.5-2.9-5.2
	c-0.1-0.2-2,0.2-2,0.5c-1.1,6.2-2.1,12.5-3.6,18.7c-0.9,6.1-1.2,11.8,3.1,17.3c9.8,12.5,18.7,25.7,28.6,38c3,3.8,5.6,9.5,12.2,8.7
	c0.9-0.1,1.7-0.5,2.6-0.7c-0.5-0.8-1-1.6-1.6-2.3c-5.1-5.4-11-10.2-15.3-16.2c-8.3-11.5-15.7-23.7-23.4-35.7
	C530.7,496.1,528.9,493,527.5,490 M400.5,449c4.9,2,11,1.8,13.8,7.7c0.2,0.4,1.4,0.5,2,0.4c4.2-0.7,8.6-0.9,12.4-2.5
	c9.6-4.1,19.7-3.8,29.6-4.4c10.2-0.6,20.4,0.6,30.6,0.8c12,0.1,24.1,0,36.1,0c1,0,2-0.6,3-0.8c-0.7-0.9-1.3-2.5-2-2.6
	c-5.9-0.6-11.3-5.4-17.8-0.8c-2.3,1.6-6.3,1.3-9.4,1.1c-5.3-0.3-10.5-1.2-15.7-1.9c-1.1-0.2-2.1-0.8-3.1-1.2c1-0.9,2-2.6,3-2.7
	c3.7-0.2,7.4,0,11,0.5c3.7,0.5,7.3,1.7,11,2.3c1.2,0.2,2.6-0.8,3.9-1.3c-1.1-0.5-2-1.2-3.1-1.6c-1.2-0.3-2.5-0.4-3.8-0.5
	c-6.6-0.5-13.1-1.2-19.7-1.4c-2.4,0-4.8,1.9-7.2,1.8c-9.9-0.4-19.8-1.3-29.6-1.9c-0.8,0-2.3,0.4-2.4,0.9c-2.1,6.1-7.5,6.7-12.7,8.3
	c-6.6,2.2-12.7,2.3-19.3-0.3c-3.3-1.4-7.5-4.6-11.6,0.1c-6.1-3.5-16.4-1.1-20.9,5c-0.6,0.8-0.9,1.8-1.4,2.7c1.1,0.1,2.4,0.5,3.4,0.2
	c6-1.9,12-3.9,18-6C399.2,450.6,399.5,449.6,400.5,449 M756,520.5c-1,0-2,0-2.9-0.1c0.9,0.2,1.9,0.4,2.9,1.1
	c1.6,1.5,3.2,3.1-0.5,3.5c-4.5,0.4-9,0.5-13.5,0.5c-2,0-4.1-0.5-6.2-0.4c-0.6,0-1.2,1.3-1.8,2c0.6,0.3,1.2,0.8,1.9,0.9
	c3.7,0.4,7.4,0.6,11,1c1.1,0.1,2.1,0.5,3.1,0.7c-0.8,1.1-1.4,2.6-2.3,3c-1.4,0.4-3.1-0.1-4.7-0.2c-4.1-0.2-8.2-0.4-12.3-0.4
	c-0.5,0-1,0.7-1.5,1.2c0.4,0.2,0.8,0.6,1.3,0.7c4.8,0.2,9.6,0.4,14.4,0.6c0.3,0,0.7-0.1,1-0.2c-0.2,0.6-0.2,1.3-0.6,1.7
	c-6.1,8.5-12.2,17-18.3,25.4c-2.6,3.5-5.7,6.6-7.9,10.3c-2.4,3.9-3.3,8.8-6,12.4c-6.2,8.3-10.1,17.4-13.1,27.1
	c-0.4,1.4-0.5,3-0.7,4.5c0.5-1.3,1.1-2.6,1.7-3.8c0.7-1.3,1.4-2.5,2.2-3.7c6.2-10.3,13.5-20.3,18.5-31.3
	c4.6-10.1,12.2-17.5,18.4-26.3c6.1-8.8,13.7-16.7,20.6-24.9c10.3-12.3,20.6-24.5,30.8-36.8c4.2-5.2,8.4-10.5,12.5-15.8
	c0.7-1,1.6-2.6-1.2-2.2s-5.9,1.4-8.4,0.6c-3.3-1.1-3.7-0.2-4.5,2.6c-1.7,6.2-2.3,13-7,18c-2.3,2.4-5.3,4.7-8.5,5.6
	c-3.9,1.2-8.3,1.1-12.5,1.1c-2,0-3.9-1.2-5.9-1.9c1.8-0.6,3.5-1.8,5.3-1.9c3.1-0.1,3.9-0.9,2.5-3.8c-1.5-3.4-2.5-7-3.8-10.4
	c-0.6-1.4-1.3-2.6-2-3.9c-0.7,1.3-1.6,2.5-2,3.9c-2.3,8.4-4.3,16.8-6.7,25.2c-0.6,2.1-0.6,3,1.9,2.9c3.9-0.1,7.7-0.1,11.5,0.1
	c1.5,0.1,2.8,1,4.2,1.5c-1.5,0.8-3,2.3-4.5,2.3c-4.7-0.1-9.3-0.9-14-0.9c-1.8,0-3.5,1.5-5.3,2.4c1.5,0.5,3,1.4,4.6,1.5
	c3.3,0.3,6.6,0.1,10,0.1c1.4,0.1,2.8,0.3,4.3,0.5c-1.3,1.1-2.6,2.4-3.9,3.5C757.5,520.5,756.7,520.7,756,520.5 M661.5,777
	c-1.9,0.7-3.7,1.6-5.7,2c-10.1,1.7-20.3,3-30.3,5.2c-3.5,0.8-6.9,3.5-9.4,6.2c-5.4,5.8-9.9,12.3-15.2,18.1
	c-11.2,12.1-20.4,25.5-27.7,40.1c-3,5.8-4.4,12.5-6.1,18.9c-0.4,1.6,0.8,3.6,1.3,5.4c1.9-0.5,4.3-0.5,5.7-1.7c3-2.7,5.9-5.7,8.1-9
	c8.8-13.1,17.2-26.3,25.8-39.3c4.4-6.7,9-13.3,13.6-19.9c1.9-2.8,8.7-4.4,10.4-2.4c2.2,2.8,1,5.6-1,8.3c-8.4,11.5-16.6,23.1-25,34.6
	c-5.7,7.8-11.5,15.5-17.3,23.3c-2.1,2.8-4.4,5.5-6.3,8.4c-0.8,1.2-1.4,3.1-1.1,4.3c0.2,0.8,2.4,1.4,3.7,1.4c1.8,0,4.1-0.1,5.5-1.1
	c5.1-3.6,10.6-7,14.6-11.7c10-11.6,19.3-23.9,28.9-35.9c6.2-7.8,10.6-17.2,19.3-22.8c1.7-1.1,4.7-1.4,6.6-0.7
	c2.5,0.8,2.7,3.3,1.1,5.6c-3.4,5-6.2,10.7-10.2,15.2c-12.7,14.2-25.8,28-38.8,42c-2,2.1-4.2,4.1-6.2,6.3c-0.6,0.6-0.6,1.8-0.8,2.7
	c1,0,2.1,0.3,3-0.1c11.4-4.3,21.4-10.9,29.8-19.8c9.2-9.6,17.9-19.7,27.4-29c4.4-4.3,10.1-7.4,15.5-10.6c1.3-0.7,4.6,0,5.5,1.2
	c0.9,1,0.5,4.3-0.6,5.4c-5.9,6.4-12.2,12.3-18.3,18.4c-8.4,8.4-16.8,16.9-25.2,25.4c-0.6,0.7-0.7,2-1.1,3c1.1,0.2,2.3,0.8,3.2,0.5
	c3.9-1.3,8.2-2.2,11.6-4.4c8.8-5.9,18.2-11.5,25.6-18.9c7.5-7.6,17.1-12.1,24.3-20.1c5.5-6.1,10.5-11.4,12.1-19.7
	c1.5-8.2,7.2-13.6,13.5-18.8c9.2-7.6,18.6-14.6,29.2-20.2c6.5-3.5,12.6-8,18-13.1c7.5-7,14.2-14.9,20.9-22.8
	c4.3-5,7.7-10.7,11.6-16.1c1.7-2.4,1.4-4.5-1-6.3c-4.3-3.3-8.6-6.6-12.9-9.9c-1.6-1.2-3.2-2.7-5-3.6c-14.4-6.7-29-13-43.1-20.1
	c-9.7-4.9-18.9-10.9-28.1-16.6c-3.5-2.2-6.6-1.8-9.2,0.6c-9.4,8.5-19,16.8-27.7,25.9c-5.1,5.4-8.6,12.4-13,18.5
	c-2.2,3-1.1,4.7,1.8,5.7c4.7,1.6,9.6,2.5,14.1,4.5c7,3.2,13.7,7.1,20.7,10.4c1.7,0.7,4.8,0.8,5.9-0.2c10.8-9.7,23.2-16.6,36.5-22
	c2-0.8,4.5-0.3,6.8-0.4c-1.4,1.8-2.8,3.7-4.2,5.5c-0.1,0.2-0.6,0.1-0.9,0.2c-6.7,4-13.8,7.4-19.9,12.1c-8.3,6.6-16.1,13.9-23.6,21.4
	c-6.3,6.1-11.9,13-17.8,19.5c-0.7,0.9-1.6,1.6-2.4,2.4c1.2,0.2,2.5,0.6,3.7,0.6c3.1-0.1,6.3-0.5,9.4-0.3c1,0.1,1.9,1.7,2.9,2.6
	c-1.1,0.6-2.1,1.5-3.2,1.6c-10,0.8-20.1,1.3-30.1,2.2C667.9,775.3,665.2,776.3,661.5,777 M629.5,718c5.3,2,10.8,3.8,16,6.1
	c4.1,1.8,7.1,0.6,9.5-2.8c6.4-9.2,12.6-18.8,19.2-27.9c9.6-13.3,21.3-24.5,34.8-33.8c2.4-1.6,2.6-2.2,0.1-3.6
	c-9.8-5.8-19.5-11.7-29.2-17.6c-21.6-12.9-43.3-25.8-64.8-38.9c-11.7-7-23.3-14.1-37.5-14.6c-0.2,0-0.7-1.3-0.5-1.6
	c0.9-1.5,2-2.9,3.1-4.3c0.4-0.4,1.2-0.3,1.8-0.5c-0.6-0.5-1.2-1.2-1.9-1.5c-5.5-1.6-10.9-3.4-16.5-4.8c-9.6-2.5-18.5-1.2-25.1,6.9
	c-7.4,9.1-11.9,19.8-15.6,30.9c-2.2,6.4-1.5,11.7,2.1,17.1c1.1,1.7,1.9,3.6,3,5.2c8,12,9.9,27.1,19.9,38.2
	c9.7,10.8,18.8,21.7,33.1,27.2C597,703.8,612.7,711.2,629.5,718 M852.5,607c8,0,16-0.1,24,0.1c1.5,0.1,3,1.5,4.5,2.3
	c-1.4,0.8-2.8,2.5-4.2,2.5c-21.1,0.5-42.1,0.8-63.1,1.1c-4.5,0.1-9-0.2-13.5,0.1c-2.6,0.2-5.4,0.7-7.6,2c-4,2.4-7.7,5.5-11.5,8.4
	c-0.5,0.3-0.9,0.9-1,1.5c-0.1,0.3,0.9,1,1.2,0.9c4.1-1.2,9.6,3.3,12.6-3.1c0.3-0.7,2.3-0.8,3.5-0.8c7.9,0,15.7,0.1,23.5,0
	c4.2-0.1,8.4-1,12.6-0.9c6.8,0.2,13.8-0.3,20.2,3c1.2,0.7,2.7,0.8,4.1,0.9c4.6,0.1,9.5-1.1,13.6,0.3c6.2,2,9.9-0.6,14.1-4.2
	c7.9-6.9,16.3-13.3,24.1-20.1c9.7-8.4,19.1-16.9,28.3-25.7c1.3-1.3,2-5.2,1-6.6c-4.6-6.7-9.8-13-15-19.3c-5.7-6.7-12-12.9-17.6-19.7
	c-9.4-11.3-10.1-11.4-20-1.5c-12.8,12.8-25.5,25.8-38.5,38.4c-7.1,7-14.5,13.7-22.2,20.1c-7.5,6.4-15.5,12.2-23.2,18.3
	c-0.6,0.5-1,1.3-1.4,1.9c0.7,0.4,1.5,1,2.2,1.1c6,0,12,0.1,18,0C831.5,607.9,841.7,607.7,852.5,607 M910.5,412
	c-0.5,0.5-1,0.9-1.4,1.4c-13.1,13.7-26.2,27.5-39.2,41.2c-0.9,1-1.7,2.3-2.4,3.5c-0.3,0.4-0.2,1.1-0.2,1.7c0.5-0.1,1.2,0,1.7-0.3
	c2.8-1.7,5.5-3.5,8.3-5.3c18.5-12.4,37.1-24.6,55.5-37.3c7.2-5,14.4-10.5,20.4-16.9c13.5-14.3,25.8-29.8,39.5-43.9
	c12-12.5,22.6-25.8,31.2-40.7c1.8-3.2,4.3-7.6,0.9-11c-2-2-5.9-3.7-8.5-3.1c-6.3,1.3-12.7,3.3-18.3,6.4
	c-16.1,8.9-31.5,19.2-44.5,32.5c-13.1,13.4-25.4,27.7-37.8,41.7c-4.7,5.3-9.6,10.5-13.3,16.4c-8,12.3-15.2,25-22.7,37.6
	c-0.4,0.5-0.2,1.3-0.3,2c0.6-0.2,1.3-0.2,1.7-0.6c0.8-0.6,1.5-1.3,2.1-2.1c8.5-9.8,16.8-19.8,25.6-29.3c9.2-10.2,19-19.8,28.5-29.7
	c5.4-5.6,10.5-11.4,15.9-16.9c14.7-15.1,29.4-30.2,44.2-45.1c1.1-1,3.6-0.6,5.4-0.9c-0.5,1.9-0.3,4.4-1.5,5.6
	c-4.2,4.2-9.2,7.6-13.4,11.8c-14.6,14.7-29.1,29.4-43.4,44.4C933.1,387,922.1,399.3,910.5,412 M705.5,546c1.8-1.5,3.8-2.9,5.5-4.6
	c8.6-8.1,17.1-16.4,25.7-24.6c3.3-3.2,5.5-6.5,6.6-11.3c2.8-12,6.7-23.8,10.4-35.6c1.2-3.9-0.6-5.3-3.6-5.8
	c-5-0.9-10.1-1.6-15.2-2.1c-4.8-0.5-9.7-1.1-14.5-0.8c-2,0.2-3.7,2.9-5.5,4.5c-0.3,0.2-0.2,0.8-0.3,1.3c1.7-0.7,3.4-1.5,5.1-2
	c1.4-0.3,2.9-0.3,4.3-0.4c-0.8,1.1-1.5,2.6-2.5,3.4c-6.7,4.8-13.4,9.4-20.2,14.1c-0.5,0.4-1.4,0.8-2,0.7c-4.3-1.2-8.5-2.9-12.9-3.6
	c-1.6-0.2-3.6,1.8-5.4,2.9c1.6,0.6,3.3,1.7,4.9,1.8c4.1,0.3,8.2,0,12.2,0.1c1.7,0.1,3.5,0.5,5.1,1.1c0.7,0.2,1.5,1.2,1.7,2
	c0.1,0.5-0.8,1.7-1.4,1.8c-4.2,0.5-8.4,1.2-12.5,1c-10.4-0.4-20.8-1.2-31.2-1.9c-0.6,0-1.2,0.3-1.8,0.5c0.5,0.5,0.8,1.2,1.4,1.4
	c2.3,0.8,4.7,1.6,7.1,2.1c10.8,2.2,21.4,5.3,30.9,11c0.7,0.5,1.3,1.5,1.6,2.3c2,8,4.4,16,5.7,24.1C705.6,534.6,705,540.1,705.5,546
	 M656,544.5c-0.4-5-0.5-10.1-1.1-15.1c-0.6-5.2,1.9-11.1,6.1-13.4c1-0.5,2.3-0.6,3.5-1c0,1.4,0.1,2.8-0.2,4.1
	c-0.2,1-1.3,1.8-1.6,2.8c-1,2.7-2.5,5.6-2.6,8.4c-0.1,5.7,1.3,11.4,0.6,17c-0.4,3.5,0.2,6.2,1.2,9.4c2.1,7,3.4,14.2,5.1,21.3
	c0.3,1.3,0.5,2.7,0.8,4c1.1-0.9,2.3-1.7,3.4-2.7c3.2-3.1,5.9-7.2,9.7-9.1c7.3-3.8,12.7-9,16-16.4c1.4-3.1,3.2-6.6,2.9-9.7
	c-1-8.4-3.1-16.6-4.8-24.9c-1.8-8.5-6.7-14.2-15-17.2c-16.8-6.2-33.8-11.3-51.4-14.7c-1.3-0.3-2.9,0.6-4.4,0.9c1,1,1.8,2.1,2.9,2.8
	c4.6,2.6,9.5,4.7,13.8,7.6c4.4,2.9,7.5,7.2,6,12.9c-0.9,3.2-3.1,6-4.9,8.9c-3.1,5-2.7,8.7,1.2,12.4c3.1,2.8,5.9,5.8,8.8,8.7
	C653.2,542.7,654.3,543.8,656,544.5 M337.5,399c-8.3,5.7-16.6,11.4-25,17c-9.6,6.4-19.4,12.6-29.1,19.1c-7.4,5-9.2,8.8-6.3,14.8
	c1.9,3.8,5,7,7.7,10.3c0.8,1,2.5,1.8,3.7,1.7c4.5-0.5,8.1,1.2,11.6,3.6c1.2,0.9,2.9,1.4,4.4,1.4c7.3,0.2,14.6,0.4,22,0
	c2.7-0.2,7.6-1.7,7.8-3.1c0.8-5.3,4.2-8.1,7.7-10.8c6.5-4.8,13.2-9.4,20-13.9c1.3-1,3.2-1.3,4.8-1.8c-2-0.5-4-1.1-6-1.2
	c-0.9-0.1-2,0.9-2.9,1.5c-3.3,2.3-6.9,4.5-10,7.1c-5.7,4.7-11.6,9.5-16.7,14.9c-2.5,2.6-4.7,3.8-8,3.4c-1.1-0.2-2-0.9-3-1.3
	c0.4-0.9,0.7-2.1,1.4-2.7c2-1.8,4.3-3.4,6.4-5c10.2-7.7,20.3-15.4,30.5-23c4.1-2.9,8.3-5.7,13.7-2.5c1.5,0.9,3.9,0.4,5.8,0.5
	c2.7,0.2,5.4,0.5,8.1,0.6c2.3,0,4.7-0.2,7.1-0.2c1.3,0,2.7,0.3,4,0.3c4.3,0,8.6,0.1,12.8-0.4c1.1-0.1,2-2.3,3-3.5
	c-1.6-0.2-3.3-0.5-4.9-0.4c-3.1,0.2-6.2,0.9-9.2,0.9c-4,0-7.9-0.7-11.8-0.9c-1.6-0.1-3.3,0.5-4.8,0.3c-6.2-0.8-12.4-2-18.6-2.6
	c-1.6-0.1-3.7,0.8-5.1,1.9c-6.4,4.8-12.6,9.8-18.9,14.8c-8.2,6.5-16.4,13.3-24.8,19.6c-1.1,0.8-3.9-0.1-5.6-0.9
	c-0.6-0.3-0.6-3.1,0.1-4.2c0.9-1.7,2.5-3.2,4.1-4.3c18-11.4,34.5-25.2,53.3-35.4c5.8-3.1,11.4-6.5,16.9-9.9c2-1.2,1.5-2.1-0.5-3.2
	c-6.4-3.3-12.4-7.1-18.7-10.4c-2.4-1.2-5.9-2.6-8-1.8C350.2,392,344.5,395.7,337.5,399 M581.5,572c8.7,5,17.5,10,26.3,15
	c11,6.4,22,12.9,33,19.2c0.5,0.3,2-0.1,2.1-0.5c3.1-10.1,4.6-20.4,3.1-30.9c-2.1-13.6-11.1-20.8-23.8-23.6c-3.3-0.7-7.7,0.2-10.5,2
	c-2.5,1.6-4,1.7-6.3,0.7c-1.2-0.5-2.5-1-3.6-0.8c-5.2,0.5-10.4,0.7-15.3,2c-9.1,2.5-18,5.8-26.9,8.8c-0.9,0.3-1.6,1.2-2.5,1.7
	c1,0.5,2,1.1,3,1.4C566.9,568.7,573.7,570.3,581.5,572 M826.5,517c-6.2,11.8-12.2,23.6-18.6,35.2c-3.7,6.7-8,13-12.1,19.5
	c-0.4,0.6-1.1,1.1-1.7,1.7c0.8,0.2,1.8,0.2,2.6,0.6c7.6,3.8,11.6-1.6,16-6.2c11.7-12.1,23.6-24.1,35.2-36.3c1.5-1.6,3-4.2,2.8-6.1
	c-1.3-11.9-3.1-23.6-4.7-35.4c-0.2-1.4-0.6-2.7-0.8-4c-1.1,0.9-2.2,1.8-3.2,2.8c-0.6,0.7-1.2,1.5-1.6,2.3
	C835.9,499.6,831.5,508,826.5,517 M649.5,453c-6.5-0.3-13.1-0.7-19.6-0.9c-1.5-0.1-3,0.6-4.5,1c0.5,1.5,1.2,3,1.7,4.5
	c0.4,1.5,0.9,3.1,0.8,4.6c-0.3,3.7,1.9,4,4.7,3.8c7.2-0.4,14.4-0.8,21.6-0.9c1.2,0,2.5,1.3,3.8,2c-1.3,0.6-2.6,1.7-3.9,1.8
	c-8.1,0.8-16.2,1.3-24.2,2.2c-1.3,0.2-2.4,2-3.6,3.1c1.2,0.3,2.4,0.8,3.5,0.8c8.4-0.6,16.8-1.4,25.2-1.9c1.3-0.1,2.7,0.4,4,0.7
	c-1.4,1.1-2.8,2.9-4.3,3.1c-8.9,1.2-17.8,2.1-26.7,3.1c-0.7,0.1-1.3,0.2-1.9,0.4c0.5,0.5,1,1.5,1.6,1.5c3.2,0.2,6.4,0,9.7,0.1
	c9.5,0.3,19,0.8,28.5,0.9c2.9,0,6.5-0.4,8.6-2.1c9-7.4,17.6-15.4,26.3-23.2c0.6-0.5,0.8-1.3,1.2-2c-0.9-0.2-1.8-0.6-2.7-0.6
	c-3.5,0.3-7.1,1.1-10.6,0.9C676,455.1,663.2,454,649.5,453 M510,467.5c-0.7,4.6-1.3,9.1-2,13.7c-2,13.6-4.1,27.3-6,41
	c-0.6,4.4-0.1,9.2-1.4,13.4c-1.2,4,0.5,6,2.8,8.3c1.9,1.9,4.1,3.5,5.5,5.7c6,9,11.6,18.2,17.5,27.2c0.8,1.1,3.2,2.4,4,2
	c2.6-1.2,3.9-4.2,2.2-6.5c-4.9-6.5-9.5-13.4-15.7-18.4c-5.3-4.2-5.4-9-4.8-14c1.2-8.7,3.3-17.3,4.9-26c1.1-6.3,2-12.6,3-18.9
	c0.2-1.2,0.8-2.4,1-3.6c1.7-10,3.5-19.9,4.9-29.9c0.2-1.7-0.7-4.9-1.9-5.3c-6.8-2.7-11.7,0.5-13,7.7
	C510.8,464.8,510.3,465.6,510,467.5 M105.5,449c-11.2,0-22.3,0-33.5,0.1c-1.3,0-2.6,0.8-3.9,1.3c1.1,0.8,2.1,2.1,3.3,2.4
	c2.6,0.6,5.3,1.1,8,1.2c19.5,0.4,39,0.5,58.5,1.1c11.6,0.3,23.1,1.8,34.7,1.8c24.9-0.1,49.8,0.6,74.7,3c9.3,0.9,18.7,0.8,28,1.1
	c0.8,0,1.6-0.2,2.4-0.2c-0.4-0.6-0.8-1.2-1.2-1.8c-1.9-3.1-4.4-6-5.3-9.3c-1.6-5.4-2.1-11.1-3.3-16.7c-0.4-1.8-1.5-4.1-2.9-4.8
	c-1.8-0.8-3.7-0.1-5.4,2.4c-3.7,5.1-5,12.9-13.5,13.5c-0.4,0-1.1,1-1,1.5c0,0.5,0.8,1.3,1.3,1.3c2.9,0.2,5.7,0.1,8.5,0.1
	c2.9,0,5.9-0.4,8.7,0.2c1.3,0.2,2.3,2.2,3.4,3.4c-1,0.4-1.9,1.1-2.9,1.4c-2.1,0.4-4.3,1-6.5,0.9c-8.4-0.1-16.7-0.6-25.1-0.9
	c-13.7-0.4-27.5-0.6-41.2-1c-10.5-0.3-21.1-0.7-31.6-1c-9.9-0.3-19.8-0.8-29.7-1C122.2,448.9,114.3,449,105.5,449 M453,523.5
	c0,4.3,0.4,8.7-0.2,13c-0.2,1.6-2.2,4-3.8,4.3c-3.8,0.8-2-2.7-1.9-4c0.8-16.9,1.6-33.9,3-50.7c0.7-8.7,2.6-17.3,3.8-25.9
	c0.2-1.3-0.7-4-1-4c-2.1,0.1-5.4-1.7-5.9,2.2c-1.4,10.8-2.8,21.6-4,32.4c-0.6,6.1-0.5,12.4-1.1,18.5c-0.3,3.8-1.6,7.4-1.8,11.2
	c-0.4,6.2-0.8,12.6-0.1,18.7c0.3,2.3,3.9,6,6,5.9c4.3-0.1,8.6-2.2,12.9-3.6c0.2,0,0.1-0.9,0.1-1.4c0.3-4,0.7-8,1-12.1
	c0.7-7.9,1.1-15.8,2-23.6c1.9-15.5,4-31,6-46.5c0.1-1,0.3-1.9,0.5-2.9c-1.6,0.2-3.3,0.1-4.6,0.8c-1,0.5-1.5,2-1.9,3.1
	c-1,3.5-2.2,6.9-2.7,10.4c-1.9,12.7-3.7,25.5-5.3,38.3C453.4,512.5,453.3,517.5,453,523.5 M627.5,378c-4.1-2.1-8-4.8-12.4-6.2
	c-5.8-1.8-11.8-3-17.9-3.7c-5.9-0.6-6.4,5.3-8.1,8.9c-1.6,3.6,1.7,5.4,4.4,7c7.1,4.1,14,8.5,21.3,12.2c8.1,4.2,16.2,8.3,24.7,11.4
	c2.4,0.9,6.6-1,8.8-2.9c1.3-1.2,1.4-6.1,0.1-7.4C642,390.7,634.9,384.7,627.5,378 M627,526.5c2.6,5,5.1,10.1,10.2,13.3
	c0.8,0.5,1.2,1.7,1.8,2.7c-1.1,0.1-2.2,0.5-3.2,0.5c-6.3,0.1-8.2-5.4-10.7-9.2c-9.8-15.4-19.1-31.1-28.4-46.7
	c-1-1.6-2.3-4.1,1.7-4.2c0.9,0,1.7-1.1,2.6-1.7c-0.6-0.5-1.2-1.2-1.9-1.6c-5.8-2.9-11.7-5.7-17.5-8.5c-1.1-0.5-2.3-0.5-3.4-0.8
	c0.3,1.1,0.5,2.4,1.1,3.4c8.5,14.3,16.9,28.7,25.8,42.8c5.7,9,11.7,18,18.5,26.2c2.6,3.2,7.7,5.7,11.8,6c7.8,0.5,8.7,0.3,11.8,6.9
	c0.6,1.5,1.6,2.9,2.4,4.3c0.8-2,2.2-4,2.2-6c0.1-2.1-0.5-4.6-1.8-6.2c-3.1-4-6.5-7.8-10.2-11.3c-3.2-3.1-8.7-4.7-6.9-11
	c0-0.1-0.5-0.4-0.7-0.7c-6.3-11.3-12.7-22.7-19.1-34c-1.2-2.1-2.8-4.1-4.7-5.6c-0.9-0.8-2.8-0.5-4.3-0.7c0.3,1.3,0.3,2.8,0.9,4
	C612.1,501,619.3,513.5,627,526.5 M791,516.5c-1.4,1.4-2.7,3-4.3,4.2c-13.3,10.1-26.6,20-39.9,30.1c-0.7,0.5-1.2,1.1-1.8,1.7
	c0.8,0.2,1.5,0.5,2.3,0.5c7.2-0.3,14.4-0.9,21.6-0.9c6.1,0,11-0.2,15.4-6.4c6.8-9.9,15.4-18.7,23.4-27.8c3.9-4.5,8.4-8.5,12.6-12.7
	c3.9-3.9,7.8-7.7,11.6-11.7c0.7-0.7,0.5-2.2,0.7-3.4c-1,0.3-2.2,0.3-3,0.9c-3.9,2.4-7.7,4.9-11.5,7.4
	C809.3,504.2,800.4,510.1,791,516.5 M481.5,573c2.2,1.9,4.2,4,6.6,5.5c1.3,0.7,4.3,0.8,4.7,0.1c4-6.9,7.6-14.1,11.3-21.2
	c0.4-1,0.6-2.4,0.3-3.4c-2-8.2-7.1-9.7-13.5-9.8c-9.2-0.1-18.4,1-27.6,1.9c-4.1,0.3-8.1,1.2-12.1,2c-1.2,0.2-2.2,1-3.2,1.6
	c0.3,0.4,0.6,1,1,1.3c5.5,4,10.9,8.1,16.5,11.9C470.5,566.3,475.8,569.3,481.5,573 M282.5,467c-0.7-0.3-1.4-0.9-2.1-1
	c-19-0.7-38.1-1.3-57.1-2c-8.2-0.3-16.3-0.7-24.5-1c-17.9-0.7-35.8-1.3-53.8-2c-4-0.1-8-0.3-12-0.5c-16.9-0.5-33.9-1-50.8-1.5
	c-0.7,0-1.4,0.4-2.1,0.6c0.6,0.4,1.2,1.1,1.9,1.4c8.4,3.4,17.3,4.8,26.4,5c12.7,0.3,25.4,0.6,38,1c18.6,0.6,37.2,1.3,55.7,2
	c7.7,0.3,15.4,0.7,23.1,1c9.8,0.4,19.7,0.8,29.6,1c9.6,0.1,19.3,0.2,28.9-0.1c2.8-0.1,5.5-1.3,8.3-2
	C289.2,468.3,286.3,467.6,282.5,467 M618,543.5c-4.7-5.4-10.1-10.3-13.9-16.2c-10.9-17.2-21.2-34.8-31.5-52.4c-0.9-1.4-1-4-0.2-5.5
	c1.1-2.5,1.3-2.7-1.7-3.4c-1.9-0.5-3.9-1-5.8-1.6c-3.5-1.1-7.1-2.3-10.6-3.3c-0.3-0.1-1.4,1.2-1.2,1.4c4.6,8.4,9.1,16.9,14.1,25.1
	c6.8,11.1,13.6,22.1,20.9,32.9c5.4,8,11.4,15.6,17.3,23.3c1.7,2.3,11.4,3.2,13.6,1.4C619.1,545.2,618.7,544.4,618,543.5 M778,426.5
	c3.3,7.9,6.5,15.9,10.1,23.7c1,2.1,3,4.7,5,5.1c7.2,1.7,14.6,2.5,21.9,3.7c4.1,0.7,6.2-2.1,7.7-4.8c0.4-0.7-2.7-3.6-4.5-5.2
	c-5-4.6-10.4-8.8-15.2-13.6c-6.2-6.1-12-12.7-18.1-18.9c-4-4.1-12.2-5.7-16.2-3.6c-0.6,0.3-1.2,0.8-1.7,1.2c0.4,0.3,1,0.5,1.3,0.9
	C771.4,418.7,774.4,422.3,778,426.5 M495.5,716c-5.4,2.3-10.8,4.6-16.1,7.1c-0.8,0.4-1.7,2.9-1.7,3c4.7,2.7,9.2,6.3,14.3,7.6
	c4.1,1,6.7-3.3,8.1-7.3c0.2-0.6,0.9-1,1.4-1.4c0.8-0.6,1.7-1,2.5-1.5c0.3,0.8,0.9,1.7,1,2.6c0.9,9.1-7.7,15.8-16.5,12.9
	c-3-1-6.1-1.6-8.7-3.1c-3.4-2-4.6-0.7-5.9,2.3c-1.5,3.4-3.5,6.5-5.4,9.8c-0.7,1.2-1.5,2.5-2.2,3.8c1.6-0.3,3.3-0.4,5-0.8
	c4.1-1,8.1-2.1,12.2-2.9c2.5-0.5,5.2,0.2,7.4-0.7c5.4-2.2,10.6-5,15.8-7.7c7.7-4,9.9-8.9,8.3-16.3c-1.7-7.6-2.7-15.3-4-22.9
	c-0.2-0.9-0.9-1.7-1.3-2.5c-0.6,0.7-1.5,1.3-1.7,2.1C506.6,707.3,501.7,711.6,495.5,716 M749.5,561c7.6-0.3,15.2-0.9,22.8-0.9
	c5.6-0.1,11.4,0.2,17,1c4.3,0.6,7.4,0.7,9.8-4c7-13.7,14.6-27,21.7-40.5c1.4-2.6,1.9-5.7,2.8-8.5c-2.2,2.3-4.5,4.6-6.6,7
	c-6.3,7.4-12.5,14.9-18.9,22.2c-3.5,4.1-7.3,7.9-10.8,12c-0.5,0.6-0.6,2-0.2,2.6c0.7,1.1,1.9,1.7,2.9,2.5c-1.4,0.5-2.8,1.5-4.3,1.5
	c-5,0.2-10.1,0-15.1,0.1c-8.3,0.3-16.6,1.2-24.8,0.7c-3.1-0.2-4.3,0.3-5.8,2.5c-2.7,3.9-5.5,7.7-8.3,11.6c-0.5,0.7-0.9,1.4-1.3,2.1
	c1,0.4,2.1,1.1,3.1,1c7.2-0.2,14.4-1,21.5-0.8c5.2,0.2,9.1-0.9,11.8-5.4c0.4-0.7,0.8-1.3,1.2-2c-0.9-0.2-1.7-0.7-2.6-0.7
	c-6.2,0.3-12.4,0.9-18.6,0.9c-1.9,0-5.5-1.7-5.4-2.5c0.1-3,2.9-2.4,5.1-2.4C747.2,561,747.8,561,749.5,561 M745.5,578
	c-3.7,0.3-7.4,0.8-11.1,1c-4,0.2-7,0.9-8.6,5.5c-2,5.5-5.6,10.4-7.5,15.9c-3.2,8.9-5.1,18.1-4.2,27.6c0.2,1.8,2,3.8,3.6,4.8
	c0.8,0.5,3.2-0.8,4.2-1.8c1.6-1.7,2.7-3.9,4.1-5.8c2.3-3,2.8-5.8,0-8.9c-0.8-0.8-0.6-2.6-0.9-3.9c1.3-0.2,2.9-0.8,3.8-0.3
	c4.9,2.6,6.6-0.7,8.6-4c1.2-2.2,2.8-4.2,4.1-6.3c0.5-0.7,0.9-1.6,1.3-2.4c-0.9-0.1-1.9-0.4-2.8-0.4c-3.8,0-7.6-0.1-11.3,0
	c-3.2,0.2-4.6-1.4-3.6-4c0.4-0.9,3.2-1.2,5-1.3c5.2,0,10.7,0.9,15.8,0c2.1-0.4,3.7-4.3,5.4-6.7c2.2-2.8,4.3-5.8,6.4-8.7
	C754.1,578.2,750.3,578.1,745.5,578 M474,473.5c-0.3,0.5-0.9,1-1,1.6c-1.4,9.6-2.9,19.2-4,28.8c-1.2,11.2-2,22.6-3,33.9
	c-0.1,1,0.4,3.1,0.5,3.1c2.9-0.1,6,0.2,8.6-0.8c1.4-0.6,2.6-3.3,2.8-5.1c1.2-11.9,2.6-23.8,3-35.7c0.4-13.7,2.9-27.1,6-40.4
	c0.3-1.2,0.3-3-0.4-3.7c-1.9-1.9-9.8,0.6-10.3,3.2C475.2,463.1,474.7,467.8,474,473.5 M486,505.5c-0.3,4.5-0.7,9-1,13.6
	c-0.4,5.3,0.3,11-1.3,16c-1.5,4.7,0.6,4,3.3,3.9c1.2,0,2.3,0,3.5,0c2,0,3.6,0.5,3.6-2.8c0.2-5.6,1.3-11.1,1.9-16.7
	c0.7-6.5,1.1-13.1,2-19.6c1.9-13.4,4-26.7,5.9-40c0.2-1.2-1-3.8-1.3-3.7c-2.6,0.2-5.7,0.3-7.4,1.8c-1.6,1.4-1.7,4.5-2.2,6.9
	C490.6,478.1,488.3,491.3,486,505.5 M586,389.5c-0.3,3.4-0.8,6.7-1,10.1c-0.3,8.5-4,17.1,2.6,25.6c2.5,3.1,3.7,5.1,7.7,4.9
	c1.3-0.1,2.7,0.5,4.1,0.8c7.2,1.9,9.5,0.1,9.6-7.1c0.2-5.5,0.9-11.1,0.9-16.6c0-2.5-0.4-6.3-2-7.4c-6.7-4.6-13.9-8.3-20.9-12.2
	C586.9,387.5,586.3,388.2,586,389.5 M550.5,471c-0.8-1.3-1.8-2.6-2.5-4c-2-4.5-3.4-9.9-9.7-9.9c-1.8,0-4.6,1.3-5,2.6
	c-0.6,1.8,0.2,5.7,1.3,6c4,1.3,4.8,4.5,6.4,7.4c2.7,5,5.2,10,8.3,14.6c8.8,13.1,17.7,26,26.9,38.9c4.5,6.4,9.4,12.5,14.5,18.4
	c1.6,1.7,4.7,2.2,7.2,2.9c0.8,0.2,2-0.8,2.9-1.3c-0.6-0.5-1.3-1-2-1.6c-1.6-1.4-3.4-2.7-4.6-4.4c-8-11.5-16.2-22.9-23.7-34.7
	C563.6,494.7,557.5,483,550.5,471 M591.5,469c2.8,1.7,5.4,3.9,8.4,4.9c5.5,1.7,11.2,2.8,16.8,4.1c2.6,0.6,4-0.9,4.2-3.1
	c0.2-2.3-0.3-4.7-0.7-7.1c-0.6-4.2-1.1-8.5-2.4-12.5c-0.5-1.6-2.5-3.7-4.1-3.9c-4.8-0.6-9.7-0.3-14.5-0.4c-1.3,0-2.8,0.2-3.9-0.3
	c-4.6-1.9-8.3-0.5-11.9,2.3c-1.7,1.3-3.8,2-5.7,3c-1,0.5-1.8,1.1-2.7,1.7c0.7,0.7,1.4,1.4,2.2,2C581.8,462.7,586.4,465.6,591.5,469
	 M922,436.5c3.4-3.7,6.9-7.5,10.2-11.3c0.5-0.6,0.5-1.7,0.8-2.6c-0.9,0.2-2,0.1-2.7,0.6c-4.2,3.2-8.1,6.7-12.5,9.8
	c-8.6,6-17.2,12-26.1,17.7c-7.5,4.9-15.3,9.4-23,14.1c-0.5,0.3-1.1,0.5-1.7,0.7c0.7,0.5,1.2,1.3,1.9,1.5c4.8,1.4,9.5,3.2,14.3,3.8
	c4.6,0.6,9.5,2.2,13.5-2.8C904.9,457.6,913.5,447.6,922,436.5 M62,436.5c0.6-0.5,1.2-1.3,1.9-1.5c10.4-3,20.8-5.9,31.2-9
	c19.5-5.9,39.5-6.6,59.6-7c4.4-0.1,8.7-0.8,13.1-1c14.9-0.7,29.8-1.3,44.7-2c1.4-0.1,2.9-0.2,4.3-0.3c-1.5-0.6-2.9-1.2-4.5-1.7
	c-0.7-0.2-1.6,0-2.4,0c-6.1,0-12.2-0.1-18.2,0c-22.9,0.3-45.7,0.4-68.6,1.2c-8,0.3-16,2-23.8,3.9c-10.3,2.6-20.7,5.4-30.7,9.1
	c-5.3,2-9.9,5.9-14.5,9.5c-1,0.7-0.3,3.7-0.3,5.6c1.4-0.6,3-0.9,4.1-1.8C59.3,440.2,60.3,438.5,62,436.5 M763.5,419
	c-2.5-3.6-5.1-3.8-8.3-0.8c-4.7,4.3-9.6,8.3-14.3,12.5c-0.1,0.1,0.4,1.2,0.6,1.2c5.2,0.8,8.2,4.6,10.3,8.6c2.9,5.6,5.9,10,13.1,10.1
	c4.7,0.1,9.3,1.6,14,2.3c0.5,0.1,1.6-0.7,1.6-0.8c-1.5-4.3-2.6-8.7-4.6-12.6C772.2,432.7,768,426.2,763.5,419 M810,486.5
	c-6.8,1-12.6,3.7-17.2,9.1c-7.8,9.2-16,18-23.9,27.1c-3.4,3.8-6.7,7.8-9.9,11.8c-0.5,0.6-0.6,1.4-0.9,2.1c0.6-0.3,1.2-0.5,1.7-0.9
	c8.3-6.6,16.3-13.5,24.8-19.7c12.2-8.9,24.7-17.5,37.2-25.9c4.2-2.8,9-4.7,13.5-7.2c0.8-0.5,1.1-2,1.7-3.1c-0.9,0.1-1.7,0-2.5,0.2
	C826.5,482,818.5,484,810,486.5 M830.5,451c4.7,4,9.5,7.8,14,12c10.9,10.4,21.5,20.9,32.4,31.3c0.9,0.9,2.5,1.1,3.7,1.6
	c-0.4-1.4-0.5-3.2-1.4-4.1c-10.5-10.7-20.9-21.4-31.7-31.7c-14.3-13.4-28.9-26.5-43.6-39.5c-6.2-5.6-12.7-10.7-19.5-15.5
	c-4.6-3.2-9.9-3-14.8-0.1c-0.7,0.5-1.1,1.5-1.6,2.2c0.8,0.3,1.7,0.8,2.5,0.8c2.2-0.1,4.4-0.8,6.4-0.5c7.1,1,12.2,5.6,17.2,10.2
	C806.1,428.6,818,439.6,830.5,451 M240,444.5c-6-3-8.5-9-10.7-14.4c-2.2-5.3-4-7.7-10.4-7.3c-11,0.5-22.2-0.5-33.3-0.8
	c-1.2,0-2.4,0.5-3.6,0.7c0.8,0.8,1.6,1.8,2.6,2.3c5.7,3.2,11.5,6,17.1,9.3c11.3,6.5,23.7,9.7,36.2,12.6
	C238.6,447.1,241.8,448.5,240,444.5 M140.5,432c4.4,1,8.8,2.3,13.2,2.9c11.3,1.6,22.6,2.7,33.8,4.1c3.9,0.5,7.8,1.4,11.7,2
	c0.9,0.1,1.8-0.3,2.8-0.5c-0.8-0.5-1.6-1-2.4-1.5c-7.3-4.5-15.8-6.9-21.9-13.5c-1.3-1.4-4.5-1.5-6.8-1.4c-11,0.6-21.7,4.5-32.9,3
	c-2.3-0.3-4.7,0.4-7,0.7c2.1,1,4.2,2,6.3,3C138.1,431.1,139.1,431.3,140.5,432 M915,611.5c4.1-3.8,8.2-7.5,12.3-11.3
	c3.4-3.1,6.8-6.1,10.2-9.2c3.8-3.5,8-6.8,11.4-10.7c1.1-1.3,0.1-4.3,0.1-6.5c-1.2,0.8-2.6,1.4-3.7,2.4c-7.1,6.8-14.1,13.8-21.4,20.3
	c-10.8,9.5-21.9,18.7-32.9,28c-1.2,1-2.8,2.1,0.1,3.2c0.4,0.1,0.6,1,0.9,1.6c-0.9,0.2-1.7,0.6-2.6,0.7c-5.6,0.3-9.7,3.2-11.2,8.4
	c-0.3,1,0,2.2,0,3.3c1.3,0,2.9,0.4,3.7-0.2c3.8-3.2,7.5-6.7,11.2-10.1C900.2,624.9,907.4,618.5,915,611.5 M869.5,509
	c0.8-0.8,1.6-1.6,2.5-2.5c4.2-4.3,4.1-5.6-0.6-9.7c-3.3-2.7-6.4-5.6-9.5-8.4c-2.3-2.1-4.5-4.4-6.9-6.3c-0.9-0.8-2.3-0.8-3.5-1.1
	c-0.2,1.3-0.6,2.5-0.5,3.8c1.3,11.9,2.7,23.8,4,35.7c0.1,0.8,0.5,1.7,0.7,2.5c0.8-0.5,1.7-0.9,2.4-1.6
	C861.7,517.5,865.4,513.5,869.5,509 M434,530.5c1-12.7,2.1-25.4,3-38.2c0.8-11.2,1.3-22.4,2-33.6c0.1-0.9,0.2-1.8,0.4-2.7
	c-1.1,0.3-2.3,0.4-3.1,1.1c-0.9,0.7-2.1,1.9-2.2,3c-1.2,8.2-2.2,16.4-3.1,24.7c-0.8,7.2-1.4,14.4-2,21.6c-0.7,8.2-1.8,16.4-1.7,24.6
	c0,2.3,3.9,4.5,6,6.8c0.2-1.9,0.5-3.9,0.7-5.8C434,531.8,434,531.7,434,530.5 M399.5,436c-5.7,0-11.5-0.1-17.2,0
	c-2.9,0.1-6.4-0.3-8.6,1.1c-5.9,3.7-11.4,8.2-16.8,12.6c-4.5,3.6-7.4,9.3-14,9.9c-0.6,0.1-1.3,1-1.9,1.6c0.5,0.6,0.9,1.4,1.5,1.8
	c3.2,1.7,11.4-1.1,13.6-4.2c2.1-3,4.4-5.9,7.1-8.4c7.8-7.4,17-12.1,27.7-11.2c8.9,0.7,17.7,3.4,26.5,4.6c6.7,0.9,13.5,0.5,19.7-2.8
	c0.8-0.4,1.3-1.3,1.9-2c-0.9-0.3-2.1-1.2-2.8-0.9c-5.8,2.4-11.6-0.2-17.3-0.2C412.6,437.8,406.3,437,399.5,436 M422,501.5
	c0.3-4.2,0.6-8.4,1-12.6c0.9-8.7,2-17.5,2.9-26.2c0.2-1.2-0.3-2.5-0.5-3.7c-1.2,1-2.9,1.9-3.3,3.1c-1,3.6-1.5,7.4-2.1,11.1
	c-1.7,10.2-3.4,20.3-5,30.5c-0.8,5.2-1.8,10.5-1.9,15.8c-0.2,6.1-1.7,12.8,4.9,17.1c0.5,0.4,0.9,0.9,1.4,1.4
	c0.2-0.6,0.6-1.1,0.6-1.7c0-2.5-0.2-5.1,0-7.6C420.6,519.9,421.3,511.2,422,501.5 M554,337.5c-0.3-1.9-0.6-3.7-1-5.6
	c-0.4-1.3-1-2.6-1.5-3.9c-0.5,1.3-1,2.5-1.5,3.8c-0.1,0.5,0,1,0,1.5c-0.3,10-0.9,20.1-1,30.1c-0.1,15.1,0,30.3,0,45.4
	c0,1.9,1,3.8,0.9,5.6c-0.1,2.6-0.5,5.3-1.6,7.4c-0.4,0.7-4.5,1.4-5.4-2.1c-0.1-0.4-1.7-0.8-2.5-0.5c-3.1,0.9-6.2,1.9-9.1,3.1
	c-1.2,0.5-2.1,1.6-3.1,2.4c1.4,0.5,2.7,1.2,4,1.2c3.7,0.2,7.4,0,11.2,0.1c1.8,0.1,3.7,0.9,5.5,0.9c2.7,0.1,4.4-0.9,4.2-4.2
	c-0.3-3.9-0.2-7.8-0.1-11.7c0.3-16.7,0.7-33.3,1-50C554.1,353.5,554,346,554,337.5 M680.5,625c0,3.9,1.7,6.3,5.5,7.6
	c1.7,0.6,3,2.2,4.5,3.3c-0.1-1.7-0.4-3.5-0.5-5.3c-0.5-8.9,4.4-16.1,7-24.1c0.4-1.1,1.3-2.1,1.9-3.1c-1.3-0.1-2.6-0.4-3.8-0.4
	c-8.1,0.3-16.1,0.5-24.1,1.1c-2.3,0.2-4.4,2-6.7,3.1c0.2,0.2,0.3,0.8,0.5,0.8c2.4,0.1,4.9,0.4,7.3,0.3c5.5,0,10.9-0.3,16.3-0.2
	c0.9,0,2.4,1.4,2.4,2.2c0.1,0.9-1.1,2-2,2.6c-0.8,0.5-1.9,0.5-2.8,0.5c-6.5,0-12.9-0.2-19.3-0.1c-1.2,0.1-2.5,1.5-3.7,2.2
	c1.1,0.9,2.2,2.3,3.4,2.4c3.1,0.3,6.3,0,9.5,0.2c0.7,0,1.5,0.9,1.9,1.5C678.7,621.2,679.3,622.9,680.5,625 M554,550.5
	c-0.1-0.5-0.1-1-0.4-1.3c-10.5-11.4-20-23.5-27.8-36.9c-0.6-0.9-1.6-1.4-2.5-2.1c-0.4,1.1-1.1,2.2-1.3,3.4
	c-0.6,5.1,0.4,9.7,3.9,13.9c2.6,3.1,4.5,6.8,7.1,9.9c5.9,7.1,11.9,14.1,18,21c2.4,2.7,7.4,2,9.9-1.2c0.2-0.2-2.7-2.8-4.2-4.2
	C555.9,552.3,555.2,551.7,554,550.5 M331.5,394c5.4-2.7,10.8-5.4,16.1-8.1c1.2-0.7,2.2-1.6,3.4-2.4c-1.7-0.5-3.3-1.2-4.9-1.4
	c-0.8-0.1-1.8,0.5-2.6,0.9c-9.1,5.1-18.4,9.8-27.1,15.3c-10.8,6.8-21.1,14.3-31.7,21.4c-1,0.6-3.4,1.1-3.5,0.7
	c-0.8-1.4-1.1-3.1-1.3-4.7c-0.1-0.4,0.5-1,0.9-1.4c-2-0.1-4-0.2-5.9-0.3c-0.2,0-0.6,0.5-0.6,0.8c0.2,3,0.3,6.1,0.7,9.2
	c0.7,4,4,5.3,7.5,3c5-3.3,9.9-6.7,14.9-10C308.6,409.5,319.8,402,331.5,394 M504,687.5c-1.3-4.6-2.5-9.3-4-13.8
	c-0.1-0.5-2.4-0.8-2.6-0.5c-2.5,4.4-6.5,8.7-7.1,13.4c-0.9,7.7-6.5,12.7-8.8,19.4c-0.4,1-0.8,1.9-1.2,2.8c1.1,0,2.4,0.4,3.3,0
	c4.8-1.9,8.1-5.2,9.4-10.4c0.6-2.2,1.5-4.4,2.6-6.4c0.3-0.6,1.6-0.8,2.5-0.9c0.2-0.1,0.8,0.8,0.9,1.3c1,7.6-2.9,18.6-13.5,20.6
	c-2.8,0.6-5.7,1.5-8.4,2.5c-0.9,0.3-1.4,1.3-2.1,2c1,0.3,2.1,0.9,3.1,0.8c8.7-0.9,15-6.7,21.6-11.6c0.6-0.4,0.8-1.3,1.3-2
	C504.6,699.8,504,694.1,504,687.5 M63.5,442c-0.1,0.1-0.3,0.2-0.3,0.4c-0.1,0,0,0.3,0,0.3c2,0.2,4.1,0.7,6.1,0.4
	c6.1-0.9,12.1-2.6,18.2-3c9-0.5,18-0.1,27.1-0.1c9.8,0,19.7,0,29.6,0c0.9,0,1.9,0.3,2.8,0.4c-0.8-0.8-1.5-2-2.5-2.3
	c-4.5-1.5-9.2-2.7-13.8-3.9c-8.4-2.1-16.6-1.8-25,0.4c-4.7,1.2-9.9,1-14.9,1.4c-3.2,0.2-6.4-0.1-9.5,0.3c-2.6,0.3-5.2,1-7.8,1.7
	C70.3,439,67.2,440.3,63.5,442 M521,546.5c4.7,6.7,9.3,13.4,14.1,20c1.2,1.7,13,0.9,14-1.3c1.9-4.5-3.7-1.9-4.5-4.1
	c-0.1-0.3-0.5-0.5-0.7-0.7c-5-5.9-10-11.7-14.9-17.7c-2.8-3.5-5.2-7.4-8-11.1c-0.4-0.5-1.3-0.7-2-1.1c-0.3,3.4-1,6.7-0.9,10.1
	C518.2,542.4,519.7,544.2,521,546.5 M784,477.5c1.3-3.9,1.8-7.5-3.5-8.4c-5.3-1-10.7-1.4-16.1-2.1c-3.6-0.4-4.3,1.1-2.8,4.1
	c2.8,5.7,5.5,11.4,8.4,16.9c2.4,4.4,6.4,4.6,8.9,0.4C780.9,485.2,782.3,481.8,784,477.5 M812,465.5c-0.4-0.5-0.8-1.4-1.3-1.4
	c-6.2-0.9-12.4-1.4-18.5-2.4c-8.5-1.4-17-3.2-25.5-4.7c-9-1.6-17.9-3.3-27-4.7c-4.2-0.7-8.6-1-12.9-1.2c-0.9,0-1.9,1.3-2.8,2
	c0.8,0.6,1.5,1.6,2.4,1.8c2.3,0.6,4.7,0.7,7.1,1.1c6.4,1,12.8,2,19.2,3c8.6,1.3,17.2,2.6,25.8,4c5.6,0.9,11.2,2.2,16.8,2.7
	C800.7,466.2,806.1,465.9,812,465.5 M769.5,594c4.8,0.5,8.3-0.8,10-5.8c0.8-2.3,2.7-4.2,4.1-6.3c0.5-0.8,0.9-1.6,1.4-2.4
	c-1-0.2-1.9-0.4-2.8-0.5c-4.4-0.3-8.8-0.7-13.1-1c-3.1-0.1-5.7,0.2-7.5,3.7c-1.8,3.4-4.8,6.2-7.4,9.3c-0.5,0.6-1.4,1.1-2.1,1.6
	c1,0.5,1.9,1.3,2.9,1.3C759.5,594.1,764,594,769.5,594 M745,605.5c-1.5,1.9-3,3.7-4.6,5.6c-0.4,0.5-0.9,0.9-1.4,1.4
	c0.8,0.2,1.5,0.4,2.3,0.5c5.3,0.3,10.7,1,16,0.9c2.3-0.1,5.1-1.1,6.7-2.7c3-2.8,5.3-6.4,7.9-9.6c0.5-0.6,0.7-1.4,1.1-2.1
	c-0.8-0.1-1.5-0.5-2.3-0.5c-5.1,0-10.3,0.4-15.4-0.1C750.2,598.4,747.4,600.7,745,605.5 M740,413.5c2.9-2.2,5.8-4.4,8.7-6.7
	c0.6-0.5,0.9-1.3,1.3-2c-0.7-0.2-1.3-0.5-2-0.8c-2.1-1.3-4.4-2.3-6.3-3.9c-4.4-3.6-6.6-3.4-9.7,1.5c-0.8,1.1-1.8,2.4-1.9,3.6
	c-0.9,6.1-1.5,12.1-2.1,18.2c-0.1,1.2,0.4,2.4,0.7,3.6c1.1-0.9,2.4-1.6,3.3-2.7C734.6,421,737,417.5,740,413.5 M409,506.5
	c0.6-4.9,1.2-9.8,1.7-14.7c0.8-8.4,1.6-16.7,2.2-25c0.1-0.6-0.9-1.2-1.4-1.8c-1.5,2.2-3.9,4.3-4.2,6.6c-0.9,6.8-0.6,13.8-1.4,20.7
	c-1.2,11.6-4.3,23-1.9,34.7c0.3,1.4,1.3,2.7,1.9,4c0.7-1.4,1.9-2.8,2-4.3C408.3,520.2,408.3,513.6,409,506.5 M505,577.5
	c-0.3-0.4-0.7-0.7-1-1.1c-0.8-1.1-1.6-2.3-2.5-3.4c-0.5,1.8-1.2,3.5-1.4,5.3c-0.1,0.8,0.7,1.7,1.2,2.5c3.6,5.3,7.5,10.5,10.8,16
	c1.3,2.2,1.4,5.1,1.8,7.7c0.1,0.4-0.4,1-0.7,1.5c-0.5-0.3-1.2-0.5-1.6-0.9c-4.2-5.7-8.4-11.5-12.6-17.2c-0.5-0.7-1-1.3-1.5-1.9
	c-0.1,0.9-0.6,2-0.2,2.7c1.8,3.4,3.8,6.7,5.7,10.1c2.1,3.6,3.8,7.6,6.3,10.8c1.8,2.3,4.8,3.6,7.2,5.4c0.2-2.1,0.2-4.2,0.6-6.3
	c0.1-1,0.9-1.9,1.5-2.8c2.1-3.1,1.4-5.6-0.7-8.6C513.5,591,509.6,584.5,505,577.5 M281.5,509c23.7,0,47.4,0.1,71.1-0.1
	c2.4-0.1,4.7-2.1,7.1-3.1c-2.2-0.6-4.5-1.8-6.7-1.7c-14.4,0.5-28.9,1.2-43.3,1.9c-10,0.6-20.1,1.3-30.1,2c-0.5,0.1-1,0.4-1.5,0.6
	C278.9,508.8,279.7,508.9,281.5,509 M552.5,706c-2,0-4.2-0.6-6,0.1c-4.6,1.9-4.4-0.8-4.6-4c-0.3-6.1-0.4-12.4-1.8-18.3
	c-1.8-7.8-4.5-15.4-7.2-22.9c-0.8-2.2-2.6-3.9-4-5.9c0,2.5-0.7,5.3,0.2,7.4c6.2,14.4,10.2,29.3,10.8,44.9c0.2,4.8,3.2,4.1,5.7,3.5
	c6.1-1.4,12-3.2,18-4.8c0.4-0.1,0.9-0.3,1.3-0.4c-0.3-0.4-0.6-1.1-0.9-1c-2.7,0.5-6.1-4.6-8.2,1C555.6,706,554.3,705.9,552.5,706
	 M438.5,752c0.8,0.1,1.6,0.1,2.3,0.4c13.4,4.9,29.3-5.6,30.1-20c0.1-1.1-0.9-2.3-1.4-3.4c-0.8,0.8-1.9,1.5-2.3,2.4
	c-0.7,1.4-0.6,3.1-1.2,4.5c-2.9,6.7-12.6,15.2-21.6,10.9c-4.1-2-7.9-0.8-11.8-0.7c-0.9,0-1.7,1.1-2.6,1.7c0.7,0.7,1.3,1.8,2.1,2.1
	C434,750.7,436,751,438.5,752 M705.5,642c4.9-0.3,9.9-0.4,14.8-0.9c1.3-0.1,2.5-1.4,3.7-2.2c-1.3-0.3-2.6-0.7-3.9-0.9
	c-6.2-0.7-13.4-3.5-12.1-12.6c0.8-5.3,2-10.5,2.8-15.8c0.2-1.1-0.3-2.4-0.4-3.6c-0.8,0.8-1.7,1.6-2.4,2.5
	c-5.8,8.2-5.2,17.6-4.9,26.8C703.1,637.4,704.3,639.4,705.5,642 M299,397.5c-3.4,2.4-6.9,4.5-10,7.1c-1.6,1.3-2.5,3.4-3.8,5.1
	c2-0.7,4.1-1.2,5.8-2.3c9.5-5.7,18.9-11.6,28.3-17.4c5.6-3.4,11.3-6.5,16.9-9.8c1-0.6,1.9-1.5,2.8-2.2c-1.3-0.4-2.7-1.2-3.8-0.9
	c-2.7,0.7-5.4,1.6-7.7,3C318.1,385.6,308.8,391.3,299,397.5 M232.5,423c2.5,5.3,4.9,10.7,7.6,15.9c0.4,0.7,3.1,1.3,3.5,0.8
	c4.1-4.8,8-9.8,12-14.8c-0.4-0.3-0.9-0.8-1.4-0.9C247.3,423.7,240.4,423.3,232.5,423 M487,602.5c0.3,1.9-0.1,4.5,0.9,5.7
	c7,8.1,13.8,16.1,17.3,26.4c0.3,0.9,1.2,1.6,1.9,2.4c0.5-1.3,1.8-2.8,1.4-3.8c-3.2-8.5-6.1-17.2-10.4-25.1
	C496.2,604.6,493.1,599.6,487,602.5 M492,642.5c1.8,2.4,3.6,4.8,5.3,7.3c6.6,9.6,13.1,19.2,19.7,28.8c0.6,0.9,1.1,1.9,1.8,2.7
	c0.4,0.4,1.1,0.5,1.7,0.7c0.2-0.6,0.6-1.3,0.5-1.8c-1.3-4.3-1.7-9.3-4.2-12.7c-6.5-8.8-13.9-16.9-21.1-25.2
	C495,641.6,493.2,641.8,492,642.5 M749.5,416c2.5-1.9,5.1-3.7,7.6-5.6c4.3-3.4,8.4-7,12.7-10.4c1.2-1,2.7-1.7,4.1-2.6
	c-2.4-0.5-4.7-1.2-7.2-1.6c-0.7-0.1-1.7,0.8-2.3,1.4c-6.2,5.7-12.3,11.4-18.3,17.2c-5.1,5.1-9.9,10.4-14.9,15.6
	c-0.7,0.8-1.4,1.7-2.1,2.6c1.1-0.2,2.6,0,3.3-0.7C738,426.9,743.5,421.7,749.5,416 M715.5,458c1.2-1.5,2.2-3.1,3.5-4.5
	c3.3-3.4,6.7-6.5,9.8-10c0.9-0.9,0.8-2.6,1.2-4c-1.2,0.5-2.4,0.8-3.4,1.5c-1.4,0.8-2.7,1.7-3.9,2.8c-9.6,9.6-19.3,19.3-28.9,29
	c-0.8,0.7-1.2,1.8-1.8,2.7c1.2,0.1,2.5,0.5,3.7,0.2c1-0.2,1.9-1,2.7-1.7C704,468.9,709.5,463.7,715.5,458 M567.5,453
	c2.8-0.3,5.8-0.4,8.5-1.1c1.5-0.4,2.7-1.9,4-2.9c-1.3-0.3-2.5-0.9-3.8-1c-7.9-0.4-15.7-0.5-23.5-1.1c-5.1-0.3-10.1-1.3-15.2-1.8
	c-1.1-0.2-2.3,0.4-3.5,0.7c0.9,0.7,1.6,1.7,2.6,2.2C546.2,452,556.2,453.6,567.5,453 M399,505.5c0.3-1.2,0.9-2.4,1-3.6
	c0.7-7.9,1.4-15.9,1.9-23.8c0.1-1.4-0.4-2.7-0.6-4.1c-1.1,1.1-2.9,2-3.2,3.2c-0.5,2.4-0.2,5-0.4,7.5c-0.9,13-1.8,25.9-2.6,38.9
	c-0.1,1.1,1.2,2.3,1.9,3.4c0.6-1.1,1.9-2.2,1.9-3.3C399.1,517.9,399,512.2,399,505.5 M926,444.5c3.5-3.9,7.2-7.6,10.5-11.6
	c6.6-7.7,13-15.5,19.4-23.4c0.8-0.9,1.1-2.3,1.7-3.4c-1.3,0.5-2.9,0.7-3.7,1.6c-3.8,3.9-7.6,7.8-11,12c-6.5,7.9-12.7,15.9-19,24
	c-1,1.2-1.7,2.7-2.6,4.1C922.7,446.9,924.1,445.9,926,444.5 M518,587.5c1,2.1,2,4.2,3.2,6.1c0.3,0.4,1.6,0.2,2.4,0.3
	c0-3.3,1.2-7.3-0.3-9.7c-3.9-6.7-8.9-12.7-13.5-18.9c-0.8-1.1-1.6-2.1-2.4-3.2c-0.5,1.8-1.3,3.6-1.3,5.4c0,1.3,0.9,2.6,1.7,3.8
	C511.1,576.4,514.6,581.4,518,587.5 M775.5,574c3.5,0,7.3,0.9,10.3-0.3c3.1-1.2,5.3-4.5,7.9-6.9c-1.4-0.6-2.9-1.9-4.2-1.7
	c-6.4,0.9-14-3.2-19.1,4c-1,1.3-2.2,2.4-3.3,3.5c1.8,0.5,3.6,1,5.4,1.4C773.1,574.1,773.8,574,775.5,574 M740.5,618
	c-2.3,1.3-5.7,0.1-7.1,3.9c-1.3,3.3-3.9,6-5.8,9c-0.6,0.9-1,1.9-1.4,2.8c1-0.2,2.2,0,3-0.5c8.1-4.3,16.1-8.6,24.1-13
	c0.6-0.4,1.1-1.2,1.6-1.7c-0.7-0.2-1.5-0.5-2.3-0.5C748.9,618,745.2,618,740.5,618 M713,578.5c0.8-2.2,1.6-4.4,2.5-6.5
	c-2.9-0.4-5.8-0.9-8.6-0.9c-1.3,0-2.6,0.9-3.9,1.4c1.3,0.5,2.6,1,3.9,1.5c1.2,0.4,2.4,0.5,3.5,1.1c0.7,0.3,1.1,1.1,1.6,1.7
	c-0.7,0.4-1.4,1.1-2.1,1.2c-5.2,0.4-10.4,0.5-15.6,1c-5.4,0.5-10.8,1.2-16.1,2.1c-1.1,0.2-2.1,1.7-3.1,2.5c1.5,0.5,3,1.4,4.4,1.3
	c4.6-0.5,9.2-1.4,13.7-1.9c5.4-0.5,10.8-0.5,16.1-1.1C710.5,581.7,711.4,580,713,578.5 M623,497.5c4.5,6.9,9.4,13.5,11.1,21.8
	c0.1,0.3,2.2,0.8,2.5,0.5c2.6-2.9,3.8-11.2,1.3-13.8c-4.2-4.3-9.2-7.8-13.9-11.4c-0.5-0.4-1.6,0.2-2.4,0.3
	C621.9,495.6,622.2,496.3,623,497.5 M653,582.5c-0.4,6.9,3.4,12.5,6,18.5c0.4,0.8,1.2,1.3,1.8,2c0.6-1,1.8-2.1,1.6-2.9
	c-1.8-8.4-1.4-17.5-7.4-24.6c-0.9-1.1-1.9-2.1-2.8-3.2c-0.1,1.4-0.4,2.8-0.2,4.1C652.2,578.1,652.6,579.8,653,582.5 M589.5,322
	c3,0.3,6,0.8,9,0.9c0.8,0.1,2.1-0.7,2.3-1.4c0.2-0.6-0.5-2-1.2-2.3c-6.9-2.5-13.9-4.9-20.9-7.1c-1-0.2-3.6,1.4-3.5,2
	c0.2,2.4,0.9,4.9,1.9,7.1c0.5,1.2,2,1.9,3,2.8c0.3-1.1,0.7-2.2,0.9-3.4c0.1-1.1-0.2-2.3,0-3.5c0.2-1,0.9-1.9,1.3-2.9
	c0.7,0.6,1.5,1.1,2.1,1.7C586,317.8,587.5,319.6,589.5,322 M529,715.5c0.8,0.2,2.2,0.7,2.3,0.6c1.7-3.3,4.5-6.7,4.4-10
	c-0.1-6.6-1.6-13.1-2.8-19.6c-0.3-1.5-1.8-2.8-2.7-4.2c-0.4,1.7-1.3,3.4-1.1,5c0.4,4.7,1.7,9.4,1.7,14.1
	C530.9,705.8,529.7,710.1,529,715.5 M720.5,558c-5.9,0.6-11.9,1.2-17.8,1.8c-0.6,0-1.1,0.4-1.7,0.7c0.6,0.1,1.2,0.5,1.7,0.5
	c2.9,0,5.8-0.2,8.7,0.1c1.9,0.2,3.7,1.1,5.6,1.7c-1.7,0.7-3.4,1.5-5.2,2.2c-0.6,0.2-1.2,0.3-1.8,0.5c0.2,0.2,0.4,0.6,0.7,0.7
	c2.8,0.4,7.1,2.1,8.2,0.9c3.6-4,6.2-9,9.1-13.6c0.3-0.4,0.4-0.9,0.6-1.4c-1.7,0-3.3-0.2-5,0c-0.3,0.1-0.2,1.9-0.6,2.7
	C722.5,555.8,721.7,556.6,720.5,558 M388,464.5c6-2,12-4,18-6c0.7-0.3,1.3-1.1,2-1.6c-0.8-0.6-1.6-1.6-2.5-1.8
	c-1-0.3-2.3-0.1-3.3,0.3c-8.7,2.8-17.3,5.7-26,8.6c-0.7,0.2-1.4,0.4-2.2,0.5c0.8,0.5,1.6,1.5,2.4,1.4
	C380.1,465.8,383.8,465.3,388,464.5 M826.5,477c3-0.7,6.1-1.3,9.1-2.1c0.5-0.2,0.9-0.9,1.4-1.4c-0.6-0.2-1.2-0.5-1.8-0.5
	c-5,0.3-10,1.3-15,0.9c-6.1-0.5-10.2,2-13.8,6.3c-0.6,0.7-0.9,1.6-1.3,2.4c1-0.1,2,0,3-0.2C814.1,480.8,820,479.1,826.5,477
	 M519,706.5c0.3-2.6,1.5-5.5,0.9-7.9c-1.6-6.1-3.8-12-6-18c-0.3-1-1.7-1.6-2.6-2.4c-0.3,1.2-1.1,2.6-0.8,3.7
	c1.6,5.8,3.4,11.6,5.3,17.3C516.6,701.9,517.6,704.4,519,706.5 M489.5,668c-0.7,2.7-1.6,5.4-2,8.1c-0.3,1.6,0.1,3.3,0.2,4.9
	c0.8-1.2,1.5-2.4,2.3-3.5c0.4-0.5,1-0.9,1.4-1.4c4.5-6.7,5-15.9,1.1-21c-0.6-0.8-1.6-1.1-2.4-1.7c-0.4,1-1.1,2.1-1,3.1
	C489.2,660.2,489.7,663.8,489.5,668 M383,518.5c0-0.8-0.1-1.7,0-2.5c0.7-7.2,1.4-14.4,1.9-21.6c0.1-1.4-0.9-2.9-1.4-4.4
	c-0.8,1.5-2.3,2.9-2.4,4.4c-0.6,8.3-0.8,16.6-1.1,25c0,1.2,0.8,2.4,1.1,3.6C381.8,521.8,382.4,520.7,383,518.5 M870,471.5
	c-0.9-0.1-1.8-0.2-2.7-0.3c0.4,0.6,0.7,1.3,1.2,1.7c3.4,2.9,6.8,5.8,10.4,8.5c1.6,1.1,4.6,2.9,5.2,2.4c2.1-1.8,3.3-4.4,4.8-6.8
	c0.1,0-0.7-0.9-1.1-1C882,474.6,876.3,473.3,870,471.5 M701,597.5c1-0.9,2-1.8,3-2.7c-1.2-0.2-2.3-0.8-3.5-0.7
	c-10.4,0.9-20.8,1.9-31.2,2.9c-0.5,0.1-1,0.6-1.2,1c-0.2,0.2,0.3,1,0.6,1.1c1.2,0.4,2.4,0.9,3.6,0.9
	C681.7,599.4,691.1,598.7,701,597.5 M371,522.5c1.1,0.5,2.2,1,3.4,1.5c0.2-1,0.6-2.1,0.6-3.1c0-6.4,0-12.8-0.1-19.1
	c0-1.3-0.6-2.5-0.9-3.8c-1,1-2.8,1.9-2.9,2.9C370.9,507.8,371,514.6,371,522.5 M784.5,589c-0.5,0.6-1.1,1.2-1.5,1.9
	c-0.6,1.3-1.1,2.7-1.6,4c1.7-0.6,3.7-0.9,5-2c4.7-3.9,9-8.1,13.5-12.3c0.3-0.3,0.5-0.9,0.8-1.4c-0.5-0.1-0.9-0.1-1.4-0.2
	C791.2,577.1,788.2,583,784.5,589 M486.5,623c2.9,2.9,5.8,5.8,8.7,8.7c0.6,0.6,1.6,0.8,2.4,1.2c-0.2-0.8-0.2-1.8-0.6-2.4
	c-4.2-5.9-8.4-11.8-12.7-17.6c-0.5-0.7-1.6-0.9-2.4-1.3c-0.1,1.1-0.8,2.5-0.4,3.3C482.8,617.5,484.5,620,486.5,623 M864,423.5
	c0.6-0.9,1.1-1.9,1.8-2.8c4.9-5.6,9.9-11.2,14.8-16.8c0.6-0.7,0.9-1.6,1.4-2.4c-0.9,0.5-1.8,0.8-2.5,1.5c-3.5,3.7-6.9,7.4-10.2,11.3
	c-6.3,7.1-12.5,14.4-18.7,21.7c-0.3,0.4-0.1,1.3-0.1,2c0.5-0.4,1-0.8,1.5-1.3C855.8,432.5,859.7,428.2,864,423.5 M303.5,375
	c-4.8,3.7-9.5,7.5-14.2,11.3c-0.6,0.5-0.8,1.5-1.2,2.3c1-0.2,2.1-0.1,2.9-0.6c5.7-3.6,11.3-7.3,16.8-11c1.5-1,2.6-2.5,3.9-3.8
	c-1.9,0.1-3.8,0.1-5.7,0.3C305.3,373.6,304.7,374.1,303.5,375 M361,510.5c-3.1,4.4-6.1,8.7-9.1,13.1c-0.4,0.6-0.5,1.4-0.7,2.1
	c0.7-0.2,1.4-0.2,2-0.4c2.5-0.8,5.1-1.4,7.5-2.4c1.3-0.5,3-1.6,3.1-2.6c0.4-3.4,0.2-7,0.2-10.4C363.2,509.9,362.3,510,361,510.5
	 M425,426.5c-3.1,0.5-6.2,1-9.3,1.5c-0.6,0.1-1.4,0.6-1.6,1.1c-0.3,0.4-0.1,1.4,0.3,1.7c3.3,2.8,17,1,19.7-2.5
	c0.4-0.4,0.6-1.1,0.9-1.6c-0.7-0.2-1.4-0.6-2.1-0.7C430.4,426,428,426,425,426.5 M876.5,516c3.5,0.3,7,0.7,10.4,1
	c1,0,2.1-0.5,3.1-0.7c-0.4-1-0.5-2.2-1.2-2.9c-1.6-1.6-3.3-3.1-5.2-4.2c-1.2-0.7-3.5-1.4-4.2-0.8c-2.1,1.6-3.7,4-5.4,6
	C874.7,514.8,875.3,515.1,876.5,516 M735.5,441c-3.7,3.2-3.8,3.5-1.8,4.1c4.1,1.2,8.4,2,12.7,2.8c0.7,0.1,1.6-0.8,2.4-1.2
	c-0.5-0.6-0.9-1.2-1.4-1.8c-2-2-3.8-4.1-6-5.9C739.2,437.2,737,437,735.5,441 M416.5,755c2.3,0.3,4.7,0.5,7,1c2,0.4,3.8,1.5,5.8,1.7
	c1.2,0.1,2.4-0.8,3.7-1.2c-0.3-0.5-0.4-1.3-0.8-1.5c-5.3-1.9-9.7-7.7-16.4-4c-1.1,0.6-2.3,0.8-3.5,1.2
	C413.4,753.1,414.4,754.1,416.5,755 M465,728.5c-1.3,0.3-2.8,0.2-3.8,0.9c-4,3-7.9,6.4-11.9,9.6c-0.7,0.6-1.5,1-2.3,1.5
	c1,0.5,1.9,1.3,2.9,1.4c1,0.2,2.1-0.3,3.2-0.5C459.6,739.8,462.2,734.5,465,728.5 M388.5,410c-5.5,2-11,4-16.5,6
	c-0.7,0.3-1.3,0.9-1.9,1.4c0.7,0.2,1.4,0.3,2,0.6c3.6,2.2,6.7,0.7,9.7-1.3c3.6-2.3,7.4-4.6,11-7.1c0.6-0.4,0.8-1.3,1.2-1.9
	c-0.7-0.3-1.6-0.9-2.1-0.6C390.8,407.7,390,408.7,388.5,410 M570.5,425c-3.2-1-6.4-2.2-9.7-2.9c-1.1-0.3-2.5,0.5-3.8,0.8
	c0.9,1.4,1.6,3.6,2.8,3.9c4.2,1.1,8.6,1.6,13,2.2c0.7,0.1,1.5-0.4,2.2-0.6c-0.5-0.8-0.9-1.7-1.5-2.3
	C573,425.6,572.2,425.3,570.5,425 M364,749.5c5.6,2,11.3,4,17,5.9c0.6,0.2,1.5-0.1,2.3-0.3c0.1,0,0.1-1.2-0.1-1.3
	c-6.3-3.5-12.6-6.8-20.1-6.8C363.3,747.7,363.4,748.3,364,749.5 M483.5,585c4.1,4.4,8.2,8.9,12.3,13.3c0.5,0.5,1.4,0.9,2.1,1.3
	c0-1,0.5-2.3,0-2.9c-3.9-4.6-7.9-9.2-12-13.7c-0.4-0.4-1-0.9-1.5-0.9c-0.8-0.1-1.6,0.2-2.4,0.3C482.4,583.1,482.7,583.8,483.5,585
	 M390,499.5c0-0.5,0.1-1,0.1-1.5c-0.4,0.6-1,1.1-1.1,1.7c-0.7,7-1.4,14-1.9,21c-0.1,1.1,0.6,2.2,0.9,3.3c0.7-1.1,1.9-2.2,1.9-3.4
	C390.2,513.8,390.3,506.9,390,499.5 M519,635.5c-1.2-1.8-2.3-3.7-3.6-5.5c-0.4-0.5-1.3-0.6-2-0.9c-0.1,0.8-0.6,1.7-0.4,2.3
	c2.4,5.2,4.9,10.3,7.4,15.4c0.3,0.6,1.3,0.8,2,1.2c0.2-0.7,0.7-1.6,0.5-2.1C521.7,642.7,520.3,639.6,519,635.5 M782.5,606
	c0.9-0.9,1.9-1.8,2.8-2.8c0.8-1,1.5-2.1,2.3-3.1c-1.3,0.5-2.7,0.8-3.7,1.6c-3.9,3-7.8,6.2-11.6,9.3c-0.8,0.7-1.5,1.7-2.3,2.5
	c1.3,0,3.1,0.5,4-0.1C776.8,611.3,779.3,608.8,782.5,606 M163.5,442c-1.4-0.3-2.7-0.6-4.1-0.9c0,0-0.2,0.6-0.1,0.6
	c1.3,0.5,2.6,1.1,3.9,1.3c7.4,0.7,14.8,1.4,22.2,2c1.1,0,2.3-0.4,3.4-0.6c-1.3-0.5-2.6-1.3-3.9-1.3
	C178.1,442.6,171.3,442.3,163.5,442 M697.5,589c2.5,0,5,0.1,7.5,0c0.6-0.1,1.3-0.5,2-0.7c-0.7-0.5-1.3-1.2-2-1.2
	c-3.6-0.2-7.1-0.4-10.6,0c-3.8,0.3-7.5,1.2-11.1,1.9c-0.4,0.1-0.6,0.6-0.9,0.9c0.4,0.3,0.9,0.8,1.4,0.8
	C688,590.2,692.3,589.6,697.5,589 M733.5,545c-4.4,0-8.8-0.1-13.2,0.1c-0.8,0-1.5,0.9-2.3,1.4c0.8,0.5,1.6,1.4,2.4,1.4
	c4.1,0.2,8.2,0.2,12.3,0C733.2,547.9,733.6,546.3,733.5,545 M654,563.5c1.1,2.5,2.2,5,3.5,7.4c0.3,0.6,1.3,0.8,2,1.1
	c0.2-0.8,0.6-1.6,0.4-2.3c-0.5-2.5-1.1-5.1-2-7.5c-0.4-1.2-1.4-2.1-2.1-3.2C655.2,560.2,654.6,561.3,654,563.5 M1034,298.5
	c-0.9-0.2-1.8-0.6-2.7-0.7c-1.8-0.1-3.5-0.1-5.3-0.1c1.1,1,2.1,2,3.2,3c0.8,0.8,1.5,1.9,2.5,2.4c1.3,0.8,2.7,1.1,4.1,1.6
	C1035.4,302.8,1034.9,300.9,1034,298.5 M535.5,314c1.9,1,3.8,2.1,5.7,2.9c0.2,0.1,1.5-1.5,1.4-1.7c-1.8-2.3-3.6-4.5-5.6-6.6
	c-0.5-0.5-1.7-0.3-2.6-0.5c-0.2,0.8-0.5,1.6-0.4,2.3C534.2,311.5,534.7,312.5,535.5,314 M832.5,459c-2.6-0.1-5.2-0.2-7.7-0.2
	c-0.3,0-0.6,1.1-0.8,1.6c2.4,0.9,4.8,1.9,7.3,2.5c1.3,0.4,2.8,0.1,4.2,0.1C834.6,461.8,833.8,460.7,832.5,459 M372.5,448
	c-2.4,1.7-4.9,3.4-7.2,5.3c-0.6,0.5-0.8,1.5-1.2,2.3c0.8,0.2,1.9,0.7,2.3,0.3c3.3-2.7,6.5-5.6,9.7-8.6c0.5-0.4,0.5-1.3,0.7-2
	c-0.8,0.3-1.7,0.4-2.4,0.8C373.9,446.4,373.5,447,372.5,448 M728.5,538c-1.5,0.5-2.9,0.9-4.4,1.4c1.5,0.5,3,1.2,4.6,1.6
	c2.5,0.4,5.1,0.8,7.6,0.9c0.9,0,1.8-1,2.7-1.6c-0.8-0.4-1.6-1.1-2.5-1.3C734.2,538.6,731.8,538.3,728.5,538 M558,319.5
	c1.1,0.5,2.2,1,3.3,1.5c0.3-0.7,0.8-1.5,0.6-2.1c-0.7-2.3-1.4-4.7-2.5-6.9c-0.4-0.8-1.7-1.3-2.5-2c-0.3,1-1,2-0.8,2.9
	C556.5,314.8,557.3,316.6,558,319.5 M264.5,421c4,0,4.7-2.5,4.5-5.8c-1.4,0.3-2.8,0.5-4.2,0.8c-0.3,0-0.7-0.1-0.9,0
	c-1.3,0.6-2.6,1.3-3.9,1.9C261.3,418.8,262.7,419.6,264.5,421 M524,717.5c0.3-1.2,0.7-2.3,1-3.5c0.7-3.4-1.3-6.7-1.9-5.4
	c-1.2,2.8-1.5,6-2.1,9c-0.1,0.4,0.3,0.9,0.4,1.3C522.1,718.6,522.8,718.3,524,717.5 M698,624.5c-0.1-1.5-0.2-2.9-0.4-4.4
	c-0.5,1.4-1.3,2.7-1.6,4.1c-0.5,2.3-0.8,4.7-0.9,7.1c0,0.8,1,1.7,1.5,2.6c0.5-1,1.2-1.9,1.3-2.9C698.2,629.2,698,627.3,698,624.5
	 M323.5,531c-1.1,0.1-2.2,0.2-3.4,0.4c1,0.2,2,0.6,3,0.6c3.5,0,7-0.1,10.6-0.2c0.4-0.1,0.8-0.9,1.2-1.4c-0.6-0.1-1.2-0.4-1.8-0.4
	C330.2,530.3,327.4,530.7,323.5,531 M699.5,568c1.1-0.6,2.2-1.2,3.2-1.8c-2.6,0-5.4-0.4-8-0.1c-0.9,0.1-1.7,1.7-2.5,2.6
	c1.8,0.1,3.7,0.2,5.5,0.3C698.1,569,698.6,568.7,699.5,568 M873,649.5c1.4-0.7,2.8-1.3,4-2.2c0.5-0.3,1-1.7,0.8-1.9
	c-0.9-0.6-2.3-1.6-2.8-1.3c-1.7,1.1-3.2,2.7-4.8,4.2C871,648.8,871.7,649.4,873,649.5 M783.5,690c4,0.3,8,0.7,12,1
	c0.4,0,0.9-0.2,1.3-0.3c-0.4-0.3-0.9-0.5-1.4-0.7c-0.8-0.3-1.7-0.7-2.6-0.7C789.5,689.3,786.2,689.4,783.5,690 M848,541.5
	c-0.3,0.8-0.6,1.7-1,2.5c-0.5,1-1.1,2-1.6,2.9c1.6-0.5,3.5-0.6,4.6-1.6c0.8-0.8,0.8-2.6,1-4c0-0.7-0.3-1.5-0.4-2.2
	C849.9,539.7,849.2,540.4,848,541.5 M668,592.5c4.1-0.5,8.2-1,12.3-1.5c0.2-0.1,0.4-0.4,0.7-0.5c-0.3-0.2-0.7-0.5-0.8-0.5
	C676.4,591.6,671.8,587.7,668,592.5 M841.5,467c-1.1,0.3-2.1,0.5-3.2,0.8c1.2,1.4,2.3,3,3.8,4.1c0.3,0.3,1.8-0.8,2.8-1.3
	C843.9,469.6,843,468.5,841.5,467 M792.5,601c-1.4,2.3-2.8,4.5-4.2,6.8c2.1-1.6,4.2-3.1,6.1-4.8c1.1-0.9,1.8-2.3,2.6-3.4
	C795.7,599.9,794.3,600.2,792.5,601 M281,401.5c1.3,0.1,2.5,0.1,3.8,0.2c-0.3-1.8-0.7-3.6-1-5.4c-0.7,0.8-1.5,1.6-2.1,2.5
	C281.4,399.3,281.2,399.9,281,401.5 M517.5,626c-0.9-2.6-1.8-5.2-2.9-7.8c-0.1-0.4-1.1-0.4-1.7-0.6c0,0.7-0.2,1.6,0.1,2.1
	C514.3,621.7,515.7,623.6,517.5,626 M760.5,674c-1.8,0.2-3.7,0.4-5.5,0.7c0,0,0,0.8,0.1,0.9c2.1,0.5,4.2,1.1,6.3,1.3
	c0.8,0.1,1.6-1,2.5-1.5C763.1,674.9,762.3,674.5,760.5,674 M885.5,503c0.4,0.1,0.9,0.1,1.3,0.3c1.6,0.9,3.1,1.8,4.7,2.7
	c-0.9-1.3-1.8-2.5-2.8-3.8c-0.4-0.5-0.9-0.9-1.4-1.4C884.5,498.5,885.1,501,885.5,503 M741,521.5c2.3-0.2,4.5-0.3,6.8-0.5
	c0.3-0.1,0.8-0.8,0.8-0.9C747.5,519,741.4,519.7,741,521.5 M945.5,449c0.5-0.5,0.9-0.9,1.4-1.4c-0.5-0.2-1.2-0.6-1.5-0.5
	c-0.8,0.6-1.5,1.3-2.1,2.1c-1.2,1.6-2.2,3.4-3.3,5.1c0,0.1,0.3,0.4,0.5,0.7C942,453.2,943.5,451.3,945.5,449 M485.5,595
	c-1.5-0.8-3-1.7-4.5-2.5c0.6,1.2,0.8,2.7,1.8,3.5C483.3,596.5,484.9,595.7,485.5,595 M392.5,419c0.8-0.5,1.6-0.9,2.4-1.4
	c-1.7-0.2-3.3-0.5-4.9-0.5c-0.7,0-1.4,0.7-2,1.2C389.2,418.5,390.3,418.8,392.5,419 M474.5,577c0.3,1.9,0.8,2.3,2.9,2
	c0.5-0.1,1-0.4,1.5-0.6C477.8,577.9,476.6,577.5,474.5,577 M321,723.5c-0.5-0.5-1.1-0.9-1.6-1.4c0.2,1.2,0.4,2.3,0.6,3.4
	C320.3,725.2,320.7,724.8,321,723.5 M569,312.5c-0.8,0.4-1.6,0.8-2.3,1.3c-0.2,0.2,0,0.8,0,1.2C567.5,314.5,568.2,314,569,312.5
	 M470,722.5c0.7-0.2,1.3-0.3,2-0.5c-0.3-0.7-0.5-1.3-0.8-2C470.8,720.5,470.4,721,470,722.5 M148.5,441c1.5-0.2,2.9-0.4,4.4-0.6
	c-1.5-0.1-3-0.2-4.6-0.2C148.2,440.2,148.1,440.4,148.5,441 M773,619.5c-1,0.3-2,0.6-3,0.9c0.6,0.2,1.3,0.7,1.6,0.5
	C772.3,620.4,772.9,619.7,773,619.5 M668.5,622c-0.5,0.2-0.9,0.4-1.3,0.7c0.7,0.4,1.5,0.9,2.3,1.3
	C669.5,623.3,669.5,622.7,668.5,622 M155.5,442c0.8-0.1,1.5-0.2,2.3-0.3c-0.1-0.2-0.3-0.7-0.3-0.7
	C156.5,441.3,155.5,441.7,155.5,442 M528.5,644c-0.1,0.5-0.3,1.1-0.4,1.6c0,0,0.4,0.1,0.6,0.2C528.8,645.3,528.9,644.9,528.5,644
	 M570,321.5c-0.1-0.4-0.2-0.8-0.3-1.3c-0.2,0.1-0.6,0.2-0.6,0.2C569.2,320.9,569.4,321.5,570,321.5 M295.5,532
	c-0.1,0.2-0.3,0.4-0.4,0.6C295.4,532.6,295.7,532.5,295.5,532 M299,532.5c0.2,0.1,0.4,0.3,0.6,0.4
	C299.6,532.6,299.5,532.3,299,532.5 M312,531.5c-0.2-0.1-0.4-0.3-0.6-0.4C311.4,531.4,311.5,531.7,312,531.5 M859.5,536
	c0.1-0.2,0.3-0.4,0.4-0.6C859.6,535.4,859.3,535.5,859.5,536 M750.5,521c0.1-0.2,0.3-0.4,0.4-0.6C750.6,520.4,750.3,520.5,750.5,521
	 M786.5,609c0.1-0.2,0.3-0.4,0.4-0.6C786.6,608.4,786.3,608.5,786.5,609 M777.5,599c-0.1,0.2-0.3,0.4-0.4,0.6
	C777.4,599.6,777.7,599.5,777.5,599 M947,445.5c0.2,0.1,0.4,0.3,0.6,0.4C947.6,445.6,947.5,445.3,947,445.5 M801,586.5
	c0.2,0.1,0.4,0.3,0.6,0.4C801.6,586.6,801.5,586.3,801,586.5 M705.5,567c0.1-0.2,0.3-0.4,0.4-0.6C705.6,566.4,705.3,566.5,705.5,567
	 M129,427.5c0.2,0.1,0.4,0.3,0.6,0.4C129.6,427.6,129.5,427.3,129,427.5 M126,426.5c0.2,0.1,0.4,0.3,0.6,0.4
	C126.6,426.6,126.5,426.3,126,426.5 M419,418.5c0.2,0.1,0.4,0.3,0.6,0.4C419.6,418.6,419.5,418.3,419,418.5 M795,592.5
	c0.2,0.1,0.4,0.3,0.6,0.4C795.6,592.6,795.5,592.3,795,592.5 M523,633.5c0.2,0.1,0.4,0.3,0.6,0.4C523.6,633.6,523.5,633.3,523,633.5
	"/>
<path d="M248,800c-0.4-2.7,0.2-5.5,3-5.7c1.6-0.2,4,2,4.9,3.8c5.1,10.3,12.6,18.7,20.5,27.1c8.1,8.7,14.9,18.8,22.7,27.9
	c4.1,4.8,8.6,9.6,13.9,12.9c3.1,2,8.1,0.8,12.3,1.3c1.2,0.1,2.5,0.8,3.7,1.3c-1,1.4-1.7,3.5-3.1,4.3c-7,4.2-16.6,2.3-22.4-4.2
	c-8.6-9.5-16.4-19.8-24.5-29.8c-2-2.3-4.1-4.6-6-7c-11.7-14.5-25.1-26-44.2-30.1c-15-3.2-29.4-8.6-44.2-12.7
	c-16.4-4.4-32.3-9.6-47-18.1c-15.9-9-30.9-19-40-35.7c-1.4-2.6-4.4-4.3-6.7-6.3c-8.3-7.1-12.6-12.6-6.1-24.5
	C89.5,696,96,690,104.5,686c17.8-8.4,35.6-16.9,53.7-24.9c7-3.1,13.4-7.2,21.4-8.8c6-1.2,11-7,16.8-10c6.1-3.2,12.7-5.4,19-8.3
	c7.4-3.5,14.6-7.6,22.1-10.8c5.6-2.5,11.7-4.3,17.6-6.1c0.7-0.2,1.9,0.9,2.9,1.4c-0.8,1.1-1.3,2.8-2.4,3.4
	c-6.3,3.5-12.7,7.1-19.3,10c-9,4-18.5,7.1-27.4,11.2c-6.4,3.1-12.3,7.4-18.5,10.9c-1.8,1-4.1,1.4-6.2,2c-1.3,0.3-2.8,0.4-4.2,0.5
	c0.6,1.6,0.9,3.4,1.8,4.8c3.9,5.4,8.3,10.5,11.9,16.1c4.3,6.4,8.1,13.3,12.1,19.9c0.2,0.4,0.3,0.9,0.4,1.4c0.1,2.8,0.1,5.5,0.2,8.3
	c-1.7-1.7-3.6-3.1-4.8-5c-6.3-9.2-12.4-18.6-18.7-27.8c-2.2-3.3-4.7-6.6-7.7-9.2c-1.4-1.3-4.6-1.9-6.3-1.2
	c-13.5,5.8-27,12-40.4,18.2c-8.9,4.2-18,8.3-26.5,13.2c-4.2,2.4-7.6,6.3-10.7,10.2c-4,4.9-3.4,8.8,2.2,15.5
	c7.3,8.8,14.5,17.7,22.8,25.5c6.6,6.3,14.2,11.8,22.2,16.3c23.7,13.4,50,20.1,76.1,27.3c11.1,3.1,21.9,6.7,33.1,10.3
	c0.6,0.2,0.9,0.2,1.2,0.3C248.6,800.4,248.3,800.2,248,800"/>
<path d="M333.7,604.3c7.1,6.3,14.2,12.1,20.6,18.7c5.8,5.9,11,12.6,16.3,19.1c3.4,4.2,6.4,8.7,9.9,12.9c8.3,9.8,17.2,19.3,25.2,29.4
	c5,6.3,9,13.5,13.2,20.4c1.6,2.6,2.2,5.6-0.5,8.4c-2.8,3-5.7,2.1-8.2,0.4c-9.6-6.7-19.2-13.4-28.5-20.5c-5.5-4.2-11-8.7-15.7-13.8
	c-7.4-8-14-16.9-21.3-25c-5.7-6.3-12.2-11.8-17.8-18c-4.3-4.9-8.2-10.1-11.6-15.7c-2.6-4.3-2.3-9.7-0.9-14.4
	C316.8,598.7,327.1,597.7,333.7,604.3 M379,683.5c0.3,0,0.6,0,0.9,0.1c-0.3-0.2-0.6-0.4-0.9-1.1c-0.3-0.2-0.7-0.3-1-1
	c-2.3-4-4.6-8-7.1-11.9c-0.6-1.1-1.8-1.8-2.7-2.6c-0.4,1.2-1.3,2.5-1.1,3.5c0.4,1.6,1.3,3.3,2.4,4.4c2.7,2.6,5.7,4.8,8.5,7.6
	C378.3,682.7,378.7,682.8,379,683.5 M346,635.5c-0.3,0-0.6,0-0.9-0.1c0.3,0.2,0.6,0.4,0.9,1.1c3.4,10.7,9.9,19.5,17,27.9
	c0.7,0.9,2.2,1.1,3.3,1.6c-0.4-1.1-0.5-2.4-1.2-3.3c-5-7.1-10-14.1-15.1-21.2C348.7,639.7,347.3,637.8,346,635.5 M358,636.5
	c-1.3-1.6-2.5-3.4-3.9-4.8c-1.1-1.1-2.5-1.7-3.8-2.5c0.3,1.5,0.1,3.2,0.9,4.4c4.4,6.6,9.2,13.1,13.6,19.8c3.2,4.8,5.8,10,8.9,14.8
	c4.8,7.3,9.6,14.7,14.9,21.7c2.8,3.8,6.6,6.9,10.1,10.2c0.8,0.7,2.2,0.8,3.3,1.3c-0.5-1.2-0.8-2.5-1.6-3.4c-5-6.2-10.7-12-15.3-18.7
	c-4.7-6.8-9.3-13.6-12.5-21.7C369.6,650.1,363.3,643.8,358,636.5 M341.5,637c-0.4-0.7-0.7-1.4-1.1-2.1c-4.6-7.2-10.6-13.8-9.6-23.5
	c0.1-1.7-2.8-3.7-4.4-5.4c-0.3-0.4-1.2-0.6-1.3-0.5c-0.5,0.6-1.2,1.4-1,2c1.2,4.7,2.6,9.2,3.8,13.9c2.4,9.3,9.3,15.8,14.5,23.4
	c0.6,1,2,1.5,3,2.2c-0.4-1.1-0.9-2.3-1.3-3.4C343.4,641.6,342.7,639.5,341.5,637 M398,686.5c-2.5-3.1-4.9-6.3-7.4-9.4
	c-0.3-0.4-0.9-0.5-1.4-0.8c0.1,0.6,0,1.2,0.3,1.7c2.5,3.4,5.1,6.8,7.5,10.3c4.1,6.1,8,12.4,12.3,18.4c0.8,1.1,2.9,1.4,4.4,2.1
	c-0.3-1-0.2-2.2-0.8-2.9C408.2,699.6,403.3,693.3,398,686.5 M336.5,615c-0.5,0.1-0.9,0.2-1.3,0.3c2.2,4.7,4.4,9.3,6.6,14
	c0.4-0.4,1.1-0.7,1.1-1.1C343.8,622.7,342.2,618.2,336.5,615 M320.5,619c0.7,1,1.4,1.9,2.1,2.9c0.1-1.1,0.4-2.2,0.4-3.3
	c0-0.6-0.4-1.2-0.7-1.8c-1-2.1-2.1-4.3-3.1-6.5C319.4,613.1,319.7,615.8,320.5,619 M343.5,631c-0.1,0.2-0.3,0.4-0.4,0.6
	C343.4,631.6,343.7,631.5,343.5,631"/>
<path d="M430.2,681.8c-9.5-11.3-18.9-22.1-28-33.2c-6.4-7.7-12.7-15.6-18.7-23.7c-8.9-11.9-17.7-24-26.1-36.2
	c-1.2-1.8-1.4-6-0.2-7.5c2.5-3.1,6.5-3.8,9.8-0.6c5.6,5.3,11.4,10.6,16.4,16.5c8.4,9.8,16.5,20,24.4,30.3
	c7.8,10.1,16.3,20,22.7,31.1c4.4,7.6,8.8,16.1,7.4,25.8c-0.1,1.3-1,2.5-1.6,3.7c-0.8-0.8-1.5-1.7-2.3-2.5
	C432.8,684.3,431.7,683.2,430.2,681.8 M417,652.5c0.3,0,0.6,0,0.9,0.1c-0.3-0.2-0.6-0.4-0.9-1.1c0.3-0.4,0.9-0.9,0.9-1
	c-4.4-5.8-8.7-11.7-13.4-17.3c-1.7-2-4.3-3.2-6.5-4.7c1.4,2,2.6,4.2,4.1,6.1C407,640.4,412,646.2,417,652.5 M362,588.5
	c6.1,8.1,12.1,16.2,18.3,24.2c0.6,0.9,1.6,1.4,2.4,2.1c0-1.2,0.3-2.7-0.2-3.7c-2-4.1-3.8-8.5-6.6-12.1c-3.6-4.6-8.1-8.6-12.3-12.7
	C363.6,586.2,362.6,587.1,362,588.5"/>
<path d="M313.2,644.8c6.9,6.4,13.8,12.4,19.9,19c9.5,10.2,18.1,21.3,27.8,31.3c7.1,7.4,15.3,13.5,23,20.3c1.5,1.4,3.2,3.1,3.7,4.9
	c0.7,2.6,0.3,5.4,0.4,8.1c-2.3,0-5.1,0.9-6.9,0c-7.3-3.8-14.6-7.6-21.3-12.3c-8.3-5.8-16.4-11.9-23.7-18.8
	c-8.5-7.9-16.4-16.6-24-25.4c-5.1-5.9-9.6-12.6-13.7-19.3c-1.5-2.3-1.7-6-1.3-8.8c0.8-5,7.5-6.2,12.7-2.5
	C311,642.2,311.9,643.4,313.2,644.8 M329.5,677c3.8,4.8,7,10.1,11.4,14.2c9.3,8.7,19.2,16.9,29,25.1c1.9,1.6,4.5,2.3,6.8,3.5
	c-1.6-2.5-2.7-5.4-4.8-7.3c-6.7-6.1-14.3-11.3-20.5-17.8c-13.6-14.3-26.7-29.2-40-43.7c-1.1-1.2-2.8-1.9-4.2-2.7
	c0.5,1.5,0.8,3.2,1.4,4.7c0.3,1,1,2,1.7,2.8C316.5,662.7,322.8,669.6,329.5,677"/>
<path d="M469,679c-3.2,5.8-9.3,4.9-13.1-1.1c-5.9-9.3-8.6-19.8-10.9-30.4c-3-13.4-9.5-25.4-15.4-37.6c-1.6-3.4-1.8-7.9-1.4-11.8
	c0.3-4.3,5.8-5.5,9-2.4c12.8,12.6,21.5,27.4,24.9,45.2c1.7,8.9,4.6,17.5,6.4,26.3C469.3,670.8,468.9,674.7,469,679 M439,615.5
	c2.3,5.4,5.2,10.6,6.9,16.1c3.4,11,6.1,22.1,9.1,33.2c0.2,0.8,0.7,1.5,1.1,2.2c0.6-0.8,1.8-1.7,1.8-2.4c-0.2-3.9-0.5-7.7-1.3-11.4
	c-3-14.2-8.7-27.4-15.6-40c-1-1.8-2.5-3.3-3.7-5C437.7,610.5,438.1,612.7,439,615.5 M464,674.5c0-1.5,0.1-3,0-4.4
	c-0.1-0.7-0.5-1.4-0.7-2.1c-0.6,0.4-1.9,0.8-1.9,1.2c0.2,2.5,0.6,5.1,0.9,7.6C462.9,676.4,463.4,675.9,464,674.5"/>
<path d="M406.2,561.8c4.8,3.9,6.7,8.7,5.7,14.4c-0.4,2.1-2,4.5-3.8,5.6c-1.1,0.6-4.1-0.6-5.4-1.8c-3.7-3.4-6.7-7.6-10.5-10.9
	c-5.1-4.6-11.9-4.8-18.3-6.2c-6.6-1.3-13-3-19.4-5c-3.6-1-8.8-2.5-8.1-6.5c0.6-3.4,4.5-7.4,7.9-8.8c6.9-2.8,14.4-1.4,21,1.6
	c9.5,4.3,18.5,9.8,27.7,14.8C404.1,559.6,405,560.7,406.2,561.8 M371,552.5c-0.3,0-0.6,0-0.9-0.1c0.3,0.2,0.6,0.4,0.9,1.1
	c0.5,0.2,1.1,0.4,1.6,0.6c0.7,0.3,1.4,0.5,2,0.8c0.1-0.5,0.3-0.9,0.4-1.3c-0.7-0.2-1.4-0.5-2.1-0.6C372.3,552.9,371.6,553,371,552.5
	 M393.5,563c1.2,0.8,2.6,1.4,3.4,2.4c2.7,3.5,5.2,7.2,7.8,10.8c0.5,0.6,1.4,1,2.1,1.5c0.1-0.8,0.2-1.6,0.2-2.4
	c-0.1-0.8-0.2-1.6-0.5-2.3c-4.5-10.5-14.1-14.4-23.8-18c-0.4-0.1-1,0.1-1.4,0.2c0.3,0.5,0.4,1.1,0.8,1.4
	C385.6,558.8,389,560.9,393.5,563 M359,548.5c0.7,0.3,1.3,0.7,2,1c0.7,0.4,1.4,0.7,2,1.1c4.1,2,7.2,1.2,5.8,0
	c-2.3-1.8-5.4-2.5-8.3-3.5C360.3,547,359.8,547.7,359,548.5"/>
<path d="M317,517c4.3,0,8.2,0,12,0c0.8,0,1.8-0.3,2.4,0.1c1.6,0.9,3.1,2.2,4.6,3.4c-1.8,0.5-3.6,1.4-5.3,1.4
	c-11.7,0.2-23.5,0.1-35.2,0.1c-9,0-17.9-0.1-26.9,0c-26,0.3-52,0.7-78.1,1c-1,0-2.2,0.4-2.9-0.1c-1.4-0.8-2.4-2.2-3.6-3.3
	c1.2-0.5,2.5-1.5,3.7-1.5c11.5,0.2,23,0.9,34.5,0.8c15.7,0,31.4-0.6,47.1-0.9C285,517.7,300.8,517.3,317,517"/>
<path d="M916,677c8.5,0.3,16.5,0.6,24.6,1c0.9,0.1,2,0.3,2.6,0.8c1.1,0.9,1.9,2.2,2.8,3.3c-1.3,0.3-2.6,0.9-3.9,0.9
	c-13.4-0.3-26.7-0.8-40.1-1c-25.5-0.4-51-0.7-76.5-1c-1.3,0-2.9,0.5-3.9-0.1c-1.7-1-3.1-2.6-4.6-3.9c1.6-0.4,3.2-1,4.8-1
	c25.2,0,50.3-0.1,75.5,0C903.3,676.1,909.4,676.7,916,677"/>
<path d="M266,572c-11.9,0.3-23.2,0.5-34.6,1c-11.7,0.5-23.4,1.3-35.1,2c-4.4,0.3-8.7,0.8-13.1,0.9c-1.3,0.1-2.9-0.4-3.9-1.2
	c-1.3-1.1-2.2-2.7-3.2-4.1c1.5-0.2,3-0.5,4.6-0.6c13.9-0.3,27.9-0.6,41.9-1c22.3-0.6,44.7-1.4,67.1-1.9c1.7,0,3.5,1.3,5.3,2
	c-1.8,0.9-3.6,2.7-5.5,2.8c-6.7,0.3-13.3,0.1-20,0.1C268.5,572,267.5,572,266,572"/>
<path d="M313.2,845.8c-6.7-7.4-13-14.7-19.6-21.6c-2.7-2.9-2-5.2,0.8-6.8c0.9-0.6,3.6,0.2,4.5,1.2c8.3,9,16.3,18.2,24.5,27.2
	c4.9,5.5,9.9,11,15.2,16.2c3.8,3.7,8.1,2,12.1-0.2c1-0.6,2.1-1,3.1-1.5c0,1.5,0.5,3.2-0.1,4.4c-2.7,5.9-14.8,7.8-19.4,3.1
	C327.3,860.6,320.4,853.3,313.2,845.8"/>
<path d="M916,690c7,0.3,13.5,0.6,20,1.1c1.4,0,2.8,0.7,3.9,1.4c0.6,0.5,1,1.7,1,2.5c-0.1,0.4-1.4,1-2.2,1c-17.7-0.3-35.4-0.6-53-1
	c-5.1-0.2-10.1-0.8-15.1-1c-9.2-0.4-18.4-0.6-27.5-1c-1.2-0.1-2.7-0.3-3.6-1.1c-1.1-1-1.7-2.5-2.5-3.8c1.4-0.7,2.9-2.1,4.2-2
	c6.9,0.4,13.8,1.5,20.7,1.8c10,0.6,20,0.7,30,1.1C899.8,689.3,907.6,689.7,916,690"/>
<path d="M271,580c5.5-0.3,10.5-0.9,15.6-0.9c1.4,0,2.9,1.5,4.4,2.4c-1.5,0.8-2.9,2.3-4.4,2.4c-10.1,0.5-20.3,0.8-30.5,1.1
	c-15.2,0.4-30.4,0.6-45.6,1c-5,0.2-10.1,0.8-15.1,0.9c-1.1,0-2.3-1.5-3.4-2.4c0.9-0.8,1.8-2.2,2.9-2.4c3.3-0.6,6.7-1,10-1.1
	C226.8,580.6,248.6,580.3,271,580"/>
<path d="M360,146c0.3-5.8,0.6-11.2,1.1-16.5c0.1-1.2,1.2-3.3,1.8-3.3c1.8,0,4.3,0.4,5.1,1.6c3.3,4.9,6.1,10.1,9,15.2
	c1.2,2,2.3,4,3.5,6c0.5-2.5,1.2-4.9,1.4-7.4c0.5-6,0.6-12,1.2-18c0.1-1.3,1.8-2.4,2.7-3.6c0.7,1.4,2.1,2.8,2.1,4.2
	c-0.5,9-1.1,18.1-2,27.1c-0.3,3.5-3.3,5.1-6.1,2.7c-3.5-3-6.1-7-8.9-10.6c-1.7-2.3-3.1-4.8-4.6-7.2c-0.1,2.8-0.4,5.6-0.3,8.3
	c0.1,1.9,1.2,3.9,0.9,5.6c-0.5,2.4-1.6,6.2-3,6.5c-2.8,0.6-3.3-2.8-3.8-5.1C359.7,149.9,360,148.2,360,146"/>
<path d="M615.7,124.8c3.7-0.8,4.3,1.2,4.3,3.9c0,6.6-0.1,13.1,0.1,19.7c0,1.1,0.8,2.3,1.2,3.4c0.9-0.8,2.2-1.5,2.6-2.5
	c2.5-6.5,4.7-13,7.2-19.5c0.6-1.7,2-3.2,3.1-4.8c1.2,1.7,3.6,3.5,3.6,5.2c0.1,8.7-0.3,17.4-1,26c-0.1,1.4-2.9,2.5-4.5,3.8
	c-0.3-1.6-0.9-3.2-0.9-4.8c-0.1-1.7,0.5-3.5,0.6-5.2c0-1.6-0.2-3.2-0.4-4.8c-0.9,1.5-1.8,2.9-2.8,4.5c-0.9,1.6-1.6,3.4-2.8,4.7
	c-4.2,4.5-8.1,3.8-11-1.8c-3.6-7-1.9-14.3-1.5-21.5C613.6,129,614.8,127,615.7,124.8"/>
<path d="M411.2,154.3c-2.9,0.5-5.7,1.4-8.3,1c-5.6-1-4.2-6.5-4.7-9.8c-1.1-7.6-1-15.3-1-23c-0.1-1.2,2-3.2,3.2-3.4
	c6.5-0.6,18.1,6.7,19.5,12.4C422.2,141.1,419.9,149.3,411.2,154.3 M404,144.5c0.9,1.8,1.9,3.7,2.8,5.5c2.1-1.3,5-2.1,6-3.9
	c5.2-9.5,0.8-16.4-7.5-20.2c-0.2-0.1-1.2,0.8-1.2,1.2C404,132.6,404,138,404,144.5"/>
<path d="M674,139c-1,0.2-2.2,0.8-3,1.7c-1.8,2-3.2,5.4-5.3,5.9c-1.8,0.4-4.3-2.4-6.5-3.9c-0.7-0.5-1.2-1.1-1.7-1.7
	c-0.2,0.8-0.4,1.5-0.5,2.3c-0.4,3.7-0.6,7.4-1,11.1c-0.3,2.2-0.9,3.7-3.8,3.7c-3.4,0.1-2.2-2.2-2.2-3.6c0.3-6.9,0.6-13.7,1-20.6
	c0.2-2.9,4.7-4.4,7.1-2.1c2,1.9,3.3,4.5,4.9,6.9c0.6,1,1,2.2,1.5,3.3c0.8-1,1.8-1.9,2.5-3c1.7-2.9,3.1-6.1,5.1-8.8
	c0.8-1.2,3-2.7,3.9-2.4c1.3,0.6,2.7,2.5,2.9,4c0.6,6.9,0.9,13.7,1,20.6c0.1,2,0.4,4.6-3.1,4.6c-2,0.1-3-0.1-2.9-2.5
	C674.1,149.5,674,144.5,674,139"/>
<path d="M544,156c-2,1.9-3.9,4.6-6.5,1.9c-1.5-1.6-2.9-3.8-3.4-5.9c-1.5-6.9-2.5-14-3.6-21c-0.3-2.1-0.4-4.2-0.5-6.3
	c0-1.2,0.4-2.5,0.5-3.7c1.4,0.7,3.3,1.1,4,2.2c1.5,2.5,2.9,5.2,3.4,8.1c0.8,4.2,0.6,8.6,1.2,13c0.1,1.6,1,3.1,1.5,4.7
	c0.8-1.3,1.9-2.6,2.3-4c1.8-6.1,3.4-12.3,5.1-18.4c0.8-2.9,2.9-4.5,5.8-3.4c0.8,0.3,1.5,3.1,1.1,4.4c-3.1,9-6.5,17.9-9.9,26.8
	C544.9,154.9,544.3,155.1,544,156"/>
<path d="M355.7,124.8c-4.9,0.9-9.6,1.7-14.4,2.1c-2.5,0.2-4.6,0.2-4.4,3.6c0.2,3.1-0.2,6.2,4.1,6.5c0.5,0,1.1-0.2,1.5,0
	c1.5,0.8,3,1.7,4.5,2.5c-1.5,0.8-3,1.7-4.4,2.5c-1.9,1-5.1,1.6-5.4,2.9c-0.7,3.5-0.9,7.6,4.6,8.1c1,0.1,2,0.6,3,1
	c1.4,0.5,2.8,1.2,4.2,1.7c-1.4,1.1-2.7,2.9-4.2,3.2c-8.3,1.8-14.8-3.8-14.8-12.4c0-4.7,0-9.3,0-14c0-8.6-0.4-8.6,7.6-10.4
	c4.8-1,10-1,15-0.9C353.8,121.2,354.9,123.3,355.7,124.8"/>
<path d="M753,151c1.5,1.3,2.8,2.4,4.4,2.9c1,0.4,2.5-0.3,3.4,0.2c1.3,0.7,2.1,2.1,3.2,3.2c-1.1,0.9-2.1,2.5-3.2,2.6
	c-5.8,0.2-11.7,0.1-17.5,0.1c-0.5,0-1.3-0.4-1.6-0.9c-1.3-1.7-2.5-3.5-3.7-5.3c1.8-0.3,4.2-1.4,5.4-0.6c3.9,2.3,3.5,0,3.6-2.6
	c0.2-3.3,0.7-6.7,0.9-10.1c0.1-0.8-0.4-1.7-0.6-2.5c-0.7,0.4-1.3,0.9-2,1.2c-1.9,0.7-3.8,1.2-5.7,1.8c0.1-1.8-0.2-3.7,0.5-5.2
	c1.1-2.4,3.1-4.4,4.2-6.8c1.2-2.4,2.8-4,5.2-2.8c1.6,0.8,3.2,3.1,3.3,4.8C753.2,137.5,753,144,753,151"/>
<path d="M454,156c-9.3-1.9-10.7-14.3-7.7-22.7c1.6-4.5,6.8-8,10.2-7.3c4.9,1.1,8.4,5.4,8.5,10.7c0.1,3.8,0.5,7.6-0.1,11.2
	C463.5,155.2,462.1,156,454,156 M460,137.5c-1.5-1.7,0-6.1-3.9-5.3c-1.9,0.4-4.7,2.7-4.8,4.3c-0.4,3.8,0.3,7.7,1.3,11.4
	c0.3,1.3,3.1,3.2,3.8,2.9c1.5-0.8,3.1-2.7,3.4-4.3C460.4,143.9,460,141.2,460,137.5"/>
<path d="M560.7,150.3c-3.9-5.3-3-10.8-1.7-16.3c1.7-7.1,9.6-11.5,16.2-8.9c1.6,0.7,3.5,3,3.6,4.7c0.6,6.4,0.7,12.8-2.8,18.6
	C573.5,152.6,567.2,153.4,560.7,150.3 M565,145.5c2.6,2.3,4.5,2.1,5.9-1.3c1.2-3,1.7-6.3,2-9.6c0.1-1.5-0.6-4.1-1.6-4.4
	c-2.6-0.9-4.8,0.4-5.3,3.4C565.3,137.3,565,141.2,565,145.5"/>
<path d="M749,826c11.2,1,21.9,1.9,32.6,3.1c1.2,0.1,2.3,1.2,3.4,1.9c-1.3,0.7-2.6,1.8-3.9,1.9c-3.6,0.3-7.3,0.2-10.9,0.1
	c-13.7-0.3-27.3-0.6-41-1.1c-1.7,0-4.1-0.5-5.1-1.7c-1.7-1.9,0.5-5.2,3.4-5.2C734.5,825.2,741.5,825.7,749,826"/>
<path d="M311.7,598.8c-1.2,0.9-2.2,1.7-3.3,2.3c-4.6,2.2-6.5,1.2-6.4-3.7c0.2-7.2,3.3-13.1,8.8-17.6c5.8-4.8,11.7-9.3,17.7-13.7
	c1.1-0.8,2.7-0.7,4-1.1c-0.2,1.3-0.2,2.8-0.9,3.8C325.2,578.7,318.6,588.6,311.7,598.8 M307,592.5c-0.2,1.5-0.4,2.9-0.6,4.4
	c1.2-0.8,2.7-1.3,3.4-2.3c2.2-3.5,4.2-7.2,6.2-10.9c0.4-0.7,0.5-1.6,0.7-2.5c-1,0.2-2.5,0.1-2.9,0.7
	C311.4,585,309.2,588.3,307,592.5"/>
<path d="M483,146c0,3.7,0.2,6.8-0.1,10c-0.2,1.1-1.8,2-2.7,3c-1.1-1.1-3-2.1-3.1-3.2c-0.2-8.6-0.3-17.3,0-25.9
	c0.1-1.6,1.8-4.2,3.1-4.4c4.1-0.6,8.3-0.8,12.4-0.3c1.6,0.2,3,2.5,4.4,3.9c-1.7,0.6-3.3,1.6-5,1.8c-2.2,0.3-4.5-0.1-6.6,0.2
	c-0.9,0.2-2.2,1.6-2.2,2.4s1.2,2.2,2.2,2.4c1.7,0.4,3.6,0,5.4,0.2c0.8,0,2.1,0.8,2.1,1c-0.2,1-0.7,2.1-1.3,2.9
	C489.3,142.7,484.1,141,483,146"/>
<path d="M746,840c6.5,0.7,12.6,1.2,18.6,2.1c1.2,0.2,2.2,1.6,3.4,2.4c-1.3,0.5-2.6,1.5-3.9,1.4c-7-0.2-14-0.7-21-0.9
	c-7.6-0.1-15.1,0.2-22.6-0.1c-1.6-0.1-3-1.9-4.5-2.9c1.1-1.3,2.3-3.8,3.4-3.8C728.1,838.6,736.8,839.4,746,840"/>
<path d="M919.7,311.8c-0.4,0.6-0.5,1.1-0.7,1.5c-1.9,2.7-4.1,4.7-7.7,3.5c0.8-2.4,1.1-5.3,2.7-7.1c8.5-10,18.7-17.7,31.7-20.9
	c3-0.7,6.3-2.7,8.7,1.2c-2.2,1.3-4.3,3.2-6.7,3.9C936.7,297,928,303.7,919.7,311.8"/>
<path d="M356,765c8.8,0,17.1-0.2,25.4,0.1c3.9,0.1,7.8,1.1,11.7,2c1.2,0.2,2.4,1.1,3.6,1.7c-1.4,0.7-2.8,2-4.1,2
	c-13.5-0.1-27-0.3-40.5-0.9c-5.7-0.2-11.4-1.2-17.1-2c-1-0.1-1.8-1.1-2.8-1.6c1.2-0.8,2.4-2.1,3.6-2.2c2.5-0.1,5,0.8,7.6,0.9
	C347.4,765.1,351.4,765,356,765"/>
<path d="M952.7,648.3c-0.9,1.4-2,3.5-3.3,3.6c-11.3,0.5-22.7,0.7-34,1.1c-2.6,0.1-5.1,0.8-7.6,1c-2.5,0.1-4.7-0.1-4.9-3.6
	c-0.1-3.5,2.1-3.4,4.5-3.4c13.9,0,27.7,0,41.5,0C950.1,647,951.3,647.7,952.7,648.3"/>
<path d="M591,131c0.3-1.7,0.5-3,1-4.1c0.7-1.3,1.6-2.6,2.4-3.9c1.2,1.3,3.4,2.6,3.4,3.9c0,5-0.7,10-1.2,14.9
	c-0.1,1.4-0.4,2.9-0.6,4.2c-0.7,4,1.1,5.7,4.9,6.1c1.4,0.2,2.7,1.5,4,2.3c-1.4,0.9-2.7,2.2-4.3,2.5c-9.5,1.8-14.1-4.3-11.4-14.7
	C590.1,138.7,590.4,135.1,591,131"/>
<path d="M434,834c4.2,0.7,8,1.1,11.6,2.3c1.4,0.4,2.3,2.5,3.4,3.8c-1.5,0.3-3,0.9-4.4,0.9c-12.1-0.6-24.1-1.3-36.2-2
	c-2-0.2-5.5,1.2-5.1-2.4c0.1-1.4,3.6-3.4,5.6-3.4C417.1,833.1,425.3,833.7,434,834"/>
<path d="M410,864c-7-0.3-13.5-0.6-20-1.1c-0.7,0-2-1-1.9-1.2c0.3-0.9,0.8-2.3,1.6-2.6c1.9-0.6,4-1.1,6-1c9.7,0.2,19.4,0.5,29,1
	c1.6,0.1,3.3,0.9,4.6,1.9c0.7,0.5,0.8,2.1,0.6,3.2c-0.1,0.4-1.6,0.8-2.4,0.8C421.8,864.7,416.2,864.3,410,864"/>
<path d="M716,860c-5.9,0-11.4,0.2-16.8-0.1c-1.8-0.1-3.5-1.7-5.2-2.6c1.6-1.1,3.1-3.1,4.7-3.2c8-0.2,16,0,24,0.1
	c3.2,0.1,6.5,0.3,9.6,0.9c1.7,0.3,3.1,1.7,4.7,2.6c-1.5,0.8-3,2.1-4.6,2.2C727.1,860.2,721.8,860,716,860"/>
<path d="M560,748c-9.2,0-17.8,0.1-26.5-0.1c-1.8,0-3.7-0.5-5.3-1.4c-0.8-0.4-1.1-2.2-1.1-3.4c0-0.4,1.7-1.1,2.6-1
	c11.5,0.2,23,0.5,34.5,0.9c0.9,0.1,1.8,0.5,2.5,1c1.2,1,2.2,2.2,3.3,3.2c-1.3,0.3-2.7,0.7-4,0.8C564.2,748.1,562.3,748,560,748"/>
<path d="M301.2,734.8c1.4,0.3,2.7,0.2,3.6,0.6c0.6,0.4,1.1,1.6,1.1,2.5c0,0.4-1.3,1-2.1,1c-3.6,0.2-7.3,0-11,0.1
	c-9.2,0.3-18.5,0.7-27.7,1c-1.2,0-2.5,0.4-3.5-0.1s-1.7-1.7-2.6-2.7c1-0.7,2.1-2,3.1-2.1c4.4-0.2,8.7,0,13-0.1
	C283.8,734.9,292.4,734.7,301.2,734.8"/>
<path d="M415,816c-7.2,0-13.8,0.2-20.5-0.1c-1.5-0.1-3-1.8-4.5-2.8c1.6-0.7,3.2-2,4.7-2c11,0.1,22,0.6,33,0.9c0.5,0,1.1-0.2,1.5,0
	c2,1.2,3.9,2.5,5.8,3.7c-2,0.4-4,1.3-6,1.2C424.5,816.8,420,816.3,415,816"/>
<path d="M542.7,730.8c11.3-1.3,22.3-1.2,33.2,1.3c1.4,0.3,2.6,1.8,3.8,2.7c-1.3,0.4-2.7,1.2-4,1.1c-10.5-0.2-21-0.5-31.5-1
	c-1.1,0-2.2-1-3.2-1.6C541.5,732.5,542,731.8,542.7,730.8"/>
<path d="M692,867c7.4,0.7,14.2,1.3,21.1,2.1c0.7,0.1,1.3,1.2,1.9,1.8c-0.7,0.4-1.5,1-2.2,1.1c-9.2,0.4-18.3,0.7-27.5,1
	c-1,0-2.2-0.5-3.1-1.1c-0.9-0.6-1.5-1.7-2.2-2.6c1-0.7,1.9-2.1,3-2.2C685.8,866.8,688.7,867,692,867"/>
<path d="M421,793c0.7,0,0.9-0.1,1,0c2.1,1.2,6-0.1,5.7,3.9c0,0.5-3.8,1.1-5.9,1c-7.3-0.1-14.7-0.3-21.9-1.1
	c-1.8-0.2-3.3-2.5-4.9-3.9c1.6-0.6,3.3-1.9,4.9-1.8C406.8,791.5,413.6,792.3,421,793"/>
<path d="M497.2,769.8c0.9,1.2,3.8,3.1,0.1,3.1c-10.7-0.3-21.4-1.1-32.1-2c-1.4-0.1-2.7-1.7-4-2.6c1.4-0.4,2.9-1.3,4.4-1.2
	C476.1,767.8,486.5,768.7,497.2,769.8"/>
<path d="M567,724c-5.8,0.3-11.2,0.8-16.5,0.9c-0.8,0-1.7-1.6-2.5-2.4c1.1-0.8,2.3-2.4,3.4-2.4c12,0.2,24,0.5,35.9,1
	c0.9,0,1.7,1,2.5,1.6c-0.9,0.4-1.9,1.2-2.9,1.2C580.4,724.1,574,724,567,724"/>
<path d="M257,725.3c2.7,0,5.4,0.5,8.1,0.7c9.7,0.7,19.4,1.3,29.1,2.1c1,0,1.8,0.9,2.7,1.5c-1,0.4-1.9,1.4-2.9,1.3
	c-11.5-0.2-23-0.4-34.5-1C257.5,729.8,254.1,729.1,257,725.3"/>
<path d="M492,757c7.5,0.7,14.6,1.3,21.7,2c0.7,0.1,1.5,0.5,2,1c1.2,1,2.2,2.1,3.3,3.2c-1.3,0.3-2.7,0.8-4,0.8
	c-8.4-0.6-16.8-1.3-25.2-2.1c-1.3-0.1-2.5-1.3-3.8-1.9c1.5-1,3-2,4.5-3C490.7,756.9,491.2,757,492,757"/>
<path d="M931.7,270.7c-3.3,2-6.4,3.9-9.6,5.2c-1.8,0.7-3.9,0.6-5.9,0.8c0.8-1.6,1.3-3.5,2.5-4.7c5.8-5.8,13.2-8,21.1-8.9
	c1.3-0.2,2.8,1,4.2,1.5c-1.1,1.1-2,2.5-3.2,3C937.9,268.8,934.9,269.6,931.7,270.7"/>
<path d="M355.2,886.8c2.5,4.2,2,5-3,5.2c-2.6,0.1-5.3,0.4-7.9-0.1c-1.9-0.4-5.1-2.1-5-3c0.1-2.2,1.3-5.1,3-6.5
	C345.6,879.9,352.6,882.5,355.2,886.8"/>
<path d="M298,745c1.2,0,2-0.2,2.5,0c1.5,0.9,3,2,4.5,3c-1.4,0.6-2.9,1.9-4.3,1.9c-7.2-0.1-14.4-0.5-21.6-0.9c-0.9-0.1-1.9-0.5-2.5-1
	c-1.2-1.2-2.2-2.6-3.3-3.8c1.6-0.1,3.1-0.3,4.6-0.2C284.5,744.3,291,744.7,298,745"/>
<path d="M477,779c-8.9-0.7-17.3-1.2-25.6-2.1c-1.5-0.2-2.9-1.6-4.3-2.5c1.6-0.8,3.3-2.4,4.9-2.3c8.1,0.7,16.2,1.8,24.2,3
	c1.4,0.2,2.5,2,3.8,3.1C479.2,778.5,478.3,778.7,477,779"/>
<path d="M357.7,774.8c7.4,0.2,14.5,0.6,21.6,1.3c0.9,0.1,1.7,1.5,2.5,2.2c-0.8,0.6-1.5,1.5-2.4,1.7c-7.5,1.9-14.8,1.9-21.5-2.7
	C357.5,777,357.6,775.8,357.7,774.8"/>
<path d="M980.7,396c-1.3,2.1-2.9,4.3-4.6,6.4c-0.3,0.3-1.1,0.3-1.7,0.5c0.2-0.6,0.2-1.4,0.6-1.8C976.8,399.3,978.7,397.7,980.7,396"
	/>
<path d="M981.7,394c0.1,0.7,0,1.3-0.5,2C981.2,395.3,981.3,394.7,981.7,394"/>
<path d="M823,599c10,0.7,19.5,1.3,29,2c0.7,0.1,1.3,0.6,2,0.8c-0.4,0.7-0.7,1.7-1.3,1.9c-1.4,0.6-3,1.3-4.5,1.2
	c-9.6-0.2-19.3-0.5-28.9-1c-1.8-0.1-3.5-1.3-5.3-2c1.8-1,3.6-2.1,5.5-2.8C820.4,598.7,821.5,599,823,599"/>
<path d="M852,589c-4.8,0-9.2,0.2-13.5-0.1c-1.5-0.1-3-1.1-4.5-1.7c1.3-0.9,2.6-1.8,4-2.7c0.4-0.2,0.8-0.5,1.2-0.5
	c9.3-0.2,18.5-0.4,27.8-0.4c1,0,2,1.3,3,2c-1,0.8-1.9,2.2-3,2.3C862.2,588.5,857.3,588.7,852,589"/>
<path d="M332.2,409.3c8.2-5.2,16.1-10.3,24.2-15.1c1.5-0.9,3.7-1.4,5.4-1c1.6,0.3,2.8,2,4.2,3.1c-1.1,0.9-2,2-3.2,2.7
	c-16.4,8.4-31.3,19-46.1,29.8c-7.8,5.7-15.6,11.4-23.3,17.2c-1.3,1-2.1,2.9-3.5,3.5c-1.9,0.7-4.5,1.4-6,0.6
	c-2.2-1.2-2.7-4.3-0.5-5.9C299.5,432.5,315.8,421,332.2,409.3"/>
<path d="M296.2,456.8c-3.5-2-3.7-4.4-0.9-6.5c8.7-6.6,17.5-13.1,26.5-19.3c12.5-8.6,25.3-16.9,38-25.2c2.7-1.8,5.5-3.7,8.6-4.6
	c1.4-0.4,3.4,1.2,5.2,1.9c-0.7,1.3-1,3.2-2,3.7c-22.1,10.8-40.9,26.6-61.5,39.7c-2.6,1.7-5.2,4.1-6.6,6.8
	C301.8,456.4,299.7,457.4,296.2,456.8"/>
<path d="M621.2,578.8c2.4,3,4.7,5.7,6.5,8.6c0.5,0.8-0.1,2.4-0.2,3.6c-0.7-0.7-1.5-1.3-2.1-2.1c-6.9-8.7-15.5-15.1-25.9-18.9
	c-3.8-1.4-7.6-2.6-11.3-4.1c-0.9-0.3-1.5-1.3-2.2-2c1-0.7,2.1-2,3-1.8c3.8,0.7,7.6,1.6,11.2,3C608,568.1,615.6,571.7,621.2,578.8"/>
<path d="M634.7,583.3c1.2,1.8,2.3,3.3,3,5c0.5,1.1,0.5,2.5,0.7,3.7c-1.5-0.2-3.3-0.1-4.6-0.8c-1.2-0.8-1.9-2.4-2.8-3.7
	c-2.6-3.9-5.2-7.8-7.7-11.7c-0.6-1-0.8-2.3-1.2-3.4c1.1,0.2,2.3,0.3,3.4,0.6C630.6,574.4,632.2,579,634.7,583.3"/>
<path d="M754.2,502.3c6.3,0,12.3,0.4,18.3,0.8c0.2,0,0.6,1.2,0.5,1.3c-1.6,0.9-3.2,2.4-4.9,2.5c-4.2,0-8.4-0.5-12.6-1
	c-1.1-0.1-2.2-0.8-3.4-1.3C752.7,503.9,753.4,503.2,754.2,502.3"/>
<path d="M691.5,155.4c-0.8-3.8-2.4-7.6-1.6-10.9c0.8-3.3,0.6-5.6-0.8-8.4c-2.7-5.1-0.8-8,5.1-8.3c2.5-0.1,5,0,7.4,0.4
	c1,0.1,2.3,1.5,2.3,2.3c0.1,0.8-1.2,2-2.1,2.5c-0.8,0.6-2.1,0.5-3,1c-1.3,0.7-2.6,1.6-3.8,2.5c1.8,0.9,3.5,1.8,5.4,2.4
	c0.7,0.2,1.9-0.8,2.6-0.6c1.6,0.5,2.9,1.5,4.5,2.3c-1.3,0.9-2.6,1.8-4,2.7c-2.6,1.4-7.8-0.4-6.9,5.2c0.2,1.3,1.8,2.8,3.2,3.5
	c1.2,0.5,3,0.1,4.4,0.3c1.4,0.2,2.8,0.6,4.1,0.9c-1,1.2-1.8,3.1-3.1,3.5C700.7,157.8,695.9,159.7,691.5,155.4"/>
</svg>
