<?xml version="1.0" encoding="utf-8"?>
<!-- Generator: Adobe Illustrator 23.1.0, SVG Export Plug-In . SVG Version: 6.00 Build 0)  -->
<svg version="1.1" id="Contours" xmlns="http://www.w3.org/2000/svg" xmlns:xlink="http://www.w3.org/1999/xlink" x="0px" y="0px"
	 viewBox="0 0 1045.5 1140.4" style="enable-background:new 0 0 1045.5 1140.4;" xml:space="preserve">
<desc  xmlns:shape="http://adobe.com/products/shape"></desc>
<path d="M1028.5,442.1c0,21.4,0,42.2,0,63c0.1,1.9,0.6,3.8,1,5.6c1,4.4-3.8,8.4-8.6,7.4c-4.2-0.9-8.4-1.6-12.7-1.9
	c-12.1-0.8-24.1-1.3-36.2-2.1c-8-0.5-16.1-1.5-24.1-1.9c-17.7-0.8-35.3-1.3-52.9-2.1c-11.4-0.5-22.8-1.3-34.2-1.9
	c-7.3-0.4-14.7-0.7-22-1.1c-13.1-0.6-26.2-1.3-39.2-2c-12.7-0.6-25.5-1.4-38.2-1.9c-16.5-0.8-33.1-1.4-49.7-2.1
	c-8.6-0.3-17.3-0.6-26-1c-13.7-0.6-27.3-1.6-40.9-1.9c-9.5-0.1-19,0.9-28.6,0.9c-16.3-0.1-32.7-0.6-49-1
	c-11.4-0.2-22.8-0.7-34.1-0.9c-19.8-0.4-39.5-0.8-59.3-1c-35.1-0.4-70.3-0.9-105.4-1c-16.1,0-32.2,0.6-48.3,0.9
	c-17.3,0.4-34.7,0.9-52.1,1c-11.6,0-23.2-0.8-34.9-0.9c-50.8-0.4-101.7-0.7-152.6-1.1c-8.3,0-16.6-0.2-25,0.1c-15,0.5-30,1.3-45,1.9
	c-5.2,0.2-7.1-1.7-7-7c0.2-3.7,1.1-7.4,0.9-11.1c-0.2-4.2-1.9-8.4-1.8-12.6c0.4-12.8,1.5-25.5,1.8-38.2c0.2-7.6-0.8-15.2-0.9-22.8
	c-0.1-23.8-0.1-47.6,0-71.5c0.1-11.3,0.7-22.7,1-34.1c0.3-10.2,0.8-20.3,1-30.5c0.1-14.3-0.1-28.6,0-42.9c0.2-18.1,0.7-36.3,1-54.4
	c0.3-17.5,0.6-35,1-52.4c0.3-11.1,0.6-22.1,1-33.1C8.8,78.7,9.4,71,9.4,63.2c0-8-0.9-16-0.8-24.1c0-10.5,0.4-21,1.1-31.5
	c0.1-1.6,2.8-4.2,4.4-4.3c18.8-0.9,37.7-1.5,56.6-2.1c9-0.3,18-0.5,26.9-0.7c7.7-0.2,15.4-0.5,23.1-0.3c21.1,0.5,42.2,1.3,63.3,1.9
	c11.5,0.4,23.1,0.8,34.6,1c17.7,0.4,35.4,0.7,53.1,1.1c10.2,0.2,20.4,0.6,30.6,0.9c9.5,0.4,19,0.7,28.6,1c11.4,0.4,22.8,0.7,34.2,1
	c16.3,0.4,32.5,0.8,48.8,1.1c16.9,0.4,33.7,0.6,50.5,1c11,0.2,21.9,0.6,32.8,0.9c8.7,0.3,17.4,0.8,26.1,1c20.3,0.4,40.7,0.8,61.1,1
	c39.5,0.4,79,0.7,118.6,1c31.4,0.3,62.8,0.7,94.2,1.1c22.4,0.2,44.7,0.7,67.1,0.9c21.6,0.2,43.1,0.1,64.7,0
	c9.7-0.1,19.5-0.9,29.2-0.9c10.2,0,20.4,0.8,30.6,0.9c7.6,0,15.2-0.6,22.8-1c4.4-0.2,6.5,2.1,7,6.7c1.1,12.1,2.7,24.2,3.8,36.3
	c0.6,6,0.6,12,0.7,17.9c0.2,15.8,0.2,31.6,0.4,47.4c0.3,16.5,0.5,33,1.1,49.5c0.4,12.5,1.5,24.9,1.8,37.4c0.6,22.7,1.1,45.4,1,68.1
	c0,33.6-0.8,67.1-0.8,100.7c0,16.7,0.8,33.4,1.3,50.1C1028.1,432.7,1028.3,437.2,1028.5,442.1 M199.5,277.6c-0.3,0-0.6,0-0.9,0
	c0.3,0.2,0.6,0.3,0.9,1c-0.2,1.1-0.5,2.2-0.7,3.3c0.4,0.1,0.9,0.1,1.3,0.1C199.9,280.7,199.7,279.4,199.5,277.6 M182,301.1
	c2.4-0.3,4.7-0.6,7.1-1c0.5-0.1,1.3-0.8,1.3-1.3s-0.5-1.4-1.1-1.6c-1.1-0.5-2.4-0.5-3.5-1.1c-0.9-0.6-2.2-1.6-2.2-2.5
	c0.1-4.6,0.7-9.3,0.8-14c0-1.2-1.2-2.3-1.8-3.5c-0.7,1.1-2,2.2-2,3.3c-0.1,6.9,0.1,13.7,0.2,20.5c0,0.4,0.5,0.8,0.2,1.2
	c0,0.3,0,0.7-0.1,1C181.1,301.8,181.3,301.4,182,301.1 M273,187.1c2.2-2.9,4.6-5.7,6.7-8.7c4.2-6.2,8.7-12.3,9.1-20.1
	c0.1-1.3-1-2.6-1.5-3.9c-0.6,0.9-1.3,1.7-1.8,2.7c-3.6,8.1-7.3,16.3-10.9,24.4c-0.8,1.9-1.4,3.8-2.6,5.6c0,0.3,0,0.7-0.1,1
	C272.1,187.8,272.3,187.4,273,187.1 M701,493.1c8,0.4,16,0.7,24.1,1.1c2.8,0.1,5.7,0.5,8.5,1c7.2,1.2,9.7-1.2,10-8.6
	c0.1-4,1.1-7.9,1.7-11.8c1.7-11.2,3.7-22.5,5.1-33.8c1.1-8.3,1.5-16.7,2-25.1c0.1-1.2-0.7-3.1-1.6-3.6c-1.8-1.1-4.2-1.2-6.1-2.2
	c-3.4-1.9-4.3-0.6-5.3,2.8c-2.7,9.3-5.6,18.6-9,27.7c-2.2,5.9-4.7,11.8-8.2,17.1c-4.8,7.4-11,14-15.9,21.4c-2.7,4.2-3.9,9.3-6.3,14
	c0,0.3,0,0.7-0.1,1C700.1,493.8,700.3,493.4,701,493.1 M956,505.1c1.6,0.4,3.1,0.9,4.7,1c8,0.4,16,0.7,24.1,1
	c1.1,0.1,2.3,0.2,3.4,0.2c9,0.6,17.9,1.5,26.9,1.7c2.2,0,5.6-0.4,5.5-4.9c-0.5-29.9-0.8-59.8-1.1-89.6c-0.2-26.5-0.4-52.9-0.4-79.4
	c-0.1-12.7,0.3-25.4,0.4-38.1c0.2-17.6,0.5-35.2,0.4-52.8c-0.1-11.3-0.9-22.6-1.4-33.8c-0.6-12.8-1.6-25.5-1.9-38.2
	c-0.4-12.5,0-25-0.1-37.5c-0.2-10.5-0.7-21-1-31.4c-0.3-10.1-0.5-20.2-1-30.3c-0.9-14.5-2-28.9-3-43.4c-0.3-4.2-2.4-6.4-6.6-6.5
	c-5.3,0-10.7,0.1-16,0c-68.1-0.3-136.1-0.6-204.1-1c-31.7-0.2-63.3-0.7-94.9-0.9c-14.2-0.2-28.4-0.1-42.5-0.1
	c-14.4,0-12.9-1.5-12.9,13.1c0,7.4,1.8,14.3,6.5,19.8c6,7,13,13.1,18.8,20.2c4.2,5.2,7.9,11,10.5,17.1c2.8,6.5,5.2,13.5,6,20.5
	c1.3,11.5-0.5,23-7.7,32.6c-5.5,7.3-10.9,14.4-13.5,23.5c-2.5,8.4,3.2,17.8,11.7,16.2c4.2-0.7,8.4-1.3,12.5-2.3
	c4.9-1.3,9.1,0.1,12.6,3.3c1,1,1.1,2.9,1.6,4.3c-1.5,0.2-3.6,1.2-4.5,0.6c-4.6-3.4-9.1-1.8-13.6-0.2c-13.7,4.8-25.3-3.3-28.3-13.6
	c-2.1-7.4,0.4-14.1,4.2-20.3c4.2-6.8,9.4-13,13-20.1c4.4-8.5,5-17.7,3.4-27.4c-2.2-13.4-7.1-25-16.9-34.6
	c-5.3-5.1-10.4-10.5-15.1-16.1c-2.2-2.7-3.7-6.1-5.2-9.4c-3.4-7.4-3.2-15.3-3-23.2c0.2-3-0.9-4-3.9-4c-6.9-0.1-13.7-0.7-20.6-0.9
	c-13.4-0.4-26.8-0.7-40.3-1.1c-15.2-0.3-30.5-0.6-45.7-1c-12.8-0.3-25.5-0.7-38.3-0.9c-25-0.4-50.1-0.8-75.2-1
	c-10-0.2-19.9,0.1-29.9-0.1c-9.9-0.2-19.8-0.8-29.7-0.8c-1.8,0-4.3,1.1-5.3,2.5c-5.5,7.9-12.2,15.2-13.6,25.3
	c-1.4,9.6-3.6,19.1-4.3,28.7c-0.4,6.3,1.7,12.7,1.7,19.1c-0.2,10.8,3.6,20.4,7.5,30c4.8,11.9,13,21.8,20.7,31.9
	c15.8,20.5,23.5,43.4,21.9,69.4c-0.4,6.7-0.6,13.4-1,20.1c-0.9,13.4,9.7,29,22.8,32.2c3.6,0.8,7,2.3,10.5,3.4c4,1.3,3.5,4.3,1.8,6.4
	c-2.7,3.3-6,6.2-9.3,8.8c-9.1,6.9-20,7-30.7,8.1c-1.6,0.1-3.3,0.8-4.9,1.3c1.5,0.5,2.9,1.5,4.4,1.6c16.9,1,32.6-1.9,46.2-13
	c3.5-2.9,6.7-7.3,12.5-6c2,0.5,4,1,6,1c6.1-0.2,12.2-0.2,18.1-1.1c10.6-1.5,21.3-3,31.7-5.6c16.6-4.2,33.3-7.5,50.6-7.3
	c18,0.2,35.8,1,53.5,4.9c11.7,2.6,23.6,4.4,35.4,6.2c13.7,2.1,27.3,4.5,41.1,5.7c7.7,0.8,15.7-0.3,23.5-0.8
	c14-0.8,25.1-6.9,33.4-18.1c2.1-2.8,3.6-6,5.8-8.6c2.5-3,3.6-5.8,1.8-9.6c-4.1-8.6-7.9-17.4-12.1-26c-2-4-3.6-8.7-6.8-11.6
	c-10.7-9.7-11.1-21.9-8.2-34.3c1.9-8.4,5.2-16.5,3.9-25.3c-0.8-5.2-0.3-10.4-6.4-14c-4.5-2.6-7.4-8.2-10.3-12.9
	c-1.1-1.8-0.5-4.7-0.3-7c0.9-7.7,7.4-10.5,12.6-14.6c5.3-4.2,10.1-9.1,15.4-13.3c4-3.2,7.9-7.2,12.5-8.3c5.7-1.5,12.2-1.3,18-0.2
	c12.8,2.4,25.6,5,37.8,9c9.1,3,17.8,8,26.1,12.9c8.2,5,15.6,11.3,23.8,16.4c3.6,2.2,4.9,5.3,5.7,8.6c0.9,4.4,0.9,9,1,13.6
	c0.1,1.1-0.7,3-1.4,3.1c-1.1,0.3-3-0.5-3.4-1.4c-1.3-2.7-2.8-5.7-2.9-8.7c-0.3-5.2-1.2-9.4-6.6-11.8c-3.3-1.4-6.3-3.6-9-5.9
	c-11.9-10.1-25-17.6-40.3-21.2c-10.8-2.6-21.4-6.4-32.2-9c-8.5-2.1-16.6-1.3-23.1,5.7c-2.1,2.3-4.2,4.7-6.6,6.6
	c-6.5,5.1-13.4,9.8-19.7,15c-1.6,1.3-2.8,4.3-2.5,6.3c0.9,7.4,12.2,16.4,20,16.7c1.3,0,2.5,0.6,3.8,1c-0.8,1.3-1.4,3.1-2.6,3.8
	c-1.8,1.1-4.1,1.3-6.1,1.9c0.9,2.1,1.8,4.2,2.7,6.4c0.1,0.2-0.1,0.7,0,0.9c1,1.7,1.7,3.8,3.2,4.8c1.4,1,3.6,1,5.5,1.1
	c6.4,0.5,7.7,2.6,5.4,8.5c-0.4,1.1-0.5,2.8,0,3.9c1.9,4.4,3.6,8.8,3,13.8c-0.1,0.5,1.3,1.2,1.9,1.8c0.4-0.6,0.7-1.1,1-1.8
	c1.5-3.7,2.3-7.9,4.7-11c2.3-3.1,3.9-5.2,1.2-8.8c-2.3-3.2-1.1-5.2,2.6-4.3c6.5,1.7,12.9,3.5,18.9,6.2c2.4,1.1,6.3,3.4,3.7,8.1
	c-0.8,1.5-0.5,4,0,5.9c2.1,7.8-0.2,15.1-2.2,22.3c-1.6,6-7.9,10.1-14.5,7.7c-7.1-2.7-11.9-6.3-12.5-14.3c0-1-0.8-1.9-1.3-2.9
	c-0.9,0.9-2,1.7-2.5,2.8c-0.7,1.5-0.7,3.4-1.5,4.9c-2.3,4.3-9,7.4-3.8,13.9c0.4,0.4-0.7,1.7-0.7,2.5c-0.1,2.2-0.5,4.7,0.3,6.6
	c3.7,8.7,7.7,17.4,11.9,26c2.2,4.3,5.3,7.1,10.9,7.4c5.1,0.3,8.7-2.1,12.9-4.1c8.3-3.9,16.9-7.5,25.4-11c2.8-1.1,3.6-2.7,3.5-5.5
	c-0.2-8.5,2.7-16.3,5.8-24.1c2.1-5.4,5.3-4.9,9.4-3.8c3.3,0.9,6.2,0.3,8.8-2.1c6.2-5.7,6.3-12.8,4.5-19.4c-1-3.7-3.2-6.8-7.8-7.2
	c-5.2-0.5-2.9,4-4.2,6c-0.6,1-1.4,2-2.1,2.9c-0.5-0.6-0.9-1.2-1.4-1.9c-0.6-0.9-1.2-1.8-1.8-2.7c-0.4,1.2-0.8,2.3-1.2,3.5
	c-0.2,0.6,0.1,1.5-0.2,1.9c-1.3,1.5-2.7,2.9-4.1,4.3c-0.4-2-0.8-4-1.2-6c0-0.1,0.3-0.2,0.3-0.3c2.1-7.4,4-14.6-4.4-20
	c-3.6-2.3-2.4-6.6-2.2-10.3c0-0.7,0.4-1.4,0.6-2.1c-0.7,0.2-1.4,0.3-2.1,0.5c-7,1.8-14.1,4.2-21.3,0.3c-0.9-0.5-2.5-0.4-3.4,0
	c-4,1.9-8.1,2-12.3,0.9c-4.9-1.3-9.9-2.5-14.6-4.5c-8.1-3.4-12-10.9-16.3-18c-3.2-5.3-4.7-10.9-4.8-17c0-0.8,0.5-2.3,0.9-2.3
	c1-0.2,2.5-0.1,3.1,0.5c1,0.9,1.5,2.4,2,3.7c1.7,4.9,2.6,10.3,5.1,14.8c7.8,14.1,20,19.2,36,15.9c2.1-0.4,4.4-0.1,6.6-0.1
	c5.3,0,10.5,0.3,15.7,0c3.6-0.3,7.1-1.4,10.7-1.9c1.2-0.2,2.5,0.2,3.8,0.4c-0.5,1.2-0.9,2.6-1.6,3.7c-4.1,6.4-2.4,12.2,3.7,15.6
	c7.6,4.1,16,6.9,21.5,14.2c4.3,5.7,5.8,12.1,4,18.9c-2,7.6-8.5,15.8-19.2,14.1c-3.8-0.6-5.9,1.2-6,4.3c-0.1,4.9-1.1,9.4-3.6,13.6
	c-0.2,0.4,0.1,1.5,0.4,1.7c0.6,0.2,1.6,0.1,2-0.3c1.5-1.3,2.7-3.2,4.4-4c1.7-0.9,3.9-0.9,6-1.3c0.1,1.6,0.2,3.2,0.3,4.7
	c0.1,0.9-0.1,2.6,0.2,2.7c1.3,0.2,3.2,0.7,3.9,0c5.9-5,11.2-10.5,12.3-18.9c0.3-2.2,2.2-5.2,4.1-6c5.7-2.2,8.7-6.1,9.7-11.8
	c0.9-5.6,2.3-11.1,2.4-16.6c0-4.4-2.4-8.7,0.1-13.3c0.7-1.2,0.6-3.8-0.3-4.9c-3-3.6-2.2-6.4,0.3-10.1c3.1-4.6,7.4-9.2,4.6-15.8
	c-0.8-1.7-0.5-3.9-0.7-5.9c1.9,1.5,3.9,2.8,5.5,4.4c1.1,1.1,1.6,2.7,2.1,4.2c1.7,5.3-1.7,9.6-3.3,14.3c-1,3.1-0.9,6.7-1.1,10
	c-0.2,1.6,0.6,3.3,0.3,4.8c-0.9,6.5-3.7,12.9,0.1,19.4c0.2,0.3,0,1-0.1,1.4c-1.3,4.5-2.5,9-3.9,13.4c-1.7,5.4-4.9,9.4-9.9,12.1
	c-1.3,0.7-2.4,2.1-3,3.4c-2,4.4-3.5,8.9-5.4,13.3c-1.3,3.1-1.1,5.4,2,7.6c2,1.4,3.3,3.7,4.9,5.8c1.8,2.3,3.3,5.1,5.4,7.2
	c9.8,9.8,19.9,19.3,29.8,29c4.5,4.4,9.4,8.5,13.1,13.4c6.5,8.7,12.3,17.9,18.3,26.9c4.2,6.4,8.4,12.8,12.2,19.5
	c0.9,1.4,0,3.9-0.1,5.8c-2.1-0.8-5.1-1.1-6.2-2.7c-10-14.6-19.7-29.4-29.5-44.2c-0.5-0.7-1.1-1.4-1.6-2.1c-0.6,0.8-1.5,1.6-1.9,2.5
	c-3.4,9.7-7.2,19.4-10,29.3c-5.2,18.7-10.4,37.3-11.2,56.9c-0.1,4.4-1.1,8.8-2,13.2c-0.3,1.4-1.7,2.6-2.6,3.9
	c-0.4-1.3-1.3-2.6-1.2-3.9c0.1-5.1,0.2-10.1,1-15.1c1.4-9.5,3-19,5-28.4c1.6-7.5,3.8-14.8,5.9-22.1c3.5-11.8,7-23.7,10.9-35.5
	c1.1-3.5,1.6-6-1.5-9c-10.4-10-20.5-20.3-30.7-30.5c-0.4-0.4-0.9-0.7-1.4-1.1c-0.4,0.8-1.2,1.7-1.2,2.5c-0.2,3.3,0.2,6.7-0.2,10
	c-0.3,2.7-0.7,5.8-2.2,8c-5.1,7.1-11.7,12.4-19.8,15.9c-9.4,4-22,1.7-27.9-6.3c-3.8-5.2-6.1-11.5-9-17.3c-0.2-0.5-0.2-1.2-0.3-1.8
	c-0.6,0.5-1.3,0.9-1.8,1.5c-0.4,0.6-0.7,1.3-0.9,2.1c-2.3,11.7-4.4,23.4-7.1,35.1c-3.1,13.6-4.1,27.4-3.9,41.3
	c0.2,14.1,1.2,28.1,0.9,42.1c-0.5,18.3-1.8,36.5-3,54.8c-0.3,5.1-2,10.1-2.7,15.3c-1.2,8.9-2.2,17.8-3.1,26.7
	c-0.1,0.9,0.6,2.6,1.3,2.8c2.4,0.7,5,1,7.5,1.1c13.7,0.7,27.5,1.5,41.2,2c11.2,0.5,22.4,0.7,33.6,1.1c3,0.1,4.4-0.6,4.4-4.1
	c0.1-3.1,0.7-6.4,2-9.1c2.7-5.4,5.1-10.7,5-17c-0.1-4.8,0-9.9,1.3-14.5c0.8-2.9-0.3-2.8-2.1-3.4c-3.1-0.9-6.2-1.8-9.2-3.1
	c-1-0.4-2-2.1-1.9-3.2c0.1-0.9,1.5-2.3,2.5-2.5c1.5-0.3,3.1,0.5,4.7,0.7c9.7,1.4,19.5,3.8,29.2,3.8c9,0.1,18.3-1.4,27-3.8
	c18.9-5.3,18.9-6.2,19.3-23.2c0.1-4.2-1.2-8.4-1.9-12.6c-2.6-15.3-5.4-30.5-7.8-45.7c-0.3-1.6,1.5-3.6,2.3-5.4
	c1.5,1.4,3.6,2.4,4.4,4.1c1.1,2.5,1.4,5.4,1.8,8.2c1.5,8.1,3.1,16.1,4.2,24.3c1,6.8,1,13.8,2.2,20.6c1.9,11.7,0.5,23-2.2,34.3
	c-0.2,1-1.2,1.7-1.8,2.5c-0.4-0.9-1-1.7-1-2.6c-0.2-1.7,0-3.4-0.2-5c0-0.5-0.9-0.9-1.4-1.4c-2.1,3.2-6.8,4.4-6.5,9.3
	c0.4,8,0.7,16.1,1,24.1c0.3,8.2,0.7,16.4,1,24.6c0,2.4,0.2,4,3.3,4.1C926.9,503.7,940.9,504.5,956,505.1 M732.5,385.6
	c2.8-12.1,5.9-24.3,8.4-36.5c2.6-12,7.3-23.7,6.7-36.3c-0.1-1.6,0.4-3.4,0.9-5c1.3-3.7,2.7-7.3,4-10.9c2-5.9,2.5-12.3,7.5-16.9
	c5.7-5.3,5.7-6.9,1.9-14c-0.3-0.6-0.3-1.3-0.4-1.9c-0.6-4.2-3.3-5.7-6.4-2.9c-6.5,6.2-13.8,5.7-21.6,4c-2.1-0.5-3.8,0-5,2.3
	c-5,10.1-12.7,18-22.8,22.4c-13.6,6-28.4,6.3-43,5.2c-12-1-24-2.3-35.8-4.1c-11.1-1.6-22.2-3.4-33-6.1c-16.5-4.2-33.3-5.8-50.2-6.5
	c-11.3-0.5-22.9,0.2-34.1,1.9c-15.5,2.4-30.7,6.7-46.1,9.2c-10.8,1.7-21.9,1.9-32.8,2.6c-4.1,0.3-8-0.1-11.9,2.9
	c-5.4,4-11.4,7.7-17.8,9.9c-12.9,4.6-26.3,5.7-39.8,3.1c-7.6-1.4-15.3-3.6-21.2-9.1c-1.5-1.4-1.7-4.2-2.4-6.3
	c2.1-0.2,4.6-1.1,6.2-0.3c12.2,6,24.6,4.5,37.1,1.8c5.6-1.2,10.7-3.7,14.5-8.4c1.4-1.7,2.5-2.9-1.1-3.7c-3.1-0.7-5.8-2.8-8.7-4.3
	c-18.3-9-24.7-28.3-22.8-44.1c1.4-11.6,1.8-22.9,0.6-34.3c-0.5-4.6-1.5-9.3-3-13.8c-4.9-14.9-14.2-27.4-23.7-39.6
	c-14.7-18.8-22-40.3-23.1-63.9c-0.6-11.2-0.2-22.4,2.9-33.2c2.7-9.3,4.3-18.9,11-26.5c1.5-1.8,2.6-4,4.2-5.8c1.7-2,0.9-2.3-1.3-2.4
	c-4.8-0.2-9.7-0.8-14.5-0.9c-11.7-0.4-23.4-0.8-35.1-1.1c-14.1-0.3-28.2-0.7-42.3-1c-17.3-0.3-34.7-0.6-52.1-1
	c-9.5-0.2-19-0.7-28.6-0.9c-13.7-0.4-27.5-0.9-41.2-1C105.3,8,94.1,8,82.8,8.4C62.5,9.1,42.3,10.3,22,11.1c-4,0.1-5.5,1.5-5.6,5.5
	c-0.2,27.4-0.5,54.7-0.9,82.1c-0.2,12.1-0.7,24.2-1,36.3c-0.3,11.8-0.8,23.7-1,35.5c-0.4,28.7-0.6,57.4-1,86.1
	c-0.3,17.1-0.7,34.2-1,51.3c-0.3,17.9-0.9,35.8-0.9,53.7c-0.1,12.4,0.8,24.8,0.8,37.1c0,14.5-1,29.1-0.8,43.6
	c0.2,14.7,1.2,29.5,2.1,44.2c0,0.9,2.3,2.5,3.5,2.5c6.5,0,13.1-0.6,19.6-0.8c10.2-0.4,20.4-1,30.6-1c9.1,0,18.2,0.7,27.2,0.9
	c2.9,0,5.8-1,8.6-0.9c8.6,0.2,17.2,0.7,25.8,0.9c1.1,0,2.3-0.8,3.5-1.2c-0.9-0.9-1.6-2.1-2.7-2.7c-3.8-2.1-8.1-3.3-11.5-6
	c-5.8-4.6-11.8-9-19.3-10c-15.1-1.9-25-12-34.3-22.3c-8.3-9.1-6.4-20.6-4.7-31.8c0.8-5.4,2.7-9.8,7.7-12.8c1.6-0.9,2.6-2.8,3.8-4.3
	c8.5-10.7,16.5-21.8,25.8-31.8c7.3-7.8,16.3-14.1,24.7-21c7.1-5.8,14.3-11.8,22-16.8c9.7-6.4,16.6-15.6,24.4-23.8c0.7-0.7,1.1-2,1-3
	c-0.9-11.9,3.4-22.8,5.8-34.1c2.9-12.9,3.4-26.2,5.4-39.3c1.2-8.2,3.3-16.3,4.8-24.5c2.1-11,8.2-20.2,14.4-29
	c4-5.5,9.9-10,15.7-13.7c4.1-2.7,9.5-3.5,14.5-4.8c4.8-1.2,10-1.5,14.8-2.9c7.2-2.2,14.4-4.6,21.4-7.5c4.7-1.8,9.2-2.5,13.8-0.6
	c2.9,1.2,5.6,2.7,8.4,3.9c4.4,1.9,9.3,3,13.1,5.8c5.7,4.3,11.2,9.2,15.7,14.8c2.9,3.6,3.7,8.8,5.2,13.3c0.2,0.5-1,2.1-1.5,2
	c-3.4-0.1-7,0.1-10.1-1c-5-1.8-9.7-4.7-14.7-6.6c-2.1-0.8-5.9-1.2-6.9-0.1c-4.9,5.8-9.2,12.1-13.7,18.2c-0.7,1-1.3,2.1-2,3.2
	c1.4-0.4,2.8-0.8,4.2-1.2c5.8-1.8,11.6-4.1,17,1.3c2.3,2.2,3.7,1.1,4.9-1.6c0.8-2,2.1-4.3,3.8-5.3c6.8-3.7,14.4-2.7,21.8-2.7
	c0.6,0,1.3,0.4,1.6,0.8c3.8,4.7,6.6,10.4,5.4,16.1c-1.1,5.6-4.4,10.9-7.2,15.9c-2.3,4-2,7.7,1.7,10.2c0.4,0.3,0.7,1.2,0.8,1.9
	c0.4,4.4,0.7,8.9,1,13.3c0.4,5.6-0.1,10.6-6,13.5c-1.1,0.5-1.7,2.6-1.9,4.1c-0.6,4.3-0.5,8.7-1.2,13c-0.8,4.8-1.1,9.9-6.1,13
	c-1.1,0.7-1.7,3.1-1.7,4.7c-0.1,7,4.3,12.1,9.6,15.2c8.9,5.3,11.4,14.3,13.9,22.8c1.6,5.3,3.4,10.2,6.3,14.9
	c1.2,1.9,2.2,4.1,3.1,6.2c5.5,13.8,7.6,28.6,14.8,41.9c5.8,10.5,4.7,21.4,0.7,32.8c-4.3,12.5-10.7,23.9-16.8,35.5
	c-4,7.5-7.9,15.1-11.7,22.7c-0.5,1.1-1.4,2.8,1.4,2.5c4.5-0.5,9.1-0.9,13.6-1c18.6-0.4,37.2-0.9,55.8-1c9.1,0,18.1,0.8,27.2,0.9
	c26.9,0.4,53.7,0.7,80.6,1.1c7.9,0.1,15.7,0.7,23.6,0.9c10.9,0.4,21.8,0.8,32.7,1c17.7,0.4,35.3,0.7,53,1
	c22.8,0.4,45.7,0.6,68.6,1.1c3.9,0.1,5.8-1.5,7.6-4.5c4.2-7.2,8.4-14.2,13-21.1c4.1-6.1,9.8-11.3,12.7-17.8
	c5.8-13.1,10.3-26.7,15.1-40.2c0.8-2.3,0.9-5.2-2.8-6.6c-4-1.5-5.3-4.6-3.2-8.9C730.6,391.6,731.2,388.8,732.5,385.6 M314,263.1
	c0.8-3.8,2.4-7.6,2.3-11.4c0-6.6-1-13.2-1.9-19.7c-0.2-1.5-1.6-3.1-2.8-4.2c-2.2-1.9-5.7-3-7-5.4c-2.6-4.6-4-9.9-6.2-14.9
	c-0.6-1.6-2-2.9-3-4.4c-0.3,1.5-0.8,3-0.9,4.5c-0.5,11.3,1.7,22.9-3.9,33.8c-3.2,6.3-8.3,11.4-13.9,11.5c-6.2,0.1-10.5-4-12.7-9.8
	c-1.6-4.4-3.1-9-4.5-13.6c-0.7-2.4-1.6-2.9-3.6-1.3c-3,2.4-5.2,6.6-9.9,5.9c-5.2-0.9-10.4-2.1-14.9,1.9c-0.3,0.2-1.2-0.5-1.7-0.4
	c-1.9,0.2-4.8-0.1-5.6,1.1c-1.3,1.9-2.2,5-1.8,7.3c0.9,4.1,3,8,4.5,12.1c1.8,5,3.3,10.2,10.7,7.3c0.7-0.3,2.2,1.5,3.3,2.3
	c-0.5,0.5-0.8,1.2-1.4,1.4c-4.7,2.2-5.8,5.3-3.7,10.1c0.9,2,0.4,4.5,1.2,6.5c3,7.7,3.9,16.5,11.5,21.7c1,0.7,1.3,2.5,1.9,3.8
	c-1.6,0.6-3.1,1.7-4.7,1.8c-1,0.1-2.6-0.9-3.1-1.8c-2.7-4.7-5.6-9.4-7.6-14.4c-1.9-4.8-2.8-10.1-4.2-15.2c-0.3-0.9-1.2-1.7-1.9-2.5
	c-0.3,1-1,1.9-0.9,2.8c0.2,10.9,2.7,21.1,9.2,30.2c0.8,1.1,0.4,3.1,0.5,4.8c-1.9-0.4-4.8-0.2-5.6-1.3c-3.8-5.8-6.6-11.9-7.3-19
	c-0.4-3.8-1.9-7.5-2.9-11.3c-0.1-0.1-0.7-0.2-1-0.3c-0.3,1.6-1.2,3.2-0.9,4.6c1.6,9.2,1.4,18.9,7.6,26.9c0.7,0.9,0.1,2.9,0.1,4.4
	c-1.8-0.6-4.3-0.6-5-1.7c-5.3-7.9-6.1-17.3-7.7-26.3c-0.6-3.6,0-7.4-0.1-11.1c-0.1-0.9-0.6-1.8-0.8-2.7c-0.4,0.9-1.1,1.8-1.2,2.7
	c-0.9,12.6,0.9,24.7,5.6,36.7c4.2,10.9,11.3,19.6,20.1,26.4c9,7,20.1,6.4,29.7,1.9c8.5-4,13.5-12.7,18.6-20.5
	c1.7-2.6,3.4-5.3,5.2-7.8c0.5-0.7,1.6-0.9,2.4-1.3c0.1,0.8,0.6,1.7,0.4,2.3c-1.3,4.2-2.1,8.7-4.3,12.2c-3.8,5.8-8.2,11.2-12.8,16.4
	c-6.3,7.1-14.8,7.3-23.6,7.2c-9.3-0.2-16.7-3.7-23.5-9.8c-8.8-7.8-14.6-17.3-18-28.6c-0.8-2.4-4.4-3.9-6.7-5.7c-1.3-1.1-3.5-1.7-4-3
	c-1.8-5.7-5.6-4.1-9.5-3.1c-6,1.5-11.3,6.6-18.2,3.2c-0.7-0.3-2.6,0.8-3.3,1.8c-7.4,9.7-14.7,19.6-22,29.4c-0.5,0.7-1.4,1.1-2.2,1.6
	c-0.3-0.6-0.9-1.2-0.8-1.8c0.3-4.8-1.8-2.4-3.5-1.3c-1.8,1.2-3.8,2.3-5.5,3.6c-9,6.8-18,13.7-26.9,20.6c-0.3,0.2-0.1,1.6,0.3,1.9
	c3.5,2.4,7.3,4.4,10.5,7.1c5.5,4.6,11.3,9.1,15.9,14.5c6,7.3,10.9,15.5,16.4,23.2c1.5,2,3,3.9,5-0.3c1.9-4.3,4.9-8,7.7-11.8
	c1.3-1.9,3-3.6,4.9-4.9c0.9-0.6,2.6-0.3,4-0.4c-0.4,1.1-0.8,2.3-1.2,3.4c-1.6,5-3.8,9.9-4.5,15.1c-1.3,8.5-1.3,17.1-2.3,25.6
	c-0.5,3.9-2.1,7.8-3.5,11.5c-0.4,1-2.4,1.4-3.6,2c-0.3-1.1-0.9-2.3-0.7-3.5c1.3-10,2.7-20.1,4.1-30.2c0.1-0.9-0.1-1.8-0.2-2.8
	c-0.7,0.4-1.5,0.7-2.1,1.2c-2.7,1.9-3.9,6.2-8.3,5.3c-5.7-1.1-11.4-2.2-16.9-3.9c-5.1-1.5-15.2,2.7-16.6,7.8c-0.4,1.3,0,3.5,0.9,4.5
	c3.9,4,8,7.7,12.3,11.3c5.3,4.6,10.7,9.1,16.4,13.2c2.3,1.7,5.8,3.5,8.1,2.9c5.5-1.5,10.8-4,15.7-6.9c8.6-5,17.3-7.9,25.7-0.9
	c8.3,6.8,15.8,14.6,23.2,22.2c1.6,1.6,1.3,4.4-2.1,4.9c-4.5,0.6-5.5,2.6-3.8,6.9c0.5,1.3,0.9,2.7,1.8,3.7c2.5,3.1-1.6,2-2,3.2
	c-2.1-0.9-4.9-1.1-6.3-2.6c-5-5.1-9.7-10.6-14.2-16.1c-0.7-0.9-0.8-2.9-0.3-3.9c0.4-0.8,2.6-1.6,3.3-1.1c2,1.2,3.7,3,5.5,4.7
	c1.4,1.3,2.8,2.7,4.2,4.1c0-2.3,0.1-4.7-0.1-7c-0.1-1-1.1-1.9-1.7-2.8c-2.2-2.9-4.5-5.8-6.7-8.7c-3.6-4.7-12.7-6.6-18.1-3.9
	c-6.5,3.3-13.1,6.3-19.6,9.4c-5.7,2.7-10.9,1.7-15.7-2.8c-2.1-2.1-3.9-4.8-6.5-6c-11.7-5.8-19.9-15.6-28.7-24.5
	c-1.1-1.1-1.5-4.8-0.7-5.5c6.5-5.6,13.6-10.6,20.2-16.2c7.8-6.8,10.4-3.9,3.1-13.9c-1.3-1.7-2.6-3.4-4.3-4.8
	c-7.1-5.9-14.3-11.9-21.7-17.5c-0.9-0.7-3.7-0.4-4.6,0.5c-5.7,6-11.4,12.1-16.5,18.5c-5.4,6.7-9,15-15.2,20.5
	c-7.8,7-5.6,15.2-5.7,23c-0.2,10.5,8.5,16,15.1,22.1c7,6.4,15.7,9.9,25.1,11.9c4.2,0.8,8.5,3.4,11.7,6.4
	c15,13.4,32.2,19.9,52.4,17.3c0.6-0.1,1.1-1,1.7-1.5c-1-1.1-3.1-2.4-0.3-3.3c1.5-0.6,4.6-0.4,5.2,0.5c3.3,5.6,9.3,3.7,13.9,5.2
	c0.8,0.3,2-0.7,3-1.1c-0.6-0.7-1-1.5-1.7-2.1c-2.1-1.9-4.5-3.4-6.2-5.4c-1.1-1.4-1.3-3.5-1.9-5.2c1.6-0.4,3.7-1.5,4.6-0.9
	c3.6,2.4,7.8,4.8,10,8.3c3.1,4.9,7.2,6.4,12.3,6.5c17.7,0.4,35.4,0.8,53.1,1c15,0.2,30-0.1,45,0.1c3.4,0.1,3.2-1.4,2.8-3.8
	c-1-6.7-2.3-13.5-2.7-20.3c-0.9-14.8,3.5-28.9,7.5-42.9c3.7-12.4,6.5-24.7,5.4-37.7c-0.8-10.1-1.4-20.1-1.9-30.2
	c-0.1-1.4,1-2.8,1.6-4.2c1.4,0.9,3.8,1.6,4.1,2.8c0.9,3.4,0.8,7,1.2,10.5c0.2,1.2,0.8,2.3,1.2,3.5c1-1,2.3-1.8,2.7-2.9
	c3.3-7.7,5.2-15.4-0.8-22.8c-0.8-0.9-0.7-2.3-1.1-3.5c-3.4-10.5-7.3-20.7-16.5-27.7c-1-0.7-1.4-2.1-2.2-3c-0.6-0.7-1.4-1-2.1-1.5
	c-0.4,0.8-1.1,1.6-1.1,2.5c-0.2,2.8,0.2,5.7-0.2,8.5c-0.3,1.3-1.8,3-3.2,3.5c-2.4,1-2.6-0.7-2.8-2.9c-0.3-2.3-1.2-4.9-4.8-4
	c-0.9,0.2-2.1,0.1-2.8-0.3c-3.4-1.8-5.1-0.2-6.3,2.8c-1.3,3.1-2.6,6.2-4,9.3c-0.4,0.8-1.1,1.5-1.7,2.2c-0.4-0.4-0.9-0.9-1.3-1.4
	c-0.6-0.8-1.2-1.6-1.7-2.3c-0.5,1-0.9,2-1.3,3c-0.3,0.8-0.7,1.7-1,2.5c-0.5,1.4-1.1,2.8-1.6,4.1c-0.8-1.7-2-3.3-2.3-5
	c-1-4.8,2.5-7.9,4.8-11.5c3.2-4.9,5.8-10.2,8.7-15.4c0.6-1.2,1.6-2.3,2.4-3.5c-1.6-0.1-3.2-0.5-4.7-0.2c-5.1,1-10.3,2.8-13.3-3.7
	c-0.3-0.7-1.1-1.2-1.8-1.5c-0.9-0.4-2-0.5-3-0.8c0.1,0.9,0.1,1.9,0.3,2.7c1.6,5.8-3.8,13.9-9,12.8c-2.3-0.5-4.3-3.5-5.9-5.7
	c-5.7-8.1-9.1-17.1-9.5-27c-0.1-1.2,0.2-2.9,1-3.5c3.2-2.7,1.7-5.4,0.7-8.3c-1.4-4.4-2.7-8.9-3.7-13.5c-0.2-1.1,0.9-2.5,1.4-3.8
	c1.1,1.1,2.5,2,3.1,3.2c4.6,9.1,9.2,18.2,13.3,27.5c2.9,6.6,7.8,10.6,14.4,12c6.7,1.4,13.7,1.7,20.6,2.2c1.7,0.2,3.5-1,5.3-1.5
	c2.6-0.8,5.3-2.1,8-2.2c3.8-0.2,6.2-1.5,6.8-5.4C311.5,275.1,312.5,269.4,314,263.1 M849,483.1c-3.8,4.4-4.4,9.7-4.4,15.2
	c0,0.6,1.1,1.7,1.8,1.8c11.1,0.7,22.1,1.4,33.2,2c6.1,0.4,12.3,1,18.5,0.8c1.5,0,4.2-2.8,4.2-4.3c0.1-7.7-0.6-15.4-0.8-23.1
	c-0.1-8.4,0-16.8,0-25.2c0-1.7,0.3-2.3-2.3-1.6c-11.1,3.3-22.5,5-34.2,4.5c-3.1-0.2-6.3,0.1-9.5-0.1c-2.1-0.1-2.9,0.2-3.1,2.8
	C851.7,464.8,850.5,473.7,849,483.1 M336.5,359.6c-1.8,4.5-3.6,8.9-5.3,13.4c-1,2.7-2.4,5.5-2.6,8.3c-0.6,9.2-0.4,18.4-1.3,27.6
	c-0.4,3.8-2.8,7.4-4.2,11.2c-1.6,4-3.1,8-4.6,12.1c-0.1,0.5,0.3,1.2,0.4,1.8c0.4-0.4,1-0.7,1.4-1.2c1.2-1.8,2.3-3.7,3.6-5.5
	c0.4-0.5,1.3-0.8,1.9-1.2c0.3,0.7,0.8,1.6,0.6,2.2c-1.3,4.5-2.6,9.2-4.3,13.6c-1.9,5.1-5.7,9.7-6.3,14.8c-0.9,7.3,0.2,14.7,0.8,22.1
	c0.2,2.6,0.8,5.3,1.9,7.6c0.8,1.6,2.8,2.5,4.3,3.7c0.2-1.4,0.4-2.8,0.7-4.2c0.2-0.7,0.5-1.4,0.9-2.1c3.9-7.9,7.6-15.9,11.7-23.7
	c2.9-5.6,6.6-10.9,9.4-16.6c5.3-10.3,8.4-21.4,9.9-32.8c0.3-2.3,0.1-5.2-1-7c-8.4-12.8-11.6-27.4-15-41.9
	C339.1,360.6,337.5,359.7,336.5,359.6 M801,244.1c-3,0.1-6.5-0.9-9,0.3c-7.9,3.9-15.5,8.6-23.2,12.9c-1.6,0.9-2.7,1.3-0.5,3.2
	c6.4,5.7,10.8,12.8,13.8,20.7c3.1,8.5,10.3,13.7,19.9,13c6.4-0.5,11-4.2,15.7-7.8c5.1-4,7.7-9.5,6.8-16.1
	c-0.8-5.1,2.7-10.6-1.9-15.4c-2-2.1-3.2-5-4.4-7.7c-1.5-3.4-3.6-3.4-6.9-2.6C808.2,245.4,804.8,244.7,801,244.1 M281.5,242.6
	c1.7-2.6,3.9-5,4.9-7.9c3.5-9.7,2.4-11-7.8-9.5c-3.1,0.5-2.4-0.5-2.2-2.5c0.6-5.1,5.2-5.3,8.2-7.6c1.4-1,3.2-1.8,3.8-3.1
	c1.2-3.1-1.8-4.9-6.3-3.9c-6.6,1.6-13.1,4.5-20.3,2.1c-1.1-0.3-3,0.3-3.9,1.2c-4.6,4.4-9,9.1-13.3,13.8c-0.8,0.8-0.9,2.1-1.3,3.3
	c1.5-0.1,3.3,0.5,4.4-0.2c4.6-2.9,9.5-5.7,10.9-11.7c0.2-0.9,1.4-1.7,2.4-2.4c0.2-0.2,1.3,0.3,1.4,0.7c0.5,1.4,0.7,3,1.1,4.5
	c2,7.3,3.5,14.8,6.1,21.9C271.9,247.4,276.3,247.8,281.5,242.6 M237,176.1c-2.2,2.9-3.9,6.6-6.8,8.6c-3.9,2.6-3.9,5.6-3.4,9.3
	c0.3,1.9,0.3,4.1-0.4,5.8c-2,5-4.8,9.7-6.7,14.7c-1.8,5.1-3,10.5-4.1,15.8c-0.3,1.4,0.7,3,1,4.5c1-0.7,1.9-1.5,2.9-2.1
	c2-1.2,4-2.3,6-3.6c1.4-0.9,3.3-1.7,3.9-3c3.5-7.8,6.9-15.8,10-23.8c0.7-1.8,0.6-3.9,0.8-5.9c-1.5,1.7-3.5,3.2-4.5,5.1
	c-3.5,6.9-6.6,14-10,20.8c-0.6,1.2-2.1,1.9-3.2,2.8c-0.3-1.5-1.2-3.4-0.7-4.6c4.7-9.9,8.9-20.1,14.6-29.4
	c6.3-10.6,13.9-20.3,20.9-30.4c0.3-0.3,0.1-1.5,0-1.5c-4.3-0.3-8.6-0.5-11.4,3.9C243.3,167.4,240.3,171.5,237,176.1 M752.5,346.6
	c0.3-2.6,0.8-5.3,1-8c0.1-2.1-0.3-4.2-0.4-6.3c-1,1.9-2.1,3.9-3.1,5.9c-0.2,0.4-0.4,0.9-0.5,1.3c-3.6,16-7.4,31.9-10.6,47.9
	c-0.7,3.8-4,8.5,1.2,11.8c3.6,2.2,7.3,4.1,11,6c0.3,0.1,1.5-0.8,1.6-1.3c0.1-1.5-0.2-3-0.2-4.4C752.5,382.2,752.5,364.9,752.5,346.6
	 M211,187.1c1.3-1.9,2.5-4,3.9-5.8c4.2-5.3,8.5-10.5,12.6-15.8c0.6-0.7,0.6-2,0.9-3c-1,0.2-2.1,0.2-2.9,0.7
	c-6.4,3.3-11.4,8.2-14.9,14.3c-6.7,11.6-13.5,23.3-19.1,35.5c-3.8,8.2-5.5,17.3-7.9,26.1c-0.3,1.2,0.4,2.7,0.6,4
	c0.8-1,1.8-1.9,2.3-3.1c3.5-8.5,6.5-17.2,10.4-25.6C201,205.3,205.9,196.6,211,187.1 M265.5,177.6c-2.8,5.5-5.8,10.9-8.4,16.5
	c-0.8,1.8-0.7,4-1,6c1.5-1.5,3.3-2.8,4.4-4.6c4.3-6.7,8.6-13.3,12.3-20.3c2.8-5.2,5.4-10.7,4.8-17c-0.3-2.6-1.7-4-3.8-2.7
	c-4,2.4-8.2,5-11.4,8.4c-8.1,8.7-12.7,19.5-15.8,30.8c-0.3,1,0.2,2.2,0.3,3.3c0.8-0.7,1.7-1.4,2.4-2.2c0.7-0.9,1.3-1.8,1.8-2.8
	c3.2-6.3,6.1-12.8,9.5-19c1.6-3,3.9-5.7,6.1-8.4c0.8-1.1,2.2-1.6,3.4-2.4c0.1,1.5,0.8,3.1,0.3,4.3
	C269.2,170.8,267.5,173.9,265.5,177.6 M709,192.1c-1.1-7.1-0.1-7.9,6.8-6.2c1.1,0.3,3.2-0.1,3.6-0.9c1.2-2.1-1.9-9.5-4.2-10.6
	c-2.6-1.4-8,0.5-9.7,3.5c-3.7,6.3-2.9,20.7,1.6,26.3c2.1,2.5,4.9,3.3,7,0.6c2.3-2.9,3.7-6.4,5.3-9.8c0.4-0.7-0.2-1.8-0.3-2.8
	c-0.8,0.4-1.7,0.7-2.4,1.3C713.9,195.9,711.4,196.9,709,192.1 M744.5,195.6c-1.7,0.6-3.8,3.1-4.9-0.2c-1.1-3.4-1.5-7.1-2-10.7
	c0-0.4,1.4-1.6,2.1-1.5c3,0.5,6.1,1.4,9.2,1.7c1.1,0.1,3.3-0.7,3.4-1.4c0.8-3.6,0-6.9-3.7-8.7c-3.2-1.6-6-0.6-8.8,1.5
	c-8.8,6.9-8.2,18.9-0.7,26c5.9,5.6,10,4.7,12.3-3.3c0.6-2,0.8-5.4-0.3-6.3C748.9,190.9,746.2,192.2,744.5,195.6 M304.5,208.6
	c3-1.6,5.9-3.5,9-4.8c1.3-0.5,3.6-0.2,4.6,0.7c0.9,0.9,1.2,3.2,0.8,4.6c-0.9,4-4.1,4.3-7.6,4.1c-0.9,0-1.9,1.3-2.8,2
	c1.6,1.6,2.8,4,4.7,4.7c1.5,0.6,4-0.6,5.6-1.7c4.1-2.8,5-7.4,6.2-11.9c1-3.9,0.5-7.3-2.1-10.2c-2.7-3-6-2-9.2-1
	C303,198.7,301.6,200.7,304.5,208.6 M297.5,158.6c-0.8,0.2-2,0-2.3,0.5c-2,2.6-0.6,9.3,2.3,11c4.8,2.8,9.7,5.4,14.6,8.1
	c1.1,0.6,2.3,0.9,3.4,1.4c-0.3-1.3-0.6-2.7-1.1-4c-0.1-0.4-0.7-0.7-1-1.1C308.3,169.4,303.1,164.3,297.5,158.6 M197.5,260.6
	c0.5-1.8,0.9-3.6,1.4-5.4c2.4-8.1,4.9-16.2,7.3-24.3c0.2-0.8-0.4-1.8-0.6-2.8c-0.7,0.8-1.7,1.4-2,2.3c-1.1,2.2-2,4.5-2.7,6.9
	c-2.2,7.8-4.3,15.8-6.3,23.7c-0.3,0.9,0.3,2.1,0.5,3.1C195.9,263.3,196.7,262.5,197.5,260.6 M255.5,297.6c0.2-8-4.4-14.3-7.4-21.2
	c-0.3-0.9-1.5-1.4-2.3-2.1c-0.3,1.3-1.1,2.7-0.8,3.8c1.1,4,2.1,8,3.9,11.7C250.4,292.9,252.9,295.4,255.5,297.6 M207.5,286.6
	c0-4.8,0-9.7,0-14.6c0-1-0.3-1.9-0.5-2.8c-0.5,0.9-1.3,1.8-1.4,2.8c-1,8.9-2.6,17.9-0.1,26.8c0.4,1.2,1,2.2,1.5,3.3
	c0.5-1.3,1.5-2.6,1.4-3.9C208.3,294.7,207.8,291.2,207.5,286.6 M294,305.1c4.6,3.2,5.6-1.6,6.2-3.7c0.8-2.4,1-4.5,3.8-5.4
	c0.7-0.3,1-1.8,1.5-2.8c-0.9-0.4-2.2-1.3-2.7-1c-2.2,1.4-4.7,2.8-6.2,4.8C295.1,299.2,294.5,302.1,294,305.1 M238.5,165.6
	c0.1-0.4,0.1-0.9,0.4-1.3c1.1-1.6,2.3-3.2,3.5-4.8c-2.5-0.1-4.9-0.2-7.4-0.4c-0.5,0-1-0.1-1.4,0.1c-0.3,0.1-0.5,0.6-0.5,0.9
	c0,2.6,0.1,5.2,0.1,7.8c0,1.3-0.3,2.7-0.4,4c0.9-0.7,1.9-1.4,2.7-2.3C236.5,168.5,237.2,167.3,238.5,165.6 M214,192.1
	c-0.1,0.9-0.2,1.8-0.3,2.7c0.8-0.2,2-0.2,2.3-0.8c3.3-5.1,6.4-10.3,9.5-15.4c0.4-0.7,0.4-1.6,0.5-2.4c-0.8,0.4-1.9,0.7-2.3,1.3
	C220.5,182.2,217.5,186.9,214,192.1 M136,404.1c-0.4,1-0.8,1.9-1.2,2.8c3.7,1.4,7.4,2.8,11.1,4.2c0.4,0.1,0.9-0.2,1.4-0.2
	c-0.1-0.3-0.2-0.5-0.3-0.8C146.4,406.5,140.3,402.8,136,404.1 M197.5,229.6c-2.3,5.2-4.7,10.4-6.9,15.6c-0.3,0.6,0.6,1.7,1,2.5
	c0.1,0.1,0.8-0.1,0.9-0.3C194.3,241.3,196.2,235.2,197.5,229.6 M285,203.1c0.8-0.7,1.7-1.5,2.5-2.3c-0.9-0.2-1.8-0.8-2.6-0.6
	c-3.6,0.8-7.2,1.8-10.7,2.8c-0.7,0.2-1.1,1.1-1.7,1.6c0.8,0.2,1.7,0.7,2.4,0.5C278,204.6,281,203.8,285,203.1 M202.5,177.6
	c-2,3.7-4,7.3-5.9,10.9c-0.1,0.1,0.8,0.6,1.2,0.9C199.5,185.3,201.3,181.2,202.5,177.6 M322.5,239.6c0-1,0-2,0-2.9
	c0-1.6,0.1-3.1,0.2-4.6c-1.1,1.6-2.4,3.1-3.1,4.9c-0.5,1.1-0.3,2.6,0,3.9c0.2,1.1,1,2.1,1.5,3.1C321.6,242.9,322,241.8,322.5,239.6
	 M756.5,312.6c-0.1-1.1-0.2-2.2-0.3-3.3c-0.6,1-1.1,2-1.7,3c-0.2,0.4-0.8,0.8-0.8,1.2c-0.1,2.4,0,4.9,0,7.3c0.2,0,0.6,0,0.7-0.1
	C755.1,318.4,755.8,316,756.5,312.6 M272.5,149.6c-0.9-0.1-1.7-0.2-2.6-0.3c0-0.1-0.1,0.4-0.1,0.6
	C270.5,150,271.3,150.1,272.5,149.6 M200.5,273.6c-0.1-0.4-0.2-0.8-0.3-1.2c-0.2,0-0.6,0.1-0.6,0.1
	C199.7,273.1,199.9,273.6,200.5,273.6 M194,195.1c0.1-0.2,0.3-0.4,0.4-0.6C194.1,194.6,193.8,194.6,194,195.1"/>
<path d="M6.5,532.1c0.2-5.3,0.3-10.2-3.5-14.1c-0.1-0.1,0.6-1.7,1.1-1.9c1.5-0.5,3.1-0.9,4.6-0.9c17.1-0.1,34.3-0.4,51.4,0
	c21.2,0.6,42.5,2.3,63.8,2.7c24.5,0.5,49.1,0.1,73.6,0.3c20.3,0.1,40.6,0.9,60.9,0.9c26-0.1,52-0.6,77.9-1c10.5-0.2,21-0.9,31.5-0.9
	c11.2,0,22.3,0.9,33.5,0.9c39.3,0.1,78.6-0.1,117.9,0.1c19.2,0.1,38.4,0.5,57.6,1c17.5,0.5,35.1,1.3,52.6,1.9
	c13.1,0.5,26.1,0.7,39.1,1c22.4,0.7,44.7,1.4,67,2c9.1,0.3,18.1,0.6,27.1,1.1c20,0.9,40,1.9,59.9,2.9c13.6,0.7,27.3,1.4,40.9,2
	c13.9,0.7,27.8,1.2,41.6,2.1c13.8,0.8,27.5,2,41.3,2.9c12.7,0.8,25.4,1.4,38.2,2c12.8,0.7,25.8,1.1,38.6,2.2c5.9,0.5,5.1,6.3,5.2,10
	c0.5,14.3,0.1,28.7,0.2,43c0.2,13.8,0.8,27.5,1,41.3c0.1,9.8,0,19.7,0,29.6c0,6.2-0.2,12.5,0,18.7c0.6,15.7,1.3,31.4,2,47.2
	c0.3,7,0.8,14,1,21c0.4,17.1,0.9,34.1,1,51.1c0.1,34.6,0,69.1,0,103.7c0,21.5,0,43.1,0,64.7c0,50.3,0,100.6,0,150.9
	c0,8.6,0,8.5,8.3,8.7c1.2,0,2.5,0.7,3.7,1c-0.6,1.8-0.8,3.8-1.9,5.2c-0.9,1-2.7,1.5-4.2,1.7c-2.9,0.3-5.8-0.4-8.1,2.4
	c-0.8,0.9-3.8,0-5.7-0.4c-2.8-0.5-5.5-1.8-8.2-1.9c-8-0.2-16-0.2-24,0c-17.6,0.2-35.2,0.8-52.8,0.9c-10.9,0-21.8-0.6-32.7-1
	c-19.6-0.6-39.1-1.3-58.7-2c-11.4-0.3-22.7-0.5-34.1-1c-12.8-0.5-25.5-1.3-38.3-2c-12.1-0.6-24.1-1.4-36.2-1.9
	c-8.8-0.5-17.7-0.7-26.6-1.1c-8.5-0.3-17-0.6-25.5-1c-18.1-0.6-36.2-1.5-54.2-1.9c-22.4-0.5-44.9-0.4-67.3-1.2
	c-17-0.5-33.9-1.8-50.9-2.9c-8.9-0.5-17.8-1.5-26.7-1.9c-15.8-0.8-31.7-1.5-47.6-2c-23.4-0.8-46.8-1.5-70.2-2
	c-10.2-0.3-20.4-0.1-30.7-0.1c-18.3,0-36.5,0.1-54.8-0.1c-22.2-0.1-44.4-0.5-66.6-0.9c-6.5-0.1-13-0.8-19.6-0.9c-4,0-8,1.1-12.1,0.9
	c-13.4-0.7-26.9-1.7-40.4-2.5c-1.8-0.1-3.6,0.5-5.4,0.5c-16-0.3-32-0.6-48.1-1c-12.3-0.3-24.6-0.1-36.9-1.1
	c-11.8-1.1-23.9-0.6-35.5-4.7c-4.2-1.5-9.1-1.2-13.6-2.2c-6.3-1.4-7.9-4.3-6.4-10.5c0.4-1.7,0.9-3.4,1-5.1c0-9.5-0.1-19,0-28.5
	c0.3-44.5,0.5-89.1,1.1-133.6c0.2-14.7,1.3-29.3,1.9-44c0.7-17.2,0.6-34.5,2.2-51.6c2.8-31,1.6-62.1,1.7-93.1
	c0-15.7-1.3-31.4-1.9-47.1c-0.2-7,0-13.9,0-20.9c0-19.7,0-39.4,0-59.1c0-10.4-0.1-20.8,0-31.2c0.2-6.9,1.1-13.7,0.9-20.6
	C8.2,550.1,7.2,541.4,6.5,532.1 M1025.5,805.6c-0.3-19.7-0.6-39.4-1-59.1c-0.1-5.1-0.7-10.1-1-15.1c-0.7-13.1-1.8-26.1-1.9-39.2
	c-0.3-30.3-0.1-60.6-0.1-91c0-16.1,0-32.3,0-48.5c0-3.2-0.6-5.4-4.4-5.6c-7.5-0.3-15-0.6-22.6-1c-11.2-0.6-22.5-1.2-33.8-2
	c-14.4-0.9-28.8-2-43.3-2.9c-12-0.8-24.1-1.5-36.1-2c-14.9-0.8-29.8-1.4-44.7-2.1c-13.7-0.6-27.4-1.3-41.2-2
	c-11.9-0.6-23.7-1.5-35.6-1.9c-15.1-0.5-30.1-0.7-45.1-1.1c-1.2,0-2.4,0.1-3.5,0c-14.6-0.6-29.2-1.3-43.9-1.9
	c-0.6-0.1-1.2,0.3-1.8,0.4c0.5,0.5,0.9,1,1.4,1.4c0.9,0.7,1.8,1.4,2.8,1.8c8.6,3.1,13.9,10,19.8,16.4c6.7,7.3,12.7,15.4,20.3,21.4
	c15.6,12.1,34.2,16.9,53.7,17.4c9.1,0.3,18.4-0.6,27.5-0.9c11.9-0.3,23.8-1.1,35.6-0.8c8.8,0.2,17.6,1.4,26.3,2.9
	c13.9,2.6,26.5,8,37,17.9c10.2,9.9,13.2,22.7,10.2,35.4c-3.2,13.5-12.3,24.5-23.9,32.6c-14.4,9.9-31.4,13.2-48.2,13.7
	c-32.3,0.9-64.7-0.4-97-0.6c-6.3,0-12.6,0.4-18.8,1.1c-1.9,0.2-5,1.8-5.2,3.2c-0.4,2.3,0.3,6.3,1.9,7.2c6.2,3.3,12.8,6.5,19.6,8.2
	c6.8,1.7,14,1.9,21.1,2.2c15.5,0.5,31.1,1.8,46.5,0.7c9.5-0.7,18.9-0.7,27.8,1.6c22.3,5.7,37.4,20.9,47.2,41.1
	c8.3,17.2,10.2,36.3,11.2,55.2c0.5,9-1,18.1-1.8,27.2c-0.8,8.4-1.8,16.8-3,25.2c-2.1,13.6-9.1,24.6-20.2,32.5
	c-10.3,7.4-22.6,10.3-35.2,11.4c-13.5,1.2-27.1,2.2-40.6,2c-31.4-0.5-62.8,1.9-94.2-1.6c-10.6-1.2-20.2-4.4-29.2-9.4
	c-5.6-3.2-11.5-7.2-15.2-12.4c-9.3-12.8-16.4-27-19.9-42.6c-3-13.1-6-26.2-7.2-39.5c-1.1-11.4,0-23,0.8-34.5
	c0.8-9.7,1.9-19.4,4.1-28.8c3.2-14.1,10.7-25.1,25.6-29.3c6.6-1.8,13.3-3,20-4.8c4.4-1.2,9.5-1.5,11.5-6.8c0.5-1.2,0.8-3.3,0.2-3.9
	c-1.1-1.2-3-2.2-4.5-2.2c-15.5,0.9-30.9,2.3-46.3,2.8c-12.6,0.5-25.3,0.1-38,0.1c-4.4,0-8.8,0.3-13.2,0c-10.1-0.8-20.1-2.2-30.2-2.9
	c-9-0.6-18.1-0.7-27.1-1.1c-3.2-0.1-6.4-0.5-9.6-1c-11.8-1.6-23.6-3.4-35.4-4.9c-11-1.4-21.3,1.3-31,6
	c-14.3,6.9-28.9,13.4-42.7,21.2c-10.5,6-20.7,12.7-29.1,21.7c-2.1,2.2-6,2.5-8.2,0.3c-2.3-2.2,0.4-4.3,2.1-6.1c2-2.2,3.9-4.6,6-6.9
	c8.4-9.5,16.5-19.4,25.5-28.3c8.5-8.4,18-15.7,27.2-23.4c2.5-2,5.3-3.6,8-5.4c-2.7-1.6-5.5-3.1-8.1-4.8c-10.5-6.7-19-15.3-27.6-24.1
	c-13.2-13.6-19.6-30-22.1-48c-2.8-19.3,4.5-35.9,17.3-50.1c3-3.3,7.1-5.4,10.6-8.2c1.1-0.8,1.9-2,2.9-3c-1.3-0.3-2.6-0.9-3.9-0.9
	c-9.7,0.2-19.3,0.7-29,0.9c-7.8,0.2-15.5-0.1-23.2,0.1c-19.9,0.2-39.7,0.6-59.6,0.9c-6.2,0.1-12.4,0.1-18.7,0
	c-31.5-0.3-63-0.6-94.6-1c-5.5,0-11.1,0.1-16.6,0c-12.5-0.2-25-0.7-37.5-0.9c-16.3-0.4-32.7-0.7-49-1.1c-5.2-0.1-10.4-0.8-15.6-0.9
	c-13.9-0.4-27.7-0.8-41.6-0.9c-0.8-0.1-2.5,1.6-2.4,2.5c0.7,12.9,1.9,25.8,2.6,38.8c0.2,3.8-0.9,7.7-0.8,11.6
	c0.2,19.2,0.6,38.4,0.9,57.6c0.4,28.1,0.6,56.3,1,84.5c0.2,12.6,1,25.2,0.9,37.8c0,17.9-0.5,35.7-0.9,53.6
	c-0.3,11.7-0.6,23.4-1,35.1c-0.3,7.8-0.7,15.7-1,23.5c-0.7,17.3-1.4,34.5-2,51.7c-0.2,5.7,0.1,11.5,0,17.2c-0.3,9.7-0.8,19.5-1,29.2
	c-0.4,34.1-0.7,68.1-0.9,102.1c-0.1,3.4,0.9,6.7,0.8,10.1c0,4.7-0.9,9.4-0.7,14.1c0.1,1.8,1.8,4.9,3.4,5.2
	c8.3,2.1,16.8,4.1,25.4,5.1c12.8,1.5,25.8,2.6,38.7,3c33,1.1,66.2-1.5,99.2,2c9.3,1,18.7,0,28.1,0.2c24.4,0.2,48.8,0.6,73.1,1
	c11.1,0.2,22.1,0.7,33.1,0.9c15.4,0.4,30.9,0.8,46.3,1c6,0,12-0.7,18.1-0.9c4-0.2,8.1-0.2,12.1,0c21.8,0.6,43.5,1.1,65.2,2
	c18.8,0.8,37.5,1.9,56.2,3c8.6,0.5,17.2,1.4,25.7,1.9c12.4,0.8,24.8,1.8,37.2,2c22.9,0.3,45.7-0.2,68.6,0.3
	c17.5,0.3,34.9,1.9,52.3,2.7c15.9,0.8,31.8,1.3,47.7,2.1c12.7,0.5,25.4,1.3,38.2,1.9c11.8,0.7,23.7,1.5,35.6,2
	c11.4,0.5,22.7,0.7,34.1,1c19.7,0.7,39.4,1.4,59.2,2c14.9,0.5,29.8,1,44.7,1c21.9-0.1,43.9-0.6,65.8-1c6.1-0.1,6.8-1,6.8-7.1
	c0-12.6-0.1-25.1,0-37.7c0.3-30.8,0.7-61.7,1-92.6c0.1-7,0.1-14,0-21c-0.1-4.7-0.9-9.4-1-14.1c0-42,0-83.9,0-125.9
	c0-4.8,0-9.5,0-14.2C1025.5,813.9,1025.5,810.3,1025.5,805.6 M479,526.1c-13.2,0-26.3,0.2-39.5,0c-7.3-0.1-14.7-0.7-22.1-0.9
	c-1.9,0-4.5,0.3-5.7,1.5c-5.5,5.3-10.9,10.8-15.8,16.7c-7.3,8.5-12.8,18.2-14.3,29.5c-1.7,13.6,1.9,26.5,7.1,39
	c4.7,11.2,13.4,19.4,21.3,28.1c8.1,8.9,18.1,15.3,29.5,19.3c1.3,0.4,2.7,2.5,2.8,3.9c0.1,1.2-1.1,2.9-2.3,3.9
	c-1.8,1.6-4.2,2.7-6.1,4.2c-12.7,10.2-25.3,20.5-37.8,30.8c-2.6,2.1-4.8,4.6-7.1,7.1c-0.6,0.7-0.8,1.8-1.2,2.7
	c0.8-0.3,1.7-0.4,2.4-0.8c3.2-1.9,6.3-4.2,9.6-5.9c14.9-7.5,29.9-14.8,44.9-22c4.4-2.2,8.9-5.4,13.5-5.7c7-0.6,14.2,0.8,21.3,1.7
	c11.8,1.5,23.6,3.6,35.4,4.8c14,1.5,28,2.2,42,3.1c10.7,0.8,21.4,1.8,32.1,1.9c15.2,0.1,30.4-0.4,45.6-0.9c15-0.5,30.1,0.2,44.8-3.9
	c3.4-1,6,1.1,6.9,3.5c4.3,10.8,1.5,18.1-10.4,21.4c-6.5,1.7-13.2,2.7-19.9,4c-13.5,2.7-23,11-26.2,23.8c-3.4,13.8-5.4,28.3-6,42.5
	c-0.5,13.7,1.1,27.5,2.9,41.2c2.2,17,7.3,33.2,15.2,48.6c7.6,14.7,19.4,23.7,34.7,29c14.6,5,29.8,3.6,44.8,4.4
	c9.6,0.6,19.4-0.3,29.1-0.4c13.7-0.2,27.5,0.3,41.2-0.5c15.1-0.8,30.3-0.3,45-4.6c14.8-4.3,25.9-12.5,30.8-27.8
	c4.9-15.1,6.2-30.9,6.7-46.6c0.4-11.7-1.4-23.5-2.8-35.2c-1.4-13-4.7-25.3-11.5-36.7c-12.6-21-29.6-33.9-54.9-33.6
	c-10.9,0.1-21.8,1.1-32.7,0.8c-12.8-0.4-25.5-2.2-38.3-2.8c-12.9-0.6-24.1-5-34.1-13c-3.6-2.8-2.5-6.4-2.2-9.5
	c0.3-2,2.5-4.9,4.4-5.4c7.3-1.8,14.8-3.9,22.2-4c32.9-0.1,65.8,0.8,98.6,0.6c8.5,0,17.1-1.8,25.3-4c7.4-1.9,14.8-4.8,21.4-8.6
	c8.9-5.2,15.1-13.5,19.7-22.6c4.7-9.1,5.6-19.2,0.9-28.2c-3.1-5.9-8.4-11.2-13.9-15.2c-12.1-8.6-26.5-11-40.9-12
	c-7-0.5-14.1,0.6-21.1,0.8c-11.9,0.4-23.7,0.9-35.6,1c-7.3,0-14.7-0.6-22.1-1c-3.3-0.2-6.7-0.4-10-1c-12.2-2.2-23.7-6.2-34.2-12.9
	c-8-5.2-15.1-11.2-21.3-18.7c-6.3-7.6-13.3-15-21.1-21.2c-11.3-8.9-25.5-10-39.3-11c-16-1.3-32.1-1.7-48.1-2.1
	c-18.2-0.5-36.4-0.8-54.6-1C512,526,496,526.1,479,526.1"/>
<path d="M605.5,248.1c-1.4,1-3.3,2.3-4.2,1.9c-1.3-0.7-2.4-2.6-2.7-4.1c-0.7-3.5-0.6-7.1-1.2-10.6c-0.2-1.4-1-2.8-1.6-4.2
	c-1.1,1.3-3,2.4-3.1,3.7c-0.5,4,0.1,8.1-0.3,12.1c-0.3,1.9-1.7,4.4-3.2,5.1c-3.1,1.3-3.8-1.6-4.1-3.8c-0.4-2.6-0.4-5.2-0.6-7.8
	c-0.1-1.3,0.4-2.8-0.1-3.9c-0.7-1.6-2-2.9-3.1-4.4c-0.6,1.6-1.7,3.1-1.7,4.6c-0.1,3.2,0.8,6.5,0.5,9.7c-0.2,1.6-2.1,3.2-3.2,4.7
	c-1.5-1.3-4-2.5-4.2-4c-0.8-5.5-1.2-11-0.9-16.5c0.1-2,0.8-5,4.8-4.6c6.2,0.5,12.4,0.1,18.6,0.1c4.8,0.1,8.7,3.5,9.3,8.5
	C605,238.9,605.2,243.3,605.5,248.1"/>
<path d="M458.5,48.1c1.3,0.8,2.8,1.7,2.8,2.4c-0.1,7.4-0.1,14.8-1,22c-0.4,3.5-7,5-10.3,2.5c-1.8-1.4-3.1-3.6-4.5-5.5
	c-0.5-0.7-0.6-1.6-0.9-2.4c-0.7,0.8-1.4,1.6-1.9,2.4c-0.3,0.5,0.1,1.6-0.2,1.9c-1.7,1.7-3.4,4.2-5.4,4.4c-1.7,0.2-5-1.9-5.4-3.6
	c-1.5-6.3-2.4-12.7-3-19.2c-0.1-1.2,2.2-2.6,3.4-3.9c1.1,1.5,3,2.9,3.2,4.6c0.5,3.9,0.1,7.9,0.3,11.9c0.1,1.2,1.1,2.4,1.8,3.5
	c0.7-1,1.7-2,2-3.2c0.6-2.5,1-5,1-7.5c0.1-2.8,0.9-5.4,3.8-5c1.6,0.2,3.4,2.6,4.2,4.5c1.5,3.5,2.2,7.4,3.5,11
	c0.3,0.9,1.6,1.5,2.4,2.2c0.4-0.8,1.2-1.7,1.2-2.5c0.2-4.3-0.2-8.6,0.3-12.8C456.1,53.3,452.5,49.3,458.5,48.1"/>
<path d="M620.8,254.9c-9.3-7.1-7.6-17.1-8.2-26.4c0-0.7,1.9-2.2,2.9-2.3c4-0.2,8-0.2,12,0c4.7,0.2,6.9,4.3,5,8.6
	c-1.4,3.1-2,5.7,0.8,9c3.6,4.3,2.9,8.6-0.4,11.5C629.8,258,624.3,257.9,620.8,254.9 M622,247.1c0.8,1.4,1.5,2.8,2.6,3.9
	c0.6,0.6,1.9,0.5,2.9,0.6c0-1.7,0.5-3.7-0.2-5c-1.2-1.8-3.3-3-5-4.5C622,243.6,621.8,245.1,622,247.1 M621,234.1
	c0.4,1.4,0.7,2.7,1.1,4c0.8-0.8,1.7-1.5,2.4-2.4c0.5-0.7,0.8-1.6,1.3-2.3c1.7-2.4,0-2.6-1.5-2.2C623.2,231.6,622.4,232.8,621,234.1"
	/>
<path d="M386.3,149.4c4.9,0.9,6.8-0.7,4.9-4.8c-1.5-3.3-0.3-5.8,2-6.1c1.5-0.2,4.7,2.9,5.1,4.9c1.2,6.2,1.7,12.7,2.1,19
	c0,1.6-1.3,3.9-2.6,4.6c-3.1,1.5-4.2-1.4-5.2-3.5c-0.5-0.9,0.3-2.4-0.2-3.4c-0.6-1.5-1.9-2.7-2.8-4c-1.4,1.3-2.9,2.5-4,4
	c-0.4,0.5,0.2,1.8-0.2,2.4c-0.9,1.3-2.1,2.4-3.2,3.6c-1.2-1.2-3.4-2.4-3.5-3.7c-0.7-7.8-1-15.7-1-23.5c0-1.6,1.9-3.2,3-4.8
	c1.3,1.6,3.2,3,3.7,4.7C385.3,142.1,385.5,145.7,386.3,149.4"/>
<path d="M521.4,149.1c-3.2,4.4-2.7,6.5,2.2,9c2.2,1.1,4.7,1.8,6.7,3.1c1,0.7,1.4,2.5,2.1,3.7c-1,0.4-2,1.2-3.1,1.2
	c-6.6,0.1-11.3-3.7-15.6-8.1c-0.5-0.6-1.1-1.2-1.6-1.9c-0.2,0.9-0.6,1.8-0.7,2.6c-0.1,1.2,0.3,2.4-0.1,3.5c-0.4,1.4-1.2,2.6-1.9,3.9
	c-1.6-0.9-4.6-1.7-4.8-2.9c-1.1-6.1-1.5-12.4-2.2-18.6c0-0.2,0-0.3,0-0.5c0.6-2.1,9.4-6.4,12.2-6c4,0.7,7.8,4.7,7.8,8.5
	C522.3,147.3,521.7,147.9,521.4,149.1 M514.4,149.6c0.3-1,0.9-2,0.9-3c0.1-0.8-0.5-1.6-0.7-2.5c-0.9,0.3-2.4,0.6-2.5,1
	c-0.3,2-0.2,4-0.2,6C512.5,150.8,513.2,150.5,514.4,149.6"/>
<path d="M471.5,249.1c0-6.2-0.1-11.9,0.1-17.6c0.1-1.5,1-3.8,2-4.2c1.7-0.5,3.8-0.8,5.1,2.2c2,4.6,5.1,8.8,7.9,13.1
	c0.4,0.8,1.5,1.1,2.3,1.5c0.2-0.7,0.6-1.5,0.6-2.2c-0.3-2.3-0.7-4.7-1-7.1c-0.3-2.8,0.3-5.5,3.8-5.6c3.2,0,3.2,2.5,3.3,5.1
	c0.1,4.8,0.7,9.6,0.8,14.4c0,1.5-0.7,3.7-1.8,4.5c-1,0.8-3.5,0.6-4.6-0.2c-2.6-2-4.7-4.5-7-6.9c-1.2-1.2-2.2-2.5-3.2-3.7
	c-0.3,1.9-1.1,3.9-0.7,5.7c1,4.7-0.4,6.9-4.7,5.9C473.2,253.7,472.5,251.1,471.5,249.1"/>
<path d="M584.5,117.1c-0.3-4.3-1.1-8.2-0.8-12c0.1-2,1.8-4,2.8-6c1.4,1.4,2.5,3,4,4c2,1.2-0.9,5.6,3.9,5.2c3.7-0.4,5.2-1.8,5.2-5.5
	c0-2.1-1.4-5.9,2.5-5.4c1.7,0.3,3.8,3.7,4.2,6c1.2,6.5,1.7,13,2.1,19.6c0.1,1.7-1.1,3.4-1.6,5.1c-1.8-1.2-4.1-2.1-5.1-3.8
	c-1.1-1.8-0.7-4.4-1.3-6.5c-0.4-1.6-1.4-3.1-2.1-4.7c-2.1,1.9-6.7,0.2-6.8,4.8c0,1.7,0,3.3,0,5c0.1,2.3,0.1,4.2-3.1,4.3
	c-3.2,0.1-3.7-1.8-3.9-4.1C584.4,121.3,584.5,119.5,584.5,117.1"/>
<path d="M493.5,196.1c-0.3-2.5-1-4.5-0.9-6.5c0.1-1.2,1.1-3.2,1.9-3.3c1.3-0.1,3.7,0.9,3.8,1.7c0.9,5.2,1.5,10.6,1.7,16
	c0.1,1-2,2.7-3.4,3c-3.6,1-6.5-1-9-3.3c-0.9-0.8-1.6-1.7-2.4-2.6c-0.2,1.2-0.6,2.4-0.7,3.6c-0.1,2,0.5,4.2-0.2,5.9
	c-0.6,1.2-3.2,2.7-4.2,2.3c-1.5-0.6-3.3-2.6-3.4-4.2c-0.7-6.5-0.9-13-1.1-19.5c-0.1-1.3,0.7-3.7,1.3-3.8c1.8-0.1,4.3,0,5.3,1.1
	c2.8,3.5,5,7.6,7.5,11.3c0.9,1.2,2,2.2,3,3.3C493,199.6,493.2,198.1,493.5,196.1"/>
<path d="M366.5,64.1c0,3.4,0.4,6.4-0.2,9.2c-0.2,1.4-2.2,2.5-3.4,3.8c-0.8-1.3-1.8-2.6-2.3-4c-0.4-1.1,0-2.3-0.1-3.5
	c-0.2-1.5,1-3.6-2.3-3.6c-2.6,0.1-4.2,0.7-4.7,3.3c-0.1,1,0.2,2.1-0.1,3c-0.4,1.3-1.2,2.6-1.9,3.8c-1.3-1.1-3.8-2.3-3.8-3.4
	c0-7.4-0.2-14.8,1.1-22c0.5-2.5,4.5-5.4,7.5-6.3c3.4-1.1,5.4,2.1,6.3,5.4C363.9,54.4,365.2,59,366.5,64.1 M357.5,51.6
	c-0.7-0.3-1.8-1-2.1-0.8c-3,2.6-2.5,5.7-0.9,8.7c0.4,0.8,1.7,1.1,2.7,1.6c0.4-0.8,1.3-1.6,1.2-2.4C358.3,56.7,357.8,54.7,357.5,51.6
	"/>
<path d="M448.5,242.1c0.8,3.7-0.7,6.7-3.2,7.5c-2.1,0.6-5.1-0.7-7.4-1.7c-1.4-0.6-2.3-2.3-3.6-3.4c-1-0.9-2.3-1.5-3.4-2.2
	c0.1,1.3,0.3,2.7,0.2,4c0,1.7,0.3,3.7-0.5,5c-0.5,0.9-2.9,1.8-3.8,1.3c-1.4-0.7-3-2.4-3.2-3.9c-0.6-5-0.9-10-1-15
	c-0.1-1.5,0.7-4.2,1.3-4.2c2.1-0.2,5-0.2,6.2,1.1c3.2,3,5.6,6.9,8.4,10.4c0.7,0.8,1.5,1.4,2.2,2.1c0.5-1.3,1.2-2.5,1.3-3.9
	c0.3-2.4,0.3-4.9,0.3-7.4c0-3.3,2.2-4.6,4.7-3.4c1.3,0.6,2.2,3.3,2.4,5.2C449.6,236.2,448.8,239,448.5,242.1"/>
<path d="M372.5,73.1c-0.3-6-0.7-11.5-1-17c-0.2-4.5,0.3-8.9,5.3-10.7c4-1.4,8-1.9,10.9,2.4c3.1,4.5,2.1,9-0.4,12.8
	c-2.4,3.6-1.3,5.7,1.2,8.1c0.9,0.8,1.5,2,2.1,3.1c0.7,1.3,1.1,2.7,1.7,4.1c-1.7-0.5-3.5-1-5.1-1.7c-0.6-0.2-1-0.9-1.5-1.3
	c-4.7-3.9-4.7-3.9-7.2,0.9C376.7,77.3,376.3,77.3,372.5,73.1 M383.5,53.6c-1-1.1-1.9-2.3-2.9-3.5c-0.7,1.5-1.7,2.8-2,4.3
	c-0.4,1.6-0.2,3.3,0,5c0,0.6,0.6,1.2,0.9,1.7c0.7-0.4,1.6-0.7,1.9-1.3C382.3,58.1,382.8,56.4,383.5,53.6"/>
<path d="M431.5,97.1c3.3,2.8,6.3,5.4,8.9,8.4c1.4,1.4,2.1,3.4,3.1,5.2c0.5,0.8,1.2,1.4,1.8,2.2c0.4-1,1.1-2,1.1-3
	c0.2-3.9-0.2-7.7,0.3-11.5c0.2-1.5,2.3-2.8,3.5-4.3c0.8,1.4,2.2,2.8,2.2,4.1c-0.1,5.7-0.3,11.4-1,17.1c-0.5,4-4.2,5.3-7.4,2.6
	c-2.6-2.1-4.5-5-6.8-7.5c-0.7-0.8-1.6-1.4-2.4-2.1c-0.4,1.1-1.2,2.3-1.2,3.4c0,2.2,1,4.5,0.7,6.6c-0.1,1.4-1.9,2.6-2.9,3.8
	c-1.1-0.9-2.4-1.7-3.2-2.9c-0.6-1-0.7-2.4-0.7-3.6c0.3-5.2,0.5-10.4,1.1-15.6C428.7,99,430.2,98.1,431.5,97.1"/>
<path d="M487.1,148.2c2.4,0.6,4.7,0.7,6.8,1.3c1.1,0.4,1.9,1.6,2.9,2.4c-0.8,0.8-1.4,2-2.4,2.3c-1.7,0.7-3.7,0.7-5.5,1.3
	c-0.8,0.3-1.4,1.5-2.1,2.2c0.9,0.6,1.7,1.5,2.7,1.7c1.2,0.3,2.7-0.1,3.9,0.1c0.9,0.2,2.3,1,2.3,1.4c-0.2,0.9-0.8,2.1-1.6,2.7
	c-6.4,4.2-13.8,2.3-15.3-8.3c-0.6-3.9-1.6-7.7-1.8-11.6c-0.1-1.4,1.3-3.7,2.5-4.1c3.7-1.1,7.7-1.9,11.6-2c1.6,0,3.1,2.3,4.7,3.6
	c-1.5,0.7-3.1,2.1-4.6,2.1C487.6,143.2,486.3,144.5,487.1,148.2"/>
<path d="M548.5,233.1c-1-3.9-1.5-7.8,1.8-9.8c3.4-2.2,11.5,0.7,13.4,3.4c1.4,2.1,1.1,2.5-1.2,2.4c-1.2,0-2.5-0.3-3.5,0.1
	c-1,0.6-2.3,1.8-2.3,2.8c-0.1,1,1.2,2.2,2.1,3.1c0.4,0.3,1.4-0.2,1.9,0.1c1.7,0.7,3.2,1.7,4.8,2.6c-1.5,0.8-3,1.5-4.5,2.4
	c-1.5,0.9-3,1.9-4.5,2.9c1.6,0.7,3.2,1.4,4.8,2c1.7,0.7,3.5,1.2,5.2,1.7c-1.6,1.5-2.9,3.7-4.8,4.2c-7.4,1.9-12.7-0.6-13.2-9.4
	C548.4,239,548.5,236.3,548.5,233.1"/>
<path d="M631.5,117.1c-1.5,0.4-2.7,0.5-3.5,1.1c-1,0.6-1.7,1.5-2.5,2.3c1.1,0.9,2,2.1,3.3,2.6c2,0.7,5.6-1.4,5.4,2.6
	c-0.1,0.9-4,2.3-6.2,2.3c-8,0.3-10.4-2.3-10.5-10.4c-0.1-5-0.8-10-0.9-15.1c0-1.1,1.1-3.1,1.9-3.2c3.8-0.7,7.7-0.9,11.5-1
	c0.5,0,1.5,1.5,1.4,2.2c-0.1,1-1,1.8-1.7,2.6c-1.4,1.6-3.9,3.2-3.9,4.8c0.1,1.4,2.7,2.9,4.4,4.2c1.3,1,2.9,1.8,4.3,2.7
	C633.7,115.6,632.8,116.4,631.5,117.1"/>
<path d="M482.8,63.4c-2.3,0.7-4.6,0.7-6.1,1.9c-1.5,1.1-2.2,3.4-3.2,5.2c1.2,0.5,2.4,1.3,3.6,1.6c2,0.5,5.4-1.2,5.2,2.5
	c-0.1,1.3-2.9,3-4.7,3.4c-8.4,1.9-11.6-1.2-11.1-9.8c0.2-4.7,0.1-9.3,0-14c-0.1-3.4,1.3-5.3,4.9-5c3.2,0.2,6.4,0.4,9.5,1
	c1,0.2,1.8,1.8,2.6,2.8c-1.1,0.7-2,1.7-3.2,2.1c-1.4,0.3-3.1-0.3-4.5,0.1c-0.9,0.3-2.1,1.6-2.1,2.4c0,0.9,1.2,2.3,2.1,2.4
	c2.1,0.4,4.3-0.1,6.4,0.2C484.4,60.5,485.1,61.6,482.8,63.4"/>
<path d="M447.5,167.1c-3.2,0-6.1,0.6-8.6-0.1c-5.2-1.3-5.7-3.4-2.9-7.9c2.1-3.4,3.6-7.2,5.7-10.6c2.1-3.3,0.4-3.4-2.3-3.4
	c-1.7,0-3.5-0.2-5.1-0.8c-0.8-0.3-1.8-1.8-1.7-2.6c0.2-1,1.4-2.4,2.2-2.4c4.2-0.3,8.4-0.5,12.5,0c1.2,0.2,3.1,2.8,3,4.1
	c-0.3,3-1.5,6-2.5,8.9c-0.6,1.6-1.6,3-2.5,4.5c-1.8,2.9-2.4,5,2.4,4.4c0.8-0.2,1.8-0.4,2.4,0c1.6,1,3,2.4,4.4,3.6
	c-1.5,0.8-3,1.6-4.5,2.3C449.4,167.3,448.7,167.1,447.5,167.1"/>
<path d="M527.8,233.9c1,3.6,1.7,6.9,2.8,10.1c0.3,0.9,1.8,1.5,2.7,2.1c0.4-0.8,1.1-1.7,1.2-2.6c0.4-4.6,0.4-9.4,1.1-14
	c0.3-1.6,2-2.9,3-4.4c1.3,1.2,3.8,2.5,3.7,3.6c-0.6,6.9-1.4,13.9-2.9,20.7c-1,4.3-10.4,4.5-13.5-1.7c-2.8-5.6-3.8-12.1-5.3-18.3
	c-0.2-0.9,1.1-3.1,1.4-3.1c1.6,0.3,3.6,0.7,4.4,1.9C527.3,229.6,527.2,231.8,527.8,233.9"/>
<path d="M478.5,117.1c-3.5,7.5-9.9,8.2-15.2,0.3c-4.7-7.1-3.9-16.5,2.3-20.6c2-1.3,5.5-2.1,7.5-1.2c2.5,1.2,5.4,3.6,4.4,7.5
	c-0.3,1-0.9,1.9-1.4,2.9c-0.9-0.5-2-0.8-2.7-1.6c-1-0.9-1.5-2.5-2.6-3.3c-0.6-0.4-2.5-0.2-3,0.4c-2.3,3.1-1.2,13.4,1.8,16
	c0.4,0.4,2.6-0.4,2.8-1c2-6.5,4.6-8.4,11.3-7.2c1.4,0.2,2.5,1.9,3.8,3c-1.2,0.6-2.3,1.3-3.5,1.8C482.2,115,480.3,115.8,478.5,117.1"
	/>
<path d="M513.5,71.1c-2-2-4-3.6-6.1-4.9c-4.9-3-6.9-8.1-4.9-13c1.6-3.9,6.6-6.4,11.2-4.9c1.8,0.6,3.8,2.5,4.5,4.3
	c0.6,1.7-0.3,4.1-3.3,3.4c-1.1-0.2-2-0.7-3.1-1c-1.1-0.4-2.2-0.8-3.3-1.2c0,1.8-0.6,3.9,0.2,5.1c1,1.8,2.9,3.3,4.8,4.2
	c4,1.8,7.3,4.2,5.9,9.1c-1.3,4.4-4.8,6.2-9.6,6c-6.5-0.3-9.8-3.1-9.3-8.9c0.1-0.7,0.4-1.4,0.6-2.2c0.7,0.4,1.5,0.7,2,1.2
	c1.1,1,2.2,2.1,3.2,3.2C508.7,73.9,511,74.1,513.5,71.1"/>
<path d="M406.8,157.9c-0.3-2.1-0.3-3.9-0.3-5.8c0-6.1,3-10.7,7.7-10.9c6.5-0.1,9.2,0.9,10.7,8c0.9,3.9,0.7,8.2-0.2,12
	c-0.8,3.2-3.8,5.8-7.7,4.9C412.5,165,408.1,163.6,406.8,157.9 M418.5,151.6c-0.5-1.7-0.7-3.6-1.5-5.3c-0.2-0.4-2.2,0.1-3.3,0.1
	c0.7,4.5,1.3,8.9,2.1,13.4c0,0.2,1.5,0.2,2.3,0.2C418.2,157.6,418.4,155.1,418.5,151.6"/>
<path d="M452.3,188.9c6.4-3.5,11.6-1.6,15,1.7c4,3.7,4.6,9,1,14.1c-1.6,2.4-4.9,5-7.5,4.9c-3.9,0-8.1-1.1-10.4-5.8
	C447.6,198.3,448.3,193.7,452.3,188.9 M456.5,200.6c1.9,1.9,4.2,4.8,6.6,2c1.3-1.4,0.7-4.9-0.1-7.1c-0.4-1.2-3.1-1.6-4.7-2.4
	c-0.6,2-1.2,4-1.8,6C456.5,199.3,456.5,199.5,456.5,200.6"/>
<path d="M655.5,225.1c-1.3,1.4-2.7,2.1-3.8,3.1c-1.2,1.1-2.8,2.4-3,3.8c-0.1,0.9,1.9,2.1,3,3.1c1.2,1.1,2.5,2.1,3.8,3.2
	c-1.1,0.8-2.2,1.6-3.1,2.5c-1.1,1-2,2.2-2.9,3.2c1.2,0.4,2.6,0.6,3.7,1.2c1.5,0.8,3.9,1.8,4.1,3c0.6,3.7-2.6,2.9-4.7,2.9
	c-6.8,0.1-9.1-1.1-10.3-7.9c-1.1-6.1-0.6-12.5-0.8-18.8c0-0.4,0.3-0.9,0.6-1.3C643.8,220.9,653.8,222.1,655.5,225.1"/>
<path d="M545.5,194.1c-2.1,1.4-4.4,2-6.4,3.1c-0.8,0.5-1.1,1.8-1.6,2.8c0.9,0.4,1.7,0.8,2.6,1.1c0.5,0.2,1-0.1,1.5,0.1
	c2,0.6,3.9,1.2,5.9,1.9c-2.5,1.7-5.1,4.8-7.5,4.7c-8.4-0.4-12.6-7.5-10.5-16.2c0.1-0.4,0-1,0-1.5c0.8-8.9,3.5-10.9,12.2-8.9
	c1,0.3,1.9,1.6,2.8,2.5c-0.8,0.8-1.5,1.8-2.4,2.4c-0.9,0.6-2.3,0.5-3,1.1c-0.8,0.6-1.1,1.8-1.6,2.8c0.9,0.4,1.8,0.7,2.6,1.1
	C541.9,192,543.7,192.8,545.5,194.1"/>
<path d="M400.3,76.4c-0.9-0.8-2-1.4-2-2c-0.3-8.3-1.2-16.7-0.5-24.9c0.3-4,12.2-5,15-1.5c1.1,1.4,1.9,3-1.1,3.2
	c-1.6,0.1-3.1,0.6-4.6,1c-1.2,0.3-2.4,0.8-3.6,1.2c0.6,1.7,1.2,3.5,2,5.1c0.1,0.4,0.8,0.4,1.2,0.6c1.6,0.9,3.2,1.7,4.8,2.6
	c-1.7,1.1-3.4,2.2-5,3.5c-1.1,0.9-2,2.2-3,3.3c1.1,0.9,2.1,1.9,3.3,2.6c1.5,0.9,3.1,1.5,4.7,2.2c-1.9,1.3-3.7,3-5.8,3.7
	C404.2,77.5,402.3,76.8,400.3,76.4"/>
<path d="M517.5,237.1c-0.3,3.8,0.1,7.3-1,10.3c-2.2,6-10.4,7-14.1,2c-4.2-5.7-4.3-14.7,0.4-19.8c1.9-2,5.6-3.3,8.5-3.2
	c2.6,0.1,4.5,2.7,4.3,6.1C515.6,233.8,516.8,235.3,517.5,237.1 M510.5,235.6c-0.9-1.1-1.9-2.3-2.8-3.5c-0.8,1.3-2.2,2.6-2.1,3.7
	c0.3,3.4,1.2,6.8,2,10.1c0.1,0.5,1,1.2,1.5,1.1c0.5,0,1.3-0.8,1.3-1.2C510.6,242.7,510.5,239.7,510.5,235.6"/>
<path d="M683.3,223.4c0-1.8-0.1-4.7,0.5-4.8c3.2-0.7,6.7-1.5,9.7-0.7c4.7,1.1,6.5,5.3,4.8,12.6c-1.2,5.6-0.6,10.5,1.1,15.8
	c0.6,1.7-0.3,3.9-0.5,5.8c-2.1-1.1-5.2-1.8-6.2-3.6c-3.3-5.4-4-11.4-2.3-17.7c1.7-6.4,1.4-6.5-5.1-6.7
	C684.7,224.1,684.1,223.8,683.3,223.4"/>
<path d="M424.3,188.9c2.6-4.7,6.4-6.7,11.2-5.6c1.6,0.3,2.7,2.5,4,3.9c-1.3,0.6-2.6,2-3.8,1.8c-3.4-0.5-5.5,1.3-5.5,4.1
	c0,3.7,0.5,7.7,2.1,11c1.4,2.9,4.6,4,8.2,2.2c1.3-0.7,3.3,0.3,5,0.5c-0.9,1.5-1.4,3.3-2.6,4.4c-4.1,3.6-14.3,1.1-17.4-4
	C421.9,201.4,421.4,195.4,424.3,188.9"/>
<path d="M592.5,190.1c1,4.6,2.2,8.7,2.9,12.8c0.1,0.9-1.6,3-2.5,3c-1.3,0.1-3.4-0.9-3.9-1.9c-1.8-4.3-3.6-8.7-4.3-13.2
	c-0.7-4.2-2.5-5.6-6.4-5.8c-1.3,0-2.5-1.3-3.8-2c1-1.3,1.9-3.5,3.1-3.7c5.3-1,10.7-1.7,16.1-2c1.6-0.1,3.2,1.2,4.8,1.9
	c-1.2,1-2.2,2.2-3.5,2.9C591.6,183.9,590,186,592.5,190.1"/>
<path d="M400.8,118.4c-5,1.8-9.1,0.6-11.8-3.4c-3-4.4-3.6-9.3-1.5-14.4c1.8-4.4,5.5-5.6,9.7-5.4c3.4,0.2,7.8,5.3,8.3,9.4
	C406,109.7,405.2,114.5,400.8,118.4 M394.5,111.6c0.9,0.9,1.9,1.7,2.8,2.5c0.4-0.8,1.1-1.6,1.2-2.5c0.5-2.5,1.1-5.1,0.8-7.5
	c-0.1-1.1-1.9-2.4-3.2-2.8c-0.6-0.2-2.5,1.5-2.6,2.4C393.3,106.2,393.8,108.7,394.5,111.6"/>
<path d="M381.5,110.1c-2.2,3.8-4.1,7.3-6.8,10c-1.3,1.4-4.1,2.2-6,1.9c-8.3-1.2-13.5-15.7-8.3-22.3c2.4-3,4.9-5.7,9-4.5
	c1.4,0.4,2.5,2,3.7,3c-0.9,0.5-1.9,0.8-2.6,1.5c-2,1.8-5,3.5-5.8,5.8c-1.3,4,0.6,7.9,3.6,10.8c0.6,0.6,1.7,0.6,2.6,0.8
	c0.2-0.9,0.5-1.7,0.6-2.7c0.1-2,0.2-4,0.3-6C375,108.8,378.3,109.2,381.5,110.1"/>
<path d="M538.5,123.1c-9.2,0-15.3-7-12.5-13.9c2.3-6,5.3-7.8,11.8-7.1c4.1,0.5,7,4.4,7.7,9.9S543.4,120.7,538.5,123.1 M538.5,114.6
	c-0.6-2.2-1.1-4.5-1.9-6.7c-0.1-0.3-1.8-0.5-1.8-0.4c-0.9,2-1.7,3.9-2.2,6c-0.2,0.7,0.5,1.7,0.9,2.5
	C535.4,119.4,537.1,119.3,538.5,114.6"/>
<path d="M539.3,77.9c-3.8,2.4-5.7,1.8-5.8-2.7c-0.2-5-0.7-10-1-15c-0.2-3.1-2-4-4.9-4.2c-1.4-0.1-2.7-1.4-4.1-2.1
	c1-0.9,2-2.5,3.1-2.7c5.7-0.9,11.4-1.5,17.1-1.9c0.9-0.1,1.9,1.6,2.8,2.4c-0.8,0.8-1.5,2.1-2.5,2.4c-3.6,0.8-4.8,2.7-4.6,6.4
	C539.8,66.2,539.5,71.9,539.3,77.9"/>
<path d="M506.5,100.1c-1-1.1-2-2.4-1.8-3.5c0.1-0.6,2-1.4,3.1-1.4c4.9-0.1,9.7-0.2,14.5,0c1.1,0.1,2.1,1.4,3.2,2.1
	c-0.8,0.6-1.6,1.4-2.5,1.8c-4,1.7-5.7,7.3-4.5,14.1c0.5,3.1,0.7,6.4,1,9.6c0.4,3.6-2.4,2.9-3.7,1.9c-1.5-1.1-2.9-3.2-3.2-5
	c-0.7-4.3-1.1-8.8-1-13.1C511.7,102.9,510.7,100.7,506.5,100.1"/>
<path d="M572.5,122.1c-0.6,1.7-1.2,2.9-1.8,4c-1.4-0.8-3.8-1.5-4-2.6c-0.8-4.8-1.1-9.7-1.1-14.5c0-2.7-0.5-4.5-3.3-5.7
	c-1.1-0.4-1.9-2-2.8-3.1c1.3-0.7,2.5-1.8,3.8-2c4-0.5,8-0.8,12-1c1,0,2.1,0.7,2.9,1.3c0.2,0.1-0.1,1.7-0.6,1.9
	c-6.9,3.6-4.9,10-5.1,15.8C572.5,118,572.5,119.8,572.5,122.1"/>
<path d="M597.5,58.1c0,2.4,0,4.2,0,6c0,6.7,0,6.7,6.5,7.1c0.8,0,2.4,0.9,2.4,1.2c-0.3,1.6-0.5,4-1.6,4.6c-7.4,4.2-14.3-0.1-14.3-8.6
	c0-4.5,0-9,0-13.5c-0.1-2.6-0.3-4.9,3.6-4.8c3.6,0,3.5,2.1,3.4,4.5C597.5,55.6,597.5,56.6,597.5,58.1"/>
<path d="M523.3,206.9c-6.4,5.3-16.6,1.5-17.6-6.7c-0.5-4.1,1.1-8.4,1.8-12.6c0.8-4.4,5-3,7.6-4.4c0.5,1.1,4,0.5,1.5,3.6
	c-1.7,2.1-2.4,5.2-3.2,8c-1.6,5.2,0.7,8.4,5.8,8.3C521.8,203.1,524.4,202.6,523.3,206.9"/>
<path d="M577.5,67.1c-0.5,4,0.8,5.3,4.4,5.2c1.2,0,2.4,1.7,3.6,2.6c-1.2,1.1-2.2,2.5-3.6,3.2c-1.6,0.7-3.4,0.7-5.1,1
	c-2.9,0.7-6.1-2-6.2-5.7c-0.3-5.8-0.4-11.7,0.1-17.4c0.1-1.7,2.4-4.4,4-4.6c3.7-0.7,2.7,2.7,2.8,4.8
	C577.6,59.6,577.5,63.1,577.5,67.1"/>
<path d="M416.5,235.1c0.3,4.4,0.8,8.2,1,12.1c0,2.1,0.8,5.5-2.8,4.7c-2-0.5-4.4-3.1-5-5.2c-0.8-3.3-0.1-6.9-0.2-10.4
	c-0.2-2.3-0.9-4.7-0.9-7c0-2,0.3-4.3,1.4-5.8c0.6-0.8,3.6-1,4.5-0.2c1.2,1,1.7,3.2,1.9,4.9C416.7,230.3,416.5,232.5,416.5,235.1"/>
<path d="M415.8,119.9c-3.9-7.9-1.8-16-2.1-23.9c-0.1-0.6,2.6-2,3.2-1.7c1.4,0.8,3.3,2.4,3.4,3.8c0.5,4.9,0.2,9.9,0.2,14.9
	c0,2.1,0.4,4.3-0.1,6.2C419.7,121.5,418,122,415.8,119.9"/>
<path d="M559.3,78.9c-3.7,0.8-5-0.6-4.9-4.1c0.3-6.2,0-12.4,0.2-18.5c0.1-1.4,1.4-2.8,2.1-4.2c1.3,0.9,3.6,1.6,3.7,2.6
	C561.4,62.7,563.3,70.8,559.3,78.9"/>
<path d="M466.3,145.4c0.9,5.9,1.7,11.6,2.2,17.3c0.2,1.8,0.2,5-0.5,5.2c-3.4,1-5.8-1.2-6.4-4.2c-1.1-5.3-1.6-10.7-2-16.1
	c-0.1-1.4,0.8-2.9,1.3-4.4C462.6,143.9,464.3,144.5,466.3,145.4"/>
<path d="M700.5,264.1c-1.7-1.1-2.8-2.2-4-3.3c1.1-0.9,2.4-2.7,3.2-2.5c1.6,0.5,3,2,4.6,3.1C703.2,262.3,702.1,263.2,700.5,264.1"/>
<path d="M637.5,440.1c-9.5,11.8-21.9,16.6-36.2,18.1c-14.2,1.6-28.2,1.3-42.3-1c-0.5-0.1-1,0-1.5-0.1c-13.2-0.3-26.4-0.1-39.5-1.1
	c-11.4-0.9-22.6-3.6-34-4.7c-8.1-0.7-15.8-2.8-22.9-6.3c-13.4-6.6-25.3-15.4-33.8-27.8c-6.5-9.3-10.3-19.8-10.8-31.5
	c-0.9-17.2,3-33.2,11-48.4c5.1-9.6,12.7-16.4,23-20.2c6.4-2.3,12.5-5.3,19-7.3c4.1-1.2,8.6-1,12.8-1.8c1.5-0.2,3.2-1.4,4.1-2.6
	c3-3.9,7.5-2.9,10.6-2c9.3,2.9,18.8,3.3,28.4,3.7c12.8,0.5,25.7,0.2,38.6,1.2c16.1,1.1,32,4,46.4,11.9c9.9,5.4,17.9,12.9,22.3,23.7
	c1,2.5,1.9,5.1,2.8,7.7c2.7-1.3,5.3-2.7,7.9-3.9c10.8-4.8,21.6-9.8,32.5-14.4c4.7-2,9.7-3.4,14.6-4.5c1.5-0.3,4.4,1,4.7,2.2
	c0.4,1.4-0.6,4.1-1.9,5c-12,8.8-24.2,17.3-36.1,26.1c-4.3,3.2-8.2,7.1-11.9,11c-1.1,1.1-1.2,3.6-0.9,5.3c1.2,6.8,3.5,13.5,3.9,20.3
	c0.5,9.6,1.7,19.6-2.9,28.7C643.2,431.7,640.2,435.6,637.5,440.1 M426.5,364.6c-0.7,7.3-1.9,14.5-1.9,21.7
	c0,12.3,4.8,23.1,12.8,32.1c11.8,13.1,25.7,23.2,43.7,25.8c13.7,2.1,27.4,4.2,41.1,5.9c6.6,0.8,13.3,0.7,20,1
	c12.1,0.7,24.1,1.6,36.2,1.9c6.5,0.2,13-0.6,19.6-0.9c13-0.6,24.7-4,32.4-15.4c3-4.5,6.6-9.2,7.8-14.2c1.8-7.7,2.5-15.8,2-23.6
	c-0.4-6.9-2.5-13.8-5-20.3c-2.1-5.4-2.3-7.3,2.2-10.5c8.6-6.2,17.1-12.6,25.6-19c0.9-0.7,1.5-1.8,2.2-2.8c-1.3,0.1-2.7-0.1-3.7,0.4
	c-8.8,4.6-17.4,9.5-26.2,14c-1.7,0.9-4.4,1.2-6,0.4c-1.4-0.7-2.3-3.2-2.7-5c-0.5-2.9,0.2-6.1-0.6-8.8c-3.7-12.2-12.7-19.4-23.9-24.1
	c-15.8-6.7-32.6-8.1-49.6-8.1c-10.2,0-20.4-0.3-30.6-1.1c-6.6-0.4-13.2-1.8-19.7-2.9c-3.9-0.6-7.8-1.3-11.7-1.9
	c-0.6-0.1-1.2,0.2-1.9,0.3c0.3,0.4,0.5,0.8,0.8,1c3.7,3.4,0.6,4.2-1.9,4.6c-5.4,0.8-10.8,1.1-16.2,2.1c-10.2,2-19.4,6.4-27.5,13.1
	C433.3,339,429.3,351,426.5,364.6"/>
<path d="M309.5,255.1c1.7,0.3,2.8,0.6,4,0.8c-0.5,1.1-0.8,2.6-1.6,3.3c-3.9,3.2-8.1,5.8-13.5,3.9c-1-0.3-1.9-0.9-2.9-1.3
	c0.9-0.9,1.6-2.3,2.7-2.7C301.7,257.6,305.4,256.4,309.5,255.1"/>
<path d="M366.5,1044.1c1.3,4.5,2.4,8.6,4,12.4c1.3,3.1,3.4,5.9,4.8,9c1,2.2,1.5,4.7,2.2,7.1c2.8,9.5,5.7,19,8.4,28.5
	c0.4,1.4,1,3.1,0.5,4.2c-0.7,1.5-2.3,2.6-3.6,3.8c-0.7-1-1.9-1.9-2.2-3c-1.2-4.4-2-8.9-3-13.3c-0.2-0.9-0.8-1.8-1.2-2.7
	c-0.5,0.8-1,1.5-1.5,2.2c-4.1,6.1-9.3,10.9-16.4,13.3c-0.9,0.3-1.9,0.6-2.8,0.5c-1-0.2-2-0.8-3-1.2c0.7-0.9,1.3-1.8,2.1-2.5
	c4.8-3.9,9.9-7.6,14.6-11.7c3.8-3.3,4.7-7.3,3-12.3c-4.2-11.8-6.5-24.5-12.3-35.4c-6.9-12.9-4.6-26.1-5.5-39.2
	c-0.7-10.5-0.4-21.1,0-31.7c0.3-5.6,1.9-11.2,2.9-16.7c1.9-10,2.9-19.8,1.2-30c-0.9-5-0.3-10.3-0.1-15.5c0-0.9,1.3-1.8,2-2.8
	c1,0.9,2.6,1.5,2.8,2.5c1.2,5.7,2.3,11.5,3,17.3c0.7,4.5,0.7,9,1.1,13.5c0.1,0.6,0.7,1.2,1.1,1.7c0.6-0.4,1.5-0.8,1.9-1.4
	c6.4-10,12.7-20,19-30.1c1-1.7,1.7-3.7,1.9-5.7c0.6-4,1.9-8.4,0.8-11.9c-1.3-4.3-4.3-8.4-7.5-11.7c-2.7-2.9-7.1-4.1-10.1-6.7
	c-3.7-3.4-6.8-7.4-10.1-11.2c-2.8-3.3-5.5-6.8-8.3-10c-0.8-0.9-2.2-2.2-3.1-2.1c-6.2,0.8-10.7-3.3-16-5c-2.5-0.7-5.1-0.5-6.1,2.8
	c-1.5,4.6-4.7,7.3-9.3,8.4c-0.9,0.3-1.7,0.9-2.5,1.4c-1.2,0.9-2.3,2-3.5,2.9c-0.1-1.4-0.1-2.9-0.2-4.4c-0.1-0.8-0.3-1.5-0.5-2.3
	c-0.8,0.5-2,0.8-2.4,1.5c-2.4,5.1-4.4,10.5-7.2,15.5c-2.9,5-6.1,10-9.9,14.3c-3,3.4-10.8,2.4-13.1-0.9c-1-1.5-2.5-3.4,1.2-3.4
	c0.3,0,0.5-0.4,0.8-0.4c7.6,0.3,11-4.9,13.7-10.8c0.8-1.6,1.4-3.6,1.3-5.4c-0.5-9.1,0.7-17.8,5.1-25.9c0.5-1,0.4-2.3,0.5-3.4
	c-1.1,0.6-2.5,0.9-3.5,1.8c-3.5,3.3-6.7,7-10.4,9.9c-3.5,2.8-7.4,3.5-12.3,2.6c-5.4-1.1-11.3,0.6-17,0.5c-4.3-0.1-8.5-1.2-12.7-1.8
	c-1.5-0.1-2.9,0.2-4.4,0.2c0.7,1.2,1.2,2.5,2.1,3.5c6.8,6.8,13.5,13.8,20.5,20.4c2.6,2.4,6,3.9,9,5.8c0.8,0.5,1.5,1.1,2.2,1.6
	c-0.8,0.8-1.8,2.4-2.4,2.3c-3.2-0.8-6.5-1.4-9.2-3.1c-10.9-7-18.9-16.8-25.8-27.6c-0.5-0.8-1.4-1.4-2.1-2.1c-0.1,1-0.8,2.3-0.4,3.2
	c1.9,4.2,4.2,8.2,6,12.5c0.9,2.2,1.1,4.7,1.6,7.1c-2.1-1.3-5.1-2.1-6-3.9c-3.9-7.9-7.2-16.1-10.7-24.1c-0.4-1-0.9-2-1.5-2.8
	c-0.4-0.5-1.1-0.7-1.6-1.1c-0.3,0.7-0.9,1.4-0.8,1.9c0.5,2.6,0.9,5.3,2,7.7c3.4,7.9,7.1,15.7,10.5,23.6c0.6,1.5,0.7,3.2,1,4.8
	c-1.9-0.6-4.7-0.5-5.6-1.8c-2.4-3.5-4.4-7.5-5.9-11.5c-2.6-6.6-4.7-13.4-7.1-20c-0.5-1.3-1.6-2.4-2.4-3.5c-0.2,1.1-0.7,2.3-0.6,3.5
	c1.4,11.5,5,22.4,10.7,32.5c0.4,0.7,1.1,1.3,1.3,2c0.3,1.6,0.3,3.2,0.5,4.8c-1.7,0-3.5,0.2-5.1-0.2c-1.5-0.3-2.9-1.6-4.3-1.7
	c-3.2-0.1-6.1,0.2-7.5-3.8c-0.3-0.7-2.5-1.3-3.8-1.2c-5.7,0.6-8.4-2.9-9.7-7.5c-1.1-4.1-1.4-8.5-2.1-12.7c-0.2-1.2-0.8-2.3-1.1-3.5
	c-0.9,0.6-1.7,1.2-2.5,1.8c-4.5,3.1-6.2,7.2-5.6,12.7c0.2,1.6-1.7,3.4-2.7,5.1c-0.7-1.5-1.4-3.1-2.1-4.7c-0.5-1.3-0.8-2.7-1.2-4
	c-0.9,0.9-2,1.7-2.8,2.7c-4.8,6.3-9.3,12.9-14.5,18.9c-4.9,5.6-10.1,10.9-15.8,15.8c-9.7,8.4-20,16.2-29.7,24.5
	c-0.9,0.7-0.5,4.4,0.5,5.6c3.7,4.3,7.9,8.1,11.9,12.1c5.6,5.7,11.5,11.1,16.8,17c5.9,6.5,14.9,7.4,21.5,1.7
	c12.1-10.4,23.6-21.6,35.3-32.5c0.6-0.5,1.5-0.7,2.2-1.1c0.3,0.9,1,2,0.7,2.5c-1.5,3.1-2.5,6.9-5,8.8c-5.6,4.4-5.4,9.2-4.1,15.4
	c2.3,10.9,3.8,21.9,5.1,32.9c0.9,7.7,0.1,15.5,1.3,23.1c1,6.6,4,13-1.1,19.1c-0.5,0.5-0.4,1.9,0,2.5c3,4.9,5.8,9.8,4.1,16.1
	c-0.2,0.5,2.1,1.5,3.1,2.5c3.3,3.2,6.8,6.4,9.8,9.9c1.2,1.4,1.3,3.8,1.9,5.7c-2.1-0.1-4.8,0.5-6.2-0.6c-4.4-3.3-8.5-7.2-12.4-11
	c-2.8-2.8-5.2-5.9-7.8-8.8c-2.4-2.7-4-5.5-1.3-8.9c0.2-0.3,0.2-0.7,0.3-1c-0.4,0-1-0.1-1.3,0.1c-3.9,2.4-9.4,1.5-12.6,6.1
	c-0.4,0.6-5.3-0.3-6.4-1.8c-10.3-14-20.2-28.3-30.3-42.4c-2.8-3.9-6.1-7.4-8.7-11.5c-3.4-5.3-6.3-11-9.2-16.6
	c-0.5-1,0.1-2.6,0.2-3.9c1.2,0.1,2.7-0.1,3.7,0.4c1.2,0.7,2.4,1.9,3.1,3.1c4.3,7.6,10.4,7.9,15.2,0.4c0.3-0.4,0.2-1.6-0.2-2
	c-10.6-10.5-21.3-20.9-31.9-31.4c-4.3-4.2-5.6-3.9-9.4,0.9c-5.6,7.3-11.4,14.4-17.3,21.4c-4.8,5.7-3.8,12.4-3.1,18.9
	c1.8,15.4,10.7,27.7,18.8,40.1c3.9,6,9.8,10.8,15.1,15.8c5,4.7,10.2,9.1,15.4,13.4c7.4,6.2,15.2,12.1,22.3,18.6
	c2.9,2.6,5.4,6.3,6.9,10c3,7.6,7.1,14.1,15,17.5c1.1,0.5,2.7,0.3,4,0.3c-0.6-1-1.2-2.2-1.9-3.1c-2.7-3.1-5.7-5.9-8-9.2
	c-0.9-1.2-0.3-3.5-0.4-5.3c1.8,0.2,4.4-0.3,5.3,0.7c4.5,4.6,8.6,9.7,12.9,14.6c1.9,2.1,4.1,3.9,5.9,6c1,1.2,1.4,2.9,2.1,4.4
	c-1.3,0.1-2.7,0.6-3.8,0.3c-2.8-1-5.4-2.4-8.1-3.5c-0.9-0.4-2.1-1.3-2.7-1c-7.4,3.9-13.2,1.1-17.7-4.7c-3.4-4.4-6.4-9.3-8.5-14.4
	c-3.5-8.7-11.3-12.8-17.8-18.3c-3-2.6-6.3-5-9.3-7.7c-6-5.5-12-11.3-18-16.9c-0.6-0.6-1.7-1.5-2.4-1.4c-6.5,1.2-8.7-3.7-10.9-8.1
	c-4.6-8.9-8-18.6-13.4-26.9c-7.8-12-6-25-6.1-38c0-1.4,0.6-3.5,1.7-4.2c8-5.3,10.8-14.8,17.2-21.3c7.8-7.9,15.4-16,23.6-23.5
	c11.8-10.7,24.3-20.5,35.9-31.4c4.4-4.2,7.3-10.1,10.3-15.6c1.1-1.8-0.1-4.7,0.3-7.1c1.6-9.6,2.8-19.4,5.4-28.7
	c2.9-10.2,7.2-20,10.8-30c1.6-4.5,3.3-9,4.5-13.7c0.4-1.8-0.5-4-0.8-6c-0.1-0.1-0.4-0.3-0.6-0.4c-0.2,0.4-0.3,0.9-0.4,1.3
	c-0.3,1.6-0.4,3.2-1.1,4.6c-0.6,1.2-1.9,2-2.9,2.9c-0.7-1.1-2-2.3-1.9-3.4c1-7.8,2.2-15.7,3.4-23.5c1.7-11.5,7.6-21.5,11.7-32.2
	c3.9-10.1,9.2-18.9,17.4-25.7c4.8-3.9,11.2-5.9,16.6-9.2c13-8,26.9-7.5,40.5-3.4c10.3,3,19.9,8.2,29.8,12.5c0.9,0.3,1.9,0.7,2.4,1.4
	c4.2,6.1,8.3,12.2,12.4,18.3c4,6,6.5,12.3,6.9,19.8c0.5,9.3,2.4,18.5,3.8,27.8c1.6,10.3,2.7,20.8,5.2,30.9
	c2.1,8.6,5.9,16.8,8.8,25.3c1.2,3.5,1.8,7.3,3.1,10.7c0.7,1.8,2.3,4.4,3.7,4.5c9.2,0.9,15.6,7.1,19.6,13.8
	c4.3,7.4,10.4,11.7,16.9,16.1c4.7,3.3,7.9,7.5,10.8,12.4c7,11.7,14.3,23.2,22.1,34.4c4.3,6.2,8.7,6,14.3,0.5
	c6-5.8,11.7-11.9,17.7-17.6c3.3-3.1,7-5.7,10.5-8.6c0.7-0.6,1.7-1.2,2.1-2.1c3.1-7.6,7.4-14.4,6.5-23.6c-1.5-14.4-0.6-28.6,8.3-41.5
	c3.7-5.4,4.4-12.8,7.6-18.7c3.7-6.9,8.5-13.3,13.1-19.6c2.6-3.5,6-6.1,10.6-2.8c3.4,2.4,4.3,7.6,2.1,12.3c-1.9,4-4.5,7.8-5.8,12.1
	c-0.9,2.9-1.2,6.8-0.1,9.5c4.2,10.1,5.2,20.1-1.3,29.2c-4.1,5.9-1.9,11.5-1.5,17.3c0.2,3.4-0.2,6.8-1,10.1c-0.2,1.2-2.3,2-3.5,3
	c-0.6-1.5-1.5-3-1.7-4.5c-0.6-3.4-0.1-7-1.2-10.1c-2.3-6.3-1.8-11,2.6-16.9c5-6.8,6.5-15.7,2.5-24.2c-0.4-0.8-1-1.5-1.5-2.3
	c-0.9,0.8-2.3,1.6-2.4,2.5c-0.4,8.1-4.9,14.6-8.3,21.6c-0.5,1.1-3.1,1.3-4.8,1.9c0-1.3-0.4-2.7,0.1-3.8c3.1-8.2,6.4-16.3,9.7-24.5
	c0.3-0.7,0.5-1.6,1.1-2c8.2-5.1,8-14.6,11.8-22c0.5-1-0.3-2.7-0.6-4c-1,0.6-2.3,1.1-3.1,1.9c-6.6,7.4-11.2,15.9-14.9,24.9
	c-3.2,7.6-6.6,15.3-9.1,23.2c-2.9,9.2-4.1,18.6-2.2,28.4c0.9,4.1,0.8,8.6-2.5,12.3c-1.3,1.4-1.3,3.8-2.3,5.5
	c-2.5,4.2-4.6,8.8-7.8,12.3c-8,8.6-16.4,17-25,25c-3.8,3.5-8.3,6.4-12.9,8.8c-1.6,0.8-5.6,0.3-6.5-1c-6.6-9-12.6-18.4-18.8-27.7
	c-0.7-1.1-1.3-2.2-2.2-3.2c-0.2-0.2-1.7,0.3-1.7,0.4c0.7,7.5-3.3,13-7.5,18.5c-4.7,6.1-9.1,12.5-13.9,18.7c-1.3,1.7-4.6,3.3-4.4,4.4
	c0.4,2.4,2.3,4.9,4.1,6.7c7.5,7.5,15.7,14.2,22.6,22.1c5.1,5.7,11.5,9.1,17.6,13.2c4.8,3.2,9.3,3.9,15,1.1
	c13.3-6.6,24.5-15.3,32-28.3c5-8.7,9.3-17.9,14.5-26.5c6.7-11.1,13.7-22,21-32.8c2.2-3.2,5.1-6.4,8.5-8.4c5.6-3.2,6.8-8.6,7.2-13.9
	c0.8-8.9,6.7-12.9,13.6-16.3c6.6-3.2,14.8-3.6,19.9-9.8c0.7-0.8,1.1-1.8,1.6-2.8c-0.9-0.1-2-0.6-2.8-0.3c-3.8,1.1-7.7,2.4-11.4,3.8
	c-2.3,0.9-4.4,2.6-6.7,3c-5.4,1-11.7-2.3-8.1-9.1c3-5.8,7-11,10.4-16.6c3-4.8,5.9-9.6,8.4-14.6c0.7-1.4-0.1-3.7-0.3-5.6
	c-1.5,0.9-3.4,1.4-4.4,2.6c-5.1,6.3-10,12.8-15,19.3c-0.7,0.9-1.2,1.9-2,2.6c-0.7,0.6-1.6,1-2.4,1.5c-0.2-0.9-0.5-1.8-0.6-2.6
	c-0.3-4.1,0.8-7.3,3.5-10.7c4.8-6,8.7-12.9,12.8-19.6c0.5-0.7,0.2-2,0.3-3c-0.9,0.3-2,0.4-2.6,1c-5.4,5.3-10.7,10.7-16,16
	c-0.7,0.8-1.2,1.7-1.8,2.6c-0.4-1.7-1.7-4.1-1-5.1c3.8-5.3,7.9-10.5,12.3-15.4c2.1-2.3,4.9-4.1,7.6-5.6c1.6-0.9,4.1-1.6,5.6-1
	c1.2,0.5,2.2,3.2,2.2,4.8c-0.2,3.6,0.9,5.5,4.4,6.8c4.7,1.7,5.4,4.9,4.1,10c-2.6,10.8-10.2,18.6-16.3,27.2c-0.2,0.3-0.6,0.5-0.7,0.8
	c-0.8,2.1-1.5,4.3-2.3,6.4c1.9-0.8,3.7-1.8,5.6-2.5c5.6-2.1,11-5.7,17.5-3.4c7.8,2.8,8.9,6.9,3.5,13.2c-4.6,5.5-11.2,7.2-17.7,9.2
	c-5.9,1.9-11.2,4.3-13.1,11.4c-1.6,5.7-4.2,11.2-6.7,16.7c-0.7,1.7-2.6,3-4.1,4.2c-6.3,5-11.9,10.1-14.7,18.4
	c-1.8,5.6-6.3,10.3-9.4,15.5c-6.1,10.3-12.2,20.6-17.9,31.1c-6.8,12.4-16.6,21.7-28.8,28.6c-3.3,1.9-6.7,3.9-10.2,5.4
	c-6.2,2.6-11.8,0.3-17.2-2.4c-4.1-2.1-8.1-4.6-12.1-7c-0.8-0.5-1.5-1.2-2.2-1.9c-6.3-6.3-12.9-12.4-18.9-19
	c-4.3-4.9-7.8-10.4-11.7-15.6c-0.6-0.9-1.3-1.7-2-2.5c-0.3,1-0.8,1.9-1,2.8c-1.3,10-2.9,20-3.9,30c-0.8,7.7-1.2,15.4-1,23.1
	c0.3,10.5,0.7,21,4.3,31.2C366,1037.1,366,1040.5,366.5,1044.1 M210.5,875.6c0.3,0.1,0.6,0.1,0.9,0.1c-0.3-0.2-0.6-0.4-0.9-1.1
	c-0.7-3-1.6-6-2-9.1c-1.4-11.1-2.6-22.2-4-33.3c-0.3-1.7-1.1-3.2-1.7-4.8c-0.4,1.6-1.3,3.3-1.2,4.9c0.5,10.7,0.9,21.5,2.1,32.1
	C204.2,868.6,205.3,873.5,210.5,875.6 M224,743.1c1.8-2.4,3.8-4.7,5.5-7.2c5-7.5,10-15.2,15-22.8c2.1-3.1,4.5-6.1,6.7-9.2
	c0.4-0.6,0.2-1.5,0.2-2.3c-0.6,0.3-1.3,0.5-1.7,0.9c-4,4-8.2,7.8-11.9,12c-5.6,6.4-10.9,13.1-16.3,19.7c-4.6,5.7-9.2,11.5-13.7,17.3
	c-0.8,0.9-1,2.2-1.3,3.4c-0.1,0.6,0.1,1.3,0.2,1.9c0.6-0.3,1.3-0.6,1.8-1.1c4.3-5.7,8.6-11.5,13.1-17.1c0.8-1,2.3-1.6,3.4-2.4
	c-0.2,1.2-0.5,2.5-0.8,3.7c-0.2,1.1-0.5,2.2-1.2,3.2c0,0.3,0,0.7-0.1,1C223.1,743.8,223.3,743.4,224,743.1 M248,801.1
	c-2.3,1.4-4.4,3.1-6.9,4c-9.9,3.6-19.3,3.5-27.2-5c-0.4-0.5-1.3-0.6-2-0.8c-0.1,0.7-0.5,1.6-0.4,2.3c0.6,2.2,1.3,4.4,2,6.7
	c4.5,14.6,11.4,27.6,27.3,32.5c7.3,2.2,15.1,3.4,22.7,4.2c6,0.7,12.1,0.3,18.2,0.1c1.7-0.1,3.8-0.8,5.1-1.9c4.7-4,9.6-8,13.6-12.7
	c7.2-8.4,12-18.1,12-29.4c0-7.6-1.2-15.1-1.9-22.7c-0.1-0.7-0.8-1.3-1.2-2c-0.6,0.6-1.2,1.1-1.8,1.7c-1.2,1.3-2.2,2.8-3.4,4
	c-5.3,5.4-12.2,7.8-19.3,8.8c-7.2,1.1-14.8,1.1-19.9-5.9c-1.4-1.9-2.6-3.9-3.9-5.9c-0.6,2.3-1.2,4.5-1.8,6.8c0,0.1-0.2,0.2-0.3,0.4
	c-2.2,5.3-2.2,5.2,3.8,6.9c1,0.3,2.4,2.6,2.2,2.8c-2.9,3.1-5.6,6.6-10.9,4.3C252.7,799.8,250.7,800.8,248,801.1 M194.5,957.6
	c-0.3-1.5-0.6-3-1.1-4.5c-0.1-0.3-1.5-0.5-1.8-0.2c-4.5,4.2-8.6,8.9-13.3,12.8c-4,3.2-8.3,7-13,8.1c-6.1,1.4-11.2,3.7-16.2,7.1
	c-4.3,3.1-4.8,5.7-1.7,9.7c0.7,0.8,1.5,1.7,2.1,2.6c8.6,12.8,17.5,25.4,25.7,38.4c3.1,4.8,7.1,3.4,11,3.3c2.3-0.1,4.5-1.1,6.7-1.8
	c5.1-1.3,7.8-4.7,7.6-10.1c-0.6-11.1-1.2-22.2-2-33.3c-0.4-5.1-1.4-10.2-2-15.2c-0.4-3.4-0.6-6.9-1-10.3
	C195.3,962.4,194.8,960.5,194.5,957.6 M278,736.1c-9.3-7-14.3-16.5-16.1-27.9c-0.2-1-0.9-2-1.4-3.1c-0.7,0.8-1.5,1.6-2,2.5
	c-1.1,2.3-1.6,5.1-3.2,7.1c-5.2,6.6-10.6,12.9-16.1,19.2c-3.6,4.1-7.3,8-11,12c-0.7,0.8-1.5,1.4-2.3,2.1c1.2,0.4,2.3,0.8,3.5,1.1
	c2.7,0.8,5.7,1.1,7.9,2.6c1.9,1.3,2.7,4,4.1,6.1c-2.4-0.1-5,0.3-7.1-0.5c-9.5-3.7-22.1,1.2-26.8,10.8c-0.6,1.3-1,2.7-1.5,4
	c1.6,0,3.3,0.1,4.9,0c0.3,0,0.5-0.5,0.8-0.6c12-3.5,24-7.3,36.2-10.3c13.8-3.4,27.8-6.1,41.7-9.1c0.6-0.1,1.2-0.6,1.5-1.1
	c0.1-0.3-0.3-1.2-0.7-1.4c-3-1.2-5.9-3-9-3.3c-6.2-0.5-12.5-0.5-18.4,2.5c-1.5,0.8-4.3-0.9-6.5-1.4c1.2-1.8,2-4.4,3.7-5.2
	c3-1.6,6.6-1.9,9.7-3.1C272.7,738,276.7,741,278,736.1 M254.5,771.6c-0.6-1.1-1.2-3.3-1.8-3.3c-3.3,0-6.7,0.4-10,1
	c-0.4,0-0.5,1.8-0.7,2.8c9.5,1.5,2.2,4.3,0.4,6.6c-0.7,1-1.3,2.2-2.1,3.1c-2.7,3.1-5.3,5.3-9.4,1.4c-1.5-1.5-3.7-1.5-5.8,0.6
	c-1.4,1.4-4.2,1.4-6.4,2.1c0.7-2.2,1.2-4.4,2.1-6.5c0.6-1.4,1.7-2.6,2.6-3.8c-1.8,0.2-3.6,0.2-5.4,0.6c-1,0.2-1.8,1.2-2.8,1.7
	c-5.3,2.7-6.1,5.5-2.8,10.6c0.4,0.7,0.6,1.4,1.1,2c6.6,7.9,15,13.1,25.6,7.6C249.2,792.8,254.2,784.1,254.5,771.6 M271.5,781.6
	c2.7,0.9,5.3,2.2,8,2.4c7.3,0.6,13.9-2.1,19.8-6.2c6.6-4.7,8.7-10.5,6.2-16.6c-1.5-3.8-7.5-6.1-13.5-5c-1.3,0.2-2.3,1.2-3.5,1.9
	c1.1,0.7,2.1,1.6,3.3,2c2,0.5,4.4,0.2,6,1.2c1.3,0.8,1.8,3.1,2.7,4.7c-1.6,0.4-3.2,1-4.8,1.1c-3.4,0.2-6.9-0.8-9.1,3.3
	c-2.1,3.9-6,4.3-9.6,1.9c-1.5-1.1-3.4-2.1-5.1-2c-2.7,0-4.2-0.8-5.1-3.3c-0.3-0.8-1.4-1.2-2.1-1.9c-0.4,0.9-1.4,2.1-1.1,2.6
	C265.9,772.3,268.5,776.7,271.5,781.6 M213,739.1c8.6-13.9,19.4-26,30.7-37.7c0.6-0.6,1-1.4,1.4-2.1c-0.9,0.1-2,0-2.6,0.5
	c-4.4,3.2-8.5,6.7-13,9.8c-13,9.1-20.1,22-24,37c-0.2,0.8-0.1,1.7-0.2,2.5c1.1-0.5,2.6-0.8,3.1-1.7C210,745,211.2,742.3,213,739.1
	 M281,715.1c5.3,6.7,10.6,13.3,15.9,19.9c0.6,0.7,2,0.8,3,1.1c-0.1-1.1,0.1-2.4-0.5-3.2c-3.1-4.7-6.6-9.2-9.6-14
	c-2.4-3.9-7.2-7.1-4.4-12.9c0.2-0.4-0.9-1.7-1.7-2.1c-3.8-1.6-7.7-3.2-11.6-4.6c-0.7-0.2-1.7,0.3-2.6,0.4c0.4,0.7,0.7,1.4,1.1,2.1
	C273.9,706.1,277.2,710.3,281,715.1 M320.5,756.6c0.7-10.8-1.9-20.5-8.9-29.2c-3.6-4.4-5.9-9.8-9.2-14.5c-1.4-2-3.8-3.3-5.9-4.7
	c-0.6-0.4-1.8,0.1-2.8,0.2c0.3,0.8,0.5,1.7,1,2.4c2,2.7,4.3,5.2,5.9,8.1c4.9,8.6,11.9,15.9,14.3,25.9
	C315.9,749.1,318.2,753.1,320.5,756.6 M177.5,850.6c0,2-0.3,4.1,0.1,6c0.3,1,2,2.5,2.7,2.4c1.6-0.4,2.9-1.6,4.4-2.5
	c-0.6-0.5-1.4-0.9-1.7-1.5c-0.7-1.2-1.7-2.7-1.4-3.8c1.7-6.4,3.6-12.8,5.5-19.2c1.8-5.7,3.7-11.5,5.3-17.2c0.3-1.1-0.3-2.4-0.6-3.7
	c-0.9,1-2.2,1.8-2.6,2.9C185.2,825.9,181.4,837.8,177.5,850.6 M317.5,811.6c-1.6,6-3.4,11.9-4.8,18c-0.9,3.8-3.5,7.5-1.2,11.6
	c0.5,0.8,1.3,1.3,2,1.9c0.6-0.7,1.6-1.4,2-2.3c5-11.7,3.9-24.9,8.9-36.7c0.6-1.4,0.3-3.3,0-4.9c-0.1-1-0.8-2-1.3-2.9
	c-0.6,0.8-1.4,1.6-1.7,2.5C320,802.7,318.8,806.7,317.5,811.6 M273,713.1c-0.8-1.3-1.6-2.7-2.5-3.9c-0.8-1-1.9-1.9-2.8-2.8
	c-0.1,1.4-0.7,3-0.1,4c3.8,6.8,7.7,13.5,11.8,20.1c3.1,4.7,6.6,9.1,12.4,10.6c1.2,0.3,2.3,0.5,3.5,0.7c-0.6-1-0.9-2.3-1.7-3
	C285.7,731.4,278.6,723.3,273,713.1 M314.5,778.6c0.3,2,0.5,4.1,1.1,6c0.2,1,1.2,1.7,1.8,2.5c0.4-0.8,1.2-1.7,1.1-2.6
	c-0.2-6.2-0.6-12.4-1.1-18.6c0-0.9-0.9-1.8-1.5-2.7c-0.8,1-2.3,2-2.3,3C313.7,770,314.2,773.8,314.5,778.6 M334,837.1
	c0.5,0.5,0.9,1.1,1.4,1.4c1.1,0.6,2.2,1.1,3.3,1.6c0.3-1.1,1.1-2.5,0.7-3.4c-1.9-5.1-4-10.2-6.2-15.3c-0.2-0.5-0.9-0.7-1.3-1.1
	c-0.2,0.6-0.4,1.2-0.4,1.8C332.1,827,332.8,831.8,334,837.1 M212.5,850.6c-0.2-0.1-0.5-0.2-0.7-0.2c-0.1,0-0.3,0.2-0.3,0.3
	c1.4,7.4,2.7,14.9,4.4,22.2c0.4,2,2.2,3.7,3.4,5.5c0.3,0.4,1.1,0.5,1.7,0.7c-0.2-0.6-0.3-1.2-0.5-1.8
	C217.8,868.7,215.2,860.2,212.5,850.6 M196.5,835.6c-1,0.9-2.5,1.6-2.9,2.7c-1,2.7-1.5,5.6-2.1,8.5c-0.3,1.4-0.3,2.9-0.5,4.3
	c1.5-1.1,4-2,4.3-3.4C196.2,844.1,196.2,840.3,196.5,835.6 M197.5,785.6c1.5,1.9,3,3.7,4.6,5.5c-0.2-2.3-0.4-4.6-0.6-6.9
	c0-0.5,0.1-1,0-1.4c-0.8-1.9-1.6-3.7-2.4-5.5c-0.8,1.8-1.8,3.7-2.5,5.6C196.3,783.5,196.8,784.4,197.5,785.6 M324,849.1
	c0.7-1.7,1.6-3.3,2-5.1c0.2-0.8-0.5-1.8-0.8-2.7c-0.8,0.4-2.1,0.5-2.4,1.1c-0.9,1.9-1.7,4-2.2,6c-0.3,1.2,0.3,2.5,0.4,3.7
	C321.9,851.3,322.7,850.5,324,849.1 M206,803.1c-0.5-1.8-0.9-3.6-1.5-5.3c0-0.1-1.2,0-1.2,0.1c-0.4,1.9-0.7,3.8-0.7,5.6
	c0,0.6,1.4,1.1,2.1,1.6C205,804.6,205.2,804.1,206,803.1 M218,831.1c-0.8,0.3-1.8,0.5-2.4,1c-0.2,0.2,0.4,1.3,0.6,2
	C217,833.3,217.7,832.5,218,831.1 M300,748.1c0.8-0.1,1.5-0.2,2.3-0.3c-0.8-0.5-1.5-1.1-2.3-1.7C299.7,746.8,299.3,747.5,300,748.1"
	/>
<path d="M207.3,1080.4c-5.9-6.6-11.7-12.7-17.1-19.2c-1-1.2-0.6-3.6-0.9-5.4c2.1,0.3,4.9-0.2,6,0.9c5,5,9.5,10.6,14.2,15.9
	c1.7,1.9,3.6,3.7,5.5,5.5c0.8,0.9,2.1,1.5,2.4,2.5c0.5,2.1,0.5,4.2,0.8,6.4c-1.9-0.5-4.1-0.6-5.7-1.5
	C210.6,1084.3,209.1,1082.3,207.3,1080.4"/>
<path d="M188.8,1076.9c-1.8-2.1-3.7-3.8-4.7-5.9c-0.8-1.5-0.4-3.6-0.6-5.4c2,0.4,4.8,0.1,5.9,1.3c6.1,6.6,11.9,13.6,17.8,20.4
	c1,1.2,2.8,1.7,3.7,2.9c1.1,1.4,1.6,3.1,2.3,4.7c-2.2,0.3-5.5,1.5-6.6,0.5C200.5,1089.6,194.8,1083.3,188.8,1076.9"/>
<path d="M776.5,628.1c4.1-1,7.4-1.6,10.9,0.9c1.1,0.9,3.7,0.7,5.3,0.1c9.1-3.7,17.1,2.2,18.8,12.3c0.5,3.2,0.9,6.4,0.9,9.6
	c0,1.4-1,3.9-1.6,3.9c-1.6,0-4.1-0.7-4.5-1.8c-1.4-3.4-1.9-7.2-2.8-10.8c-0.5-1.9-0.9-4.1-2.1-5.6c-1.1-1.3-3.3-2.6-4.7-2.3
	c-1.3,0.2-3.1,2.7-3,4.1c0.1,4.6,1.1,9.2,1.4,13.8c0.1,1.9-0.5,5.2-1.6,5.6c-2.6,1-5.3,0.2-6-3.6c-1.2-6.1-2.6-12.2-4.1-18.3
	c-0.2-1.1-1.3-1.9-1.9-2.9c-0.7,1-1.8,1.9-1.9,3c-0.8,5.8-1.6,11.7-2,17.6c-0.2,2.9-0.5,4.6-4,4.6c-3.5-0.1-4-1.4-4.2-4.5
	c-0.4-7.7-1.3-15.4-1.8-23.1c-0.1-1.4,0.7-3.9,0.9-3.9C771,627,773.5,627.6,776.5,628.1"/>
<path d="M579.5,586.1c1.1,3.9,1.9,7.4,3.2,10.7c0.6,1.3,2,2.2,3,3.3c0.6-1.3,1.6-2.6,1.7-4c0.3-3.7-0.3-7.4,0.3-11
	c0.3-1.8,2.3-4.5,3.8-4.7c2.4-0.3,3.4,1.9,3,4.6c-0.8,5.8-1.1,11.8-2.1,17.6c-0.7,4.5-6,6.3-9.7,3.1c-2.4-2.2-4.1-5.2-6-7.9
	c-0.9-1.2-1.6-2.4-2.3-3.7c-0.3,1.2-0.5,2.4-0.9,3.5c-1.1,2.8-1.8,6-3.6,8.4c-2.7,3.7-9.1,2.9-10.2-1.5c-1.9-7.3-2.8-14.8-3.7-22.2
	c-0.2-0.9,1.7-2.7,2.8-3c1.9-0.4,4.5-0.9,4.7,2.5c0.3,4.4,0.5,8.7,1.1,13.1c0.2,1.4,1.3,2.8,2,4.2c0.6-1.3,1.5-2.5,1.8-3.9
	c0.6-2.2,0.5-4.5,1.2-6.6c0.7-2.5,1.2-6.2,3-7.2C576,579.5,577.9,583,579.5,586.1"/>
<path d="M843.5,648.1c4.6,1.1,3.1,3.2,0.9,4.5c-10.9,6.3-22.2,5.7-25.9-10c-0.7-3-0.8-6.4-2.2-9c-2.2-4,0.1-5.8,2.9-6.3
	c5.8-1.2,11.7-1.6,17.6-2c1.2-0.1,2.5,1.3,3.7,2c-1.2,1-2.2,2.4-3.6,2.7c-3.3,1-6.8,1.3-10.1,2.2c-1.3,0.4-2.2,2.1-3.3,3.1
	c1.4,0.6,2.7,1.7,4.1,1.8c6.4,0.1,12.9-0.1,19.4,0.1c2.7,0,5.4,0.4,8.1,1c1.1,0.3,2,1.3,3,2.1c-0.9,0.8-1.7,2.1-2.7,2.3
	c-2.5,0.5-5.2,0.5-7.8,0.5c-6.6,0.1-13.3,0.2-20,0c-2.8-0.1-1.7,1.2-1.1,2.3c2.3,4.1,6.7,5.2,12.8,3.5
	C840.5,648.5,841.8,648.4,843.5,648.1"/>
<path d="M579.3,621.9c2-0.4,3.7-0.7,5.5-0.7c7.1,0,9.7,4.4,7.1,11.2c-0.7,1.9,0,4.5,0.1,6.8c0.2,3.5,1.5,7.5,0.3,10.3
	c-2.2,4.9-7.5,5.6-12.3,4.5c-8.1-1.9-8.4-2.6-8.5-11.1c-0.1-3.7-0.5-7.4-1-11C569.9,628.1,573.6,622.4,579.3,621.9 M585,648.1
	c0.3-2,1.3-4.2,0.7-5.9c-0.3-0.9-3.4-1-5.2-0.9c-0.4,0-1,2.3-0.9,3.6C579.6,647.7,581.4,648.5,585,648.1 M584,627.1
	c-4.3,0.9-6.3,4.4-4.5,7.9c0.2,0.3,1.1,0.5,1.3,0.3C583.3,633.2,586,631.1,584,627.1"/>
<path d="M815.3,844.4c2.2,3.2,4.1,6.3,6.3,9.2c0.2,0.2,2.8-0.7,2.8-1.1c-0.1-4.6-0.6-9.1-0.7-13.8c-0.1-1.8,0-4.8,1.1-5.3
	c1.9-1.1,4.7-0.4,5,2.6c0.7,5.9,1.8,11.9,1.3,17.7c-0.3,2.7-3.4,6.3-6,7.2c-4.7,1.5-7.8-2.5-10.6-5.8c-0.5-0.7-0.5-1.9-1.1-2.5
	c-1.2-1.3-2.6-2.3-4-3.5c0.1,1.5,0,3,0.1,4.5c0.3,2.2,1.3,4.5,0.8,6.5c-0.4,2.2-1.8,5.4-3.4,5.8c-3.6,0.9-4.2-2.4-4.4-5.2
	c-0.1-3.5,0.1-7,0-10.5c-0.2-2.7-0.9-5.4-0.9-8.1c-0.1-2.4-1.1-5.1,2.6-6.4c3.2-1.1,5.5-0.7,7.2,1.9
	C812.8,839.7,813.8,842,815.3,844.4"/>
<path d="M690.5,819.1c-4.6-1.7-4.6-5.6-4.9-9c-0.5-5.9-4.8-9.1-10.1-6.9c-0.6,0.3-0.8,1.8-1,2.7c-0.3,2.4,0,5-0.7,7.3
	c-0.4,1.2-2.3,2-3.6,2.9c-0.9-1.2-2.5-2.3-2.6-3.6c-0.5-8.8-0.9-17.7-1-26.6c0-1.2,1.6-2.5,2.5-3.8c1.5,1.2,3.6,2.1,4.2,3.7
	c0.8,1.6-0.1,4,0.3,5.9c0.3,1.6,1.2,3.8,2.4,4.3c2.5,0.9,5.3,0.8,8,1c0.1,0,0.5-1.4,0.5-2.2c0-2.6-0.3-5.3,0.1-7.9
	c0.2-1.4,1.4-3.1,2.6-3.6c2-0.9,3.6,0,3.7,2.7c0,1.7,0.5,3.4,0.6,5.2c0.4,7.7,0.8,15.4,0.9,23.1
	C692.5,815.9,691.5,817.5,690.5,819.1"/>
<path d="M784.5,794.1c2,4.2,3.9,7.9,6.1,11.5c0.4,0.7,1.5,1,2.3,1.5c0.2-0.7,0.6-1.4,0.6-2.1c-0.3-2.9-0.9-5.8-0.9-8.6
	c-0.1-2.2-0.1-5,1.1-6.4c1.1-1.4,3.9-1.3,6-1.9c-0.1,1.6-0.2,3.1-0.2,4.6c0,6,0.2,12-0.1,18c-0.1,1.8-1.1,5.1-1.9,5.2
	c-2.1,0-5.1-0.5-6.4-2c-3.6-3.8-6.5-8.2-9.6-12.4c-0.5-0.8-1-1.6-1.5-2.3c-0.5,0.9-1.4,1.9-1.4,2.9c0.1,2.8,1.1,5.7,0.8,8.5
	c-0.3,2.3-1.3,5.2-3,6.3c-2.5,1.7-5.1-1.3-4.9-5.1c0.3-6.7,0.6-13.4,1.1-20.1c0.1-1.9,0.6-4.9,1.8-5.3c2.6-1,5.6-0.5,7.3,2.4
	C782.6,790.4,783.6,792,784.5,794.1"/>
<path d="M502.5,597.1c-0.3,3.4-0.3,6.4-1.1,9.1c-0.8,2.6-2.6,2.7-3.9,0.1c-0.8-1.8-1.7-3.7-1.9-5.6c-0.2-2.7,0.4-4.9-3.8-4.7
	c-4.2,0.1-4.3,2.1-4.4,5.2c0,2-0.5,4.2-1.6,5.8c-0.3,0.5-3.9,0.2-4.3-0.6c-0.9-1.8-1-4.1-0.9-6.2c0.1-4.9,0.4-9.7,0.9-14.6
	c1-8.2,3.5-10.9,8.7-11.6c4.7-0.5,9.1,3.2,11.2,11.1C502.4,588.8,502.2,592.8,502.5,597.1 M488.5,584.6c0.8,1.5,1.2,3.4,2.4,4.4
	c1,0.9,2.9,0.6,4.4,0.9c-0.6-1.7-1.2-3.3-1.8-5c-0.1-0.5,0-1.1-0.2-1.4c-0.9-1.2-2-2.3-3-3.4C489.7,581.3,489.1,582.5,488.5,584.6"
	/>
<path d="M664.5,733.1c5.4,0,10.4-0.3,15.3,0.2c1.7,0.2,3.1,2.3,4.7,3.6c-1.7,0.7-3.4,2.1-5.1,2.1c-3.1,0-3.9,1.9-3.8,4.1
	c0,3.4,1.2,6.8,0.8,10c-0.7,4.7,1.2,6.5,5.5,7.1c0.9,0.1,1.7,1,2.6,1.6c-0.8,0.8-1.6,2.1-2.5,2.2c-5.7,0.9-11.4,1.5-17.1,2.1
	c-0.7,0.1-1.6,0.3-2,0c-1.5-1.3-2.9-2.7-4.4-4.1c1.5-0.6,3.1-1.9,4.5-1.7c4.4,0.4,6-1.1,5.6-5.6c-0.4-3.4,0-6.9-0.2-10.4
	c0-1.4-0.5-3.6-1.3-3.8c-1.5-0.4-3.4-0.1-4.9,0.6c-2.2,1-4.2,2.6-6.3,4c-0.1-0.8-0.6-1.7-0.3-2.3c1.4-3.4,0.8-8.1,5.4-9.6
	C661.9,732.9,663,733.1,664.5,733.1"/>
<path d="M427.8,575.4c8.5-5.3,17.5-0.1,16.7,10.1c-0.3,3.7-0.2,7.5-1.1,11c-1.3,4.9-6.6,8.8-10.6,8.6c-4-0.1-11.7-5.6-12.2-9.5
	c-0.7-6.1-0.2-12.2,3.5-17.5C424.9,577.1,426.3,576.5,427.8,575.4 M437.5,586.6c-0.1-1.1,0.1-2.3-0.4-3.3c-0.8-1.5-2-2.8-3-4.2
	c-1.6,1.3-4.1,2.2-4.7,3.9c-1.2,3.1-2,6.8-1.6,10.1c0.2,1.8,3,3.4,4.7,5c1.3-1.4,3.1-2.7,3.9-4.5
	C437.2,591.9,437.2,589.7,437.5,586.6"/>
<path d="M474.5,575.1c-2.6,3.1-5.2,5.7-7.7,8.2c-1.9,2-5.3,3.7-0.4,6.4c2.9,1.7,5.5,4.1,7.7,6.7c1,1.3,0.7,3.8,1,5.7
	c-1.6-0.3-3.6,0-4.8-0.8c-2.5-1.7-4.7-3.9-7.1-5.9c-0.9-0.8-2-1.5-3-2.3c-0.6,1.3-1.5,2.5-1.6,3.7c-0.2,2.2,0.2,4.6-3.2,4.3
	c-3.1-0.2-4-2.1-3.9-5c0.1-5.9-0.1-11.9,0.1-17.9c0-1.4,1.1-3.8,1.7-3.8c1.7-0.1,4.4,0.4,5,1.5c2.2,4.2,3.8,1.8,5.9,0.1
	c2.6-2,4.1-7.3,9-3.8C473.9,572.7,474.1,573.8,474.5,575.1"/>
<path d="M625.5,647.1c0.5,3.2-0.2,4.3-3.3,4.1c-2.7-0.1-3.6-0.9-3.8-3.7c-0.3-2.3-1.2-5.4-2.9-6.5c-4.2-2.8-7-0.9-7,4.1
	c0,1.6,0.3,3.4-0.1,4.9c-0.3,1.1-1.9,2.8-2.6,2.7c-1.5-0.2-4.2-1.6-4.1-2.4c0.6-8.2-1-17.1,5.9-23.9c3.3-3.2,7.4-4.2,11.1-3
	c3.3,1,4.8,4.6,4.9,8.6C623.8,636.9,624.8,641.8,625.5,647.1 M616.5,631.6c-0.8-1.1-1.6-2.3-2.4-3.5c-1.5,1.9-3,3.7-4.5,5.5
	C611.9,633.3,614.2,633,616.5,631.6"/>
<path d="M771.3,756.4c1.1,1.2,2.2,2.1,3,3.1c0.8,0.9,1.5,2,2.2,3.1c-1.6,0.2-3.5,0.9-4.8,0.4c-3.6-1.3-7-3.3-10.5-4.8
	c-1.4-0.6-3.3-1.6-2.7,1.6c0.2,1.6,0.4,3.5-0.1,5c-0.4,1-1.9,2.2-2.9,2.2c-1.4,0-3.7-1-3.8-1.8c-1-7.7-1.6-15.4-2.1-23.1
	c0-0.9,1.9-2.8,2.8-2.8c1.4,0,2.8,1.3,4.1,2.2c0.1,0.1-0.1,0.6,0,0.9c0.6,2.3,1.1,4.5,1.7,6.7c2.4-1.8,4.9-3.5,7.2-5.4
	c1.1-1,1.7-2.9,2.9-3.7c1.3-0.8,3.7-1.3,4.7-0.7c1,0.7,1.7,3.8,1.1,4.5c-2.6,2.7-5.8,4.9-8.8,7.3c-0.5,0.4-1.2,0.7-1.8,1
	c0.5,0.6,0.8,1.6,1.4,1.9C766.9,754.8,769,755.4,771.3,756.4"/>
<path d="M663.5,627.1c3.9,1.2,5,3.7,5,7.1c0,0.6,0.6,1.3,0.8,1.9c0.5-0.5,0.9-1,1.3-1.6c1.8-2.4,3.5-4.9,5.3-7.2
	c1.7-2.3,4.2-1.8,6.1-0.8c0.6,0.3,0.3,3.7-0.6,5.1c-1.8,2.8-4.2,5.3-6.6,7.6c-1.9,1.9-1.6,3.1,0.7,3.9c4.2,1.5,8.6,2.6,12.8,4.1
	c1.5,0.5,2.8,1.7,4.2,2.6c-1.4,0.8-2.8,2.3-4,2.2c-4.3-0.4-8.4-1.5-12.7-1.9c-2.4-0.3-5.2-0.2-7.4,0.8c-3.5,1.6-6.5,0.6-6.9-3.3
	c-0.4-5.5-0.8-11.1-0.9-16.6C660.6,629.7,662.2,628.4,663.5,627.1"/>
<path d="M790.3,762.4c2.5,0.4,4.8,0.4,7,0.8c0.8,0.1,1.5,1.1,2.2,1.6c-0.6,0.6-1.1,1.3-1.8,1.6c-3,1.3-5.9,2.8-9,3.7
	c-3.3,0.8-7-3.2-7.1-7.9c-0.3-6.7-0.2-13.3-0.1-20c0.1-3.8,2.7-5.3,6.2-5.3c3.2,0,6.4,0,9.5,0.3c1.2,0.2,2.2,1.3,3.3,2
	c-0.8,1-1.5,2.3-2.5,2.9c-1.9,0.9-4.2,1.2-6.1,2.1c-1,0.6-1.6,2-2.4,3c1.1,0.6,2.2,1.5,3.4,1.9c0.9,0.3,2.1-0.2,3,0.1
	c1.6,0.6,3.1,1.5,4.6,2.2c-1.6,1.3-3,3.2-4.8,3.6C789.5,756.3,789.1,756.5,790.3,762.4"/>
<path d="M722.5,811.1c0,2.6,0.4,5.5-2.8,4.8c-1.3-0.3-2.5-2.8-3.1-4.5c-0.7-2.1-0.4-4.5-1.2-6.5c-0.4-0.9-2.4-1.2-3.6-1.8
	c-0.4,1-1.1,2-1.3,3c-0.4,2.5-0.5,5.1-1,7.6c-0.7,3.5-2.6,3-4.2,0.7c-3.5-5.1-2.6-23.5,3.9-28.1c1.9-1.4,5-1.8,7.4-1.4
	c3.7,0.5,4.6,4,4.8,7.2C722,798.3,722.2,804.5,722.5,811.1 M711.5,793.6c0.7,1.4,1.4,2.9,2.2,4.2c0.1,0.1,1.7-0.4,1.7-0.4
	c-0.3-2.4-0.7-4.7-1.1-7C713.3,791.1,712.4,791.9,711.5,793.6"/>
<path d="M683.5,844.1c0.8-5.1,1.2-9.9,5.6-13.1c4.3-3.2,8.7-2.6,10.3,2.5c1.9,6.2,2.8,12.8,4,19.2c0.2,1.1-0.3,2.6-1,3.6
	c-0.5,0.8-1.6,1.2-2.4,1.8c-0.5-0.7-1.2-1.5-1.5-2.3c-0.5-1.4-0.4-3.4-1.4-4.3c-1.2-1.2-3.2-1.8-4.9-2.2c-0.3-0.1-1.4,1.8-1.6,2.9
	c-0.6,2.1-0.5,4.4-1.3,6.5c-0.3,0.8-2.3,1.5-3.2,1.3c-1.1-0.3-2.4-1.7-2.5-2.7C683.3,853.1,683.5,848.9,683.5,844.1 M692,843.1
	c3.3,0.3,3.6-2.2,3.3-4.2c-0.2-1.4-1.9-2.5-3-3.8c-0.6,1.9-1.3,3.6-1.7,5.5C690.4,841.2,691.2,842,692,843.1"/>
<path d="M790.3,860.9c-5-0.6-1.4-5.2-3.8-7.2c-0.7-0.7-1.1-1.7-1.7-2.6c-1.1,1.1-2.7,1.9-3.2,3.2c-0.5,1.4,0.1,3.3-0.2,4.9
	c-0.1,1-0.8,2-1.3,2.9c-1.5-0.7-4.4-1.4-4.4-2.2c-0.1-7.3-0.4-14.6,0.7-21.8c0.4-2.3,4.4-5.2,7.2-5.7c3.5-0.6,4.9,2.9,6.1,6.2
	c1.8,5.6,4.6,10.9,3.7,16.9C793.1,857.3,791.5,858.9,790.3,860.9 M780.5,844.6c1.2,0.5,2.5,0.9,3.7,1.3c0.1-1.7,0.4-3.5,0.2-5.2
	c-0.1-0.6-1.4-1-2.1-1.6C781.7,840.6,781.1,842.1,780.5,844.6"/>
<path d="M514.3,623.4c-0.8,4.6-4.9,4.2-7.8,4.6c-4.5,0.7-3,3.9-2.8,6c0.1,1.2,2.2,2.4,3.6,3.1c1.6,0.8,3.5,1.1,5.2,1.6
	c-2,1.1-4,2.2-6,3.5c-1.4,0.8-2.7,1.8-4,2.8c1.6,0.4,3.2,0.8,4.8,1.1c0.8,0.2,1.8-0.2,2.5,0.1c1.5,0.6,3,1.5,4.5,2.3
	c-1.2,0.9-2.3,2.4-3.5,2.5c-3.7,0.4-7.6,0.8-11.1-0.1c-1.7-0.5-3.8-3.6-4-5.7c-0.8-6.7-0.9-13.6-1.1-20.5c0-0.8,1.1-2.5,1.7-2.4
	C502.2,622.4,508.1,622.8,514.3,623.4"/>
<path d="M613.3,597.9c0.1,1.2,0.2,2.8,0.8,3.1c1.2,0.5,2.6,0,3.9,0.1c2.2,0.1,4.4,0.4,6.5,0.5c-1.6,1.7-3,3.9-4.9,4.8
	c-2.5,1.1-5.5,1.5-8.3,1.7c-3.7,0.2-5.5-1.9-5.8-5.6c-0.6-5.9-1.4-11.8-1.9-17.7c-0.2-2-0.8-4.4,2.2-5.5c5.2-1.8,11.8-1.5,12.2,1.1
	c0.2,1.7-2.3,3.8-3.8,5.5c-0.7,0.8-1.8,1.2-2.7,1.7c1.1,0.9,2.2,1.8,3.4,2.5c0.3,0.2,1,0,1.4,0.1c1.8,0.3,3.5,0.7,5.2,1
	c-1.5,1.7-3,3.4-4.7,4.9C615.9,596.9,614.6,597.1,613.3,597.9"/>
<path d="M743.3,834.4c3.8,4.6,2.8,9.4-2.9,11.1c-5.3,1.6-7.8,3.6-6.1,9.5c0.5,1.7-0.8,5.3-2.1,5.9c-3.5,1.4-5.4-1.1-5.7-4.5
	c-0.4-6-0.6-12-1-18c-0.4-4.1,2.4-6,5.3-6.1C734.9,832.2,738.9,833.5,743.3,834.4 M737,841.1c0.8-0.5,1.5-1.1,2.3-1.7
	c-1.5-0.4-2.9-0.9-4.4-1.2c-0.4,0-0.9,0.8-1.4,1.2C734.3,840,735.2,840.6,737,841.1"/>
<path d="M512.8,575.9c1.3,2.3,2.2,4.4,3.4,6.4c0.5,0.8,1.4,1.2,2.1,1.8c0.4-0.7,0.8-1.4,1.2-2.1c1.2-2.1,0.2-6.6,4-5.6
	c3.4,0.9,3.5,4.5,2.4,8c-1,3-1.1,6.2-1.4,9.4c-0.2,2.8,0.3,5.7-0.1,8.5c-0.4,2.6,0.5,6.9-4,6.7c-4.2-0.1-4.1-3.9-3.9-6.9
	c0.5-6-0.3-11.1-5.5-15.3c-2.2-1.7-3.8-5.2-4.2-8.1C506.3,574.6,509.4,574.6,512.8,575.9"/>
<path d="M744.8,651.4c-8.6,1.5-12.3,0.2-14.2-4.7c-2.5-6.4-0.4-15,5.3-18.1c2.2-1.2,6-1.2,8.2,0c4.7,2.3,7.3,15.7,4.3,20
	C747.7,649.7,746.2,650.3,744.8,651.4 M742.5,643.6c-0.3-3-0.6-6-1.1-9c-0.1-0.9-0.9-1.6-1.4-2.4c-0.5,0.5-1.6,1-1.6,1.7
	c-0.5,3.4-0.8,6.9-0.8,10.3c0,1,1.5,2,2.3,2.9C740.6,646.1,741.3,645.1,742.5,643.6"/>
<path d="M825.3,792.9c-3.2,0.6-6.3,1-6.7,4.7c-0.6,4.9,0,9.6,4.1,13.1c0.1,0.1,1.6-0.8,1.7-1.4c1.3-7.2,4.2-9.5,10.9-8
	c1.2,0.2,2.1,1.9,3.2,3c-1,0.9-1.9,2.6-3,2.7c-3.7,0.2-5.1,1.9-6.2,5.5c-1.7,5.3-9.6,5.6-13.1,0.7c-5.2-7.1-5.9-14.2-1.7-22.2
	c1.9-3.6,5-4.4,8.6-3.8C826.7,787.7,825.2,790.6,825.3,792.9"/>
<path d="M472.8,645.9c2.5,2.5,4,3.1,3.7-1.2c-0.3-3.9,2.7-4.4,5.4-4.5c2.5-0.1,5.1,0.4,7.6,0.6c-1.5,2.1-2.8,4.3-4.4,6.2
	c-1.6,1.8-3.2,4.3-5.3,5c-8,2.7-17.3-3.6-15.1-14.4c1-4.7,4-9.2,7.2-12.8c1.3-1.5,5.7-0.6,8.5,0c0.8,0.2,2.3,4-0.8,4.2
	c-4.3,0.2-7,1.4-7.3,5.9c-0.2,3.4,0.1,6.8,0.2,10.2C472.5,645.3,472.5,645.5,472.8,645.9"/>
<path d="M729.8,626.9c1,0.7,1.8,1.2,2.6,1.7c-0.9,0.8-1.8,2.4-2.7,2.4c-7.3-0.1-8.3,3.3-6.3,9.5c0.9,2.8,0.9,6,1.1,9
	c0.1,2,0.6,4.2-2.7,4.7c-3.4,0.6-4.6-1.5-5.2-3.8c-0.8-3.1-1.3-6.4-1-9.5c0.6-5.5-2.2-7.7-6.9-8.7c-0.8-0.2-1.8,0.2-2.5-0.1
	c-1.3-0.6-2.5-1.4-3.7-2.1c1.2-1,2.4-2.7,3.7-2.7C713.9,626.9,721.7,626.8,729.8,626.9"/>
<path d="M526.5,643.1c0.3-2.5,0.7-4.5,1-6.5c0.4-3.3-1-5.1-4.1-6.2c-1.8-0.6-3.3-2.1-4.9-3.2c1.8-1,3.6-2.9,5.4-2.9
	c5.3-0.1,10.7,0.3,16,1c1.3,0.2,2.4,2.4,3.6,3.7c-1.4,0.7-2.8,2-4.2,2c-3.6,0.2-4.8,1.9-4.9,5.3c-0.1,4.7-0.4,9.4-1.1,14.1
	c-0.1,1.1-2.2,2.6-3.4,2.5c-1.2,0-2.9-1.6-3.2-2.8C526.1,648.1,526.5,645.8,526.5,643.1"/>
<path d="M662.5,609.1c-4.2,0.5-6.6-1.4-8-4.5c-3.4-7.8-2.1-15.9-1-23.9c0.2-0.9,1.2-2.5,1.7-2.4c1.5,0.1,3.3,0.5,4.2,1.5
	c0.9,1.1,1,3,1.1,4.5c0.1,4.3,0.1,8.6,0,12.9c-0.2,3.8,1.6,4.6,4.8,3.6c0.1,0,0.3-0.3,0.4-0.3c2.2,0.3,4.4,0.7,6.7,1
	c-1.4,1.9-2.6,4.1-4.3,5.5C666.8,608.2,664.7,608.5,662.5,609.1"/>
<path d="M729.8,798.9c-0.8-3.1-1.5-5.8-1.6-8.7c0-1.3,1.2-2.7,1.8-4.1c1.5,0.8,4,1.3,4.3,2.5c1.2,3.5,1.4,7.4,2.3,11
	c0.4,1.6,1.5,3,2.4,4.5c0.5-1.4,1.1-2.8,1.5-4.3c0.4-2.1,0.2-4.6,1.2-6.4c0.8-1.5,3-2.2,4.6-3.3c0.7,1.4,2.4,3.1,2.1,4.2
	c-1.7,5.7-3.5,11.5-6.1,16.9c-1.1,2.3-4.6,3.6-6.6,0.5C733.4,807.8,731.9,803.3,729.8,798.9"/>
<path d="M717.5,767.1c-5.6-1.7-8.7-4.7-8.1-10.7c0.6-5.5,0.8-11,1.1-16.6c0.2-2.6,1.2-3.8,4.2-3.8c3.2,0.1,3.8,1.9,3.7,4.2
	c-0.1,5.8-0.5,11.7-0.9,17.6c-0.2,3,1.6,3.9,4,3.2c2.1-0.6,4.6-1.8,4.7,1.1c0,1.6-2.9,3.5-4.8,4.9
	C720.7,767.6,719.2,767.1,717.5,767.1"/>
<path d="M638.5,594.1c-0.7,5.1,0.3,7.9,5.9,7.2c1.6-0.2,3.4,1.3,5.1,2.1c-1.8,1.6-3.3,4.1-5.3,4.6c-9.1,2-13.9-2.2-13.6-11.8
	c0.1-4.4,1-8.8,2-13.1c0.3-1.2,2.1-2.4,3.4-2.8c0.6-0.1,2.5,1.6,2.6,2.6C638.9,586.5,638.6,590.1,638.5,594.1"/>
<path d="M761.5,855.1c2.3,0.3,4.2,0.6,6,0.8c-1.6,1.8-3,4.4-4.9,5c-2.8,0.8-7.3,1.2-8.6-0.4c-2-2.3-2.3-6.4-2.4-9.8
	c-0.1-4.5,0.7-9,0.8-13.5c0.1-2.8,0.2-5.8,3.5-5.9c3.7-0.1,3.7,3.2,3.6,6.1c-0.1,5.2-0.1,10.3,0.1,15.5
	C759.6,853.6,760.5,854.4,761.5,855.1"/>
<path d="M636.8,647.9c-5.5-7.2-2.9-15.6,3.3-18.6c2.1-1,5.2-0.9,7.6-0.2c1.5,0.4,2.6,2.7,3.8,4.1c-1.5,0.3-3,1-4.4,0.9
	c-2.7-0.3-4.8,0.5-5,3.1c-0.2,2.3,0.5,4.8,1.2,7.1c0.1,0.3,2.4-0.2,3.6-0.1c1.9,0.3,3.7,0.8,5.6,1.1c-1.2,1.6-2.1,4-3.7,4.7
	C644.7,651.6,640.6,650.7,636.8,647.9"/>
<path d="M739.8,741.9c0.4,7.4,0.6,14.5,0.7,21.7c0,0.8-1.2,2.4-1.7,2.4c-1.4-0.1-3-0.7-4.2-1.5c-0.7-0.4-1-1.6-1.1-2.5
	c-0.4-6.2-0.8-12.4-0.9-18.5c0-1.3,1.6-3.2,2.9-3.5C736.5,739.6,738.1,741,739.8,741.9"/>
<path d="M761.8,805.9c0.4,1.8,0.8,3.5,0.6,5c-0.2,1.5-1,2.8-1.6,4.2c-1.4-0.8-3.7-1.4-4.1-2.6c-1.2-3.1-1.8-6.4-2.1-9.6
	c-0.4-3.8-0.2-7.7,0-11.5c0-1.1,0.9-2.2,1.5-3.3c1.4,0.9,4.1,1.5,4.2,2.5C761.1,795.6,761.2,800.6,761.8,805.9"/>
<path d="M681.5,609.1c0-2.8-0.4-5.2,0.1-7.4c0.4-1.4,2.1-3.3,3.3-3.3c1.1-0.1,3.4,1.9,3.4,3c-0.1,5.2-0.7,10.5-1.5,15.8
	c-0.1,0.8-2.1,2-2.9,1.8c-1-0.3-2.1-1.8-2.3-2.9C681.2,614,681.5,611.8,681.5,609.1"/>
<path d="M538.5,600.1c2.6,3.3,1.8,10.8-1.1,12.4c-1,0.6-4.1-0.1-4.1-0.3c-0.1-3.2-0.2-6.5,0.5-9.6
	C534.1,601.5,536.5,600.9,538.5,600.1"/>
<path d="M871.5,646.1c0.6,4.7-2.2,5.3-5.2,4.9c-1-0.1-2.6-1.9-2.6-2.9s1.5-2.6,2.6-2.8C867.9,644.9,869.8,645.5,871.5,646.1"/>
<path d="M849.5,860.1c-1.8,0.7-3.6,1.1-5.4,1c-0.6-0.1-1.7-1.8-1.5-2.1c0.9-1.3,1.9-3,3.2-3.5C849.8,854.1,849.5,857.1,849.5,860.1"
	/>
<path d="M575.5,400.1c0.3,4.4,0.5,8.3,1.1,12.1c0.2,1.4,1.2,2.6,1.9,3.9c0.6-1.2,1.8-2.5,1.9-3.8c0.6-4.8,0.6-9.7,1.2-14.5
	c0.1-1.3,1.4-2.5,2.2-3.7c1.2,0.9,3.2,1.5,3.7,2.7c1,2.5,1.2,5.5,2,8.1c1.4,4.1,2.9,8.2,4.5,12.2c0.2,0.5,1.8,1.1,1.9,1
	c0.7-0.9,1.5-1.9,1.5-2.8c0-4.1-0.1-8.2-0.6-12.3c-0.2-2.1-1-4.2,2-4.8c2.6-0.6,4.5,0.4,4.6,3.1c0.2,5.3,1,10.7-0.2,15.6
	c-0.7,2.8-4.5,6.4-7.3,6.9c-3.5,0.5-7.8-1.2-8.6-6.3c-0.1-0.8-1.2-1.6-1.9-2.4c-0.6,0.9-1.3,1.7-1.8,2.5c-1.4,1.9-2.3,4.3-4,5.8
	c-3.2,2.6-8.4,0.1-9-4.4c-0.9-7-1.5-14.1-2-21.1c-0.1-1.2,0.9-2.5,1.4-3.8c1.9,1,3.8,1.9,5.4,3.1
	C575.8,397.5,575.5,398.8,575.5,400.1"/>
<path d="M521.5,416.1c-0.7,2.8,1.7,6.7-2.4,6.9c-3.7,0.1-5.6-2.8-5.6-6.7c0-5.5-0.2-11,0.1-16.5c0.2-1.9,1.8-3.8,2.7-5.7
	c1.8,0.9,4.3,1.3,5.2,2.8c2.8,4.4,4.8,9.3,7.2,13.9c0.7,1.3,2,2.2,3,3.3c0.3-1.3,0.8-2.6,0.8-4c-0.2-3.5-1.1-7-0.8-10.5
	c0.1-1.6,2-4,3.3-4.2c2.3-0.4,3.6,1.2,3.6,4.1c0,5.5,0.9,11,0.8,16.5c-0.1,2.7-1.5,5.4-2.3,8c-2.5-1.1-5.3-1.8-7.4-3.4
	c-2-1.4-3.5-3.8-5-5.8c-0.8-1.1-1.2-2.4-1.8-3.6C522.4,412.7,522,414.2,521.5,416.1"/>
<path d="M501.3,374.9c-7.1,1-10.1-1.9-10-9.3c0.1-6.3-1-12.7-1.9-19.1c-0.5-3.7,1.6-3.9,4-3.3c3.7,0.9,7.4,2.1,11,3.4
	c8.8,3.4,11.3,9.4,8.6,18.7C511.2,371.3,506,372.4,501.3,374.9 M507.5,362.6c0.7-4.6-0.4-8.4-5.2-10.1c-2.1-0.8-4.2-1.1-3.8,2.5
	s0.5,7.3,1.1,11c0.2,0.6,2.6,1.5,3.2,1.2C504.4,366.2,505.6,364.5,507.5,362.6"/>
<path d="M498.5,410.1c2.5,1.7,5.1,2.7,7.5,4.1c0.8,0.5,1.2,1.8,1.4,2.8c0,0.2-1.3,1-2,1.1c-1.7,0.2-3.6,0.6-5-0.1
	c-3.5-1.6-5.8-1.6-7.1,2.7c-0.3,0.8-2.7,1.6-3.7,1.3c-1.3-0.5-2.7-2-3-3.3c-0.9-4.9-1.5-9.8-2.1-14.7c-0.4-3.3-0.8-6.7-0.9-10.1
	c0-1.2,0.9-2.5,1.4-3.8c1.8,1,4.4,1.6,5.3,3.1c1.1,1.9,0.9,4.6,1.2,7c0.1,0.6,0.3,1.2,0.4,1.8c0.5-0.4,0.9-0.8,1.4-1.1
	c4.1-2.6,8.1-5.3,12.3-7.7c0.9-0.5,2.4,0.1,3.6,0.1c-0.3,1.5,0,3.4-0.9,4.4c-1.9,2-4.4,3.7-6.7,5.4
	C499.4,404.8,496.7,406.1,498.5,410.1"/>
<path d="M545.5,373.1c0-7.5-0.2-14.5,0.3-21.5c0.1-1.6,2.7-4.4,3.8-4.2c2.2,0.4,4.8,1.9,6.1,3.7c1.6,2.2,1.8,5.3,2.9,7.8
	c0.5,1.2,1.7,2.1,2.6,3.1c0.4-1.5,0.9-3,1.1-4.5c0.1-0.6-0.8-1.4-0.7-2.1c0.1-1.4,0.6-2.8,0.9-4.3c1.5,1.1,4.1,1.9,4.4,3.2
	c1.3,5.2,2.1,10.6,2.5,16c0.2,3.2-2.8,4.8-5.5,2.7c-2.5-1.9-4.3-4.7-6.4-7.2c-0.9-1.1-1.8-2.3-2.7-3.4c-0.4,1.3-1.1,2.6-1.2,3.9
	c-0.3,1.7,0.2,3.4-0.2,5c-0.5,1.7-1.5,4.4-2.6,4.6C549.2,376.1,547.3,374.5,545.5,373.1"/>
<path d="M537.3,354.4c0.2,4.6,1.3,9.4-0.1,13.3c-1.3,3.3-4.9,6.8-8.3,8.1c-3.8,1.5-8.1-0.4-10.4-4.7c-2.9-5.5,0.1-18.9,5.1-22.6
	C528,345.3,533.4,347.6,537.3,354.4 M524.5,366.6c0.6,1.2,1.2,2.4,1.8,3.5c1.1-0.5,2.7-0.8,3.1-1.7c2.2-4.3,3-8.9,1.1-13.5
	c-1-2.3-3.1-2.5-3.8-0.2C525.5,358.2,525.2,362,524.5,366.6"/>
<path d="M563.3,405.4c0.2,2.6,0.2,4.9,0.2,7.2c0,6-2.2,8.8-7.6,9.5c-4.6,0.7-11.8-3.6-12.3-7.8c-0.4-3.7-0.4-7.7,0.6-11.2
	c2-6.3,5.9-8.6,11.4-7.9C561.6,395.8,561.8,400.9,563.3,405.4 M549.5,409.6c0.3,1.2,0.4,2.7,1.1,3.5c1,1.3,2.4,2.4,3.9,2.9
	c0.5,0.1,2.4-1.9,2.4-2.9c0-3.7-0.3-7.4-1.1-11c-0.3-1.3-2.3-3.4-3.3,0.2C551.8,404.6,550.8,406.8,549.5,409.6"/>
<path d="M601.5,370.1c0,1.2,0.2,1.9,0,2.5c-0.7,1.9-1.6,3.7-2.4,5.5c-1.5-1.8-3.9-3.4-4.4-5.4c-1-4.1-1-8.3-1.1-12.5
	c-0.2-3.6-1.2-6.1-5-7.1c-1.5-0.4-3.2-1.3-3.9-2.5c-0.5-1-1.4-3.5,2-3.5c6.2-0.1,12.4-0.7,18.5-0.9c1.7,0,3.5,0.5,5,1.3
	c0.7,0.4,1.4,2,1.2,2.8c-0.2,0.8-1.5,1.6-2.5,1.8c-2.6,0.5-7.5,0.3-7.6,1.2c-0.8,3.9-0.3,8-0.1,12
	C601.2,366.7,601.4,368.2,601.5,370.1"/>
<path d="M460.5,350.1c0.4-2.5-1.2-5.5,2.4-5.9c3.3-0.4,4.4,1.6,4.7,4.8c0.4,6.5,1.5,13.1,1.7,19.6c0.1,1.8-1.7,3.7-2.7,5.5
	c-1.7-1.8-4.6-3.4-4.9-5.4C460.8,362.8,460.8,356.7,460.5,350.1"/>
<path d="M579.8,342.9c0.7,4.9,1.3,9.5,1.6,14.1c0.1,1-0.5,2.9-1.1,3c-1.1,0.1-2.8-0.3-3.4-1.1c-3.5-4.8-4.1-10.5-3.2-16
	C574.3,339.9,577.4,340.4,579.8,342.9"/>
<path d="M625.5,427.1c-1.3-0.4-2.5-0.7-2.8-1.4c-0.6-1.3-1-2.9-0.7-4.3c0.1-0.5,2.4-1.3,3.1-0.9c1.1,0.6,2.1,2.1,2.3,3.3
	C627.5,424.8,626.5,426,625.5,427.1"/>
<path d="M283.5,804.1c5.7,1.3,8.3,5.6,6.6,10c-2.3,5.5-13.5,12.5-19.5,12c-0.7,0-1.4-0.4-2.1-0.6c0.4-0.7,0.6-1.6,1.2-2
	c3.4-2.2,7-4.1,10.3-6.5c1.4-1,2.3-2.9,3.4-4.4c-1.7-0.2-3.6-0.8-5.2-0.4c-4.8,1.4-9.4,3.2-14.1,4.8c-3.9,1.4-7.8,3-11.8,4
	c-1,0.3-3.7-1.5-3.6-1.8c0.4-1.8,1.1-4.3,2.4-4.9c8.4-3.6,17.1-6.9,25.8-10.1C278.7,803.6,280.9,804.1,283.5,804.1"/>
<path d="M570.5,188.6c-3.2,4.4-2.7,6.5,2.2,9c2.2,1.1,4.7,1.8,6.7,3.1c1,0.7,1.4,2.5,2.1,3.7c-1,0.4-2,1.2-3.1,1.2
	c-6.6,0.1-11.3-3.7-15.6-8.1c-0.5-0.6-1.1-1.2-1.6-1.9c-0.2,0.9-0.6,1.8-0.7,2.6c-0.1,1.2,0.3,2.4-0.1,3.5c-0.4,1.4-1.2,2.6-1.9,3.9
	c-1.6-0.9-4.6-1.7-4.8-2.9c-1.1-6.1-1.5-12.4-2.2-18.6c0-0.2,0-0.3,0-0.5c0.6-2.1,9.4-6.4,12.2-6c4,0.7,7.8,4.7,7.8,8.5
	C571.4,186.8,570.8,187.4,570.5,188.6 M563.5,189.1c0.3-1,0.9-2,0.9-3c0.1-0.8-0.5-1.6-0.7-2.5c-0.9,0.3-2.4,0.6-2.5,1
	c-0.3,2-0.2,4-0.2,6C561.6,190.3,562.3,190,563.5,189.1"/>
<path d="M677.4,234.4c-2.9,4.4-2.4,6.5,2,9c2,1.1,4.2,1.8,6,3.1c0.9,0.7,1.3,2.5,1.9,3.7c-0.9,0.4-1.8,1.2-2.8,1.2
	c-5.9,0.1-10.1-3.7-14-8.1c-0.4-0.6-1-1.2-1.4-1.9c-0.2,0.9-0.5,1.8-0.6,2.6c-0.1,1.2,0.3,2.4-0.1,3.5c-0.4,1.4-1.1,2.6-1.7,3.9
	c-1.4-0.9-4.1-1.7-4.3-2.9c-1-6.1-1.3-12.4-2-18.6c0-0.2,0-0.3,0-0.5c0.5-2.1,8.4-6.4,10.9-6c3.6,0.7,7,4.7,7,8.5
	C678.2,232.6,677.7,233.2,677.4,234.4 M671.2,234.9c0.3-1,0.8-2,0.8-3c0.1-0.8-0.4-1.6-0.6-2.5c-0.8,0.3-2.2,0.6-2.2,1
	c-0.3,2-0.2,4-0.2,6C669.5,236.1,670.1,235.8,671.2,234.9"/>
</svg>
