<?xml version="1.0" encoding="utf-8"?>
<!-- Generator: Adobe Illustrator 23.1.0, SVG Export Plug-In . SVG Version: 6.00 Build 0)  -->
<svg version="1.1" id="Layer_1" xmlns="http://www.w3.org/2000/svg" xmlns:xlink="http://www.w3.org/1999/xlink" x="0px" y="0px"
	 viewBox="0 0 54.3 54.3" style="enable-background:new 0 0 54.3 54.3;" xml:space="preserve">
<style type="text/css">
	.st0{fill:#FFFFFF;}
</style>
<g>
	<path d="M48.3,12.6c1.8-1.8,3.8-3.7,5.8-5.7c0.1-0.1,0.3-0.2,0.3-0.3c1.3-2.2,3.3-1.6,5.3-1.4c2,0.3,4,0.7,6,1.1
		c0.4,0.1,1,0.5,1,0.8c0.5,3.2,1,6.3,1.4,9.5c0.8,6.2,1.5,12.3,2.3,18.5c0.2,1.9,0.2,3.8,0.5,5.6c0.4,3.2-0.5,6.2-1.6,9.1
		c-0.3,0.8-0.7,1.5-1,2.3c-0.5,1.2-1.4,1.7-2.6,1.6c-2,0-3.9,0-5.9,0c-0.9,0-1.9-0.8-2-1.7c-0.3-1.8-0.6-3.5-1-5.3
		c-0.1-0.4-0.5-0.8-0.8-0.9c-0.4-0.1-1.1,0-1.4,0.3C53.7,47,53,48,52.3,49c-1.1,1.3-2.5,2.1-4.2,2.3C46,51.5,44,51.8,41.9,52
		c-0.2,0-0.5,0-0.7,0c-1.7,0-2.4-0.7-2-2.4c0.6-2.7,1.1-5.5,1.8-8.2c0.6-2.6,1.4-5.1,2.1-7.6c0.9-3.3,1.8-6.7,2.7-10.1
		c-1.9,1.9-3.6,3.8-5,6.1c-2.6,4.2-6,7.7-11.1,8.8c-0.7,0.1-0.9,0.5-1,1.2c-0.1,1.3-0.2,2.6-0.3,3.9c-0.2,2.2-1.4,3.9-2.5,5.7
		c-0.7,1.1-1.4,2.2-2.1,3.2c-0.2,0.3-0.7,0.5-1,0.5c-3.1,0.1-5.9,0.2-8.8,0.2c-1,0-1.5-0.6-1.5-1.8c0-1.3,0.1-2.6,0-4
		c0-0.7-0.2-1.4-0.3-2.1c0-0.2-0.1-0.4,0-0.6c0.2-1.3,0.5-2.6,0.6-4c0.3-2.7,0.8-5.4,0.9-8.1c0.1-2.2,0.3-4.5,0.9-6.6V26
		c-0.9-1.7,0.5-3.2,0.4-4.8c0-1.7,0.3-3.5,0.4-5.2c0-0.5-0.2-0.9-0.3-1.4c0-0.2-0.2-0.4-0.1-0.5c0.9-1.6,0.3-3.3,0.7-4.9
		c0.1-0.6,0.5-1.2,0.9-1.6c2.2-1.9,4.4-3.8,6.8-5.5c0.7-0.5,1.9-0.6,2.8-0.5c2.1,0.1,4.3,0.4,6.3,0.8c2.7,0.5,5.4,1.1,8,1.9
		c2.6,0.8,4.2,2.9,5.7,5C47.1,10.4,47.7,11.6,48.3,12.6z M20.5,44.3c1.9,0,3.6,0,5.3,0c0.2,0,0.6-0.4,0.7-0.7
		c0.2-0.9,0.4-1.8,0.4-2.7c0.2-3.4,0.4-6.8,0.7-10.2c0.1-1,0.7-1.4,1.7-1.2c0.5,0.2,1,0.3,1.6,0.3c3.4,0,6.5-1,9.3-2.9
		c0.8-0.6,1.4-1.4,2.2-2c2.2-1.6,3.7-3.7,4.2-6.3c0.7-3,0.5-5.9-1.6-8.4c-0.5-0.6-1-1.1-1.4-1.7c-1.2-1.6-2.7-2.7-4.6-3.1
		c-2.5-0.6-5-1.2-7.5-1.6c-1.4-0.3-2.8-0.3-4.3-0.4c-0.5,0-1.3,0.2-1.4,0.6c-0.4,1.1-0.8,2.2-0.9,3.4c-0.6,4.4-1.2,8.8-1.8,13.2
		c-0.8,6.4-1.5,12.7-2.3,19.1C20.7,41.2,20.6,42.7,20.5,44.3z M50.2,43.4c1.2-0.1,2.1-0.1,3.1-0.3c0.6-0.1,1.1-0.5,1.1-1.2
		c0.3-2.5,0.6-4.9,0.9-7.4c0.1-1.5,0.8-1.9,2.2-1.4c0.7,0.3,1.5,0.2,2.2,0.3c0.6,0,1.2-0.1,1.8-0.1c0.9,0,1.4,0.5,1.5,1.4
		c0.3,2.8,0.7,5.5,1.1,8.3c0,0.3,0.3,0.8,0.4,0.8c1.3,0,2.5,0,3.8-0.1c0.9,0,1-0.7,1-1.4c0-1.1-0.1-2.3-0.2-3.4
		c-0.8-6.6-1.5-13.1-2.4-19.6c-0.5-3.6-1.1-7.1-1.8-10.7c-0.1-0.3-0.3-0.8-0.6-0.8C62.5,7.4,60.8,7,59,6.7c-1.6-0.3-1.9,0-2.3,1.4
		C56.2,10,56,12,55.4,13.9c-0.9,3.4-1.4,6.8-2.1,10.3c-1,4.9-2.5,9.7-2.8,14.7C50.6,40.3,50.4,41.7,50.2,43.4z M68.8,45.5
		c-1.5,0-2.9,0-4.3,0c-0.3,0-0.7,0.2-0.8,0.5c-1,2-2,4.1-3.2,6.3c1.2,0.1,2.2,0.1,3.2,0.2c1.9,0.3,3.1-0.4,3.7-2.3
		C67.9,48.7,68.8,47.2,68.8,45.5z M25.8,46.2c-2.2,0-4.4,0-6.5,0c-0.2,0-0.3,0.2-0.5,0.4c-1,1.7-2,3.3-3.1,5
		c1.9,0.6,3.9,0.3,5.8,0.1c0.2,0,0.5-0.1,0.7-0.3C23.6,49.8,25,48.2,25.8,46.2z M39.2,29.5c-0.2,0-0.3-0.1-0.4-0.1
		c-2.8,1.3-5.8,2.2-9,2c-0.2,0-0.6,0.3-0.6,0.5c-0.1,1.8-0.2,3.5-0.3,5.5C33.7,36.3,36.5,33.2,39.2,29.5z M42.4,50.7
		c2.4-0.4,4.7-0.3,6.5-1.2s3.1-2.9,4.6-4.4c-1.5,0-2.7,0.2-3.9-0.1c-0.8-0.1-1.2,0.1-1.7,0.5c-1.6,1.4-3.2,2.8-4.8,4.3
		C43,50,42.8,50.2,42.4,50.7z M55.7,44.4c0.8,0.3,1.5,0.1,1.9-0.8c1.2-2.8,2.3-5.6,3.5-8.6c-1.3,0-2.4,0-3.6,0
		c-0.2,0-0.5,0.3-0.5,0.5c-0.2,1-0.4,2-0.5,3C56.1,40.5,55.9,42.4,55.7,44.4z M14.6,50.2c2.6-3.3,5-7.5,4.5-10
		c-1.4,1.3-2.9,2.6-4.3,4c-0.1,0.1-0.2,0.4-0.2,0.6C14.6,46.5,14.6,48.3,14.6,50.2z M24.1,4c-0.1-0.1-0.2-0.1-0.3-0.2
		c-1.7,1.3-3.3,2.7-5,4c-1.4,1.1-1.4,2.6-1.4,4.3c0.4-0.3,0.6-0.4,0.8-0.5c1.6-1.5,3.2-3.1,4.8-4.5C23.9,6.1,23.9,5,24.1,4z
		 M55.3,8.1c-3.2,1.6-6,6-6.1,9.4c1.4-1.5,2.6-3,4-4.3C54.8,11.7,54.9,9.9,55.3,8.1z M23.2,9.1C23.1,9,23,9,22.9,8.9
		c-0.3,0.3-0.6,0.5-0.8,0.8c-1.2,1.1-2.2,2.2-3.5,3.1c-1.4,0.9-1.4,2.1-1.3,3.5c0.1,0,0.1,0,0.2,0c1.7-1.3,3.4-2.5,5.1-3.8
		c0.1-0.1,0.2-0.4,0.2-0.6C22.9,11,23,10,23.2,9.1z M16.8,21.5c1.7-1.5,3.3-2.9,5.2-4.6c0.1-0.6,0.2-1.6,0.3-2.6
		c-0.1-0.1-0.2-0.1-0.3-0.2c-1.5,1.4-3,2.8-4.4,4.2C16.8,19.2,16.6,20.2,16.8,21.5z M43.5,39.8c1.9-1.8,3.8-3.6,5.6-5.5
		c0.6-0.6,0.8-1.6,1.2-2.3c-0.1,0-0.2-0.1-0.3-0.1c-1.4,1.3-2.8,2.6-4.4,3.7C44.3,36.5,43.5,37.9,43.5,39.8z M44.7,33.7
		c0.2,0.1,0.3,0.2,0.5,0.3c1.7-1.7,3.3-3.4,5-5.1c0.8-0.8,1.2-1.7,1.3-3c-0.2,0.1-0.5,0.2-0.6,0.4c-1.7,1.7-3.5,3.5-5.1,5.3
		C45.2,32.2,45,33,44.7,33.7z M21.6,19.6c-0.1,0-0.1-0.1-0.2-0.1c-1,1-2,2-3.1,2.9c-1.4,1-2.2,2.3-1.9,4.1c0.1,0,0.2-0.1,0.3-0.1
		c1.5-1.3,2.9-2.6,4.4-3.9c0.1-0.1,0.2-0.4,0.2-0.6C21.4,21.1,21.5,20.4,21.6,19.6z M40.9,49.4c0.1,0,0.1,0.1,0.2,0.1
		c0.2-0.1,0.4-0.2,0.6-0.4c1.9-1.7,3.8-3.4,5.7-5.2c0.8-0.8,1.9-1.5,1.5-2.9c-2.3,2.1-4.7,4.2-7,6.4C41.3,48,41.2,48.8,40.9,49.4z
		 M41.9,45.2c2.3-1.9,4.4-3.9,6-6.3c0.3-0.4,0.8-0.7,1.3-1.2c0-0.1,0-0.5,0-1c-2.1,1.9-4.1,3.7-6.1,5.5C42.4,43,41.8,43.9,41.9,45.2
		z M15.7,31.8c0.7-0.6,1.2-1,1.7-1.5c0.8-0.9,1.6-1.9,2.5-2.8c0.9-0.9,1.1-1.3,0.9-2.5c-1.3,1-2.5,2.3-3.9,3.3
		C15.8,29.2,15.6,30.3,15.7,31.8z M46.4,27.9c1.8-1.4,3.7-2.8,5.5-4.2c0.1-0.1,0.1-0.2,0.1-0.3c0.2-0.8,0.3-1.7,0.5-2.5
		c-0.1-0.1-0.3-0.2-0.4-0.3c-1.3,1.4-2.6,2.7-3.8,4.2C47.5,25.8,46.3,26.5,46.4,27.9z M20.1,34.9c-0.2-0.1-0.3-0.2-0.5-0.3
		c-1.5,1.5-3.1,2.9-4.5,4.5c-0.4,0.5-0.3,1.4-0.4,2.2c0.1,0,0.3,0.1,0.4,0.1c1.3-1.4,2.6-2.7,3.7-4.2C19.4,36.6,19.7,35.7,20.1,34.9
		z M61.6,37.1c-1.1,3.2-2.2,6.1-3.3,9.1c0.1,0,0.2,0.1,0.3,0.1C60.4,43.6,63,41.2,61.6,37.1z M20.2,30.1c-1.2,1-2.4,2-3.5,3
		c-0.8,0.8-1.6,1.7-1.5,3.4c1.5-1.5,2.8-3,4.2-4.2C20.2,31.6,20.4,31,20.2,30.1z M53.5,15.4c-0.2,0.1-0.3,0.1-0.3,0.2
		c-1.2,1.4-2.3,2.9-3.5,4.3c-0.2,0.2-0.3,0.5-0.5,0.7c-1.2,0.8-1.3,1-1.4,2.6c1.7-1.8,3.2-3.5,4.8-5.2
		C53.3,17.1,53.5,16.4,53.5,15.4z M59.4,50.9c1.1-2.5,2.9-4.5,3.3-7.4c-1.1,1.6-2,3-3,4.3C58.9,48.8,58.7,49.7,59.4,50.9z"/>
	<path d="M38.9,15c0.5,3-2.3,6.2-5,7.1c-1.4,0.4-2.8,0.8-4.3,0.4c-1-0.3-1.3-0.8-1.2-1.8c0.1-1.6,0-3.3,0.2-5
		c0.2-1.9,0.6-3.8,0.9-5.7c0.1-0.6,0.6-0.8,1.2-0.7c0.4,0.1,0.8,0.1,1.2,0c3.1-0.9,6.5,1.4,6.9,4.7C38.8,14.3,38.9,14.7,38.9,15z
		 M36.8,13.3c-1.7,2.1-2.9,4.4-2.9,7.1C36.9,19,37.9,16.5,36.8,13.3z M30.6,16.4c-0.1,1.2-0.3,2.3-0.2,3.5c0,0.3,0.6,0.7,1,1
		c0.1,0,0.6-0.4,0.7-0.7c0.2-0.4,0.3-0.8,0.4-1.2C32.7,17.4,32.3,16.8,30.6,16.4z M32.9,15.9c1-1.3,1.9-2.5,2.9-3.8
		c-0.2-0.2-0.5-0.5-1-0.9c-1,1.4-1.9,2.7-2.9,4C32.3,15.4,32.6,15.6,32.9,15.9z M30.8,14.2c0.9-1.2,1.7-2.3,2.5-3.4
		C30.7,11,30.4,11.4,30.8,14.2z"/>
	<path d="M57.7,28.4c-1.6,0.1-1.8-0.3-1.4-1.8c0.5-1.7,0.7-3.5,1.1-5.2c0.3-1.4,0.6-2.8,1.1-4.1c0.2-0.5,0.8-0.8,1.2-1.2
		c0.3,0.5,0.8,0.9,0.9,1.4c0.6,2.5,1.1,5.1,1.6,7.6c0.1,0.5,0.2,0.9,0.3,1.4c0.1,0.9-0.4,1.5-1.3,1.6C60.1,28.2,58.9,28.3,57.7,28.4
		z M58.5,24.5c2-1.1,1.4-2.7,0.9-4.2C59,21.6,58.8,23,58.5,24.5z M60.9,26.3c-0.1-0.5-0.2-1-0.3-1.6c-0.5,0.7-0.9,1.2-1.5,2
		C59.8,26.5,60.3,26.4,60.9,26.3z"/>
	<rect x="48.1" y="-4.7" class="st0" width="48.4" height="60.8"/>
	<rect x="37.2" y="37.1" class="st0" width="20.2" height="20.2"/>
	<rect x="41.9" y="28.5" class="st0" width="13.4" height="33.5"/>
	<rect x="44.7" y="24.7" class="st0" width="37.3" height="11.1"/>
	
		<rect x="44.4" y="17.1" transform="matrix(0.9281 0.3724 -0.3724 0.9281 14.8794 -18.4146)" class="st0" width="21.3" height="24.5"/>
</g>
</svg>
