<?xml version="1.0" encoding="utf-8"?>
<!-- Generator: Adobe Illustrator 23.1.0, SVG Export Plug-In . SVG Version: 6.00 Build 0)  -->
<svg version="1.1" id="Layer_1" xmlns="http://www.w3.org/2000/svg" xmlns:xlink="http://www.w3.org/1999/xlink" x="0px" y="0px"
	 viewBox="0 0 305.9 107" style="enable-background:new 0 0 305.9 107;" xml:space="preserve">
<style type="text/css">
	.st0{stroke:#000000;stroke-width:0.5;stroke-miterlimit:10;}
	.st1{stroke:#000000;stroke-width:0.25;stroke-miterlimit:10;}
</style>
<g>
	<path d="M241.8,62.2c-0.3,2-0.3,4-0.9,5.7c-0.5,1.5-1.1,2.9-1.4,4.4c-0.2,1.1-0.5,2-1.3,2.8c-0.2,0.2-0.5,0.5-0.8,0.6
		c-2.6,0.3-5.2,0.5-7.8,0.8c-1.1,0.1-1.7-0.4-2-1.3c-0.4-1-0.6-2-1-2.9c-1.1-2.8-2.2-5.7-3.3-8.5c-0.1,0.8-0.2,1.6-0.2,2.4
		c-0.1,0.9-0.5,1.6-1.3,2.1c-0.3,0.2-0.6,0.7-0.7,1.1c-0.2,2.3-1.7,3.9-2.9,5.7c-0.2,0.3-0.8,0.5-1.2,0.6c-2.4,0.3-4.8,0.5-7.1,0.7
		c-1,0.1-1.9,0.2-2.9,0.2c-0.9,0-1.6-0.3-1.7-1.3c0-1.8-0.2-3.6-0.1-5.4c0.4-7.7,0.8-15.3,1.2-23c0.1-1,0.2-2,0.3-3
		c0.1-0.7,0.2-1.5-0.5-2c-0.2-0.1-0.2-0.8,0-1c1.4-1.6,1.5-3.7,1.8-5.6c0.2-0.9,0.5-1.7,1.1-2.3c1.5-1.4,2.9-3,4.3-4.5
		c1.7-1.8,3.7-2.2,6.1-1.8c1.5,0.3,3,0.4,4.5-0.3c0.8-0.4,1.3,0.1,1.6,0.9c1.2,2.8,2.5,5.6,3.7,8.4c0,0.1,0.1,0.1,0.3,0.2
		c1.1-1.3,2.3-2.6,3.4-3.9c0.6-0.7,1-1.6,1.6-2.3c0.2-0.3,0.7-0.4,1-0.4c2.2-0.1,4.3-0.2,6.5-0.3c1.1,0,1.2,0.2,1,1.3
		c-0.2,1.3-0.2,2.6-0.3,3.9c-0.2,3.5-0.5,7-0.7,10.5c0.1,0,0.2,0.1,0.3,0.1c0.2-0.4,0.3-0.7,0.5-1.1c1-3.6,2.6-6.8,5.3-9.4
		c0.9-0.9,2.1-1.4,3.2-2.2c0.2-0.1,0.4-0.3,0.6-0.4c3-2.4,7.4-2,10,0.8c2.8,2.9,3.8,6.6,5,10.3c1.1,3.4,1.2,7.1,1,10.6
		c-0.1,2.4-0.9,4.8-1.3,7.2c-0.5,3.3-2.9,5-5.3,6.7c-0.8,0.6-1.5,1.1-1.6,2.1c0,0.1,0,0.2-0.1,0.3c-1.2,1.1-2.4,2.4-3.7,3.4
		c-1.1,0.7-2.4,1.2-3.7,1.3c-3,0.3-5.2-1.2-7-3.4c-1.8-2.3-2.7-5-3.4-7.8C241.9,62.5,241.9,62.4,241.8,62.2z M241.4,30.2
		c-1.5,0-2.8,0-4.1,0c-0.9,0-1.3,0.5-1.3,1.3c0,1,0.1,1.9,0,2.9c-0.2,3.7-0.5,7.3-0.7,11c-0.1,1.6-0.3,3.1-0.4,4.7
		c-0.1,0.8-0.6,1.1-1.3,1.1s-0.8-0.5-0.8-1.1c0-0.8-0.1-1.7-0.4-2.4c-1.2-3.2-2.4-6.5-3.8-9.7c-1.4-3.2-2.9-6.4-4.4-9.6
		c-0.1-0.3-0.5-0.6-0.8-0.6c-1.7-0.1-3.4,0-5.1-0.1c-0.8,0-1.2,0.1-1.2,1c-0.2,5.5-0.4,11-0.5,16.5c-0.1,6-0.1,12-0.3,18
		c-0.1,3.4-0.4,4,3.9,3.6c1-0.1,1.3-0.6,1.4-1.4c0.1-1.3,0.2-2.6,0.2-4c0-2.6-0.1-5.1,0-7.7c0.2-3.8,0.4-7.6,0.7-11.4
		c0-0.2,0.2-0.5,0.4-0.7c0.8-0.6,1.5-0.4,1.8,0.6c1.5,4.2,3,8.5,4.3,12.7c1.2,3.8,2.3,7.7,3.5,11.6c0.4,1.2,0.9,1.6,2.2,1.5
		c1.2-0.1,2.4-0.2,3.5-0.2c1,0,1.4-0.4,1.5-1.3c0.1-1.6,0.4-3.3,0.4-4.9c-0.2-7.9,0.5-15.8,1-23.8C241.2,35.3,241.3,32.8,241.4,30.2
		z M248,47.9c-0.3,3.2,0.5,6.4,1.5,9.6c0.9,2.9,2,5.8,4.4,8c1,0.9,2,1.3,3.2,1.1c1-0.1,2.3,0.4,2.9-1c0-0.1,0.4-0.1,0.7-0.2
		c0.2-0.1,0.5,0,0.7-0.2c1.3-1,2.6-2,3.2-3.6c1.2-3.2,1.8-6.5,1.8-9.9c0-3-0.3-5.9-1.1-8.8c-1-3.6-2.2-7-4.7-9.9
		c-2.2-2.6-6.2-2.4-7.9-0.1c-0.8,1.1-1.5,2.2-2.1,3.3C248.7,39.7,247.8,43.6,248,47.9z M238.9,69.2c-1.4,0-2.5,0-3.7,0s-2.4,0-3.8,0
		c-0.4,1.9-0.7,3.7-1.2,5.9c1.9-0.2,3.5-0.4,5.1-0.6c1.1-0.1,1.9-0.6,2.3-1.6C238.1,71.8,238.4,70.6,238.9,69.2z M207.5,53.5
		c2.5-2,5-5.3,6.5-8c1-1.7,1.1-3.5,1.1-5.4c-0.2,0.1-0.3,0.2-0.4,0.2c-1.9,2.1-3.8,4.3-5.6,6.5c-0.5,0.6-1,1.2-1.2,1.8
		C207.6,50.2,207.6,51.7,207.5,53.5z M209.6,74.8c1.6-0.2,3.1-0.4,4.6-0.4c1.9,0,3.2-1,4.2-2.5c0.7-1.1,1.3-2.2,1.2-3.5
		c-1.4-0.1-2.7-0.1-4-0.2c-0.2,0-0.5,0.2-0.7,0.4c-0.8,0.9-1.5,1.9-2.3,2.8C211.7,72.5,210.7,73.5,209.6,74.8z M208.2,44.6
		c0.1,0.1,0.2,0.1,0.4,0.2c1.3-1.4,2.6-2.8,3.8-4.3c1.1-1.4,2.2-2.9,2.7-4.5c0.5-1.5,0.2-3.2,0.3-4.8c-0.4,0.2-0.7,0.5-0.8,0.8
		c-0.6,1.8-1.7,3.1-3.1,4.4c-0.9,0.9-2,1.8-2.4,2.9C208.5,41,208.5,42.8,208.2,44.6z M248.9,71.4c3.3,2.6,8.6-0.6,9.5-3.6
		c-2.1,0.2-4.2,0.3-5.9-1.3C251.3,68.2,250.1,69.7,248.9,71.4z M214.3,54.2c-2.2,2.8-4.3,5.6-6.6,8.3c-1,1.2-0.6,2.4-0.7,3.7
		c2.2-2.2,4.3-4.5,6.2-6.9C214.3,57.9,215.2,56.4,214.3,54.2z M207.3,59.7c0.2-0.2,0.4-0.3,0.5-0.4c2-2.4,4-4.8,6.1-7.1
		c1-1.2,0.9-2.5,0.8-3.8c-1.1,1.3-2.1,2.6-3.2,3.8c-0.9,1-1.9,2-2.8,3c-0.4,0.4-0.8,0.9-1.1,1.4c-0.1-0.1-0.2-0.1-0.3-0.2
		C207.3,57.4,207.3,58.5,207.3,59.7z M214.6,61.1c-0.3,0.2-0.5,0.3-0.6,0.4c-2,2.2-4,4.4-6.1,6.6c-1.1,1.2-1.4,2.7-0.9,4.1
		c2.1-2.4,4.2-5.1,6.6-7.5C214.6,63.6,214.6,62.5,214.6,61.1z M229.9,64.6c-1,1.3-2,2.4-2.8,3.5c-0.2,0.2-0.3,0.7-0.2,1
		c0.6,1.6,1.2,3.2,1.9,4.9c0.1-0.3,0.2-0.5,0.2-0.7c0.4-2,0.7-4,1.3-5.9C230.5,66.4,230.5,65.6,229.9,64.6z M250.2,63.8
		c-1.1,1.4-2.1,2.6-3,3.9c-1,1.4-1,1.7,0.5,2.7c1.3-1.7,2.5-3.3,3.8-5C251,64.9,250.7,64.4,250.2,63.8z M245.4,67.3
		c1.1-1.4,2.2-2.7,3.2-4c0.9-1.1,0.8-1.6-0.2-2.7c-1.1,1.3-2.1,2.6-3.2,3.9C244.4,65.4,244.6,66.3,245.4,67.3z M243.2,49.9
		c2.9-1.4,3.1-4.1,3-6.8C243.9,44.3,243.1,46.1,243.2,49.9z M242.8,55.4c0.1,0.1,0.2,0.1,0.3,0.2c0.7-0.8,1.4-1.6,2.2-2.3
		c1.2-1,1-2.2,0.5-3.5c-1,0.8-1.9,1.5-2.8,2.2c-0.1,0.1-0.2,0.4-0.2,0.6C242.8,53.5,242.8,54.4,242.8,55.4z M226.1,67
		c1-1.2,1.9-2.4,2.8-3.4c0.8-1,0.6-1.8,0-2.9c-1,1.2-2,2.3-2.8,3.4C225.4,64.9,225.3,65.8,226.1,67z M227.8,57.2
		c-0.9,1-1.9,2-2.8,3.1c-0.9,1-0.9,1.5,0,2.8c0.9-1,1.8-2,2.7-3C228.7,58.8,228.7,58.7,227.8,57.2z M226.6,53.5
		c-0.8,1-1.5,1.8-2.3,2.6c-1.1,1.2-1.1,1.6-0.2,3c0.8-1,1.6-2,2.5-2.9C227.4,55.3,227.2,54.5,226.6,53.5z M243.2,60.2
		c1.1-1.4,2.1-2.8,3.2-4.1c0.6-0.7,0.6-1.2,0-1.9c-0.7,0.8-1.4,1.5-2.2,2.2C243,57.3,242.6,58.5,243.2,60.2z M209.8,35.7
		c0.1,0.1,0.2,0.1,0.3,0.2c1.2-1.6,2.4-3.3,3.7-4.9c0.4-0.5,0.7-1.1,1.3-1.5c0.5-0.4,0.6-0.3,0.3-1.2c-1.3,1.4-2.6,2.9-3.9,4.1
		C210.3,33.3,209.9,34.4,209.8,35.7z M225.4,49.3c-1.8,1.6-2.5,3.8-1.9,5.6c0.6-0.7,1-1.4,1.6-1.9C226.3,51.9,226.3,50.7,225.4,49.3
		z M247.3,57.3c-0.3,0.4-0.5,0.7-0.7,1c-0.8,1.1-1.6,2.2-2.4,3.2c-0.5,0.6-0.6,1.1-0.1,2c1.1-1.4,2.2-2.8,3.3-4.1
		C248,58.7,247.9,58.2,247.3,57.3z M230.5,37.8c2.5-1.3,4.1-3.7,3.5-5.1C232.6,34.2,231.2,35.6,230.5,37.8z M234.1,36.6
		c-0.8,0.7-1.4,1.4-2.1,1.9c-1,0.7-0.7,1.4-0.1,2.2C233,39.5,234.8,38.8,234.1,36.6z M208.6,72.9c0.1,0.1,0.2,0.1,0.3,0.2
		c2-1.5,5.2-5.6,5.3-6.9C212.2,68.5,210.4,70.7,208.6,72.9z M248.8,35.3c-1.7,2-2.9,4.1-3.8,6.7c0.8-0.8,1.6-1.2,2-1.9
		C247.6,38.7,248.1,37.1,248.8,35.3z M233.9,40.8c-1.9,1.2-1.9,2-0.3,3.9C233.7,43.4,233.8,42.2,233.9,40.8z M223.8,48.7
		c1.3-1,1.4-1.7,0.2-2.9C223.9,46.8,223.8,47.7,223.8,48.7z"/>
	<path d="M72.4,59.7c-0.4,1.4-0.6,2.9-1.2,4.2c-1.1,2.3-2.4,4.4-3.5,6.7c-0.6,1.3-1.6,1.7-2.8,1.9c-1.7,0.3-3.4,0.6-5,0.9
		c-0.9,0.2-1.9-0.6-2.3-1.7c-0.7-1.8-1.3-3.6-2.1-5.7c-1.1,1.6-2,3-2.9,4.4c-0.7,1-1.6,1.9-2.4,2.9c-0.1,0.2-0.4,0.3-0.4,0.5
		c0,1.4-1.2,1.5-2.1,1.8c-2.6,0.7-5.2,1.3-7.8,2c-0.5,0.1-1,0.4-1.5,0.7c-1.1,0.5-2,0.2-2.1-1c-0.2-2.9-0.4-5.8-0.4-8.8
		c-0.1-5.2-0.1-10.5,0-15.7c0.1-3.6,0.7-7.2,0.9-10.9c0.1-1.5,0-3.1,0-4.6c0-0.4,0.2-0.8,0.4-1.1c1.4-1.3,2.9-2.5,4.3-3.7
		c0.3-0.2,0.5-0.6,0.6-1c0.2-1.3,0.6-1.8,1.9-2c3-0.3,6.2-0.7,9.3-1.1c0.6-0.1,1,0.1,1.3,0.8c1.3,2.4,2.7,4.7,4.2,7.3
		c0.4-0.5,0.5-0.7,0.7-0.9c1-1.5,2-3,3-4.5c0.7-1.2,1.8-1.5,3.1-1.6c1.8-0.2,3.6-0.3,5.4-0.4c1.5-0.1,2,0.3,1.9,1.8
		c-0.2,2.8-0.5,5.6-0.7,8.4c-0.1,2.8,0,5.6,0,8.5c0,0.3,0.1,0.5,0.2,1.1c0.5-1.3,1-2.4,1.4-3.4c1.8-4.4,4.1-8.4,7.9-11.4
		c2.9-2.3,5.9-4.6,9.9-4.8c0.8,0,1.6,0.2,2.3,0.6c2.8,1.7,4,4.3,4.4,7.5c0.4,3.8,0.4,7.6,0.1,11.4c-0.3,3.6-1,7-2.3,10.4
		c-0.9,2.5-2.8,4-4.9,5.4c-1.4,0.9-2.6,2-3.8,3.1c-1.4,1.3-2.9,2.2-4.8,2.6c-3.3,0.6-5.8-0.5-7.4-3.4c-1-1.8-1.6-3.8-2.3-5.7
		C72.6,60.7,72.5,60.2,72.4,59.7z M44.4,31.2c0.1,0.4,0.2,0.7,0.2,1c0.2,4.3,0.3,8.6,0.6,13c0.2,4.3,0.6,8.6,0.9,12.9
		c0.2,2.5,0.4,5.1,0.6,7.6c0.1,0.9,0.5,1.2,1.4,1c1.3-0.3,2.6-0.6,4-0.9c1-0.2,1.4-0.6,1.3-1.6c-0.2-3-0.4-6-0.4-9
		c0-4,0-7.9,0.1-11.9c0-0.9,0.8-1.4,1.6-0.9c0.3,0.2,0.6,0.5,0.8,0.9c1,2,2,4,2.9,6c1.2,2.6,2.3,5.1,3.5,7.7
		c0.8,1.6,1.6,3.3,2.6,4.8c0.3,0.5,1,1,1.6,1.2c0.9,0.2,1.8,0,2.8,0s1.6-0.5,1.7-1.5c0.1-2.6,0.4-5.2,0.4-7.8
		c0.1-5.7,0-11.4,0.1-17.1c0-1.6,0.3-3.3,0.4-4.9c0.1-0.7-0.2-1.1-1-1c-1.3,0.1-2.6,0.2-3.9,0.4c-1.3,0.1-1.6,0.3-1.6,1.6
		c-0.2,4.6-0.3,9.3-0.6,13.9c0,0.5-0.6,1-1,1.3c-0.1,0.1-0.8-0.4-1-0.7c-0.8-1.8-1.5-3.6-2.4-5.4c-1.3-2.4-2.7-4.7-4.1-7
		c-0.7-1.3-1.5-2.5-2.3-3.7c-0.2-0.3-0.5-0.6-0.8-0.5C49.9,30.6,47.2,30.9,44.4,31.2z M96.8,42.3c0-0.2,0-0.5,0-0.7
		c-0.2-2-0.4-4.1-0.8-6.1c-0.4-1.8-1.6-3.2-3.3-4.1c-0.5-0.3-1.1-0.6-1.6-0.5c-4.2,0.8-7.2,3.1-8.8,7.3c-1.9,5-2.5,10.1-1.8,15.4
		c0.4,2.8,0.9,5.7,2.5,8.1c1,1.6,2.5,2.8,4.4,2.4c3.4-0.6,5.9-2.3,7.2-5.8C96.6,53.1,96.6,47.7,96.8,42.3z M40.8,75.7
		c0.3,0,0.6,0,0.8,0c1.6-0.4,3.2-0.8,4.8-1.3c0.3-0.1,0.6-0.2,0.9-0.4c0.9-0.9,1.8-1.8,2.6-2.8c0.8-1.1,1.6-2.2,2.3-3.3
		c-1-0.1-1.8,0-2.6,0.2c-2.1,0.5-4.3,0.4-5.5,2.9C43.4,72.7,42,74.1,40.8,75.7z M61.1,71.4c2.5,0,4.7-0.3,5.9-2.7
		c0.7-1.3,1.5-2.5,2.3-4c-1.4,0-2.5,0-3.6,0c-1.1,0.1-1.7,0.7-2,1.7c-0.2,0.5-0.4,1.1-0.7,1.6C62.4,69.1,61.8,70.2,61.1,71.4z
		 M45.1,66.1c-0.2-0.1-0.3-0.2-0.5-0.3c-1.9,1.7-3.7,3.5-5.7,5.1c-1.8,1.5-0.8,3.2-0.7,5c0.8-0.8,1.5-1.5,2.2-2.4
		c1.4-2,2.8-3.9,4.2-5.9C44.9,67.2,44.9,66.6,45.1,66.1z M44.3,56.5c-0.6,0.4-0.9,0.6-1.2,0.8c-1.3,1.2-2.7,2.4-4,3.5
		c-1.6,1.3-1.7,1.9-1.1,3.9c2.2-1.6,4.3-3.3,6.7-5C44.5,58.9,44.4,57.8,44.3,56.5z M43.7,52.3c-0.3,0.2-0.6,0.3-0.9,0.5
		c-1.3,1-2.7,1.9-4,2.9s-1.7,2.7-1,4.3c1.6-1.4,3.3-2.8,4.9-4.1C44.3,54.7,44.4,54.4,43.7,52.3z M44.5,61.5
		c-1.8,1.4-3.6,2.8-5.3,4.1c-1.5,1.2-1.8,2.2-1.1,4.1c1.6-1.3,3.2-2.7,4.8-4C44.1,64.6,45.1,63.5,44.5,61.5z M37.8,54.9
		c1.5-1.1,2.9-2.1,4.4-3.1c2.1-1.3,1.8-0.9,1.4-3.8c-0.2,0.1-0.5,0.2-0.6,0.4c-1.3,1.1-2.6,2.3-4,3.3C37.6,52.5,37.7,53.5,37.8,54.9
		z M43.4,43.7c-0.5,0.3-0.9,0.5-1.2,0.8c-1,1-2,2.1-3.1,2.9c-1.2,0.8-1.1,1.9-1.1,3.2c1.6-1.2,3-2.3,4.4-3.4
		C43.8,46.2,44,45.7,43.4,43.7z M62.8,62.7c-0.1,0-0.2,0-0.4,0c-1.3,1.9-2.7,3.8-4.1,5.9c0.3,0.7,0.7,1.4,1.1,2.1c0.1,0,0.2,0,0.4,0
		c1.1-2.2,2.2-4.4,3.2-6.7C63.1,63.7,62.9,63.2,62.8,62.7z M78.3,51.4c-0.1-0.1-0.3-0.2-0.4-0.3c-0.2,0.3-0.3,0.6-0.5,0.9
		c-0.8,1.3-1.5,2.8-2.6,3.9s-0.6,2-0.4,3.3c1.1-1.4,2-2.8,3-3.9C78.7,54.1,78.5,52.8,78.3,51.4z M78.3,46.2c-1.8,2.3-4.5,4.2-4.3,8
		c1.1-1.5,1.9-3,3.2-3.9C78.6,49,78.4,47.7,78.3,46.2z M38.5,46.1c1.3-1.1,2.4-2.2,3.7-3.2c1.5-1.1,1.5-1.1,1.1-3.2
		c-1.1,0.9-2.1,1.9-3.3,2.6C38.7,43.3,38.1,44.5,38.5,46.1z M59.4,56.1c-1.2,1.7-2.3,3.3-3.4,5c-0.5,0.8-0.3,1.5,0.3,2.2
		c0.3-0.4,0.5-0.7,0.8-1c0.9-1.2,1.6-2.4,2.6-3.5C60.5,57.9,60.2,57.2,59.4,56.1z M81.4,63.3c-1.2,1.5-2.3,2.9-3.4,4.3
		c1.2,1.4,1.6,1.4,2.6,0.1c0.8-1.1,1.4-2.2,2.2-3.3C82.2,64,81.9,63.7,81.4,63.3z M55,59.5c1.2-1.5,2.2-2.8,3.3-4.2
		c0.8-1,0.6-1.7-0.6-2.5C56.9,55,54.1,56.3,55,59.5z M80.1,38.2c-2.1,2.9-3.6,5.8-4.8,9.1C78,44.8,79.8,42,80.1,38.2z M38.7,41.9
		c1.2-1,2.4-1.9,3.6-2.8c1.2-0.9,1.3-1.3,0.7-2.9c-1.2,1.1-2.2,2.3-3.5,3.3C38.6,40.1,38.5,40.8,38.7,41.9z M61.1,59.4
		c-1.3,1.9-2.4,3.5-3.6,5.1c-0.5,0.7-0.4,1.3,0.3,1.9c1.5-1.7,2.7-3.6,3.6-5.6C61.5,60.5,61.2,60.1,61.1,59.4z M78.5,56.4
		c-0.1,0.3-0.2,0.7-0.4,1c-0.8,1.1-1.6,2.3-2.5,3.3c-0.7,0.7-0.6,1.3-0.1,2.1c1.1-1.3,2-2.6,3.1-3.7C79.3,58.3,79.4,57.6,78.5,56.4z
		 M79.7,60.1c-1.2,1.6-2.3,3.1-3.3,4.6c-0.1,0.2,0.2,0.7,0.3,1.1c0.1,0,0.2,0,0.4,0c1-1.2,1.9-2.5,2.9-3.7
		C80.4,61.6,80.3,61,79.7,60.1z M54.7,54.6c0.4-0.5,0.7-0.9,1-1.3c0.3-0.4,0.6-0.8,0.9-1.2c0.9-1.1,0.9-1.8-0.2-2.8
		C54.6,50.6,54.2,52.4,54.7,54.6z M81.8,68.9c2-0.4,3.3-1.5,4.5-2.9c-0.9-0.2-1.6-0.4-2.2-0.6C83.4,66.6,82.7,67.7,81.8,68.9z
		 M43.2,33.3c-0.1-0.1-0.2-0.1-0.4-0.2c-1.2,1.8-3.8,2.5-4,5.1c0.2,0,0.4-0.1,0.5-0.2c1.2-1.2,2.4-2.4,3.5-3.7
		C43.1,34.1,43.1,33.6,43.2,33.3z M54.5,49.3c1.2-1.5,1.2-2.5,0-3.9C54.5,46.7,54.5,47.9,54.5,49.3z M61.4,40.7
		c1.2-0.6,1.6-1.4,1.1-2.6C61.2,39.2,60.9,39.9,61.4,40.7z M61.5,35.6c1.4-0.2,1.7-0.9,1.3-2.1C62.4,34.2,62,34.8,61.5,35.6z"/>
	<path d="M145.3,33.1c1.8-1.8,3.8-3.7,5.8-5.7c0.1-0.1,0.3-0.2,0.3-0.3c1.3-2.2,3.3-1.6,5.3-1.4c2,0.3,4,0.7,6,1.1
		c0.4,0.1,1,0.5,1,0.8c0.5,3.2,1,6.3,1.4,9.5c0.8,6.2,1.5,12.3,2.3,18.5c0.2,1.9,0.2,3.8,0.5,5.6c0.4,3.2-0.5,6.2-1.6,9.1
		c-0.3,0.8-0.7,1.5-1,2.3c-0.5,1.2-1.4,1.7-2.6,1.6c-2,0-3.9,0-5.9,0c-0.9,0-1.9-0.8-2-1.7c-0.3-1.8-0.6-3.5-1-5.3
		c-0.1-0.4-0.5-0.8-0.8-0.9c-0.4-0.1-1.1,0-1.4,0.3c-0.9,0.9-1.6,1.9-2.3,2.9c-1.1,1.3-2.5,2.1-4.2,2.3c-2.1,0.2-4.1,0.5-6.2,0.7
		c-0.2,0-0.5,0-0.7,0c-1.7,0-2.4-0.7-2-2.4c0.6-2.7,1.1-5.5,1.8-8.2c0.6-2.6,1.4-5.1,2.1-7.6c0.9-3.3,1.8-6.7,2.7-10.1
		c-1.9,1.9-3.6,3.8-5,6.1c-2.6,4.2-6,7.7-11.1,8.8c-0.7,0.1-0.9,0.5-1,1.2c-0.1,1.3-0.2,2.6-0.3,3.9c-0.2,2.2-1.4,3.9-2.5,5.7
		c-0.7,1.1-1.4,2.2-2.1,3.2c-0.2,0.3-0.7,0.5-1,0.5c-3.1,0.1-5.9,0.2-8.8,0.2c-1,0-1.5-0.6-1.5-1.8c0-1.3,0.1-2.6,0-4
		c0-0.7-0.2-1.4-0.3-2.1c0-0.2-0.1-0.4,0-0.6c0.2-1.3,0.5-2.6,0.6-4c0.3-2.7,0.8-5.4,0.9-8.1c0.1-2.2,0.3-4.5,0.9-6.6v-0.1
		c-0.9-1.7,0.5-3.2,0.4-4.8c0-1.7,0.3-3.5,0.4-5.2c0-0.5-0.2-0.9-0.3-1.4c0-0.2-0.2-0.4-0.1-0.5c0.9-1.6,0.3-3.3,0.7-4.9
		c0.1-0.6,0.5-1.2,0.9-1.6c2.2-1.9,4.4-3.8,6.8-5.5c0.7-0.5,1.9-0.6,2.8-0.5c2.1,0.1,4.3,0.4,6.3,0.8c2.7,0.5,5.4,1.1,8,1.9
		c2.6,0.8,4.2,2.9,5.7,5C144.1,30.9,144.7,32.1,145.3,33.1z M117.5,64.8c1.9,0,3.6,0,5.3,0c0.2,0,0.6-0.4,0.7-0.7
		c0.2-0.9,0.4-1.8,0.4-2.7c0.2-3.4,0.4-6.8,0.7-10.2c0.1-1,0.7-1.4,1.7-1.2c0.5,0.2,1,0.3,1.6,0.3c3.4,0,6.5-1,9.3-2.9
		c0.8-0.6,1.4-1.4,2.2-2c2.2-1.6,3.7-3.7,4.2-6.3c0.7-3,0.5-5.9-1.6-8.4c-0.5-0.6-1-1.1-1.4-1.7c-1.2-1.6-2.7-2.7-4.6-3.1
		c-2.5-0.6-5-1.2-7.5-1.6c-1.4-0.3-2.8-0.3-4.3-0.4c-0.5,0-1.3,0.2-1.4,0.6c-0.4,1.1-0.8,2.2-0.9,3.4c-0.6,4.4-1.2,8.8-1.8,13.2
		c-0.8,6.4-1.5,12.7-2.3,19.1C117.7,61.7,117.6,63.2,117.5,64.8z M147.2,63.9c1.2-0.1,2.1-0.1,3.1-0.3c0.6-0.1,1.1-0.5,1.1-1.2
		c0.3-2.5,0.6-4.9,0.9-7.4c0.1-1.5,0.8-1.9,2.2-1.4c0.7,0.3,1.5,0.2,2.2,0.3c0.6,0,1.2-0.1,1.8-0.1c0.9,0,1.4,0.5,1.5,1.4
		c0.3,2.8,0.7,5.5,1.1,8.3c0,0.3,0.3,0.8,0.4,0.8c1.3,0,2.5,0,3.8-0.1c0.9,0,1-0.7,1-1.4c0-1.1-0.1-2.3-0.2-3.4
		c-0.8-6.6-1.5-13.1-2.4-19.6c-0.5-3.6-1.1-7.1-1.8-10.7c-0.1-0.3-0.3-0.8-0.6-0.8c-1.8-0.4-3.5-0.8-5.3-1.1c-1.6-0.3-1.9,0-2.3,1.4
		c-0.5,1.9-0.7,3.9-1.3,5.8c-0.9,3.4-1.4,6.8-2.1,10.3c-1,4.9-2.5,9.7-2.8,14.7C147.6,60.8,147.4,62.2,147.2,63.9z M165.8,66
		c-1.5,0-2.9,0-4.3,0c-0.3,0-0.7,0.2-0.8,0.5c-1,2-2,4.1-3.2,6.3c1.2,0.1,2.2,0.1,3.2,0.2c1.9,0.3,3.1-0.4,3.7-2.3
		C164.9,69.2,165.8,67.7,165.8,66z M122.8,66.7c-2.2,0-4.4,0-6.5,0c-0.2,0-0.3,0.2-0.5,0.4c-1,1.7-2,3.3-3.1,5
		c1.9,0.6,3.9,0.3,5.8,0.1c0.2,0,0.5-0.1,0.7-0.3C120.6,70.3,122,68.7,122.8,66.7z M136.2,50c-0.2,0-0.3-0.1-0.4-0.1
		c-2.8,1.3-5.8,2.2-9,2c-0.2,0-0.6,0.3-0.6,0.5c-0.1,1.8-0.2,3.5-0.3,5.5C130.7,56.8,133.5,53.7,136.2,50z M139.4,71.2
		c2.4-0.4,4.7-0.3,6.5-1.2s3.1-2.9,4.6-4.4c-1.5,0-2.7,0.2-3.9-0.1c-0.8-0.1-1.2,0.1-1.7,0.5c-1.6,1.4-3.2,2.8-4.8,4.3
		C140,70.5,139.8,70.7,139.4,71.2z M152.7,64.9c0.8,0.3,1.5,0.1,1.9-0.8c1.2-2.8,2.3-5.6,3.5-8.6c-1.3,0-2.4,0-3.6,0
		c-0.2,0-0.5,0.3-0.5,0.5c-0.2,1-0.4,2-0.5,3C153.1,61,152.9,62.9,152.7,64.9z M111.6,70.7c2.6-3.3,5-7.5,4.5-10
		c-1.4,1.3-2.9,2.6-4.3,4c-0.1,0.1-0.2,0.4-0.2,0.6C111.6,67,111.6,68.8,111.6,70.7z M121.1,24.5c-0.1-0.1-0.2-0.1-0.3-0.2
		c-1.7,1.3-3.3,2.7-5,4c-1.4,1.1-1.4,2.6-1.4,4.3c0.4-0.3,0.6-0.4,0.8-0.5c1.6-1.5,3.2-3.1,4.8-4.5
		C120.9,26.6,120.9,25.5,121.1,24.5z M152.3,28.6c-3.2,1.6-6,6-6.1,9.4c1.4-1.5,2.6-3,4-4.3C151.8,32.2,151.9,30.4,152.3,28.6z
		 M120.2,29.6c-0.1-0.1-0.2-0.1-0.3-0.2c-0.3,0.3-0.6,0.5-0.8,0.8c-1.2,1.1-2.2,2.2-3.5,3.1c-1.4,0.9-1.4,2.1-1.3,3.5
		c0.1,0,0.1,0,0.2,0c1.7-1.3,3.4-2.5,5.1-3.8c0.1-0.1,0.2-0.4,0.2-0.6C119.9,31.5,120,30.5,120.2,29.6z M113.8,42
		c1.7-1.5,3.3-2.9,5.2-4.6c0.1-0.6,0.2-1.6,0.3-2.6c-0.1-0.1-0.2-0.1-0.3-0.2c-1.5,1.4-3,2.8-4.4,4.2
		C113.8,39.7,113.6,40.7,113.8,42z M140.5,60.3c1.9-1.8,3.8-3.6,5.6-5.5c0.6-0.6,0.8-1.6,1.2-2.3c-0.1,0-0.2-0.1-0.3-0.1
		c-1.4,1.3-2.8,2.6-4.4,3.7C141.3,57,140.5,58.4,140.5,60.3z M141.7,54.2c0.2,0.1,0.3,0.2,0.5,0.3c1.7-1.7,3.3-3.4,5-5.1
		c0.8-0.8,1.2-1.7,1.3-3c-0.2,0.1-0.5,0.2-0.6,0.4c-1.7,1.7-3.5,3.5-5.1,5.3C142.2,52.7,142,53.5,141.7,54.2z M118.6,40.1
		c-0.1,0-0.1-0.1-0.2-0.1c-1,1-2,2-3.1,2.9c-1.4,1-2.2,2.3-1.9,4.1c0.1,0,0.2-0.1,0.3-0.1c1.5-1.3,2.9-2.6,4.4-3.9
		c0.1-0.1,0.2-0.4,0.2-0.6C118.4,41.6,118.5,40.9,118.6,40.1z M137.9,69.9c0.1,0,0.1,0.1,0.2,0.1c0.2-0.1,0.4-0.2,0.6-0.4
		c1.9-1.7,3.8-3.4,5.7-5.2c0.8-0.8,1.9-1.5,1.5-2.9c-2.3,2.1-4.7,4.2-7,6.4C138.3,68.5,138.2,69.3,137.9,69.9z M138.9,65.7
		c2.3-1.9,4.4-3.9,6-6.3c0.3-0.4,0.8-0.7,1.3-1.2c0-0.1,0-0.5,0-1c-2.1,1.9-4.1,3.7-6.1,5.5C139.4,63.5,138.8,64.4,138.9,65.7z
		 M112.7,52.3c0.7-0.6,1.2-1,1.7-1.5c0.8-0.9,1.6-1.9,2.5-2.8c0.9-0.9,1.1-1.3,0.9-2.5c-1.3,1-2.5,2.3-3.9,3.3
		C112.8,49.7,112.6,50.8,112.7,52.3z M143.4,48.4c1.8-1.4,3.7-2.8,5.5-4.2c0.1-0.1,0.1-0.2,0.1-0.3c0.2-0.8,0.3-1.7,0.5-2.5
		c-0.1-0.1-0.3-0.2-0.4-0.3c-1.3,1.4-2.6,2.7-3.8,4.2C144.5,46.3,143.3,47,143.4,48.4z M117.1,55.4c-0.2-0.1-0.3-0.2-0.5-0.3
		c-1.5,1.5-3.1,2.9-4.5,4.5c-0.4,0.5-0.3,1.4-0.4,2.2c0.1,0,0.3,0.1,0.4,0.1c1.3-1.4,2.6-2.7,3.7-4.2
		C116.4,57.1,116.7,56.2,117.1,55.4z M158.6,57.6c-1.1,3.2-2.2,6.1-3.3,9.1c0.1,0,0.2,0.1,0.3,0.1C157.4,64.1,160,61.7,158.6,57.6z
		 M117.2,50.6c-1.2,1-2.4,2-3.5,3c-0.8,0.8-1.6,1.7-1.5,3.4c1.5-1.5,2.8-3,4.2-4.2C117.2,52.1,117.4,51.5,117.2,50.6z M150.5,35.9
		c-0.2,0.1-0.3,0.1-0.3,0.2c-1.2,1.4-2.3,2.9-3.5,4.3c-0.2,0.2-0.3,0.5-0.5,0.7c-1.2,0.8-1.3,1-1.4,2.6c1.7-1.8,3.2-3.5,4.8-5.2
		C150.3,37.6,150.5,36.9,150.5,35.9z M156.4,71.4c1.1-2.5,2.9-4.5,3.3-7.4c-1.1,1.6-2,3-3,4.3C155.9,69.3,155.7,70.2,156.4,71.4z"/>
	<path d="M170.9,42.5c-1.2,0-2.3-0.1-3.4,0c-0.8,0-1.3-0.3-1.3-1c-0.3-2.5-0.8-5-0.7-7.6c0.1-1.5,0.8-3.2,1.7-4.5
		c1.3-1.9,3-3.6,4.5-5.3c0.2-0.3,0.4-0.7,0.5-1c0.2-0.9,0.9-1.2,1.7-1.1c1.7,0.1,3.5,0.2,5.2,0.4c3.9,0.6,7.7,1.2,11.6,1.8
		c1.3,0.2,2.5,0.5,3.8,0.7c1,0.2,1.3,0.7,1.1,1.7c-0.8,2.9-1.5,5.9-2.2,8.8c-0.1,0.2-0.1,0.5-0.3,0.7c-1.1,1.6-2.1,3.2-3.2,4.8
		c-0.5,0.8-1.1,1.5-2.2,1.6c-0.6,0-0.8,0.4-0.8,1c0.1,4.1,0.1,8.1,0.3,12.2c0.2,4.4,0.1,8.7-0.5,13c-0.1,0.4-0.2,0.9-0.5,1.2
		c-2,2.1-3,4.8-5.4,6.6c-0.9,0.6-1.7,1.2-2.8,1.1c-1.5,0-3.1-0.2-4.6-0.2c-0.4,0-0.9,0.2-1.2,0.4c-1,0.7-2,0.4-2.1-0.8
		c-0.3-2.6-0.6-5.3-0.8-8c-0.2-2.6-0.3-5.2-0.1-7.8c0.2-2.4,0.8-4.7,1.1-7.1c0.4-3.3,0.7-6.5,1-9.8C171.4,43.8,171,43.1,170.9,42.5z
		 M181.7,69.2L181.7,69.2c0.8,0,1.6-0.1,2.4,0c0.7,0.1,1-0.2,1.1-0.9c0.2-1.9,0.6-3.8,0.6-5.6c-0.1-7-0.4-14-0.6-21
		c-0.1-2.1-0.2-4.3-0.5-6.4c-0.2-1.3,0.4-1.9,1.7-1.7c1.5,0.2,3.1,0.4,4.7,0.6c0.7,0.1,1.1-0.1,1.2-0.8c0.5-2,1-3.9,1.4-5.9
		c0.2-0.7-0.1-1.1-0.8-1.2c-2.5-0.5-4.9-1.1-7.4-1.6c-3.4-0.7-6.9-0.8-10.4-0.9c-0.3,0-0.9,0.3-0.9,0.6c-0.4,2.7-0.7,5.5-0.9,8.3
		c0,0.2,0.4,0.7,0.7,0.7c1.1,0,2.3-0.1,3.4-0.3c0.7-0.1,1.1,0.1,1.3,0.7c0.1,0.4,0.2,0.8,0.2,1.3c0,5,0,10.1-0.1,15.1
		c0,3.4-0.2,6.8-0.3,10.3c0,1.3,0.2,2.6,0.2,3.8c0,1.3-0.2,2.5-0.3,3.8c-0.1,0.9,0.2,1.4,1.2,1.3C180.2,69.1,180.9,69.2,181.7,69.2z
		 M173.5,76c1.4,0.1,2.7,0.3,4,0.3c0.5,0,1.2-0.2,1.6-0.5c0.9-0.7,1.8-1.4,2.6-2.2c0.7-0.8,1.1-1.7,1.8-2.8c-1.8,0-3.2-0.1-4.6,0
		c-1.2,0.1-2.5,0.2-3.1,1.6C175.1,73.6,174.3,74.7,173.5,76z M176.7,59.7c-1.4,1.4-2.6,2.5-3.8,3.7c-0.5,0.5-1.1,0.9-1.9,1.5
		c0.1,1.4,0.1,3,0.2,4.8c1.9-2,3.6-3.9,5.2-5.7c0.1-0.1,0.2-0.4,0.2-0.6C176.7,62.2,176.7,61.1,176.7,59.7z M175.7,35.1
		c-2.8-0.4-3.1-0.2-4.1,2.1c-0.2,0.4-0.4,0.8-0.6,1.2c-0.5,0.9-1.1,1.8-1.6,2.7c0.8,0,1.6,0,2.3,0c0.3,0,0.6-0.1,0.7-0.3
		C173.9,39.1,174.9,37.2,175.7,35.1z M176.9,53.8c-0.1-0.1-0.2-0.2-0.4-0.3c-1.2,1.3-2.4,2.6-3.6,3.9c-0.6,0.6-1.4,1.2-1.6,1.9
		c-0.3,0.9-0.3,2-0.4,3.1c0.2,0.1,0.3,0.2,0.5,0.2c0.3-0.4,0.5-0.8,0.8-1.1c1.5-1.6,3-3.2,4.6-4.8c0.1-0.1,0.1-0.3,0.1-0.5
		C176.9,55.4,176.9,54.6,176.9,53.8z M186.8,41c1.1-0.1,4.1-3.6,4.4-5.1c-1.3-0.2-2.5-0.4-3.8-0.7c-0.6-0.1-1,0-1,0.7
		C186.6,37.6,186.7,39.3,186.8,41z M176.6,66.9c-0.1,0-0.2-0.1-0.3-0.1c-0.5,0.5-0.9,1.1-1.5,1.5c-1.2,1-1.6,2.8-3.6,2.8
		c0.1,1.5,0.2,2.8,0.3,4.2c0.1,0,0.2,0.1,0.4,0.1c1.4-2.2,2.9-4.3,4.2-6.5C176.5,68.4,176.5,67.6,176.6,66.9z M172.4,50.9
		c1.2-1.5,2.2-3,3.5-4.1s1-2.5,1.1-3.8c-1.1,1.1-2,2.4-3.1,3.5C172.7,47.7,172.3,49,172.4,50.9z M173.1,42.4
		c0.1,0.7,0.1,1.4,0.2,2.2c1-1.2,1.8-2.5,2.9-3.5c1.6-1.5,0.9-3.3,0.9-5C175.7,38.3,174.8,40.7,173.1,42.4z M176.8,48.5
		c-1.3,1.6-2.6,3-3.9,4.5c-0.2,0.2-0.4,0.4-0.5,0.7c-0.2,0.6-0.3,1.2-0.4,1.7c0.1,0,0.2,0.1,0.4,0.1c1.2-1.2,2.4-2.4,3.5-3.7
		C176.6,50.9,177.3,49.9,176.8,48.5z M167.1,36.8c2.1-1.1,4.6-4.9,4.3-6.1c-1.3,1.7-2.7,3.3-3.9,5C167.3,36,167.2,36.4,167.1,36.8z
		 M171.9,26.2c-1.8,2-3.8,3.8-4.5,6.5C169.1,30.7,171.2,28.9,171.9,26.2z M167.6,40.1c0.1,0.1,0.3,0.2,0.4,0.2
		c0.8-1.3,1.5-2.5,2.3-3.8c-0.1-0.1-0.2-0.1-0.3-0.2C169.6,37.8,167.4,38.2,167.6,40.1z"/>
	<path d="M253.4,46.9c0-2,0.4-3.9,1.4-5.8c0.6-1.1,1.4-1.7,2.6-1.8c1.2-0.2,1.9,0.3,2.2,1.5c0.2,0.5,0.5,1,0.7,1.5
		c0.3,1,0.7,2,0.7,3.1c0.2,2,0.5,4-0.1,6c-0.5,1.6-2.2,3-3.8,3.1c-1.2,0-2-0.7-2.5-1.7C253.8,51.3,253.3,48.6,253.4,46.9z
		 M257.4,40.9c-0.2,0.2-0.5,0.3-0.6,0.5c-1,1.5-1.4,3.3-1.4,5.1c0,0.2,0.2,0.5,0.4,0.6c1.7,1.1,2.4,2.6,2.1,4.6
		c-0.1,0.4-0.1,0.7-0.1,1.1c0.1,0,0.2,0.1,0.4,0.1c0.4-0.6,0.9-1.1,1-1.7C259.7,47.6,259.3,44.1,257.4,40.9z M255.8,48.7
		c-0.2,0-0.3,0.1-0.5,0.1c0.3,1,0.5,1.9,0.8,2.9c0.2,0,0.3-0.1,0.5-0.1C256.3,50.7,256,49.7,255.8,48.7z"/>
	<path d="M93.1,41.5c-0.6,2.3-1.1,4.6-1.9,6.9c-0.2,0.8-0.9,1.5-1.5,2c-1.3,1.1-2.8,0.9-4-0.4c-1.8-2-1.6-4.4-1.3-6.8
		c0.2-1.5,0.5-3.1,1.5-4.4c1.3-1.6,2.8-2.3,4-1.8c2.2,1,2.9,1.5,2.8,4.4C92.9,41.5,93,41.5,93.1,41.5z M87.7,49.2
		c1.8-0.2,3.2-3.3,3.1-6C88.6,44.6,88.6,47,87.7,49.2z M88,43.5c0.1,0,0.2,0,0.3,0c0.8-0.9,1.7-1.8,2.4-2.8c0.2-0.2,0-0.7-0.1-1
		c-0.3,0.1-0.7,0.1-0.8,0.3c-0.6,0.8-1.3,1.6-1.8,2.5C87.9,42.7,88,43.1,88,43.5z M86.3,47.1c0.1,0,0.2,0,0.3,0
		c0.3-2.6,0.3-2.6-0.5-3.2C86.2,45.1,86.2,46.1,86.3,47.1z"/>
	<path d="M135.9,35.5c0.5,3-2.3,6.2-5,7.1c-1.4,0.4-2.8,0.8-4.3,0.4c-1-0.3-1.3-0.8-1.2-1.8c0.1-1.6,0-3.3,0.2-5
		c0.2-1.9,0.6-3.8,0.9-5.7c0.1-0.6,0.6-0.8,1.2-0.7c0.4,0.1,0.8,0.1,1.2,0c3.1-0.9,6.5,1.4,6.9,4.7
		C135.8,34.8,135.9,35.2,135.9,35.5z M133.8,33.8c-1.7,2.1-2.9,4.4-2.9,7.1C133.9,39.5,134.9,37,133.8,33.8z M127.6,36.9
		c-0.1,1.2-0.3,2.3-0.2,3.5c0,0.3,0.6,0.7,1,1c0.1,0,0.6-0.4,0.7-0.7c0.2-0.4,0.3-0.8,0.4-1.2C129.7,37.9,129.3,37.3,127.6,36.9z
		 M129.9,36.4c1-1.3,1.9-2.5,2.9-3.8c-0.2-0.2-0.5-0.5-1-0.9c-1,1.4-1.9,2.7-2.9,4C129.3,35.9,129.6,36.1,129.9,36.4z M127.8,34.7
		c0.9-1.2,1.7-2.3,2.5-3.4C127.7,31.5,127.4,31.9,127.8,34.7z"/>
	<path d="M154.7,48.9c-1.6,0.1-1.8-0.3-1.4-1.8c0.5-1.7,0.7-3.5,1.1-5.2c0.3-1.4,0.6-2.8,1.1-4.1c0.2-0.5,0.8-0.8,1.2-1.2
		c0.3,0.5,0.8,0.9,0.9,1.4c0.6,2.5,1.1,5.1,1.6,7.6c0.1,0.5,0.2,0.9,0.3,1.4c0.1,0.9-0.4,1.5-1.3,1.6
		C157.1,48.7,155.9,48.8,154.7,48.9z M155.5,45c2-1.1,1.4-2.7,0.9-4.2C156,42.1,155.8,43.5,155.5,45z M157.9,46.8
		c-0.1-0.5-0.2-1-0.3-1.6c-0.5,0.7-0.9,1.2-1.5,2C156.8,47,157.3,46.9,157.9,46.8z"/>
</g>
<path d="M206.1,92.7c-0.2,0.9-0.3,1.8-0.7,2.1c-0.9,0.7-1.9-0.1-1.8-1.3c0.3-2.1,0.6-4.3,1-6.4c0.2-1.2,0.9-2,2.3-2.1
	c1.3,0,2.2,0.4,2.8,1.6c1.2,2.5,1.4,5.2,1.1,7.9c0,0.3-0.6,0.7-0.8,0.7c-0.4-0.1-0.8-0.4-0.9-0.8c-0.3-0.7-0.1-1.5-0.4-2.2
	c-0.2-0.4-0.9-1-1.3-0.9C206.9,91.4,206.5,92.1,206.1,92.7 M206.7,89c0.5,0.1,1.1,0.1,1.6,0.2c-0.1-0.3,0-0.7-0.2-0.9
	c-0.3-0.4-0.8-0.7-1.1-1.1C206.8,87.8,206.6,88.3,206.7,89"/>
<path class="st0" d="M225.7,92.7c-0.4,0.7-0.6,1.4-1,1.8c-1.1,0.9-2.5,0.3-2.8-1.4c-0.3-1.8-0.5-3.7-0.6-5.5c0-0.6,0.4-1.2,0.7-1.8
	c0.4,0.6,1,1.1,1.1,1.8c0.3,1.3,0.2,2.6,0.3,4c0.1,0.4,0.3,0.7,0.4,1.1c0.3-0.3,0.6-0.6,0.8-1c0.4-0.7,0.6-1.5,1-2.2
	c0.7-1.2,2.1-1.2,2.8,0.1c0.3,0.6,0.4,1.3,0.7,1.9c0.2,0.4,0.4,0.7,0.7,1c0.3-0.3,0.7-0.7,0.8-1.1c0.3-1.1,0.6-2.3,0.7-3.5
	c0.1-0.9,0.5-1.4,1.3-1.7c0.2,0.6,0.7,1.3,0.6,1.9c-0.3,1.7-0.7,3.4-1.2,5.1c-0.3,1-2,1.3-3,0.5c-0.6-0.5-0.9-1.4-1.4-2.2
	c-0.2-0.3-0.4-0.6-0.5-0.8c-0.2,0.3-0.5,0.4-0.6,0.7C226.1,91.6,226,92.1,225.7,92.7"/>
<path class="st1" d="M237.9,88.5c0.7,0.3,1.4,0.4,2.1,0.7c0.5,0.2,0.9,0.5,1.3,0.8c-0.4,0.3-0.8,0.5-1.3,0.7c-0.1,0.1-0.2,0-0.3,0
	c-0.7,0.3-2.1,0-1.8,1.2c0.2,1.1,1.2,0.6,2,0.4c0.4-0.1,0.9,0.4,1.4,0.6c-0.3,0.4-0.5,1-0.8,1.1c-0.7,0.3-1.6,0.4-2.4,0.3
	c-1.4-0.1-2.1-1-2.1-2.4c-0.1-1.5-0.2-3-0.3-4.6c-0.1-1.2,0.6-1.8,1.8-1.8s2.3,0,3.5,0.1c0.3,0,0.5,0.6,0.7,0.9
	c-0.4,0.2-0.8,0.5-1.3,0.6C239.4,87.4,238.2,86.9,237.9,88.5"/>
<path class="st1" d="M282.3,84.2c1.3-1,1.9-0.1,2.1,0.9c0.4,2,0.7,4.1,0.9,6.2c0.1,0.5-0.3,1.5-0.6,1.6c-0.8,0.3-1.3-0.4-1.4-1.2
	C282.9,89.2,282.5,86.7,282.3,84.2"/>
<path class="st1" d="M281.4,91c0.1,0.8,0.1,1.5,0,2.3c0,0.4-0.3,0.8-0.4,1.1c-0.4-0.3-1-0.5-1.1-0.9c-0.3-1.1-0.5-2.2-0.7-3.3
	c-0.1-0.7-0.2-1.4-0.3-2c-0.1-0.4-0.4-0.9-0.7-0.9c-0.4-0.1-1,0.2-1.1,0.5c-0.3,0.6-0.5,1.4-0.6,2.1c-0.1,1,0,2-0.1,3
	c-0.1,0.4-0.6,0.7-0.8,1c-0.3-0.3-0.9-0.6-1-1c-0.3-1.7-0.4-3.5-0.7-5.2c0-0.3-0.3-0.7-0.5-1c-0.3,0.3-0.8,0.6-0.8,0.9
	c-0.3,1.5-0.4,3-0.5,4.5c-0.1,0.7,0.2,1.5-1,1.5c-1.1,0-0.8-0.8-0.9-1.4c-0.3-1.9-0.7-3.8-1-5.7c0-0.4,0-0.8,0.1-1.2
	c0.3,0,0.7,0,1.1,0.1c0.2,0,0.3,0.2,0.5,0.2c1.1-0.1,2.4-0.6,3.4-0.3c1.1,0.4,2,1,3.3,0.3c1.5-0.8,3.2,0.3,3.4,2.1
	C281,88.6,281.1,89.8,281.4,91"/>
<path class="st1" d="M244.7,94.8c-0.5-2.7-0.9-5.4-1.2-8.1c-0.1-0.9,2.2-2,3.4-1.8c1.3,0.3,2.6,2,2.1,3c-0.5,1.1-0.3,1.7,0.4,2.5
	c1.4,1.4,0.4,3.6-1.2,4.5C247.1,95.7,245.9,96.2,244.7,94.8 M247.2,91c-1.8,0.1-1,1.2-0.8,2c0.1,0.4,0.2,0.8,0.3,1.1
	c0.4-0.3,0.9-0.7,1.2-1.1C248.4,92.2,248.1,91.5,247.2,91 M245.7,87.7c0.2,0.6,0.3,1.1,0.4,1.7c0.4-0.4,0.9-0.8,1-1.4
	c0.1-0.3-0.3-0.8-0.5-1.3C246.4,87,246.2,87.3,245.7,87.7"/>
<path class="st1" d="M263.2,92.8c-2.6-1.5-3.2-3.7-1.9-6.4c0.6-1.2,1.5-2,2.7-2c1.2,0.1,2,0.9,2.4,2.3c0.6,2,0.1,3.7-1,5.2
	C265.1,92.4,264.1,92.5,263.2,92.8 M264.8,88.9c-0.1-0.8,0-1.7-0.3-2.4c-0.3-0.8-0.9-0.4-1.3-0.1c-0.8,0.8-0.9,3.2-0.3,4.1
	c0.2,0.2,1,0.3,1.3,0.1C264.6,90.3,264.6,89.6,264.8,88.9"/>
<path class="st1" d="M258.1,86.9c-1.2-0.2-2.2-0.8-2.9,0.7c-0.5,1.1-0.5,3.3,0.3,3.8c0.5,0.3,1.4,0.3,2,0.3c0.4,0.1,0.8,0.1,1.2,0.1
	c-0.2,0.3-0.2,0.8-0.5,1c-1.3,1.5-3.5,1.2-4.6-0.5c-1.6-2.3-0.8-5.5,1.1-7c1.1-0.8,3.4-0.5,3.9,0.7
	C258.7,86.3,258.3,86.6,258.1,86.9"/>
<path class="st1" d="M292.9,86.1c-1.2-0.2-2.2-0.8-2.9,0.7c-0.5,1.1-0.5,3.3,0.3,3.8c0.5,0.3,1.4,0.3,2,0.3c0.4,0.1,0.8,0.1,1.2,0.1
	c-0.2,0.3-0.2,0.8-0.5,1c-1.3,1.5-3.5,1.2-4.6-0.5c-1.6-2.3-0.8-5.5,1.1-7c1.1-0.8,3.4-0.5,3.9,0.7
	C293.5,85.5,293.1,85.8,292.9,86.1"/>
</svg>
