<?xml version="1.0" encoding="utf-8"?>
<!-- Generator: Adobe Illustrator 23.1.0, SVG Export Plug-In . SVG Version: 6.00 Build 0)  -->
<svg version="1.1" id="Layer_1" xmlns="http://www.w3.org/2000/svg" xmlns:xlink="http://www.w3.org/1999/xlink" x="0px" y="0px"
	 viewBox="0 0 309 107" style="enable-background:new 0 0 309 107;" xml:space="preserve">
<style type="text/css">
	.st0{stroke:#000000;stroke-width:0.5;stroke-miterlimit:10;}
	.st1{stroke:#000000;stroke-width:0.25;stroke-miterlimit:10;}
</style>
<g>
	<path d="M240.8,62.2c-0.3,2-0.3,4-0.9,5.7c-0.5,1.5-1.1,2.9-1.4,4.4c-0.2,1.1-0.5,2-1.3,2.8c-0.2,0.2-0.5,0.5-0.8,0.6
		c-2.6,0.3-5.2,0.5-7.8,0.8c-1.1,0.1-1.7-0.4-2-1.3c-0.4-1-0.6-2-1-2.9c-1.1-2.8-2.2-5.7-3.3-8.5c-0.1,0.8-0.2,1.6-0.2,2.4
		c-0.1,0.9-0.5,1.6-1.3,2.1c-0.3,0.2-0.6,0.7-0.7,1.1c-0.2,2.3-1.7,3.9-2.9,5.7c-0.2,0.3-0.8,0.5-1.2,0.6c-2.4,0.3-4.8,0.5-7.1,0.7
		c-1,0.1-1.9,0.2-2.9,0.2c-0.9,0-1.6-0.3-1.7-1.3c0-1.8-0.2-3.6-0.1-5.4c0.4-7.7,0.8-15.3,1.2-23c0.1-1,0.2-2,0.3-3
		c0.1-0.7,0.2-1.5-0.5-2c-0.2-0.1-0.2-0.8,0-1c1.4-1.6,1.5-3.7,1.8-5.6c0.2-0.9,0.5-1.7,1.1-2.3c1.5-1.4,2.9-3,4.3-4.5
		c1.7-1.8,3.7-2.2,6.1-1.8c1.5,0.3,3,0.4,4.5-0.3c0.8-0.4,1.3,0.1,1.6,0.9c1.2,2.8,2.5,5.6,3.7,8.4c0,0.1,0.1,0.1,0.3,0.2
		c1.1-1.3,2.3-2.6,3.4-3.9c0.6-0.7,1-1.6,1.6-2.3c0.2-0.3,0.7-0.4,1-0.4c2.2-0.1,4.3-0.2,6.5-0.3c1.1,0,1.2,0.2,1,1.3
		c-0.2,1.3-0.2,2.6-0.3,3.9c-0.2,3.5-0.5,7-0.7,10.5c0.1,0,0.2,0.1,0.3,0.1c0.2-0.4,0.3-0.7,0.5-1.1c1-3.6,2.6-6.8,5.3-9.4
		c0.9-0.9,2.1-1.4,3.2-2.2c0.2-0.1,0.4-0.3,0.6-0.4c3-2.4,7.4-2,10,0.8c2.8,2.9,3.8,6.6,5,10.3c1.1,3.4,1.2,7.1,1,10.6
		c-0.1,2.4-0.9,4.8-1.3,7.2c-0.5,3.3-2.9,5-5.3,6.7c-0.8,0.6-1.5,1.1-1.6,2.1c0,0.1,0,0.2-0.1,0.3c-1.2,1.1-2.4,2.4-3.7,3.4
		c-1.1,0.7-2.4,1.2-3.7,1.3c-3,0.3-5.2-1.2-7-3.4c-1.8-2.3-2.7-5-3.4-7.8C240.9,62.5,240.9,62.4,240.8,62.2z M240.4,30.2
		c-1.5,0-2.8,0-4.1,0c-0.9,0-1.3,0.5-1.3,1.3c0,1,0.1,1.9,0,2.9c-0.2,3.7-0.5,7.3-0.7,11c-0.1,1.6-0.3,3.1-0.4,4.7
		c-0.1,0.8-0.6,1.1-1.3,1.1s-0.8-0.5-0.8-1.1c0-0.8-0.1-1.7-0.4-2.4c-1.2-3.2-2.4-6.5-3.8-9.7c-1.4-3.2-2.9-6.4-4.4-9.6
		c-0.1-0.3-0.5-0.6-0.8-0.6c-1.7-0.1-3.4,0-5.1-0.1c-0.8,0-1.2,0.1-1.2,1c-0.2,5.5-0.4,11-0.5,16.5c-0.1,6-0.1,12-0.3,18
		c-0.1,3.4-0.4,4,3.9,3.6c1-0.1,1.3-0.6,1.4-1.4c0.1-1.3,0.2-2.6,0.2-4c0-2.6-0.1-5.1,0-7.7c0.2-3.8,0.4-7.6,0.7-11.4
		c0-0.2,0.2-0.5,0.4-0.7c0.8-0.6,1.5-0.4,1.8,0.6c1.5,4.2,3,8.5,4.3,12.7c1.2,3.8,2.3,7.7,3.5,11.6c0.4,1.2,0.9,1.6,2.2,1.5
		c1.2-0.1,2.4-0.2,3.5-0.2c1,0,1.4-0.4,1.5-1.3c0.1-1.6,0.4-3.3,0.4-4.9c-0.2-7.9,0.5-15.8,1-23.8C240.2,35.3,240.3,32.8,240.4,30.2
		z M247,47.9c-0.3,3.2,0.5,6.4,1.5,9.6c0.9,2.9,2,5.8,4.4,8c1,0.9,2,1.3,3.2,1.1c1-0.1,2.3,0.4,2.9-1c0-0.1,0.4-0.1,0.7-0.2
		c0.2-0.1,0.5,0,0.7-0.2c1.3-1,2.6-2,3.2-3.6c1.2-3.2,1.8-6.5,1.8-9.9c0-3-0.3-5.9-1.1-8.8c-1-3.6-2.2-7-4.7-9.9
		c-2.2-2.6-6.2-2.4-7.9-0.1c-0.8,1.1-1.5,2.2-2.1,3.3C247.7,39.7,246.8,43.6,247,47.9z M237.9,69.2c-1.4,0-2.5,0-3.7,0s-2.4,0-3.8,0
		c-0.4,1.9-0.7,3.7-1.2,5.9c1.9-0.2,3.5-0.4,5.1-0.6c1.1-0.1,1.9-0.6,2.3-1.6C237.1,71.8,237.4,70.6,237.9,69.2z M206.5,53.5
		c2.5-2,5-5.3,6.5-8c1-1.7,1.1-3.5,1.1-5.4c-0.2,0.1-0.3,0.2-0.4,0.2c-1.9,2.1-3.8,4.3-5.6,6.5c-0.5,0.6-1,1.2-1.2,1.8
		C206.6,50.2,206.6,51.7,206.5,53.5z M208.6,74.8c1.6-0.2,3.1-0.4,4.6-0.4c1.9,0,3.2-1,4.2-2.5c0.7-1.1,1.3-2.2,1.2-3.5
		c-1.4-0.1-2.7-0.1-4-0.2c-0.2,0-0.5,0.2-0.7,0.4c-0.8,0.9-1.5,1.9-2.3,2.8C210.7,72.5,209.7,73.5,208.6,74.8z M207.2,44.6
		c0.1,0.1,0.2,0.1,0.4,0.2c1.3-1.4,2.6-2.8,3.8-4.3c1.1-1.4,2.2-2.9,2.7-4.5c0.5-1.5,0.2-3.2,0.3-4.8c-0.4,0.2-0.7,0.5-0.8,0.8
		c-0.6,1.8-1.7,3.1-3.1,4.4c-0.9,0.9-2,1.8-2.4,2.9C207.5,41,207.5,42.8,207.2,44.6z M247.9,71.4c3.3,2.6,8.6-0.6,9.5-3.6
		c-2.1,0.2-4.2,0.3-5.9-1.3C250.3,68.2,249.1,69.7,247.9,71.4z M213.3,54.2c-2.2,2.8-4.3,5.6-6.6,8.3c-1,1.2-0.6,2.4-0.7,3.7
		c2.2-2.2,4.3-4.5,6.2-6.9C213.3,57.9,214.2,56.4,213.3,54.2z M206.3,59.7c0.2-0.2,0.4-0.3,0.5-0.4c2-2.4,4-4.8,6.1-7.1
		c1-1.2,0.9-2.5,0.8-3.8c-1.1,1.3-2.1,2.6-3.2,3.8c-0.9,1-1.9,2-2.8,3c-0.4,0.4-0.8,0.9-1.1,1.4c-0.1-0.1-0.2-0.1-0.3-0.2
		C206.3,57.4,206.3,58.5,206.3,59.7z M213.6,61.1c-0.3,0.2-0.5,0.3-0.6,0.4c-2,2.2-4,4.4-6.1,6.6c-1.1,1.2-1.4,2.7-0.9,4.1
		c2.1-2.4,4.2-5.1,6.6-7.5C213.6,63.6,213.6,62.5,213.6,61.1z M228.9,64.6c-1,1.3-2,2.4-2.8,3.5c-0.2,0.2-0.3,0.7-0.2,1
		c0.6,1.6,1.2,3.2,1.9,4.9c0.1-0.3,0.2-0.5,0.2-0.7c0.4-2,0.7-4,1.3-5.9C229.5,66.4,229.5,65.6,228.9,64.6z M249.2,63.8
		c-1.1,1.4-2.1,2.6-3,3.9c-1,1.4-1,1.7,0.5,2.7c1.3-1.7,2.5-3.3,3.8-5C250,64.9,249.7,64.4,249.2,63.8z M244.4,67.3
		c1.1-1.4,2.2-2.7,3.2-4c0.9-1.1,0.8-1.6-0.2-2.7c-1.1,1.3-2.1,2.6-3.2,3.9C243.4,65.4,243.6,66.3,244.4,67.3z M242.2,49.9
		c2.9-1.4,3.1-4.1,3-6.8C242.9,44.3,242.1,46.1,242.2,49.9z M241.8,55.4c0.1,0.1,0.2,0.1,0.3,0.2c0.7-0.8,1.4-1.6,2.2-2.3
		c1.2-1,1-2.2,0.5-3.5c-1,0.8-1.9,1.5-2.8,2.2c-0.1,0.1-0.2,0.4-0.2,0.6C241.8,53.5,241.8,54.4,241.8,55.4z M225.1,67
		c1-1.2,1.9-2.4,2.8-3.4c0.8-1,0.6-1.8,0-2.9c-1,1.2-2,2.3-2.8,3.4C224.4,64.9,224.3,65.8,225.1,67z M226.8,57.2
		c-0.9,1-1.9,2-2.8,3.1c-0.9,1-0.9,1.5,0,2.8c0.9-1,1.8-2,2.7-3C227.7,58.8,227.7,58.7,226.8,57.2z M225.6,53.5
		c-0.8,1-1.5,1.8-2.3,2.6c-1.1,1.2-1.1,1.6-0.2,3c0.8-1,1.6-2,2.5-2.9C226.4,55.3,226.2,54.5,225.6,53.5z M242.2,60.2
		c1.1-1.4,2.1-2.8,3.2-4.1c0.6-0.7,0.6-1.2,0-1.9c-0.7,0.8-1.4,1.5-2.2,2.2C242,57.3,241.6,58.5,242.2,60.2z M208.8,35.7
		c0.1,0.1,0.2,0.1,0.3,0.2c1.2-1.6,2.4-3.3,3.7-4.9c0.4-0.5,0.7-1.1,1.3-1.5c0.5-0.4,0.6-0.3,0.3-1.2c-1.3,1.4-2.6,2.9-3.9,4.1
		C209.3,33.3,208.9,34.4,208.8,35.7z M224.4,49.3c-1.8,1.6-2.5,3.8-1.9,5.6c0.6-0.7,1-1.4,1.6-1.9C225.3,51.9,225.3,50.7,224.4,49.3
		z M246.3,57.3c-0.3,0.4-0.5,0.7-0.7,1c-0.8,1.1-1.6,2.2-2.4,3.2c-0.5,0.6-0.6,1.1-0.1,2c1.1-1.4,2.2-2.8,3.3-4.1
		C247,58.7,246.9,58.2,246.3,57.3z M229.5,37.8c2.5-1.3,4.1-3.7,3.5-5.1C231.6,34.2,230.2,35.6,229.5,37.8z M233.1,36.6
		c-0.8,0.7-1.4,1.4-2.1,1.9c-1,0.7-0.7,1.4-0.1,2.2C232,39.5,233.8,38.8,233.1,36.6z M207.6,72.9c0.1,0.1,0.2,0.1,0.3,0.2
		c2-1.5,5.2-5.6,5.3-6.9C211.2,68.5,209.4,70.7,207.6,72.9z M247.8,35.3c-1.7,2-2.9,4.1-3.8,6.7c0.8-0.8,1.6-1.2,2-1.9
		C246.6,38.7,247.1,37.1,247.8,35.3z M232.9,40.8c-1.9,1.2-1.9,2-0.3,3.9C232.7,43.4,232.8,42.2,232.9,40.8z M222.8,48.7
		c1.3-1,1.4-1.7,0.2-2.9C222.9,46.8,222.8,47.7,222.8,48.7z"/>
	<path d="M71.4,59.7c-0.4,1.4-0.6,2.9-1.2,4.2c-1.1,2.3-2.4,4.4-3.5,6.7c-0.6,1.3-1.6,1.7-2.8,1.9c-1.7,0.3-3.4,0.6-5,0.9
		c-0.9,0.2-1.9-0.6-2.3-1.7c-0.7-1.8-1.3-3.6-2.1-5.7c-1.1,1.6-2,3-2.9,4.4c-0.7,1-1.6,1.9-2.4,2.9c-0.1,0.2-0.4,0.3-0.4,0.5
		c0,1.4-1.2,1.5-2.1,1.8c-2.6,0.7-5.2,1.3-7.8,2c-0.5,0.1-1,0.4-1.5,0.7c-1.1,0.5-2,0.2-2.1-1c-0.2-2.9-0.4-5.8-0.4-8.8
		c-0.1-5.2-0.1-10.5,0-15.7c0.1-3.6,0.7-7.2,0.9-10.9c0.1-1.5,0-3.1,0-4.6c0-0.4,0.2-0.8,0.4-1.1c1.4-1.3,2.9-2.5,4.3-3.7
		c0.3-0.2,0.5-0.6,0.6-1c0.2-1.3,0.6-1.8,1.9-2c3-0.3,6.2-0.7,9.3-1.1c0.6-0.1,1,0.1,1.3,0.8c1.3,2.4,2.7,4.7,4.2,7.3
		c0.4-0.5,0.5-0.7,0.7-0.9c1-1.5,2-3,3-4.5c0.7-1.2,1.8-1.5,3.1-1.6c1.8-0.2,3.6-0.3,5.4-0.4c1.5-0.1,2,0.3,1.9,1.8
		c-0.2,2.8-0.5,5.6-0.7,8.4c-0.1,2.8,0,5.6,0,8.5c0,0.3,0.1,0.5,0.2,1.1c0.5-1.3,1-2.4,1.4-3.4c1.8-4.4,4.1-8.4,7.9-11.4
		c2.9-2.3,5.9-4.6,9.9-4.8c0.8,0,1.6,0.2,2.3,0.6c2.8,1.7,4,4.3,4.4,7.5c0.4,3.8,0.4,7.6,0.1,11.4c-0.3,3.6-1,7-2.3,10.4
		c-0.9,2.5-2.8,4-4.9,5.4c-1.4,0.9-2.6,2-3.8,3.1c-1.4,1.3-2.9,2.2-4.8,2.6c-3.3,0.6-5.8-0.5-7.4-3.4c-1-1.8-1.6-3.8-2.3-5.7
		C71.6,60.7,71.5,60.2,71.4,59.7z M43.4,31.2c0.1,0.4,0.2,0.7,0.2,1c0.2,4.3,0.3,8.6,0.6,13c0.2,4.3,0.6,8.6,0.9,12.9
		c0.2,2.5,0.4,5.1,0.6,7.6c0.1,0.9,0.5,1.2,1.4,1c1.3-0.3,2.6-0.6,4-0.9c1-0.2,1.4-0.6,1.3-1.6c-0.2-3-0.4-6-0.4-9
		c0-4,0-7.9,0.1-11.9c0-0.9,0.8-1.4,1.6-0.9c0.3,0.2,0.6,0.5,0.8,0.9c1,2,2,4,2.9,6c1.2,2.6,2.3,5.1,3.5,7.7
		c0.8,1.6,1.6,3.3,2.6,4.8c0.3,0.5,1,1,1.6,1.2c0.9,0.2,1.8,0,2.8,0s1.6-0.5,1.7-1.5c0.1-2.6,0.4-5.2,0.4-7.8
		c0.1-5.7,0-11.4,0.1-17.1c0-1.6,0.3-3.3,0.4-4.9c0.1-0.7-0.2-1.1-1-1c-1.3,0.1-2.6,0.2-3.9,0.4c-1.3,0.1-1.6,0.3-1.6,1.6
		c-0.2,4.6-0.3,9.3-0.6,13.9c0,0.5-0.6,1-1,1.3c-0.1,0.1-0.8-0.4-1-0.7c-0.8-1.8-1.5-3.6-2.4-5.4c-1.3-2.4-2.7-4.7-4.1-7
		c-0.7-1.3-1.5-2.5-2.3-3.7c-0.2-0.3-0.5-0.6-0.8-0.5C48.9,30.6,46.2,30.9,43.4,31.2z M95.8,42.3c0-0.2,0-0.5,0-0.7
		c-0.2-2-0.4-4.1-0.8-6.1c-0.4-1.8-1.6-3.2-3.3-4.1c-0.5-0.3-1.1-0.6-1.6-0.5c-4.2,0.8-7.2,3.1-8.8,7.3c-1.9,5-2.5,10.1-1.8,15.4
		c0.4,2.8,0.9,5.7,2.5,8.1c1,1.6,2.5,2.8,4.4,2.4c3.4-0.6,5.9-2.3,7.2-5.8C95.6,53.1,95.6,47.7,95.8,42.3z M39.8,75.7
		c0.3,0,0.6,0,0.8,0c1.6-0.4,3.2-0.8,4.8-1.3c0.3-0.1,0.6-0.2,0.9-0.4c0.9-0.9,1.8-1.8,2.6-2.8c0.8-1.1,1.6-2.2,2.3-3.3
		c-1-0.1-1.8,0-2.6,0.2c-2.1,0.5-4.3,0.4-5.5,2.9C42.4,72.7,41,74.1,39.8,75.7z M60.1,71.4c2.5,0,4.7-0.3,5.9-2.7
		c0.7-1.3,1.5-2.5,2.3-4c-1.4,0-2.5,0-3.6,0c-1.1,0.1-1.7,0.7-2,1.7c-0.2,0.5-0.4,1.1-0.7,1.6C61.4,69.1,60.8,70.2,60.1,71.4z
		 M44.1,66.1c-0.2-0.1-0.3-0.2-0.5-0.3c-1.9,1.7-3.7,3.5-5.7,5.1c-1.8,1.5-0.8,3.2-0.7,5c0.8-0.8,1.5-1.5,2.2-2.4
		c1.4-2,2.8-3.9,4.2-5.9C43.9,67.2,43.9,66.6,44.1,66.1z M43.3,56.5c-0.6,0.4-0.9,0.6-1.2,0.8c-1.3,1.2-2.7,2.4-4,3.5
		c-1.6,1.3-1.7,1.9-1.1,3.9c2.2-1.6,4.3-3.3,6.7-5C43.5,58.9,43.4,57.8,43.3,56.5z M42.7,52.3c-0.3,0.2-0.6,0.3-0.9,0.5
		c-1.3,1-2.7,1.9-4,2.9s-1.7,2.7-1,4.3c1.6-1.4,3.3-2.8,4.9-4.1C43.3,54.7,43.4,54.4,42.7,52.3z M43.5,61.5
		c-1.8,1.4-3.6,2.8-5.3,4.1c-1.5,1.2-1.8,2.2-1.1,4.1c1.6-1.3,3.2-2.7,4.8-4C43.1,64.6,44.1,63.5,43.5,61.5z M36.8,54.9
		c1.5-1.1,2.9-2.1,4.4-3.1c2.1-1.3,1.8-0.9,1.4-3.8c-0.2,0.1-0.5,0.2-0.6,0.4c-1.3,1.1-2.6,2.3-4,3.3C36.6,52.5,36.7,53.5,36.8,54.9
		z M42.4,43.7c-0.5,0.3-0.9,0.5-1.2,0.8c-1,1-2,2.1-3.1,2.9c-1.2,0.8-1.1,1.9-1.1,3.2c1.6-1.2,3-2.3,4.4-3.4
		C42.8,46.2,43,45.7,42.4,43.7z M61.8,62.7c-0.1,0-0.2,0-0.4,0c-1.3,1.9-2.7,3.8-4.1,5.9c0.3,0.7,0.7,1.4,1.1,2.1c0.1,0,0.2,0,0.4,0
		c1.1-2.2,2.2-4.4,3.2-6.7C62.1,63.7,61.9,63.2,61.8,62.7z M77.3,51.4c-0.1-0.1-0.3-0.2-0.4-0.3c-0.2,0.3-0.3,0.6-0.5,0.9
		c-0.8,1.3-1.5,2.8-2.6,3.9s-0.6,2-0.4,3.3c1.1-1.4,2-2.8,3-3.9C77.7,54.1,77.5,52.8,77.3,51.4z M77.3,46.2c-1.8,2.3-4.5,4.2-4.3,8
		c1.1-1.5,1.9-3,3.2-3.9C77.6,49,77.4,47.7,77.3,46.2z M37.5,46.1c1.3-1.1,2.4-2.2,3.7-3.2c1.5-1.1,1.5-1.1,1.1-3.2
		c-1.1,0.9-2.1,1.9-3.3,2.6C37.7,43.3,37.1,44.5,37.5,46.1z M58.4,56.1c-1.2,1.7-2.3,3.3-3.4,5c-0.5,0.8-0.3,1.5,0.3,2.2
		c0.3-0.4,0.5-0.7,0.8-1c0.9-1.2,1.6-2.4,2.6-3.5C59.5,57.9,59.2,57.2,58.4,56.1z M80.4,63.3c-1.2,1.5-2.3,2.9-3.4,4.3
		c1.2,1.4,1.6,1.4,2.6,0.1c0.8-1.1,1.4-2.2,2.2-3.3C81.2,64,80.9,63.7,80.4,63.3z M54,59.5c1.2-1.5,2.2-2.8,3.3-4.2
		c0.8-1,0.6-1.7-0.6-2.5C55.9,55,53.1,56.3,54,59.5z M79.1,38.2c-2.1,2.9-3.6,5.8-4.8,9.1C77,44.8,78.8,42,79.1,38.2z M37.7,41.9
		c1.2-1,2.4-1.9,3.6-2.8c1.2-0.9,1.3-1.3,0.7-2.9c-1.2,1.1-2.2,2.3-3.5,3.3C37.6,40.1,37.5,40.8,37.7,41.9z M60.1,59.4
		c-1.3,1.9-2.4,3.5-3.6,5.1c-0.5,0.7-0.4,1.3,0.3,1.9c1.5-1.7,2.7-3.6,3.6-5.6C60.5,60.5,60.2,60.1,60.1,59.4z M77.5,56.4
		c-0.1,0.3-0.2,0.7-0.4,1c-0.8,1.1-1.6,2.3-2.5,3.3c-0.7,0.7-0.6,1.3-0.1,2.1c1.1-1.3,2-2.6,3.1-3.7C78.3,58.3,78.4,57.6,77.5,56.4z
		 M78.7,60.1c-1.2,1.6-2.3,3.1-3.3,4.6c-0.1,0.2,0.2,0.7,0.3,1.1c0.1,0,0.2,0,0.4,0c1-1.2,1.9-2.5,2.9-3.7
		C79.4,61.6,79.3,61,78.7,60.1z M53.7,54.6c0.4-0.5,0.7-0.9,1-1.3c0.3-0.4,0.6-0.8,0.9-1.2c0.9-1.1,0.9-1.8-0.2-2.8
		C53.6,50.6,53.2,52.4,53.7,54.6z M80.8,68.9c2-0.4,3.3-1.5,4.5-2.9c-0.9-0.2-1.6-0.4-2.2-0.6C82.4,66.6,81.7,67.7,80.8,68.9z
		 M42.2,33.3c-0.1-0.1-0.2-0.1-0.4-0.2c-1.2,1.8-3.8,2.5-4,5.1c0.2,0,0.4-0.1,0.5-0.2c1.2-1.2,2.4-2.4,3.5-3.7
		C42.1,34.1,42.1,33.6,42.2,33.3z M53.5,49.3c1.2-1.5,1.2-2.5,0-3.9C53.5,46.7,53.5,47.9,53.5,49.3z M60.4,40.7
		c1.2-0.6,1.6-1.4,1.1-2.6C60.2,39.2,59.9,39.9,60.4,40.7z M60.5,35.6c1.4-0.2,1.7-0.9,1.3-2.1C61.4,34.2,61,34.8,60.5,35.6z"/>
	<path d="M144.3,33.1c1.8-1.8,3.8-3.7,5.8-5.7c0.1-0.1,0.3-0.2,0.3-0.3c1.3-2.2,3.3-1.6,5.3-1.4c2,0.3,4,0.7,6,1.1
		c0.4,0.1,1,0.5,1,0.8c0.5,3.2,1,6.3,1.4,9.5c0.8,6.2,1.5,12.3,2.3,18.5c0.2,1.9,0.2,3.8,0.5,5.6c0.4,3.2-0.5,6.2-1.6,9.1
		c-0.3,0.8-0.7,1.5-1,2.3c-0.5,1.2-1.4,1.7-2.6,1.6c-2,0-3.9,0-5.9,0c-0.9,0-1.9-0.8-2-1.7c-0.3-1.8-0.6-3.5-1-5.3
		c-0.1-0.4-0.5-0.8-0.8-0.9c-0.4-0.1-1.1,0-1.4,0.3c-0.9,0.9-1.6,1.9-2.3,2.9c-1.1,1.3-2.5,2.1-4.2,2.3c-2.1,0.2-4.1,0.5-6.2,0.7
		c-0.2,0-0.5,0-0.7,0c-1.7,0-2.4-0.7-2-2.4c0.6-2.7,1.1-5.5,1.8-8.2c0.6-2.6,1.4-5.1,2.1-7.6c0.9-3.3,1.8-6.7,2.7-10.1
		c-1.9,1.9-3.6,3.8-5,6.1c-2.6,4.2-6,7.7-11.1,8.8c-0.7,0.1-0.9,0.5-1,1.2c-0.1,1.3-0.2,2.6-0.3,3.9c-0.2,2.2-1.4,3.9-2.5,5.7
		c-0.7,1.1-1.4,2.2-2.1,3.2c-0.2,0.3-0.7,0.5-1,0.5c-3.1,0.1-5.9,0.2-8.8,0.2c-1,0-1.5-0.6-1.5-1.8c0-1.3,0.1-2.6,0-4
		c0-0.7-0.2-1.4-0.3-2.1c0-0.2-0.1-0.4,0-0.6c0.2-1.3,0.5-2.6,0.6-4c0.3-2.7,0.8-5.4,0.9-8.1c0.1-2.2,0.3-4.5,0.9-6.6v-0.1
		c-0.9-1.7,0.5-3.2,0.4-4.8c0-1.7,0.3-3.5,0.4-5.2c0-0.5-0.2-0.9-0.3-1.4c0-0.2-0.2-0.4-0.1-0.5c0.9-1.6,0.3-3.3,0.7-4.9
		c0.1-0.6,0.5-1.2,0.9-1.6c2.2-1.9,4.4-3.8,6.8-5.5c0.7-0.5,1.9-0.6,2.8-0.5c2.1,0.1,4.3,0.4,6.3,0.8c2.7,0.5,5.4,1.1,8,1.9
		s4.2,2.9,5.7,5C143.1,30.9,143.7,32.1,144.3,33.1z M116.5,64.8c1.9,0,3.6,0,5.3,0c0.2,0,0.6-0.4,0.7-0.7c0.2-0.9,0.4-1.8,0.4-2.7
		c0.2-3.4,0.4-6.8,0.7-10.2c0.1-1,0.7-1.4,1.7-1.2c0.5,0.2,1,0.3,1.6,0.3c3.4,0,6.5-1,9.3-2.9c0.8-0.6,1.4-1.4,2.2-2
		c2.2-1.6,3.7-3.7,4.2-6.3c0.7-3,0.5-5.9-1.6-8.4c-0.5-0.6-1-1.1-1.4-1.7c-1.2-1.6-2.7-2.7-4.6-3.1c-2.5-0.6-5-1.2-7.5-1.6
		c-1.4-0.3-2.8-0.3-4.3-0.4c-0.5,0-1.3,0.2-1.4,0.6c-0.4,1.1-0.8,2.2-0.9,3.4c-0.6,4.4-1.2,8.8-1.8,13.2c-0.8,6.4-1.5,12.7-2.3,19.1
		C116.7,61.7,116.6,63.2,116.5,64.8z M146.2,63.9c1.2-0.1,2.1-0.1,3.1-0.3c0.6-0.1,1.1-0.5,1.1-1.2c0.3-2.5,0.6-4.9,0.9-7.4
		c0.1-1.5,0.8-1.9,2.2-1.4c0.7,0.3,1.5,0.2,2.2,0.3c0.6,0,1.2-0.1,1.8-0.1c0.9,0,1.4,0.5,1.5,1.4c0.3,2.8,0.7,5.5,1.1,8.3
		c0,0.3,0.3,0.8,0.4,0.8c1.3,0,2.5,0,3.8-0.1c0.9,0,1-0.7,1-1.4c0-1.1-0.1-2.3-0.2-3.4c-0.8-6.6-1.5-13.1-2.4-19.6
		c-0.5-3.6-1.1-7.1-1.8-10.7c-0.1-0.3-0.3-0.8-0.6-0.8c-1.8-0.4-3.5-0.8-5.3-1.1c-1.6-0.3-1.9,0-2.3,1.4c-0.5,1.9-0.7,3.9-1.3,5.8
		c-0.9,3.4-1.4,6.8-2.1,10.3c-1,4.9-2.5,9.7-2.8,14.7C146.6,60.8,146.4,62.2,146.2,63.9z M164.8,66c-1.5,0-2.9,0-4.3,0
		c-0.3,0-0.7,0.2-0.8,0.5c-1,2-2,4.1-3.2,6.3c1.2,0.1,2.2,0.1,3.2,0.2c1.9,0.3,3.1-0.4,3.7-2.3C163.9,69.2,164.8,67.7,164.8,66z
		 M121.8,66.7c-2.2,0-4.4,0-6.5,0c-0.2,0-0.3,0.2-0.5,0.4c-1,1.7-2,3.3-3.1,5c1.9,0.6,3.9,0.3,5.8,0.1c0.2,0,0.5-0.1,0.7-0.3
		C119.6,70.3,121,68.7,121.8,66.7z M135.2,50c-0.2,0-0.3-0.1-0.4-0.1c-2.8,1.3-5.8,2.2-9,2c-0.2,0-0.6,0.3-0.6,0.5
		c-0.1,1.8-0.2,3.5-0.3,5.5C129.7,56.8,132.5,53.7,135.2,50z M138.4,71.2c2.4-0.4,4.7-0.3,6.5-1.2s3.1-2.9,4.6-4.4
		c-1.5,0-2.7,0.2-3.9-0.1c-0.8-0.1-1.2,0.1-1.7,0.5c-1.6,1.4-3.2,2.8-4.8,4.3C139,70.5,138.8,70.7,138.4,71.2z M151.7,64.9
		c0.8,0.3,1.5,0.1,1.9-0.8c1.2-2.8,2.3-5.6,3.5-8.6c-1.3,0-2.4,0-3.6,0c-0.2,0-0.5,0.3-0.5,0.5c-0.2,1-0.4,2-0.5,3
		C152.1,61,151.9,62.9,151.7,64.9z M110.6,70.7c2.6-3.3,5-7.5,4.5-10c-1.4,1.3-2.9,2.6-4.3,4c-0.1,0.1-0.2,0.4-0.2,0.6
		C110.6,67,110.6,68.8,110.6,70.7z M120.1,24.5c-0.1-0.1-0.2-0.1-0.3-0.2c-1.7,1.3-3.3,2.7-5,4c-1.4,1.1-1.4,2.6-1.4,4.3
		c0.4-0.3,0.6-0.4,0.8-0.5c1.6-1.5,3.2-3.1,4.8-4.5C119.9,26.6,119.9,25.5,120.1,24.5z M151.3,28.6c-3.2,1.6-6,6-6.1,9.4
		c1.4-1.5,2.6-3,4-4.3C150.8,32.2,150.9,30.4,151.3,28.6z M119.2,29.6c-0.1-0.1-0.2-0.1-0.3-0.2c-0.3,0.3-0.6,0.5-0.8,0.8
		c-1.2,1.1-2.2,2.2-3.5,3.1c-1.4,0.9-1.4,2.1-1.3,3.5c0.1,0,0.1,0,0.2,0c1.7-1.3,3.4-2.5,5.1-3.8c0.1-0.1,0.2-0.4,0.2-0.6
		C118.9,31.5,119,30.5,119.2,29.6z M112.8,42c1.7-1.5,3.3-2.9,5.2-4.6c0.1-0.6,0.2-1.6,0.3-2.6c-0.1-0.1-0.2-0.1-0.3-0.2
		c-1.5,1.4-3,2.8-4.4,4.2C112.8,39.7,112.6,40.7,112.8,42z M139.5,60.3c1.9-1.8,3.8-3.6,5.6-5.5c0.6-0.6,0.8-1.6,1.2-2.3
		c-0.1,0-0.2-0.1-0.3-0.1c-1.4,1.3-2.8,2.6-4.4,3.7C140.3,57,139.5,58.4,139.5,60.3z M140.7,54.2c0.2,0.1,0.3,0.2,0.5,0.3
		c1.7-1.7,3.3-3.4,5-5.1c0.8-0.8,1.2-1.7,1.3-3c-0.2,0.1-0.5,0.2-0.6,0.4c-1.7,1.7-3.5,3.5-5.1,5.3C141.2,52.7,141,53.5,140.7,54.2z
		 M117.6,40.1c-0.1,0-0.1-0.1-0.2-0.1c-1,1-2,2-3.1,2.9c-1.4,1-2.2,2.3-1.9,4.1c0.1,0,0.2-0.1,0.3-0.1c1.5-1.3,2.9-2.6,4.4-3.9
		c0.1-0.1,0.2-0.4,0.2-0.6C117.4,41.6,117.5,40.9,117.6,40.1z M136.9,69.9c0.1,0,0.1,0.1,0.2,0.1c0.2-0.1,0.4-0.2,0.6-0.4
		c1.9-1.7,3.8-3.4,5.7-5.2c0.8-0.8,1.9-1.5,1.5-2.9c-2.3,2.1-4.7,4.2-7,6.4C137.3,68.5,137.2,69.3,136.9,69.9z M137.9,65.7
		c2.3-1.9,4.4-3.9,6-6.3c0.3-0.4,0.8-0.7,1.3-1.2c0-0.1,0-0.5,0-1c-2.1,1.9-4.1,3.7-6.1,5.5C138.4,63.5,137.8,64.4,137.9,65.7z
		 M111.7,52.3c0.7-0.6,1.2-1,1.7-1.5c0.8-0.9,1.6-1.9,2.5-2.8c0.9-0.9,1.1-1.3,0.9-2.5c-1.3,1-2.5,2.3-3.9,3.3
		C111.8,49.7,111.6,50.8,111.7,52.3z M142.4,48.4c1.8-1.4,3.7-2.8,5.5-4.2c0.1-0.1,0.1-0.2,0.1-0.3c0.2-0.8,0.3-1.7,0.5-2.5
		c-0.1-0.1-0.3-0.2-0.4-0.3c-1.3,1.4-2.6,2.7-3.8,4.2C143.5,46.3,142.3,47,142.4,48.4z M116.1,55.4c-0.2-0.1-0.3-0.2-0.5-0.3
		c-1.5,1.5-3.1,2.9-4.5,4.5c-0.4,0.5-0.3,1.4-0.4,2.2c0.1,0,0.3,0.1,0.4,0.1c1.3-1.4,2.6-2.7,3.7-4.2
		C115.4,57.1,115.7,56.2,116.1,55.4z M157.6,57.6c-1.1,3.2-2.2,6.1-3.3,9.1c0.1,0,0.2,0.1,0.3,0.1C156.4,64.1,159,61.7,157.6,57.6z
		 M116.2,50.6c-1.2,1-2.4,2-3.5,3c-0.8,0.8-1.6,1.7-1.5,3.4c1.5-1.5,2.8-3,4.2-4.2C116.2,52.1,116.4,51.5,116.2,50.6z M149.5,35.9
		c-0.2,0.1-0.3,0.1-0.3,0.2c-1.2,1.4-2.3,2.9-3.5,4.3c-0.2,0.2-0.3,0.5-0.5,0.7c-1.2,0.8-1.3,1-1.4,2.6c1.7-1.8,3.2-3.5,4.8-5.2
		C149.3,37.6,149.5,36.9,149.5,35.9z M155.4,71.4c1.1-2.5,2.9-4.5,3.3-7.4c-1.1,1.6-2,3-3,4.3C154.9,69.3,154.7,70.2,155.4,71.4z"/>
	<path d="M169.9,42.5c-1.2,0-2.3-0.1-3.4,0c-0.8,0-1.3-0.3-1.3-1c-0.3-2.5-0.8-5-0.7-7.6c0.1-1.5,0.8-3.2,1.7-4.5
		c1.3-1.9,3-3.6,4.5-5.3c0.2-0.3,0.4-0.7,0.5-1c0.2-0.9,0.9-1.2,1.7-1.1c1.7,0.1,3.5,0.2,5.2,0.4c3.9,0.6,7.7,1.2,11.6,1.8
		c1.3,0.2,2.5,0.5,3.8,0.7c1,0.2,1.3,0.7,1.1,1.7c-0.8,2.9-1.5,5.9-2.2,8.8c-0.1,0.2-0.1,0.5-0.3,0.7c-1.1,1.6-2.1,3.2-3.2,4.8
		c-0.5,0.8-1.1,1.5-2.2,1.6c-0.6,0-0.8,0.4-0.8,1c0.1,4.1,0.1,8.1,0.3,12.2c0.2,4.4,0.1,8.7-0.5,13c-0.1,0.4-0.2,0.9-0.5,1.2
		c-2,2.1-3,4.8-5.4,6.6c-0.9,0.6-1.7,1.2-2.8,1.1c-1.5,0-3.1-0.2-4.6-0.2c-0.4,0-0.9,0.2-1.2,0.4c-1,0.7-2,0.4-2.1-0.8
		c-0.3-2.6-0.6-5.3-0.8-8c-0.2-2.6-0.3-5.2-0.1-7.8c0.2-2.4,0.8-4.7,1.1-7.1c0.4-3.3,0.7-6.5,1-9.8C170.4,43.8,170,43.1,169.9,42.5z
		 M180.7,69.2L180.7,69.2c0.8,0,1.6-0.1,2.4,0c0.7,0.1,1-0.2,1.1-0.9c0.2-1.9,0.6-3.8,0.6-5.6c-0.1-7-0.4-14-0.6-21
		c-0.1-2.1-0.2-4.3-0.5-6.4c-0.2-1.3,0.4-1.9,1.7-1.7c1.5,0.2,3.1,0.4,4.7,0.6c0.7,0.1,1.1-0.1,1.2-0.8c0.5-2,1-3.9,1.4-5.9
		c0.2-0.7-0.1-1.1-0.8-1.2c-2.5-0.5-4.9-1.1-7.4-1.6c-3.4-0.7-6.9-0.8-10.4-0.9c-0.3,0-0.9,0.3-0.9,0.6c-0.4,2.7-0.7,5.5-0.9,8.3
		c0,0.2,0.4,0.7,0.7,0.7c1.1,0,2.3-0.1,3.4-0.3c0.7-0.1,1.1,0.1,1.3,0.7c0.1,0.4,0.2,0.8,0.2,1.3c0,5,0,10.1-0.1,15.1
		c0,3.4-0.2,6.8-0.3,10.3c0,1.3,0.2,2.6,0.2,3.8c0,1.3-0.2,2.5-0.3,3.8c-0.1,0.9,0.2,1.4,1.2,1.3C179.2,69.1,179.9,69.2,180.7,69.2z
		 M172.5,76c1.4,0.1,2.7,0.3,4,0.3c0.5,0,1.2-0.2,1.6-0.5c0.9-0.7,1.8-1.4,2.6-2.2c0.7-0.8,1.1-1.7,1.8-2.8c-1.8,0-3.2-0.1-4.6,0
		c-1.2,0.1-2.5,0.2-3.1,1.6C174.1,73.6,173.3,74.7,172.5,76z M175.7,59.7c-1.4,1.4-2.6,2.5-3.8,3.7c-0.5,0.5-1.1,0.9-1.9,1.5
		c0.1,1.4,0.1,3,0.2,4.8c1.9-2,3.6-3.9,5.2-5.7c0.1-0.1,0.2-0.4,0.2-0.6C175.7,62.2,175.7,61.1,175.7,59.7z M174.7,35.1
		c-2.8-0.4-3.1-0.2-4.1,2.1c-0.2,0.4-0.4,0.8-0.6,1.2c-0.5,0.9-1.1,1.8-1.6,2.7c0.8,0,1.6,0,2.3,0c0.3,0,0.6-0.1,0.7-0.3
		C172.9,39.1,173.9,37.2,174.7,35.1z M175.9,53.8c-0.1-0.1-0.2-0.2-0.4-0.3c-1.2,1.3-2.4,2.6-3.6,3.9c-0.6,0.6-1.4,1.2-1.6,1.9
		c-0.3,0.9-0.3,2-0.4,3.1c0.2,0.1,0.3,0.2,0.5,0.2c0.3-0.4,0.5-0.8,0.8-1.1c1.5-1.6,3-3.2,4.6-4.8c0.1-0.1,0.1-0.3,0.1-0.5
		C175.9,55.4,175.9,54.6,175.9,53.8z M185.8,41c1.1-0.1,4.1-3.6,4.4-5.1c-1.3-0.2-2.5-0.4-3.8-0.7c-0.6-0.1-1,0-1,0.7
		C185.6,37.6,185.7,39.3,185.8,41z M175.6,66.9c-0.1,0-0.2-0.1-0.3-0.1c-0.5,0.5-0.9,1.1-1.5,1.5c-1.2,1-1.6,2.8-3.6,2.8
		c0.1,1.5,0.2,2.8,0.3,4.2c0.1,0,0.2,0.1,0.4,0.1c1.4-2.2,2.9-4.3,4.2-6.5C175.5,68.4,175.5,67.6,175.6,66.9z M171.4,50.9
		c1.2-1.5,2.2-3,3.5-4.1s1-2.5,1.1-3.8c-1.1,1.1-2,2.4-3.1,3.5C171.7,47.7,171.3,49,171.4,50.9z M172.1,42.4
		c0.1,0.7,0.1,1.4,0.2,2.2c1-1.2,1.8-2.5,2.9-3.5c1.6-1.5,0.9-3.3,0.9-5C174.7,38.3,173.8,40.7,172.1,42.4z M175.8,48.5
		c-1.3,1.6-2.6,3-3.9,4.5c-0.2,0.2-0.4,0.4-0.5,0.7c-0.2,0.6-0.3,1.2-0.4,1.7c0.1,0,0.2,0.1,0.4,0.1c1.2-1.2,2.4-2.4,3.5-3.7
		C175.6,50.9,176.3,49.9,175.8,48.5z M166.1,36.8c2.1-1.1,4.6-4.9,4.3-6.1c-1.3,1.7-2.7,3.3-3.9,5C166.3,36,166.2,36.4,166.1,36.8z
		 M170.9,26.2c-1.8,2-3.8,3.8-4.5,6.5C168.1,30.7,170.2,28.9,170.9,26.2z M166.6,40.1c0.1,0.1,0.3,0.2,0.4,0.2
		c0.8-1.3,1.5-2.5,2.3-3.8c-0.1-0.1-0.2-0.1-0.3-0.2C168.6,37.8,166.4,38.2,166.6,40.1z"/>
	<path d="M252.4,46.9c0-2,0.4-3.9,1.4-5.8c0.6-1.1,1.4-1.7,2.6-1.8c1.2-0.2,1.9,0.3,2.2,1.5c0.2,0.5,0.5,1,0.7,1.5
		c0.3,1,0.7,2,0.7,3.1c0.2,2,0.5,4-0.1,6c-0.5,1.6-2.2,3-3.8,3.1c-1.2,0-2-0.7-2.5-1.7C252.8,51.3,252.3,48.6,252.4,46.9z
		 M256.4,40.9c-0.2,0.2-0.5,0.3-0.6,0.5c-1,1.5-1.4,3.3-1.4,5.1c0,0.2,0.2,0.5,0.4,0.6c1.7,1.1,2.4,2.6,2.1,4.6
		c-0.1,0.4-0.1,0.7-0.1,1.1c0.1,0,0.2,0.1,0.4,0.1c0.4-0.6,0.9-1.1,1-1.7C258.7,47.6,258.3,44.1,256.4,40.9z M254.8,48.7
		c-0.2,0-0.3,0.1-0.5,0.1c0.3,1,0.5,1.9,0.8,2.9c0.2,0,0.3-0.1,0.5-0.1C255.3,50.7,255,49.7,254.8,48.7z"/>
	<path d="M92.1,41.5c-0.6,2.3-1.1,4.6-1.9,6.9c-0.2,0.8-0.9,1.5-1.5,2c-1.3,1.1-2.8,0.9-4-0.4c-1.8-2-1.6-4.4-1.3-6.8
		c0.2-1.5,0.5-3.1,1.5-4.4c1.3-1.6,2.8-2.3,4-1.8c2.2,1,2.9,1.5,2.8,4.4C91.9,41.5,92,41.5,92.1,41.5z M86.7,49.2
		c1.8-0.2,3.2-3.3,3.1-6C87.6,44.6,87.6,47,86.7,49.2z M87,43.5c0.1,0,0.2,0,0.3,0c0.8-0.9,1.7-1.8,2.4-2.8c0.2-0.2,0-0.7-0.1-1
		c-0.3,0.1-0.7,0.1-0.8,0.3c-0.6,0.8-1.3,1.6-1.8,2.5C86.9,42.7,87,43.1,87,43.5z M85.3,47.1c0.1,0,0.2,0,0.3,0
		c0.3-2.6,0.3-2.6-0.5-3.2C85.2,45.1,85.2,46.1,85.3,47.1z"/>
	<path d="M134.9,35.5c0.5,3-2.3,6.2-5,7.1c-1.4,0.4-2.8,0.8-4.3,0.4c-1-0.3-1.3-0.8-1.2-1.8c0.1-1.6,0-3.3,0.2-5
		c0.2-1.9,0.6-3.8,0.9-5.7c0.1-0.6,0.6-0.8,1.2-0.7c0.4,0.1,0.8,0.1,1.2,0c3.1-0.9,6.5,1.4,6.9,4.7
		C134.8,34.8,134.9,35.2,134.9,35.5z M132.8,33.8c-1.7,2.1-2.9,4.4-2.9,7.1C132.9,39.5,133.9,37,132.8,33.8z M126.6,36.9
		c-0.1,1.2-0.3,2.3-0.2,3.5c0,0.3,0.6,0.7,1,1c0.1,0,0.6-0.4,0.7-0.7c0.2-0.4,0.3-0.8,0.4-1.2C128.7,37.9,128.3,37.3,126.6,36.9z
		 M128.9,36.4c1-1.3,1.9-2.5,2.9-3.8c-0.2-0.2-0.5-0.5-1-0.9c-1,1.4-1.9,2.7-2.9,4C128.3,35.9,128.6,36.1,128.9,36.4z M126.8,34.7
		c0.9-1.2,1.7-2.3,2.5-3.4C126.7,31.5,126.4,31.9,126.8,34.7z"/>
	<path d="M153.7,48.9c-1.6,0.1-1.8-0.3-1.4-1.8c0.5-1.7,0.7-3.5,1.1-5.2c0.3-1.4,0.6-2.8,1.1-4.1c0.2-0.5,0.8-0.8,1.2-1.2
		c0.3,0.5,0.8,0.9,0.9,1.4c0.6,2.5,1.1,5.1,1.6,7.6c0.1,0.5,0.2,0.9,0.3,1.4c0.1,0.9-0.4,1.5-1.3,1.6
		C156.1,48.7,154.9,48.8,153.7,48.9z M154.5,45c2-1.1,1.4-2.7,0.9-4.2C155,42.1,154.8,43.5,154.5,45z M156.9,46.8
		c-0.1-0.5-0.2-1-0.3-1.6c-0.5,0.7-0.9,1.2-1.5,2C155.8,47,156.3,46.9,156.9,46.8z"/>
</g>
<path d="M205.1,92.7c-0.2,0.9-0.3,1.8-0.7,2.1c-0.9,0.7-1.9-0.1-1.8-1.3c0.3-2.1,0.6-4.3,1-6.4c0.2-1.2,0.9-2,2.3-2.1
	c1.3,0,2.2,0.4,2.8,1.6c1.2,2.5,1.4,5.2,1.1,7.9c0,0.3-0.6,0.7-0.8,0.7c-0.4-0.1-0.8-0.4-0.9-0.8c-0.3-0.7-0.1-1.5-0.4-2.2
	c-0.2-0.4-0.9-1-1.3-0.9C205.9,91.4,205.5,92.1,205.1,92.7 M205.7,89c0.5,0.1,1.1,0.1,1.6,0.2c-0.1-0.3,0-0.7-0.2-0.9
	c-0.3-0.4-0.8-0.7-1.1-1.1C205.8,87.8,205.6,88.3,205.7,89"/>
<path class="st0" d="M224.7,92.7c-0.4,0.7-0.6,1.4-1,1.8c-1.1,0.9-2.5,0.3-2.8-1.4c-0.3-1.8-0.5-3.7-0.6-5.5c0-0.6,0.4-1.2,0.7-1.8
	c0.4,0.6,1,1.1,1.1,1.8c0.3,1.3,0.2,2.6,0.3,4c0.1,0.4,0.3,0.7,0.4,1.1c0.3-0.3,0.6-0.6,0.8-1c0.4-0.7,0.6-1.5,1-2.2
	c0.7-1.2,2.1-1.2,2.8,0.1c0.3,0.6,0.4,1.3,0.7,1.9c0.2,0.4,0.4,0.7,0.7,1c0.3-0.3,0.7-0.7,0.8-1.1c0.3-1.1,0.6-2.3,0.7-3.5
	c0.1-0.9,0.5-1.4,1.3-1.7c0.2,0.6,0.7,1.3,0.6,1.9c-0.3,1.7-0.7,3.4-1.2,5.1c-0.3,1-2,1.3-3,0.5c-0.6-0.5-0.9-1.4-1.4-2.2
	c-0.2-0.3-0.4-0.6-0.5-0.8c-0.2,0.3-0.5,0.4-0.6,0.7C225.1,91.6,225,92.1,224.7,92.7"/>
<path class="st1" d="M236.9,88.5c0.7,0.3,1.4,0.4,2.1,0.7c0.5,0.2,0.9,0.5,1.3,0.8c-0.4,0.3-0.8,0.5-1.3,0.7c-0.1,0.1-0.2,0-0.3,0
	c-0.7,0.3-2.1,0-1.8,1.2c0.2,1.1,1.2,0.6,2,0.4c0.4-0.1,0.9,0.4,1.4,0.6c-0.3,0.4-0.5,1-0.8,1.1c-0.7,0.3-1.6,0.4-2.4,0.3
	c-1.4-0.1-2.1-1-2.1-2.4c-0.1-1.5-0.2-3-0.3-4.6c-0.1-1.2,0.6-1.8,1.8-1.8s2.3,0,3.5,0.1c0.3,0,0.5,0.6,0.7,0.9
	c-0.4,0.2-0.8,0.5-1.3,0.6C238.4,87.4,237.2,86.9,236.9,88.5"/>
<path class="st1" d="M281.3,84.2c1.3-1,1.9-0.1,2.1,0.9c0.4,2,0.7,4.1,0.9,6.2c0.1,0.5-0.3,1.5-0.6,1.6c-0.8,0.3-1.3-0.4-1.4-1.2
	C281.9,89.2,281.5,86.7,281.3,84.2"/>
<path class="st1" d="M280.4,91c0.1,0.8,0.1,1.5,0,2.3c0,0.4-0.3,0.8-0.4,1.1c-0.4-0.3-1-0.5-1.1-0.9c-0.3-1.1-0.5-2.2-0.7-3.3
	c-0.1-0.7-0.2-1.4-0.3-2c-0.1-0.4-0.4-0.9-0.7-0.9c-0.4-0.1-1,0.2-1.1,0.5c-0.3,0.6-0.5,1.4-0.6,2.1c-0.1,1,0,2-0.1,3
	c-0.1,0.4-0.6,0.7-0.8,1c-0.3-0.3-0.9-0.6-1-1c-0.3-1.7-0.4-3.5-0.7-5.2c0-0.3-0.3-0.7-0.5-1c-0.3,0.3-0.8,0.6-0.8,0.9
	c-0.3,1.5-0.4,3-0.5,4.5c-0.1,0.7,0.2,1.5-1,1.5c-1.1,0-0.8-0.8-0.9-1.4c-0.3-1.9-0.7-3.8-1-5.7c0-0.4,0-0.8,0.1-1.2
	c0.3,0,0.7,0,1.1,0.1c0.2,0,0.3,0.2,0.5,0.2c1.1-0.1,2.4-0.6,3.4-0.3c1.1,0.4,2,1,3.3,0.3c1.5-0.8,3.2,0.3,3.4,2.1
	C280,88.6,280.1,89.8,280.4,91"/>
<path class="st1" d="M243.7,94.8c-0.5-2.7-0.9-5.4-1.2-8.1c-0.1-0.9,2.2-2,3.4-1.8c1.3,0.3,2.6,2,2.1,3c-0.5,1.1-0.3,1.7,0.4,2.5
	c1.4,1.4,0.4,3.6-1.2,4.5C246.1,95.7,244.9,96.2,243.7,94.8 M246.2,91c-1.8,0.1-1,1.2-0.8,2c0.1,0.4,0.2,0.8,0.3,1.1
	c0.4-0.3,0.9-0.7,1.2-1.1C247.4,92.2,247.1,91.5,246.2,91 M244.7,87.7c0.2,0.6,0.3,1.1,0.4,1.7c0.4-0.4,0.9-0.8,1-1.4
	c0.1-0.3-0.3-0.8-0.5-1.3C245.4,87,245.2,87.3,244.7,87.7"/>
<path class="st1" d="M262.2,92.8c-2.6-1.5-3.2-3.7-1.9-6.4c0.6-1.2,1.5-2,2.7-2c1.2,0.1,2,0.9,2.4,2.3c0.6,2,0.1,3.7-1,5.2
	C264.1,92.4,263.1,92.5,262.2,92.8 M263.8,88.9c-0.1-0.8,0-1.7-0.3-2.4c-0.3-0.8-0.9-0.4-1.3-0.1c-0.8,0.8-0.9,3.2-0.3,4.1
	c0.2,0.2,1,0.3,1.3,0.1C263.6,90.3,263.6,89.6,263.8,88.9"/>
<path class="st1" d="M257.1,86.9c-1.2-0.2-2.2-0.8-2.9,0.7c-0.5,1.1-0.5,3.3,0.3,3.8c0.5,0.3,1.4,0.3,2,0.3c0.4,0.1,0.8,0.1,1.2,0.1
	c-0.2,0.3-0.2,0.8-0.5,1c-1.3,1.5-3.5,1.2-4.6-0.5c-1.6-2.3-0.8-5.5,1.1-7c1.1-0.8,3.4-0.5,3.9,0.7
	C257.7,86.3,257.3,86.6,257.1,86.9"/>
<path class="st1" d="M291.9,86.1c-1.2-0.2-2.2-0.8-2.9,0.7c-0.5,1.1-0.5,3.3,0.3,3.8c0.5,0.3,1.4,0.3,2,0.3c0.4,0.1,0.8,0.1,1.2,0.1
	c-0.2,0.3-0.2,0.8-0.5,1c-1.3,1.5-3.5,1.2-4.6-0.5c-1.6-2.3-0.8-5.5,1.1-7c1.1-0.8,3.4-0.5,3.9,0.7
	C292.5,85.5,292.1,85.8,291.9,86.1"/>
</svg>
