<?xml version="1.0" encoding="utf-8"?>
<!-- Generator: Adobe Illustrator 23.1.0, SVG Export Plug-In . SVG Version: 6.00 Build 0)  -->
<svg version="1.1" id="Layer_1" xmlns="http://www.w3.org/2000/svg" xmlns:xlink="http://www.w3.org/1999/xlink" x="0px" y="0px"
	 viewBox="0 0 254.6 72.2" style="enable-background:new 0 0 254.6 72.2;" xml:space="preserve">
<path d="M222.9,50.4c-0.3,2-0.3,4-0.9,5.7c-0.5,1.5-1.1,2.9-1.4,4.4c-0.2,1.1-0.5,2-1.3,2.8c-0.2,0.2-0.5,0.5-0.8,0.6
	c-2.6,0.3-5.2,0.5-7.8,0.8c-1.1,0.1-1.7-0.4-2-1.3c-0.4-1-0.6-2-1-2.9c-1.1-2.8-2.2-5.7-3.3-8.5c-0.1,0.8-0.2,1.6-0.2,2.4
	c-0.1,0.9-0.5,1.6-1.3,2.1c-0.3,0.2-0.6,0.7-0.7,1.1c-0.2,2.3-1.7,3.9-2.9,5.7c-0.2,0.3-0.8,0.5-1.2,0.6c-2.4,0.3-4.8,0.5-7.1,0.7
	c-1,0.1-1.9,0.2-2.9,0.2c-0.9,0-1.6-0.3-1.7-1.3c0-1.8-0.2-3.6-0.1-5.4c0.4-7.7,0.8-15.3,1.2-23c0.1-1,0.2-2,0.3-3
	c0.1-0.7,0.2-1.5-0.5-2c-0.2-0.1-0.2-0.8,0-1c1.4-1.6,1.5-3.7,1.8-5.6c0.2-0.9,0.5-1.7,1.1-2.3c1.5-1.4,2.9-3,4.3-4.5
	c1.7-1.8,3.7-2.2,6.1-1.8c1.5,0.3,3,0.4,4.5-0.3c0.8-0.4,1.3,0.1,1.6,0.9c1.2,2.8,2.5,5.6,3.7,8.4c0,0.1,0.1,0.1,0.3,0.2
	c1.1-1.3,2.3-2.6,3.4-3.9c0.6-0.7,1-1.6,1.6-2.3c0.2-0.3,0.7-0.4,1-0.4c2.2-0.1,4.3-0.2,6.5-0.3c1.1,0,1.2,0.2,1,1.3
	c-0.2,1.3-0.2,2.6-0.3,3.9c-0.2,3.5-0.5,7-0.7,10.5c0.1,0,0.2,0.1,0.3,0.1c0.2-0.4,0.3-0.7,0.5-1.1c1-3.6,2.6-6.8,5.3-9.4
	c0.9-0.9,2.1-1.4,3.2-2.2c0.2-0.1,0.4-0.3,0.6-0.4c3-2.4,7.4-2,10,0.8c2.8,2.9,3.8,6.6,5,10.3c1.1,3.4,1.2,7.1,1,10.6
	c-0.1,2.4-0.9,4.8-1.3,7.2c-0.5,3.3-2.9,5-5.3,6.7c-0.8,0.6-1.5,1.1-1.6,2.1c0,0.1,0,0.2-0.1,0.3c-1.2,1.1-2.4,2.4-3.7,3.4
	c-1.1,0.7-2.4,1.2-3.7,1.3c-3,0.3-5.2-1.2-7-3.4c-1.8-2.3-2.7-5-3.4-7.8C223,50.7,223,50.6,222.9,50.4z M222.5,18.4
	c-1.5,0-2.8,0-4.1,0c-0.9,0-1.3,0.5-1.3,1.3c0,1,0.1,1.9,0,2.9c-0.2,3.7-0.5,7.3-0.7,11c-0.1,1.6-0.3,3.1-0.4,4.7
	c-0.1,0.8-0.6,1.1-1.3,1.1s-0.8-0.5-0.8-1.1c0-0.8-0.1-1.7-0.4-2.4c-1.2-3.2-2.4-6.5-3.8-9.7c-1.4-3.2-2.9-6.4-4.4-9.6
	c-0.1-0.3-0.5-0.6-0.8-0.6c-1.7-0.1-3.4,0-5.1-0.1c-0.8,0-1.2,0.1-1.2,1c-0.2,5.5-0.4,11-0.5,16.5c-0.1,6-0.1,12-0.3,18
	c-0.1,3.4-0.4,4,3.9,3.6c1-0.1,1.3-0.6,1.4-1.4c0.1-1.3,0.2-2.6,0.2-4c0-2.6-0.1-5.1,0-7.7c0.2-3.8,0.4-7.6,0.7-11.4
	c0-0.2,0.2-0.5,0.4-0.7c0.8-0.6,1.5-0.4,1.8,0.6c1.5,4.2,3,8.5,4.3,12.7c1.2,3.8,2.3,7.7,3.5,11.6c0.4,1.2,0.9,1.6,2.2,1.5
	c1.2-0.1,2.4-0.2,3.5-0.2c1,0,1.4-0.4,1.5-1.3c0.1-1.6,0.4-3.3,0.4-4.9c-0.2-7.9,0.5-15.8,1-23.8C222.3,23.5,222.4,21,222.5,18.4z
	 M229.1,36.1c-0.3,3.2,0.5,6.4,1.5,9.6c0.9,2.9,2,5.8,4.4,8c1,0.9,2,1.3,3.2,1.1c1-0.1,2.3,0.4,2.9-1c0-0.1,0.4-0.1,0.7-0.2
	c0.2-0.1,0.5,0,0.7-0.2c1.3-1,2.6-2,3.2-3.6c1.2-3.2,1.8-6.5,1.8-9.9c0-3-0.3-5.9-1.1-8.8c-1-3.6-2.2-7-4.7-9.9
	c-2.2-2.6-6.2-2.4-7.9-0.1c-0.8,1.1-1.5,2.2-2.1,3.3C229.8,27.9,228.9,31.8,229.1,36.1z M220,57.4c-1.4,0-2.5,0-3.7,0s-2.4,0-3.8,0
	c-0.4,1.9-0.7,3.7-1.2,5.9c1.9-0.2,3.5-0.4,5.1-0.6c1.1-0.1,1.9-0.6,2.3-1.6C219.2,60,219.5,58.8,220,57.4z M188.6,41.7
	c2.5-2,5-5.3,6.5-8c1-1.7,1.1-3.5,1.1-5.4c-0.2,0.1-0.3,0.2-0.4,0.2c-1.9,2.1-3.8,4.3-5.6,6.5c-0.5,0.6-1,1.2-1.2,1.8
	C188.7,38.4,188.7,39.9,188.6,41.7z M190.7,63c1.6-0.2,3.1-0.4,4.6-0.4c1.9,0,3.2-1,4.2-2.5c0.7-1.1,1.3-2.2,1.2-3.5
	c-1.4-0.1-2.7-0.1-4-0.2c-0.2,0-0.5,0.2-0.7,0.4c-0.8,0.9-1.5,1.9-2.3,2.8C192.8,60.7,191.8,61.7,190.7,63z M189.3,32.8
	c0.1,0.1,0.2,0.1,0.4,0.2c1.3-1.4,2.6-2.8,3.8-4.3c1.1-1.4,2.2-2.9,2.7-4.5c0.5-1.5,0.2-3.2,0.3-4.8c-0.4,0.2-0.7,0.5-0.8,0.8
	c-0.6,1.8-1.7,3.1-3.1,4.4c-0.9,0.9-2,1.8-2.4,2.9C189.6,29.2,189.6,31,189.3,32.8z M230,59.6c3.3,2.6,8.6-0.6,9.5-3.6
	c-2.1,0.2-4.2,0.3-5.9-1.3C232.4,56.4,231.2,57.9,230,59.6z M195.4,42.4c-2.2,2.8-4.3,5.6-6.6,8.3c-1,1.2-0.6,2.4-0.7,3.7
	c2.2-2.2,4.3-4.5,6.2-6.9C195.4,46.1,196.3,44.6,195.4,42.4z M188.4,47.9c0.2-0.2,0.4-0.3,0.5-0.4c2-2.4,4-4.8,6.1-7.1
	c1-1.2,0.9-2.5,0.8-3.8c-1.1,1.3-2.1,2.6-3.2,3.8c-0.9,1-1.9,2-2.8,3c-0.4,0.4-0.8,0.9-1.1,1.4c-0.1-0.1-0.2-0.1-0.3-0.2
	C188.4,45.6,188.4,46.7,188.4,47.9z M195.7,49.3c-0.3,0.2-0.5,0.3-0.6,0.4c-2,2.2-4,4.4-6.1,6.6c-1.1,1.2-1.4,2.7-0.9,4.1
	c2.1-2.4,4.2-5.1,6.6-7.5C195.7,51.8,195.7,50.7,195.7,49.3z M211,52.8c-1,1.3-2,2.4-2.8,3.5c-0.2,0.2-0.3,0.7-0.2,1
	c0.6,1.6,1.2,3.2,1.9,4.9c0.1-0.3,0.2-0.5,0.2-0.7c0.4-2,0.7-4,1.3-5.9C211.6,54.6,211.6,53.8,211,52.8z M231.3,52
	c-1.1,1.4-2.1,2.6-3,3.9c-1,1.4-1,1.7,0.5,2.7c1.3-1.7,2.5-3.3,3.8-5C232.1,53.1,231.8,52.6,231.3,52z M226.5,55.5
	c1.1-1.4,2.2-2.7,3.2-4c0.9-1.1,0.8-1.6-0.2-2.7c-1.1,1.3-2.1,2.6-3.2,3.9C225.5,53.6,225.7,54.5,226.5,55.5z M224.3,38.1
	c2.9-1.4,3.1-4.1,3-6.8C225,32.5,224.2,34.3,224.3,38.1z M223.9,43.6c0.1,0.1,0.2,0.1,0.3,0.2c0.7-0.8,1.4-1.6,2.2-2.3
	c1.2-1,1-2.2,0.5-3.5c-1,0.8-1.9,1.5-2.8,2.2c-0.1,0.1-0.2,0.4-0.2,0.6C223.9,41.7,223.9,42.6,223.9,43.6z M207.2,55.2
	c1-1.2,1.9-2.4,2.8-3.4c0.8-1,0.6-1.8,0-2.9c-1,1.2-2,2.3-2.8,3.4C206.5,53.1,206.4,54,207.2,55.2z M208.9,45.4
	c-0.9,1-1.9,2-2.8,3.1c-0.9,1-0.9,1.5,0,2.8c0.9-1,1.8-2,2.7-3C209.8,47,209.8,46.9,208.9,45.4z M207.7,41.7c-0.8,1-1.5,1.8-2.3,2.6
	c-1.1,1.2-1.1,1.6-0.2,3c0.8-1,1.6-2,2.5-2.9C208.5,43.5,208.3,42.7,207.7,41.7z M224.3,48.4c1.1-1.4,2.1-2.8,3.2-4.1
	c0.6-0.7,0.6-1.2,0-1.9c-0.7,0.8-1.4,1.5-2.2,2.2C224.1,45.5,223.7,46.7,224.3,48.4z M190.9,23.9c0.1,0.1,0.2,0.1,0.3,0.2
	c1.2-1.6,2.4-3.3,3.7-4.9c0.4-0.5,0.7-1.1,1.3-1.5c0.5-0.4,0.6-0.3,0.3-1.2c-1.3,1.4-2.6,2.9-3.9,4.1
	C191.4,21.5,191,22.6,190.9,23.9z M206.5,37.5c-1.8,1.6-2.5,3.8-1.9,5.6c0.6-0.7,1-1.4,1.6-1.9C207.4,40.1,207.4,38.9,206.5,37.5z
	 M228.4,45.5c-0.3,0.4-0.5,0.7-0.7,1c-0.8,1.1-1.6,2.2-2.4,3.2c-0.5,0.6-0.6,1.1-0.1,2c1.1-1.4,2.2-2.8,3.3-4.1
	C229.1,46.9,229,46.4,228.4,45.5z M211.6,26c2.5-1.3,4.1-3.7,3.5-5.1C213.7,22.4,212.3,23.8,211.6,26z M215.2,24.8
	c-0.8,0.7-1.4,1.4-2.1,1.9c-1,0.7-0.7,1.4-0.1,2.2C214.1,27.7,215.9,27,215.2,24.8z M189.7,61.1c0.1,0.1,0.2,0.1,0.3,0.2
	c2-1.5,5.2-5.6,5.3-6.9C193.3,56.7,191.5,58.9,189.7,61.1z M229.9,23.5c-1.7,2-2.9,4.1-3.8,6.7c0.8-0.8,1.6-1.2,2-1.9
	C228.7,26.9,229.2,25.3,229.9,23.5z M215,29c-1.9,1.2-1.9,2-0.3,3.9C214.8,31.6,214.9,30.4,215,29z M204.9,36.9
	c1.3-1,1.4-1.7,0.2-2.9C205,35,204.9,35.9,204.9,36.9z"/>
<path d="M53.5,47.9c-0.4,1.4-0.6,2.9-1.2,4.2c-1.1,2.3-2.4,4.4-3.5,6.7c-0.6,1.3-1.6,1.7-2.8,1.9c-1.7,0.3-3.4,0.6-5,0.9
	c-0.9,0.2-1.9-0.6-2.3-1.7c-0.7-1.8-1.3-3.6-2.1-5.7c-1.1,1.6-2,3-2.9,4.4c-0.7,1-1.6,1.9-2.4,2.9c-0.1,0.2-0.4,0.3-0.4,0.5
	c0,1.4-1.2,1.5-2.1,1.8c-2.6,0.7-5.2,1.3-7.8,2c-0.5,0.1-1,0.4-1.5,0.7c-1.1,0.5-2,0.2-2.1-1c-0.2-2.9-0.4-5.8-0.4-8.8
	c-0.1-5.2-0.1-10.5,0-15.7c0.1-3.6,0.7-7.2,0.9-10.9c0.1-1.5,0-3.1,0-4.6c0-0.4,0.2-0.8,0.4-1.1c1.4-1.3,2.9-2.5,4.3-3.7
	c0.3-0.2,0.5-0.6,0.6-1c0.2-1.3,0.6-1.8,1.9-2c3-0.3,6.2-0.7,9.3-1.1c0.6-0.1,1,0.1,1.3,0.8c1.3,2.4,2.7,4.7,4.2,7.3
	c0.4-0.5,0.5-0.7,0.7-0.9c1-1.5,2-3,3-4.5c0.7-1.2,1.8-1.5,3.1-1.6c1.8-0.2,3.6-0.3,5.4-0.4c1.5-0.1,2,0.3,1.9,1.8
	c-0.2,2.8-0.5,5.6-0.7,8.4c-0.1,2.8,0,5.6,0,8.5c0,0.3,0.1,0.5,0.2,1.1c0.5-1.3,1-2.4,1.4-3.4c1.8-4.4,4.1-8.4,7.9-11.4
	c2.9-2.3,5.9-4.6,9.9-4.8c0.8,0,1.6,0.2,2.3,0.6c2.8,1.7,4,4.3,4.4,7.5c0.4,3.8,0.4,7.6,0.1,11.4c-0.3,3.6-1,7-2.3,10.4
	c-0.9,2.5-2.8,4-4.9,5.4c-1.4,0.9-2.6,2-3.8,3.1c-1.4,1.3-2.9,2.2-4.8,2.6c-3.3,0.6-5.8-0.5-7.4-3.4c-1-1.8-1.6-3.8-2.3-5.7
	C53.7,48.9,53.6,48.4,53.5,47.9z M25.5,19.4c0.1,0.4,0.2,0.7,0.2,1c0.2,4.3,0.3,8.6,0.6,13c0.2,4.3,0.6,8.6,0.9,12.9
	c0.2,2.5,0.4,5.1,0.6,7.6c0.1,0.9,0.5,1.2,1.4,1c1.3-0.3,2.6-0.6,4-0.9c1-0.2,1.4-0.6,1.3-1.6c-0.2-3-0.4-6-0.4-9
	c0-4,0-7.9,0.1-11.9c0-0.9,0.8-1.4,1.6-0.9c0.3,0.2,0.6,0.5,0.8,0.9c1,2,2,4,2.9,6c1.2,2.6,2.3,5.1,3.5,7.7c0.8,1.6,1.6,3.3,2.6,4.8
	c0.3,0.5,1,1,1.6,1.2c0.9,0.2,1.8,0,2.8,0s1.6-0.5,1.7-1.5c0.1-2.6,0.4-5.2,0.4-7.8c0.1-5.7,0-11.4,0.1-17.1c0-1.6,0.3-3.3,0.4-4.9
	c0.1-0.7-0.2-1.1-1-1c-1.3,0.1-2.6,0.2-3.9,0.4c-1.3,0.1-1.6,0.3-1.6,1.6c-0.2,4.6-0.3,9.3-0.6,13.9c0,0.5-0.6,1-1,1.3
	c-0.1,0.1-0.8-0.4-1-0.7c-0.8-1.8-1.5-3.6-2.4-5.4c-1.3-2.4-2.7-4.7-4.1-7c-0.7-1.3-1.5-2.5-2.3-3.7c-0.2-0.3-0.5-0.6-0.8-0.5
	C31,18.8,28.3,19.1,25.5,19.4z M77.9,30.5c0-0.2,0-0.5,0-0.7c-0.2-2-0.4-4.1-0.8-6.1c-0.4-1.8-1.6-3.2-3.3-4.1
	c-0.5-0.3-1.1-0.6-1.6-0.5c-4.2,0.8-7.2,3.1-8.8,7.3c-1.9,5-2.5,10.1-1.8,15.4c0.4,2.8,0.9,5.7,2.5,8.1c1,1.6,2.5,2.8,4.4,2.4
	c3.4-0.6,5.9-2.3,7.2-5.8C77.7,41.3,77.7,35.9,77.9,30.5z M21.9,63.9c0.3,0,0.6,0,0.8,0c1.6-0.4,3.2-0.8,4.8-1.3
	c0.3-0.1,0.6-0.2,0.9-0.4c0.9-0.9,1.8-1.8,2.6-2.8c0.8-1.1,1.6-2.2,2.3-3.3c-1-0.1-1.8,0-2.6,0.2c-2.1,0.5-4.3,0.4-5.5,2.9
	C24.5,60.9,23.1,62.3,21.9,63.9z M42.2,59.6c2.5,0,4.7-0.3,5.9-2.7c0.7-1.3,1.5-2.5,2.3-4c-1.4,0-2.5,0-3.6,0
	c-1.1,0.1-1.7,0.7-2,1.7c-0.2,0.5-0.4,1.1-0.7,1.6C43.5,57.3,42.9,58.4,42.2,59.6z M26.2,54.3c-0.2-0.1-0.3-0.2-0.5-0.3
	c-1.9,1.7-3.7,3.5-5.7,5.1c-1.8,1.5-0.8,3.2-0.7,5c0.8-0.8,1.5-1.5,2.2-2.4c1.4-2,2.8-3.9,4.2-5.9C26,55.4,26,54.8,26.2,54.3z
	 M25.4,44.7c-0.6,0.4-0.9,0.6-1.2,0.8c-1.3,1.2-2.7,2.4-4,3.5c-1.6,1.3-1.7,1.9-1.1,3.9c2.2-1.6,4.3-3.3,6.7-5
	C25.6,47.1,25.5,46,25.4,44.7z M24.8,40.5c-0.3,0.2-0.6,0.3-0.9,0.5c-1.3,1-2.7,1.9-4,2.9s-1.7,2.7-1,4.3c1.6-1.4,3.3-2.8,4.9-4.1
	C25.4,42.9,25.5,42.6,24.8,40.5z M25.6,49.7c-1.8,1.4-3.6,2.8-5.3,4.1c-1.5,1.2-1.8,2.2-1.1,4.1c1.6-1.3,3.2-2.7,4.8-4
	C25.2,52.8,26.2,51.7,25.6,49.7z M18.9,43.1c1.5-1.1,2.9-2.1,4.4-3.1c2.1-1.3,1.8-0.9,1.4-3.8c-0.2,0.1-0.5,0.2-0.6,0.4
	c-1.3,1.1-2.6,2.3-4,3.3C18.7,40.7,18.8,41.7,18.9,43.1z M24.5,31.9c-0.5,0.3-0.9,0.5-1.2,0.8c-1,1-2,2.1-3.1,2.9
	c-1.2,0.8-1.1,1.9-1.1,3.2c1.6-1.2,3-2.3,4.4-3.4C24.9,34.4,25.1,33.9,24.5,31.9z M43.9,50.9c-0.1,0-0.2,0-0.4,0
	c-1.3,1.9-2.7,3.8-4.1,5.9c0.3,0.7,0.7,1.4,1.1,2.1c0.1,0,0.2,0,0.4,0c1.1-2.2,2.2-4.4,3.2-6.7C44.2,51.9,44,51.4,43.9,50.9z
	 M59.4,39.6c-0.1-0.1-0.3-0.2-0.4-0.3c-0.2,0.3-0.3,0.6-0.5,0.9c-0.8,1.3-1.5,2.8-2.6,3.9s-0.6,2-0.4,3.3c1.1-1.4,2-2.8,3-3.9
	C59.8,42.3,59.6,41,59.4,39.6z M59.4,34.4c-1.8,2.3-4.5,4.2-4.3,8c1.1-1.5,1.9-3,3.2-3.9C59.7,37.2,59.5,35.9,59.4,34.4z M19.6,34.3
	c1.3-1.1,2.4-2.2,3.7-3.2c1.5-1.1,1.5-1.1,1.1-3.2c-1.1,0.9-2.1,1.9-3.3,2.6C19.8,31.5,19.2,32.7,19.6,34.3z M40.5,44.3
	c-1.2,1.7-2.3,3.3-3.4,5c-0.5,0.8-0.3,1.5,0.3,2.2c0.3-0.4,0.5-0.7,0.8-1c0.9-1.2,1.6-2.4,2.6-3.5C41.6,46.1,41.3,45.4,40.5,44.3z
	 M62.5,51.5c-1.2,1.5-2.3,2.9-3.4,4.3c1.2,1.4,1.6,1.4,2.6,0.1c0.8-1.1,1.4-2.2,2.2-3.3C63.3,52.2,63,51.9,62.5,51.5z M36.1,47.7
	c1.2-1.5,2.2-2.8,3.3-4.2c0.8-1,0.6-1.7-0.6-2.5C38,43.2,35.2,44.5,36.1,47.7z M61.2,26.4c-2.1,2.9-3.6,5.8-4.8,9.1
	C59.1,33,60.9,30.2,61.2,26.4z M19.8,30.1c1.2-1,2.4-1.9,3.6-2.8s1.3-1.3,0.7-2.9c-1.2,1.1-2.2,2.3-3.5,3.3
	C19.7,28.3,19.6,29,19.8,30.1z M42.2,47.6c-1.3,1.9-2.4,3.5-3.6,5.1c-0.5,0.7-0.4,1.3,0.3,1.9c1.5-1.7,2.7-3.6,3.6-5.6
	C42.6,48.7,42.3,48.3,42.2,47.6z M59.6,44.6c-0.1,0.3-0.2,0.7-0.4,1c-0.8,1.1-1.6,2.3-2.5,3.3c-0.7,0.7-0.6,1.3-0.1,2.1
	c1.1-1.3,2-2.6,3.1-3.7C60.4,46.5,60.5,45.8,59.6,44.6z M60.8,48.3c-1.2,1.6-2.3,3.1-3.3,4.6c-0.1,0.2,0.2,0.7,0.3,1.1
	c0.1,0,0.2,0,0.4,0c1-1.2,1.9-2.5,2.9-3.7C61.5,49.8,61.4,49.2,60.8,48.3z M35.8,42.8c0.4-0.5,0.7-0.9,1-1.3
	c0.3-0.4,0.6-0.8,0.9-1.2c0.9-1.1,0.9-1.8-0.2-2.8C35.7,38.8,35.3,40.6,35.8,42.8z M62.9,57.1c2-0.4,3.3-1.5,4.5-2.9
	c-0.9-0.2-1.6-0.4-2.2-0.6C64.5,54.8,63.8,55.9,62.9,57.1z M24.3,21.5c-0.1-0.1-0.2-0.1-0.4-0.2c-1.2,1.8-3.8,2.5-4,5.1
	c0.2,0,0.4-0.1,0.5-0.2c1.2-1.2,2.4-2.4,3.5-3.7C24.2,22.3,24.2,21.8,24.3,21.5z M35.6,37.5c1.2-1.5,1.2-2.5,0-3.9
	C35.6,34.9,35.6,36.1,35.6,37.5z M42.5,28.9c1.2-0.6,1.6-1.4,1.1-2.6C42.3,27.4,42,28.1,42.5,28.9z M42.6,23.8
	c1.4-0.2,1.7-0.9,1.3-2.1C43.5,22.4,43.1,23,42.6,23.8z"/>
<path d="M126.4,21.3c1.8-1.8,3.8-3.7,5.8-5.7c0.1-0.1,0.3-0.2,0.3-0.3c1.3-2.2,3.3-1.6,5.3-1.4c2,0.3,4,0.7,6,1.1
	c0.4,0.1,1,0.5,1,0.8c0.5,3.2,1,6.3,1.4,9.5c0.8,6.2,1.5,12.3,2.3,18.5c0.2,1.9,0.2,3.8,0.5,5.6c0.4,3.2-0.5,6.2-1.6,9.1
	c-0.3,0.8-0.7,1.5-1,2.3c-0.5,1.2-1.4,1.7-2.6,1.6c-2,0-3.9,0-5.9,0c-0.9,0-1.9-0.8-2-1.7c-0.3-1.8-0.6-3.5-1-5.3
	c-0.1-0.4-0.5-0.8-0.8-0.9c-0.4-0.1-1.1,0-1.4,0.3c-0.9,0.9-1.6,1.9-2.3,2.9c-1.1,1.3-2.5,2.1-4.2,2.3c-2.1,0.2-4.1,0.5-6.2,0.7
	c-0.2,0-0.5,0-0.7,0c-1.7,0-2.4-0.7-2-2.4c0.6-2.7,1.1-5.5,1.8-8.2c0.6-2.6,1.4-5.1,2.1-7.6c0.9-3.3,1.8-6.7,2.7-10.1
	c-1.9,1.9-3.6,3.8-5,6.1c-2.6,4.2-6,7.7-11.1,8.8c-0.7,0.1-0.9,0.5-1,1.2c-0.1,1.3-0.2,2.6-0.3,3.9c-0.2,2.2-1.4,3.9-2.5,5.7
	c-0.7,1.1-1.4,2.2-2.1,3.2c-0.2,0.3-0.7,0.5-1,0.5C97.8,61.9,95,62,92.1,62c-1,0-1.5-0.6-1.5-1.8c0-1.3,0.1-2.6,0-4
	c0-0.7-0.2-1.4-0.3-2.1c0-0.2-0.1-0.4,0-0.6c0.2-1.3,0.5-2.6,0.6-4c0.3-2.7,0.8-5.4,0.9-8.1c0.1-2.2,0.3-4.5,0.9-6.6v-0.1
	c-0.9-1.7,0.5-3.2,0.4-4.8c0-1.7,0.3-3.5,0.4-5.2c0-0.5-0.2-0.9-0.3-1.4c0-0.2-0.2-0.4-0.1-0.5c0.9-1.6,0.3-3.3,0.7-4.9
	c0.1-0.6,0.5-1.2,0.9-1.6c2.2-1.9,4.4-3.8,6.8-5.5c0.7-0.5,1.9-0.6,2.8-0.5c2.1,0.1,4.3,0.4,6.3,0.8c2.7,0.5,5.4,1.1,8,1.9
	c2.6,0.8,4.2,2.9,5.7,5C125.2,19.1,125.8,20.3,126.4,21.3z M98.6,53c1.9,0,3.6,0,5.3,0c0.2,0,0.6-0.4,0.7-0.7
	c0.2-0.9,0.4-1.8,0.4-2.7c0.2-3.4,0.4-6.8,0.7-10.2c0.1-1,0.7-1.4,1.7-1.2c0.5,0.2,1,0.3,1.6,0.3c3.4,0,6.5-1,9.3-2.9
	c0.8-0.6,1.4-1.4,2.2-2c2.2-1.6,3.7-3.7,4.2-6.3c0.7-3,0.5-5.9-1.6-8.4c-0.5-0.6-1-1.1-1.4-1.7c-1.2-1.6-2.7-2.7-4.6-3.1
	c-2.5-0.6-5-1.2-7.5-1.6c-1.4-0.3-2.8-0.3-4.3-0.4c-0.5,0-1.3,0.2-1.4,0.6c-0.4,1.1-0.8,2.2-0.9,3.4c-0.6,4.4-1.2,8.8-1.8,13.2
	c-0.8,6.4-1.5,12.7-2.3,19.1C98.8,49.9,98.7,51.4,98.6,53z M128.3,52.1c1.2-0.1,2.1-0.1,3.1-0.3c0.6-0.1,1.1-0.5,1.1-1.2
	c0.3-2.5,0.6-4.9,0.9-7.4c0.1-1.5,0.8-1.9,2.2-1.4c0.7,0.3,1.5,0.2,2.2,0.3c0.6,0,1.2-0.1,1.8-0.1c0.9,0,1.4,0.5,1.5,1.4
	c0.3,2.8,0.7,5.5,1.1,8.3c0,0.3,0.3,0.8,0.4,0.8c1.3,0,2.5,0,3.8-0.1c0.9,0,1-0.7,1-1.4c0-1.1-0.1-2.3-0.2-3.4
	c-0.8-6.6-1.5-13.1-2.4-19.6c-0.5-3.6-1.1-7.1-1.8-10.7c-0.1-0.3-0.3-0.8-0.6-0.8c-1.8-0.4-3.5-0.8-5.3-1.1c-1.6-0.3-1.9,0-2.3,1.4
	c-0.5,1.9-0.7,3.9-1.3,5.8c-0.9,3.4-1.4,6.8-2.1,10.3c-1,4.9-2.5,9.7-2.8,14.7C128.7,49,128.5,50.4,128.3,52.1z M146.9,54.2
	c-1.5,0-2.9,0-4.3,0c-0.3,0-0.7,0.2-0.8,0.5c-1,2-2,4.1-3.2,6.3c1.2,0.1,2.2,0.1,3.2,0.2c1.9,0.3,3.1-0.4,3.7-2.3
	C146,57.4,146.9,55.9,146.9,54.2z M103.9,54.9c-2.2,0-4.4,0-6.5,0c-0.2,0-0.3,0.2-0.5,0.4c-1,1.7-2,3.3-3.1,5
	c1.9,0.6,3.9,0.3,5.8,0.1c0.2,0,0.5-0.1,0.7-0.3C101.7,58.5,103.1,56.9,103.9,54.9z M117.3,38.2c-0.2,0-0.3-0.1-0.4-0.1
	c-2.8,1.3-5.8,2.2-9,2c-0.2,0-0.6,0.3-0.6,0.5c-0.1,1.8-0.2,3.5-0.3,5.5C111.8,45,114.6,41.9,117.3,38.2z M120.5,59.4
	c2.4-0.4,4.7-0.3,6.5-1.2s3.1-2.9,4.6-4.4c-1.5,0-2.7,0.2-3.9-0.1c-0.8-0.1-1.2,0.1-1.7,0.5c-1.6,1.4-3.2,2.8-4.8,4.3
	C121.1,58.7,120.9,58.9,120.5,59.4z M133.8,53.1c0.8,0.3,1.5,0.1,1.9-0.8c1.2-2.8,2.3-5.6,3.5-8.6c-1.3,0-2.4,0-3.6,0
	c-0.2,0-0.5,0.3-0.5,0.5c-0.2,1-0.4,2-0.5,3C134.2,49.2,134,51.1,133.8,53.1z M92.7,58.9c2.6-3.3,5-7.5,4.5-10
	c-1.4,1.3-2.9,2.6-4.3,4c-0.1,0.1-0.2,0.4-0.2,0.6C92.7,55.2,92.7,57,92.7,58.9z M102.2,12.7c-0.1-0.1-0.2-0.1-0.3-0.2
	c-1.7,1.3-3.3,2.7-5,4c-1.4,1.1-1.4,2.6-1.4,4.3c0.4-0.3,0.6-0.4,0.8-0.5c1.6-1.5,3.2-3.1,4.8-4.5C102,14.8,102,13.7,102.2,12.7z
	 M133.4,16.8c-3.2,1.6-6,6-6.1,9.4c1.4-1.5,2.6-3,4-4.3C132.9,20.4,133,18.6,133.4,16.8z M101.3,17.8c-0.1-0.1-0.2-0.1-0.3-0.2
	c-0.3,0.3-0.6,0.5-0.8,0.8c-1.2,1.1-2.2,2.2-3.5,3.1c-1.4,0.9-1.4,2.1-1.3,3.5c0.1,0,0.1,0,0.2,0c1.7-1.3,3.4-2.5,5.1-3.8
	c0.1-0.1,0.2-0.4,0.2-0.6C101,19.7,101.1,18.7,101.3,17.8z M94.9,30.2c1.7-1.5,3.3-2.9,5.2-4.6c0.1-0.6,0.2-1.6,0.3-2.6
	c-0.1-0.1-0.2-0.1-0.3-0.2c-1.5,1.4-3,2.8-4.4,4.2C94.9,27.9,94.7,28.9,94.9,30.2z M121.6,48.5c1.9-1.8,3.8-3.6,5.6-5.5
	c0.6-0.6,0.8-1.6,1.2-2.3c-0.1,0-0.2-0.1-0.3-0.1c-1.4,1.3-2.8,2.6-4.4,3.7C122.4,45.2,121.6,46.6,121.6,48.5z M122.8,42.4
	c0.2,0.1,0.3,0.2,0.5,0.3c1.7-1.7,3.3-3.4,5-5.1c0.8-0.8,1.2-1.7,1.3-3c-0.2,0.1-0.5,0.2-0.6,0.4c-1.7,1.7-3.5,3.5-5.1,5.3
	C123.3,40.9,123.1,41.7,122.8,42.4z M99.7,28.3c-0.1,0-0.1-0.1-0.2-0.1c-1,1-2,2-3.1,2.9c-1.4,1-2.2,2.3-1.9,4.1
	c0.1,0,0.2-0.1,0.3-0.1c1.5-1.3,2.9-2.6,4.4-3.9c0.1-0.1,0.2-0.4,0.2-0.6C99.5,29.8,99.6,29.1,99.7,28.3z M119,58.1
	c0.1,0,0.1,0.1,0.2,0.1c0.2-0.1,0.4-0.2,0.6-0.4c1.9-1.7,3.8-3.4,5.7-5.2c0.8-0.8,1.9-1.5,1.5-2.9c-2.3,2.1-4.7,4.2-7,6.4
	C119.4,56.7,119.3,57.5,119,58.1z M120,53.9c2.3-1.9,4.4-3.9,6-6.3c0.3-0.4,0.8-0.7,1.3-1.2c0-0.1,0-0.5,0-1
	c-2.1,1.9-4.1,3.7-6.1,5.5C120.5,51.7,119.9,52.6,120,53.9z M93.8,40.5c0.7-0.6,1.2-1,1.7-1.5c0.8-0.9,1.6-1.9,2.5-2.8
	c0.9-0.9,1.1-1.3,0.9-2.5c-1.3,1-2.5,2.3-3.9,3.3C93.9,37.9,93.7,39,93.8,40.5z M124.5,36.6c1.8-1.4,3.7-2.8,5.5-4.2
	c0.1-0.1,0.1-0.2,0.1-0.3c0.2-0.8,0.3-1.7,0.5-2.5c-0.1-0.1-0.3-0.2-0.4-0.3c-1.3,1.4-2.6,2.7-3.8,4.2
	C125.6,34.5,124.4,35.2,124.5,36.6z M98.2,43.6c-0.2-0.1-0.3-0.2-0.5-0.3c-1.5,1.5-3.1,2.9-4.5,4.5c-0.4,0.5-0.3,1.4-0.4,2.2
	c0.1,0,0.3,0.1,0.4,0.1c1.3-1.4,2.6-2.7,3.7-4.2C97.5,45.3,97.8,44.4,98.2,43.6z M139.7,45.8c-1.1,3.2-2.2,6.1-3.3,9.1
	c0.1,0,0.2,0.1,0.3,0.1C138.5,52.3,141.1,49.9,139.7,45.8z M98.3,38.8c-1.2,1-2.4,2-3.5,3c-0.8,0.8-1.6,1.7-1.5,3.4
	c1.5-1.5,2.8-3,4.2-4.2C98.3,40.3,98.5,39.7,98.3,38.8z M131.6,24.1c-0.2,0.1-0.3,0.1-0.3,0.2c-1.2,1.4-2.3,2.9-3.5,4.3
	c-0.2,0.2-0.3,0.5-0.5,0.7c-1.2,0.8-1.3,1-1.4,2.6c1.7-1.8,3.2-3.5,4.8-5.2C131.4,25.8,131.6,25.1,131.6,24.1z M137.5,59.6
	c1.1-2.5,2.9-4.5,3.3-7.4c-1.1,1.6-2,3-3,4.3C137,57.5,136.8,58.4,137.5,59.6z"/>
<path d="M152,30.7c-1.2,0-2.3-0.1-3.4,0c-0.8,0-1.3-0.3-1.3-1c-0.3-2.5-0.8-5-0.7-7.6c0.1-1.5,0.8-3.2,1.7-4.5
	c1.3-1.9,3-3.6,4.5-5.3c0.2-0.3,0.4-0.7,0.5-1c0.2-0.9,0.9-1.2,1.7-1.1c1.7,0.1,3.5,0.2,5.2,0.4c3.9,0.6,7.7,1.2,11.6,1.8
	c1.3,0.2,2.5,0.5,3.8,0.7c1,0.2,1.3,0.7,1.1,1.7c-0.8,2.9-1.5,5.9-2.2,8.8c-0.1,0.2-0.1,0.5-0.3,0.7c-1.1,1.6-2.1,3.2-3.2,4.8
	c-0.5,0.8-1.1,1.5-2.2,1.6c-0.6,0-0.8,0.4-0.8,1c0.1,4.1,0.1,8.1,0.3,12.2c0.2,4.4,0.1,8.7-0.5,13c-0.1,0.4-0.2,0.9-0.5,1.2
	c-2,2.1-3,4.8-5.4,6.6c-0.9,0.6-1.7,1.2-2.8,1.1c-1.5,0-3.1-0.2-4.6-0.2c-0.4,0-0.9,0.2-1.2,0.4c-1,0.7-2,0.4-2.1-0.8
	c-0.3-2.6-0.6-5.3-0.8-8c-0.2-2.6-0.3-5.2-0.1-7.8c0.2-2.4,0.8-4.7,1.1-7.1c0.4-3.3,0.7-6.5,1-9.8C152.5,32,152.1,31.3,152,30.7z
	 M162.8,57.4L162.8,57.4c0.8,0,1.6-0.1,2.4,0c0.7,0.1,1-0.2,1.1-0.9c0.2-1.9,0.6-3.8,0.6-5.6c-0.1-7-0.4-14-0.6-21
	c-0.1-2.1-0.2-4.3-0.5-6.4c-0.2-1.3,0.4-1.9,1.7-1.7c1.5,0.2,3.1,0.4,4.7,0.6c0.7,0.1,1.1-0.1,1.2-0.8c0.5-2,1-3.9,1.4-5.9
	c0.2-0.7-0.1-1.1-0.8-1.2c-2.5-0.5-4.9-1.1-7.4-1.6c-3.4-0.7-6.9-0.8-10.4-0.9c-0.3,0-0.9,0.3-0.9,0.6c-0.4,2.7-0.7,5.5-0.9,8.3
	c0,0.2,0.4,0.7,0.7,0.7c1.1,0,2.3-0.1,3.4-0.3c0.7-0.1,1.1,0.1,1.3,0.7c0.1,0.4,0.2,0.8,0.2,1.3c0,5,0,10.1-0.1,15.1
	c0,3.4-0.2,6.8-0.3,10.3c0,1.3,0.2,2.6,0.2,3.8c0,1.3-0.2,2.5-0.3,3.8c-0.1,0.9,0.2,1.4,1.2,1.3C161.3,57.3,162,57.4,162.8,57.4z
	 M154.6,64.2c1.4,0.1,2.7,0.3,4,0.3c0.5,0,1.2-0.2,1.6-0.5c0.9-0.7,1.8-1.4,2.6-2.2c0.7-0.8,1.1-1.7,1.8-2.8c-1.8,0-3.2-0.1-4.6,0
	c-1.2,0.1-2.5,0.2-3.1,1.6C156.2,61.8,155.4,62.9,154.6,64.2z M157.8,47.9c-1.4,1.4-2.6,2.5-3.8,3.7c-0.5,0.5-1.1,0.9-1.9,1.5
	c0.1,1.4,0.1,3,0.2,4.8c1.9-2,3.6-3.9,5.2-5.7c0.1-0.1,0.2-0.4,0.2-0.6C157.8,50.4,157.8,49.3,157.8,47.9z M156.8,23.3
	c-2.8-0.4-3.1-0.2-4.1,2.1c-0.2,0.4-0.4,0.8-0.6,1.2c-0.5,0.9-1.1,1.8-1.6,2.7c0.8,0,1.6,0,2.3,0c0.3,0,0.6-0.1,0.7-0.3
	C155,27.3,156,25.4,156.8,23.3z M158,42c-0.1-0.1-0.2-0.2-0.4-0.3c-1.2,1.3-2.4,2.6-3.6,3.9c-0.6,0.6-1.4,1.2-1.6,1.9
	c-0.3,0.9-0.3,2-0.4,3.1c0.2,0.1,0.3,0.2,0.5,0.2c0.3-0.4,0.5-0.8,0.8-1.1c1.5-1.6,3-3.2,4.6-4.8c0.1-0.1,0.1-0.3,0.1-0.5
	C158,43.6,158,42.8,158,42z M167.9,29.2c1.1-0.1,4.1-3.6,4.4-5.1c-1.3-0.2-2.5-0.4-3.8-0.7c-0.6-0.1-1,0-1,0.7
	C167.7,25.8,167.8,27.5,167.9,29.2z M157.7,55.1c-0.1,0-0.2-0.1-0.3-0.1c-0.5,0.5-0.9,1.1-1.5,1.5c-1.2,1-1.6,2.8-3.6,2.8
	c0.1,1.5,0.2,2.8,0.3,4.2c0.1,0,0.2,0.1,0.4,0.1c1.4-2.2,2.9-4.3,4.2-6.5C157.6,56.6,157.6,55.8,157.7,55.1z M153.5,39.1
	c1.2-1.5,2.2-3,3.5-4.1s1-2.5,1.1-3.8c-1.1,1.1-2,2.4-3.1,3.5C153.8,35.9,153.4,37.2,153.5,39.1z M154.2,30.6
	c0.1,0.7,0.1,1.4,0.2,2.2c1-1.2,1.8-2.5,2.9-3.5c1.6-1.5,0.9-3.3,0.9-5C156.8,26.5,155.9,28.9,154.2,30.6z M157.9,36.7
	c-1.3,1.6-2.6,3-3.9,4.5c-0.2,0.2-0.4,0.4-0.5,0.7c-0.2,0.6-0.3,1.2-0.4,1.7c0.1,0,0.2,0.1,0.4,0.1c1.2-1.2,2.4-2.4,3.5-3.7
	C157.7,39.1,158.4,38.1,157.9,36.7z M148.2,25c2.1-1.1,4.6-4.9,4.3-6.1c-1.3,1.7-2.7,3.3-3.9,5C148.4,24.2,148.3,24.6,148.2,25z
	 M153,14.4c-1.8,2-3.8,3.8-4.5,6.5C150.2,18.9,152.3,17.1,153,14.4z M148.7,28.3c0.1,0.1,0.3,0.2,0.4,0.2c0.8-1.3,1.5-2.5,2.3-3.8
	c-0.1-0.1-0.2-0.1-0.3-0.2C150.7,26,148.5,26.4,148.7,28.3z"/>
<path d="M234.5,35.1c0-2,0.4-3.9,1.4-5.8c0.6-1.1,1.4-1.7,2.6-1.8c1.2-0.2,1.9,0.3,2.2,1.5c0.2,0.5,0.5,1,0.7,1.5
	c0.3,1,0.7,2,0.7,3.1c0.2,2,0.5,4-0.1,6c-0.5,1.6-2.2,3-3.8,3.1c-1.2,0-2-0.7-2.5-1.7C234.9,39.5,234.4,36.8,234.5,35.1z
	 M238.5,29.1c-0.2,0.2-0.5,0.3-0.6,0.5c-1,1.5-1.4,3.3-1.4,5.1c0,0.2,0.2,0.5,0.4,0.6c1.7,1.1,2.4,2.6,2.1,4.6
	c-0.1,0.4-0.1,0.7-0.1,1.1c0.1,0,0.2,0.1,0.4,0.1c0.4-0.6,0.9-1.1,1-1.7C240.8,35.8,240.4,32.3,238.5,29.1z M236.9,36.9
	c-0.2,0-0.3,0.1-0.5,0.1c0.3,1,0.5,1.9,0.8,2.9c0.2,0,0.3-0.1,0.5-0.1C237.4,38.9,237.1,37.9,236.9,36.9z"/>
<path d="M74.2,29.7c-0.6,2.3-1.1,4.6-1.9,6.9c-0.2,0.8-0.9,1.5-1.5,2c-1.3,1.1-2.8,0.9-4-0.4c-1.8-2-1.6-4.4-1.3-6.8
	c0.2-1.5,0.5-3.1,1.5-4.4c1.3-1.6,2.8-2.3,4-1.8c2.2,1,2.9,1.5,2.8,4.4C74,29.7,74.1,29.7,74.2,29.7z M68.8,37.4
	c1.8-0.2,3.2-3.3,3.1-6C69.7,32.8,69.7,35.2,68.8,37.4z M69.1,31.7c0.1,0,0.2,0,0.3,0c0.8-0.9,1.7-1.8,2.4-2.8c0.2-0.2,0-0.7-0.1-1
	C71.4,28,71,28,70.9,28.2c-0.6,0.8-1.3,1.6-1.8,2.5C69,30.9,69.1,31.3,69.1,31.7z M67.4,35.3c0.1,0,0.2,0,0.3,0
	c0.3-2.6,0.3-2.6-0.5-3.2C67.3,33.3,67.3,34.3,67.4,35.3z"/>
<path d="M117,23.7c0.5,3-2.3,6.2-5,7.1c-1.4,0.4-2.8,0.8-4.3,0.4c-1-0.3-1.3-0.8-1.2-1.8c0.1-1.6,0-3.3,0.2-5
	c0.2-1.9,0.6-3.8,0.9-5.7c0.1-0.6,0.6-0.8,1.2-0.7c0.4,0.1,0.8,0.1,1.2,0c3.1-0.9,6.5,1.4,6.9,4.7C116.9,23,117,23.4,117,23.7z
	 M114.9,22c-1.7,2.1-2.9,4.4-2.9,7.1C115,27.7,116,25.2,114.9,22z M108.7,25.1c-0.1,1.2-0.3,2.3-0.2,3.5c0,0.3,0.6,0.7,1,1
	c0.1,0,0.6-0.4,0.7-0.7c0.2-0.4,0.3-0.8,0.4-1.2C110.8,26.1,110.4,25.5,108.7,25.1z M111,24.6c1-1.3,1.9-2.5,2.9-3.8
	c-0.2-0.2-0.5-0.5-1-0.9c-1,1.4-1.9,2.7-2.9,4C110.4,24.1,110.7,24.3,111,24.6z M108.9,22.9c0.9-1.2,1.7-2.3,2.5-3.4
	C108.8,19.7,108.5,20.1,108.9,22.9z"/>
<path d="M135.8,37.1c-1.6,0.1-1.8-0.3-1.4-1.8c0.5-1.7,0.7-3.5,1.1-5.2c0.3-1.4,0.6-2.8,1.1-4.1c0.2-0.5,0.8-0.8,1.2-1.2
	c0.3,0.5,0.8,0.9,0.9,1.4c0.6,2.5,1.1,5.1,1.6,7.6c0.1,0.5,0.2,0.9,0.3,1.4c0.1,0.9-0.4,1.5-1.3,1.6C138.2,36.9,137,37,135.8,37.1z
	 M136.6,33.2c2-1.1,1.4-2.7,0.9-4.2C137.1,30.3,136.9,31.7,136.6,33.2z M139,35c-0.1-0.5-0.2-1-0.3-1.6c-0.5,0.7-0.9,1.2-1.5,2
	C137.9,35.2,138.4,35.1,139,35z"/>
</svg>
