<?xml version="1.0" encoding="utf-8"?>
<!-- Generator: Adobe Illustrator 23.1.0, SVG Export Plug-In . SVG Version: 6.00 Build 0)  -->
<svg version="1.1" id="Contours" xmlns="http://www.w3.org/2000/svg" xmlns:xlink="http://www.w3.org/1999/xlink" x="0px" y="0px"
	 viewBox="0 0 1072.9 1376.1" style="enable-background:new 0 0 1072.9 1376.1;" xml:space="preserve">
<desc  xmlns:shape="http://adobe.com/products/shape"></desc>
<path d="M10.8,0c-0.1,21-0.4,41.9-0.8,62.9c-0.3,16.2-0.7,32.5-1,48.7c-0.3,15.4-0.6,30.7-1,46.1c-0.3,12.7-0.7,25.4-1,38.1
	c-0.3,12.3-0.7,24.7-1,37c-0.7,23.7-1.3,47.4-2,71c-0.3,10.6-0.7,21.1-1,31.6c-0.4,13.5-0.6,27-1,40.6c-0.5,14.6-1,29.3-1.7,44
	C0,344.2,0,268.3,0.3,192.3c0-0.6-0.1-1-0.3-1.3c0-15.5,0-31,0.3-46.7c0-0.6-0.1-1-0.3-1.3c0-4.5,0-9,0.3-13.7
	c0.7-0.5,1.2-0.8,1.7-1c-0.7-0.8-1.3-1.5-2-2.3c0-15.5,0-31,0.3-46.7c0-1-0.1-1.6-0.3-2.3c0-4.5,0-9,0.3-13.7c1-0.5,1.8-0.7,2.5-1
	C1.9,61.9,0.9,61.4,0,61c0-14.8,0-29.7,0.3-44.7c1-0.5,1.9-0.8,2.7-1c-1-0.8-2-1.5-3-2.3C0,9.2,0,5.3,0.3,1.3C1.7,0.7,2.8,0.3,4,0
	C6.2,0,8.3,0,10.8,0"/>
<path d="M0,422.3c0.2,0,0.3,0.4,0.3,0.7C0,423,0,422.5,0,422.3"/>
<path d="M1071,45c-0.3,22.6-0.8,44.7-0.9,66.8c-0.1,9,0.5,18,0.9,27c0.3,7.6,0.8,15.1,1,22.6c0.4,18.2,0.9,36.4,0.9,54.6
	c0,15.1-0.4,30.2-0.9,45.3c-0.5,14-1.1,28.1-2,42.1c-1.2,17.8-2.2,35.6-4.1,53.4c-2.5,23.4-4.1,46.9-4,70.5
	c0,20.4-1.2,40.8-1.9,61.1c-0.5,12-1.2,23.9-1.7,35.8c-0.3,6.7-0.2,13.4-0.3,20.1c-0.3,25.2-0.5,50.4-1.1,75.6
	c-0.2,8.6-1.7,17.2-1.8,25.8c-0.3,19.6-0.2,39.1-0.1,58.7c0.2,27.5,0.6,55,1,82.6c0.2,15.5,0.6,31,1,46.5c0.2,6.9,1,13.8,0.9,20.6
	c-0.1,17.9-0.8,35.7-0.9,53.6c-0.1,27.7,0.1,55.4,0,83.2c-0.2,20.9-1,41.8-0.9,62.7c0,26.1,0.5,52.2,0.9,78.3
	c0.1,6.2,1,12.4,0.9,18.6c0,10.2-0.6,20.3-0.9,30.5c-0.3,11.1-0.9,22.1-0.9,33.1c0,12.4,0.7,24.8,0.9,37.1
	c0.4,23.4,1.1,46.8,0.8,70.1c-0.1,13.8-1.8,27.5-2.8,41.3c-0.2,3-0.8,6.4,0.2,9.1c1.1,3.1,0.6,3.6-2.3,3.3
	c-34.4-3.9-68.8-1.2-103.2-2c-14.2-0.3-28.4-0.9-42.6-1c-53.7-0.4-107.4-0.9-161.1-0.9c-26.7,0-53.4,1.4-80.1,1.8
	c-21,0.4-41.9,0.2-62.9,0.1c-30.1-0.2-60.3-0.6-90.5-1c-11.5-0.2-22.9-1-34.3-0.9c-10.6,0.2-21.1,1.4-31.7,1.8
	c-7.8,0.3-15.6,0.2-23.5,0.1c-7.2-0.1-14.5-0.5-21.8-0.7c-5.2-0.2-10.5-0.4-15.8-0.3c-16.9,0.3-33.8,0.9-50.7,0.9
	c-13.4,0.1-26.8-0.6-40.1-0.9c-19-0.4-38.1-0.9-57.1-0.9c-13-0.1-26,0.6-38.9,0.9c-12.1,0.3-24.1,0.5-36.1,1
	c-10.7,0.5-21.5,1.8-32.2,1.9c-34.6,0.6-69.2,0.8-103.7,1.1c-7.6,0.1-7.6,0-7.6-7.3c0-28.7-0.2-57.3,0.1-86
	c0.2-15.2,1.2-30.5,1.9-45.7c0.7-15.9,1.3-31.8,2-47.6c0.6-11.3,1.3-22.5,2-33.7c0.6-9.9,1.4-19.8,2-29.7c0.7-13.7,1.3-27.4,2-41.2
	c0.9-16.4,2.1-32.9,3-49.4c0.8-14,1.3-28.1,2-42.1c0.6-11.8,1.4-23.5,2-35.2c0.7-13.9,1.4-27.8,2-41.7c0.4-9.3,0.7-18.7,1-28.1
	c0.4-13.7,0.6-27.5,1-41.2c0.2-5.6,0.8-11.1,1-16.6c0.4-17.9,0.5-35.7,1-53.6c0.5-16.4,1.5-32.8,2-49.2c0.8-25.4,1.6-50.8,1.9-76.3
	c0.6-40.5,0.8-81,1-121.6c0.1-7.2-0.9-14.5-0.8-21.7c0-11.4,0.7-22.8,0.9-34.1c0.4-28.9,0.7-57.8,1-86.6c0.4-42.9,0.6-85.9,1-128.8
	c0.1-11,0.7-21.9,1-32.9c0.1-6.7-0.1-13.5,0-20.2c0.3-11.7,0.6-23.4,1-35.1c0.6-18.4,1.7-36.8,1.9-55.3c0.2-14.2-0.7-28.4-0.9-42.6
	c-0.1-12.5,0-25.1,0-37.6c0-4.9,0.2-9.8-0.1-14.7c-0.2-3.8,2.1-5.2,4.9-5.1c6.9,0.3,13.8,1.4,20.7,1.8c2.5,0.1,5.1-0.8,7.7-0.9
	c20.5-0.4,41.1-1,61.6-0.9c28.6,0,57.3,0.7,85.9,0.8c9.2,0.1,18.4-0.8,27.6-0.8c9.1,0,18.2,0.9,27.3,0.8c21.3-0.1,42.7-0.9,64-0.8
	c12,0.1,24,1.8,36,1.8c13.9-0.1,27.8-1.2,41.7-1.9c1,0,2,0,3,0c22.5,0,45-0.1,67.5,0c28.9,0.2,57.8,0.8,86.8,0.9
	c16.6,0.1,33.3-0.7,50-0.7c10.9-0.1,21.8,0.7,32.7,0.8c28.3,0.1,56.6-0.1,85,0c39.7,0.2,79.5,0.7,119.2,0.9
	c7.4,0.1,14.7-0.7,22.1-0.8c2.9-0.1,5.7,0.9,8.6,0.9c45.8,0,91.6,0,137.5,0c8.7,0,17.4,0.1,26.1,0c2.8-0.1,4.4,0.5,4.2,3.7
	c-0.2,3.4,0.1,6.8,0,10.2C1071.8,35.4,1071.3,40,1071,45 M879,516.5c0,0,0-0.5,0.5-0.5c0-0.6,0-1.3,0.1-1.9
	c-0.2,0.6-0.4,1.3-1.1,1.9c0.2,0.3,0.3,0.7,0.5,1.5c0,0,0,0.5-0.5,0.5c-0.8,5.1-1.9,10.2-2.4,15.4c-0.2,2.8,0.6,5.7,0.9,9.1
	c0.1,0.4,0.2,0.8,0.3,1.3c0.2-0.1,0.4-0.2,0.6-0.2c-0.3-0.6-0.6-1.1-0.9-2.1c0.6-0.6,1.7-1.2,1.7-1.8c0.2-7.2,0.2-14.5,0.8-21.7
	C879.3,517.7,879.2,517.3,879,516.5 M281.5,1220c0-0.3,0-0.6,0.1-0.9c-0.2,0.3-0.4,0.6-1.1,0.9c0,0.3,0,0.6-0.1,0.9
	C280.6,1220.6,280.8,1220.3,281.5,1220 M91.5,1104c0.2,0.3,0.3,0.7,0.5,1.5c0,0,0,0.5-0.5,0.5c0,0.3,0,0.6-0.1,0.9
	c0.2-0.3,0.4-0.6,1.1-0.9c-0.2-0.3-0.3-0.7-0.5-1.5c0,0,0-0.5,0.5-0.5c0-0.3,0-0.6,0.1-0.9C92.4,1103.4,92.2,1103.7,91.5,1104
	 M962.5,687c0-1,0-2,0.1-2.9c-0.2,0.9-0.4,1.9-1.1,2.9c0,0.3,0,0.6-0.1,0.9C961.6,687.6,961.8,687.3,962.5,687 M124.5,1336
	c0.3,0.9,0.5,1.8,0.8,2.8c0.2-0.1,0.4-0.2,0.7-0.3c-0.4-0.8-0.7-1.7-0.5-2.5c0.5-0.7,1-1.3,2-2c0.5-2.3,1-4.7,2-7
	c0-0.3,0-0.6,0.1-0.9c-0.2,0.3-0.4,0.6-1.1,0.9c-0.5,2.3-1,4.7-2,7C126,1334.7,125.5,1335.3,124.5,1336 M947.5,897
	c0,1.3,0,2.6-0.1,3.9c0.2-1.1,0.4-2.3,0.6-3.4c0-0.2,0-0.3,0.5-0.5c0-0.6,0-1.3,0.1-1.9C948.4,895.7,948.2,896.4,947.5,897
	 M787.5,776c-0.5,1.5-1,2.9-1.5,4.4c0.3,0,0.9,0.2,0.9,0.1c0.4-1.3,0.8-2.7,1.1-4c0-0.2,0-0.3,0.5-0.5c0-0.6,0-1.3,0.1-1.9
	C788.4,774.7,788.2,775.4,787.5,776 M805.5,833c-1.1,1.1-2.3,2.3-3.4,3.4c0.3,0.2,1,0.6,1,0.6c1-1.3,1.9-2.7,3.4-4
	c0-0.3,0-0.6,0.1-0.9C806.4,832.4,806.2,832.7,805.5,833 M274.5,1226c1.1-0.5,2.3-0.9,3.4-1.5c0.1-0.1-0.1-0.8-0.2-1.3
	c-0.9,0.4-1.8,0.8-2.7,1.3c-0.4,0.3-0.7,1-1.5,1.5c0,0.3,0,0.6-0.1,0.9C273.6,1226.6,273.8,1226.3,274.5,1226 M811.5,749
	c1.5-1.5,3.1-3,4.5-4.6c0.5-0.5,0.4-1.6,0.5-2.4c-0.8,0.3-2.1,0.2-2.4,0.8c-1.2,1.9-2.1,4.1-3.6,6.2c0,0.3,0,0.6-0.1,0.9
	C810.6,749.6,810.8,749.3,811.5,749 M860,827.5c0.3,0,0.6,0,0.9,0.1c-0.3-0.2-0.6-0.4-0.9-1.1c0-0.7,0-1.3,0-2
	c-0.1-2.1-0.3-4.3-0.4-6.4c-1.4,1-2.7,2-4.2,2.9c-1.4,0.9-2.9,1.7-4.4,2.5c1.7,0.7,3.4,1.4,5.1,2.1
	C857.4,826.1,858.7,826.5,860,827.5 M943.5,891c-3.1,0.2-5.2,1.2-5.9,4.8c-0.8,4-2.8,7.9-3.5,11.9c-1.1,6.1-1.5,12.4-2,18.6
	c-0.1,0.8,1,1.8,1.5,2.7c0.5-0.8,1.2-1.6,1.4-2.4c1-5.2,1.7-10.5,3.1-15.7c1.7-6.7,3.9-13.3,6.4-19.9c0-0.3,0-0.6,0.1-0.9
	C944.4,890.4,944.2,890.7,943.5,891 M304.5,790c10.4,4.6,15.7,12.8,17.7,23.7c0.9,4.5,3.9,6.9,8.3,8.4c5.8,1.9,11.6,4.2,17,7
	c5.5,2.9,10.8,6.2,12.6,13c0.8,2.9,2.6,5.8,4.8,7.8c4,3.8,9,6.8,13,10.6c10.3,9.9,20.3,20.1,27.7,32.5c7.7,13,16.3,25.5,23.5,38.8
	c6.6,12.5,12.6,25.4,17.6,38.7c5.6,14.7,9.7,30,14.1,45.1c0.5,1.7-1.1,4.1-2.1,6c-0.2,0.5-2.8,3-2.8-1c0-2.3-0.9-4.6-1.6-6.8
	c-4.1-13.1-7.6-26.5-12.5-39.3c-5.2-13.5-11.2-26.8-18-39.5c-7-13.1-14.7-25.9-23.4-37.8c-8.5-11.5-17.8-22.6-28.4-32.1
	c-10.1-9.2-21.8-16.8-33.5-23.8c-12.1-7.2-24.8-13.5-37.7-18.7c-10-4-20.4-6.9-31.4-7.8c-11.7-1-23.3-4.1-35.1-4.6
	c-14.5-0.6-29.1,0.3-43.6,0.9c-7.5,0.3-15.2,0.6-22.6,2c-19.6,3.7-38.2,10.6-55.9,19.5c-9.1,4.5-17.1,11.1-25.8,16.3
	c-8.2,5-15,11.5-20.2,19.5c-4.3,6.8-8.5,13.5-9.5,22.1c-0.9,7.1-5.3,13.6-6.5,20.7c-2.1,12.5,1.6,24.4,7.1,35.6
	c4,8,8.5,15.8,12.7,23.7c5.4,10.1,10.3,20.5,16.4,30.2c7.3,11.6,15.3,22.8,23.7,33.7c12.7,16.7,25.9,33,39.2,49.3
	c5.5,6.7,11.7,12.8,17.7,19.1c11.2,11.5,21.9,23.5,33.9,34.3c15.3,13.8,31.5,26.5,47.4,39.7c16.1,13.4,34.5,23.2,52.7,33.2
	c20.1,11,41.2,19.1,63.3,24.7c6.2,1.6,12.6,2.6,18.7-0.7c5.2-2.8,4.7-4.2,0.6-8.1c-7.1-6.9-13.5-14.6-20.2-22
	c-0.5-0.6-1.1-1.3-1.6-1.9c-0.3,0.7-0.6,1.3-0.8,2c-1,4.2-3.9,6-7.9,4.6c-4.6-1.7-9.2-3.5-13.6-5.7c-17.2-8.7-33.1-19.6-47.7-31.9
	c-14.8-12.6-28.6-26.2-42.1-40.2c-4.7-4.8-7.4-11.8-10.2-18.1c-0.8-1.9,0.4-5.5,1.9-7.2c1.7-2,4.7-2.6,7,0.3
	c1.1,1.4,2.7,2.4,4.2,3.2c12.6,6.3,23.9,14.4,34,24.1c1,1,2.2,1.9,3.5,2.4c1.1,0.4,2.5,0.2,3.7,0.2c-0.5-0.9-0.7-2-1.4-2.7
	c-2.5-2.6-4.8-5.2-4.5-9.2c0.1-1.4-1.3-2.8-1.8-4.2c-2.7-7.9-5.3-15.8-8.1-23.7c-0.9-2.3-1.6-5.4-3.3-6.5
	c-10.7-6.7-17.6-16.7-24.5-26.8c-4.6-6.8-2.7-13.6,4-15.1c1.8-0.4,4.2,0.5,6.1,1.3c7.5,3.1,12.8,8.6,16.1,16.1c0.3,0.7,0.7,1.3,1,2
	c0.5-0.7,1.1-1.4,1.4-2.3c0.3-0.9,0.4-2,0.2-2.9c-2.2-7.7-0.5-14.9,2.7-22c0.8-1.8,1.2-4,1.3-6c0.4-9.2,0.1-18.4,1.2-27.6
	c1.1-9.4,4.6-18.1,11.2-25.3c1-1.1,0.7-4,0-5.6c-0.5-1.6-2.3-2.9-3.7-4c-10.5-7.6-17.4-18.1-23.8-29.1c-1-1.6-0.5-5.2,0.8-6.8
	c0.8-1.1,4.6-1.1,6.2-0.2c7.6,4.6,14.9,9.5,22.1,14.5c3.7,2.5,7,5.6,10.5,8.4c2.1,1.6,3.7,2.5,5.3-1.1c1.6-3.5,3.8-7.2,6.7-9.7
	c9.3-7.7,15.5-3.6,18.3,5.9c5.5,18.8,9.6,38,14.8,56.9c5,18.1,12.9,35,21.5,51.6c1,2,3,3.5,4.6,5.2c-0.6-2.1-1-4.4-1.9-6.4
	c-5.2-13-11.2-25.8-15.7-39c-5.9-17.4-10.8-35.2-16.1-52.8c-3.3-10.8-4-21,4.9-29.9c2.6-2.5,8.9-4.9,12.5-3.8
	c11.5,3.3,15.5,13.1,19.5,22.6c2.4,5.9,3.1,12.4,5.2,18.4c3.4,9.7,7.6,19.2,10.7,29c1.2,3.8,2.4,2.7,4.3,1.5
	c4.1-2.5,7.1-1.2,10.7,1.7c8.8,7.2,13.1,16.9,16.2,27.3c3.5,12.1,7.1,24.2,9.8,36.4c1.1,5.1,1.3,11.2-0.5,15.9
	c-2,5.3-0.6,8.7,2.4,12.4c0.6,0.8,1.7,1.3,2.6,1.9c0.6-1.2,1.7-2.5,1.6-3.7c-0.5-6.6-0.4-13.4-2.1-19.6c-2.6-9.4-2.8-18.7-0.6-27.8
	c2.8-11.6,6.1-23.2,19.5-28c9-3.3,18.9,2.8,18.3,11.8c-0.2,4.2-0.2,8.5,0,12.7c0.6,10.9,1,21.8,2.1,32.6c0.7,7,2.3,14,4,20.9
	c0.8,3.2,2.4,6.3,3.9,9.3c3.4,6.7,1.9,13.9,2,20.9c0,0.9,0.3,1.9,0.4,2.8c0.9-0.5,2-0.9,2.7-1.6c4.2-4,7.9-8.1,10.2-13.8
	c2.2-5.2,6.7-9.5,9.6-14.5c6.1-10.3,11.9-20.7,17.7-31.2c5-8.9,10.1-17.8,14.8-26.8c3.8-7.3,7-14.8,10.6-22.1
	c1.4-2.8,1.6-5.1-0.9-7.4c-1.8-1.6-3.3-3-2.3-6.3c3.5-11.3,6.2-22.8,9.2-34.2c6.8-26,13.9-51.9,20.4-78c3.4-13.9,6-28,8.5-42
	c1.7-9.4,1.8-19.2,4.4-28.3c2.8-10.3,7.5-20.1,11.7-30.1c1.2-2.9,1-5.2-0.7-7.9c-2-3.2-4.7-6.7-5.1-10.3c-0.7-8.5-0.2-17.1-0.2-25.6
	c-0.1-16.2,4.9-31.5,8.6-46.9c3.4-14,7.3-27.8,6.4-42.4c-0.2-3.9-0.4-7.6-5.8-7.9c-2.1-0.1-4.3-1-6.1-2.1
	c-5.1-3.1-10.3-6.2-14.9-9.9c-10.7-8.7-15.8-23.1-6.1-36.2c9.2-12.3,14.8-25.8,17.2-41c1-6.6,3.8-13.5,10.7-16.8
	c3.7-1.8,4.3-4.6,4.1-8.3c-0.3-6.3,3.6-11.3,9.5-13.3c2.5-0.9,4.9-2,7.1-3.3c3.2-2,4.5-5.2,2.9-8.5c-3.1-6.2-2.7-12.8-2.6-19.4
	c0.2-8.8,4.4-12.9,13-12.8c10.5,0.2,21.1,0.6,31.6,1c2.9,0.1,5.7,1.1,8.6,0.9c6.2-0.4,12.4-1.1,18.6-2c1.8-0.2,3.5-1.3,5-2.3
	c2.4-1.5,4.8-3.1,7-4.9c6.2-5.2,13.3-9.6,18.3-15.7c7.4-8.9,15.9-15.4,26.3-19.9c4.8-2.1,9.6-4.2,14.5-6c2.8-1.1,5.7-1.5,8.6-2.1
	c6-1.2,12.2-0.8,18-3.9c5.9-3.1,12.3-5.5,18.7-7.7c12.3-4.3,24.8-2.2,37.2-0.4c8.2,1.2,16.4,3,24.4,5.1c7.8,2,15.7,4,22.9,7.4
	c9.6,4.5,15.8,14,27.3,16.6c6.2,1.4,11.7,7.5,16.7,12.3c5.5,5.4,9.9,11.9,15,17.7c9.5,11.1,18.1,22.7,24.3,35.9
	c4.3,9.1,9.1,18,13.4,27c1,2.1,0.9,4.6,1.9,6.7c2,4.3,5.5,8.3,6.5,12.8c2,9.8,3.3,19.8,4,29.8c0.5,6.5,0,13.1-0.9,19.6
	c-1.2,8.7-3.2,17.3-4.9,25.9c-2,9.8-4.1,19.7-6,29.5c-2,10.7-3.8,21.4-5.9,32.1c-2.6,13-5.9,26-8,39.1c-1.9,12.5-3.2,25.2-4,37.9
	c-0.9,15.1,0.8,30.2,4.6,45c1.5,5.9,1.7,12.1,2.3,18.2c0.1,0.7-0.7,1.6-1.1,2.4c-0.7-0.6-1.8-1-2.1-1.8c-1-2.8-1.8-5.6-2.5-8.4
	c-3.9-14.4-7.2-28.9-6.3-44c0.4-6.6,0.7-13.3,1-20c0-2.3-0.3-4.5-0.5-6.8c-1.2,2.2-2.4,4.4-3.5,6.6c-0.1,0.3,0,0.6,0,1
	c0.3,12.6-4.3,25-2.1,37.8c1.4,7.7,2.5,15.5,3,23.3c0.5,6.9,0.6,14-0.2,20.9c-0.9,7.5-2.5,14.7-0.9,22.4c1,4.6,0.3,9.6,0.1,14.4
	c-0.1,0.9-1.8,1.7-2.7,2.6c-0.4-0.9-1-1.7-1.1-2.6c-0.2-1.5,0.2-3.1-0.1-4.5c-2.3-9.9-4.6-19.8-7.1-29.6c-0.4-1.8-1.6-3.5-2.5-5.2
	c-0.5,2-1,4-1.4,6c-0.1,0.9,0.3,1.8,0.4,2.8c0.2,3.6,1.2,7.3,0.4,10.7c-3.6,13.6-7.9,27-11.5,40.7c-2.5,9.3-4.2,18.9-6.3,28.4
	c-1,4.2-1.9,8.5-3,12.7c-0.1,0.6-0.8,1.1-1.2,1.6c-0.3-0.5-0.7-1-0.8-1.5c-0.4-4.9-0.6-9.7-1-14.6c-0.2-1.7-0.5-3.4-1.1-5.1
	c-0.1-0.4-1.2-0.7-1.9-0.7c-0.3,0-0.9,0.7-1,1.2c-0.1,2.7-0.3,5.5,0,8.2c0.5,5.4,1.5,10.7,1.9,16.1c0.1,1.4-1.2,2.9-1.9,4.4
	c-0.7-1.1-1.7-2.2-1.9-3.4c-1.8-7.4-3.5-14.9-5.1-22.4c-0.8-4.4-1.8-8.8-1.9-13.2c-0.1-7.1,0.8-14.1,0.8-21.2
	c0-3.4-1.4-6.8-1.9-10.2c-1.1-8.1-1.6-16.2-3.2-24.2c-2.6-12.3-5.7-24.6-8.9-36.8c-0.5-2-2.2-3.7-3.4-5.6c-0.2,1.9-0.8,4-0.4,5.7
	c3.1,14.2,6.7,28.3,9.5,42.6c2,10.3,3.5,20.7,4.2,31.2c0.4,6.3-2.1,12.8-1.6,19.1c0.8,9.4,2.2,19,5.1,27.9
	c4.4,13.5,4.3,27.3,5.7,41.1c0.9,9,1.1,18.1,2.1,27.1c1.4,13.2,2.9,26.4,5,39.5c2.3,14.4,5.3,28.7,7.9,43.2c1.5,8.9,2.7,17.9,4,26.8
	c1.2,8,2.7,16,3.6,24c0.7,6.2,0.7,12.5,0.9,18.7c0,1.1-1,2.1-1.5,3.1c-0.7-1.1-1.8-2.2-1.9-3.4c-0.9-5.7-1.3-11.4-2.2-17.1
	c-0.1-1.3-1.2-2.4-1.8-3.5c-0.4,1.1-1.1,2.2-1,3.2c0.2,7.1,0.6,14.1,0.9,21.1c0.4,10.7,0.6,21.4,1,32.1c0.3,7.9,0.7,15.7,1,23.6
	c0,0.5,0,1,0,1.5c0.7,7.2,1.7,14.4,1.8,21.7c0.1,3.2-0.9,7.3-5.5,7.8c-5,0.5-10.1,1-15.1,0.9c-3.8-0.1-4.9,2-5.1,4.9
	c-1.2,11.2-2.5,22.4-3,33.7c-0.3,8.8,0.5,17.7,1,26.6c0.1,3,1,5.9,1.4,8.9c0.9,8.3,1.7,16.6,2.4,24.9c0,0.7-1.7,1.4-2.6,2.1
	c-1.1-1.6-2.9-3-3.2-4.7c-0.7-4.5-0.6-9.1-1.1-13.6c-1.3-10.6-2.8-21.2-3.9-31.8c-0.4-3.3,0-6.7-0.1-10c-0.3-9.9-1.6-19.8-0.8-29.6
	c1-11.8,1.7-11.8-9.5-13.2c-0.5-0.1-1.6,0.7-1.6,1c0.2,2.6,0.9,5.1,0.8,7.6c-0.1,7.5-0.7,15.1-0.9,22.6c-0.1,8-0.2,16,0,24
	c0.6,15.4,1.3,30.8,2,46.2c0,0.3,0,0.7,0,1c-0.5,3.4,0.8,4.7,4.4,4.6c6.8-0.3,13.7-0.2,20.6-0.1c13,0.3,26,0.6,39,1
	c5,0.2,10,0.9,15,1c16.4,0.1,32.7,0,49,0c1.9,0.1,3.8,0.6,5.6,1c4.1,0.9,7.2-0.7,7.4-4.1c1-19.7,2.6-39.5,2.8-59.3
	c0.3-27.5-0.5-55-0.8-82.5c0-1-0.2-1.9-0.3-2.9c-0.2-4.3-0.8-8.6-0.6-12.9c0.4-7.2,1.5-14.4,1.8-21.7c0.2-5-0.8-10-0.8-15
	c0-5.6,0.9-11.2,0.8-16.8c0-8.2-0.7-16.4-0.9-24.6c-0.4-23.2-0.9-46.4-0.9-69.6c-0.1-15.3,0.6-30.7,0.9-46.1
	c0.3-13.3,0.9-26.7,0.9-40c0-10.3-0.9-20.6-0.8-30.8c0-16.2,0.7-32.4,0.8-48.6c0.1-8.7-0.8-17.4-0.8-26.1c0-8,0.9-16,0.8-24.1
	c0-12.8-0.5-25.7-0.9-38.5c-0.3-9.8-0.8-19.6-1-29.3c-0.4-19.1-0.9-38.2-0.9-57.3c0-17.5,0.6-35,0.9-52.5c0.3-15.7,0.7-31.4,1-47.1
	c0.1-10.3-0.1-20.6,0.2-30.8c0.4-18.2,1.3-36.3,1.8-54.4c0.7-27.9,1.3-55.8,2-83.7c0.3-13.8,0.7-27.7,1-41.6c0-1.8-0.9-3.7-0.7-5.4
	c0.8-8.5,1.9-16.9,2.7-25.4c1.1-12.4,2-24.8,3-37.3s2.1-25.1,3-37.7c0.8-10.9,1.5-21.8,2-32.7c0.5-11.2,1-22.4,0.9-33.6
	c0-18.3-0.5-36.7-0.9-55.1c-0.6-23-1.5-46.1-1.9-69.1c-0.3-12.7-0.1-25.3,0-38c0.2-15,0.6-30.1,0.9-45.1c0.1-3.8-1.4-5.3-5.2-5.4
	c-12.9-0.2-25.7-0.7-38.6-0.9c-25.2-0.4-50.4-0.7-75.6-1c-3.9,0-7.8,0-11.6,0c-24.8,0.1-49.5,0.2-74.3,0.2c-7.5,0-15-0.3-22.4-0.2
	c-11.4,0.2-22.7,0.9-34.1,0.9c-8,0.1-16.1-0.7-24.1-0.9c-26.7-0.4-53.4-0.9-80.1-0.9c-29.5,0-59,0.8-88.6,0.8
	c-27,0-54.1-0.6-81.2-0.9c-13.2-0.1-26.3,0-39.5,0c-3.5,0-7,0.1-10.5,0c-12.3-0.3-24.6-1-36.9-0.9c-9.8,0.1-19.5,1.8-29.2,1.8
	c-20,0-40.1-0.9-60.1-0.8c-48.6,0.1-97.3,0.6-145.9,0.8c-10.3,0.1-20.6-0.7-30.9-0.9c-18.1-0.4-36.2-1-54.3-0.9
	c-16.1,0.1-32.2,1.3-48.3,1.8c-3.9,0.2-7.8-0.5-11.6-0.9c-2.3-0.3-3.1,0.3-3.1,2.8c-0.1,12.6-0.7,25.1-0.8,37.6
	C58,67.5,58.9,73.6,59,79.7c0.1,20.9,0.2,41.9-0.1,62.8c-0.2,14.7-1.4,29.4-1.9,44.2c-0.5,14.7-0.7,29.4-1,44.1
	c-0.1,8.3,0,16.7,0,25.1c0,11.6,0.1,23.1,0,34.7c-0.2,11.9-0.8,23.8-0.9,35.8c-0.1,4.6,0.9,9.3,0.8,14c-0.1,9.6-0.6,19.2-0.9,28.8
	c-0.1,5.2,0,10.4,0,15.7c0,9.5,0.1,19.1,0,28.6c-0.2,6.5-0.8,12.9-1,19.3c-0.4,12-0.7,23.9-1,35.9c-0.1,7.1,0,14.3,0,21.4
	c0,32.9,0,65.7,0,98.6c0.1,5.4,1,10.8,0.9,16.1c-0.1,10.3-0.6,20.6-0.9,30.9c-0.4,13.3-0.7,26.6-1,39.8c-0.3,13.9-0.6,27.8-1,41.6
	c-0.2,7.8-0.6,15.5-1,23.3c-0.6,12.2-1.7,24.4-1.9,36.6c-0.6,25.9-0.7,51.8-1.1,77.6c-0.2,9.7-0.5,19.4-1.1,29.1
	c-0.2,4.1-1.5,8.1-1.8,12.2c-0.4,4.8-0.1,9.8-0.1,14.6c0,0.5-0.1,1-0.1,1.5c0.4-0.4,1-0.8,1.1-1.2c0.9-5.7,4.6-10.4,3.5-17
	c-0.8-4.4,2.4-9.8,4.6-14.3c6.7-13.6,15.4-25.3,28-34.4c16.8-12.1,34.6-22,54-29c14-5.1,28.2-9.5,43.3-10.2c4.7-0.2,8.2-1.6,9.2-7.7
	c1.4-8,9.8-14.5,15.9-13c5.3,1.3,8.6,0,12.4-3.4c6.6-5.9,21.4-5.2,26.1,0.6c2.6,3.2,5.4,3.4,8.3-0.1c5.8-6.8,13.6-6.7,20.8-4.1
	c6.6,2.4,9.7,8.7,11.9,15.1c0.4,1.2,0.9,2.4,1.3,3.5c0.8-0.7,1.8-1.3,2.5-2.1C291.4,789.6,296.7,787.4,304.5,790 M937,612.5
	c0.3-2.9,0.7-5.8,1-8.8c0.7-7.5,1.3-15.1,2-22.6c1.3-14.3,3-28.6,3.9-42.9c0.8-12.9-0.3-25.8-3.9-38.3c-1.6-5.9-3-11.8-4.2-17.7
	c-0.3-1.3,0.4-2.8,0.6-4.1c1,0.8,2.1,1.6,2.8,2.6c1.1,1.9,2.1,3.8,2.8,5.9c3.7,12.1,6.9,24.3,7,37.1c0.1,12.1,0.5,24.2-0.1,36.3
	c-0.7,12.1-2.6,24.2-3.9,36.3c-0.5,4.2-0.8,8.4-1.3,12.5c-0.9,7-1.8,13.9-2.7,20.9c-0.1,0.7,0.3,1.5,0.5,2.3
	c0.5-0.6,1.3-1.2,1.5-1.9c1.5-5.3,3.1-10.7,4.5-16.1c4.9-18.8,8.9-37.9,8.4-57.5c-0.3-13.9-1-27.8-2-41.6
	c-0.8-11.5-4.1-22.5-9.4-32.6c-3.6-7.1-9-13.3-13.6-19.9c-0.6-1-1.1-2.1-1.7-3.1c1.7,0.2,3.8-0.3,5,0.6c1.7,1.2,2.8,3.4,4.3,5.1
	c7.6,8.3,13.2,18,16.3,28.7c2.5,8.4,3.9,17.2,5.2,25.9c1.4,9.7,2.4,19.5,2.9,29.3c0.3,6.2-0.4,12.6-1,18.9
	c-0.8,8.6-1.4,17.3-3.1,25.7c-2,10.3-4.9,20.5-7.9,30.7c-3.6,12.7-7.8,25.1-11.3,37.8c-3.3,12.1-6.2,24.4-5.5,37.2
	c0.3,6.1,1.6,12.1,1.8,18.2c0.3,8.7,0.6,17.4,0,26.1c-0.9,12.1-2.6,24.3-8.9,34.8c-6.2,10.1-3.4,20.4-1.4,30.4
	c1.6,8.2,6.3,15.9,9.5,23.9c4.6,11.5,8.2,23.2,7.9,35.8c-0.1,4-0.7,8-1,12c0,0.9,0.5,1.7,0.7,2.6c0.8-0.7,2-1.3,2.2-2.1
	c1.8-8.5,4.6-16.9,4.8-25.4c0.3-10.1-1.8-20.2-2.7-30.3c-1.1-12.2-2.3-24.5-2.9-36.8c-0.7-13-1-26-1-39c0-13.6,0.6-27.1,0.9-40.6
	c0-1,0.3-1.9,0.5-2.8c1.2-6.4,2.4-12.7,3.5-19.1c1.6-8.7,3.1-17.4,4.6-26c1.5-8.1,2.9-16.2,4.4-24.2c1.3-7,2.5-14,3.8-21
	c2-11.4,3.9-23,6.3-34.4c1.2-5.9,3.2-11.6,4.9-17.4c0.3-0.7,1-1.3,1.5-1.9c0.2,0.8,0.5,1.5,0.5,2.3c-0.3,3.5-0.4,7.1-1,10.6
	c-3,17.2-5.9,34.5-9,51.7c-2.5,13.3-5.3,26.5-7.9,39.8c-0.7,3.8-1.1,7.7-1.5,11.5c-0.1,1.2,0.4,2.5,0.6,3.8c0.6-0.9,1.5-1.7,1.8-2.6
	c3.8-13.1,10.8-25.1,12.1-39.1c1.2-12.8,3.3-25.6,4.9-38.4c0.5-4.3,0.5-8.7,1-13.1c0.9-7.1,2.1-14.1,2.9-21.2
	c0.2-1.6-0.2-4.2-1.2-4.9c-3.4-2.2-2-5.1-1.2-7.3c3.3-8.5,1.4-16.8-0.1-25.3c-1.8-9.7-2.9-19.5-4.4-29.2c-0.3-2-0.6-4.3-1.8-5.8
	c-8.5-10.4-16.9-20.8-25.9-30.7c-3-3.4-7.3-6.6-11.6-7.8c-5.7-1.6-10.5-4.2-14.8-7.9c-6.7-5.8-13.8-10.8-22.7-12.7
	c-6.6-1.5-13.1-3.1-19.6-4.7c-2.9-0.7-6.8-2.9-8.5-1.7c-6.1,4.3-11.3-0.8-16.9-0.8c-9.1,0.1-18.3-2.3-27,2.4
	c-1.4,0.8-4.1,1.4-4.8,0.7c-3.4-3.6-6.1,0.2-9,0.6c-0.5,0.1-0.9,1.2-1.4,1.8c0.8,0.4,1.5,0.9,2.3,1c3.4,0.1,6.7-0.2,10,0.1
	c1,0.1,1.8,1.4,2.7,2.1c-0.9,0.6-1.7,1.6-2.6,1.7c-3.5,0.5-7.2,1.5-10.5,0.9c-7.5-1.2-14.6-0.9-21.8,1.2c-11.6,3.3-24,4.5-33.7,12.9
	c-4.3,3.8-4.8,4.2-0.9,8.1c12.5,12.5,25.2,24.7,37.3,37.6c4,4.3,7.4,10,8.9,15.7c3.1,10.8,9,20,14.6,29.5c0.4,0.6,1.3,0.8,2,1.2
	c0.2-0.7,0.6-1.4,0.7-2.1c0.4-5.3,0.4-10.7,1.1-16.1c0.9-7.7,2-15.4,3.6-22.9c2.1-9.4,4.2-18.9,7.5-28c3.8-10.5,8.5-20.8,13.5-30.8
	c2.4-4.8,2.1-6.9-3.2-8.1c-1.7-0.4-3.3-1.1-4.8-1.9c-0.7-0.4-1.1-1.4-1.7-2.1c0.8-0.3,1.5-0.9,2.3-1c6.1,0,12.2,0,18.3,0
	c5.4,0.1,8.2,3,8.4,8.3c0.2,2.7,0.6,5.4,1,8.1c0.1,0.5,0.4,1,0.6,1.5c0.5-0.5,1.2-0.9,1.4-1.4c0.7-2.7,1.6-5.4,1.9-8.2
	c0.5-3.3,3.2-4.4,5-3.1c3.5,2.5,8.1,5.7,8.7,9.3c1.4,8.6,0.8,17.5,1.1,26.3c0,1.8,0,3.6,0.3,5.3c0.6,3.4,1.4,6.8,2,10.2
	c0.4,2.4,0.4,4.8,1.1,7.1c0.5,1.9,1.7,3.6,2.7,5.3c0.4-2.3,0.8-4.6,1.2-6.9c0-0.2,0-0.4,0-0.5c-1-13.3-2-26.5-3-39.8
	c0-0.8,0.5-1.7,0.8-2.5c0.6,0.4,1.5,0.7,1.9,1.3c0.9,1.3,2,2.6,2.2,4.1c0.9,6,1.8,12,2,18.1c0.6,17,0.9,34.1,1,51.1
	c0.1,4.9-0.2,9.8-1,14.6c-1.8,12.2-3.8,24.3-5.9,36.5c-1.2,7-2.9,13.9-3.9,20.8c-1.3,8.3-2.2,16.5-3,24.8c-0.1,1.5,1,3,1.5,4.6
	c0.5-1.3,1.1-2.6,1.4-4c1.4-7.9,2.6-15.9,4-23.8c2-11.5,4-23,6-34.5c1.7-9.7,3.8-19.2,4.9-29c0.9-8.7,0.7-17.7,1.2-26.5
	c0-1.4,1.1-2.7,1.7-4.1c0.7,1.4,2.2,2.8,2.1,4.2c-0.5,11.2-0.7,22.5-2,33.6c-1.8,15.1-4.5,30.1-6.9,45.1c-2.2,13.8-4.7,27.4-7,41.2
	c-1.3,7.7-1.6,15.9-11,19c-0.2,0.1-0.3,2.6,0.2,2.8c5,2.4,4.3,6,2.4,10.1c-4.6,9.4-8.9,19-13.5,28.4c-3.8,7.6-7.4,15.4-11.8,22.6
	c-4.7,7.8-10.3,15.1-15.4,22.6c-0.4,0.6-0.5,1.4-0.7,2.1c0.7-0.2,1.5-0.1,2-0.5c2.5-1.7,5.4-3.1,7.3-5.3
	c9.1-10.7,15.8-22.8,21.6-35.5c3.1-6.8,5.9-13.6,8.9-20.3c0.6-1.2,1.6-2,2.4-3c0.5,1.1,1.6,2.3,1.4,3.2c-2.3,10.2-3.6,20.8-7.4,30.3
	c-3.3,8-9.5,14.8-14.5,22c-4.8,6.9-9,14.3-14.6,20.4c-15.8,17.1-32.2,33.7-48.3,50.5c-0.5,0.5-1.1,0.9-1.6,1.4c0.9,0.4,1.7,1,2.6,1
	c1,0.1,2.1-0.5,3.2-0.5c1.1,0,2.2,0.4,3.4,0.7c-0.8,1-1.6,2-2.5,2.8c-0.4,0.4-1.4-0.1-2,0.1c-4.3,1.3-9.5,0.6-11.9,6.2
	c-2.1,5-4.7,9.7-7.3,14.5c-0.5,0.9-1.6,1.5-2.5,2.3c-0.5-1-1.2-1.9-1.3-2.9c-0.6-5.4,1.9-9.8,5.1-13.8c0.4-0.5,0.5-1.1,0.8-1.7
	c-0.6-0.2-1.1-0.6-1.7-0.6c-5.4,0.2-10.6,4.2-12.3,9.6c-2.7,8.4-5.3,16.8-8.1,25.1c-0.2,0.6-2.4,1.1-2.5,1.1
	c-1.9-4.1-2.7-0.9-4.2,0.4c-3.5,3.1-7.1,6-10.9,8.7c-0.8,0.6-2.7,0.8-1.4-1.9c2.9-5.9,5.4-12.1,7.8-18.3c0.7-1.7,0.5-3.8,0.8-5.7
	c-1.4,1.1-2.8,2.1-4.2,3.2c-0.8,0.6-1.5,1.4-2.1,2.1c-9.9,11.9-19.4,24.2-29.8,35.6c-11.7,12.7-26.4,21.5-42.2,28.3
	c-10.5,4.6-20.8,0.5-27.2-7.9c-5-6.8-6.3-14.9-7-23.1c-0.4-5,0.3-10.4-1.5-14.8c-2.3-5.8-0.9-11.1,0.1-16.3c1.6-8.5,1.7-17,1.5-25.6
	c-0.4-11.7-0.2-23.4,0-35.1c0-1.1,1.6-2.2,2.5-3.3c0.8,1,1.6,1.9,2.4,3c0.5,0.6,0.9,1.3,1.3,1.9c0.4-1,1.2-2,1.1-3
	c-0.3-5.5-0.9-10.9-1.4-16.4c-0.2-1.9-0.6-3.7-1-5.6c-0.3-1-0.9-1.9-1.4-2.9c-0.5,1.2-1.3,2.4-1.6,3.6c-0.8,5.4-0.6,11.1-2.5,16
	c-3.4,9-5.5,18.1-5.5,27.7c0,8.2,0.1,16.4-0.1,24.5c0,1.3-0.8,2.6-1.3,4c-1.2-0.9-2.5-1.7-3.6-2.7c-0.5-0.6-0.9-1.7-1-2.6
	c0-8.5-1.2-17.3,0.3-25.6c2.3-13.6,6.4-26.9,9.6-40.4c0.7-3.1,0.9-6.4,1-9.6c0.1-0.9-0.8-1.9-1.3-2.9c-0.5,0.9-1.3,1.7-1.6,2.6
	c-1.6,6.2-3.3,12.4-4.7,18.6c-2.5,10.6-5.2,21.2-7.2,32c-1.2,6.4-1.4,13.1-2.1,19.6c-0.1,0.7-0.7,1.5-1.2,2.1
	c-1.2,1.6-3.1,2.9-3.7,4.7c-8.2,23.4-10.4,47.9-14.1,72.2c-1.4,9.1-2.4,18.2-4,27.3c-3.9,21.7-7.8,43.4-12.1,65
	c-2.8,14.6-6.3,29.1-9.2,43.7c-2.5,12.3-4.7,24.8-6.6,37.2c-1.4,8.9-2.2,17.9-3.1,26.8c-1.4,13.4-3.3,26.8-3.8,40.3
	c-0.5,13.9,0.4,27.7,0.8,41.6c0.3,8.4,0.7,16.7,1,25.1c0.1,0.7,0.5,1.5,0.6,2.2c0.4,5.5,2.1,11.3,0.9,16.5c-1.3,5.6-3.8,10.8-3.7,17
	c0.2,5.7-0.8,11.5-1.9,17.1c-0.7,3.6-1.7,7.6-3.8,10.4c-3.7,5.1-3.7,8.2,1.4,11.9c5.3,3.8,10.3,8,15.7,11.6
	c14,9.6,27.9,19.3,42.3,28.3c16.4,10.4,33.4,20,50,30.1c10.5,6.5,22,11.7,29.9,21.8c0.5,0.7,1.6,1.1,2.5,1.1
	c8.6,0.1,17.2,0.2,25.8-0.1c1.1,0,2.9-2.1,3.2-3.5c1.3-5.9,2.8-11.8,3-17.7c0.4-15.3,0.1-30.5,0.1-45.7c0-16.8,0-33.7,0-50.5
	c0-3.5-1-6.1-4.6-7.5c-14.3-5.4-29.8-7.9-42.2-17.8c-0.9-0.8-2.8-0.4-4.2-0.5c0.8,1.1,1.5,2.4,2.5,3.4c1.5,1.6,4.3,3.2,0.7,5.1
	c-3.7,2-4.9,5-5.3,8.8c-0.1,0.8-1.4,1.4-2.2,2.1c-0.6-0.7-1.5-1.3-1.6-2.1c-0.5-2.2-1.3-4.5-1-6.6c1.8-11,3.6-22.1,6-33
	c3.2-15.1,6.8-30.2,10.3-45.2c4.5-19,9.3-37.9,13.5-56.9c3.7-16.2,7-32.5,10.1-48.8c2.1-10.9,3.4-22,5-33c0.3-2.2-1-5.3,3.4-4.6
	c0.3,0.1,1.3-1.9,1.6-3c1.1-5.8,1.9-11.5,3.1-17.3c0.1-0.9,1.1-1.7,1.8-2.5c0.7,0.9,1.9,1.8,2,2.7c0.1,1.7-0.7,3.4-0.9,5.1
	c-2,15-3.5,30.1-6.1,45c-2.7,14.9-6.7,29.6-9.6,44.5c-2.7,13.8-8,27.2-4.4,41.8c0.8,3.6,0.2,7.7-0.2,11.5c-0.1,0.9-2.1,2-3.3,2.2
	c-0.7,0.2-1.6-1.4-2.4-2.2c-0.8-0.8-1.5-1.7-2.3-2.6c-0.4,1.3-1,2.6-1.2,4c-0.3,1.7,0,3.6-0.4,5.4c-1.9,7.1-4.3,14.2-6,21.4
	c-3.2,13.1-5.8,26.3-8.9,39.4c-1.1,4.9-0.1,10,3.5,11.7c6.6,3.3,13.3,6.7,20.3,9c20.5,6.8,40.7,14.3,62.4,17.3
	c9.9,1.4,19.6,4.1,29.8,3.8c16.9-0.4,33.8-0.8,50.6-1c12.8-0.1,25.7-0.3,38.5,0.1c6.3,0.2,12.6,1.6,18.9,2.6
	c9.1,1.4,18.1,3.1,27.2,4.2c3.6,0.4,7.4-1,11.1-0.8c3.4,0.2,3.9-1.2,3.5-3.9c-1-6.1-2.5-12.1-2.9-18.3c-1-15.2-1.4-30.5-2.1-45.8
	c-0.2-5-1.1-10.1-0.9-15.1c0.4-13.2,1.4-26.4,1.7-39.6c0.2-6.4-0.6-12.8-0.8-19.1c-0.1-5.6,1.2-11.5-0.2-16.6
	c-6-21.8-10-43.9-12.7-66.2c-1.7-14.9-2.1-30-3.1-44.9c-0.4-6.3-0.5-12.6-1-18.8c-0.5-5.4-0.8-10.9-2.1-16.1
	c-4.6-17.8-9.8-35.5-18-52.1c-0.5-1.1-2.1-2.7-2.7-2.5c-4.1,1.4-3.3-1.5-3.1-3.4c0.3-4.1-0.9-7.6-3.5-10.6c-4-4.7-8.1-9.2-12-14
	c-6.6-8.4-13.1-16.9-19.6-25.4c-7.3-9.4-16.9-15.2-28.1-18.6c-1.5-0.4-3.8,0.1-5,1c-10.5,7.8-21.2,15.4-31.1,23.8
	c-9.9,8.4-19.1,17.6-28.7,26.4c-0.5,0.6-1.3,0.8-2.1,1.2c-0.3-1-1.2-2.2-0.9-3c1.9-4.5,3.6-9.3,6.4-13.3
	c5.6-8.3,11.8-16.2,17.9-24.1c5-6.5,10.1-12.8,15.2-19.2c0.6-0.7,1.4-1.2,2-1.8c-1.2-0.4-2.5-1.3-3.5-1c-1.7,0.6-3.4,1.7-4.7,3.1
	c-5.7,5.9-11.8,11.6-16.9,18c-6.6,8.3-12.7,16.9-18.4,25.9c-3.3,5.2-5.4,11.4-8.2,17c-0.4,0.9-1.9,1.3-2.9,1.9
	c-0.4-0.6-1-1.3-0.9-1.8c1-5.1,1.2-10.6,3.5-15c4.5-8.3,9.7-16.2,15.5-23.6c7.4-9.3,15.4-18.1,23.6-26.7
	c7.5-7.8,15.9-14.8,23.4-22.7c4.3-4.5,7.5-10.1,11.4-15.2c6.8-8.8,14-17.4,20.4-26.6c4.8-6.8,8.5-14.4,12.8-21.6
	c0.7-1.1,1.8-1.9,2.8-2.8c0.5,1.3,1.5,2.6,1.4,3.8c-0.3,2.6-0.7,5.5-2,7.7c-5.6,9.2-11.6,18.2-17.2,27.4c-1.4,2.3-2,5.2-2.6,7.9
	c-0.2,0.9,0.6,2.1,0.9,3.2c1-0.8,2.3-1.5,2.9-2.5c2.5-4.3,4.7-8.8,7.2-13.1c5.7-9.9,12.6-19.3,15.4-30.5C876,718,878,708,880,698
	c1.8-9.6,3.3-19.3,5-28.9c1.3-7.6,2.7-15.2,4-22.8c1.4-8.5,2.7-16.9,4-25.4c1.1-6.9,2.1-13.8,3.3-20.6c1.2-7.5,2.6-15,3.7-22.5
	c1.1-7.7,2-15.5,3-23.2c1.3-10.5,3.5-20.9,3.8-31.4c0.7-24.7,0.5-49.3-5.6-73.5c-0.3-1.3,2-3.1,3.1-4.7c1.2,1,3,1.9,3.6,3.2
	c1.6,4,2.1,8.6,4.2,12.2c6.5,11,13.6,21.6,15.5,34.6c1.8,12.5,4.5,24.9,5.1,37.5c0.6,11.5-1.3,23.1-1.6,34.6
	c-0.1,4.9,1.7,9.8,1.8,14.7c0,6.7-0.7,13.3-1.2,20c-0.2,3-0.4,6.1-0.7,9.2c-1.3,11.8-2.6,23.5-4,35.3c-0.8,6.5-2,12.8-3,19.3
	c-1,7.2-1.9,14.5-3,21.7c-1.1,7-2.6,14-3.7,21c-1.9,11.2-3.7,22.5-5.2,33.8c-1,7-0.7,14.3-2.3,21.1c-2.8,12.6-1.9,25.1,0.5,37.3
	c2.7,13.4,7.7,26.2,11,39.4c2.8,11.5,4.5,23.2,6.7,34.8c0.3,1.4,1,2.8,1.5,4.3c0.5-1.5,1.1-2.9,1.5-4.4c0.1-0.6,0.1-1.4,0-2
	c-1.3-9.6-2.4-19.3-4.1-28.8c-2.7-15.5-6.3-30.8-8.8-46.3c-1.4-9.3-2.3-18.8-1.9-28.2c0.6-14.3,2.3-28.6,3.9-42.8
	c0.7-7.5,2-14.8,3.1-22.2c1.5-9.5,3.3-19,4.8-28.5c1.4-9.5,2.7-18.9,4.1-28.4C933.7,636.1,935.4,624.8,937,612.5 M358,997.5
	c6,15.7,12,31.4,18,47c2.4,6.2,5.2,12.2,7.4,18.5c1.1,3.3,2.1,7.7-1.8,9.6c-3.7,1.8-7.1,0-8.8-4.2c-0.6-1.6-2-2.9-2.8-4.4
	c-10.2-20.5-19.6-41.2-25.1-63.6c-3.7-15.2-8.4-30.1-13-45.1c-0.7-2.3-3.3-6-4.6-5.9c-2.6,0.2-5.4,2.4-7.2,4.6
	c-5.5,6.6-6.9,14.7-7.1,23c-0.1,9.1,1.4,17.9,3.5,26.9c3.8,16,10.1,30.9,16,46c5.9,14.7,12.5,29.1,18.5,43.8
	c0.9,2.2,0.9,5.7-0.2,7.6c-0.9,1.4-4.6,2.1-6.5,1.5c-2.4-0.9-4.8-3.1-6.2-5.4c-9.5-15.1-18.6-30.2-22.6-48.1
	c-3.2-14.2-7-28.2-7.5-42.9c-0.2-6.9-0.1-13.8,0-20.8c0.1-2.1-0.9-3.8-2.5-2.3c-4.8,4.4-10.1,8.9-13.3,14.4
	c-6.1,10.7-3.3,22.8-3.1,34.3c0,2.8,1,5.5,1.7,8.3c1.7,6.9,3.1,14,5.3,20.8c4.1,13.4,8.4,26.8,16.2,38.8c3.8,5.8,7.4,11.8,10.9,17.9
	c0.6,1.2,0.6,3.3-0.1,4.3c-0.5,0.7-3,1.1-3.8,0.5c-6.5-5.2-13.2-10.2-16.4-18.5c-3.4-9-2.9-19.2-7.8-27.8c-1.4-2.3-2.4-5-3-7.7
	c-1.9-7.4-3.4-14.9-5.1-22.4c-0.2-0.8-0.7-1.5-1.1-2.2c-0.6,0.8-1.7,1.6-1.8,2.5c-0.5,4-1.1,8-1,12.1c0.1,10.2,1.1,20.4,0.8,30.5
	c-0.5,15.1,5.8,27.8,13,40.2c8.3,14.3,20.8,24.5,34.3,33.6c10.3,7.1,20.3,14.3,27.4,25c5.8,8.6,12.5,16.7,19.5,24.4
	c4.1,4.7,9.3,8.6,14.3,12.4c3.2,2.5,6.6,5,11.2,4.4c0.7-0.1,1.8,0.7,2.3,1.4c2.8,3.5,5.6,6.9,8.1,10.7c6.6,10.2,12.6,20.8,19.6,30.8
	c11.1,15.7,18.6,33.3,27.8,50c7.5,13.7,14.4,27.7,21.7,41.5c0.7,1.2,2.9,2.3,4.4,2.4c10.1,0.5,20.2,0.9,30.2,1.1
	c30.4,0.4,60.8,0.7,91.1,1c16.8,0.1,33.6,0,50.3,0c7.2,0,14.4,0.1,21.5,0c2.2-0.1,4.3-0.6,6.4-0.9c-1.7-1.4-3.2-3-5-4.1
	c-18.9-11.1-38.1-21.6-56.6-33.4c-20.1-12.7-41.5-23.6-59.7-39.4c-11.7-10.1-24.1-19.4-35.5-29.8c-7.6-6.9-14.1-15-21-22.7
	c-9.5-10.7-19-21.4-28.2-32.4c-2.9-3.5-4.7-7.9-6.9-12c-0.3-0.6,0.2-1.5,0.4-2.3c0.7,0.4,1.6,0.5,2,1.1c3.1,4,6.2,8.1,9.3,12.1
	c0.5,0.7,1.1,1.2,1.7,1.8c0.2-0.8,0.5-1.6,0.5-2.3c-0.3-3-1-6.1-0.9-9.1c0.1-9.7,0.8-19.4,0.8-29.1c0-9.2-0.5-18.4-0.9-27.6
	c-0.4-10.8-1.7-21.2-5.7-31.6c-3.2-8.4-3.9-17.8-5.2-26.8c-1.4-9.7-2.3-19.5-3-29.2c-0.4-5.4,0.2-10.8-0.2-16.2
	c-0.4-6.2-5.3-8.6-10.8-5.7c-9.6,5.1-19.4,27.9-17,38.3c2.4,10.1,4.1,20.4,5.8,30.6c0.6,3.7,0.5,8-3.6,9.8
	c-4.1,1.7-7.7-0.5-10.2-3.6c-3.3-4.2-6.7-8.5-9-13.3c-4.1-8.6-7.1-17.7-11.2-26.4c-6.7-14.5-14.7-28.5-20.7-43.4
	c-6.6-16.6-11.6-33.8-17.2-50.8c-3.1-9.5-6.2-18.9-13.8-25.7c-2.1-1.9-5.2-3.6-7.8-3.5c-3.9,0.1-9.3,8.2-9.4,12.2
	C347.5,968.1,353.9,982.1,358,997.5 M821,576.5c-0.7-1.7-1.8-3.4-1.9-5.2c-0.9-10.3-6.9-18.2-12.6-26.3c-1.7-2.5-3.8-2.2-5.5-0.4
	c-6.3,6.9-15.1,9.6-23.4,12.1c-14.1,4.4-28.9,5.3-43.2,1c-15.1-4.5-27.9-18.7-26.3-35.4c1-11,5-21,12.5-29.3
	c6.7-7.5,13.9-14.6,20.7-21.9c1.6-1.7,2.8-3.9,3.9-5.9c0.5-0.8,0.3-2,0.5-3c-1.1,0.2-2.3,0.2-3,0.8c-2,1.6-4.1,3.2-5.3,5.2
	c-6,9.8-16.1,14.4-24.9,20.8c-0.6,0.4-1.3,0.8-2.1,1c-6.2,1-12.5,2.7-18.7,2.8c-9,0.3-18.1-0.5-27.1-0.8c-4.7-0.1-9.4,0-14.2,0
	c-6,0-9.3,2.7-10.4,8.8c-0.9,5.6,0.6,10.8,3,15.9c1.8,3.9,2,8-1.4,11c-3.1,2.9-6.7,5.3-10.3,7.4c-5.9,3.3-7.3,6.3-6.4,13.1
	c0.4,3.2,1.9,7.4-4.9,7.2c-2.6-0.1-6.5,3.5-7.9,6.3c-2.5,5.3-3.6,11.2-5.1,16.9c-2.8,11.2-7.4,21.3-14.4,30.6
	c-2.8,3.7-4.9,8.6-5.4,13.1c-1,10.9,7.6,16.7,14.7,22.5c4.4,3.6,10.7,4.8,15.8,7.5c5.9,3.1,11.4,7,17.3,10.1
	c11.8,6.3,22.6,13.8,32.8,22.5c7.7,6.5,16.7,11.5,25.9,15.8c5.3,2.5,12,2.2,18.1,3.3c1.1,0.3,2.1,1.1,3.2,1.7
	c-0.8,0.7-1.7,2.2-2.5,2.2c-5.3,0.3-11,1.6-15.7,0c-6.3-2.1-11.9-6.5-17.9-9.9c-8.8-5.1-16.7-11.4-24.7-17.8
	c-7.5-6.1-16.7-9.9-25.3-14.7c-0.4-0.3-1.1-0.2-1.7-0.2c0.4,0.4,0.7,0.9,1,1.4c1.5,2.2,3.7,4.2,4.4,6.6c2.1,7.2,4,14.5,5.3,21.8
	c1.7,9.2,2.6,18.6,4.1,27.8c1.5,8.5,3.5,17,4.8,25.5c1.6,9.9,3.1,19.8,4,29.8c0.4,3.3-1.7,6.8-1.7,10.1c0,10.6,0.6,21.1,0.9,31.6
	c0,0.5-0.1,1,0,1.5c1.3,8.1,2.7,16.2,3.9,24.4c0.3,1.6-0.3,3.5-0.4,5.2c-2-1-4.5-1.4-5.7-3c-2.1-2.4-3.3-5.6-4.8-8.4
	c-0.8-1.5-1.6-3-2.4-4.5c-0.6,1.7-1.5,3.4-1.5,5.2c0.1,4.3,0.3,8.7,1,13c1.1,8.2,1.7,16.5,4.1,24.3c3.8,12.8,14.5,18.5,26,13.7
	c23.7-10,41.3-27.4,56.9-47.4c5.2-6.6,11.4-12.5,17.3-18.7c2.7-3,6.9-4.3,7.7-9.3c2.1-13.9,4.2-27.8,7-41.6
	c3.1-15.2,6.9-30.4,10.7-45.5c3.7-15.2,14.8-27.8,14.8-44.5c0-5.2-0.6-5.7-4.8-5.4c-0.9,0.1-2.7-1.1-2.7-1.3c0.5-1.4,0.9-3.5,2-4
	c1.6-0.7,3.8-0.2,5.7-0.7c1.2-0.3,2.7-1.2,3.1-2.1c1.3-3.5,1.8-7.3,3.1-10.7c4.6-12.1,8.5-24.6,14.3-36.1
	c4.9-9.9,7.1-20.4,10.7-30.6C817.8,588.2,819.3,582.8,821,576.5 M403,1313.5c-7.1-6.5-14.5-12.7-21.3-19.5c-4.4-4.4-7-11.2-12-14.3
	c-8.8-5.5-12.8-14.3-18.6-21.9c-4.9-6.2-8.8-13.2-13.1-20c-4.4-7-12.7-7.6-19.1-11.3c-6.5-3.8-11.9-5.8-19.6,0.9
	c-11.3,10-24.6,17.9-37.8,25.4c-14.5,8.3-26.7,19.1-38,31.2c-3.2,3.4-6.2,7-9.9,9.7c-6.2,4.8-8,10.8-7.7,18.4
	c0.4,15.8,0.1,31.6,0.1,47.4c-0.1,1.9-0.8,3.7-0.9,5.6c-0.1,0.6,0.6,1.8,0.9,1.8c6-0.2,12-0.9,18.1-0.8c35.6,0.5,71.2,1.4,106.8,1.8
	c13.2,0.2,26.4-0.9,39.7-0.8c20.2,0,40.4,0.8,60.5,0.8c14.1,0.1,28.2-0.5,42.3-1c1.8,0,3.6-0.8,5.4-1.2c-1.3-1.1-2.5-2.1-3.8-3.2
	c-0.6-0.6-1.4-1.1-1.7-1.8c-5.2-9.5-10.5-18.9-15.2-28.7c-2.7-5.7-6.5-7.9-12.8-6c-7.3,2.2-14.6,3.8-21.9-0.9
	C417,1321,410.1,1317.7,403,1313.5 M31,1172.5c-0.3,9.8-0.6,19.5-1,29.3c-0.6,11.4-1.5,22.7-2,34.1c-0.5,11.7-0.7,23.3-1,35
	c-0.3,10.4-0.8,20.8-1,31.2c-0.1,12.9,0,25.8,0,38.7c0,7.5,0.4,15.1-0.1,22.6c-0.4,6.7,2,7.8,7.5,7.6c13.6-0.3,27.2-0.8,40.8-1
	c14.1-0.1,28.3,0,42.5,0c1.7,0,3.5-0.3,5.3-0.5c-1.2-0.8-2.5-1.5-3.4-2.5c-0.8-0.9-1.5-2.2-1.5-3.3c-0.4-9.2-0.5-18.3-0.8-27.5
	c-0.4-10,4.2-20.2-2.1-30.2c-4.2-6.7-6.6-14.6-9.7-22c-9.1-21.7-15-44.4-19.3-67.4c-3.2-17.1-5.1-34.4-7.1-51.6
	c-1.4-11.7-2.3-23.5-3-35.2c-1.2-20.3-2.2-40.7-3.1-61c-0.4-10-1.1-20.1-0.9-30.2c0.3-16.5-0.5-33-3.2-49.3
	c-0.8-4.9-1.7-9.9-3.7-14.4c-6.4-14.5-13.3-28.8-20-43.2c-0.4-0.8-0.5-1.8-0.7-2.7c-0.5,1-1.3,1.9-1.4,2.9c-0.3,2-0.1,4-0.1,6
	c0,9.1,0.2,18.1-0.1,27.2c-0.4,15.5-1.2,31.1-1.9,46.6c-0.6,12.4-1.3,24.8-2,37.2c-1,16.8-2,33.5-3,50.3c-0.6,9.5-1.5,19.1-2,28.6
	C32.3,1142.4,31.7,1156.9,31,1172.5 M736,1285.5c-0.3,6.5-0.7,13-1,19.6c-0.4,10.7-0.5,21.5-1.1,32.2c-0.3,7.3-0.9,14.5-2,21.7
	c-1,7-1.3,7,5.5,7c37.9-0.3,75.7-0.8,113.6-0.9c10.5-0.1,21,0.6,31.5,0.9c3.4,0.1,6.7-0.3,10,0.1c7.8,1,8.4,0.6,7.5-6.8
	c0-0.2,0-0.4,0-0.5c-0.7-15.4-1.5-30.8-1.9-46.2c-0.2-4.5,0.8-9,0.9-13.6c0.1-11.3,0-22.6,0-34c0-7.2-1.4-8.6-8.5-9
	c-0.7,0-1.3,0-2,0c-24.7,0-49.3-0.2-74,0.1c-11.8,0.1-23.4,1.2-35.2-0.9c-14.2-2.6-28.6-4.3-42.1-9.6c-3.1-1.3-3.3-0.3-3.2,2.2
	c0.4,10.4,0.6,20.8,1,31.1C735.1,1280.8,735.7,1282.6,736,1285.5 M169,1228.5c-1.7-10.5-3.4-20.9-5-31.4c-1.4-9.8-2.7-19.6-4-29.4
	c-1.7-13.6-3.6-27.2-4.9-40.9c-0.6-7.1,0-14.3-0.2-21.5c-0.1-2.2-0.5-4.9-1.9-6.6c-7.7-9.4-15.6-18.6-23.6-27.7
	c-9.9-11.3-19.3-22.8-26.5-36.1c-0.5-1-1.8-1.7-2.8-2.5c-0.4,1.3-1.1,2.7-1,4c0.5,10.1,1.7,20.1,1.8,30.2
	c0.1,17.9-0.8,35.8-0.8,53.7c0,19.7,0.4,39.4,1,59.1c0.2,7.2,0.8,14.5,2,21.6c2.7,15.5,6,30.9,8.9,46.3c1.3,7.1,2.9,13.8,8.5,19.1
	c1.1,1,0.1,4.3-0.1,6.6c0,0.6-0.8,1.1-1.2,1.7c0.9,0.1,1.8,0.5,2.6,0.3c4.6-1.3,8.4-0.9,12,2.9c2.5,2.7,6.3,4,10.1,3.1
	c9.1-2.2,18.2-4.3,27.3-6.7c5-1.4,6.2-3.5,4.4-8.1C171,1254.4,170.9,1241.8,169,1228.5 M555,1189.5c-0.3-7-0.8-14-1-21.1
	c-0.4-13.3-0.8-26.7-0.9-40c-0.1-3.2,1.1-6.3,1.4-9.4c0.3-4.6,1.9-10.2-0.1-13.5c-2.8-4.7-1.7-8-0.5-12.3c2.3-7.4,4.4-14.9,6-22.5
	c2.3-10.3,4-20.6,5.9-31c0.8-4.5,1.8-9.1,2-13.6c0-1.3-2.4-2.7-3.7-4.1c-0.3,1.2-0.8,2.4-1.1,3.7c-0.3,1.2-0.3,2.5-0.9,3.6
	c-5.3,10.8-10.3,21.8-16.3,32.2c-11.6,20.4-23.6,40.6-35.9,60.6c-3.6,5.8-8.9,10.6-13.4,15.9c-0.9,1.2-2.3,2.5-2.4,3.9
	c-0.5,9-0.9,18-1.1,27c-0.1,9.8-0.6,19.6,0.2,29.3c0.5,5.8,1.6,12.4,4.9,16.9c6.5,9.2,14.6,17.4,22.3,25.7c7.4,7.9,15.3,15.4,23,23
	c0.7,0.8,1.6,1.3,2.4,1.9c0.4-1.2,0.9-2.3,1.2-3.5c0.9-5.2,1.3-10.5,2.8-15.4c3.9-12.2,5.2-24.6,5.2-37.3
	C555,1203.2,555,1196.8,555,1189.5 M188,1175.5c0.3,7.2,0.1,14.4,1.1,21.6c1.6,11.3,3.9,22.6,5.9,33.9c1.5,8.1,2.8,16.2,4.7,24.1
	c1.4,5.9,3,6.5,8.1,3.6c7.8-4.5,15.7-9,23-14.3c3.4-2.5,6.1-6.6,8.1-10.5c5.6-11,10.5-22.3,16.1-33.3c2.7-5.4,2.8-7.2-2.2-11.3
	c-4.6-3.7-9.4-7.2-14-11c-7.9-6.5-15.9-13.1-23.7-19.8c-9.8-8.3-20.5-15.6-27.7-26.6c-0.5-0.7-1.4-1.1-2.1-1.7
	c-0.5,0.8-1.1,1.6-1.2,2.5c-0.3,1.1-0.2,2.3-0.1,3.5c0.6,5.4,1.4,10.8,2,16.2C186.7,1159.7,187.3,1167.1,188,1175.5 M396.5,1236
	c-2.1-1-3.7-1.3-5.9,0.7c-4.8,4.3-10.8,6.4-17.3,6.3c-8.3-0.1-16.2-1.8-23.6-5.7c-1.1-0.6-2.8-0.3-4.1-0.4c0.5,1.3,0.8,2.8,1.7,3.8
	c2.1,2.4,4.9,4.2,6.6,6.8c13.1,19.6,27.7,38,45.6,53.4c6.5,5.5,13.6,10.4,20.7,15c7.5,4.8,15.6,5.9,24.5,4.3
	c7.2-1.3,7.5-0.6,4.1-6.8c-5.8-10.9-11.6-21.9-17.9-32.6c-5.4-9.1-11.4-17.9-17.4-26.7C409,1247.3,406.7,1238.6,396.5,1236
	 M759.5,554c14.7-0.3,27.3-6.3,38.8-14.9c2.5-1.8,2.3-4.2,0.6-6.8c-3.5-5.4-6.4-11.1-10-16.3c-3.7-5.4-7.4-11.1-12.1-15.4
	c-7.1-6.5-15-12-22.6-17.8c-2.9-2.3-4.2-4.7-2.3-8.3c0.7-1.3,0.5-2.9,0.7-4.4c-1.4,0.6-3.1,0.9-4.1,2c-7.2,8-14.4,15.9-21.2,24.2
	c-7.3,9-12.1,19.1-11.4,31.3c0.6,10.1,9.1,20.5,17.7,23.4C741.7,553.6,749.9,555.7,759.5,554 M140.5,1366c-1.5,0.6-3,1.3-4.5,1.9
	c1.4,0.4,2.8,1.1,4.2,1c5.3-0.1,10.7-0.7,16-0.9c12.5-0.4,24.9-0.6,37.3-1c1-0.1,2-0.7,3-1.1c0.1,0,0-0.9-0.1-1
	c-0.9-0.4-1.9-1-2.6-0.8c-4.8,1-4.8,1.1-4.8-4.4c0-9.3,0.1-18.5,0-27.8c-0.2-10.2-0.7-20.4-1-30.6c0-1.2,0.1-2.3,0-3.5
	c-0.6-5.7-4.1-7.8-9-6.4c-9.4,2.8-19,4.9-28.4,7.7c-2.7,0.8-7-0.1-7.5,4.4c-0.6,5.3-1.1,10.7-1,16c0,7.2,0.5,14.3,0.9,21.5
	c0.3,4.2,1.1,8.4,0.9,12.5C143.6,1357.7,142.3,1361.8,140.5,1366 M977.5,687c3.1-10.7,5.9-21.5,9.2-32.2c5-15.6,8.3-31.6,8.2-48
	c-0.1-9.2-1.1-18.3-1.9-27.4c-0.4-3.9-1.4-7.8-1.7-11.7c-0.2-1.5,0.6-3,0.9-4.4c1.2,0.9,2.6,1.8,3.5,3c1,1.3,1.4,3,2.3,4.4
	c0.8,1.2,1.8,2.1,2.7,3.1c0.3-1.6,1-3.2,0.8-4.7c-1-5.7-2.9-11.3-3.4-17.1c-0.9-11.5-7.9-20.4-12.1-30.5c-0.2-0.3-1.1-0.7-1.4-0.5
	c-0.4,0.2-0.8,0.8-0.8,1.3c0.4,11.5,1.3,23,1.1,34.5c-0.3,16.6-0.9,33.1-2,49.7c-0.6,8.5-2.2,16.9-4,25.3c-1.9,9-4.6,17.8-6.8,26.7
	c-0.2,0.7,0.4,1.6,0.6,2.5c0.6-0.6,1.3-1.1,1.6-1.9c2.6-6.4,5.1-12.9,7.5-19.4c3.9-11.1,6.9-22.5,7.3-34.5c0-2.4,1-4.7,1.5-7.1
	c0.5,2.3,1.2,4.6,1.4,6.9c1,15.4-4.3,29.7-8.7,44c-5.1,16.6-11.9,32.7-17.1,49.3c-2.9,9.1-4.2,18.6-6.2,28c-1.3,5.9-2.6,11.9-4,17.8
	c-0.2,0.7-1,1.3-1.5,1.9c-0.4-0.9-1.3-1.9-1.2-2.8c0.8-6.6,1.9-13.2,2.6-19.8c0.3-1.8-0.2-3.6-0.3-5.3c-0.9,1.6-2.1,3.1-2.5,4.8
	c-3.3,12.8-4.3,25.7-4.4,39c-0.2,22.3,1.7,44.2,6.3,66c0.7,3.2,0.9,6.7,2.2,9.6c1.3,3,3.8,5.4,5.8,8.1c0.2,0.3,0.3,0.9,0.4,1.3
	c0.2-0.3,0.5-0.7,0.6-1.1c0.1-1,0.2-2.1,0.1-3.2c-0.7-9.5-1.9-19.1-2-28.6c0-8.6,1.3-17.1,1.9-25.7c0.4-6.8,0.7-13.7,0.9-20.6
	c0.1-1.1-0.7-2.3-1.1-3.4c-0.6,1-1.5,2.1-1.7,3.2c-1.2,5.8-2,11.5-3.1,17.3c-1.1,5.2-2.4,10.3-3.8,15.4c-0.2,0.7-1.4,1.2-2.1,1.8
	c-0.5-1-1.5-2.1-1.4-3c0.1-1.7,1-3.3,1.3-5c1.7-10.8,2.6-21.8,5.2-32.3c4.3-17.5,9.8-34.6,14.5-52
	C974.6,702.4,975.6,694.9,977.5,687 M857,633.5c0.9,0.9,2.1,1.8,2.8,2.9c2.8,4.2,5.8,7.9,4.6,14c-1.6,8.7-7.2,13.7-13.7,18.2
	c-3.4,2.3-7.5,3.3-12.1,1.5c-3.4-1.3-7.4-1.2-11.1-2.2c-2-0.5-4.1-1.5-5.7-2.8c-0.8-0.6-0.6-2.4-0.8-3.6c1,0.1,2,0.3,2.9,0.5
	c1.6,0.3,3.1,0.8,4.6,1c1.2,0.1,2.5,0.8,1.7-1.9c-2.6-9-1.2-17.3,5.4-24.3c1.9-2,1-4.1-0.4-6.2c-2.3-3.3-4.1-7-6.2-10.4
	c-5.2-8.9-5.2-18.7-5-28.5c0-1.5-0.4-3.1-0.5-4.7c-0.9,1.5-1.7,3-2.5,4.5c-0.3,0.5-0.9,1-1,1.6c-0.9,13.9-8,26.5-8.2,40.7
	c-0.2,14.1-1.9,28.2-2.8,42.4c-0.2,4.3,2.4,7.1,6.3,7.7c13.2,2.2,25.7,1.9,37.1-7.5c11-9,17.1-19.6,17.6-33.7
	c0.1-1.5,0.4-3.8,1.4-4.3c2.5-1.4,1.6-2.8,0.9-4.6c-1.5-4.3-5.4-6.3-9.1-6.5c-4.9-0.4-6.5-3.1-8.3-6.7c-3.1-6.2-6.5-12.3-10-18.3
	c-0.7-1.3-2.1-2.2-3.1-3.3c-0.2,1.6-0.3,3.2-0.4,4.9c0,0.1,0.2,0.2,0.3,0.3c3.1,6.7,6.2,13.4,9.3,20.2c0.3,0.7,0.5,1.6,0.7,2.4
	c-1,0.1-2.1,0.4-2.9,0.1c-0.9-0.3-1.5-1.2-2.2-1.8c-8.4-7.6-11-17.4-11.7-28.2c-0.3-4.5-1.8-8.9-2.9-13.3c-0.2-0.7-1.5-1.1-2.3-1.6
	c-0.2,0.9-0.7,1.7-0.7,2.6c0.6,7,1.2,14.1,2,21.1c2.2,17.2,13.3,28.6,25.6,39.3c0.5,0.4,1.6,0.4,2.4,0.5c-0.1-0.7,0.1-1.7-0.4-2.3
	c-1.6-2.2-3.6-4.1-5.2-6.3c-1-1.4-1.5-3-2.3-4.5C852.9,632.6,854.7,632.8,857,633.5 M883,764.5c-0.1-7.1,0-14.2-0.5-21.3
	c-0.2-3.9-1.4-7.5,1.4-11c1.3-1.6,1.7-4,2.1-6.1c1.4-7.9,2.5-15.9,4.2-23.7c2.4-10.5,5.4-20.8,7.7-31.3c3-13.3,5.4-26.8,8.1-40.2
	c2.3-11.8,4.9-23.6,6.9-35.5c1.7-9.4,2.9-18.9,4.1-28.4c1.4-11,3.2-22.1,3.9-33.3c0.6-11,0-22.1,0.1-33.1c0.1-8.9-2.7-17-6-25
	c-0.8-2-2.3-3.7-3.5-5.6c-0.1,2.3-0.6,4.5-0.4,6.7c0.8,11,2.4,22,2.8,33c0.3,9.6-0.5,19.3-0.9,29c-0.3,7.8-0.4,15.7-1.1,23.4
	c-1,11.2-2.3,22.3-4,33.4c-2.1,14.2-4.3,28.4-7,42.5c-2.2,11.8-5.1,23.5-7.9,35.2c-2.1,8.6-4.9,17-6.9,25.6
	c-1.7,7-2.8,14.2-4.1,21.3c-1.4,7.9-3.2,15.8-3.9,23.8c-0.6,7.5-0.5,15.2,0.1,22.7c0.2,2.8,2.7,5.5,4.1,8.2c0.2-2.3,0.5-4.5,0.7-6.8
	C883.1,767.2,883,766.3,883,764.5 M268.5,1141c4.6,4.2,9,8.7,13.8,12.7c8.2,6.9,16.4,13.9,25.1,20.2c9.6,7,19.8,13.3,29.8,19.7
	c4,2.6,8.4,4.7,12.7,6.7c1.4,0.6,3.4,0.2,5,0.3c-0.7-1.2-1.6-2.3-2.3-3.5c-1.2-2-3.7-4.3-3.3-6c0.9-4.4-0.8-7.4-3.6-9.8
	c-5.1-4.3-10.5-8.3-15.8-12.3c-8.6-6.5-18-12.2-25.6-19.8c-3.7-3.8-7.5-6.4-12-8.4c-0.7-0.3-1.4-0.4-2.1-0.5c0,0.8-0.3,1.7,0,2.3
	c0.6,1,1.6,1.6,2.4,2.5c11.2,12.7,25,22.1,39.2,30.9c4,2.5,7.9,5.2,11.6,8.1c0.9,0.6,1.1,2.2,1.6,3.3c-1.3,0-2.7,0.2-4,0.1
	c-0.7-0.1-1.4-0.6-2-1c-16-10.4-33.6-18.7-45.9-33.9c-4.9-6.1-9.4-12.5-14.1-18.6c-0.9-1.2-1.9-2.2-3-3
	c-9.1-6.3-18.2-12.5-27.3-18.7c-1.1-0.8-2.3-1.4-3.4-2.1c0,1.6-0.6,3.7,0.2,4.7C252.9,1123.5,260.5,1132,268.5,1141 M595,893.5
	c0-1.5-0.2-3,0-4.5c2.3-14,4.2-28.2,7.1-42c2.5-11.9,6.3-23.4,9.5-35.1c1-3.8,1.6-7.6,2.4-11.5c0-0.4-0.6-0.9-0.9-1.4
	c-0.4,0.4-0.9,0.7-1.1,1.2c-1.7,4.1-3.4,8.2-5,12.4c-7.1,19.5-8.5,40.2-12,60.5c-1.7,9.1-3.5,18.2-5.8,27.1
	c-3.5,13.7-7.6,27.2-11.2,40.8c-5.1,19.4-9.7,38.9-15.2,58.2c-1.7,6.4-3.1,11.9,2.2,17.1c1.7,1.7,3.2,3.6,4.8,5.4
	c0.4-2.2,0.8-4.3,1.2-6.5c0.1-0.4,0.4-0.8,0.5-1.3c2.2-9.1,4.7-18.1,6.4-27.3c2.4-13.1,3.8-26.4,6.2-39.5
	C587.3,929.4,591,911.7,595,893.5 M867,504.5c-1-11.8,5.5-22.1,6.4-33.5c0.7-8,3.4-16.1-0.1-24.2c-0.4-0.9-0.7-1.9-1.1-2.8
	c-0.7,0.9-2,1.7-2.1,2.7c-1,6.1-5.7,12-1.1,18.4c0.3,0.5,0.6,1.3,0.5,1.9c-1.5,9.4-2.5,18.9-4.6,28.1c-3.9,16.8-5.8,33.8-5.9,51
	c0,2.9-0.1,5.7,0,8.5c0.2,5.2,0,10.4,0.7,15.5c1.1,8.7,2.7,17.4,4.3,26.1c1.1,5.8,2.5,11.6,4.1,17.3c0.4,1.5,1.8,2.8,2.8,4.1
	c0.3-1.8,1.2-3.7,1-5.5c-0.8-9.4-1.9-18.8-2.9-28.3c-0.2-1.7-0.1-4.1-1.1-4.9c-5.1-4-4.1-9.4-3.8-14.5c0.3-6.7,1.7-13.4,1.8-20.2
	c0.1-8.3-0.9-16.7-0.8-25C865.1,514.6,866.3,510.1,867,504.5 M922,645.5c0.7-6.7,1.4-13.4,2-20.2c0-0.4-0.6-0.8-0.9-1.3
	c-0.4,0.4-1,0.8-1.1,1.2c-0.4,2.9-0.7,5.7-1.2,8.5c-1.6,8.2-3.2,16.3-4.8,24.5c-1.9,9.7-3.9,19.4-5.8,29.1
	c-1.8,9.6-3.6,19.2-5.1,28.8c-1,6.3-0.8,12.9-2.2,19.1c-3.1,12.7-1.4,25.4-1.8,38.2c-0.1,1.1,1,2.3,1.6,3.4c0.4-1.1,1.2-2.2,1.2-3.4
	c0.5-6.7,0.3-13.4,1.2-20.1c2-14.5,4.5-29,6.9-43.5c1.5-8.7,3.3-17.3,4.7-26C918.6,671.4,920.2,658.9,922,645.5 M827,550.5
	c0.2-1.8,0.5-3.6,0.6-5.4c0.5-10.1-0.7-20.7,1.7-30.3c5.2-20.7,12.4-40.8,18.5-61.2c0.8-2.7,0.6-5.6,0.9-8.4
	c-1.9,2.2-4.6,4.2-5.6,6.8c-4.6,12-9.5,24.1-12.9,36.5c-3.6,13-5.7,26.4-8.1,39.6c-0.9,4.8,0.1,10-1.5,14.5
	c-2.3,6.5-0.2,12,2.2,17.6c0.3,0.8,1.7,1.8,2.1,1.7c0.8-0.4,1.8-1.4,1.9-2.3C827.1,556.9,827,554.2,827,550.5 M424.5,1066
	c0.8,2.2,1.7,4.3,2.5,6.5c1.7,4.4,3.3,8.9,5,13.4c0.3,0.7,1.1,1.3,1.7,1.9c0.4-0.8,1.3-1.6,1.2-2.4c-0.1-2.9,0-5.9-0.8-8.7
	c-3.5-12.8-7.3-25.6-11.1-38.4c-2.8-9.3-6.2-18.4-13.7-25.2c-1.3-1.2-4-0.8-6.1-1.1c-0.3,2-1.3,4.3-0.6,5.9
	c3.7,9.1,7.8,18.1,11.9,27.1C417.6,1051.8,420.8,1058.7,424.5,1066 M253,788.5c-0.3,4.4-0.6,8.7-1,13.1c-0.4,3.5,1.6,4.2,4.5,4.4
	c5.2,0.6,10.4,1.5,15.6,1.9c2.3,0.2,5.6,0.6,6.7-0.7c2.1-2.5,3.4-6,1.2-9.5c-2.2-3.6-4.1-7.5-6.7-10.8
	C267.7,779.9,257.5,780.3,253,788.5 M924.5,583c0.5-8.7,1-17.3,1.5-26c0-0.6-0.2-1.3-0.4-1.9c-0.2,0.5-0.5,1-0.6,1.5
	c-1.3,8.2-2.7,16.4-4,24.7c-1.3,8.2-2.5,16.5-4,24.8c-1.5,7.7-3.3,15.3-5,22.9c-2.8,12.3-5.7,24.6-8.4,37c-0.8,3.5-1.1,7.2-1.6,10.8
	c0,0.7,0.4,1.5,0.6,2.2c0.7-0.4,1.7-0.6,2-1.1c1-2.9,2-5.9,2.8-8.9c1.6-5.8,3.3-11.6,4.6-17.5c2.3-10.9,4.7-21.8,6.7-32.7
	C920.7,607.1,922.2,595.3,924.5,583 M304,795.5c-7.3-2.1-9.6-1.5-13.3,3.3c-5,6.4-3.1,13.3,4.1,15.2c3.9,1,7.8,1.9,11.7,3
	c6.4,2,10.2-0.9,8.4-7C313.1,804.3,311.1,798.3,304,795.5 M837.5,665c2.4,0,4.8,0.3,7.1-0.1c6.5-1.1,10.4-5.8,13.8-10.9
	c1-1.7,1.8-3.9-1.2-5.4c-3.8-2-7.5-4.5-11-7s-6-2-8.6,1.2C831.7,650,834.1,657.2,837.5,665 M628,721.5c-0.2,0.6-0.5,1.1-0.7,1.7
	c-4.1,15-8.4,29.9-12.2,44.9c-1.6,6.6-2.2,13.4-3,20.2c-0.2,1.1,0.7,2.3,1.2,3.5c0.5-1,1.4-1.8,1.6-2.9c0.9-3.3,1.3-6.8,2.1-10.1
	c5.2-20,10.6-39.9,15.5-60c1.1-4.2,0.6-8.7,0.7-13.1c0-0.5-0.8-1.1-1.2-1.7c-0.3,0.6-0.8,1.1-1,1.8C630,710.7,629,715.6,628,721.5
	 M232.5,784c-4.2-1.6-11.4-0.1-12.5,2.6c-1,2.2,4.5,15.6,6.7,16.4c0.1,0,0.3,0,0.5,0c4.8,0.3,9.7,0.4,14.5,1.1c3.8,0.5,4-1.9,3.2-4
	C242.5,793.8,240,787.4,232.5,784 M342,1086.5c-4.8-11.5-9.7-22.9-14.4-34.4c-3.7-9.2-7.1-18.4-10.6-27.6c-0.4-1.1-0.9-2.2-1.4-3.4
	c-0.2,1.2-0.8,2.4-0.5,3.5c1.5,7.2,3.3,14.2,4.9,21.4c4,18.6,13.2,34.8,23.3,50.7c0.3,0.6,1.2,0.9,1.9,1.3c0.3-0.8,1-1.8,0.7-2.4
	C344.9,1092.7,343.7,1089.8,342,1086.5 M848.5,692c-5.5,7.5-11.3,14.9-16.5,22.6c-4.4,6.5-8.1,13.3-12,20.1
	c-0.4,0.6-0.3,1.5-0.5,2.3c0.9-0.2,1.9-0.3,2.7-0.8c0.7-0.5,1.2-1.4,1.8-2.2c8.6-11.7,17.4-23.3,25.7-35.3c4.8-7,8.9-14.6,13.3-22
	c0.4-0.7,0.5-1.6,0.8-2.4c-1,0.4-2.2,0.5-2.7,1.2C857,680.8,853,686.2,848.5,692 M840,529.5c-2.3,10.9-4.4,21.8-7.1,32.6
	c-1.1,4.3-2.9,8.4-0.9,12.7c0.5,0.9,1.5,1.5,2.2,2.2c0.6-0.9,1.6-1.7,1.7-2.6c1.2-6.1,1.8-12.3,3.2-18.3c2.8-12.6,6-25.1,8.9-37.7
	c0.3-1.3-0.1-2.7-0.2-4.1c-0.9,0.9-2.2,1.7-2.7,2.8C843.2,520.8,841.7,524.7,840,529.5 M288,960.5c6,5.6,11.9,11.3,17.9,16.9
	c0.4,0.3,1.4,0.1,2.1,0.1c-0.5-3.8,0.5-8.9-1.6-11.1c-6.4-6.8-14-12.5-21.1-18.6c-2.5-2-5-3.9-7.7-5.6c-0.8-0.5-2.2,0-3.3,0
	c0.3,0.8,0.4,1.8,0.9,2.4C279.2,949.8,283.4,954.9,288,960.5 M893.5,753c-0.8,4.6-2.4,9.3-2.3,13.9c0,7.5,1.1,14.9,1.8,22.3
	c1,10.9,2,21.8,3,32.7c0.1,0.7,0.4,1.3,0.6,2c0.8-0.5,2.1-0.8,2.3-1.5c0.5-1.3,0.7-2.9,0.6-4.3c-0.4-8.2-1-16.3-1.5-24.4
	c-0.7-10.3-1.2-20.7-2.1-31C895.7,759.6,894.7,756.5,893.5,753 M804,671.5c0.7-10.9,1.3-21.7,2-32.6c0.1-2.3,0.3-4.6,0.5-6.9
	c-1.2,2.2-2.7,4.2-3.4,6.5c-2.9,8.5-5.5,17.1-8.1,25.6c-0.8,2.7-2,5.5-1.9,8.2c0.3,4.6,4.2,4.3,7.6,4.8
	C805.1,677.7,803.9,674.7,804,671.5 M867,770.5c-8,14.9-17.8,28.3-30.5,39.6c-1.7,1.6-2.5,4.1-3.7,6.2c2.3-1.2,5.1-1.9,6.9-3.7
	c3.6-3.6,6.1-8.6,10.1-11.6c7.9-5.9,12.9-13.9,17.6-22.1c1.8-3.1,3.4-4,6.4-2.6c0.6,0.2,1.4,0.2,2.1,0.3c-0.3-0.6-0.5-1.4-0.8-2
	c-1-1.8-2.4-3.4-3-5.2c-0.8-2.4-1.1-4.9-1.6-7.4c-1.2,2.3-2.3,4.7-3.5,7C866.9,769.1,867,769.3,867,770.5 M923,761.5
	c-0.3,3.4-0.8,6.7-0.9,10.1c-0.1,1.1,0.5,2.3,0.7,3.4c1.1-0.9,2.8-1.7,3.1-2.8c1.5-6.7,3.4-13.5,4-20.3c0.8-10.8,0.8-21.7,1-32.5
	c0.1-1.7-0.4-3.4-1-5.1c-0.2-0.6-1.2-0.9-1.9-1.3c-0.3,0.6-0.9,1.2-1,1.8c-0.4,5.3-0.7,10.7-1,16c-0.3,5.9-0.5,11.7-1.1,17.6
	C924.6,752.4,923.7,756.5,923,761.5 M904.5,885c2.4,0.5,2.7-0.9,2.5-2.8c-0.7-6.9-1.6-13.7-1.9-20.6c-0.4-8.2,0.1-16.4-0.2-24.5
	c-0.1-3.8-1-7.5-1.7-11.3c-0.1-0.7-1-1.2-1.6-1.8c-0.2,0.7-0.6,1.4-0.6,2.1c-0.3,12.2-1.2,24.4-0.8,36.6
	C900.4,870,902.7,877.2,904.5,885 M261.5,1056c-2.7-0.9-5.4-1.9-8.2-2.8c1,2.5,1.4,5.4,3,7.4c5.7,7.5,11.8,14.7,17.9,21.9
	c0.5,0.6,2.4,0.1,3.7,0.1c-0.2-1.9,0.1-4.1-0.7-5.8C273.7,1068.9,269.2,1061.7,261.5,1056 M914,900.5c1,3.2,1.9,6.5,3,9.7
	c0.7,1.7,1.8,3.1,2.6,4.7c0.5-1.8,1-3.6,1.4-5.5c0.1-0.4,0.1-1,0-1.4c-1.7-11.5-3.3-23-5-34.4c-0.7-4.3-1.7-8.6-2.8-12.8
	c-0.2-0.9-1.3-1.6-2.1-2.4c0,1-0.2,2-0.1,3.1c0.3,8.1,1.4,16.4,0.7,24.5C911.3,891,910.9,895.5,914,900.5 M773,780.5
	c1.4-3.4,2.4-7.1,4.3-10.2c4.4-7.1,2.1-14.9,2.6-22.4c0.1-0.6-0.9-1.2-1.4-1.9c-0.1,0.6-0.3,1.2-0.5,1.7c-1.2,3.9-2.6,7.7-3.7,11.5
	c-3.1,10.7-6.2,21.4-9.3,32.1c-0.3,1.3-0.3,2.8,0.1,4c0.3,1,1.5,1.7,2.3,2.6c0.5-0.9,1.3-1.7,1.6-2.6
	C770.4,790.7,771.7,786.1,773,780.5 M839.5,497c-2,7.7-4,15.3-5.9,23c-0.2,0.8,0.4,1.8,0.6,2.7c0.3-0.2,0.7-0.3,0.8-0.6
	c1.3-3.1,3.1-6.2,3.7-9.4c2.2-12,7.3-22.9,11.9-34c2.5-5.9,5.8-11.8,4.3-18.6c-0.2-1.1-1.1-2.1-1.7-3.1c-0.7,0.9-1.8,1.7-2.1,2.7
	c-1.8,5.6-3.4,11.2-5.1,16.8C844,483.2,842,489.8,839.5,497 M212.5,794c-8.1-5.7-15.7-3.8-19.3,5.5c-0.8,1.9-1.5,4.9,3,4.6
	c5.8-0.4,11.7,0.1,17.6-0.3c1.4,0,6-0.1,2.4-4.2C214.9,798.1,214.1,796.2,212.5,794 M773,735.5c0.1,1.1,0.2,2.2,0.3,3.3
	c0.6-0.8,1.3-1.5,1.8-2.4c1.9-3.5,3.8-7.1,5.6-10.7c1.2-2.3,1.9-4.9,3.3-7.1c1.3-2.1,3.4-3.8,4.7-5.9c1.6-2.5,2.6-5.3,4-7.8
	c2.8-5.3,5.9-10.5,8.7-15.9c0.5-1.1,0.1-2.7,0.1-4c-0.9,0.6-2,1-2.7,1.8c-6.3,6.9-11.7,14.3-13.9,23.7c-0.8,3.4-3.4,6.1-5.6,9.1
	C776.2,723.9,775.3,729.8,773,735.5 M845.5,818c-1.5,0.8-3,1.6-4.5,2.4c1.7,0.5,3.6,1.7,5.2,1.4c1.8-0.2,4-1.4,5.2-2.8
	c6.1-7.9,12.1-15.9,18-23.9c1.8-2.6,3.2-5.6,4.5-8.6c0.4-0.9-0.4-2.3-0.6-3.5c-0.9,0.6-2,1.1-2.7,2c-4.4,5.6-8.7,11.3-13,17
	c-1.9,2.5-4.6,4.8-5.4,7.7C851.1,813.4,849.3,815.8,845.5,818 M824,712.5c0.1-0.4,0.1-1,0.4-1.3c5.9-6.7,11.9-13.3,17.8-19.9
	c0.6-0.7,1.2-1.2,1.8-1.8c-0.9-0.2-1.9-0.6-2.8-0.5c-3.9,0.6-8,0.7-11.5,2.3c-1.4,0.6-1.5,4.4-2.3,6.7c-0.2,0.9-0.8,1.6-1.3,2.4
	c-3.4,5.4-6.9,10.8-10.1,16.3c-0.7,1.1-0.4,2.8-0.5,4.3c1.2-0.8,2.5-1.4,3.5-2.4C820.6,716.8,822,714.9,824,712.5 M789.5,788
	c-0.2,2.1-0.4,4.2-0.5,6.3c0,0.5,0.4,1.1,0.6,1.7c0.6-0.4,1.5-0.6,2-1.1c2.7-3,5.3-6.1,8.1-9c7.1-7.6,14.3-15.1,21.5-22.6
	c1-1,2.1-2,3.1-3.2c0.4-0.4,0.5-1.1,0.7-1.6c-0.7,0-1.5-0.1-2.1,0.1c-0.8,0.4-1.7,0.8-2.4,1.4C810.3,769.2,800.2,778.3,789.5,788
	 M979,752.5c2.3-9.3,4.7-18.7,7-28c0.3-1.4,0.4-2.9,0.6-4.4c-1.3,0.9-2.6,1.7-3.8,2.6c-0.4,0.4-0.6,1.1-0.8,1.7
	c-4,12.2-9.2,24.2-8,37.5c0.1,0.7,0.4,1.3,0.6,2c0.5-0.7,1.1-1.3,1.4-2C976.9,759,977.7,756,979,752.5 M892,718.5
	c-1.3,5.3-2.9,10.5-3.8,15.9c-0.6,3.9-0.2,8-0.2,12.1c0,0.8,0.4,1.5,0.7,2.3c0.4-0.8,1.1-1.6,1.3-2.4c2-10.3,4.3-20.6,6-31
	c1.4-8.8,2-17.8,3-26.7c0-0.5-0.4-1.1-0.5-1.7c-0.2,0.6-0.4,1.2-0.5,1.8C896.2,698.6,894.3,708.3,892,718.5 M885.5,515
	c-0.5,5.9-0.9,11.9-1.5,17.8c-0.5,3.9-1.4,7.8-2,11.7c-0.7,4.9-1.4,9.8-1.9,14.8c-0.1,1.1,0.7,2.3,1.1,3.4c0.7-0.8,1.8-1.6,2.1-2.6
	c0.7-2.8,1.4-5.8,1.7-8.7c0.7-7.6,1.5-15.1,1.9-22.7c0.4-7.5,0.3-15,0.5-22.6c0-0.3,0.1-0.7,0.2-1c-0.5,0-1.3,0.1-1.3,0.2
	C886.1,508.4,886.1,511.4,885.5,515 M842,720.5c-0.6-0.1-1.5-0.4-1.7-0.2c-7.8,10.2-15.5,20.5-23.3,30.8c-2.6,3.4-5.3,6.7-8,10.1
	c-0.3,0.5-0.5,1-0.8,1.5c0.7,0.1,1.6,0.5,1.9,0.3c2-2,4.1-4,5.8-6.3c1-1.1,1-3.3,2.1-4C829.6,744.9,834.3,732,842,720.5 M843,564.5
	c-0.7,4.4-1.6,8.8-1.9,13.2c-0.4,5.1-0.5,10.4,3.6,14.4c0.6,0.6,1.6,0.9,2.4,1.3c0.3-1,0.7-2.1,0.7-3.1c-0.2-3.4-0.7-6.9-0.8-10.3
	c-0.1-6.6,0.1-13.1-0.1-19.7c0-0.7-0.9-1.5-1.4-2.3c-0.5,0.7-1.2,1.2-1.5,1.9C843.6,561.1,843.3,562.3,843,564.5 M812.5,710
	c2.8-4.1,5.8-8.2,8.4-12.5c0.9-1.4,0.5-3.5,0.8-5.3c-1.3,1.1-2.6,2.3-3.9,3.5c-0.7,0.7-1.7,1.3-2,2.1c-3,6.6-9.2,11.1-11.3,18.2
	c-0.6,2.2-1.1,4.5-1.5,6.9c-0.2,1.1,0,2.4,0,3.6c1-0.9,2.4-1.7,2.9-2.8C807.9,719.2,809.7,714.6,812.5,710 M882,835.5
	c0,5.5,0,11.1,0,16.6c0,0.6,0.3,1.2,0.4,1.8c0.4-0.6,0.9-1.2,1-1.9c0.9-3.8,2.2-7.6,2.4-11.4c0.4-8.8,0.2-17.7,0.1-26.5
	c0-0.7-1-1.4-1.6-2.1c-0.4,0.7-1.2,1.3-1.2,2C882.6,820.8,882.3,827.7,882,835.5 M850,543.5c0.2,1.4,0.5,2.9,0.7,4.3
	c0.8-1.5,1.9-3,2.2-4.6c0.6-2.9,0.8-6,1.1-9c0.2-2.8,0.2-5.6,0.6-8.3c1.1-6.7,2.3-13.4,3.3-20.1c0.3-1.5-0.2-3.2-0.4-4.8
	c-0.8,1.5-2.2,2.9-2.4,4.4C853.3,517.8,851.7,530.1,850,543.5 M955,701.5c1-5.1,2-10.1,3-15.2c0.1-0.7-0.3-1.5-0.5-2.3
	c-0.5,0.6-1.2,1.1-1.5,1.8c-3.8,10.3-7.5,20.7-7,31.9c0.1,1.1,0.7,2.2,1,3.3c0.7-1.1,1.7-2.1,1.9-3.3
	C953.1,712.6,954,707.6,955,701.5 M618.5,725c5.1-6.2,7.7-13.3,7.4-21.4c0-1.1-0.8-2.3-1.2-3.4c-0.6,1-1.4,1.9-1.7,2.9
	c-2.1,7.2-4.1,14.3-6.1,21.5c-1.3,4.8-2.6,9.6-3.9,14.5c-0.1,0.5,0.3,1.2,0.4,1.8c0.3-0.5,0.6-1,0.7-1.5
	C615.4,734.8,616.7,730.1,618.5,725 M967,828.5c0.7,4.4,1.3,8.8,2,13.1c0.7,4.1,1.4,8.1,2.3,12.1c0,0.2,1.5,0.5,1.6,0.3
	c2.6-4.2,0.9-19.1-2.3-23.1c-0.7-0.7-0.4-2.2-0.6-3.4c-0.4-2.1-0.8-4.3-1.2-6.5c-4.1,1-0.7,4.2-1.8,6
	C966.9,827.1,967,827.3,967,828.5 M779,794.5c0,4.5-1.6,8-5.9,9.9c-0.7,0.3-1.2,0.9-1.8,1.4c0.8,0.4,1.8,1.3,2.5,1.1
	c3.2-0.7,6.5-1.2,9.3-2.8c1.5-0.8,2.7-3.6,2.7-5.6c0-3.2-1.1-6.4-1.8-9.6c-0.2-0.7-0.9-1.3-1.4-1.9c-0.5,0.5-1.4,1-1.6,1.6
	C780.3,790.4,780,792.2,779,794.5 M855,582.5c-0.2-0.4-0.5-0.9-0.7-1.3c-0.8,1.5-2.1,3-2.2,4.5c-0.3,7.2,0.6,14.3,3.9,20.8
	c0.9,1.6,2.3,3,3.4,4.5c-0.1-1.6-0.3-3.2-0.4-4.8c0-0.6,0.1-1.3,0-2C857.7,597.3,856.3,590.4,855,582.5 M809.5,829
	c-0.4,1.3-0.8,2.5-1.2,3.8c1.1-0.3,2.4-0.4,3.4-1c5.4-3.4,10.8-6.8,16.2-10.3c0.5-0.3,0.5-1.5,0.8-2.3c-2.7-0.1-6.1-1.2-8,0
	C816.7,821.6,813.5,825.3,809.5,829 M858,775.5c2-4.8,4-9.6,6-14.4c0.3-0.7,0.4-1.3,0.6-2c-0.5,0.5-1.3,0.9-1.6,1.5
	c-5.1,7.7-10.1,15.4-15.2,23.1c-0.6,0.9-1.4,1.6-2.1,2.5c1.3-0.5,3.1-0.7,4-1.6C852.5,781.9,854.9,778.9,858,775.5 M850,491.5
	c-1.6,4-3.4,7.9-4.8,11.9c-0.6,1.7-0.4,3.7-0.6,5.6c1.8-1.4,3.7-2.7,5.4-4.2c0.6-0.5,0.8-1.6,1-2.5c0.9-3.4,1.9-6.9,2.5-10.4
	c0.3-2.2,0-4.6-0.1-6.9C852.3,486.8,851.1,488.7,850,491.5 M889,860.5c0.6,1.3,1,2.6,1.8,3.7c0.4,0.7,1.4,1,2.1,1.4
	c0.3-0.8,1.1-1.7,1-2.5c-0.9-5.9-1.9-11.8-3-17.6c-0.1-0.6-0.9-1-1.3-1.4c-0.2,0.5-0.6,1-0.6,1.6C888.8,850.5,888.7,855.2,889,860.5
	 M933,891.5c1-4.9,2-9.7,3-14.6c0.1-0.6-0.3-1.2-0.4-1.8c-0.5,0.4-1,0.8-1.4,1.2c-4.5,5.3-4.6,11.7-4.2,18.1
	c0.1,0.9,0.5,1.7,0.7,2.6c0.6-0.7,1.5-1.4,1.9-2.2C933,894.2,932.9,893.3,933,891.5 M131.5,1347c-0.4-1-0.7-2-1.1-2.9
	c-0.1,0.9-0.2,1.8-0.4,2.8c-0.3,1.8-0.8,3.6-1,5.5c-0.4,5-0.7,10-0.9,15c-0.1,0.5,0.7,1.4,1.1,1.5c0.6,0.1,1.5-0.4,1.7-0.9
	c0.6-1.3,1-2.7,1.1-4.1C132.1,1358.5,132,1353,131.5,1347 M349.5,841c1.2-0.3,2.3-0.5,3.5-0.8c-0.8-1-1.3-2.4-2.3-2.9
	c-5.7-2.9-11.4-5.5-17.1-8.1c-0.6-0.3-1.6,0-2.3,0c0.5,0.6,1,1.4,1.7,1.8C338.3,834.2,343.7,837.3,349.5,841 M805,699.5
	c1.6-2.3,3.2-4.7,5-6.9c0.8-1.2,1.9-2.1,2.9-3.2c-1.7-0.1-3.5-0.4-5.3-0.3c-0.6,0-1.2,1-1.6,1.7c-1.5,2.3-3.1,4.7-4.4,7.2
	c-1,1.8-1.6,3.8-2.3,5.8C801,702.5,802.8,701.3,805,699.5 M855,452.5c0.3,1.3,0.4,2.8,1.1,4c0.4,0.7,2.4,1.3,2.6,1.1
	c1-1.4,2.9-4.2,2.6-4.5c-3-2.7-4-6-4.3-9.7c-0.1-0.5-0.6-0.9-0.9-1.4c-0.4,0.4-1,0.8-1.1,1.2C854.8,446.1,854.7,449.1,855,452.5
	 M932,843.5c0.3,0.7,0.9,1.4,1,2.1c1,6.7,2,13.4,3,20.2c0.2,1.1,1.1,2.1,1.6,3.1c0.3-1.2,1.1-2.6,1-3.7c-0.7-4.8-1.4-9.7-2.7-14.4
	C935.1,847.9,933.3,845.3,932,843.5 M975.5,729c0.5-1.8,1.1-3.5,1.5-5.3c0.1-0.5-0.3-1.2-0.7-1.7c-0.1-0.1-1.1,0.2-1.2,0.4
	c-1.7,6.3-3.4,12.5-5,18.8c-0.1,0.4,0.9,1.2,1.4,1.8c0.5-0.7,1.3-1.2,1.5-1.9C973.7,737.2,974.3,733.4,975.5,729 M837.5,798
	c0.1-0.2,0.2-0.5,0.3-0.7c-0.6,0-1.4-0.2-1.7,0.1c-2.9,3.9-5.9,7.8-8.7,11.8c-0.9,1.1-1.3,2.5-1.9,3.8c1.6-0.6,3.9-0.7,4.6-1.8
	C832.7,807.1,834.7,802.8,837.5,798 M992,657.5c0-0.3,0-0.7,0-1c-0.1-1.1-0.2-2.2-0.3-3.3c-0.6,1-1.4,1.9-1.7,3
	c-1.7,6.6-3.3,13.2-5,19.9c-0.2,0.9-0.4,1.9-0.5,2.9c0.5-0.9,1.4-1.8,1.7-2.7C988,670.2,989.7,664.1,992,657.5 M793.5,684
	c1-0.7,1.9-1.4,2.9-2.1c-1.6-0.6-3.1-1.7-4.7-1.7c-0.9-0.1-2.4,1.4-2.6,2.5c-0.5,2.3-0.4,4.8-0.6,7.3
	C790,688.2,791.5,686.3,793.5,684 M212.5,1282c1.1-0.8,2.4-1.5,3.3-2.5c0.2-0.2-1.1-2.4-1.4-2.4c-2.4,0.5-4.7,1.2-7,2.1
	c-0.6,0.2-1.4,1.6-1.3,2.2c0.2,0.7,1.4,1.4,2.2,1.5C209.5,1283.1,210.8,1282.7,212.5,1282 M81,1055.5c0-1.3,0.1-2.7,0-4
	c-0.1-0.8-0.5-1.7-0.8-2.5c-0.7,0.7-2,1.4-2.1,2.2c-0.3,2.8-0.1,5.7,0,8.6c0,0.2,2.1,0.5,2.1,0.4C80.6,1059,80.8,1057.7,81,1055.5
	 M637.5,738c0.1-3.3,0.2-6.5,0.1-9.8c0-0.1-1.6-0.6-1.9-0.3C633.9,729.6,634.5,735.9,637.5,738 M754.5,825c0,1.3,0.1,2.7,0.1,4
	c0.9-0.9,2-1.8,2.7-2.8c1-1.6,2-3.2,2.6-4.9c0.3-0.9-0.2-2.2-0.4-3.3c-0.8,0.6-1.9,1.1-2.4,1.9C756.2,821.3,755.7,822.9,754.5,825
	 M643,794.5c-0.2-0.4-0.5-0.9-0.7-1.3c-0.2,0.9-0.7,1.8-0.7,2.7c0.1,3.5,0.3,6.9,0.4,10.3c0,0.2,0.6,0.3,0.9,0.4
	c0.4-3.2,0.8-6.3,1-9.5C644,796.6,643.3,796,643,794.5 M945,921.5c0-0.5,0-1,0-1.5c-0.1-1.3-0.2-2.6-0.4-3.9
	c-0.8,1.2-1.7,2.4-2.6,3.7c-0.2,0.3-0.5,0.8-0.5,1.2c0.2,2,0.4,4,0.6,6c0.9-1.4,1.7-2.8,2.6-4.1C944.7,922.7,944.9,922.6,945,921.5
	 M92,1111.5c-0.3,4.7-0.7,9.3-1,14c0,0.5,0.5,1,0.8,1.5c0.4-0.5,1.1-1,1.1-1.5c0.1-4.2,0.2-8.3,0.1-12.4
	C92.9,1112.2,92.3,1111.4,92,1111.5 M873,816.5c0.3-2.3,0.7-4.7,0.9-7c0.1-0.5-0.7-1.2-1.2-1.4c-0.5-0.2-1.6,0.2-1.6,0.5
	C870.7,811.5,868.8,814.8,873,816.5 M808.5,730c-0.4,1.6-0.8,3.2-1.3,4.7c1.1-1.2,2.1-2.4,3.2-3.6c0.1-0.1,0.3-0.2,0.3-0.3
	c0.8-2,1.6-4,2.3-6c0-0.2-0.3-0.5-0.5-0.8C811.3,725.8,810.2,727.7,808.5,730 M829,794.5c0.9-1.6,2-3.1,2.7-4.8
	c0.4-0.9,0.3-2.1,0.4-3.1c-0.8,0.4-2,0.6-2.4,1.3c-1.1,1.8-1.9,3.8-2.7,5.7C826.9,793.9,828,794.5,829,794.5 M811.5,738
	c0,1.3,0,2.7,0,4c0.9-0.9,2-1.7,2.7-2.8c0.6-0.9,0.8-2,1.1-3c0.1-0.7,0-1.5,0-2.2c-0.8,0.3-1.7,0.5-2.2,1
	C812.5,735.7,812.3,736.7,811.5,738 M979,515.5c0-1.7,0.3-3.4-0.1-4.9c-0.3-1.3-1.4-2.4-2.2-3.6c-0.2,1.2-0.9,2.5-0.6,3.6
	C976.6,512.4,977.7,514.2,979,515.5 M131.5,1342c0.9-0.2,2-0.2,2.7-0.8c1-0.8,1.8-1.9,2.4-3.1c0.2-0.4-0.6-1.3-1-2
	c-0.9,0.9-1.9,1.7-2.8,2.6c-0.9,0.9-1.8,1.8-2.7,2.8C130.1,1341.5,130.7,1342.1,131.5,1342 M81.5,1016c0.2-0.2,0.6-0.4,0.7-0.7
	c0.5-2,1.1-4,1.5-6.1c0-0.2-0.9-0.7-1.4-1c-0.4,1.9-0.9,3.9-1.3,5.8C80.9,1014.5,81,1015,81.5,1016 M799.5,770
	c-1.7,1.4-3.4,2.7-5.1,4.1c-0.1,0.1,0.2,0.6,0.3,0.9c1.8-1.2,3.6-2.4,5.4-3.6C800.4,771.1,800.4,770.5,799.5,770 M185,1247.5
	c-0.1-0.8-0.2-1.5-0.3-2.3c-0.4,0.5-0.9,1.1-1,1.7c-0.3,1.8-0.5,3.7-0.7,5.6c-0.1,0.8-0.2,1.7-0.2,2.5c0.7-0.8,1.9-1.6,2-2.6
	C185.1,1251,184.7,1249.5,185,1247.5 M877,846.5c0-1.8,0-3.7,0-5.5c0-0.3-0.5-0.9-0.8-0.9c-0.3-0.1-1.2,0.3-1.1,0.5
	C875.1,842.8,873,845.5,877,846.5 M90,1022.5c0.8,0.2,1.6,0.4,2.4,0.6c-0.2-0.9-0.1-2.3-0.6-2.6c-0.9-0.5-2.2-0.4-3.3-0.5
	C88.8,1020.7,89.2,1021.3,90,1022.5 M91.5,1218c0.5,0,1,0.1,1.5,0.1c0-1.1,0.2-2.3,0-3.5c-0.4-1.5-1.1-2.9-1.7-4.4
	c-0.1,1.4-0.2,2.9-0.3,4.3C91,1215.5,91,1216.5,91.5,1218 M110.5,1279c-0.8-1-1.7-2-2.5-3c0.1,1.3-0.1,2.6,0.3,3.7
	c0.3,0.9,1.3,1.6,1.9,2.3C110.5,1281.2,110.7,1280.3,110.5,1279 M81,1118.5c0.1,1.4,0.1,2.9,0.4,4.3c0,0.4,0.8,0.7,1.3,1
	c0.1-1.8,0.3-3.5,0.2-5.3C82.9,1118.2,81.7,1117.8,81,1118.5 M298.5,1215c-0.1,1.2-0.4,2.5-0.2,3.6c0,0.6,1.1,1.3,1.8,1.3
	c0.6,0,1.2-0.9,1.8-1.3c-0.5-0.6-1-1.2-1.5-1.7S299.5,1216,298.5,1215 M875.5,832c0,0.7,0.1,1.3,0.1,2c0.5-0.3,1.3-0.6,1.3-0.9
	c0-2.3-0.3-4.7-0.4-7.1c-0.5,1.7-1,3.4-1.5,5C875,831.2,875,831.3,875.5,832 M160,1106.5c0.3,1.5,0.5,3,0.8,4.5
	c0.5-0.6,1.6-1.4,1.5-1.9C162,1108,161.1,1107,160,1106.5 M644,830.5c3.4,1.4,1.9-1.5,1.9-2.4c0-1-1-2-1.5-3
	C644.2,826.6,644.1,828,644,830.5 M881,794.5c0.2-1.5,0.4-2.9,0.6-4.4c-0.5,0.2-1.5,0.3-1.5,0.5C880.1,792,880.3,793.5,881,794.5
	 M771,749.5c-0.2-0.4-0.4-0.9-0.7-1.3c-0.6,1.9-1.3,3.8-1.9,5.7c0,0.2,0.7,0.7,1,1C769.8,753.3,770.1,751.6,771,749.5 M609,761.5
	c0,0.8-0.2,1.7,0.1,2.5c0.2,0.7,0.8,1.3,1.3,1.9c0.2-1.3,0.5-2.7,0.5-4C610.9,761.6,610,761.3,609,761.5 M90,1155.5
	c0.6,1.1,1.1,2.2,1.7,3.3c0.4-0.8,1.3-1.8,1.1-2.3C92.5,1155.8,91.3,1155.5,90,1155.5 M111.5,1286c0.6,1.6,1.2,3.2,1.8,4.7
	c0,0.1,0.4-0.1,0.6-0.1C113.3,1289.2,112.6,1287.9,111.5,1286 M840,774.5c-1,1.2-2,2.5-3,3.8c0,0,0.4,0.4,0.5,0.7
	C838.4,777.8,839.2,776.7,840,774.5 M871,836.5c-1,0-2,0-3,0.1v0.8C869,837.5,870,837.5,871,836.5 M880,566.5c0,0.5,0,1,0,1.5
	c0.1,0.9,0.2,1.9,0.3,2.8c0.3-0.1,0.7-0.2,0.7-0.4c0-1,0-2.1,0-3.1C880.9,566.8,880.7,566.4,880,566.5 M177.5,1285
	c-0.1,0.2-0.2,0.5-0.3,0.7c0,0.1,0.3,0.3,0.4,0.3c1-0.6,2.1-1.2,3.1-1.8C179.8,1284.3,178.9,1284.4,177.5,1285 M789,741.5
	c-0.2,0.8-0.4,1.6-0.6,2.4c0.5-0.2,1.5-0.3,1.5-0.5C789.9,742.6,789.7,741.8,789,741.5 M875.5,837c0.5-0.5,0.9-1.1,1.4-1.6
	c-0.3-0.2-0.7-0.4-0.8-0.4C875.7,835.5,875.4,836,875.5,837 M126,1315.5c0.9,0.1,1.7,0.3,2.6,0.4c0,0,0.1-0.4,0.2-0.6
	C128,1315.2,127.3,1315.1,126,1315.5 M92.5,1042c-0.1,0.9-0.3,1.7-0.4,2.6c0,0,0.4,0.1,0.6,0.2C92.8,1044,92.9,1043.3,92.5,1042
	 M132.5,1290c0.1-0.5,0.3-1.1,0.4-1.6c0,0-0.4-0.1-0.6-0.2C132.2,1288.7,132.1,1289.1,132.5,1290 M118,1283.5
	c-0.1-0.4-0.2-0.8-0.3-1.3c-0.2,0.1-0.6,0.2-0.6,0.2C117.2,1282.9,117.4,1283.5,118,1283.5 M962,681.5c0.1,0.4,0.2,0.8,0.3,1.3
	c0.2-0.1,0.6-0.2,0.6-0.2C962.8,682.1,962.6,681.5,962,681.5 M790.5,739c0.2,0.3,0.3,0.7,0.5,1C791.2,739.7,791.3,739.3,790.5,739
	 M816.5,741c0.4-0.1,0.8-0.2,1.3-0.3c-0.1-0.2-0.2-0.6-0.2-0.6C817.1,740.2,816.5,740.4,816.5,741 M82,1115.5
	c0.2,0.1,0.4,0.3,0.6,0.4C82.6,1115.6,82.5,1115.3,82,1115.5 M612,742.5c0.2,0.1,0.4,0.3,0.6,0.4C612.6,742.6,612.5,742.3,612,742.5
	 M961,689.5c0.2,0.1,0.4,0.3,0.6,0.4C961.6,689.6,961.5,689.3,961,689.5 M187,1221.5c0.2,0.1,0.4,0.3,0.6,0.4
	C187.6,1221.6,187.5,1221.3,187,1221.5 M278.5,1222c0.1-0.2,0.3-0.4,0.4-0.6C278.6,1221.4,278.3,1221.5,278.5,1222 M91,1101.5
	c0.2,0.1,0.4,0.3,0.6,0.4C91.6,1101.6,91.5,1101.3,91,1101.5 M255,1224.5c-0.2-0.1-0.4-0.3-0.6-0.4
	C254.4,1224.4,254.5,1224.7,255,1224.5 M613,744.5c-0.2-0.1-0.4-0.3-0.6-0.4C612.4,744.4,612.5,744.7,613,744.5 M886.5,503
	c-0.1,0.2-0.3,0.4-0.4,0.6C886.4,503.6,886.7,503.5,886.5,503 M834,784.5c-0.2-0.1-0.4-0.3-0.6-0.4
	C833.4,784.4,833.5,784.7,834,784.5 M881,788.5c0.2,0.1,0.4,0.3,0.6,0.4C881.6,788.6,881.5,788.3,881,788.5 M841,793.5
	c-0.2-0.1-0.4-0.3-0.6-0.4C840.4,793.4,840.5,793.7,841,793.5 M175.5,1286c-0.1,0.2-0.3,0.4-0.4,0.6
	C175.4,1286.6,175.7,1286.5,175.5,1286 M760,812.5c-0.2-0.1-0.4-0.3-0.6-0.4C759.4,812.4,759.5,812.7,760,812.5 M315,820.5
	c0.2,0.1,0.4,0.3,0.6,0.4C315.6,820.6,315.5,820.3,315,820.5 M44,917.5c-0.2-0.1-0.4-0.3-0.6-0.4C43.4,917.4,43.5,917.7,44,917.5
	 M787.5,851c0.1-0.2,0.3-0.4,0.4-0.6C787.6,850.4,787.3,850.5,787.5,851"/>
<path d="M302,852c11.6,7.1,23.4,13.2,33.5,21.4c20.3,16.6,39.8,34.3,53.3,57.2c5.1,8.6,8.4,18.4,12.1,27.9c1.9,5-3.3,14.1-8.7,16.7
	c-0.2,0.1-1.2-0.3-1.1-0.4c0.3-1.9,0.1-4.2,1.2-5.4c4.1-4.8,3.7-10,1.7-15.2c-6.4-16.4-16.7-30.2-28.4-43.3
	c-13.7-15.3-29.1-28.4-46.1-39.7c-20.1-13.4-41.3-25.1-64.4-32.4c-8.8-2.8-18-4.3-27.2-5.7c-8.4-1.2-17.1-1.7-25.6-2
	c-3.9-0.1-7.9,0.9-11.7,1.9c-1.7,0.5-3.1,2.2-4.6,3.4c-1.1,0.8-2.1,2-3.3,2.6c-4.2,1.9-5.1,3.8-1.6,6.3c5.9,4.1,12.6,7.3,19.1,10.6
	c0.8,0.4,3.2-0.5,3.7-1.4c3-6.4,9-5.7,14.3-6.5c10.3-1.4,18.9,3.8,27.9,7.6c9.7,4.1,19.8,7.7,29.2,12.6c8.3,4.3,16.3,9.5,23.5,15.4
	c8.5,6.9,16.5,14.5,23.6,22.6c7,8,12.7,17,18.9,25.7c1.8,2.5,3.4,5.6,0.1,8c-3.1,2.4-6.4,1.3-9.1-1.1c-4.7-4.3-9.5-8.6-14-13.1
	c-11.8-11.5-25.4-20.5-39.6-28.7c-20.8-12.2-42.9-21.1-65.5-29.1c-10.1-3.6-19.9-8.3-29.6-13c-4.1-1.9-8.7-4.3-9.6-9.7
	c-0.2-1.9-0.7-4.2,0.1-5.6c4.3-7.3,9.4-13,19-13.8c13.8-1.2,27.2-0.7,40.9,2c12.3,2.4,24.7,3.8,36.2,9.2
	C280.7,841.9,291.1,847,302,852 M329,927.5c0.8,0.5,1.6,1,2.4,1.5c0-1,0.5-2.2,0.1-2.9c-1.4-2.3-2.7-4.8-4.6-6.6
	c-9.9-9.8-19.6-19.8-30.1-28.9c-6.5-5.7-14-10.7-21.7-14.8c-12.1-6.4-24.7-12-37.3-17.3c-7.3-3.1-14.6-8.1-23.3-4.5
	c-2.2,0.9-4.3,2-6.5,2.9c2,1.4,3.8,3.2,6,4c19.2,7.3,38.7,13.5,56.5,24c8.5,5.1,18.1,8.6,25.9,14.4
	C307.7,907.8,317.9,917.7,329,927.5"/>
<path d="M160.7,879.3c15,12.2,29.8,24.1,44.3,36.3c8.2,7,16.5,14,23.8,22c11.6,12.6,22.6,25.7,33.2,39.2c3.9,5,7.2,11,7,18
	c-0.1,8.7-5.3,12.3-13.8,9.9c-10.9-3-19.8-9.2-28.3-16.3c-17.3-14.4-34.8-28.6-52-43.1c-6.9-5.8-13.4-12-20.1-18
	c-14.1-12.7-28.2-25.4-42.1-38.2c-4.8-4.3-5.2-12.6-1.3-18c4.5-6.3,10.8-7.6,17.8-4.6c4.6,2,9.9,2.7,14.6,4.6
	C149.5,873.4,154.9,876.3,160.7,879.3 M207.5,927c-12.9-11.2-25.4-22.7-38.7-33.4c-6.6-5.4-14.2-9.6-21.9-13.5
	c-7.1-3.6-14.7-6.1-22.2-8.9c-5.7-2.1-11.1,2.4-10.7,8.7c0.1,1.9,0,2.5,2.4,1.4c5.7-2.6,11.8-1.9,16.7,1.6
	c10.3,7.2,20.6,14.6,30,22.9c12.2,10.9,23.8,22.4,35.1,34.1c7.3,7.6,13.6,16,20.3,24.1c6.8,8.3,10.6,19.1,20.1,25
	c6.3,3.8,13.1,7,19.9,9.9c3.3,1.3,6.2-1.3,5.4-4.2c-0.6-2.4-1.7-4.6-2.6-6.9c-4.3-10.6-12.5-18.4-19.9-26.7
	c-9.5-10.6-19.7-20.6-29.6-30.7C210.7,929.2,209.3,928.4,207.5,927 M159,921.5c5.6,5.3,11.1,10.8,16.9,15.9
	c11.7,10.2,23.5,20.2,35.4,30.3c1.3,1.2,3,2,4.5,3c-0.7-1.8-1.4-3.6-2.1-5.4c-0.1-0.3-0.4-0.5-0.7-0.8c-7.7-8.7-14.9-18.1-23.4-26.1
	c-17.1-16-34.7-31.4-52.6-46.6c-3.9-3.3-9.6-4.8-14.6-6.7c-1.1-0.4-2.9,0.9-4.4,1.4c0.8,0.8,1.5,1.6,2.4,2.4
	c2.2,1.9,4.4,3.7,6.6,5.6C137.5,903.4,148,912.2,159,921.5"/>
<path d="M106.8,972.3c-7.1-11.1-14-21.9-20.8-32.8c-3.4-5.5-6.4-11.1-6.1-18c0.4-7.9,5.5-12,13-8.9c6.1,2.6,12.7,5.6,17.1,10.3
	c12.3,13.1,23.7,27,35.1,40.8c10.1,12.3,20.1,24.5,29.3,37.4c12.8,18,26.1,35.9,34,56.9c1.9,5,3,10.2-0.3,15.6c-2.3,3.8-4.4,4.8-8,2
	c-3.4-2.6-6.9-5.2-10.1-8.1c-13.1-12.7-26.8-24.9-39-38.3c-11.5-12.7-21.5-26.7-32-40.2C114.8,983.6,111,978,106.8,972.3
	 M160.5,1030c12.3,12,24.7,24,37.1,36c1.8,1.8,4.1,3.1,6.2,4.7c0.1-2.7,0.9-5.7,0-8.1c-1.7-5-1.9-11.2-8-13.6
	c-8.2-3.2-14.9-8.5-20.9-14.7c-7.1-7.4-14-15.1-20.8-22.8c-4.2-4.7-8.3-9.5-12.1-14.5c-6.8-9.1-13.6-18.2-20-27.6
	c-7.2-10.5-14.2-21.1-20.9-31.8c-2.6-4.2-5.5-8.3-3.4-14c0.4-1-2.8-4-4.9-5c-2-1-4.6-0.7-7-0.9c-0.1,2.1-0.3,4.3-0.1,6.4
	c0.1,1.4,0.7,2.7,1.3,3.9c8.5,18.5,20.9,34.5,32.6,51c9.1,12.9,18.8,25.6,28.5,38.1C151.6,1021.6,156,1025.4,160.5,1030 M104,933.5
	c8.1,11.8,16.2,23.6,24.4,35.3c10.8,15.7,22.2,31,35.6,44.7c5.6,5.8,11,11.8,16.6,17.6c3.4,3.4,7.2,6.6,10.8,9.8
	c0.6,0.5,1.6,0.5,2.4,0.8c-0.1-0.9,0.1-2.1-0.4-2.7c-2.6-3.4-5.6-6.6-8-10.2c-14.1-21.5-28.9-42.5-45.9-61.9
	c-11-12.6-21.7-25.6-32.5-38.4c-1.3-1.4-3-2.3-4.5-3.5c0.2,2.3,0.5,4.5,0.8,6.8C103.4,932.1,103.8,932.3,104,933.5"/>
<path d="M500,267c-3.7,4.8-3.8,10.1-3.9,15.3c-0.1,3.5,0.8,7.1,0.8,10.6c0,1-1.4,2.1-2.2,3.1c-0.9-0.9-2.4-1.6-2.6-2.6
	c-0.6-3.5-0.7-7.1-1.1-10.6c-0.6-4.9-1.4-9.7-2-14.6c-0.3-3.6-1.2-7.8-5.3-6.8c-2.4,0.5-4.4,4.7-5.6,7.6c-2.6,6.5-0.9,13.5-1.1,20.2
	c-0.1,1.5-0.4,3.2-1.1,4.5c-0.3,0.7-1.6,1.1-2.5,1.2c-0.4,0.1-1.3-0.8-1.3-1.3c-0.5-3-0.9-6-1.1-9c-0.4-8.2-0.7-16.4-0.9-24.6
	c-0.1-1.3,0.7-2.7,1.2-4c1.2,1.2,2.5,2.4,3.7,3.8c0.4,0.5,0.3,1.4,0.5,2.2c0.5-0.6,1.1-1.2,1.5-1.9c1.7-3.2,4.3-5.3,7.8-4.6
	c4.1,0.8,7.8,2.6,8.3,7.7c0,1,1,1.9,1.5,2.8c0.5-0.8,0.9-1.6,1.4-2.4c2.4-3.4,5.1-6.4,10-5.6c5.6,0.9,5.3,6.1,5.8,9.6
	c1,7.8,0.9,15.7,1.2,23.5c0,0.5,0.2,1.1,0,1.5c-1,1.8-2.1,3.6-3.1,5.4c-0.6-1.8-1.7-3.6-1.8-5.5c-0.5-7.5-0.6-15-1.2-22.5
	c-0.2-2.4-1.5-4.7-2.4-7C503,264.2,501.5,265.3,500,267"/>
<path d="M194.3,110.8c2.2,4.9,4.1,9.6,6.3,14.2c0.6,1.4,2,2.5,3.1,3.8c0.4-1.5,1.2-2.9,1.2-4.4c0.5-7.7,0.6-15.4,1.2-23.1
	c0.1-1.2,1.9-2.2,3-3.3c0.9,1,2.8,2,2.8,2.9c-0.8,9.8-1.5,19.6-3.1,29.3c-0.9,5.6-6.2,6.9-9.4,2.4c-3.4-4.7-5.7-10.3-8.4-15.5
	c-0.5-1-1.1-1.9-1.7-2.9c-0.4,0.9-1,1.9-1.3,2.9c-1,4.3-1.7,8.6-3.1,12.7c-1.1,3.5-3.9,6.5-7.7,5c-2.2-0.9-4.6-3.9-5-6.3
	c-1.8-10.7-3-21.5-4.1-32.3c-0.1-1.6,1.7-3.5,2.6-5.2c0.8,1.4,2,2.7,2.2,4.1c1.5,8.9,2.7,17.9,4.1,26.8c0.4,2.1,1.2,4.1,1.8,6.1
	c1.1-2.1,2.4-4.1,3.1-6.3c1.2-3.3,1.9-6.9,3.2-10.2c0.7-2,2.2-3.7,3.4-5.5C190.3,107.5,192.2,109,194.3,110.8"/>
<path d="M538,122c-0.3-5.5-0.6-10.5-1.1-15.4c-0.1-0.6-1.4-1.4-2.2-1.5c-0.5-0.1-1.3,0.9-1.7,1.5c-4.4,5.8-5.6,12.5-6,19.5
	c0,1,0.4,2.3-0.1,2.9c-1.3,1.5-2.9,2.7-4.4,4c-0.9-1.5-2.4-2.9-2.4-4.4c0-4.4,0.8-8.7,0.8-13.1c0-4-0.6-8.1-0.8-12.1
	c-0.1-1.1,0.5-2.3,0.8-3.4c1.4,0.9,3.6,1.5,4.1,2.7c1.9,4.7,2.4,3.9,4.2-0.1c0.9-1.8,4.6-3.8,6.2-3.3c2.6,0.9,4.5,3.8,6.6,5.9
	c0.3,0.4,0.3,1.2,0.5,1.8c0.2-0.6,0.3-1.3,0.7-1.7c2.2-1.8,4.3-4.2,6.8-5.1c4.2-1.6,8.5,2.1,8.9,7.4c0.6,7,0.8,14.1,1.1,21.1
	c0,0.5,0.2,1.1,0,1.5c-1.2,1.9-2.4,3.9-3.6,5.8c-0.8-1.8-2.1-3.6-2.3-5.5c-0.3-4.2,0-8.3-0.1-12.5c-0.2-3.5-0.6-7.1-1-10.6
	s-3.1-2-3.7-0.9c-1.8,3-3.5,6.3-4.1,9.7c-0.7,3.9,0.2,8-0.4,11.9c-0.3,1.8-2.6,3.3-3.9,4.9c-1-1.7-2.3-3.2-2.8-5
	C537.6,126.3,538,124.3,538,122"/>
<path d="M372,206c0,7.9-1.1,9.5-5.9,8.9c-1.1-0.1-2.5-0.9-3-1.8c-4.1-6.5-9.4-12.5-10.3-20.7c-0.2-1.5-2.2-2.9-3.4-4.3
	c-0.4,2.1-1.3,4.2-1.3,6.4c-0.2,6,0.1,12.1-0.4,18.1c-0.1,1.2-2.8,2.2-4.3,3.3c-0.8-1.3-2.3-2.7-2.3-3.9c0.4-6.6,1.4-13.1,1.8-19.7
	c0.3-4.8,0-9.6,0.2-14.5c0-1.6,0.9-3.2,1.4-4.8c1.9,1,4.5,1.5,5.4,3.1c4.6,8.7,8.7,17.6,13.1,26.4c0.6,1.3,1.6,2.3,2.5,3.5
	c0.5-1.3,1.3-2.5,1.4-3.8c0.8-7.7,1.3-15.5,2.2-23.1c0.2-1.5,1.8-2.7,2.7-4.1c1.1,1.6,3.1,3.2,3,4.8c-0.3,5.7-1.4,11.3-2.1,17
	C372.4,199.7,372.2,202.6,372,206"/>
<path d="M399,112c-0.7,5.5-0.9,10.7-2.1,15.6c-1.5,6.1-6.8,7.3-11,2.8c-2.8-3.1-5.3-6.3-5-11c0.1-1.4-1.2-2.9-1.8-4.4
	c-0.7,1.4-1.5,2.8-2.1,4.3c-1.1,2.9-1.6,6.1-3.1,8.7c-1.7,2.8-3.9,6.5-8,3.8c-1.6-0.9-2.6-3.5-2.8-5.5c-0.6-5.8-0.7-11.7-1.1-17.5
	c-0.3-4.6-1-9.1-0.9-13.6c0.1-1.8,1.7-3.5,2.7-5.2c0.7,1.4,2,2.7,2.1,4.1c0.9,7.6,1.5,15.1,2.1,22.7c0.1,1.8-0.2,3.7,0.1,5.5
	c0.1,0.9,1,1.8,1.5,2.7c0.8-0.8,2-1.5,2.3-2.5c1.8-5.3,3.3-10.7,5.1-15.9c0.4-1.3,1.5-2.4,2.3-3.6c1.2,1.2,3,2.3,3.6,3.8
	c2.2,6.1,4.1,12.3,6.1,18.4c0.4,1,1,1.8,1.6,2.7c0.8-1.1,2.2-2.2,2.3-3.5c0.9-8,1.3-16.1,2.2-24.1c0.2-1.5,1.6-2.9,2.5-4.3
	c0.8,1.5,2.2,2.9,2.3,4.4C399.9,104.1,399.3,107.8,399,112"/>
<path d="M655.8,258.3c0.9,1.6,2.2,3,2.1,4.4c-0.5,10.7-1.1,21.4-2,32.1c-0.2,1.4-1.9,3.7-3.2,3.9c-1.4,0.3-3.6-1-4.7-2.3
	c-5.5-6.9-8.5-15-11-23.4c-0.3-0.7-1.2-1.3-1.8-2c-0.4,0.7-1.2,1.4-1.1,2c0.2,5.1,0.9,10.1,0.8,15.1c-0.1,3.4-1.1,6.8-2,10.1
	c-0.3,0.8-2,1.2-3,1.8c-0.3-1-0.9-1.9-0.9-2.9c0-9.3,0.1-18.6,0-27.9c-0.1-2.4-0.9-4.8-0.9-7.1c0-1.7,0.8-3.3,1.2-4.9
	c1.9,0.6,4.8,0.7,5.5,2c3.4,5.9,6.3,12,9.2,18.2c1.7,3.8,2.9,7.7,4.5,11.6c0.5,1,1.4,1.9,2.1,2.9c0.5-1.3,1.3-2.6,1.3-3.9
	c0.5-8,0.6-16,1.2-24C653.3,261.9,654.7,260,655.8,258.3"/>
<path d="M661,201c-0.3-5.5-0.9-10.5-0.9-15.6c0-1.4,1.8-4.3,2.3-4.2c1.9,0.4,4.7,1.2,5.4,2.8c4.3,8.3,8.1,16.9,12.1,25.4
	c0.5,1,1.5,1.7,2.3,2.6c0.3-1,0.7-2,0.8-3c0.4-9.3,0.6-18.7,1.1-28c0-1,0.8-2,1.2-3c1.2,0.6,3.2,0.8,3.6,1.7c0.8,2,1.1,4.4,1,6.5
	c-0.1,4.4-0.6,8.8-0.9,13.1c-0.4,5.4-0.5,10.7-1.1,16.1c-0.2,1.5-1.2,4-2.3,4.2c-1.5,0.4-3.9-0.5-5-1.7c-5-5-8.5-11.1-10.7-18
	c-0.3-1.1-1.5-1.9-2.4-2.9c-0.3,1.4-0.9,2.7-0.9,4.1c0,4.7,0.5,9.5,0.2,14.3c-0.1,0.9-2.6,1.7-4,2.6c-0.6-1-1.7-2-1.7-3
	C660.9,210.5,661,206,661,201"/>
<path d="M172,188c0.2-5-1.3-10.5,0.8-13.7c3.2-4.9,10.6-5.1,15.7-2.3c5.2,2.8,6.3,8.2,2.3,12.6c-2.4,2.6-2.5,4.7,0.2,6.9
	c3.4,2.7,3.8,6.5,2.7,10.1c-1.3,4.3-5.2,6.4-9.3,7.3c-2.5,0.5-5.3,0.4-7.9,0c-2.6-0.4-4.8-1.3-4.6-4.9
	C172.2,198.8,172,193.7,172,188 M178,180.5c0.3,2.3,0.6,4.7,1.1,7c0.1,0.3,2.3,0.6,2.5,0.3c1.9-3.1,3.7-6.4,5.3-9.7
	c0.1-0.3-1.3-1.9-2.1-2C182,175.9,178.8,175.4,178,180.5 M187.5,201c0.2-0.9,0.3-1.9,0.5-2.8c1.1-4.1-2.5-4.8-4.7-5
	c-2.5-0.2-4.6,2-4.2,4.9c0.3,1.9,1,5,2.2,5.3C182.9,203.9,185.1,202.2,187.5,201"/>
<path d="M549,192c1-3.8,1.4-7.6,2-11.3c0.3-1.9,0.9-3.8,1.3-5.7c1.6,1.4,3.2,2.7,4.7,4.3c0.5,0.6,0.9,1.6,1,2.5
	c0.4,9.5,0.7,19,1,28.5c0,0.8,0.1,2-0.3,2.4c-1.4,0.9-3,1.5-4.5,2.3c-0.4-1.2-1-2.3-1.2-3.6c-0.4-3.5-1-7-0.9-10.5
	c0.1-5.1-3.4-3.7-6.1-3.9c-3.2-0.2-6.1,0.2-6,4.4c0.2,3.2,0.9,6.4,0.9,9.6c0,1.6-0.4,3.7-1.4,4.8c-1.4,1.5-3.9,3.4-4.5-1
	c-0.2-1-0.9-2-1-3.1c-0.4-8.6-0.6-17.3-1-26c-0.1-1.5-1-3.1-0.9-4.6c0.1-1.7,0.6-4.5,1.6-4.9c3.2-1.3,4.5,1.2,5.3,3.9
	c0.2,0.8,0,1.6,0,2.5C539.1,192,539.1,192,549,192"/>
<path d="M737.3,101.8c0.4,4.5,0.2,8.8,0.8,13c0.6,4.9,1.9,9.8,2.9,14.7c0.8,4,2.9,4.4,4.8,1c2.5-4.4,4.6-9.1,6.1-13.9
	c1.3-4.2,1.3-8.8,2.2-13.1c0.3-1,2.1-2.2,3.3-2.3c0.8-0.1,2.4,1.6,2.5,2.6c0.3,2.8,0,5.8,0.1,8.6c0.3,6.9,0.7,13.8,1,20.6
	c0,1,0.4,2.3-0.1,3c-1.1,1.5-2.6,2.7-4,4c-0.6-1.5-1.6-2.9-1.8-4.4c-0.3-2.2,0-4.4-0.1-6.5c-0.1-0.7-0.5-1.4-0.7-2.1
	c-0.7,0.4-1.6,0.7-2,1.2c-0.8,1.7-1.4,3.4-2.1,5.1c-1.6,3.5-4.1,5.5-8.1,5.8c-3.9,0.2-5.7-2.5-6.6-5.3c-1.6-4.7-2.8-9.6-3.4-14.6
	c-0.5-5.1-0.2-10.3,0-15.4c0-1.2,0.5-3.2,1.2-3.4C734.4,100.2,735.7,101.1,737.3,101.8"/>
<path d="M739,279c-1.5,6.3-4.2,11.9-9.9,14.1c-4.5,1.7-9.7,1.4-14.6,1.7c-0.5,0.1-1.4-1.7-1.4-2.7c-0.8-9-1.4-18.1-2.1-27.1
	c-0.2-2.2-0.5-4.4-1.1-6.5c-1.1-4.7,0-6.7,4-5.3c8.1,2.7,16,6.1,22.2,12.4C739.8,269.3,739.9,273.8,739,279 M733.5,272
	c-0.6-0.9-1-2.1-1.8-2.7c-3.7-2.5-7.7-4.7-11.4-7.3c-3.6-2.6-3.6-0.5-3.3,2.2c0.7,6.5,1.1,13.1,2.1,19.6c0.3,1.8,2.1,4.9,3.1,4.9
	c2.6,0,6-0.8,7.6-2.5C733.3,282.5,734.9,277.7,733.5,272"/>
<path d="M251.3,129.3c-3.7,1.9-4.7-0.1-5.3-3c-0.3-1.3-0.7-2.7-1-4c-1.5-6.7-3.3-7.8-9.2-5.2c-1.1,0.5-1.8,2.8-1.8,4.2
	c-0.1,3.1,1,6.1,0.7,9.1c-0.2,1.3-2.5,2.6-4.1,3.4c-0.3,0.2-2.3-1.5-2.5-2.5c-1.8-10.2-3.5-20.5-4.9-30.8c-0.2-1.1,1.6-3,2.8-3.3
	c1.1-0.3,3.5,0.7,3.8,1.7c1.1,3.2,1.8,6.7,2.1,10.1c0.4,3.6,2.5,3.4,4.8,2.7c7.1-1.8,7.6-3.5,5.1-13.5c-0.3-1.5,0.7-3.5,1-5.2
	c1.7,0.9,4.6,1.5,5,2.8c1.2,4.1,1.5,8.4,2.2,12.6c0.9,5.3,2,10.5,2.6,15.9C252.8,125.8,251.9,127.4,251.3,129.3"/>
<path d="M315,268c3.2,0.5,4.3-0.3,4.1-3.3c-0.3-3.6-0.3-7.3,0-11c0.1-1.3,1.3-2.5,2.1-3.7c1,1,2.2,1.8,3.1,2.9
	c0.5,0.6,0.7,1.5,0.7,2.2c0.3,10.6,0.7,21.1,0.9,31.6c0.1,1.3-0.5,2.8-1.2,4c-0.3,0.6-1.7,1.3-2.3,1.1c-0.6-0.3-1.2-1.5-1.3-2.3
	c-0.5-3.9-0.8-7.8-1.1-11.6c-0.1-2.7-0.2-5.5-4-4.8c-3,0.5-7.1-0.5-7.1,4.9c0.1,3.5-0.3,7.1-1.1,10.5c-0.2,1.1-2.5,1.7-3.8,2.5
	c-0.3-1.3-0.9-2.5-1-3.8c-0.4-12-0.7-24-0.9-36.1c0-1,1-2.1,1.6-3.1c1.1,0.8,3,1.5,3.2,2.6c0.7,3.4,1,7,1.1,10.5
	C308.1,268,308,268,315,268"/>
<path d="M802,144c-2-1.2-4.1-2-4.9-3.5c-2.8-5.5-5.4-11.1-7.7-16.8c-0.5-1.3,0.8-3.3,1.4-5c1-2.7,2.6-5.4,3-8.2
	c0.4-2.3-1.3-3.7-4.2-3.6c-2.7,0.1-3.7,1.1-3.6,3.8c0.1,8.7-0.1,17.3,0,26c0.1,3-0.8,5.3-4.2,5.3c-4.1-0.1-2.7-3.4-2.7-5.5
	c-0.2-9.6-0.1-19.1-0.1-28.7c-0.1-2.8,0.3-5.5,3.7-5.7c3.8-0.3,8.2-1.3,11.6,0c5.2,2.1,7,9.6,3.5,16.2c-2.6,4.7-0.8,7.9,0.7,11.8
	C800.3,134.6,804.7,138.4,802,144"/>
<path d="M683.8,105.3c0.4,0.4,0.9,0.7,0.9,0.9c0.1,9.1,0.2,18.1,0.3,27.2c0,0.7-0.5,1.6-1,2c-0.8,0.7-1.8,1.2-2.8,1.5
	c-0.2,0-1.1-1.3-1.1-2c-0.2-1.8,0-3.6-0.1-5.5c-0.1-1.1-0.6-2.3-0.9-3.4c-0.8,1-1.8,2-2.6,3c-1.8,2.4-3.1,5.4-5.3,7.1
	c-5.4,4.1-8.8,2.6-11.3-3.6c-2.9-7.1-2.3-14.1-0.9-21.3c0.5-2.7,0.4-5.5,1.1-8c0.3-1,2.1-1.5,3.2-2.2c0.5,1,1.6,2.1,1.6,3.1
	c0,6.3-0.3,12.7-0.5,19c0,0.5-0.3,1.2-0.1,1.7c0.9,2.4,2,4.8,3,7.2c2-1.9,4.9-3.5,5.8-5.9c2.2-5.6,3.3-11.6,4.9-17.5
	c0.6-1.9,1.6-3.6,2.4-5.5C681.4,103.7,682.5,104.4,683.8,105.3"/>
<path d="M546,288c0-1.2,0.1-1.9,0-2.5c-0.6-2.2-0.8-5.9-1.9-6.2c-3.1-0.8-6.6-0.3-9.8,0.1c-0.6,0.1-1.2,2.1-1.2,3.3
	c-0.2,4.2,0.1,8.3-0.2,12.5c-0.1,1-1.6,1.9-2.4,2.8c-0.9-0.8-2.4-1.6-2.4-2.4c0.5-10.7,0.8-21.4,2.1-32.1c0.6-5.2,5.2-9,9-8.4
	c4.4,0.7,7.1,3.5,7.8,8.3c1.2,7.2,2.9,14.5,3.9,21.8c0.5,4.1,0.1,8.3-0.2,12.5c-0.1,0.8-1.9,1.5-2.9,2.3c-0.2-1-0.6-1.9-0.8-2.9
	C546.6,294.2,546.3,291.4,546,288 M543.5,269c-1.6-2.8-0.6-8-5.2-7.6c-1.7,0.1-3.3,4.6-4.2,7.4c-1.1,3.5,1.7,4.8,4.6,5.1
	C541.7,274.3,544.6,273.8,543.5,269"/>
<path d="M390.8,290.8c-2.5,0.2-4.6,0.2-6.8,0.2c-6.4-0.2-7.7-1.8-8.1-7.9c-0.4-8.2-1.4-16.2-1.8-24.4c-0.1-1.9,0.4-4.4,1.7-5.6
	c0.8-0.8,3.5,0.1,5.3,0.5c8.1,1.6,13.9,6.6,18.3,13.3C405.3,276,401.6,287.2,390.8,290.8 M395.5,281c0.5-2.1,1.5-4.3,1.4-6.3
	c-0.3-5.1-8.9-14.1-13.8-14.6c-0.9-0.1-3,1.4-3,2.1c0.1,6.5,0.5,13,1,19.5c0.1,1.4,0.5,3.5,1.5,4.2C385.3,287.8,392.7,285,395.5,281
	"/>
<path d="M432,177c6,0,11.6-0.1,17.1,0.1c1,0.1,1.9,1.6,2.9,2.4c-1.1,0.8-2.2,2.2-3.4,2.4c-2.1,0.4-4.3,0.2-6.5,0.1
	c-3.8-0.2-5.1,1.6-5.2,5.3c-0.1,10-0.5,20-1,30c0,1.5-0.3,3.4-1.3,4.4c-1,0.9-2.9,1.1-4.4,1.1c-0.4,0.1-1.2-1.9-1.1-2.9
	c0.2-10.6,0.5-21.3,0.9-32c0.3-4.5-1.6-6.3-6-5.9c-2,0.1-4,0.1-5.8-0.5c-1.3-0.4-2.2-1.9-3.2-3c1.3-0.8,2.6-2.4,3.9-2.4
	C423.1,176.1,427.3,176.7,432,177"/>
<path d="M820,136c-1.3-9.3-2.6-18.1-4-26.8c-0.9-5.1-0.2-6.3,5.1-6.2c4.9,0.2,9.7,0.5,14.6,1.1c1.1,0.1,2.2,1.6,3.3,2.4
	c-1.7,1-3.2,2.3-5,3c-1,0.4-2.4-0.5-3.7-0.5c-3,0.1-6.6-0.6-6.3,4.5c0.2,5,1.5,6.3,6.5,6.5c2.4,0.1,4.7,0.5,7.1,1.1
	c0.9,0.2,1.6,1.2,2.4,1.8c-0.8,0.7-1.5,1.7-2.4,1.9c-2.6,0.6-5.3,0.8-8,1.2c-1.2,0.2-2.4,0.8-3.6,1.2c0.7,1.8,1,4.5,2.4,5.4
	c1.8,1.1,4.5,0.9,6.8,1.4c1.3,0.4,2.5,1.1,3.8,1.6c-0.9,0.9-1.7,2.1-2.9,2.7C832.3,140.2,822.7,139,820,136"/>
<path d="M342,283c0,0.8,0.1,1.2,0,1.5c-0.5,1.8-0.8,3.7-1.5,5.3c-0.2,0.4-3.1,0.2-3.1-0.1c-0.4-2-0.7-4.1-0.5-6.1
	c0.6-6.2,1.1-12.4,2.2-18.5c0.7-3.6,1.7-7.6,3.9-10.3c5.1-6.2,11.1-5,12.8,2.7c2,8.5,2.9,17.2,4.2,25.8c0.1,0.6,0.3,1.5,0,1.9
	c-1.4,2-2.9,3.9-4.3,5.8c-0.3-1.9-0.7-3.8-0.9-5.7c-0.3-2.8-0.4-5.6-0.9-8.3c-0.1-0.7-1.2-1.9-1.8-1.9c-2.9,0.1-6.1,0-8.6,1.3
	C342.3,277,342.5,280.4,342,283 M347.5,270c1.8-0.6,5.3-1.4,5.3-1.7c-0.7-3.7-1.8-7.4-2.9-11.1c-0.1-0.4-1.4-0.9-1.8-0.7
	C344.7,258.7,343.7,267.1,347.5,270"/>
<path d="M712.8,221.3c-6-0.7-6.5-1.3-7.4-10.2c-0.8-8.6-1.6-17.3-2.4-26c-0.3-3.6,2.2-5.5,6.3-5.1c3.4,0.3,6.8,0.4,10.1,1.1
	c1.7,0.4,3.1,2.2,4.6,3.3c-1.4,0.9-2.8,1.9-4.3,2.5c-1,0.4-2.3,0-3.5,0.1c-2.2,0.2-5.3-1-5.2,3.1c0.1,3.5,0,7,5.1,7
	c2.5-0.1,5.2,0.3,7.6,1c1.3,0.4,2.2,2,3.3,3.1c-1.2,0.6-2.3,1.5-3.5,1.7c-1.8,0.3-3.8-0.3-5.5,0.2c-2.2,0.6-6.3-2.7-6.1,3.2
	c0.2,8.5,0.7,9.4,6.9,9.8c1.4,0,2.7,1,4.1,1.5c-1.3,1.1-2.5,2.7-4.1,3.3C717.1,221.5,715,221.3,712.8,221.3"/>
<path d="M283.3,101.8c1.7,6.2,3.4,12.2,4.6,18.4c0.4,2.2-0.3,4.7-1,7c-0.3,0.8-2.1,1.8-3,1.6c-0.8-0.1-1.5-1.7-1.8-2.8
	c-0.6-2-1.1-4.1-1-6.1c0.2-3.5-1.6-3.8-4.5-4c-4.2-0.3-6.3,0.8-5.7,5.4c0.4,2.3,0.6,4.9-0.1,7c-0.5,1.5-2.6,2.5-4.1,3.7
	c-0.5-1.2-1.6-2.4-1.6-3.6c0.2-8.2,0.6-16.4,0.9-24.5c0.2-4.9,3.1-8,7.4-8.7C278,94.4,281.3,97.1,283.3,101.8 M279,108.5
	c-0.6-1.9-1-3.9-1.8-5.7c-0.4-0.8-1.4-1.7-2.2-1.7c-0.9,0-2.6,0.6-2.8,1.3c-0.7,2.3-0.8,4.7-1.2,7c1.7,0.2,3.5,0.5,5.2,0.6
	C277.1,110,278.1,109.7,279,108.5"/>
<path d="M292,209c-1.3-11.1-2.6-21.7-4-32.3c-0.7-4.9,1.2-7,6.3-6.7c4.7,0.3,9.4,0.5,14.1,1.1c1.6,0.2,3.1,1.4,4.6,2.1
	c-1.4,1-2.7,2.5-4.1,2.7c-4,0.5-7.9,0.4-11.9,0.6c-0.3,0-0.9-0.1-1,0.1c-2.4,3.6,1.1,10.9,5.5,11.4c1.7,0.2,3.4-0.2,5,0.1
	c0.6,0.1,1.4,1.1,1.4,1.7c0,0.7-0.5,1.9-1,2.1c-1.8,0.6-3.8,1.2-5.6,1c-5.7-0.7-4.6,2.7-3.9,5.9c0.5,3,1.4,5.9,1.5,8.9
	c0,1.7-1.3,3.5-1.9,5.3C295.3,211.8,293.7,210.7,292,209"/>
<path d="M403.8,181.3c7,9.7,4.5,19-1,27.8c-1.4,2.3-5,4.3-7.6,4.3c-3.4,0-6.6-1.6-8.4-5.8c-3.6-8.7-3.2-16.7,1.2-24.7
	C390.7,178,397.3,177.3,403.8,181.3 M401,194.5c-0.3-2.2-0.3-4.5-1.1-6.5c-0.6-1.5-2.3-3.8-3.3-3.7c-1.6,0.1-3.7,1.7-4.4,3.2
	c-2.6,5.9-1.8,12.1,0,18c0.9,3.3,4.1,3.4,5.7,0.1C399.4,202.5,400,198.9,401,194.5"/>
<path d="M220.3,209.3c-4-0.2-7.7-0.4-11.4-1c-0.7-0.1-1.8-1.3-1.8-2c-0.8-10.2-1.4-20.4-2.1-30.6c-0.3-4.3,1.2-6.3,5.7-5.7
	c4,0.5,8.1,0.5,12,1.2c1,0.1,1.6,2.2,2.3,3.4c-1,0.5-1.9,1.1-2.9,1.4c-1,0.2-2,0-3,0c-7,0-8.1,2.1-6.3,9c0.9,3.6,3,1.4,4.4,2
	c1.6,0.6,3.2,1.1,4.8,1.6c-1.3,0.9-2.4,2.1-3.8,2.7c-3.6,1.4-6.3,8.5-3.8,11.3c1.1,1.3,3.9,0.8,5.8,1.5c1.4,0.5,2.6,1.7,3.8,2.5
	C222.8,207.4,221.7,208.2,220.3,209.3"/>
<path d="M627.3,192.3c3-3.7,4.9-8.2,10.2-8.3c5.8,0,10.7,0.1,12.3,11.8c1,7.5-0.9,15.2-6.3,21.1c-4.7,5.1-10.9,3.8-14.6-2.1
	C624.4,207.6,625.8,200.1,627.3,192.3 M632,195.5c0,4.9-0.3,9.8,0.2,14.6c0.2,1.4,2.7,3.3,4.4,3.7c1.2,0.2,3.8-1.5,4.2-2.8
	c1.5-4.3,2.3-8.7,3.2-13.1c0.8-4.2-1-7.3-5-8.2C635.1,188.7,633.6,191.9,632,195.5"/>
<path d="M236.8,281.8c-0.1-8-0.5-15.6-0.8-23.3c-0.1-3.9-2.3-4.4-5.5-4.6c-2.2-0.1-5.8,1.8-6.2-2.3c0-0.6,4.1-2.3,6.4-2.5
	c5.3-0.4,10.6-0.2,15.9,0c1.2,0,2.3,1.2,3.4,1.9c-0.9,0.7-1.7,1.6-2.7,2.2c-1,0.4-2.2,0.3-3.1,0.9c-1.2,0.6-3.1,1.8-3.1,2.6
	c0.5,7.2,1.5,14.4,1.8,21.7c0.1,2.8,1.3,2.7,3.2,2.6c2.4-0.1,4.7-0.2,7,0.1c0.9,0.1,1.7,1.3,2.5,2c-0.6,0.7-1.2,1.7-2,1.8
	c-4.7,0.8-9.5,1.6-14.3,2c-3.8,0.4-7.7,0.3-11.6,0c-0.9-0.1-1.8-1.7-2.7-2.6c1-0.7,2-2.1,3-2.2C230.8,281.8,233.7,282,236.8,281.8"
	/>
<path d="M676,269c0.3-4.1-4.5-6.6-2.1-10.9c3-5.1,6.6-0.3,9.9-1c1.9-0.4,4.1,0.4,6,1c0.9,0.2,2.1,1.4,2,2c-0.1,1-1.1,2-2,2.5
	c-0.9,0.5-2.2,0.1-3.3,0.4c-1.5,0.5-4.1,0.9-4.3,1.9c-0.8,2.8-0.2,5.4,3.5,6.2c1.9,0.4,3.6,1.7,5.3,2.5c-1.6,0.9-3.1,2.1-4.9,2.7
	c-2.9,1-3.5,3-3.1,5.7c0.6,3.7,1,7.5,6,8c1.4,0.2,2.7,0.9,4,1.3c-1.2,1.2-2.3,3.1-3.8,3.6c-7,2.4-10.9,1.1-12.1-7.3
	C676.3,281.6,676.3,275.5,676,269"/>
<path d="M496.3,176.3c0.6-0.6,0.9-1.3,1.3-1.3c8.6,0.3,17.3,0.6,25.9,1.1c1.2,0,2.7,0.6,3.3,1.4c0.8,1,0.8,2.6,1.2,4
	c-1.2,0.1-2.5,0.4-3.7,0.3c-1.4-0.1-2.8-0.5-4.2-0.8c-2.5-0.5-3.2,0.6-3.2,3.1c0.2,9.2,0.1,18.4,0.1,27.5c0,2.6,0.5,5.4-3.5,5.4
	c-4.1,0-3.6-2.9-3.5-5.4c0.3-6.2,0.8-12.4,0.9-18.6c0.1-3.5-0.3-7.1-1.1-10.5c-0.2-1.1-2.3-2.1-3.8-2.4c-3.1-0.6-6.3-0.7-9.5-1.2
	C496.2,178.8,496.2,177.3,496.3,176.3"/>
<path d="M767,289c0.5-8.5,5.7-14.1,9.8-20.4c1.3-2.2,1.6-5,2.2-7.6c0.7-3.1-1.4-3.9-3.8-4c-3-0.1-6.1,0.2-9-0.1
	c-1.2-0.2-2.6-1.5-3-2.7c-0.3-0.6,1.3-2.7,2-2.7c5-0.1,10.2-0.6,14.9,0.7c5.2,1.5,7.3,6.8,4.9,12.1c-2.5,5.6-6.3,10.7-8.9,16.3
	c-1.4,3-1.7,6.7-2,10.1c-0.2,2.5-0.2,5.3-3.1,5c-1.5-0.1-2.7-3-4-4.7C766.8,290.6,767,290,767,289"/>
<path d="M716,102c1.2,0.3,2,0.5,2.6,1c0.9,0.9,1.6,2,2.4,3c-0.9,0.6-2,2-2.8,1.9c-6.2-0.9-6.5,2.8-6.2,7.3c0.4,6,0.7,12,1,18
	c0,1.2,0.3,2.6-0.2,3.4c-1.5,2-3.4,3.6-5.2,5.4c-0.5-2.1-1.5-4.1-1.5-6.2c-0.2-7-0.1-14-0.1-21c0-4.4-0.7-8.1-6.6-8
	c-1.5,0-2.9-2.2-4.4-3.4c1.6-0.8,3.3-2.3,4.9-2.3C705.1,101.1,710.3,101.7,716,102"/>
<path d="M633.8,116.3c2,0.4,3.8,0.2,5.4,0.8c1.4,0.4,2.5,1.7,3.6,2.6c-1.1,0.7-2.2,2-3.5,2.2c-7.2,1.3-7.1,1.2-7.3,8.7
	c-0.1,2-0.4,4.2-1.2,6c-0.5,1-2.2,1.5-3.4,2.3c-0.5-1.1-1.3-2.2-1.3-3.4c-0.2-3.6,0-7.3-0.1-11c-0.3-6.1-0.5-12.3-1.1-18.5
	c-0.2-2.9,1.1-3.3,3.4-3c5.2,0.7,10.4,1.2,15.6,2.1c1.4,0.2,2.7,1.5,4,2.3c-1.4,0.9-2.7,2.2-4.2,2.5c-2.4,0.4-5,0-7.5,0.2
	c-1.3,0.1-3.7,0.6-3.7,1.2C632.3,112.8,633.1,114.4,633.8,116.3"/>
<path d="M312.3,102.3c0,8.6,0.4,16.9,0.6,25.3c0.1,1.3-0.3,2.9-1.1,3.9c-0.7,0.9-2.2,1.4-3.3,1.3c-0.6,0-1.4-1.7-1.4-2.7
	c-0.5-6.7-0.9-13.4-1.1-20.1c-0.1-9.2,0-9.1-8.5-11.1c-1.3-0.3-2.3-1.5-3.5-2.3c1.3-0.9,2.5-2.4,3.8-2.5c2.6-0.1,5.3,0.9,8,0.8
	c4.1,0,8.1-0.8,12.1-0.8c1.7,0.1,3.3,1.5,5,2.3c-1.6,0.9-3.1,1.7-4.7,2.6C316.3,100,314.4,101,312.3,102.3"/>
<path d="M585,277c2,0.3,3.5,0.5,5,0.8c-0.9,1.1-1.8,2.2-2.6,3.3c-1.2,1.5-2.7,2.9-3.3,4.6c-1.8,5.2-5.2,7.1-10.4,6.3
	c-4.7-0.8-7-4.9-7.4-8.5c-0.8-7-1.3-14.2,2.7-20.7c2.8-4.5,9-5.2,12-1.1c0.5,0.6-0.3,3.1-0.6,3.2c-2.7,0.1-6.3-0.6-7.2,2.7
	c-1.2,4.3-1.6,8.9-1.5,13.4c0,1.8,1.9,3.7,3.3,5.4c0.5,0.5,2.3,0.5,2.9,0c0.7-0.5,1.2-2,1-2.9C577.7,277,577.6,277,585,277"/>
<path d="M469,104c0,9.1-0.2,17.7,0.2,26.2c0.1,1,3.2,1.9,4.9,2.8c0.9,0.4,1.9,0.6,2.9,0.9c-0.6,1.1-0.9,2.9-1.7,3.1
	c-3.2,1-6.6,2.3-9.6,1.6c-1.6-0.3-3.4-4.2-3.5-6.5c-0.4-10-0.3-19.9-0.1-29.9c0-1.1,1.5-2.7,2.6-3.1c1.5-0.5,3.8-0.9,3.4,2.3
	C468,102.1,468.7,102.8,469,104"/>
<path d="M438.3,131.8c-1-9.3-1.8-18.3-2.2-27.4c0-1.7-2.2-4.8,1.7-5.4c4.2-0.6,4.9,2.3,5.1,5.3c0.5,7.2,0.9,14.4,1.1,21.7
	c0,2.9,0.6,4.1,3.9,3.1c1.1-0.3,2.7,1.1,4.1,1.7c-0.6,1.2-1,2.8-2,3.6C446,137.5,440.9,136.3,438.3,131.8"/>
<path d="M273,183c0-3.2,0-5.9,0.2-8.6c0.1-0.2,2.8-0.7,3.1-0.3c1.4,2.1,3.4,4.5,3.5,6.8c0.4,9.3,0.4,18.6,0,27.9
	c0,1.4-2.2,2.7-3.4,4.1c-0.8-1.3-2.2-2.6-2.3-4C273.6,200.5,273.3,192,273,183"/>
<path d="M604,264c0-2.5-0.3-4.6,0.1-6.4c0.3-1.1,1.7-2,2.8-2.5c0.3-0.1,2,1.3,2,2c0.2,4.4,0,8.8,0.1,13.1c0.3,8.4,0.8,16.7,0.8,25
	c0,1.5-2,3.1-3.1,4.6c-0.5-1.5-1.6-2.9-1.6-4.3C604.6,285.1,604.3,274.8,604,264"/>
<path d="M450,261c-0.3-2-1-3.6-0.9-5.1c0.1-1,1.1-2.6,1.9-2.7c0.8-0.2,2.6,0.8,2.9,1.7c0.9,2.9,1.8,6,2,9.1c0.6,6.6,1.1,13.3,1,20
	c-0.1,3.5-1.7,6.9-2.8,10.3c-0.2,0.6-1.3,0.9-2,1.3c-0.4-0.9-1-1.7-1.1-2.6c-0.1-2.3,0.1-4.6,0-7C450.7,277.9,450.3,269.7,450,261"
	/>
<path d="M414,100c3.3-2.6,6.6-0.9,6.9,3.4c0.6,8.8,0.9,17.6,1,26.4c0,1.1-2,2.1-3,3.2c-1-1-2.7-1.9-2.8-3
	C415.3,120.2,414.7,110.3,414,100"/>
<path d="M768.3,305.3c0.7-0.3,1.2-0.2,1.7-0.3c2.6-0.3,5.3,0.2,4.7,3.2c-0.2,1.5-3,3.4-4.9,3.6c-3.6,0.6-2.7-2.6-2.7-4.7
	C767,306.5,767.7,306,768.3,305.3"/>
<path d="M742.8,983.8c5.4-9.9,11.4-19,20-26c7.5-6.2,15.3-11.9,23.1-17.8c0.6-0.4,1.3-0.9,2-0.9c1.7-0.1,3.3,0.1,4.9,0.2
	c-1,1.2-2,2.5-3.2,3.5c-6.9,5.7-13.7,11.5-20.9,16.9c-13.8,10.4-20.6,25.6-28.7,40c-3.5,6.2-6.7,12.5-10,18.8
	c-0.3,0.6-0.9,1-1.3,1.5c-0.2-0.7-0.8-1.5-0.6-2.1c0.9-4.2,1.5-8.7,3.2-12.6C734.7,998,738.7,991.1,742.8,983.8"/>
<path d="M861.3,912.3c10.7-1.3,21.3-2.6,31.8-3.2c3.5-0.2,7.1,1.2,10.5,2.2c1,0.3,1.6,1.8,2.4,2.8c-1.1,0.3-2.3,0.9-3.4,0.8
	c-4.8-0.2-9.7-1-14.5-0.8c-8.5,0.3-17.1,1.3-25.6,1.8c-1.1,0.1-2.3-0.8-3.4-1.3C859.7,913.9,860.4,913.2,861.3,912.3"/>
<path d="M748.8,685.8c4.6-2.4,9-4.6,13.6-6.5c1-0.5,2.4,0.1,3.6,0.2c-0.7,1.1-1.2,2.4-2.1,3c-9.6,6.1-19.3,12.1-28.9,18
	c-1.1,0.6-2.3,1.5-3.4,1.4c-1.9-0.2-3.7-1.1-5.6-1.7c1.2-1.1,2.2-2.4,3.6-3.2C735.9,693.2,742.2,689.6,748.8,685.8"/>
<path d="M660.3,524.8c0.7,1.8,1.5,3.4,1.6,5c0,1.1-1,2.1-1.6,3.2c-0.8-0.7-1.6-1.3-2.3-2c-2.1-2-4.4-3.8-6.1-6.1
	c-1.4-1.8-1.9-4.3-2.8-6.5c2.1,0.2,4.6-0.2,6.2,0.8C657.3,520.3,658.5,522.7,660.3,524.8"/>
<path d="M747,501c1.5-0.4,2.6-0.6,3.5-1.1s1.7-1.2,2.5-1.9c-0.7-0.3-1.8-0.5-2.2-1c-1.7-2.2-3.5-4.5-4.7-6.9
	c-0.4-0.9,0.5-3.5,1.3-3.7c1.5-0.4,3.8-0.4,4.9,0.6c12.4,11,23.2,23.3,27.1,40c0.5,2.3-0.2,5.6-1.6,7.3c-2.2,2.7-3.2-0.7-3.7-2
	c-2.6-5.7-4.6-11.7-7.1-17.5c-2.3-5-3-4.9-7.1-1.3c-3.8,3.3-5.4,6.1-0.5,9.6c0.7,0.5,0.7,2,1,3c-1.2,0.1-2.6,0.8-3.4,0.3
	c-7.5-4.7-16.8-6.9-21.4-15.5c-1.1-2.1-1.1-4.8-1.6-7.3c2,0,4,0.2,6-0.2C742.2,502.9,744.3,501.8,747,501"/>
<path d="M817.8,664.8c-1.4,0.1-2.6-0.1-3.7-0.2c0.5-2.2,0.8-4.5,1.6-6.6c0.2-0.5,2.1-0.4,3.2-0.6c0.1,0.7,0.2,1.4,0.1,2.1
	C818.7,661.2,818.3,662.8,817.8,664.8"/>
<path d="M570.1,213.2c-1.3-10.4-2.6-20.2-4-30c-0.9-5.7-0.2-7,5.1-6.9c4.9,0.2,9.6,0.6,14.5,1.2c1.1,0.1,2.2,1.8,3.3,2.7
	c-1.7,1.1-3.2,2.6-5,3.4c-1,0.4-2.4-0.6-3.7-0.6c-3,0.1-6.5-0.7-6.2,5c0.2,5.6,1.5,7,6.4,7.3c2.4,0.1,4.7,0.6,7,1.2
	c0.9,0.2,1.6,1.3,2.4,2c-0.8,0.8-1.5,1.9-2.4,2.1c-2.6,0.7-5.3,0.9-7.9,1.3c-1.2,0.2-2.4,0.9-3.6,1.3c0.7,2,1,5,2.4,6
	c1.8,1.2,4.5,1,6.7,1.6c1.3,0.4,2.5,1.2,3.8,1.8c-0.9,1-1.7,2.3-2.9,3C582.2,217.9,572.7,216.6,570.1,213.2"/>
<path d="M585.2,132.3c-6.6,1.6-8.5,0.1-7-6.6c1.1-5.3-0.3-8.6-4.1-12c-2.7-2.3-5-5.3-6.9-8.3c-0.9-1.3-0.2-3.7-0.3-5.6
	c1.7,0.6,3.5,0.8,4.9,1.7c1.6,0.9,2.8,2.5,4,3.8c2.9,3.6,5.3,3.4,7.3-0.8c0.3-0.6,0.4-1,0.8-1.5c1.3-1.5,2.7-2.9,4.1-4.4
	c0.6,2.5,2.5,5.8,1.5,7.3C583.8,114.1,585.5,123,585.2,132.3"/>
</svg>
