<?xml version="1.0" encoding="utf-8"?>
<!-- Generator: Adobe Illustrator 23.1.0, SVG Export Plug-In . SVG Version: 6.00 Build 0)  -->
<svg version="1.1" id="Contours" xmlns="http://www.w3.org/2000/svg" xmlns:xlink="http://www.w3.org/1999/xlink" x="0px" y="0px"
	 viewBox="0 0 1067.7 811.7" style="enable-background:new 0 0 1067.7 811.7;" xml:space="preserve">
<desc  xmlns:shape="http://adobe.com/products/shape"></desc>
<path d="M1034.1,662c0,8.5,0.1,16.5-0.1,24.5c-0.2,17.7-0.8,35.4-0.9,53.1c0,12.9,0.8,25.7,0.9,38.6c0,3.7-1.8,7.5-1.7,11.2
	c0.2,5.4-3.2,4.9-6.4,4.6c-5.3-0.5-10.5-1.5-15.7-1.9c-9.6-0.8-19.1-1.4-28.7-2.1c-14.9-1-29.8-1.9-44.7-3c-7.9-0.6-15.8-1.3-23.7-2
	c-13.1-1-26.2-2-39.3-3c-10.7-0.7-21.4-1.3-32.1-2c-15.1-1-30.2-1.9-45.3-3c-7.2-0.5-14.4-1.7-21.7-1.9c-32.7-0.8-65.4-1.6-98.1-2
	c-35.8-0.6-71.5-0.8-107.3-1c-7.1-0.1-14.3,0.7-21.4,0.9c-9.1,0.1-18.1-0.1-27.2,0.1c-11.1,0.2-22.1,0.6-33.2,0.9
	c-10.3,0.3-20.5,1-30.8,0.9c-13.8,0-27.7-0.8-41.6-0.8c-16.7,0-33.4,0.7-50.1,0.9c-15.8,0.2-31.7,0.3-47.6-0.1
	c-16.4-0.3-32.8-1.2-49.2-1.9c-15.4-0.6-30.8-1.4-46.2-2c-12.5-0.4-25.1,0.2-37.5-1.2c-17.9-2-35.8-2.8-53.8-2.9
	c-12.7-0.1-25.4-1.2-38.2-1.9c-11.7-0.6-23.4-1.2-35.1-2c-13.1-0.9-26.2-1.9-39.3-3c-3.9-0.4-7.8-1.7-11.7-1.9
	c-2.6-0.1-2.4-1.3-2.3-3c0.3-10.6,0.8-21.3,0.9-31.9c0.2-18.6,0.1-37.3,0.1-55.9c0-39.8-0.1-79.6,0-119.5c0-9.2,0.6-18.4,1-27.5
	c0.3-8.2,0.8-16.4,0.9-24.6c0.4-38.2,0.8-76.4,1-114.6c0.1-12.2-0.6-24.4-0.9-36.6c-0.4-11.9-0.6-23.8-1.1-35.7
	c-0.5-15.9-1.3-31.8-1.9-47.7c-0.3-6.9-0.7-13.7-1-20.6c-0.4-9.7-0.6-19.4-1.1-29.1c-0.4-8.3-1.4-16.5-1.9-24.8
	C0,184.1,1,181.5,1,179c-0.2-24-0.8-48.1-0.9-72.1c0-11.5,0.6-23.1,1-34.6c0.3-8.3,0.6-16.7,1-25.1C2.3,41.5,3,35.7,3,30
	c0-5.9-0.5-11.9-0.9-17.8C1.7,7.3,2.5,4.8,8.3,4.9C21.2,5.2,34,5,46.8,5c6.5,0,12.9,0.2,19.4,0C83,4.4,99.8,4.6,116.5,2.8
	c25.6-2.8,51.1-1.4,76.7-1.7c22-0.3,44-0.2,66,0c11.5,0,23,0.6,34.6,0.9c26.3,0.7,52.7,1.6,79.1,2C394,4.3,415,3.9,436.1,4.1
	C457.6,4.2,479,4.7,500.5,5c6.4,0.1,12.8,0,19.2,0c33.3,0.3,66.7,0.5,100.1,1.1c15.4,0.2,30.7,1.3,46.1,1.9
	c12.6,0.5,25.1,0.9,37.6,1c8.5,0,17-1.1,25.4-0.9c24.6,0.4,49.2,1.6,73.7,1.8c21.7,0.2,43.4-0.8,65.1-0.8
	c32.4,0.1,64.7,0.5,97.1,0.9c16.7,0.3,33.4,1,50.1,0.9c10.1,0,20.2-1.1,30.3-1.9c5.6-0.5,7.1,1.6,6.9,6.6c-0.5,14.2-0.7,28.4-1,42.6
	c-0.4,16-0.7,32.1-1,48.1c-0.4,16.3-0.7,32.5-1,48.8c-0.1,3.3,0,6.7,0,10.1c-0.4,23.9-0.5,47.9-1.1,71.8
	c-0.4,19.4-1.3,38.9-1.9,58.3c-0.4,12.5-0.7,25.1-1,37.6c-0.3,10.3-0.7,20.5-1,30.8c-0.3,8.8-0.7,17.7-1,26.5
	c-0.7,14.6-1.4,29.2-2,43.7c-0.4,7.2-0.7,14.4-1,21.6c-0.7,17.7-1.4,35.5-2,53.2c-0.4,9.2-0.7,18.4-1,27.6
	c-0.7,16.2-1.6,32.4-2,48.6C1034.6,610.5,1034.4,636,1034.1,662 M561.6,765c32.9,0.4,65.8,0.7,98.7,1c29,0.3,58.1,0.6,87.1,1.1
	c5.9,0,11.7,0.5,17.6,0.9c13.9,1,27.8,2.1,41.7,3c10.9,0.7,21.8,1.3,32.7,2c10.1,0.7,20.1,1.3,30.2,2c16.1,1.3,32.3,2.8,48.5,4
	c13,0.9,26.1,1.3,39.1,2c6.1,0.3,12.1,0.7,18.1,1c4.4,0.3,8.8,0.7,13.1,1c11.4,1,22.8,2.1,34.3,2.9c1.4,0.1,4.1-1.8,4.2-3
	c0.7-6.9,1.2-13.9,1.1-20.9c-0.2-6.4-1.9-12.7-1.8-19.1c0.1-34.1,0.6-68.2,0.9-102.3c0-8.6-0.2-17.2,0-25.8
	c0.5-19.8,1.3-39.5,2-59.2c1-27.7,2-55.4,3-83.1c0.2-7.2,0.7-14.4,1-21.6c0.6-16,1.3-32.1,2-48.2c0.4-10.7,0.7-21.5,1-32.2
	c0.3-12.9,0.6-25.7,1-38.6c0.3-11.5,0.6-22.9,1-34.4c0.3-10.2,0.6-20.4,1-30.6c0.3-8.9,0.7-17.7,1-26.6c0.3-15,0.7-30,0.9-45.1
	c0.5-29.6,0.6-59.3,1.1-89c0.4-21.8,1.4-43.5,1.9-65.2c0.1-6.3-1-12.7-0.8-19.1c0.2-4.7-1.9-5.1-5.6-4.9c-8.5,0.4-17.1,1-25.6,1
	c-17.4-0.2-34.7-0.7-52.1-1C933,16.6,906,16.2,879,16.1c-23.9-0.2-47.7-0.1-71.6,0.1c-16.6,0.1-33.2,0.9-49.8,0.7
	c-11.2-0.1-22.5-1.5-33.7-1.8c-8.6-0.2-17.2,0.9-25.8,0.8c-11.5,0-23-0.5-34.5-0.9c-8.9-0.3-17.8-0.6-26.6-1c-9-0.3-18-0.8-26.9-0.9
	c-26.2-0.5-52.3-0.9-78.5-1c-22.3-0.2-44.5,0-66.8-0.1c-14.5-0.1-29.1-0.7-43.6-0.9c-11.1-0.2-22.2,0.1-33.3-0.1
	c-34.8-0.6-69.6-1.3-104.4-2c-19.1-0.3-38.1-0.8-57.2-0.9C216.2,8,206.1,9,196,8.9c-14,0-28-0.9-42.1-0.8
	C138,8.3,122.2,9.4,106.3,10c-4.4,0.2-8.7-0.2-13,0.1C79.1,11,65,12.6,50.8,12.8c-12.3,0.2-24.6-1-37-1.8c-3.6-0.3-5.1,0.8-4.8,4.6
	c0.5,6.6,1,13.1,1,19.6c-0.1,9.1-0.7,18.2-0.9,27.3C8.9,72.1,9.3,81.7,9,91.3c-0.3,8.4-1.7,16.8-1.8,25.2C7,125.7,7.8,135,8,144.2
	c0.5,18.6,0.6,37.1,1.1,55.6c0.4,14.4,1.4,28.8,1.9,43.2c0.5,11.2,0.8,22.4,1.1,33.6c0.3,12.8,0.6,25.7,1,38.5
	c0.3,13.5,0.6,26.9,1,40.3c0.3,10.2,0.9,20.4,0.9,30.6c-0.1,14.5-0.7,29-0.9,43.6c-0.6,34,1.3,68.1-1.9,102.1
	c-1,10.7-1.1,21.4-1.1,32.1c0.1,19.9,0.9,39.7,0.9,59.6c-0.1,30-0.6,60-0.9,90.1c-0.1,11,0.1,22-0.1,32.9c-0.1,4.3,2.3,5.9,5.6,6.5
	c3.6,0.7,7.3,0.8,11,1.1c9.3,0.7,18.5,1.4,27.7,2c12.2,0.7,24.4,1.3,36.7,2c11.7,0.7,23.4,1.4,35.1,2c18.5,1,37,2.2,55.5,3
	c15.1,0.6,30.3,0.7,45.5,1c4,0.1,7.9-0.2,11.9,0.1c20.5,1.2,41,3.5,61.5,3.7c40.3,0.4,80.7-0.6,121.1-0.7c14.5-0.1,29,0.7,43.5,0.9
	c6,0,12-0.7,18-1c8.8-0.4,17.7-0.7,26.5-1C527.3,765.6,543.9,765.4,561.6,765"/>
<path d="M274.8,485.8c8.3-1.4,16.3-3.3,24.3-3.6c7.2-0.2,14.4,1.1,20.6,5.8c4.4,3.3,7.6-1.7,9.1-3.9c4.4-6.9,10.6-11.7,17-16
	c9.2-6.2,16-15.1,25.1-21.4c4.6-3.2,9.5-6.1,13.8-9.8c1.8-1.6,3.3-4.8,3.2-7.1c-0.5-6.5-1.8-12.9-2.9-19.3c-0.2-1.1-0.9-2.2-1.3-3.4
	c-0.8,0.8-1.9,1.4-2.4,2.3c-8.4,14-19.4,23.9-36.6,25.8c-11.3,1.2-21.3,0.1-30.4-7.1c-6.4-5.2-8.5-12.1-9.2-19.7
	c-1-10.8-0.6-21.3,2.9-31.7c0.4-1.3-0.3-3.1-0.5-4.7c-1.1,1.2-2.7,2.2-3.4,3.6c-7.5,15.7-21.1,24.9-36.3,31.2
	c-17.6,7.4-35.7,5.9-52.8-2.8c-17.6-9-30.6-22.3-36-41.9c-0.2-0.8-1.1-1.4-1.7-2.1c-0.8,0.9-2.1,1.8-2.1,2.7
	c-0.2,9.3-4.3,17.2-8.5,25.1c-3.9,7.4-7.8,14.9-12.8,21.6c-7.8,10.4-16,20.7-25.1,30.1c-7.6,7.8-16.5,14.7-27.8,17.1
	c-1.4,0.3-2.9,0.4-4.3,0.4c-6.3,0.1-6.7,0.3-3.5,5.3c4.5,7.4,7.8,15.4,7.5,23.8c-0.2,6.9-2.3,14.2-5.1,20.7
	c-6.6,15-17.4,26.8-30.8,36.1c-1,0.6-1.8,1.5-2.7,2.2c1.3,0.3,2.6,0.9,3.9,0.9c3.5-0.2,7-0.8,10.6-0.9c11.3-0.5,22.5,0.7,33.3,4
	c8.3,2.6,17.9,13,18.5,22.7c0.8,14.5-8.1,21.6-18.3,28.1c-5,3.2-10.8,5.2-16.2,7.9c-1.1,0.5-1.9,1.8-2.8,2.7
	c1.1-0.1,2.2-0.3,3.4-0.4c11.1-1,22.4-3.1,32.6,3.5c2.9,2,5.9,4.3,7.9,7.2c4.6,6.7,4.2,6,12.2,4.9c8.4-1.1,17.2-0.4,25.8-0.2
	c4.3,0.1,8.5,1.1,12.8,1.5c7.2,0.7,14.5,1.3,21.7,2.1c0.6,0.1,1.5,1.1,1.5,1.6c-0.2,1.2-0.7,2.8-1.5,3.2c-1.7,0.8-3.7,1.2-5.5,1
	c-8.4-0.8-16.9-1.8-25.3-2.9c-4.7-0.6-9.5-2-14.1-1.8c-7,0.3-14,1.6-20.9,2.7c-13.8,2.3-27.6,4.8-41.5,7.1c-2.5,0.4-5.1,0.2-7.7-0.1
	c-0.9-0.1-2.2-1.5-2.3-2.3c0-0.8,1.2-2.2,2.2-2.5c6.3-2.1,12.6-4.1,19-6.1c4.7-1.4,9.6-2.6,14.3-4c0.9-0.3,1.6-1,2.4-1.5
	c-0.6-0.6-1.2-1.1-1.8-1.7c-8.7-9.2-19.7-6.9-30.4-6.1c-3.6,0.3-7.3,1-10.9,1.3c-5,0.4-10.1,1-15.1,0.9c-1.9-0.1-3.7-2-5.6-3.1
	c1.5-1,2.8-2.3,4.4-2.8c13.8-4.6,27.5-9.6,39.4-18.1c5.2-3.8,10.3-8.1,12.1-15.2c3.1-12.6-4.4-21.2-13.9-24.5
	c-12.9-4.4-26.4-4.2-39.8-2.2c-5.2,0.8-10.4,1.6-15.7,1.9c-1.5,0.1-3.1-1.3-4.7-2c1-1.5,1.8-3.6,3.2-4.5
	c14.6-9.3,26.8-20.9,35.9-35.8c4.8-8.1,8.2-16.4,7.8-25.8c-0.5-11.8-5.1-22.1-12.7-31.2c-1.2-1.4-1.3-3.6-1.9-5.4
	c2.1-0.1,4.5-0.9,6.1-0.1c6.2,3.4,12.6,2.7,18.5,0.3c11.9-4.9,21.7-12.8,29.3-23.2c8.2-11.2,16.2-22.6,24-34
	c7.5-10.9,11.6-23.2,14.7-35.9c1.7-7.2,2.6-14.6,4.2-21.8c0.3-1.1,2.4-1.9,3.8-2.4c2.8-0.9,3.8,1.2,4,3.3c0.5,4.5,1.2,9,1,13.5
	c-0.5,12.1,5.4,21.6,12.1,30.5c8.5,11.3,19.8,18.6,33.5,22.7c15.9,4.9,30.3,2.6,44.7-5.6c18.7-10.6,28.8-27.2,35.4-46.6
	c0.7-2.1,1.3-4.3,1.3-6.5c-0.1-3.5,2.3-4,4.5-3.2c1.5,0.6,3.5,2.8,3.4,4.2c-0.4,6.2-1.1,12.5-2.3,18.5c-3,15.3-5.9,30.6-4.4,46.1
	c1,10.5,9.6,18.8,20.8,20.2c10.9,1.3,20.9-0.3,29.2-7.1c8.4-6.8,15.7-14.9,19.9-25.2c0.6-1.4,1.9-3,3.2-3.5c2.5-0.8,4.5-0.5,4.8,3.1
	c0.8,9.6,1.9,19.2,3,28.8c0.1,0.9,1,1.8,1.6,2.7c0.8-0.5,1.7-0.8,2.3-1.5c5.4-5.9,10.6-11.9,15.9-17.8c3.7-3.9,8.3-5.8,13.7-5.6
	c5.3,0.1,10.7,0.7,16.1,0.9c3.8,0.1,7.8,0.2,11.6-0.1c1.2-0.1,2.3-1.7,3.2-2.9c3.4-4.3,5.1-10.2,11.2-12.1c0.8-0.2,1.6-0.2,2.4-0.3
	c0,0.9,0.3,2-0.1,2.6c-2,3.4-4.3,6.6-6.5,9.9c-0.7,1-1.7,2-2,3.1c-0.4,1.1-0.1,2.5-0.1,3.7c1.2-0.4,2.8-0.4,3.4-1.2
	c4-5.5,7.7-11.2,11.8-16.6c3.3-4.4,6.2-9.8,10.7-12.3c4.9-2.6,7.3-6.5,9.6-10.6c7.6-13.3,14.4-27.1,22-40.4
	c5.9-10.1,5.6-20.1,1.9-30.5c-6.8-19.3-17.9-36.4-28.7-53.6c-6.4-9.9-7.7-26.4,2.8-35.3c7.7-6.7,13.6-15.5,21.1-22.6
	c8.3-7.8,16.6-15.8,27.7-19.9c4.2-1.5,8.9,0.9,10.4,5c3.2,8.9-0.9,16.2-4.9,23.6c-4.3,7.9-9.7,15.8-7.9,25.1
	c1.2,6.6,4.3,12.9,7,19.1c5.2,11.8,11.1,23.4,16.1,35.3c3.7,8.5,6.7,17.3,9.6,26c1.3,4,3.5,5.2,6.5,2.9c5.7-4.1,11.4-6.6,18.6-6
	c9.2,0.7,15.7,4.6,15.9,11.1c0.1,4.3-0.4,8.7-1.4,12.9c-1.7,6.5-4.2,12.9-6.2,19.4c-0.4,1.4,0.1,3.1,0.1,4.7c1.1-1,2.1-2.1,3.1-3
	c8-7.3,15.8-14.7,23.9-21.9c5.6-4.9,11.4-9.5,17.2-14.1c3.4-2.8,3.1-5.9,0.9-8.9c-3.2-4.2-6.9-8.1-10.1-12.3
	c-3.4-4.3-6.8-8.8-9.6-13.5c-4.6-7.9-9.3-15.8-13-24.1c-5.6-12.9-10.6-26.1-10.9-40.5c-0.1-7.5-1.4-15.1-0.8-22.6
	c1.4-15.3,3.3-30.6,10.7-44.5c4.4-8.2,7.5-17.3,13.1-24.5c7-9.1,15.5-17.4,24.5-24.6c8.8-7.1,18.9-12.8,28.8-18.4
	c11.1-6.2,23.2-10.1,35.6-13.1c6.3-1.5,12.5-4.1,18.9-4.8c9.6-1,19.4-1.5,29.1-1c13,0.7,26,1.6,38.5,5.7
	c17.5,5.7,33.5,14.1,47.1,26.3c10.6,9.5,21.6,19.1,30.1,30.4c11.9,15.8,19.3,34.2,22.6,54c1.7,10.1,2.1,20.1-0.3,29.9
	c-2.2,8.8-5.8,17.2-8.9,25.8c-0.3,1-0.9,2.6-1.5,2.7c-8.1,1.4-7.1,9.1-9.2,14.1c-6.9,16.3-13.4,32.9-24.7,46.7
	c-12.9,15.7-27,30.5-46.5,38.1c-13.1,5.1-26.4,9.7-39.7,14c-3.1,0.9-3.5,2.6-3.3,4.7c1.2,11.1,2.7,22.2,3.9,33.3
	c0.2,1.5-0.4,3.3,0.2,4.4c1,1.8,2.6,4.2,4.2,4.6c14.4,2.8,26,9.8,33.5,22.6c3.6,6.2,4,13.4,2.7,20.4c-1,5.3-2.6,10.4-3.4,15.6
	c-0.2,1.6,0.8,4.1,2,5c11.9,8.3,23.9,16.3,35.8,24.5c3.6,2.5,7,5.1,10.3,7.8c4.2,3.5,6.9,3.2,10-1.5c5.3-8,10.6-15.9,15.7-24
	c2-3.1,3.8-5.8,7.8-3c3.7,2.6,2.4,5.5,0.3,8.7c-8.8,14-17.2,28.2-26.2,42.1c-1.7,2.6-5.2,4.8-8.3,5.7c-3.6,1.1-5.7-2.2-3.9-5.8
	c1.1-2.2,2.6-4.3,4.2-6.2c2.4-3.1,1.6-5.6-1.2-7.6c-15.8-11.2-31.6-22.4-47.6-33.5c-2.7-2-5.4-1.7-8.3,0.9
	c-4.1,3.7-8.5,7.3-13.2,10.3c-9.5,6-20.2,7-30.4,2.9c-7.6-3.1-10.9,1.1-14.8,5.4c-5.6,6.4-11,13.1-16.6,19.6
	c-10,11.4-20.1,22.7-30,34.1c-1,1.2-1.1,3.1-1.6,4.7c1.8-0.2,3.9,0.2,5.3-0.7c13.3-8.3,26.4-16.9,39.5-25.3c0.3-0.2,0.5-0.5,0.8-0.6
	c2.4-0.6,4.7-1.1,7.1-1.7c-1.4,1.9-2.4,4.3-4.2,5.5c-13.3,8.9-26.8,17.4-40.1,26.3c-3.5,2.3-6.9,2.4-10.9,1.2
	c-1.6-0.4-4.3,0-5.3,1.1c-7,7.9-13.6,16.3-20.6,24.3c-4.6,5.4-9.5,10.5-14.5,15.5c-5.2,5.2-10.8,10.1-16.1,15.3
	c-0.3,0.3,0,1.6,0.3,2.3c0.1,0.3,1.2,0.3,1.9,0.2c21.6-1.5,41.7,4.4,61.4,12.3c9.1,3.7,18,8,27,12c13.1,5.8,26.2,11.6,39.4,17.2
	c1.7,0.7,4.6,0.4,6.2-0.6c2.7-1.7,2.1-0.4,2.8,1.4c0.9,2.3,2.7,4.7,4.7,5.9c17.2,10.4,34.5,20.5,51.7,30.9c14,8.4,24,20.9,33.4,33.9
	c3,4,5.8,8.2,7.9,12.7c2,4-0.2,7.8-4.1,10.4c-6.9,4.5-14.8,5.1-22.6,5.8c-14.4,1.2-28.5-0.8-42.2-5.5c-9.9-3.3-19.7-7.1-29.6-10.4
	c-1.8-0.6-5.1-0.6-5.9,0.4c-2.5,3.5-3.3,1.5-4.4-0.7c-1.6-3.1-4-4.6-7.4-5.9c-13.8-5-27.2-10.8-40.7-16.4
	c-11.3-4.7-22.4-9.6-33.6-14.4c-4.4-1.8-8.7-3.9-13.3-5.2c-1.8-0.6-4.4-0.1-6,0.9c-1.6,1.1-2.5,1.2-2.5-0.7c0.3-6.5-5.2-7.7-9.1-9.8
	c-8.7-4.8-17.8-8.6-26.5-13.3c-9.9-5.3-20.4-10-26.5-20.1c-2.2-3.7-3.5-8-4.3-12.2c-0.5-3-0.4-4.9-4.1-6.3
	c-8.3-3.2-16.3-7.4-24.3-11.3c-10.7-5.2-21.3-10.6-32.1-15.6c-1.3-0.7-4-0.4-4.8,0.6c-8.1,9-16.3,18-23.7,27.7
	c-4.1,5.3-3.4,6.2,2.8,7.6c5.2,1.3,10.6,1.7,15.9,2.9c1.2,0.3,2.1,2.3,3.2,3.5c-1.4,0.8-2.7,2.2-4.1,2.2c-6.7,0.2-13.4,0-20,0.2
	c-1.7,0.1-4.1,1.2-4.8,2.5c-6.8,12.4-1.2,34.1,14.9,36.7c7.8,1.2,15.8,4.3,20.4,11.8c1.4,2.3,2.8,5.6,2.2,7.9
	c-0.4,1.7-3.9,3.5-6.2,3.9c-6.9,1.1-13.3-0.8-19.2-4.2c-5.7-3.3-11.8-6.4-16.4-10.9c-6.6-6.2-12-13.6-13-23.5
	c-0.7-7.1-1.1-13.9,1-20.8c0.2-0.5-1.4-2.4-2.1-2.4c-15,1.6-30.3-0.3-45,4.6c-2.6,0.8-5.6,0.5-8.4,0.2c-1.2-0.1-2.2-1.6-3.3-2.5
	c0.8-0.8,1.5-2.1,2.5-2.3c6.9-1.5,13.8-3.3,20.8-3.9c9.3-0.9,18.7-0.8,28.1-1.2c2.9-0.1,5.8-0.5,8.6-1.1c1.1-0.2,2.9-1.7,2.8-2.2
	c-0.6-2-1.4-4.2-2.8-5.6c-4.8-5-10.1-9.4-14.8-14.5c-3-3.2-5.1-7.2-7.9-10.7c-1.5-1.9-3.5-1.7-5.5-0.2c-6.7,5-13.7,7.8-22.5,5.5
	c-6.5-1.7-8.5,0.5-10.4,8c-0.6,2.5-1.2,5.6-3,7.1c-4.7,3.9-2.6,8.8-2.8,13.3c-0.2,6.1,0.1,12.2-0.2,18.3c-0.2,3.9-1.9,7.8-1.8,11.6
	c0.4,13.6-12.3,26.8-26.7,26.7c-11.2-0.1-22.3,2.1-33.5,2.2c-10.1,0-20.3-1.4-30.4-2.4c-5.6-0.5-11.1-1.5-16.7-1.9
	c-9.6-0.8-18.9-2.4-26.9-8.5c-0.4-0.3-1.7,0-2.3,0.5c-3,2.4-5.5,5.8-8.9,7.4c-4.5,2.2-9.7,4.2-14.6,4.3c-7.4,0-14.8-1.6-22.2-2.9
	c-1.5-0.3-3.7-2.6-3.7-3.9c0.1-2,1.8-3.9,3.1-5.6c0.3-0.4,2.2-0.4,2.5,0.1c2.4,3.3,5.8,3.8,9.5,4.4c5.4,0.8,10.7,2.2,16.1,3
	c1.1,0.2,2.4-1.1,3.6-1.7c-1.1-0.7-2.1-1.7-3.3-2.1c-3.7-1.5-7.6-2.6-11.3-4.2c-1.6-0.7-2.9-2.2-4.4-3.4c2.1-0.8,4.5-2.6,6.4-2.3
	c3.4,0.6,6.7,2.4,9.9,3.8c5.6,2.5,10,0.5,14.4-3.1c2.6-2.1,5.9-3.4,9-4.8c0.8-0.4,2.2,0.2,3.3,0.4c-0.5,1.1-0.7,2.6-1.5,3.4
	c-1.7,1.7-3.7,3.1-5.5,4.6c2.3-0.1,4.7-0.8,6.8-0.4c4.4,1,8.5,2.9,12.9,3.8c6.4,1.4,12.8,2.6,19.2,3c15.4,1,30.8,1.9,46.2,1.9
	c9.1,0,18.2-1.9,27.3-2.7c8-0.6,11.1-6.7,13.4-12.6c5-12.8,4.5-26.3,4-39.8c0-0.9-2-2.6-3-2.6c-14,0.2-28.1,0.6-42.1,1
	c-2.1,0-3.8,0.6-3.8,3.6c-0.1,2.9,1.1,4,3.6,4.3c2.8,0.4,5.8,0.5,8.6,1.1c1.4,0.3,2.6,1.6,3.9,2.4c-1.3,0.8-2.6,2.4-3.9,2.4
	c-9.4-0.1-18.8-1.2-28.1-0.7c-11,0.6-22,1.9-32.8,4c-13,2.4-25.8,6.1-38.8,8.7c-4.3,0.9-9,0.1-13.4-0.5c-12.1-1.4-23.7-3.9-35.9,1.5
	c-9.8,4.3-15.4,12.1-22.1,19.2c-3.3,3.5-7.4,6.8-6,12.5c0.4,1.5,1.4,2.8,2.2,4.1c0.6-1,1.1-2.1,1.8-3.1c5.4-7.8,10.8-15.6,16.2-23.3
	c0.6-0.8,1.8-1.3,2.8-1.7c0.8-0.3,1.8-0.3,2.7-0.4c-0.2,1,0,2.3-0.5,3c-5.6,8.8-11.3,17.4-17,26c-1.4,2.3-9.8,4.7-11.5,2.7
	c-2-2.5-3.7-6.3-3.4-9.4c0.3-2.9,2-5.1-0.1-8.5c-2.2-3.5,1.2-9.2,6.4-11.9c3.8-2,8-3.2,11.9-5.2c3.1-1.6,5.8-4.3,9-5.8
	c5.4-2.7,10.9-5.3,16.7-7c11.3-3.2,22.2,1.6,33.4,2.7c4.9,0.4,10.3-1.3,15.1-3.1c12.5-4.8,25.2-8.1,38.8-7.8
	c5.4,0.1,10.8-1.2,16.2-1.9c0.8-0.2,1.5-1,2.2-1.5c-0.8-0.2-1.5-0.4-2.3-0.5c-5.5-0.2-11-0.4-16.4-0.7c-2.1-0.1-4.3,0-6.3-0.4
	c-0.7-0.1-1.9-1.3-1.8-1.8c0.2-1.1,1.1-2.9,1.7-2.9c8.7-0.1,17.5,0,26.2,0.6c2.1,0.1,3.9,2.5,5.9,3.6c1.4,0.8,2.9,1.4,4.4,1.5
	c0.5,0,1.7-1.8,1.5-2.5c-0.4-1.6-1.3-3.1-2.4-4.4c-0.7-0.7-2-0.7-3-1.1c-5.8-1.9-8.5-6.6-7.4-12.7c0.7-4.3,1.5-8.6,2.3-13
	c0-0.6-0.3-1.2-0.4-1.8c-0.5,0.2-1.1,0.3-1.4,0.6c-1.4,1.6-2.4,3.7-4,4.8c-1.7,1.2-4,1.5-6,2.2c0.5-1.8,0.7-3.8,1.5-5.4
	c0.7-1.3,2-2.3,3.2-3.2c4.2-3.3,5.1-6.5,0.9-10.8c-5.4-5.6-10-12-15.7-17.3c-2.5-2.3-6.6-3.1-10.1-4.2c-3.4-1.1-5.5,1.1-7.3,3.6
	c-4.5,6.2-8.9,12.4-15.7,16.3c-1.2,0.6-2.9,0.3-4.3,0.5c0.6-1.2,0.9-2.7,1.8-3.7c13.1-14.7,24.7-30.5,33.1-48.3
	c3.8-8.1,7.1-16.5,9.7-25c0.5-2-2.5-5.5-4.6-7.8c-4.8-5.2-9.9-10.3-17-12.7c-9.1-3.2-17.9-1.7-26.8,0.3c-11.8,2.6-21,10.1-30.6,16.6
	c-6.4,4.4-13.2,8.1-18,14.7c-2.8,3.9-3.4,8-4.1,12.3c-1.1,7.9-3.5,15.8-3.2,23.5c0.4,11.2,2.1,22.5,8.5,32.4
	c1.6,2.3,0.7,6.2,2.2,8.5c6.6,9.8,8.1,10.7,22.1,7.1c8.8-2.2,14.7-8.7,20.9-14.8c1-1,2.7-1.3,4.1-2c-0.2,1.5-0.1,3.2-0.8,4.5
	c-3.5,6.7-8.9,11.3-15.9,14.1c-1,0.4-1.6,1.6-2.4,2.4c1,0.4,1.9,1.3,2.9,1.4c9,0.1,15.4,5.7,22,10.8c1.1,0.8,0.2,4.3,0.2,6.5
	c-1.6-0.4-4.1-0.5-4.6-1.5c-3.7-7.3-11.9-6.2-17.5-9.7c-7-4.4-14.9-4.5-22.9-4.1c-4.6,0.2-8.1-2-10.1-6.1
	c-3.3-6.7-6.3-13.7-9.2-20.6c-1.2-3-1.5-6.4-2.6-9.5c-0.4-1.1-1.8-1.8-2.7-2.8c-0.5,1.5-1.3,2.9-1.5,4.4c-0.3,2.2-0.2,4.4-0.2,6.6
	c-1.9-1.8-4.9-3.3-5.6-5.4c-4.6-16.1-13.1-30.3-20.7-45c-4.3-8.3-3.5-18.1-1.3-27.4c1-4.3,1.6-8.7,2.3-13.2c0.3-2.2,0.4-4.5,0.4-6.8
	c0-2.5,1.3-5.1-3.5-5.6c-3.4-0.3-6.4-3.5-9.7-5.3c-1.6-0.9-3.5-2.4-5-2.1c-3.4,0.5-7.8,1.7-7.4,5.7c0.2,3.5,4.2,4.1,7.7,4.2
	c6.1,0.2,8.7,5.4,11.8,9.5c0.3,0.4-1.2,3-2.2,3.2c-1.3,0.4-3.8-0.2-4.3-1.2c-2.8-5.2-7.9-6-12.9-7.6c-9.6-3.2-6.7-10.2-2.1-14.9
	c0.5-0.5,0.9-1.5,0.7-2.1c-1.2-3-3-5.8-3.9-9c-0.6-2-0.9-3.1-2.4-1c-1.6,2-3.5,4.5-3.6,6.8c-0.2,9.6-1.3,19.1-6.3,27.4
	c-3.3,5.7-7.8,10.8-12.3,15.6c-3.7,3.9-9.4,4.5-12.1,2c-3.6-3.3-3.1-7.8-1.8-11.7c1.7-5.7,4-11.2,8.9-15.3c1.6-1.3,2.2-3.7,3.5-5.5
	c2.9-3.6,5.9-7.1,8.9-10.7c1.7-2.1,3.9-4,5-6.4c2.3-5,5.8-7.6,11.2-8.3c1.4-0.2,2.8-1.4,3.9-2.5c5.5-5.3,7.7-5.4,14.4-2.5
	c6.8,3,12,7.4,16.5,13.3c3.8,5.1,3.7,11.1,3.8,16.4c0.1,11,0,22-3.3,33c-2.1,7.1-0.2,15,3.6,22.2c5.5,10.1,10,20.8,15,31.2
	c0.5,1.2,1,2.4,1.8,3.2c0.6,0.6,1.8,0.6,2.7,0.8c0.1-0.7,0.5-1.5,0.4-2.3c-0.6-5.4-1.6-10.7-1.8-16.2c-0.1-3.7,0.6-7.6,1.3-11.4
	c1-4.7,1.7-9.6,3.7-13.9c2.2-4.7,4.9-9.9,8.9-13c11.5-9,23.8-17.1,35.9-25.5C270.5,486.7,272.7,486.6,274.8,485.8 M609.6,351
	c-0.2,0.4-0.4,0.7-1,1c-0.1,0.7-0.1,1.3-0.1,1.9c0.2-0.6,0.4-1.2,1.1-1.9c0.1-0.3,0.3-0.6,1-1c0.1-0.3,0.3-0.6,1-1
	c4.9-4.6,9.8-9.1,14.7-13.7c0.2-0.3,0.3-0.7,0.5-1.1c-0.5,0-1.1-0.2-1.3,0c-4.9,4.9-9.6,9.9-14.9,14.8
	C610.4,350.4,610.2,350.7,609.6,351 M332.6,526c0-1,0-1.9,0-2.9c-0.1,1-0.3,1.9-1,2.9c-0.1,0.3-0.1,0.6-0.1,0.9
	C331.7,526.6,331.9,526.3,332.6,526 M365.6,539c1.3-1,2.9-1.9,4.1-3.2c0.9-1,1.3-2.4,1.9-3.7c-1.1,0.8-2.5,1.3-3.3,2.3
	c-1.3,1.4-2.2,3.1-3.7,4.6c-0.1,0.3-0.1,0.6-0.1,0.9C364.7,539.6,364.9,539.3,365.6,539 M717.1,660.5c-0.3,0-0.6,0-1-0.1
	c0.4,0.2,0.7,0.4,1,1.1c3.3,1.2,6.5,2.4,9.9,3.5c0.5,0.1,1.3-0.4,2-0.6c-0.5-0.4-0.9-1.2-1.4-1.3
	C724.1,662.3,720.6,661.7,717.1,660.5 M522.6,592c-2.6,2.6-5.5,4.9-7.7,7.8c-2.6,3.5-4.6,7.4-6.8,11.1c-0.2,0.4,0.1,1.2,0.2,1.9
	c0.4-0.2,0.8-0.3,1.1-0.6c4.8-6.5,11.4-11.9,14.2-20.2c0-0.3,0-0.6,0-0.9C523.5,591.4,523.3,591.7,522.6,592 M622.1,647.5
	c0.3,0,0.6,0.1,0.9,0.1c-0.3-0.2-0.6-0.4-0.9-1.1c-0.7-1-1.3-2.1-2.2-3.1c-2.7-3.2-5.7-6.1-8.3-9.5c-1.5-2-2.3-4.7-3.6-6.9
	c-0.5-0.8-1.6-1.3-2.4-1.9c-0.2,0.9-0.7,1.9-0.5,2.6c0.9,2.8,1.4,6,3.1,8.2C612,640.5,615.5,645.8,622.1,647.5 M377.6,524
	c0.8-1,1.8-1.8,2.4-2.9c3.5-6.6,6.9-13.1,10.2-19.8c1.2-2.6,2-5.4,2.8-8.3c0.2-0.8-0.4-2-0.7-3c-0.8,0.6-2.1,1.1-2.5,1.9
	c-1.8,3.2-3.7,6.5-5,9.9c-2.7,7.4-5.2,14.8-8.2,22.2c-0.1,0.3-0.1,0.6-0.1,0.9C376.7,524.6,376.9,524.3,377.6,524 M787.1,60.5
	c-0.3,0-0.6,0-1-0.1c0.4,0.2,0.7,0.4,1,1.1c0.4,0.5,0.8,1.2,1.4,1.4c12.4,3.3,24.5,7.3,35.7,13.6c0.9,0.6,2.6-0.1,3.9-0.2
	c-0.7-1.4-1-3.7-2.1-4.1c-9.2-3.9-18.4-7.8-27.9-11C794.8,60.1,790.8,61,787.1,60.5 M635.6,564c-1.1,0.7-2.1,1.9-3.2,1.9
	c-4.1,0.1-8.3-0.1-12.4-0.5c-2.2-0.3-4.9-1.1-4.8,1.9c0.3,9.2,1.1,18.5,1.9,27.7c0.2,2.4,1.2,4.7,1.8,7c2.5-1.2,5-2.5,7.4-3.8
	c0.4-0.2,0.8-0.6,1.1-1c7.3-8.3,14.5-16.7,21.9-24.9c9.3-10.2,18.9-20.1,28.2-30.3c4.4-4.9,8.8-9.9,12.5-15.3
	c6.5-9.4,12.3-19.3,18.7-28.7c8.1-12,13.5-24.5,12.5-39.4c-0.3-5.2,0.3-10.7,1.7-15.7c2.4-8.8,5.7-17.3,8.7-25.9
	c1.1-3.2,0.8-5.2-3.2-6.1c-4.5-1.1-8.8-2.9-12.9-4.9c-7-3.5-12.6-2.7-16.9,4c-0.5,0.7-1.1,1.3-1.8,1.8
	c-19.2,13.1-38.4,26.1-57.7,39.2c-2.5,1.7-4.7,3.4-3.2,7.2c0.5,1.2-0.3,4-1.4,4.6c-6.1,3.7-12.6,6.7-18.6,10.4
	c-1.5,0.8-2.7,3.4-2.7,5.1c0.2,4.5,1.3,9.1,1.8,13.6c0.5,4.7,0.4,9.5,1.1,14.1c1.7,11.1,2.9,22.1,1.2,33.3c-0.4,2.3,1.6,6,3.7,7.5
	c4.3,3.2,9.5,5.1,14.2,7.9C639,557,639.2,559.8,635.6,564 M622.1,387.5c-11.5,6.1-22.9,12.4-34.4,18.3c-3,1.6-1.6,1.4,0.1,2.6
	c7.3,5,15,9.6,21.4,15.6c6.9,6.4,12.4,14.2,18.6,21.2c1.4,1.6,2.5,4.3,5.9,1.8c11.4-8.2,23.4-15.5,34.4-24.1
	c11.1-8.7,26.1-12.8,31.7-27.9c2-5.3,6-9.8,8.6-14.9c3.5-6.9,6.7-13.9,9.6-21.1c4.9-11.6,8.2-23.8,13.8-35.3
	c7.5-15.4,12.9-31.9,19-48c1-2.5,0.8-5.2-2.7-6.1c-8.9-2.5-17.8-5.3-26.9-7.4c-1.9-0.4-5.3,1.2-6.5,2.9
	c-7.1,10.1-13.8,20.5-20.6,30.9c-1.4,2-3,3.7-1.2,6.8c1.3,2.4-0.2,4.6-3.4,5.4c-1.7,0.4-3.4,1.9-4.4,3.4
	c-4.3,6.7-8.5,13.4-12.4,20.3c-6.3,11.1-12.2,22.3-18.5,33.4c-2,3.4-4,7.6-7.2,9.5C639.2,379.5,630.7,383,622.1,387.5 M372.6,624
	c10.7-0.3,21.4-0.7,32.1-0.9c7.6-0.2,9.2-2.3,7.1-9.8c0-0.2-0.3-0.3-0.3-0.4c-0.8-9.4-3.2-18.8,0.6-28.1c3.4-8.4,4.7-16.9,3-25.9
	c-0.2-1.2,0.4-2.6,0.6-3.9c1.1,0.9,2.7,1.5,3.3,2.6c3.1,6.2,4,12.7,2.5,19.5c-1.2,5.4-2.4,10.7-3.4,16.1c-0.6,3,1.1,4.4,4,3.8
	c2.8-0.7,6-1.3,8.2-3c4.4-3.3,8-7.7,12.5-10.9c2.3-1.8,6.5-1.3,8.6-3.1c14.4-12.7,27.1-26.7,36-43.9c8.6-16.7,18.9-33,18-53
	c0-1.2-0.3-2.5-0.5-3.7c-0.5,0.2-1,0.3-1.4,0.7c-6.8,6.8-13.6,13.7-20.5,20.4c-13.7,13.5-26.9,27.5-41.4,40.1
	c-10.3,9-23,11.6-36.5,6.1c-2.5-1.1-5.9-2.3-8.2-1.5c-12.6,4.5-24.6,10.2-33.3,20.9c-1.5,1.9-2.4,4.5-2.9,6.9c-2,8.4-2.2,17.4-9,24
	c-0.9,0.8-1.5,2.2-1.6,3.3c-0.4,5.2-0.7,10.4-1,15.6c-0.3,3.2,1,5.6,4.3,6.1C359.4,622.8,365.5,623.4,372.6,624 M535.6,398
	c-10.1-4.7-20.1-9.5-30.2-14.1c-7.3-3.3-11.6-2.8-16.6,3.1c-5.7,6.9-10.7,14.5-15.9,21.8c-0.1,0.1,0.5,1,0.9,1.2
	c6.9,2.7,13.8,5.3,20.7,8c4.3,1.6,7.1,4.4,8,9c1.3,6.1,5.7,9.1,11.2,11c3.4,1.2,7,1.7,10.1,3.4c16.5,8.7,25.1,23.4,30.1,40.6
	c1,3.6,0.2,7.8,0,11.6c-0.1,1.4-1.1,2.8-1.6,4.1c1.5-0.2,2.9-0.5,4.4-0.8c0.6-0.2,1.1-0.6,1.6-0.9c13.5-7,26.9-13.9,40.3-21
	c8.1-4.2,16.1-8.6,24.1-13c5-2.7,5.6-4.4,2.8-8c-9.6-12.7-19.1-25.7-32.7-34.7c-4.4-2.9-8.8-7-13.7-7.9c-5.2-1-11.1,0.7-16.6,1.9
	c-6.2,1.2-11.9,4-18.5,1.9c-4.3-1.4-3.5-4.1-2.2-6.2c2.3-3.6,1.9-5.8-1.9-7.7C538.5,400.6,537.3,399.5,535.6,398 M595.6,535
	c1.9,1,3.8,2,5.8,2.8c2.2,0.9,4.1,1.6,3.8-2.4c-1-11.2-1.6-22.5-2.1-33.7c-0.2-5.5-0.2-11.1,0-16.6c0.2-4-1.4-3.5-3.9-2.1
	c-4.7,2.7-9.2,5.8-14.2,7.9c-13.3,5.6-26.9,10.8-40.3,16.1c-1.3,0.5-2.7,0.7-4.1,1c-0.2-1.4-0.7-2.9-0.4-4.2c0.2-1.2,1-2.4,1.9-3.2
	c4.9-4.4,7-9.1,5.2-16.2c-4.3-16.3-12.2-29.6-27.3-37.9c-2-1.1-4.3-1.6-6.5-2.4c0.5,1.9,1.1,3.9,1.6,5.9c2,8.5,4.2,17,5.9,25.6
	c1,4.8,4.2,9.3,2.2,14.8c-1,2.5-0.8,5.4-1.1,8.1c-0.7,4.5-1.4,9.1-2,13.6c-0.2,1.3-0.4,2.6-0.5,3.9c1-0.7,2.2-1.3,3.1-2.1
	c3.6-3.6,7.2-7.3,10.9-10.8c0.7-0.6,3.3-1.6,2.4,1.3c-0.8,2.6-1.7,5.5-3.5,7.5c-5.6,6.3-12.5,11.5-17.2,18.4
	c-6.2,9-10.9,19-15.8,28.9c-6.7,13.5-16,24.6-28.9,32.6c-2.8,1.7-3.5,3.1-1.6,5.5c1.9,2.5,4.4,2.6,6.7,0.5c1.4-1.3,2.1-3.7,3.6-4.3
	c2.1-0.9,4.7-0.5,7.1-0.7c-0.3,2.1-0.3,4.2-0.9,6.1c-0.3,1-1.6,1.7-2.3,2.5c-6,7.1-5.1,9.8-0.1,14.2c2.1,1.8,4.2,3.6,6.3,5.2
	c2.6,2,4.8,3.1,6.8-1.1c2.8-6.1,6.1-11.9,9.4-17.6c1.3-2.2,3.1-4.1,4.9-5.9c4.1-4.3,8.7-8.2,12.5-12.8c8.8-10.7,17.2-21.9,25.9-32.7
	c5.4-6.7,11.2-13,16.6-19.7c5.3-6.5,11-7.6,18.3-3C587.5,530.3,591.3,532.4,595.6,535 M520.6,383c0.8,0.4,1.8,0.6,2.5,1
	c10,5.8,20,11.5,29.8,17.5c2.5,1.5,4.2,4.3,6.2,6.5c0.9-2.7,2.1-5.4,2.6-8.1c1-6.5,1.6-13.1,2.3-19.6c0.1-0.7-0.6-1.5-0.9-2.3
	c-0.7,0.6-1.9,1-2.2,1.7c-1.4,3.5-2.7,6.9-3.8,10.4c-1,3.3-2.2,7.2-6.1,5.7c-4.4-1.7-0.9-5.1,0.1-7.5c6.7-14.2,11.8-28.7,10.1-44.9
	c-0.4-3,0.1-6.1,3.7-7.9c1.2-0.7,1.7-3.2,2.1-5c0.9-3.6,0.7-7.8,2.4-11c2.3-4.3,1.7-8.2,0.4-12.3c-0.8-2.3-1.8-4.6-2.7-6.9
	c-5-13-9.8-26.2-15.1-39.2c-4.4-11-9.3-21.8-14.1-32.7c-1.5-3.4-3.5-3-6.2-0.7c-6.9,6-13.8,12.1-21.4,17.1c-4.2,2.9-3.7,5.6-2,8.8
	c4.3,7.9,9.6,15.4,13.2,23.6c4.2,9.7,7.6,19.9,10.4,30.1c2.5,9-2.8,16.6-6.8,24.1c-7.4,13.8-15.3,27.3-22.8,41.1
	c-0.6,1-0.1,4.1,0.6,4.3C508.5,379,514.3,380.7,520.6,383 M775.6,178c3.7,0,7.9,1.1,11-0.3c11.7-5,23-11.1,34.7-16.3
	c16.5-7.4,33.1-14.2,49.6-21.5c1.1-0.5,2.4-3,2.1-4.3c-3.4-14.9-13.9-25.2-24.1-35.5C844,95.2,838,91.3,832.4,87
	c-2.2-1.6-4.2-1.3-5.8,1c-2.5,3.4-5.2,6.8-7.5,10.4c-9.4,14.5-18.9,29.1-28,43.8c-5.9,9.7-11.5,19.6-16.9,29.5
	C773.4,173.3,774.4,175.9,775.6,178 M663.6,241c-0.9,0.7-1.8,1.4-2.7,2c-4.2,2.4-8.5,4.5-12.4,7.3c-2.4,1.6-5.7,3.8-2.2,7.5
	c8.3,8.6,16.4,17.3,24.9,25.6c1,1,4.4,1.1,5.6,0.1c4.5-3.5,8.4-7.8,12.8-11.4c6.8-5.6,13.9-10.7,20.8-16.1c1.5-1.3,3.1-3.1,3.6-4.9
	c1.9-7.1,3.1-14.3,5.1-21.4c2.1-7.2,6.7-9.8,14.3-8.7c1.3,0.1,2.8-0.4,4.1-0.9c5.9-2.3,10.6-5.9,14.3-11.1
	c4.6-6.5,10.2-12.1,15-18.4c0.9-1.2,0.7-5.1,0-5.4c-6.2-2.4-11-0.1-14.1,5.6c-4.2,7.6-8.8,15.1-13.5,22.4c-1,1.6-3.1,2.5-4.7,3.8
	c0.4-2.1,0.8-4.1,1.3-6.2c0-0.2,0.5-0.4,0.6-0.7c3.4-5.3,6.7-10.5,9.9-15.9c0.5-0.8,0.3-2,0.4-3c-0.8,0.3-1.7,0.4-2.5,0.8
	c-4.6,2.7-9.2,5.3-13.6,8.1c-13.4,8.2-26.8,16.6-40.2,24.9C681.8,230.4,673.2,235.7,663.6,241 M839.1,290.5
	c5.6-6.8,11.5-13.4,16.9-20.4c3.9-5.1,3-8.7-2-12.6c-11.5-9.2-23.3-18.1-34.4-27.7c-12.1-10.3-23.5-21.3-35.2-32
	c-0.7-0.5-1.4-1-2.1-1.5c-0.1,0.8-0.3,1.7-0.2,2.4c0.1,0.9,0.6,1.8,0.8,2.7c1.8,7.6,3.6,15.2,5,22.9c0.3,1.4-1.6,3.1-2.5,4.7
	c-0.9-1.3-2.3-2.5-2.7-3.9c-2.3-8.7-4.4-17.5-6.7-26.2c-0.2-1-0.9-1.9-1.4-2.9c-0.9,0.9-2.2,1.7-2.7,2.8c-2.1,4.2-4.4,8.5-6,13
	c-1.6,4.7-2.6,9.6-3.8,14.4c-0.7,2.9,0.8,4,3.5,4.9c14.4,4.5,28.9,8.9,43.1,14.1c8.7,3.1,17.4,6.9,23.4,14.5c1.2,1.6,2.3,5,1.5,5.9
	c-2,2.3-4.8,4.7-7.7,5.2c-6.2,1-12.6,1-19,1.2c-2.5,0.1-3.6,0.1-2.3,3.2c4,9.2,7.4,18.7,11.1,27.9c1.9,4.6,3.4,4.7,7.3,1.5
	C828.3,300.2,833.7,295.9,839.1,290.5 M868.6,202c2.6,0.6,5.1,1.3,7.7,1.7c2.7,0.5,5.5,1.5,5.9-3.2c0.5-5.1,3.1-10.3,2.6-15.2
	c-1.2-12.1-3.7-24-5.7-36c-0.7-3.8-3.2-5.5-6.6-4.1c-14.9,6.3-29.7,12.7-44.4,19.4c-11.5,5.2-22.8,10.9-34.2,16.4
	c-1,0.5-1.9,1.4-2.8,2.1c1.1,0.6,2.2,1.6,3.4,1.9c9,2,18,3.9,27,6C837,194.5,852.5,198,868.6,202 M662.6,160
	c-9.1-2.3-18.1-4.7-27.1-6.9c-2.4-0.6-5.1-0.3-5.4,2.9c-1.4,13.6-2.8,27.2-4,40.8c-0.3,4,1.8,6.2,6.1,5.2c13-2.8,26-5.5,38.9-8.6
	c13.8-3.3,27.5-7,41.2-10.3c6.6-1.6,13.3-2.7,19.8-4.2c1.1-0.2,2-1.5,3-2.3c-0.9-0.6-1.8-1.3-2.8-1.5c-12.9-3.4-25.8-7.1-38.8-10
	C683.6,162.9,673.5,161.7,662.6,160 M699.1,81.5c-0.7,2.1-2.3,4.5-1.7,6.1c1.7,4.4,4,8.7,6.5,12.7c13.4,20.7,29.6,39,45.5,57.7
	c3.2,3.7,5.8,7.9,8.7,11.8c0.4,0.7,0.7,1.5,1.1,2.2c0.6-0.8,1.6-1.6,1.8-2.5c0.3-1.4,0.4-3.1,0-4.4c-1.7-6.1-3.8-12.1-5.5-18.2
	c-3.3-11.5-6.7-23-9.3-34.6c-2.8-12.3-4.7-24.7-7.2-37.1c-1.7-8.5-3.6-9.7-12-6.4C717.7,72.4,708.7,76.9,699.1,81.5 M845.6,242
	c5.8,5.4,11.6,10.7,17.5,16.1c0.2,0.2,0.2,0.5,0.3,0.8c0.3-0.3,0.5-0.7,0.7-1c5.9-10.7,12-21.3,17.6-32.2c1.8-3.5,2.5-7.6,3-11.6
	c0.1-0.3-4.4-1.4-6.8-2.1c-12-3.3-23.8-6.9-35.8-9.9c-12.5-3.1-25.1-5.3-37.6-8.2c-5.7-1.4-11.1-3.8-16.7-5.5c-1.4-0.5-3.1,0-4.6,0
	c0.9,1.2,1.6,2.6,2.7,3.6c6.5,5.7,13,11.2,19.5,16.9c5,4.3,9.9,8.8,15,13.1C828.4,228.7,836.5,235.4,845.6,242 M654.6,204
	c-6.5,1.4-12.9,3-19.4,3.9c-5.8,0.9-7.4,2.6-5.5,8.2c2.9,8.4,6,16.8,9.1,25.1c2.2,5.8,2.5,5.9,7.6,3c12.9-7.5,25.7-15.1,38.6-22.6
	c21-12.4,40.7-27.1,63.1-37.2c1.2-0.6,2-2.4,3-3.6c-1.5-0.3-3-0.6-4.5-0.7c-0.6-0.1-1.1,0.5-1.7,0.6c-16.2,4.1-32.3,8.2-48.4,12.3
	C682.8,196.6,669.2,200.4,654.6,204 M804.6,249c-1.8-0.6-3.4-1.4-5.2-2c-11.3-3.3-22.6-6.6-33.8-10c-10.7-3.2-21.4-6.3-31.8-10.1
	c-5-1.8-7.5,1.2-8.5,4.2c-2.4,6.9-3.6,14.2-5.2,21.4c-0.6,2.8,0.7,4.3,3.8,4.6c9.4,0.9,18.2,3.5,26.7,7.8c3.5,1.8,7.8,3.1,11.7,2.9
	c7.9-0.3,15.8-2.2,23.7-2.6c5.5-0.4,11.1,0.7,16.6,0.7c5,0.1,10.1-0.6,15.1-0.9c1.3,0,2.8,0.4,3.9-0.1c1.7-0.6,3-1.9,4.5-3
	c-1-1-1.7-2.5-2.9-3.1C817.2,255.6,811.1,252.6,804.6,249 M547.6,588c4.7,2.7,9.2,6,14.2,7.9c13.3,5.2,26.8,9.8,40.3,14.6
	c0.5,0.2,1.9-0.7,1.9-1.1c0.4-5.5,0.9-11.1,1-16.6c0.2-7.8-0.2-15.6,0.2-23.4c0.2-4.8-2.5-7.8-5.9-8.1c-9.4-0.9-18.9-1.3-28.3-0.5
	c-9.1,0.8-16.1,7.2-23.3,12.3c-4.1,2.9-7.3,7.1-10.9,10.7c-0.4,0.5-0.5,1.2-0.7,1.7c0.3,0,0.7,0.1,1-0.1
	C541,583.3,544,585.6,547.6,588 M701.1,70.5c-5.6,2.6-11.5,4.8-16.7,7.9c-6.5,3.8-12.6,8.4-18.8,12.6c-8.6,5.9-9,13.6-1.1,20
	c1.8,1.4,3.5,2.8,5.2,4.2c8.8,6.9,17.3,14.3,26.5,20.7c9.1,6.5,18.9,12.2,28.4,18.1c6,3.6,12.2,6.9,18.3,10.3c0.8,0.4,2,0.3,3,0.4
	c-0.4-0.8-0.6-1.8-1.1-2.4c-7.4-8.8-14.9-17.5-22.2-26.3c-11.1-13.4-21.6-27.2-29.6-42.7c-1.5-2.8-4.2-4.9-6.4-7.3
	c-0.7-0.7-1.7-1.2-2.5-1.8c0.9-0.8,1.6-1.8,2.7-2.3c5.4-2.9,11-5.6,16.4-8.6c2.1-1.2,3.9-3.2,5.8-4.8
	C706.5,69,704.1,69.5,701.1,70.5 M787.6,68c-6.4,0.7-5.6,6.2-6.4,10.2c-2,10-3.6,20.2-5.1,30.3c-1.5,9.5-2.8,18.9-4,28.4
	c-1.1,8.2-2.1,16.4-3,24.7c-0.1,1.1,0.5,2.3,0.8,3.4c1-0.7,2.4-1.3,2.9-2.3c2.6-5.1,4.5-10.6,7.6-15.3c12.9-20,26.2-39.8,39.4-59.6
	c3-4.5,2.7-6.7-2.2-8.6C807.9,75.4,797.9,72,787.6,68 M769.6,382c-0.2-1.2-0.8-2.6-0.5-3.7c2.8-9.8-0.5-19.2-1.2-28.8
	c-0.3-4.4-1.9-8.7-7.8-9c-1.4,0-3.1-0.6-4.3-1.4c-0.6-0.5-0.9-2.8-0.7-3c1.7-0.9,3.6-1.4,5.4-2.1c1.5-0.6,3-1.2,4.6-1.8
	c-1.6-0.7-3.1-2-4.7-2.1c-6-0.1-12,0.4-16.6-4.7c-0.3-0.2-2.8,0.8-3.2,1.8c-5,11-9.8,22.2-14.4,33.4c-1,2.2-1.6,4.7,0.8,7.3
	c6.5,7.3,12.5,15.1,19,22.3c1.2,1.3,4.1,1.6,6,1.2c3.4-0.7,6.7-2.1,10-3.4C765.1,386.8,769.3,387.1,769.6,382 M437.1,496.5
	c1-5.4,1.8-10.9,3.2-16.1c3.3-12,7-23.8,10.5-35.7c0.2-0.8-0.1-1.8-0.2-2.7c-1,0.4-2.3,0.4-3,1.1c-1.9,2-3.9,4-5.3,6.3
	c-2,3.1-4,6.4-5.1,9.9c-1.8,5.4-2.7,11.2-4.2,16.8c-1.1,4-3,7.8-3.9,11.8c-3.2,15.8-9.2,31-10.1,47.3c-0.1,2.3-2.2,3.4-4.5,2.8
	c-2-0.5-4.1-1-3.4-4c1.2-5.6,2.1-11.4,3.5-17c3-11.7,6.1-23.4,9.1-35.2c0.1-0.5-0.6-1.7-1-1.7c-4.7-0.5-9,3.2-9.6,7.9
	c-0.1,1-0.2,1.9-0.4,2.9c-3.2,13.8-6.3,27.7-9.8,41.4c-0.3,1.5-2.3,3.4-3.7,3.6c-6.3,0.6-3.9-3.6-3.1-6.6c3.6-14.2,7.3-28.3,11-42.5
	c0.1-0.6,0.6-1.5,0.3-1.8c-0.4-0.5-1.6-1-1.9-0.8c-2.2,1.8-5.4,3.4-6.2,5.8c-1.7,4.8-2,10.1-3.3,15.1c-0.7,2.9-1.1,5.5-4,8
	c-4.6,3.8-7.3,9.4-7,15.9c0.1,2.6,0,5.5-1.3,7.6c-1.2,1.9-4.1,2.8-6,4.4c-1.6,1.4-2.9,3.2-4.3,4.8c2.3-0.6,4.7-1.4,7.1-1.6
	c3.1-0.3,4.5-7.6,8.9-2.2c0.2,0.2,1.2-0.5,1.7-0.5c6-0.1,12-0.7,17.8,0.1c5.2,0.7,9.8,3,15.4,1c4.3-1.5,7.4-2,3.8-7.2
	c-0.3-0.4,0.2-1.5,0.4-2.3C431.2,521.1,433.9,509.1,437.1,496.5 M669.6,154c8.6,1.7,17.3,3,25.8,5.1c12.2,3,24.3,6.6,36.3,10.1
	c3.7,1.1,7,3.2,10.6,4.5c0.9,0.3,2.3-0.5,3.4-0.8c-0.7-0.6-1.2-1.4-2-1.9c-3.3-2-6.6-4-10-6c-12.2-7-24.7-13.6-36.7-21.1
	c-8.1-5.2-15.5-11.7-23.2-17.6c-4.9-3.8-9.9-7.4-14.6-11.3c-3-2.4-5.8-4.6-8.6,0c-4.5,7.4-9.1,14.8-13.5,22.4c-1.3,2.2-2,4.8-3,7.2
	c2.4,0.8,4.9,1.6,7.4,2.4c0.3,0.1,0.5,0.6,0.7,0.7C651,149.8,659.8,151.9,669.6,154 M643.1,370.5c2.1-3.8,4.2-7.6,6.3-11.3
	c7.8-13.5,15.6-26.9,23.3-40.4c0.9-1.5,1.7-3.9,1.1-5.3c-1.8-4.8-11.3-6.3-14.9-2.7c-5.5,5.3-10.9,10.7-16.2,16.2
	c-8.6,8.7-17,17.6-25.5,26.4c-1,1.1-2.1,2.1-3.1,3.1c1.6,0.5,3.2,1.1,4.9,1.5c6.4,1.4,12.9,2.5,19.3,4.1c2.8,0.7,4,5.1,1.9,6.1
	c-3.8,2-8.1,4.8-12,4.5c-8.8-0.5-17.5-2.4-26.1-4.3c-6.1-1.3-8.2-0.6-10.2,5.3c-3.3,9.4-4.7,19.8-13.5,26.5
	c-0.1,0.1-0.2,0.2-0.3,0.3c-0.3,0.7-0.7,1.4-1,2.1c0.8,0.1,1.8,0.6,2.3,0.4c4.8-2.6,9.5-5.3,14.2-8.1c0.3-0.2,0.4-1.1,0.5-1.7
	c0.3-4.4,0.5-8.7,1-13.1c0.4-3,1.2-6,1.8-9.1c2.7,2.4,5.6,4.6,8.1,7.2c0.9,1,0.8,3,1,4.5c0.3,2.1,0.4,4.2,0.5,6.3
	c1.6-1,3.1-2.1,4.8-3C621.7,381,632.1,376,643.1,370.5 M572.6,397c2.5-2.9,5.8-5.4,7.6-8.8c6.2-12.1,9.7-25.5,17.4-37.3
	c5.1-7.7,5.7-18.2,8.5-27.4c1.9-6.2,1.7-11.8-5.1-14.9c-2.5-1.2-5.3-1.8-8.1-2.1c-6.8-0.9-11.7,3.8-11.9,10.7c0,3-0.1,6.2-1,9
	c-4,12.5-6.6,25-5,38.2c0.3,2.2-0.1,4.5-0.6,6.7c-1.7,8.3-3.6,16.5-5.3,24.8C568.4,399.1,569.9,399.1,572.6,397 M769.6,273
	c-4.5,0.6-3.8,3.8-3.3,6.8c1.2,6.5,2.8,12.9,3.7,19.4c0.7,5.7,0.4,11.5,1.3,17.2c0.2,1.2-0.4,6.1,4.8,3.9c2.4-1,6.4,2.3,9,1.5
	c7.9-2.4,15.6-5.6,23.2-8.9c1.8-0.8,3.5-2.1,2-5.4c-4.6-10.3-8.9-20.9-12.7-31.6c-1.3-3.8-3.4-5.1-6.9-4.8
	C784,271.6,777.3,272.4,769.6,273 M496.6,218c-3.5,7.3-0.9,13.8,2.5,20.2c1.9,3.6,4.9,3.6,7.6,1.6c7.1-5.5,14.2-11.1,20.9-17
	c2.5-2.1,4.6-5,6-7.9c4.2-9.2,8.2-18.6,12-28c1.5-3.9,2.6-8,3.4-12.1c0.9-4.5-2.6-3.8-4.4-2.6c-6.7,4.6-13.6,9.1-19.5,14.5
	c-8.6,8-16.4,16.8-24.5,25.3C499.2,213.6,498.2,215.7,496.6,218 M754.6,62c-0.7,0.4-1.4,0.8-2.1,1c-4.3,1.3-7.4,3.2-6.5,8.6
	c2,11.1,3.4,22.2,5.5,33.2c1.8,9.5,4.3,18.8,6.6,28.2c1.4,6.1,3,12.1,4.6,18.1c0.2,0.7,1,1.3,1.6,1.9c0.2-0.6,0.7-1.3,0.7-2
	c1.4-12.5,2.5-25.1,4.1-37.7c1.1-8.8,2.8-17.5,4.4-26.1c1-5.4,2.5-10.7,3.5-16c0.6-3,0.1-5-4.1-5.4C767.1,65.3,761.3,63.4,754.6,62
	 M782.1,410.5c0.3,1.7,0.8,3.4,0.9,5.1c0.8,13.2,9.8,20,20,25.8c2.7,1.5,5.2,1.2,5.1-2.9c-0.3-8.4-0.3-16.7-1.2-25
	c-0.4-3.7-2-8.4-4.7-10.3c-6-4.5-13-7.6-19.8-11.1c-0.3-0.2-2.3,1.2-2.2,1.8C780.7,399.1,781.4,404.3,782.1,410.5 M552.6,555
	c-3.3,4-6.6,7.9-9.9,11.9c-0.6,0.8-1,1.8-1.5,2.8c1.2-0.3,2.5-0.2,3.4-0.8c4.9-3.4,9.4-7.8,14.7-10.3c6-2.8,11.4-5.9,15.9-11
	c4.4-5,10-5.6,14.7-0.9c5.9,5.8,12.6,8.7,20.4,10.1c6,1,12.1,2.2,18.1,3.2c0.8,0.1,1.8-0.4,2.7-0.6c-0.7-0.8-1.2-1.9-2.1-2.3
	c-6.5-3.5-13.1-6.9-19.8-10.1c-8.6-4.1-17.5-7.5-25.9-12.1c-7.8-4.4-8.5-4.1-15.3,2.9C562.7,543.1,558,548.9,552.6,555 M417.6,446
	c3.1-10.3,6.2-20.7,9.5-31c1-3.2,3.9-3.6,6.4-2.7c0.7,0.2,1,3.5,0.5,5.2c-2.1,7.1-4.6,14.1-6.9,21.1c-2.3,6.6-4.6,13.1-6.7,19.7
	c-0.4,1.1,0.1,2.5,0.1,3.7c0.6-0.2,1.4-0.3,1.7-0.7c3.7-4.9,8.3-9.5,10.6-15.1c4.2-10.1,6.9-20.8,10.3-31.2c1.2-3.5,1.5-5.6-3.5-5.1
	c-2.5,0.2-5.1-1.1-7.7-1.6c-5.5-1.1-11.3,3-12.9,8.6c-4.6,16.7-9.3,33.5-13.9,50.2c-0.3,0.9-0.4,1.9-0.6,2.9c1.1-0.3,2.1-0.6,3.1-1
	c1-0.5,2-1,2.7-1.8C415.4,461.3,415.2,453.5,417.6,446 M829.6,717c5.3,5.1,11.2,8.7,19.1,7c1.8-0.4,4.9-0.7,5.1-1.5
	c0.3-2-0.1-4.7-1.2-6.3c-3.1-4.3-6.3-8.7-10.3-12c-3.4-2.8-6.1-7.1-11.5-7.3c-4.7-0.2-9.5-1-14.2-1.9c-3.9-0.8-7.8-2.2-11.7-2.9
	c-1.8-0.2-3.7,0.7-5.5,1.1c1.2,1.1,2.3,2.2,3.5,3.2C811.6,703.1,820.4,709.8,829.6,717 M801.1,450.5c-4.4-3.4-8.5-7.5-13.4-9.9
	c-2.9-1.5-7.1-0.8-10.6-0.4c-0.9,0.2-1.1,3.3-2.1,4.7c-4.9,7.1-10.2,13.9-19.2,16.1c-0.6,0.2-1.2,0.7-1.7,1.1
	c0.6,0.6,1.2,1.6,1.9,1.9c8.5,2.7,17.1,4,25.7,0.8C789.3,462,796.2,458.2,801.1,450.5 M890.1,139.5c-2.7,1-6.4,1.4-5.9,5.3
	c0.5,4.6,1.9,9.1,2.9,13.7c1.5,7.1,1.8,14.6,7.9,19.8c0.7,0.6,1.1,2,1,3c-0.2,5.4-0.6,10.7-0.9,16.1c-0.3,3.2-0.8,6.4-1,9.6
	c0,0.9,0.9,1.9,1.3,2.9c0.9-0.5,2.2-0.8,2.6-1.6c2.8-5.7,5.9-11.3,6.1-18c0.5-13.4-2.6-26.1-7-38.6
	C895.6,147.3,892.8,143.2,890.1,139.5 M765.1,438.5c1.4-1,3-1.9,4.1-3.2c1.2-1.4,2.5-3.1,2.7-4.7c0.1-1.1-1.5-3-2.7-3.5
	c-5.9-2.5-12.2-4.4-18-7.2c-4-2-5.1,0.3-6.1,3.1c-3.6,9.4-3.3,18.9-0.1,28.5c1.5,4.2,4.1,5.1,7.2,1.8
	C756.5,448.7,760.4,443.8,765.1,438.5 M345.6,555c2-6.2-1.3-9.5-6.3-9c-5.5,0.5-13.6,8.6-13.7,14.1c0,0.3,0.3,0.7,0.6,0.9
	c5.2,4.1,10.6,7.8,15.4,12.2c4.3,3.9,5.9,3.8,9.5-0.6c4.8-5.7,10-10.8,15.1-16.2c0.9-0.9,1.9-1.8,2.9-2.7c-1.6-0.2-3.4-1.1-4.5-0.5
	c-4.5,2.2-6.4,0.5-7.7-3.8c-0.3-1-2.2-1.6-3.3-2.4c-0.5,1-1.2,1.8-1.5,2.8c-1.4,4.9-2.4,10-4.2,14.8c-0.5,1.2-3.1,1.6-4.8,2.4
	c-0.1-1.4-0.4-3-0.1-4.4C343.5,560.2,344.4,557.9,345.6,555 M485.1,467.5c2.1-7.8,4.2-15.5,6.3-23.3c0.3-1.3,0.8-3.3,0.2-4
	c-2.1-2.2-8.1-0.2-9.1,3c-1.3,3.8-2.4,7.7-3.4,11.5c-3.4,13-6.7,25.9-10,38.9c-0.9,3.5-1.4,7-2,10.6c-0.1,0.9,0.3,1.9,0.5,2.8
	c0.9-0.6,2-1,2.7-1.8c2.2-2.7,3.8-6.2,6.5-8.1c3.6-2.5,4-5.4,4.4-9.2C482,481.4,483.7,475,485.1,467.5 M447.1,486.5
	c-0.4,0.5-0.9,1-1,1.6c-2.7,11.1-5.4,22.1-8,33.2c-1,4.1-2.1,8.1-3,12.2c-0.2,1.1,0.2,2.3,0.3,3.4c1-0.5,1.9-0.9,2.8-1.5
	c4.6-3.2,8.6-6.7,5.9-13.2c-0.2-0.5-0.2-1.3,0-2c2.3-9.5,4.5-19.1,7-28.5c4.6-17.5,9.4-34.8,13.8-52.3c0.4-1.5-1.5-3.6-2.4-5.4
	c-1.1,1.3-2.9,2.5-3.3,4C455,453.8,451.1,469.7,447.1,486.5 M738.6,403c1.8-2.8,5.6-5.5,2.7-9.1c-5.6-6.8-11.7-13.2-17.6-19.7
	c-1.6-1.9-2.9-1.9-4.1,0.7c-2.5,5.8-5.4,11.4-8,17.1c-1.4,2.9-0.9,4.9,2.6,6.1c6.2,2.1,12.3,4.8,18.6,6.8
	C734.2,405.3,736.3,404,738.6,403 M695.6,620c-3.5,1.7-0.2,2.7,0.5,3.4c10.3,10.2,20.7,20.3,31.2,30.2c2,2,4.4,3.8,6.9,4.9
	c2.7,1.2,5.8,1.4,8.8,2.1c-1.5-2.9-2.5-6.1-4.5-8.5c-4.8-5.9-9.9-11.7-15.2-17.2c-3-3.2-6.1-6.7-9.8-8.7
	C708.2,623.5,702.2,622,695.6,620 M700.1,636.5c-10.4-10.5-19.8-22.4-35.2-26.1c-1.4-0.3-3-0.2-4.4-0.3c0.6,1.3,1,2.9,2.1,3.8
	c10.2,9,20.2,18.3,30.9,26.8c6,4.8,13.2,8.2,19.9,12c0.9,0.5,2.4-0.1,3.7-0.2c-0.8-1-1.3-2.3-2.2-3.1
	C710.2,645.2,705.4,641.1,700.1,636.5 M725.1,469.5c0.8,6.1-1.2,11.6-4.1,16.8c-1.1,2.1-2.6,3.9-3.6,6c-0.6,1.4-0.6,3.1-0.8,4.7
	c1.2-1,2.5-1.8,3.4-3c6.8-8.5,13.3-17.2,20.3-25.5c2.5-3.1,2.7-5.4-0.2-8c-6.1-5.2-9.8-11.6-10.1-19.7c0-0.9-1-1.8-1.5-2.7
	c-0.5,0.8-1.3,1.6-1.4,2.4c-0.4,4.7-0.8,9.4-1,14.1C725.8,459.4,725.7,464.2,725.1,469.5 M872.6,252c-5.5,8.8-10.7,17.7-16.4,26.2
	c-6.8,10.3-15.2,19.2-25.2,26.5c-3.8,2.7-7.1,6.1-10.4,9.5c-0.5,0.5,0.5,2.4,0.8,3.7c0.7-0.6,1.4-1.2,2.1-1.8
	c0.9-0.9,1.7-2.1,2.8-2.8c12.8-7.7,23.3-17.8,31.9-30c10.6-14.8,20.4-30.1,25.8-47.8c0.5-1.4,0.5-2.9,0.7-4.4
	c-1.3,1.2-3,2.2-3.8,3.7C878.1,240.3,875.7,245.9,872.6,252 M793.1,710.5c1.7,2.5,3,6.3,5.3,7.1c8.8,2.7,17.9,4.4,26.9,6.4
	c0.8,0.1,1.8-0.6,2.8-0.9c-0.8-0.7-1.5-1.5-2.4-2.1c-3.2-2.2-6.6-4.2-9.7-6.6c-10.4-7.9-20.7-16-31.1-23.9c-0.9-0.8-2.4-0.8-3.7-1.1
	c0.3,1.3,0.3,2.9,0.9,4C785.5,699,789.1,704.5,793.1,710.5 M455.1,520.5c4.8-5,4.4-11.8,5.9-18c4.5-18.3,8.7-36.7,13.1-55
	c0.6-2.6,1.4-5.1,1.9-7.7c0.1-0.8-0.6-1.8-0.9-2.8c-1,0.6-2.2,1.1-3,1.9c-0.6,0.6-0.8,1.7-1,2.6c-4.7,17.3-9.4,34.7-14,52.1
	c-2.1,8-4.1,16-6,24c-0.3,1.6,0.2,3.5,0.4,5.3C452.5,522.3,453.5,521.6,455.1,520.5 M500.6,440c-0.5,1-1.2,1.9-1.5,2.9
	c-3.4,12.1-6.7,24.2-10,36.3c-0.5,1.8-0.7,3.7-1,5.6c-0.1,0.6,0.1,1.3,0.2,1.9c0.6-0.4,1.3-0.7,1.7-1.2c2.9-3.1,5.2-7.1,8.6-9.2
	c3.9-2.3,4.1-4.8,3.5-8.3c-0.2-1-0.4-2-0.6-2.9c1.1,0.1,2.3,0,3.3,0.3c0.9,0.2,1.8,0.7,2.4,1.4c1.4,1.3,1.5,1.5,2-0.7
	C511.3,456,507.9,447.6,500.6,440 M745.1,315.5c-2,3.4-2,5.3,2.9,4.6c2.3-0.3,4.7,0.5,7.1,0.9c5.1,1,6.1,0.3,6-4.7
	c-0.3-12.8-0.7-25.6-1.1-38.4c0-0.8-0.4-1.7-0.7-2.6c-0.8,0.8-2,1.4-2.3,2.4c-2.1,5.5-4,11-5.9,16.5c-0.3,0.9,0,2,0,3
	c-0.2,2.6,0.1,5.4-0.7,7.9C749.2,308.5,747.2,311.7,745.1,315.5 M869.6,114c0.8,1,1.8,1.9,2.4,3c2.8,5.2,5.7,10.3,7.9,15.7
	c1.4,3.3,3.7,2.4,5.6,2.1c0.6-0.1,1.5-3.6,0.8-4.8c-3.2-6.1-6.1-12.6-10.6-17.5c-11.1-12-22.4-23.9-36.4-32.7
	c-1.3-0.8-2.8-1.5-4.2-1.7c-0.9-0.1-2,0.9-2.9,1.3c0.5,0.9,0.9,2,1.7,2.6c1.8,1.1,3.8,1.9,5.7,3C851.3,92.6,860.2,103,869.6,114
	 M491.1,663.5c1.3,3.6,2.2,7.4,3.9,10.9c3.8,7.8,11.1,11.8,18.3,15.5c5.3,2.8,11,4.9,16.6,7c0.8,0.4,2.1-0.2,3.2-0.4
	c-0.5-1.2-0.8-2.4-1.5-3.4c-4.3-5.9-10.9-8.1-17.3-10c-12.5-3.6-20.4-13.1-20.1-25.8c0.1-4.7,1.3-9.4,1.8-14.1
	c0.2-1.7-0.3-3.5-0.5-5.2c-1.2,1.4-2.7,2.6-3.4,4.1C489.2,648.9,489.8,656,491.1,663.5 M690.6,666c-0.4-0.3-0.7-0.8-1.1-1
	c-10.7-3-21.5-5.9-32.2-9c-3.7-1.1-7.2-2.8-10.8-3.9c-1.3-0.4-2.9,0.2-4.3,0.3c0.8,1,1.5,2.2,2.6,2.8c8,4.3,15.9,9,24.2,12.6
	c4.2,1.9,9.2,2.1,13.9,2.5c6.8,0.5,13.6,0.6,20.4,0.6c0.9,0,1.8-1.3,2.8-2c-1-0.6-1.9-1.7-3-1.8C699.3,666.6,695.4,666.4,690.6,666
	 M672.6,630c-5.4-5-11.7-9.4-16-15.3c-6.2-8.5-15.1-7.4-23.5-8.6c-0.9-0.1-2,1.1-3,1.7c0.7,0.8,1.3,1.9,2.2,2.2
	c14,4.7,25.4,13.4,36.4,23c3.1,2.6,7.2,4.1,10.9,6c0.7,0.4,1.6,0.4,2.4,0.6c-0.3-1-0.3-2.4-1-3C678.5,634.4,675.7,632.5,672.6,630
	 M762.1,696.5c-0.7-3.4-1.4-6.7-2-10.1c-0.3-1.5-0.7-2.9-1-4.4c-1.6,0.8-3.9,1.2-4.8,2.5c-3.4,4.6-6.2,9.4-9.2,14.2
	c-2,3-1,5,2.2,6.1c4.6,1.5,9.1,3,13.6,4.5c0.9,0.3,1.8,0.5,2.7,0.7c0.2-1.1,0.6-2.3,0.4-3.3C763.5,703.6,762.7,700.6,762.1,696.5
	 M622.1,166.5c2.6-9.2,5.2-18.5,7.7-27.7c0.3-1.5-0.1-3.2-0.2-4.7c-1,1-2.1,2-3.1,3.1c-0.2,0.2-0.3,0.5-0.4,0.8
	c-7.1,17.6-11.4,35.8-11,54.8c0.1,4.1,0.6,8.1,1,12.1c0.1,1,0.9,2,1.3,3c0.8-0.8,2.2-1.4,2.4-2.2c0.3-2.6,0.1-5.4,0.3-8.1
	C620.7,187.6,621.4,177.6,622.1,166.5 M768.1,698.5c0.3,1.7,0.5,3.4,1,5.1c1.1,3.2,1.5,7.9,3.7,9.1c4.1,2.2,9.3,2.4,14,3.3
	c0.7,0.1,1.5-0.3,2.3-0.5c-0.4-0.7-0.7-1.4-1.1-2c-4.3-7.7-8.5-15.4-13.1-22.9c-1.1-2-3.4-3.2-5.4-4.6c-4.5-3.1-3.6,0.9-3.3,2.9
	C766.5,691.8,767.4,694.6,768.1,698.5 M667.6,646c10.9,3.4,21.8,6.7,32.8,10c0.5,0.2,1.1,0.2,1.7,0.4c-0.3-0.6-0.4-1.3-0.9-1.7
	c-0.8-0.6-1.8-1.3-2.8-1.7c-11.1-4.3-22.3-8.7-33.5-13c-12.2-4.6-24.5-9-36.8-13.4c-1.2-0.4-2.7,0-4,0c0.9,0.5,1.8,1.2,2.7,1.6
	c1.9,1,3.9,2,5.8,2.9C644.1,635.9,655.6,640.7,667.6,646 M660.1,282.5c-0.3-0.5-0.4-1.1-0.8-1.5c-4.7-4-12.3-4.5-14.5-11.7
	c-0.8-2.6-2.1-5.1-3.5-7.5c-4.3-7.7-8.8-15.3-13.2-23c-0.9-1.5-1.9-2.9-3-4.2c-0.3-0.4-1.1-0.3-1.7-0.4c0.2,0.5,0.4,1,0.7,1.4
	c3.8,8.1,7.8,16.1,11.3,24.3c5.5,13.3,16.2,22.3,26.2,31.9c0.9,0.9,3,0.4,4.6,0.6c0-1.4,0.5-3.2-0.2-4.2
	C664.5,286.2,662.4,284.7,660.1,282.5 M175.6,470c1-0.3,2.1-0.6,3-1c6.8-3.4,7.8-3,10.5,4.3c0.1,0.4,0.5,0.8,0.9,1.1
	c1,0.9,2.2,1.7,3.3,2.6c0.1-1.3,0.6-2.6,0.4-3.8c-1.5-10.3-9.8-14.6-17.5-19.3c-1.1-0.7-3.3-0.4-4.6,0.2c-6.4,3.1-1.9,8-1.8,12.2
	C169.9,469.5,171.6,470.5,175.6,470 M814.6,688c2.2,0.7,4.4,1.5,6.7,2c0.8,0.2,1.8-0.3,2.7-0.5c-0.5-0.9-0.9-2.1-1.7-2.7
	c-3.4-2.2-7.4-3.7-10.2-6.5c-7.8-7.3-17.1-7.8-26.7-7.2c-1.1,0-2,0.7-3,1.1c0.1,0.4,0.2,0.9,0.5,1.1c3.3,2.2,6.6,6,10.2,6.4
	C800.5,682.5,806.7,686.2,814.6,688 M855.6,729c-2.1,0.4-4.1,0.6-6.1,1.1c-1.2,0.2-2.3,0.8-3.4,1.3c1.2,0.9,2.5,2.6,3.7,2.5
	c5.3-0.4,10.7-1,16-2.2c4.9-1.2,5.6-4.3,2.7-8.8c-3.2-4.7-6.1-9.5-9.5-14c-2.6-3.3-5.7-6.3-8.9-9.1c-0.8-0.7-2.6-0.3-3.9-0.4
	c0.5,0.9,0.9,2,1.6,2.8c2.4,2.8,5,5.5,7.3,8.4C860.4,717.4,862.9,724.7,855.6,729 M774.6,657c-3.9-3.2-5.8-2.9-8.6,1.1
	c-0.8,1.2-2.1,2.1-2.7,3.3c-1,1.8-2.3,3.9-1.9,5.5c0.2,1,3.2,2,5,2c7.3-0.1,14.6-0.5,21.9-0.9c1.3-0.1,2.5-0.7,3.8-1
	c-1-1-1.9-2.3-3-2.9C784.6,661.6,780.1,659.4,774.6,657 M741.6,678c-3.5,3.5-7.5,6.6-10.4,10.5c-5.2,6.8-4.9,7,2.2,10.3
	c2.7,1.2,5,0.9,6.6-2.1c2-4,4.4-7.9,6.6-11.7c1.1-1.9,2.3-3.7,3.4-5.6c-2.2-0.4-4.3-0.9-6.4-1.4C743.2,678,742.9,678,741.6,678
	 M623.6,633c-0.7-0.3-1.4-0.8-2.1-0.9c-1.8-0.3-3.6-0.4-5.4-0.6c0.9,1.3,1.7,2.7,2.8,3.8c1.1,1.1,2.4,2.1,3.8,2.7
	c10.3,4.1,20.6,8.2,31,11.9c5.8,2.1,11.9,3.5,17.9,5.1c0.7,0.2,1.5-0.2,2.3-0.3c-0.6-0.6-1.2-1.3-2-1.6c-4.7-2-9.4-3.9-14.1-5.8
	C646.6,642.7,635.3,638.1,623.6,633 M763.6,408c2,2.7,3.9,5.4,6,8c0.9,1,2.3,1.7,3.5,2.5c0.3-1.7,1.1-3.4,0.8-5
	c-0.7-5.8-1.8-11.5-2.9-17.2c-0.2-1.4-0.7-2.7-1.2-4c-1.3,0.5-2.8,0.9-4,1.6c-1,0.6-1.7,1.6-2.5,2.4C757.6,402,757.6,402,763.6,408
	 M507.1,517.5c1.9-2.3,7.1-0.4,6.9-5.8c-0.2-3.6,0.8-7.3,1-10.9c0.1-1.5-0.5-3.2-1.2-4.4c-1.1-1.9-2.4-2.1-3,0.4
	c-0.5,2.2-0.7,4.4-1.5,6.4c-3.1,7.7-6.5,15.2-9.7,22.9c-0.5,1.3-0.4,2.9-0.6,4.4c1.9-0.5,3.9-0.6,5.4-1.5c1-0.6,1.4-2.4,1.6-3.7
	C506.4,522.9,506.4,520.4,507.1,517.5 M391.6,451c0.5-3.1,1-6.2,1.4-9.3c0.1-0.8-0.3-1.7-0.5-2.6c-0.8,0.6-1.9,1.1-2.4,1.9
	c-0.8,1.5-1.6,3-2,4.7c-1.4,5.5-2.9,11.1-4,16.7c-0.9,4.8-1.5,9.7-1.9,14.6c-0.1,1,1.1,2,1.7,3c0.7-0.9,1.8-1.7,2.1-2.7
	c0.8-2.8,1.4-5.8,1.9-8.7C389,462.9,390,457.2,391.6,451 M690.6,680c4.3,1.7,8.5,3.6,12.9,4.8c1.9,0.5,4.7,0,6.2-1.2
	c2.8-2.2,4.9-5.2,7.2-7.9c0.3-0.5,0.7-1.5,0.5-1.7c-0.5-0.4-1.3-0.9-1.9-0.8c-8.5,1.2-16.9,2.7-25.3,3.7
	C685.9,677.5,688.4,678.7,690.6,680 M479.1,431.5c0.3-0.8,0.4-2,1-2.5c1.6-1.5,3.4-2.7,5.1-4c0.6,1.9,1.7,3.7,1.8,5.5
	c0,3,1.5,4.1,3.9,3.4c1.6-0.5,3.5-1.9,4-3.3c0.8-2.1,1.5-4.9-1.3-6.5c-3.1-1.7-6.3-3.4-9.6-4.5c-1.4-0.4-4.2,0.1-4.9,1.2
	c-1.8,2.6-3.1,5.7-3.9,8.8C474.6,431.9,475.2,434.3,479.1,431.5 M635.6,622c5.5,2.6,11.1,5.3,16.7,7.6c1.3,0.6,3.1,0.1,4.7,0
	c-1.1-0.8-2.1-1.9-3.2-2.6c-8-4.7-16.1-9.3-24.1-14c-2.1-1.2-8,1.2-8.5,3.5c-0.1,0.4,1.3,1.2,2.1,1.5
	C627,619.4,630.8,620.7,635.6,622 M722.1,690.5c3.5-4.5,7-9,10.5-13.5c0.4-0.6,0.5-1.3,0.8-2c-3.7,0.5-7.8-2.2-11,1.3
	c-2.7,2.9-5,6.2-7.4,9.3c-1.9,2.5-1,4.9,2.1,5.4C718.6,691.2,720.1,691,722.1,690.5 M735.1,445.5c0.9,1.6,1.8,3.3,2.8,4.8
	c0.4,0.7,1.2,1.1,1.8,1.6c0-0.9,0.3-1.8,0-2.7c-2.8-9.3-2.4-18.6,0.5-27.8c0.5-1.5,0.8-3.1,0.8-4.7c-0.1-0.9-1-1.8-1.6-2.7
	c-0.8,0.7-1.9,1.2-2.3,2.1c-1,2.6-1.7,5.3-2.5,7.9C732.4,430.9,732.9,437.7,735.1,445.5 M401.6,456c0.5-2.6,1.1-5.1,1.7-7.7
	c0.2-0.7,0.3-1.4,0.5-2.1c-0.8,0-1.8-0.4-2.3,0c-1.3,1-2.9,2.1-3.3,3.5c-2.2,7.9-4.2,15.8-6.1,23.8c-0.2,1,0.2,2.2,0.3,3.3
	c1-0.5,2.7-0.9,3-1.7C397.4,468.9,399.2,462.7,401.6,456 M363.1,463.5c-2.4,6-4.8,12-6.9,18c-0.5,1.3,0.1,2.9,0.2,4.3
	c0.9-1.1,2-2.2,2.6-3.5c2.4-4.4,3.6-10.1,7.1-13.3c4.2-3.9,4.5-8.1,4.9-12.9c0.1-0.6-0.1-1.2-0.2-1.9c-0.5,0.4-1,0.6-1.4,1
	C367.3,457.6,365.2,460.1,363.1,463.5 M447.6,601c2.5-1.5,4.9-3.4,7.6-4.4c5.4-2.1,5.1-6.5,4.8-10.9c0-0.6-0.3-1.1-0.5-1.7
	c-0.5,0.5-1,0.9-1.4,1.4c-5.3,5.6-10.8,10.9-18.2,13.7c-0.7,0.3-1.2,1.3-1.8,1.9c0.8,0.7,1.7,1.9,2.4,1.8
	C442.5,602.5,444.5,601.7,447.6,601 M695.1,275.5c-4.1,5.1-8,10.5-12.5,15.3c-2.4,2.5-0.1,4.2,0,6.2c1.5-1,3.4-1.7,4.4-3
	c3.9-5.5,7.6-11.1,11.3-16.8c0.8-1.2,0.9-2.7,1.4-4.1C698.3,273.8,696.9,274.4,695.1,275.5 M823.6,682c1.5,1.2,3,2.4,4.5,3.5
	c3.3,2.4,6.6,4.9,10.1,7c0.7,0.5,2.2-0.3,3.4-0.5c-0.3-0.9-0.2-2.3-0.8-2.7c-8.7-5.5-17.5-10.9-26.2-16.3c-0.7-0.4-1.6-0.4-2.4-0.6
	c0.4,0.8,0.6,1.9,1.2,2.4C816.6,677.1,819.8,679.3,823.6,682 M754.1,644.5c-1,0.4-2.9,0.8-2.9,1.2c-0.2,3.6-0.5,7.3,0.1,10.9
	c0.5,3,3.6,3.4,5.5,1.9c2.5-1.9,4.2-4.8,6.3-7.3c-2.2-1.7-4.3-3.5-6.5-5.2C756,645.6,755.3,645.4,754.1,644.5 M375.1,504.5
	c-4,7.7-8,15.3-11.9,23c-0.4,0.7-0.5,1.6-0.8,2.4c0.9-0.2,2,0,2.7-0.5c0.8-0.6,1.4-1.6,1.9-2.6c3.8-7.1,7.5-14.2,11-21.3
	c1-2,1.1-4.3,1.6-6.5C378.1,500.5,376.6,502,375.1,504.5 M150.6,472c-5.2,3.1-10.9,16.1-9.5,21.9c0.2,0.8,1.1,1.9,1.7,2
	c0.7,0.1,2-0.8,2.2-1.5C147.3,487.2,151.7,480.6,150.6,472 M730.6,634c0.1,0.5,0.2,1,0.5,1.3c4,4.8,8,9.6,12.2,14.3
	c0.4,0.5,2,0.4,2.5,0c1.4-1.2,0-10-1.7-11c-3.7-2.2-7.5-4.3-11.4-6.3C732.2,632,731,633.1,730.6,634 M825.1,733.5
	c4.2,0.5,8.5,1.1,12.8,1.5c1,0,2.1-0.7,3.2-1.1c-0.9-0.9-1.6-2.6-2.5-2.7c-5.2-1-10.4-1.5-15.6-2.2c-2.5-0.3-5-0.8-7.6-0.9
	c-0.7,0-1.5,0.9-2.3,1.4c0.6,0.5,1.1,1.3,1.8,1.5C818.1,731.8,821.4,732.4,825.1,733.5 M402.1,433.5c0,2.4-0.1,4.8,0.1,7.1
	c0,0.2,2.7,0.4,2.7,0.2c1.5-4.8,2.9-9.7,4.1-14.7c0.2-0.6-0.4-1.4-0.6-2.1c-0.7,0.4-1.6,0.6-1.9,1.2
	C405.1,427.8,403.8,430.4,402.1,433.5 M453.1,432.5c2.3-5.8,4.7-11.6,6.9-17.5c0.3-0.8-0.4-2-0.7-3c-0.7,0.6-1.8,0.9-2.2,1.6
	c-1.8,3.8-3.5,7.5-5,11.4c-0.9,2.1-1.5,4.4-1.9,6.6C450.1,431.9,451.7,432.5,453.1,432.5 M136.6,498c-0.7-1.6-1.4-3.3-2.1-4.9
	c-0.8,1.6-1.7,3.2-2.4,4.9c-0.4,1-0.9,2-1,3.1c-0.2,2.3-0.2,4.6-0.2,6.9c2.3-1.4,5-2.6,6.9-4.5C138.5,502.8,137.4,500.2,136.6,498
	 M319.6,550c-1.3,2.3-2.6,4.6-3.9,6.9c-0.1,0.3,0.2,0.7,0.3,1.1c1.8-0.6,4.3-0.8,5.4-2.1c2-2.4,3.2-5.5,4.7-8.4
	c0.6-1.1,1-2.3,1.5-3.5c-1.7,0.4-3.7,0.3-5,1.2C321.4,546.1,320.9,548,319.6,550 M469.1,425.5c0.6-2.7,1.4-5.3,1.9-8.1
	c0.1-0.7-0.5-1.6-0.8-2.4c-0.8,0.3-2.2,0.4-2.5,1c-1.3,2.7-2.7,5.5-3.5,8.4c-0.4,1.3,0.3,3.1,0.6,4.6
	C466.2,428.2,467.6,427.4,469.1,425.5 M429.1,467.5c-0.8-0.5-1.9-1.6-2.3-1.4c-4.1,2.1-8,4.5-12.1,6.7c-0.5,0.3-1.1,0.5-1.6,0.8
	c0.6,0.4,1.2,1.2,1.9,1.4C419.7,476.3,426.2,473.3,429.1,467.5 M380.6,447c-0.9,0.3-2.4,0.5-2.4,1c-1,5.6-2,11.3-2.6,17
	c-0.1,0.9,1.3,2,2,3c0.5-1,1.3-1.9,1.4-2.9C379.8,459.2,380.4,453.4,380.6,447 M651.6,102c-1.6,1.4-3.4,2.5-4.8,4.1
	c-2.3,2.5-4.4,5.3-6.3,8.1c-0.6,0.9-0.1,2.4-0.1,3.7c0.9-0.5,2.1-0.8,2.7-1.5c3.7-4.6,7.3-9.2,10.9-13.8
	C653.4,102.2,652.7,101.9,651.6,102 M472.1,572.5c0.6,2.1,1.2,4.1,2,6.1c0.4,0.9,1.2,1.6,1.8,2.4c0.7-0.9,2.1-1.9,2-2.7
	c-0.3-3-1.1-6-1.9-9c-0.3-1.1-1-2.2-1.5-3.2c-0.8,1.1-1.7,2.2-2.4,3.5C471.8,570.1,472.1,570.9,472.1,572.5 M480.1,557.5
	c-2.7,5.6,1.8,9.6,3.3,14.2c0.1,0.2,2.3,0.2,2.6-0.2C487.2,569,483.3,558.8,480.1,557.5 M488.1,556.5c0.3,1,0.6,2.1,1,3.1
	c0.5,1.1,1.1,2.3,1.7,3.4c0.8-1.3,1.9-2.6,2.2-4.1c0.2-1.4-0.3-3.2-1-4.4c-1.2-2-2.9-3.7-4.4-5.5
	C487.6,551.4,487.6,553.7,488.1,556.5 M510.1,478.5c0.3,1.4,0.4,2.8,1,4c0.6,1.3,1.6,2.4,2.5,3.5c0.5-1.3,1.2-2.5,1.4-3.8
	c0.3-1.6,0.5-3.4,0-4.9c-0.7-1.9-2-3.5-3.1-5.3C511.3,473.9,510.7,475.7,510.1,478.5 M775.6,334c3.2-0.9,6.5-1.8,9.7-2.7
	c0.6-0.2,1.2-0.5,1.7-0.7c-0.6-0.4-1.3-1-1.9-1c-3.7,0-7.3,0.1-10.9,0.5c-1.2,0.2-2.1,1.8-3.1,2.7
	C772.2,333.2,773.4,333.6,775.6,334 M751.6,409c-0.2,2.7,7.2,8.1,9.7,7c0.3-0.2,0.6-1.5,0.4-1.8c-2.3-2.4-4.6-4.8-7-6.9
	C754.4,407,753,408.1,751.6,409 M463.1,582.5c0.3,1,0.5,2.1,1,3.1c0.5,1.1,1.2,2.1,1.8,3.1c1-1.2,2.2-2.3,3.1-3.6
	c0.3-0.3,0.2-1,0.1-1.5c-0.6-2.2-1.2-4.4-1.8-6.6C466.1,578.7,464.8,580.4,463.1,582.5 M622.1,218.5c0.1-1.1,0.4-2.2,0.3-3.3
	c-0.2-1.5-0.6-3-1.2-4.4c-0.1-0.4-1.8-0.5-1.9-0.4c-0.5,1.3-1,2.6-1.2,4c-0.2,1.8-0.3,3.6,0.1,5.4c0.2,1.2,1.3,2.2,2,3.2
	C620.8,221.9,621.5,220.7,622.1,218.5 M357.6,512c-2.1,3.1-4.3,6.2-6.3,9.4c-0.4,0.5-0.1,1.5-0.1,2.3c0.6-0.4,1.4-0.6,1.8-1.1
	c3.1-4.4,6.1-8.7,9.1-13.1c0.5-0.9,0.6-2,0.9-3.1c-0.9,0.7-2,1.2-2.8,2C359.4,509.3,358.8,510.5,357.6,512 M742.6,409
	c2.5-2.3,5-4.7,7.4-7.2c0.1-0.1-1.1-1.6-1.7-2.5C746,402.6,741.2,404,742.6,409 M584.6,550c-0.7,0-1.5-0.2-2,0.1
	c-1.5,0.8-3,1.7-4.5,2.7c1.5,0.4,2.9,0.9,4.4,1.2c0.8,0.2,1.7,0.1,2.5,0c1.3-0.1,2.7-0.4,4.1-0.6C587.9,552.3,586.7,551.1,584.6,550
	 M418.6,619c1.2-2.6,2.5-5.1,3.7-7.8c0.1-0.2-0.6-1.1-0.9-1.1C417.6,610.3,416.2,613.9,418.6,619 M738.6,62c3.1-0.8,6.3-1.6,9.4-2.5
	c0.2-0.1,0.4-1.3,0.2-1.4C745.9,56.9,739.4,59.4,738.6,62 M676.1,302.5c1.6,0.3,3.3,0.6,5,1c-1.3-1.6-2.6-3.2-3.8-4.8
	c-0.1-0.1-0.3-0.3-0.4-0.3c-1.3,0.1-2.5,0.2-3.8,0.3C673.9,299.8,674.7,300.9,676.1,302.5 M357.6,502c1.8-3.2,3.7-6.4,5.4-9.6
	c0.3-0.6-0.2-1.5-0.4-2.3c-0.4,0.4-1.1,0.7-1.3,1.3C359.8,494.7,358.5,498.1,357.6,502 M497.1,542.5c-0.7,2.2-1.5,4.4-1.9,6.6
	c0,0.2,2,0.8,3,1.3C498,547.6,497.8,544.8,497.1,542.5 M365.1,482.5c0.1,0.8,0.2,1.6,0.3,2.4c0.7-0.3,1.8-0.4,2-0.8
	c1-2.7,1.8-5.5,2.6-8.3c0.1-0.2-0.6-0.5-0.9-0.8c-1.4,1.9-2.7,3.7-4,5.5C364.9,480.8,365.1,481.2,365.1,482.5 M761.1,205.5
	c-0.8,1.2-1.8,2.2-2.4,3.5c-0.8,1.6-1.4,3.3-2,5c1.8-1.2,4-2.1,5.2-3.7c1-1.3,0.8-3.6,1.2-5.4C762.6,204.9,762.1,205,761.1,205.5
	 M893.6,226c0.8-2.6,1.8-5.2,2.4-7.8c0.2-1-0.3-2.1-0.5-3.1c-0.8,0.9-2.2,1.8-2.3,2.9C892.8,220.5,893.1,223,893.6,226 M755.6,394
	c-0.6,0.6-1.6,1.1-1.7,1.8c-0.2,1.5,0.1,3.1,0.1,4.7c0.5-0.1,1.4-0.2,1.4-0.4C755.4,398,759.8,396.7,755.6,394 M404.1,476.5
	c1.9,0.1,3.8,0.4,5.7,0.2c0.4,0,0.8-1.5,1.2-2.3c-1.5,0.2-2.9,0.3-4.4,0.7C405.9,475.2,405.3,475.7,404.1,476.5 M198.1,674.5
	c2.8,3.3,3-1.1,4.5-1.6c0.9-0.4,1.4-1.8,2.1-2.7c-1.3,0.2-2.8,0.2-3.9,0.9C199.8,671.7,199.3,673,198.1,674.5 M613.1,601.5
	c-0.6-1.4-1.2-2.9-1.7-4.3c-0.3,1.7-1,3.3-0.9,5c0,1.3,0.9,2.5,1.4,3.8C612.3,604.9,612.7,603.7,613.1,601.5 M332.1,499.5
	c0.5,0.8,1.1,1.5,1.7,2.3c0.7-1.5,1.6-2.9,2.2-4.5c0.1-0.2-0.5-0.8-0.8-1.3C334.3,497,333.4,498,332.1,499.5 M751.6,226
	c-0.1,0.3-0.3,0.5-0.3,0.7c0,0.1,0.2,0.3,0.3,0.3c1.5-0.2,3.3-0.1,4.4-0.9c0.5-0.4,0-2.5-0.1-3.7c-1.2,0.9-2.3,1.8-3.5,2.8
	C752.3,225.3,752.2,225.4,751.6,226 M711.6,658c-1.1-0.1-2.3-0.2-3.4-0.3c-0.3-0.1-0.7-0.2-1-0.3c-0.1,0.3-0.1,0.7-0.1,1
	C708.7,658.2,710.3,661.6,711.6,658 M338.6,539c-0.5,0.1-1,0.2-1.4,0.4c-0.6,0.4-1.3,0.9-1.9,1.4c1.1,0,2.3,0.3,3.3,0
	C338.9,540.8,338.9,539.3,338.6,539 M378.1,481.5c-0.7-0.5-1.5-1-2.2-1.5c-0.3,0.5-0.5,0.9-0.8,1.4
	C375.9,481.6,376.7,481.8,378.1,481.5 M704.1,656.5c-0.2-0.1-0.4-0.2-0.6-0.4C703.5,656.4,703.5,656.7,704.1,656.5"/>
<path d="M310.1,225c-1-9.2-2-18-3.1-26.7c-0.1-0.8-1-1.5-1.5-2.2c-0.8,1.2-1.9,2.2-2.4,3.5c-1.5,4.1-2.4,8.4-4.2,12.3
	c-0.8,1.7-3.3,4-4.7,3.8c-1.9-0.2-4-2.4-5-4.2c-1.8-3.4-2.7-7.2-4.2-10.8c-0.4-1-1.7-1.7-2.6-2.5c-0.5,1.2-1.3,2.3-1.2,3.5
	c0,2.2,0.9,4.4,0.8,6.5c-0.2,12.6-0.5,25.1-1,37.6c-0.1,2.4-0.6,5.7-4.1,5c-1.2-0.3-2.7-3.2-2.7-4.9c0.1-14.2,0.4-28.3,0.9-42.5
	c0.2-4.6,0.9-9.2,2.1-13.6c1-3.6,4.6-4.2,6.8-1.2c3.4,4.5,6.1,9.5,9.1,14.2c0.6,1,1.1,2.1,1.6,3.1c0.8-1.2,1.8-2.3,2.3-3.5
	c2-4.9,3.7-9.9,5.9-14.6c0.8-1.6,2.8-3.5,4.3-3.5c1.3,0,3.2,2.2,3.7,3.8c1.7,5.4,3.2,10.8,4.1,16.3c2.2,13.8,4.2,27.6,5.9,41.5
	c0.3,2.1-1,4.5-2,6.6c-0.2,0.3-3,0.2-3.6-0.6c-1.1-1.4-1.9-3.3-2.2-5.2C312,239.7,311.1,232.6,310.1,225"/>
<path d="M165.1,524c3,16.9,5.5,33.4,9.1,49.7c2.5,11.1,6.3,22,12.9,31.6c1,1.4,2.4,2.8,3.9,3.7c2.7,1.6,5.5,2.9,2.9,6.9
	c-0.3,0.3,0.5,1.8,1.1,2.1c3.9,1.7,7.8,2.4,12.3,1.5c6.2-1.2,12.6-1,18.9-1.5c3.3-0.3,6.6-1.2,9.9-1.4c2.2-0.2,4.5,0.4,6.8,0.7
	c-1.5,1.6-2.7,3.8-4.6,4.8c-7.7,4.1-16.1,3.3-24.4,2.3c-2.8-0.4-5.6-0.6-8.4-0.3c-11.6,1.4-16.5-1.4-21.5-12.2
	c-0.8-1.9-2.7-3.2-3.9-4.9c-8.4-11.6-11.4-25-14-38.7c-3-15.2-6.1-30.5-8.9-45.7c-0.3-2,0.8-4.3,1.2-6.4c1.6,1.4,3.2,2.7,4.6,4.2
	C163.9,521.3,164.4,522.5,165.1,524"/>
<path d="M232.1,220c-2.3-11.2-1.6-28.2,6-34.6c4.2-3.6,8.5-3.3,10.9,1.8c3.2,7.2,6.3,14.4,8.5,21.9c3,10,5.1,20.3,7.5,30.4
	c0.3,1,0.4,2.2,0,3c-0.9,1.6-2.2,3-3.4,4.5c-0.9-1.2-2.3-2.3-2.7-3.7c-2.1-8.7-3.6-17.5-5.9-26.1c-1.8-6.6-4.5-13.1-6.8-19.6
	c-0.1-0.3,0-0.7-0.1-1c-1.3-2.2-2.6-4.4-4-6.6c-1.2,2.4-3.1,4.7-3.5,7.2c-0.9,4.9-1.2,9.9-1.5,14.9c-0.2,4.2,3.2,2.8,5.4,2.8
	c2,0.1,4.1-1.1,6-0.7c1.4,0.2,2.4,2.1,3.6,3.3c-1,0.8-1.8,2-2.9,2.5c-2.1,0.9-4.4,1.8-6.6,1.9c-5.5,0.4-4.7,4.2-4.5,7.6
	c0.5,6.4,1.4,12.7,1.8,19.1c0.1,1.1-1.5,2.3-2.3,3.4c-1.2-0.9-3.3-1.8-3.4-2.8C233.3,239.6,232.7,230.1,232.1,220"/>
<path d="M858.1,645c-5.8-1-11-1.9-16.3-3c-9.8-2-19.6-4-29.3-6.2c-1-0.2-2.4-2.1-2.2-2.8c0.2-1.1,1.8-2.9,2.7-2.8
	c3.6,0.3,7.1,1.2,10.6,1.8c8.6,1.4,17.2,2.6,25.8,4c15.6,2.6,30.9,5.9,45.7,11.5c8.4,3.1,16.9,5.7,25.4,8.4c2,0.7,4.5,1.3,3.4,3.8
	c-0.5,1.2-3.2,2.5-4.5,2.2c-7.8-1.9-15.6-4-23.3-6.4c-10.9-3.3-21.7-7-32.6-10.4C862,644.6,860.2,645,858.1,645"/>
<path d="M256.8,572.3c-1.7-4.6-4.3-8.9-4.5-13.4c-1-15.7-0.8-31.5,8.9-45c2.5-3.4,7-6.1,11-7.6c2.9-1.1,4,2.7,3.8,5.2
	c-0.5,6.6-1,13.1-2,19.6c-1.1,7.5-2.5,14.9-4,22.3c-1.1,5.8-2.3,11.6-4.2,17.2C264.4,574.8,261.3,575.2,256.8,572.3 M271.1,517.5
	c0-2.1,0-4.3,0-6.5c-0.1-0.6-0.3-1.2-0.4-1.8c-0.5,0.5-1.2,0.9-1.6,1.5c-8.3,13.3-12.9,27.6-12,43.4c0.2,3.8,1.1,7.5,1.9,11.2
	c0.1,0.7,1,1.3,1.6,1.6c0.3,0.1,1.3-0.7,1.4-1.2c1.4-8.6,2.5-17.2,4.1-25.8C267.5,532.7,269.4,525.7,271.1,517.5"/>
<path d="M852.1,626c1.1-3.4,2.8-4.6,6.2-3.4c8.9,3.3,18.1,4.6,27.7,4.5c11.1-0.2,22.3-0.7,33.4,0.1c9.3,0.6,18.5,2.8,27.7,4.3
	c2.3,0.4,4.7,0.7,6.8,1.6c1.3,0.5,2.1,2.1,3.2,3.2c-1.4,0.9-2.8,2.7-4.1,2.6c-4.9-0.4-9.8-1.3-14.6-2.1c-5.8-0.9-11.6-2.1-17.4-2.7
	c-7-0.7-14-1-21.1-1c-6.5,0-13.1,1.3-19.5,0.8c-8.2-0.7-16.3-2.4-24.3-4C854.6,629.6,853.4,627.7,852.1,626"/>
<path d="M314.1,618c-8,2.9-15.2,3.3-22.5-0.8c-3.3-1.9-4.8-3.1-1.7-6.8c3.9-4.6,7-10,10.3-15.1c0.5-0.8,0.4-2,0.6-3
	c-0.9,0.4-2.1,0.6-2.7,1.3c-3.8,4.4-7.3,9-11.1,13.3c-1.2,1.3-3.1,1.9-4.7,2.8c-0.1-2-1-4.7-0.1-5.9c4.1-5.1,8.5-10,13.2-14.4
	c1.6-1.4,4.8-0.8,7-1.6c2-0.7,3.8-2,5.6-3.2c2.7-1.8,5.2-4.4,8.2-5.4c4.5-1.6,9.1,2.3,10.6,9.2c2.3,10.1,0.9,19.5-7.4,26.8
	C318,616.4,316.2,617.1,314.1,618 M300.6,602c-1.7,2-3.8,3.8-4.9,6c-1.1,2.4-2.1,5.8,2.4,5.9c4.1,0.1,8.4,0,12.3-0.9
	c2.7-0.7,5.7-2.3,7.6-4.4c5.4-6.2,4.5-13.1,2.2-20.5c-1.3-4.3-4-3.8-6-2.4C308,589.5,302.9,594.6,300.6,602"/>
<path d="M910.1,616c-9.6,1-18.7,2.1-27.8,2.9c-1,0.1-3.1-0.9-3.1-1.4c0-2-1.4-4.9,2.3-5.5c2-0.3,4-0.9,6-0.9c12.3,0,24.1-2.3,36-4.9
	c7.9-1.7,16.1-2.2,24.2-3.2c3.7-0.4,7.5-0.9,11.2-0.9c4.2,0,8.4,0.5,12.6,1c0.9,0.1,2.1,1,2.5,1.8c0.2,0.6-0.3,2.2-0.9,2.5
	c-2.4,1-5.2,2.9-7.3,2.4c-8.2-1.8-15.9,0-23.8,1.2c-9.5,1.4-18.9,2.7-28.3,4C912.6,615.2,911.6,615.7,910.1,616"/>
<path d="M280.3,542.3c3.1-7.8,5.3-15.5,9-22.6c2-3.9,6.1-6.9,9.8-9.5c3.4-2.5,6.4-0.6,5.9,3.8c-0.7,5.6-1.3,11.4-3.2,16.6
	c-3.7,10.1-8.2,19.9-12.7,29.7c-0.9,2.1-3.1,4.1-5.2,5.2c-3.8,2-7.2-0.2-6.7-4.2C277.8,555,279.1,548.8,280.3,542.3 M291.1,543.5
	c2.6-7.5,5.4-15,7.9-22.6c0.4-1.4-0.2-3.2-0.4-4.8c-1.2,1.3-2.9,2.3-3.4,3.8c-4.5,11.6-8.9,23.3-13,35c-0.5,1.2,0.3,2.7,0.5,4.1
	c1.1-0.8,2.7-1.5,3.3-2.6C287.9,552.5,289.4,548.5,291.1,543.5"/>
<path d="M174.1,243c3.9,2.4,7.5,1,9.4-1.4c1.5-1.9,1.6-5.8,1-8.5c-1.2-5.3-5.9-7.8-10.5-10.1c-4.7-2.3-8.6-5.8-10.8-10.5
	c-2.4-5-0.8-10.5,2.3-14c4.4-5,10.7-7.8,17.7-6.3c1.2,0.2,1.9,2.5,2.9,3.8c-1.1,0.7-2.2,1.7-3.3,2c-2.5,0.5-5.1,0.4-7.6,1.1
	c-7.1,1.8-9,11-1.6,16c3.3,2.1,6.4,4.5,9.7,6.6c6.5,4.3,8.9,10.3,7.8,17.9c-0.8,5-5.8,10.3-10.9,10.3c-3.5,0-7.3-0.7-10.6-2
	c-3.2-1.3-3-4.7-2.2-7.7C169.5,241.1,171.5,242.1,174.1,243"/>
<path d="M200.1,219c-0.7-8.7-1.4-16.9-2-25.1c-0.1-2-0.8-5.1,2.5-4.7c1.6,0.3,4,2.6,4.3,4.4c1.1,6.1,1.6,12.4,2.1,18.6
	c0.8,9.4,1.3,18.8,2.1,28.1c0.4,4,0.9,7.9,2.1,11.7c1.1,3.5,4.3,4.3,7.9,4.2c1.5-0.1,3.2,1.1,4.5,2.1c0.4,0.2-0.3,1.8-0.5,2.8
	c-0.1,0.3-0.3,0.8-0.4,0.8c-3.4,0.4-6.7,0.9-10.1,1.1c-3.8,0.3-5.9-1.5-6.6-5.5c-1.1-7.1-2.7-14.2-3.9-21.3
	C201.2,230.7,200.7,225.1,200.1,219"/>
<path d="M234.1,574c-0.7-9.7-1.6-18.9-1.8-28.1c-0.1-1.6,2.2-4.2,3.9-4.7c3.6-1,7.3-0.3,8.8,3.9c1,2.9,2,6.1,2,9.1
	c0,9.3,3.5,18.6-0.9,27.7c-0.3,0.7,0.1,1.7-0.1,2.5c-0.2,1.2-0.7,2.4-1.1,3.6c-1.7-0.6-4.3-0.7-5-1.9
	C237.5,582.4,235.9,578.4,234.1,574 M239.1,574.5c0.8,1.2,1.5,2.4,2.3,3.5c0.6-1.5,1.7-3.1,1.6-4.7c-0.5-8-1.2-16-2-24
	c-0.2-1.5-1.7-2.8-2.5-4.2c-0.5,1.5-1.4,3-1.4,4.4C237.7,557.5,238.4,565.5,239.1,574.5"/>
<path d="M914.3,594.3c-7.1,3.4-13.9,6.7-20.8,9.6c-1.2,0.5-2.9-0.2-4.4-0.3c0.5-1.5,0.4-3.7,1.4-4.3c4.2-2.7,8.7-4.8,13-7.2
	c12.9-7.2,25.8-14.5,38.8-21.8c0.5-0.3,1.1-0.7,1.7-0.7c2,0.2,4,0.6,6.1,0.9c-1.1,1.8-1.6,4.5-3.2,5.4
	C936.3,582.1,925.4,588,914.3,594.3"/>
<path d="M586.1,117c4.3-8.5,7.7-17.2,13.2-24.3c6.8-8.9,15.2-16.4,23.1-24.4c0.7-0.7,2.4-0.5,3.7-0.8c-0.4,1.4-0.3,3.1-1.2,4
	c-5.2,5.9-10.8,11.5-16.1,17.3c-10.4,11.4-16.1,25.1-18.7,40.1c-0.1,0.2,0,0.4,0,0.5c-1.3,2.5-0.8,6.9-4.9,6.3
	c-1.1-0.2-2.2-4.9-2-7.4C583.6,124.6,585.1,121.1,586.1,117"/>
<path d="M837.8,554.3c-2.5-7.5-4.8-14.7-6.8-22c-0.4-1.2,0.5-2.8,0.7-4.3c1.5,0.9,3.6,1.4,4.3,2.6c3.2,5.7,3,5.6,8.2,1
	c2.2-2,5.2-3.2,8-4.5c0.7-0.2,1.9,0.9,2.9,1.4c-0.6,0.9-1.1,2-1.8,2.7c-1.2,1.1-2.5,2-3.8,2.9c-3,2-2.8,3.9,0.1,5.9
	c3.4,2.4,6.9,4.9,10.3,7.4c0.6,0.4,0.8,1.3,1.2,2c-0.9,0.2-1.8,0.5-2.7,0.6c-5.3,0.9-8.9-2.4-12.8-5c-0.7-0.5-1.1-1.4-1.8-1.7
	c-1.1-0.5-2.3-0.8-3.4-1.1c0.2,1.1,0.4,2.3,0.7,3.4c0.6,2.3,1.5,4.4,1.9,6.7c0.1,1.1-0.6,3.1-1.2,3.3
	C840.7,555.8,839.3,554.9,837.8,554.3"/>
<path d="M343.1,231c-1.7-1.1-3.8-2.1-3.9-3.3c-0.9-10.7-1.4-21.4-2.2-32.1c-0.1-2.9-0.7-5.7-0.9-8.6c-0.1-2.3-0.4-4.8,3.3-5
	c3.6-0.2,4.3,2.3,4.6,4.8c0.6,4.1,0.7,8.4,1.1,12.5c0.6,8.3,1.4,16.5,1.9,24.8C347.2,227,347.3,230,343.1,231"/>
<path d="M913.8,556.8c2.6-1.4,4.9-2.8,7.3-3.7c0.8-0.3,2.8,0.4,2.8,0.7c0.1,1.2-0.1,2.8-0.8,3.6c-2.5,2.5-5.4,4.6-8,7.1
	c-8.9,8.5-17.7,17.2-26.8,25.5c-1.5,1.5-5.2,2.6-6.6,1.8c-2.4-1.7-0.8-4.2,1.1-6c9.2-8.9,18.4-17.8,27.7-26.6
	C911.4,558.3,912.5,557.7,913.8,556.8"/>
<path d="M585.1,66c-0.7-9.7,6.1-14.7,11.7-19.9c5.9-5.5,12.8-9.8,19.3-14.6c0.1-0.1,0.2-0.3,0.4-0.4c2.8-0.6,5.6-1.1,8.4-1.7
	c-1.7,1.9-3.2,4.1-5.3,5.6c-11.5,8.6-23.5,16.6-30.8,29.7C588.2,65.7,586.3,65.9,585.1,66"/>
<path d="M273.1,634c6.8,0,13.1,0,19.4,0c0.8,0,1.8-0.2,2.5,0.1c1.7,0.7,3.4,1.8,5.1,2.7c-1.7,0.7-3.5,2.1-5.2,2.1
	c-12.9,0.2-25.9,0.3-38.9,0c-3.2-0.1-6.5-1.7-9.6-3.1c-2.8-1.4,0.2-2.2,0.8-2.3c1.9-0.4,3.9-0.5,5.8-0.4
	C259.6,633.3,266.1,633.7,273.1,634"/>
<path d="M759.1,584c-3.9-2.5-4-6-2.2-9.1c1.2-2,3.5-3.9,5.8-4.7c2.6-1,3,0.8,1.8,2.9c-2.9,5-2.9,5,3,6.9c4.4,1.4,6.9,7.4,5.2,11.9
	c-1.9,4.7-8.5,8-12.3,5.8c-1.1-0.6-1.6-2.2-2.3-3.4c1-0.4,2-1.2,3-1.2c3.2,0,5.8-1.2,5.8-4.5c0.1-3-2.5-3.8-5.3-3.6
	C761,585,760.3,584.4,759.1,584"/>
<path d="M104.1,338c1,2.9,2.4,5.3,2.8,7.8c0.3,1.6-0.9,3.5-1.4,5.2c-1.6-0.9-3.9-1.5-4.6-2.8c-3.8-7.4-7.3-14.9-10.6-22.6
	c-0.6-1.5,0.2-3.7,0.3-5.6c2.2,1,5.2,1.4,6.3,3.1C99.7,327.6,101.7,332.7,104.1,338"/>
<path d="M791.8,580.8c-3.5,6.1-9.6,7.2-12.9,2.5c-0.5-0.7-0.6-1.8-0.8-2.7c0.7,0.1,1.5,0.3,2.3,0.2c0.9,0,1.9,0,2.7-0.4
	c1.4-0.5,2.6-1.4,4-2.1c-1.4-0.8-2.9-1.3-4.1-2.3c-2.2-1.8-6.5-0.5-7-5.1c-0.7-5.5,2.2-8.6,6.5-10.8c0.9-0.6,2.2-0.5,3.4-0.8
	c-0.1,1.3,0.1,2.6-0.4,3.7c-1,2.1-2.3,4.1-3.4,6.1c2,0.9,4,1.9,6.2,2.6C793.1,573.1,792,577.1,791.8,580.8"/>
<path d="M802.3,561.8c4.3,2.2,7.7,4.5,6.8,9.8c-0.9,4.8-5.9,7.7-9.8,5.4c-0.9-0.6-1.5-1.8-2.2-2.6c0.8-0.5,1.7-0.9,2.4-1.4
	c1.2-0.9,2.4-1.9,3.6-2.9c-1.3-1-2.5-2.3-3.9-3c-6.5-3.4-8.3-8.7-3.6-12.9c1.9-1.6,5.3-1.7,8-2c0.7-0.1,1.6,1.5,2.5,2.3
	c-0.8,0.5-1.6,1-2.4,1.5c-0.5,0.4-1.1,0.7-1.6,1c-1,0.6-2,1.2-3,1.9C800.1,559.7,801.1,560.6,802.3,561.8"/>
<path d="M926.1,279c-2.9,7.4-5.7,14.4-8.9,21.2c-0.8,1.8-2.7,3.3-4.5,4.5c-0.8,0.5-2.3-0.1-3.6-0.1c0.2-1.3,0-2.8,0.7-3.7
	c5.5-7.4,8.5-16,10.7-24.9c0.6-2.1,0.9-4.2,1.6-6.3c0.3-0.7,1.4-1.1,2.2-1.7c0.6,0.9,1.6,1.7,1.7,2.6
	C926.2,273.2,926.1,275.9,926.1,279"/>
<path d="M815.1,550c0.3-6.1,3.5-9.5,8.1-8.9c1,0.1,1.9,0.9,2.9,1.4c-0.6,0.6-1.2,1.1-1.7,1.7c-3.5,4-3.4,5.3,2.5,8.7
	c4,2.4,3.8,6.2,2.9,9.2c-0.6,1.8-4.1,3.1-6.5,3.7c-1.1,0.3-2.8-1.6-4.2-2.5c1-0.7,2-1.5,3-2.3c0.7-0.6,2-1.7,1.9-1.8
	c-0.8-1.2-1.8-2.2-2.8-3.2C819.2,554.2,817.1,552.4,815.1,550"/>
<path d="M268.1,296c-1,4.6-2,8.7-3.1,12.7c-0.3,1.3-1.1,2.6-1.9,3.7c-0.5,0.7-1.8,1.7-2.1,1.5c-0.8-0.5-1.9-1.6-1.8-2.4
	c0.1-3.4,0.6-6.7,0.9-10.1c0.3-4.5,0.3-9,1.1-13.5c0.3-1.8,2.3-3.3,3.4-4.9c1.2,1.7,2.9,3.2,3.3,5.1
	C268.5,290.4,268.1,293,268.1,296"/>
<path d="M913.1,734c2.2,0.4,4.1,0.5,5.6,1.3c0.8,0.4,1.3,2.2,1.2,3.3c-0.1,0.6-1.8,1.4-2.8,1.3c-9.6-0.5-19.3-1.1-29-2
	c-0.7-0.1-1.5-2-1.9-3.2c-0.1-0.3,1.6-1.6,2.4-1.6C896.6,733.3,904.6,733.7,913.1,734"/>
<path d="M876.1,314c-0.3-0.9-0.3-2.2,0.3-2.7c7.8-6.9,14-14.8,17.7-24.7c0.5-1.4,2.2-2.4,3.3-3.6c0.3,1.6,0.9,3.3,0.6,4.9
	c-1.8,10.9-8,19-16.8,25.3C880.1,314.1,878.1,313.8,876.1,314"/>
<path d="M56.3,359.3c4.6-1.1,6.3,2.7,8.4,5.1c3.2,3.4,5.6,7.5,8.4,11.4c0.3,0.5,0.8,1,0.8,1.6c0,1.9-0.3,3.7-0.4,5.6
	c-1.7-0.7-3.9-1-5-2.2c-4.5-5.1-8.9-10.4-12.9-16C54.8,363.7,55.9,361.3,56.3,359.3"/>
<path d="M911.3,250.3c1.1-5.6,1.8-10.9,2.8-16.2c0.3-1.5,1.5-2.7,2.3-4.1c1.1,1.1,3.1,2.1,3.3,3.3c1.4,9-1,17.3-5.5,24.9
	c-0.6,1.1-2.8,1.2-4.2,1.8c-0.3-1.4-1-2.9-0.8-4.3C909.4,253.9,910.4,252.2,911.3,250.3"/>
<path d="M322.8,308.8c-1.8,1.2-3.3,2.2-4.9,3.2c-0.6-1.5-1.9-3-1.7-4.4c0.7-6.4,1.7-12.8,3.1-19.1c0.3-1.4,2.4-2.3,3.7-3.5
	c1.1,2,3,4,2.9,5.9c-0.2,4.3-1.4,8.6-2.1,12.9C323.5,305.4,323.3,307,322.8,308.8"/>
<path d="M235.1,675c-2.4,3.5-4.8,6.4-7,9.5c-2.8,3.9-5.1,8.3-8.2,11.9c-1.2,1.3-4.4,1-6.6,1.4c0.4-1.6,0.5-3.5,1.3-4.7
	c3.9-5.8,7.8-11.5,12-17C228.7,673.3,231.5,670.9,235.1,675"/>
<path d="M873.8,585.8c-1.4,0.6-2.8,1.4-3.8,1.1c-1-0.3-2.6-2.4-2.5-2.6c4.8-6.4,9.7-12.7,14.8-18.9c0.8-0.9,2.9-0.9,4.3-1.3
	c-0.1,1.5,0.1,3.2-0.6,4.4C882.2,574.2,878.1,579.9,873.8,585.8"/>
<path d="M128.1,298c-0.5-2.3-1.3-4.1-1.3-5.9c0-2,0.8-4,1.2-6.1c2,1.2,5.3,1.9,5.8,3.6c1.6,5.5,2.4,11.3,3.1,17
	c0.2,1.4-1.1,2.9-1.7,4.4c-1.2-1-2.9-1.8-3.6-3C130.2,304.9,129.2,301.7,128.1,298"/>
<path d="M443.1,317c0.3,1.5,0.8,3.7,0,4.3c-4.9,4-10,7.7-15.2,11.2c-0.9,0.6-3.2,0.2-4.2-0.6c-0.7-0.6-0.7-3.3,0-3.8
	c5.3-4.2,10.8-8.1,16.4-12C440.5,315.8,441.7,316.7,443.1,317"/>
<path d="M215.3,301.3c-1.7-0.2-4.4-0.6-4.5-1.2c-0.5-6.3-0.7-12.6-0.7-18.9c0-4.1,2.6-2.3,4.2-1.3c1.1,0.7,2.4,2.2,2.4,3.4
	C216.5,289.2,216,295.1,215.3,301.3"/>
<path d="M293.1,733c0.8-2,1.5-3.5,2.3-5c1.2,1.5,3.5,2.9,3.5,4.3c-0.2,5.5-1.1,10.9-1.9,16.3c-0.1,0.9-1.5,2.4-1.8,2.3
	c-1.1-0.4-3-1.4-3-2.2c-0.1-3.9,0.3-7.9,0.5-11.8C292.8,735.8,293,734.6,293.1,733"/>
<path d="M900.8,751.3c-4.1-1.3-8.1-2.1-11.9-3.4c-1-0.4-1.2-2.6-1.8-4c1.1-0.3,2.3-1,3.3-0.8c5.9,1,11.8,2,17.5,3.5
	c1,0.2,1.5,2.5,2.2,3.9c-1.1,0.5-2.2,1.4-3.3,1.4C904.9,752.1,903,751.7,900.8,751.3"/>
<path d="M394.3,287.3c-2.7,3.7-5,7.3-7.6,10.6c-0.6,0.7-2.5,0.4-3.8,0.5c0.1-1.1-0.1-2.3,0.2-3.2c1.6-4.3,3.3-8.7,5.3-12.8
	c0.5-0.9,2.7-1.6,4-1.4C396.4,281.7,395.3,284.5,394.3,287.3"/>
<path d="M93.3,679.3c2.1-1.5,3.8-2.9,5.8-3.7c1.3-0.5,2.9,0.2,4.4,0.4c-0.2,1.5,0.1,3.6-0.7,4.6c-2.2,2.8-4.7,5.3-7.4,7.4
	c-1.3,1.1-3.3,1.2-5,1.8c-0.3-1.9-1.1-4-0.7-5.7C90.1,682.4,91.9,681,93.3,679.3"/>
<path d="M212.1,727c-1.7,4.8-3.2,9.2-5,13.4c-0.5,1.1-1.9,1.8-2.8,2.6c-1.1-1.2-3.3-2.8-3-3.7c1.5-4.9,3.1-10.1,5.8-14.5
	C208.7,722.1,210.5,725.4,212.1,727"/>
<path d="M442.3,362.3c-2.2,1.1-4.1,2.3-6.1,2.6c-1.3,0.2-3.9-0.9-3.9-1.6c-0.1-1.5,0.5-3.8,1.7-4.5c3.4-1.9,7.1-3.4,10.8-4.7
	c1.3-0.4,2.8,0.2,4.3,0.4c-0.5,1.5-0.5,3.3-1.5,4.3C446.3,360.2,444.3,361,442.3,362.3"/>
<path d="M60.1,644c0.6,0.8,1.2,1.9,0.9,2.2c-3.8,4.2-8.1,8-14,8.8c-0.9,0.1-2.8-0.5-2.8-0.8c-0.1-1.2,0.1-2.8,0.8-3.5
	C49.1,646.9,53.4,643.3,60.1,644"/>
<path d="M40.1,448c2.7,0.2,5,0.1,7.1,0.8c1.2,0.4,1.9,2,2.9,3.1c-1.3,1-2.4,2.7-3.8,3c-2.2,0.5-4.6,0-6.9,0.2
	c-2.8,0.1-5.3-0.8-5.2-3.7C34.3,448.5,36.9,447.7,40.1,448"/>
<path d="M375.3,741.8c-0.6-3.1-1-6-1.2-8.8c0-1,0.5-2.8,0.8-2.8c1.2-0.1,3.3,0.2,3.5,0.8c1.4,4.4,2.5,8.9,3.6,13.4
	c0,0.4-1.9,1.7-2.1,1.5C378.3,744.8,377,743.4,375.3,741.8"/>
<path d="M134.8,712.8c-2,0.4-3.8,0.6-5.6,0.8c0.1-2.2,0-4.5,0.5-6.6c0.4-1.6,1.2-3.4,2.5-4.4c1.5-1.2,3.7-1.6,5.6-2.3
	c0.3,1.9,1.1,4,0.6,5.7C137.8,708.3,136.2,710.4,134.8,712.8"/>
<path d="M148.3,502.8c0.7-1.4,1.5-3.3,2.7-3.6c3-1,9.4,3.3,10,6.4c0.2,1.2-0.3,3.2-1.1,3.9c-0.8,0.6-3,0.4-3.9-0.2
	C153.3,507.4,151,505.1,148.3,502.8"/>
<path d="M340.8,250.3c-2-4.1-1-8.6,2.1-9.2c2.7-0.6,5.4-0.1,6.1,3.2c0.8,3.4-1.2,5.6-4.2,6.6C343.7,251.3,342.3,250.7,340.8,250.3"
	/>
<path d="M443.1,724c2.3,2.7,4.4,5.4,5.8,8.3c0.4,0.8-0.8,2.4-1.3,3.7c-1.2-0.4-2.7-0.6-3.4-1.4c-1.6-2.3-2.7-4.9-4.3-7.2
	C437.3,723.5,440.3,724.1,443.1,724"/>
<path d="M37.1,488c-2.6,0-5.5,0.5-4.8-2.8c0.3-1.3,2.8-2.2,4.4-3.1c0.7-0.4,1.7-0.3,2.5,0c2,0.5,3.9,1.2,5.9,1.9
	c-1.8,1.3-3.6,2.7-5.4,4C39.2,488.3,38.3,488,37.1,488"/>
<path d="M478.1,716c4.6-0.4,6,3.1,7.8,5.6c0.8,1.1,0,3.5-0.1,5.2c-1.7-0.5-3.6-0.7-5-1.7C477.6,722.9,475.8,720,478.1,716"/>
<path d="M301.1,602.3c2.5-2.6,5-5,7.6-7.3c0.5-0.4,1.3-0.6,2-0.9c0.1,0.6,0.4,1.2,0.3,1.8c0,3.5-8,14.9-11.4,16.1
	c-0.3,0.1-1.5-0.6-1.5-0.7C299.1,608.3,300.1,605.4,301.1,602.3"/>
</svg>
