<?xml version="1.0" encoding="utf-8"?>
<!-- Generator: Adobe Illustrator 23.1.0, SVG Export Plug-In . SVG Version: 6.00 Build 0)  -->
<svg version="1.1" id="Contours" xmlns="http://www.w3.org/2000/svg" xmlns:xlink="http://www.w3.org/1999/xlink" x="0px" y="0px"
	 viewBox="0 0 1042.1 1099.1" style="enable-background:new 0 0 1042.1 1099.1;" xml:space="preserve">
<desc  xmlns:shape="http://adobe.com/products/shape"></desc>
<path d="M1027.1,6.1c6-1.4,10.2,1.7,9.9,7.2c-0.8,15-2,29.9-2.9,44.9c-0.2,3,0,6,0,9c0,20.7-0.4,41.4,0.1,62
	c0.4,18.4,1.7,36.7,2.5,55.1c0.3,7.2,0.4,14.4,0.4,21.7c0,39.6-0.1,79.3,0,119c0.1,14.8,0.7,29.7,1,44.5c0.1,9.6-0.1,19.2,0,28.7
	c0.1,3.1,1,6.2,0.9,9.3c-0.2,34.8-0.8,69.7-0.8,104.6c-0.1,28.5,0.5,57.1,0.9,85.7c0.3,20.9,0.6,41.8,1,62.7
	c0.2,13.3,0.8,26.5,0.9,39.8c0.5,42.9,0.9,85.8,1,128.7c0.1,18.1-0.5,36.1-0.9,54.1c-0.3,12.2-0.6,24.3-1,36.4
	c-0.3,7.9-0.8,15.8-1,23.6c-0.4,19.2-0.5,38.4-1.1,57.6c-0.3,12.9-1.4,25.8-1.9,38.7c-0.3,8.9,0.1,17.8-0.1,26.6c0,3.4,0,7-1.1,10.1
	c-1.5,4.8-6,2.6-9.3,2.9c-1,0.1-2.1-0.9-3.1-0.9c-14.9-0.4-29.9-0.7-44.8-1c-11.2-0.3-22.4-0.6-33.6-1c-14.5-0.6-29.1-1.4-43.6-2
	c-17-0.7-33.9-1.5-50.9-2c-10-0.2-20.1,0-30.1,0.1c-32.3,0.3-64.5,0.5-96.8,0.9c-8.3,0.1-16.5,0.5-24.8,1
	c-13.9,0.9-27.8,2.1-41.7,2.9c-14.9,0.9-29.8,1.5-44.7,2c-23.4,0.8-46.8,1.3-70.1,2.1c-14.8,0.5-29.6,1.2-44.4,2
	c-17.4,0.9-34.8,2-52.2,3c-4.7,0.3-9.4,0.7-14.1,1c-14.2,0.7-28.5,1.3-42.7,2c-7.1,0.3-14.2,0.8-21.3,0.9c-21.3,0.5-42.7,0.6-64,1.1
	c-13.6,0.4-27.1,1.3-40.7,2c-6,0.3-12.1,0.7-18.1,1c-16.2,0.7-32.4,1.2-48.6,2c-12.1,0.6-24.2,1.4-36.2,1.9
	c-12.4,0.5-24.7,1.1-37.1,1c-13.3-0.1-26.7-1.2-40-1.5c-20.3-0.3-40.7-0.4-61-0.3c-4.9,0-9.8,1.4-14.7,1.7c-1.3,0.1-3.9-1.4-4-2.5
	c-1-7.2-2.3-14.4-2.1-21.6c0.5-15.1,1.9-30.2,2.9-45.3c0.3-3.8,0.8-7.7,0.9-11.6c0.5-15.2,0.7-30.5,1.1-45.7
	c0.2-8.9,0.9-17.7,0.9-26.6c0.5-50.7,0.8-101.5,1-152.2c0.1-7.1-0.9-14.1-0.9-21.1c0.2-23.7,0.7-47.4,1-71.1
	c0.1-9.9,0.1-19.9,0-29.9c-0.3-24.1-0.8-48.3-1-72.5c0-7.9,0.9-15.7,0.9-23.6c0.1-32.5,0-64.9,0.1-97.3C7.2,467.7,8,457.5,8,447.3
	c0.1-49.6,0.2-99.3,0-148.9c-0.1-27.1-0.4-54.1-1-81.2c-0.2-11.6-1.3-23.3-1.9-34.9c-0.7-14.6-1.4-29.2-2-43.8
	c-0.5-12.7-1.1-25.4-0.9-38.1c0.2-17,1.1-34.1,1.9-51.2c0.5-10.5,1.3-21.1,2-31.6C6.4,13.4,6.6,9.2,7.2,5c0.1-1.1,1.4-2.7,2.3-2.8
	c7.1-0.9,14.1-2,21.2-2c6.4,0,12.8,1.9,19.2,1.7C64.4,1.7,79,0.4,93.5,0.2c12.7-0.2,25.3,0.6,38,0.8c10.1,0.2,20.2,0,30.3,0.1
	c58.5,0.3,117.1,0.6,175.6,1c18.1,0.1,36.2,0.7,54.2,1c37.1,0.4,74.1,0.6,111.1,1C515.8,4.3,528.9,5,542,5c45,0.1,90.1,0.1,135.1,0
	c11.4,0,22.9-0.6,34.3-0.9c4-0.1,8.1,0,12.2,0c36.9-0.4,73.8-1,110.7-0.9c26.1,0.1,52.1,1.2,78.2,1.9c23.6,0.6,47.2,1.3,70.8,2
	c2.9,0.1,5.8,1,8.6,0.9C1003.5,7.5,1015,6.7,1027.1,6.1 M612.6,251.1c4.3-1.6,8.5-3.2,12.8-4.9c0.6-0.3,1.1-1.1,1.6-1.7
	c-0.8-0.1-1.6-0.5-2.3-0.4c-5.1,0.8-9.5,2.8-13.1,7c0,0.3-0.1,0.6-0.1,0.9C611.7,251.7,611.9,251.4,612.6,251.1 M660.1,236.6
	c5,0.8,9.9,1.7,14.9,2.4c0.7,0.1,1.8-0.3,2-0.7c0.2-0.6,0-1.9-0.5-2.2c-2.1-1.1-4.5-2.9-6.7-2.8c-3.3,0.2-6.5,1.8-9.7,2.3
	c-2.5-3.7,0-4.9,3-5.5c1.8-0.3,3.7,0.1,5.5-0.1c1.1-0.1,2.2-0.9,3.4-1.3c-1.1-0.6-2.1-1.1-3.1-1.6c-2.8-1.4-5.5-2.8-8.3-4
	c-0.8-0.3-1.9-0.2-2.8-0.3c-0.3,4.2-0.7,8.3-0.9,12.5C656.9,235.5,659,235.8,660.1,236.6 M584.6,240.1c-1.7,0.7-3.9,0.9-5,2.2
	c-3.1,3.2-5.4,7.1-8.6,10.2c-6.3,6.2-11.6,12.9-15.3,21.2c-3.5,7.9-6.2,15.9-6.6,24.6c0,0.9,0.4,1.9,0.5,2.8c0.9-0.7,1.9-1.2,2.4-2
	c0.6-0.9,0.9-2,1.1-3c1-5.3,1.6-10.6,3.1-15.7c2.1-7.7,4.6-15.2,10.3-21.2c6.1-6.4,12.4-12.7,19.1-19.1c0-0.3,0-0.6,0.1-1
	C585.5,239.5,585.3,239.8,584.6,240.1 M546.6,352.1c0.2,0.2,0.5,0.7,0.7,0.6c20.1-2.6,38.1,0.9,52.1,17.1c2.5,2.9,4.3,5.7,3.6,9.5
	c-0.4,2.6,0.9,3.3,3.1,2.8c6.9-1.7,13.8-3.9,20.9-4.8c4.7-0.6,3.2-2.9,2.6-5.2c-1.8-6.5-6.3-11.2-11.5-15
	c-11-8.1-24.3-9.7-37.4-10.8c-8.7-0.7-17.7,0.8-26.6,1.9c-2.8,0.4-5.3,2.5-8.5,3.9c0,0.3-0.1,0.6-0.1,0.9
	C545.7,352.7,545.9,352.4,546.6,352.1 M740.6,696.1c4.9-1.4,10.1-2.2,14.8-4.1c15.6-6.3,31.9-8.9,48.4-11c6.9-0.9,13.9-1.7,20.5-3.8
	c17.9-5.7,32.9-16.7,48-27.7c6.3-4.6,13-8.6,19.7-12.7c0.8-0.5,2.9-0.4,3.2,0.1c0.6,1.1,0.8,2.8,0.4,4c-0.4,1.1-1.6,2.1-2.7,2.8
	c-10.6,6.8-21.3,13.6-32,20.4c-0.7,0.4-1.2,1-1.8,1.5c0.8,0.5,1.7,1.4,2.4,1.4c2.4-0.1,4.8-1.1,7.1-0.8c10.4,1.2,21,2.1,31.2,4.3
	c14.7,3,29.3,5.6,44.4,4.6c11.2-0.8,11.4-1,14.9-12s5.6-22.3,6-34c0.7-17.6-2.4-34.7-5.8-52c-3-15.8-9.3-30.2-15.6-44.6
	c-5.1-11.7-12.4-22.4-18.4-33.9c-1.6-3.1-3.5-3.7-6.5-3.5c-9.7,0.7-19.4,1.2-29.1,2c-5.8,0.5-11.6,0.8-17.2,2.2
	c-10.2,2.5-20.2,5.6-30.2,8.8c-7.9,2.6-15.7,5.8-23.4,8.7c-1,0.4-1.9,1.2-2.8,1.8c0.6,0.5,1.2,1.2,1.9,1.4
	c6.7,1.8,13.6,3.4,20.3,5.2c0.5,0.1,1.2,1.8,0.9,2.1c-3,3.6-7.2,3.7-11,2.2c-9.5-3.6-18.6-8.2-28.1-11.8c-7.9-3-16.3-5-24.3-7.7
	c-3.2-1.1-3.5,0.2-3.8,2.8c-0.9,10.6-1.8,21.2-2.9,31.8c-1.3,11.8-2.6,23.6-4.1,35.3c-0.6,4.7-1.5,9.3-3,13.7
	c-4.3,12.4-12.7,21.5-23.5,28.7c-2.8,1.8-3.3,4.2-1.4,7.5c2.9,4.9,5.6,10,7.4,15.4c3.6,10.3,6.8,20.5,0.8,31.6
	c-3.1,5.7-3.6,12.8-5.7,19.3c0,0.3-0.1,0.6-0.1,0.9C739.7,696.7,739.9,696.4,740.6,696.1 M311.6,452.1
	c-13.7,5.7-25.3,14.3-35.9,24.6c-3.5,3.5-8,6.3-12.5,8.3c-13,5.6-26.4,10.3-39.3,16.2c-9.8,4.6-18.9,10.6-28.4,15.9
	c-19.9,11-33.5,26.6-37.4,49.6c-2,11.3-6.8,21-15.7,28.5c-3.4,3-6.6,6.4-10.2,9.2c-11.2,8.7-22.4,17.3-33.8,25.8
	c-15,11.3-31.3,21.2-43.5,35.8c-6,7.2-11.3,15.2-15.4,23.6c-2.9,5.7-3.5,13.1,1.7,18.5c3,3.1,7.3,5.4,11.4,6.8
	c14.2,5,29.1,5.1,43.8,3.9c12.5-1.1,24.7-1.1,36.4,3.4c8.5,3.3,16,8.3,17.4,18.9c0.7,4.7,1.8,9.9,4.4,13.6
	c3.4,4.8,8.5,8.6,13.1,12.4c4,3.2,6.9,2.9,9.2-1.5c3.1-6.3,6.1-12.8,8-19.6c2.1-7.3-0.9-10.2-8.5-9.9c-2,0-4,0.2-6-0.2
	c-0.4,0-1.2-2.2-0.9-2.6c2.4-3.1,14.5-3.5,17.6-0.7c5.6,5.1,2.8,11.6,2.3,17.5c-0.6,7.3-4.5,13.5-9,19.2c-0.6,0.7-0.8,1.6-1.2,2.4
	c0.8,0.1,1.6,0.4,2.3,0.3c4.4-0.2,8.8-0.6,13.1-0.9c15.3-1,30.5-2.7,45.8-2.8c16.5-0.2,33.1,0.7,49.7,1.9c10,0.8,20.1,2.8,30.1,4.5
	c7,1.2,13.6,4.3,21,0c10.7-6.2,21.7-11.8,32.9-17c8.4-3.9,17-7.9,26.8-6.6c3.4,0.5,6.9,1.1,10.3,1.6c2.4,0.3,5.8,1.8,5.8-2.5
	c-0.1-5.7,1.5-10.9,2.9-16.3c2.5-9.7,10.6-17.1,20.5-16.7c2.5,0.1,5.6,1.3,7.1,3.1c4.6,5.3,8.6,11,12.5,16.8
	c2.4,3.6,4.6,4.7,9.1,2.7c5.9-2.5,12.3-4.2,18.6-5.6c2.8-0.6,3.6-1.6,3.4-4.1c-0.4-4-0.4-8.1-1.1-12.1c-0.4-1.7-1.7-4.5-3-4.7
	c-3.5-0.5-7.2,0-10.8,0.1c-4,0.1-8.1,0.7-12,0.1c-9.3-1.3-16.3-7.1-23.1-13c-6.6-5.7-14.5-6.7-22-2.4c-5.6,3.2-11.3,5.8-17.8,2.7
	c-4.2-2-8.3-4.3-12.4-6.4c-0.9-0.4-1.8-0.6-2.8-0.9c0.6,0.9,1,1.9,1.8,2.5c3.6,3.2,7.7,6,10.9,9.5c5.1,5.5,4.4,17-1,22.3
	c-4,3.9-8.5,7.3-12.2,11.4c-5.8,6.5-12.9,7.3-20.8,5.9c-2-0.4-4.1-0.8-6.1-1c-7.4-0.7-14.8-1.1-22.1-2.1c-3.8-0.5-9.1-0.9-10.9-3.4
	c-2.5-3.6-4.3-1.3-6.5-1.2c-3.4,0.2-6.7,0.2-10.1,0.2c-5.9-0.1-12.8-2.2-17.4,0.1c-7.2,3.6-14.1,2.3-20.8,1.9
	c-7.3-0.4-14.5-4.1-21.7-6.6c-2.8-0.9-5-1.6-7.4,0.8c-6.8,6.7-21.6,7.9-29.2,2.1c-4.1-3.2-7.7-7.2-11.3-11.1
	c-7.7-8.5-8.8-18.1-2.7-27.4c2.9-4.4,2.7-7.8,0.1-11c-5.5-6.8-7.8-14.6-10.1-22.9c-2.8-10-4.6-19.2-0.7-29.3
	c2.4-6.3-0.3-8.9-7.1-10.2c-6.7-1.3-11.5-5.1-13.7-11.8c-1.7-5.1,0-8.9,5.1-10c4.9-1,10.1-0.4,15-1.3c3.2-0.5,6.8-1.5,8.9-3.6
	c5.2-5.3,9.4-11.5,14.4-17c2.4-2.8,5.2-4.7,1.8-8.8c-1-1.2-1-4.3-0.1-5.8c5.1-8.6,6-19.4,15.2-25.7c4.7-3.3,8.2-8.3,12.5-12.2
	c5.2-4.7,11.5-7.2,18.7-6.7c8.9,0.6,17.7,1.6,26.6,1.9c7.1,0.2,14.2-1.3,21.1-0.7c4.4,0.4,8.3,0.8,12.8-0.4
	c14.3-4.1,29-7.4,43.5-10.8c9.3-2.2,18.7-4.2,28-6c9.6-1.8,19.4-3,28.9-5.3c3.1-0.7,7.8-1.9,6.7-7.8c-1.2-6.6-1.3-13.4-2.1-20.1
	c-1.3-10.5-2.7-20.9-4-31.4c-1-7.4-2.2-14.8-2.9-22.2c-0.5-4.2-0.6-8.4,0-12.5c0.5-3.7,2.5-6.6,7.2-5.8c2,0.4,4,0,6,0.1
	c2.4,0.1,3.3-0.3,2.3-3c-1.3-3.4-1.1-6.1,2.9-8.3c5.8-3.2,11-7.4,16.4-11.2c5.7-3.9,11-9.5,17.4-11.1c10-2.6,20.7-2.5,31.1-3.4
	c7-0.6,13.3-1.6,15.2-10c0.7-3.3,2.5-6.3,3.4-9.6c2.8-10.5,5.7-21.1,7.9-31.7c1.5-7.6,1.4-15.6,3.3-23.2c2.4-10.2,5.9-20.2,9-30.2
	c0.3-1,0.3-2.1,0.5-3.1c-1.1,0.3-2.4,0.4-3.4,1c-0.9,0.6-1.7,1.6-2.5,2.4c-5.6,6.3-11.8,12.3-16.8,19.1c-6.4,8.6-11.8,18-14,28.7
	c-1.2,5.7-1.8,11.5-3.2,17.2c-3.9,16.5-14.3,27.9-29.4,35.3c-1.5,0.7-3.5,0.5-5.3,0.7c0.5-2,0.9-3.9,1.6-5.8
	c0.3-0.8,1.4-1.3,2.2-1.8c8.8-6.1,17.2-12.9,20.8-23.4c2.7-7.9,4.2-16.2,6.3-24.4c0.1-0.6-0.1-1.3-0.2-1.9c-0.8,0.2-1.8,0.3-2.4,0.8
	c-3.1,2.3-6.2,4.5-9.1,7.1c-6.4,5.9-13.1,11.5-18.8,18c-6.4,7.3-11.2,15.9-17.6,23.2c-15.3,17.4-33.2,31.7-53.7,42.8
	c-0.6,0.4-1.4,0.7-2.2,0.7c-5.3,0.1-9.7,2.1-13.8,5.3c-2.3,1.8-5.1,3-7.6,4.6c-8.8,5.8-18.1,10.9-26.2,17.5
	c-17.7,14.5-28.1,33.5-31.6,56.4c-0.8,5.5-2.7,11.1-9.4,13.3c-12,4-23.8,8.6-35.8,12.7c-1.5,0.5-3.5-0.6-5.3-0.9
	c1-1.2,1.9-2.4,2.9-3.6c0.2-0.2,0.7-0.1,0.9-0.2c8.1-4.9,16.6-8.1,25.8-10.2c5.3-1.2,11.4-2.5,13-9.3c1.4-5.9,2.7-11.8,4.1-17.8
	c0.9-3.6,2-7.1,3.5-10.7c0-0.3,0-0.6,0.1-1C312.5,451.5,312.3,451.8,311.6,452.1 M497.6,12.1c-5.3,0-10.5,0-15.7,0
	c-25.4-0.3-50.7-0.6-76.1-1.1c-12.2-0.1-24.4-0.7-36.6-0.9c-20.3-0.4-40.7-0.9-61.1-1c-16.7,0-33.4,0.9-50,0.9
	c-20.1,0-40.2-0.5-60.3-0.9c-10.3-0.3-20.6-0.8-30.9-1c-25.3-0.4-50.5-1-75.8-0.9c-12.8,0-25.6,1.7-38.5,1.7
	c-10.5,0-21.2,1.8-31.7-1.6c-1.5-0.5-5,1.3-5.6,2.9c-1.1,2.8-1,6.3-1.2,9.5c-0.7,10.2-1.5,20.4-2,30.6c-0.8,18.6-1.9,37.3-1.9,55.9
	c0,17.4,1.2,34.7,1.9,52.1c0.3,8.1,0.6,16.1,1,24.1c0.6,11.9,1.7,23.8,1.9,35.7c0.6,31,0.8,62,1.1,93.1c0.1,20.6,0.1,41.2-0.1,61.8
	c-0.1,12.3-0.8,24.5-0.8,36.8c-0.1,9.9,0.8,19.8,0.8,29.7c0,8.1-0.8,16.2-0.9,24.3c-0.4,24.5-0.8,49-1,73.6
	c-0.1,29.8,0,59.6-0.1,89.5c0,3.7,2,5,4.8,5.1c11.4,0.2,22.8,0.3,34.2,0c11.1-0.3,22.1-1.2,33.2-2c1.5-0.1,3.3-0.3,4.4-1.1
	c4.4-3,8.5-6.3,12.6-9.5c9.2-7.2,18.7-14.1,27.5-21.6c10.2-8.8,18.4-18.8,20.6-33c1.6-10.2,5.8-19.9,12-28.5
	c6-8.5,13.9-14.7,22.4-20.4c16.9-11.4,34.9-20.7,53.6-28.6c8.4-3.5,17.3-6.1,25.2-10.5c6.4-3.6,11.7-9.4,17.6-14.2
	c8-6.6,16.7-11.9,26.4-15.8c4.7-1.9,8.8-5.8,12.5-9.5c7.6-7.6,13.6-17.3,22.3-23.3c15.8-11.1,31.2-23.2,50.6-28.7
	c7.7-2.2,14.7-8.1,21.4-13.2c6-4.5,11.3-10.1,16.6-15.4c5.8-5.8,11.6-11.7,16.8-17.9c5.1-6.1,8.7-13.6,14.4-18.9
	c9.6-8.9,20.3-16.7,30.7-24.8c4.6-3.6,8.6-7.3,11.6-12.6c6.7-11.7,15-22.2,26.5-29.9c6.9-4.6,13.6-9.5,19.8-14.9
	c4-3.4,6.7-8.3,10.4-12.1c13-12.8,28.8-18.7,46.9-19.6c11.8-0.7,23,2.1,34.3,4.4c8.2,1.6,16.4,3.9,23.6,9.4
	c4.2,3.3,10.1,4.5,15.3,6.2c4.2,1.4,8.8,1.4,12.7,3.2c14.6,6.8,30.4,9.6,45.8,13.7c15.6,4.1,30.4,9.4,41.7,21.2
	c9,9.4,17.1,19.8,25.8,29.5c3.6,4.1,7.7,7.7,11.7,11.5c7.2,7,15,13.4,21.5,21c8.1,9.6,13.6,20.8,16.8,33c0.3,1.3,1.5,2.7,2.7,3.2
	c10.9,4.3,16.9,12.6,20.3,23.3c3.4,11,6.5,22,12.8,31.7c5.8,8.8,11.1,18.2,21.3,22.4c16.7,6.8,29.1,18.7,40.7,31.9
	c2.7,3,5.2,6.4,7,10c9.2,18.3,12.4,37.9,13,58.1c0.2,9.4,3.4,17.9,7.4,25.9c5.5,11.1,12.3,21.6,18.1,32.5
	c6.1,11.4,10.9,23.1,11.8,36.2c0,1.4,2.5,3.3,4,3.6c3.3,0.6,6.7,0,10,0.2c3.6,0.3,5.1-0.8,4.8-4.6c-0.5-8.8-0.9-17.7-1-26.5
	c-0.4-27.4-1-54.8-0.9-82.2c0-33.4,0.7-66.8,0.8-100.3c0.1-16.7-0.6-33.4-0.9-50c-0.4-17.9-0.8-35.8-1-53.6
	c-0.1-13.4,0.1-26.8,0-40.2c-0.3-38.7-0.7-77.4-1-116.1c0-2,0-4.1,0-6.1c-0.7-16.6-1.8-33.2-1.9-49.7c-0.2-17.2,0.4-34.4,0.9-51.6
	c0.4-12.1,1.2-24.1,2-36.2c0.5-6.4-0.7-8.4-8-7.8c-8.5,0.6-16.8,2.5-25.3,2.7c-12.2,0.3-24.4-0.5-36.6-0.8
	c-10.2-0.3-20.3-0.7-30.5-1c-11.9-0.4-23.8-0.7-35.6-1c-2.4-0.1-4.8,0-7.2,0c-15.3-0.6-30.6-1.2-46-1.6c-9.5-0.3-19-0.4-28.5-0.4
	c-19.7,0-39.4,0.1-59.1,0.3c-15.1,0.1-30.2,0.4-45.4,0.7c-7.9,0.2-15.9,1-23.9,0.9c-38.5-0.2-77-0.7-115.6-0.9
	c-11.9,0-23.9,0.9-35.9,0.9C520.5,13,509.6,12.4,497.6,12.1 M15.1,885.6c-0.4,7.4-0.8,14.8-1,22.2c-0.4,17-0.7,34.1-1,51.2
	c-0.3,15.5-0.6,31.1-1,46.6c-0.2,7.2-0.7,14.4-1,21.6c-0.7,16.5-1.3,33.1-2.1,49.7c-0.1,2.3-0.5,4.7-0.9,7c-0.8,4.2,1.8,7,6.1,6.6
	c7.2-0.6,14.4-1.5,21.6-1.3c20.2,0.4,40.4,1.8,60.6,1.7c29.4,0,58.9,1.5,88.2-1.7c7.8-0.9,15.7-0.8,23.6-1.1
	c14.7-0.7,29.4-1.3,44.1-2c12.9-0.7,25.8-1.4,38.7-2c15.4-0.7,30.8-1.5,46.2-2c16.9-0.5,33.8-0.5,50.7-1.1
	c12.2-0.4,24.3-1.3,36.4-1.9c13.7-0.7,27.4-1.3,41.2-2c10.9-0.6,21.7-1.5,32.6-2c15.8-0.8,31.5-1.4,47.2-2c18.4-0.7,36.8-1.4,55.2-2
	c19.9-0.7,39.8-1.3,59.6-2.1c8.9-0.3,17.8-1.4,26.7-1.9c13.7-0.8,27.5-1.8,41.2-1.9c36-0.3,72-0.1,108-0.1c10.4,0,20.8-0.3,31.2,0
	c24.1,0.8,48.3,1.9,72.4,3c13.2,0.6,26.4,1.6,39.7,1.9c14.5,0.3,29,0.1,43.5,0c0.7,0,2.1-1.2,2.2-1.9c1.1-7.6,2.3-15.2,3-22.8
	c0.9-10.2,1.5-20.4,2-30.6c0.5-9.7,0.8-19.4,1.1-29.1c0.3-13.9,0.6-27.7,1-41.6c0.2-8.9,0.7-17.7,1-26.6c0.4-15.5,0.9-31,0.9-46.6
	c0.2-51.8,0.1-103.6,0.1-155.5c0-5-0.1-10-0.3-15c-0.6-14.6-1.3-29.2-1.7-43.8c-0.2-12.4,0-12.4-12.6-12.4c-7.2,0-6.9,0-7.5,7.4
	c-0.7,7.9-3.2,15.2-9,21.3c-9.6,10-21.9,16.3-33,24.3c-6,4.4-12.2,8.7-17.8,13.5c-4.1,3.5-7.4,7.9-11,11.8c-3,3.4-6.4,6.6-9,10.2
	c-2.4,3.2-4.6,3.3-7.2,0.3c-4.1-4.9-3.4-10.6-2.7-15.8c1.1-8.6,4.2-16.6,11.4-22.1c4.8-3.6,10-6.6,14.9-10c0.9-0.6,1.6-1.6,2.5-2.4
	c-1.3-0.5-2.6-1.4-3.9-1.4c-2.2,0-4.4,1-6.6,0.8c-11.3-1.2-22.6-2.3-33.8-4c-10.6-1.6-21.1-3.8-31.5-6c-12-2.4-17,0.4-19.4,12
	c-0.3,1.4,1.3,4.1,2.8,5c5.6,3.3,11.5,6,17.2,9.1c11.7,6.2,16,17.6,9.3,30.3c-2.2,4.1-4.3,8.4-7.2,12c-5.4,6.4-11.1,12.5-17.2,18.3
	c-6.3,6-13.5,11-19.8,17.1c-9.2,9-9.8,18.6-2.3,29.3c7.6,10.9,15.5,21.6,23.2,32.4c0.9,1.3,1.4,2.9,1.8,4.5c0.4,2.3,0.3,4.8,0.9,7.1
	c1.6,4.9,3,9.8-0.6,14.5c-1,1.4-2.6,2.3-3.9,3.5c-0.4-1.5-0.9-2.9-1-4.3c-0.1-2.2,0-4.4,0-6.5c-0.1-5.6-2.1-10.3-6.3-13.9
	c-10.7-9.4-23.4-15.2-36.5-20.4c-12.3-4.8-24.9-8.8-35.5-17c-7-5.4-12.8-11.9-10.7-21.9c1.1-5.1,2.3-10.3,4.1-15.3
	c2.6-7.5,2.6-15-0.3-22.3c-2.5-6.6-7-11.4-14.5-12.4c-11.3-1.6-22.6-3.4-34-4.9c-1-0.2-2.5,1-3.3,1.9c-2.2,2.8-3.9,6.2-6.4,8.8
	c-11.2,11.4-22.5,22.7-33.9,33.9c-3.2,3.2-6.6,6.4-10.2,9.2c-8.1,6.2-14.7,13.4-19.9,22.5c-5.7,9.8-5.3,22.3-16.1,30.1
	c-10.5,7.7-19.1,18.1-28.8,27.1c-3,2.8-4.1,6-3.7,10c0.4,5.2,0.8,10.5,0.9,15.7c0.3,9.4-3.3,17.2-10.8,22.9
	c-3.5,2.8-7.2,6.9-11.3,7.4c-8.7,1.1-17.7,0.9-26.5-0.1c-3.5-0.5-3.2,0.2-3.4,2.6c-0.9,12.3-3.4,23.9-13.8,32.4
	c-7.2,5.9-15.4,7.8-24.1,5.9c-14.2-3.2-23.6-13-29.9-25.3c-7.7-15.2-10.5-32-15.2-48.2c-2.4-8.5-5.5-16.7-8.5-25
	c-4-10.8-13.4-17.7-19.9-26.8c-8.7-12.1-13.6-25-10.7-40.3c0.6-3.2,0.1-8-1.9-10c-5.8-5.7-8.2-12.9-11-20c-0.6-1.6-2.5-3.2-4.2-3.7
	c-9-2.9-18.2-2.8-27.3-0.1c-2.2,0.6-4.3,1.7-6.4,2.5c2.1,0.5,4.3,0.8,6.4,1.5c1.6,0.6,4,1.4,4.2,2.4c0.4,1.5-0.7,3.6-1.7,5
	c-0.9,1.2-2.6,1.7-3.9,2.6c-6.4,4.1-6.6,6-1.4,11.1c16,15.7,32,31.4,48,47c2.3,2.2,4.9,4.2,6.5,6.8c1,1.6,0.2,4.2,0.1,6.3
	c-1.7-0.2-3.4-0.2-5.1-0.6c-1.5-0.4-2.9-1.7-4.3-1.5c-6.3,0.7-12.5,1.6-18.7,2.9c-17,3.6-34,7.1-51,11c-16.5,3.8-33,7.9-49.5,12
	c-14.7,3.6-29.3,7.2-43.9,11.1c-2.5,0.6-5.9,2.4-6.5,4.3c-2.6,8.4-8.3,13.8-15,18.6c-2.9,2-5.8,4.1-8.2,6.7c-0.9,1-1,3.3-0.7,4.9
	c0.1,0.6,2.1,1.2,3.3,1.3c5,0.5,10,0.7,15,1.1c12.1,0.9,24.2,2.1,36.3,2.9c16.7,1.2,33.5,2,50.2,3.1c7.3,0.5,14.5,1.3,21.7,2
	c13,1.3,25.9,2.7,38.9,4c7.8,0.7,15.8,1,23.6,2.2c1.8,0.3,3.5,3.2,4.5,5.3c0.2,0.5-2.1,2.7-3.6,3.6c-2.3,1.4-5,2.4-7.4,3.7
	c-0.1,0,0.6,2.1,0.9,2.1c8.7-0.2,17.4-0.8,26.1-0.8c2,0,5,1.1,6,2.7c3.3,5.2,6.5,10.7,8.7,16.4c6.5,16.5,11.9,33.4,18.6,49.8
	c6.1,14.7,8.6,31.1,20.3,43.1c1.6,1.6,1.3,4.5-2.2,4.9c-7.9,0.7-15.7,1.7-23.6,1.9c-6.7,0.1-13.4-0.8-20.1-0.9
	c-8.5-0.2-17,0.1-25.5,0c-18.7-0.3-37.3-1-56-1c-24.5,0.1-49,0.5-73.6,1c-11.7,0.3-23.4,1.3-35.1,2c-10.6,0.6-21.2,1.2-31.7,2
	c-9.8,0.8-19.5,1.8-29.3,3c-15,1.9-30,4.1-45,5.8c-2.2,0.3-5.7-0.6-6.8-2.2c-1-1.7-0.3-5.1,0.8-7.2c1.7-3.2,4.6-5.7,6.6-8.8
	c7.8-11.9,15.4-23.9,23.1-35.9c2.7-4.3,5.3-8.8,7.9-13.2c0.2-0.3-0.1-1.4-0.3-1.5c-7.7-1.4-15.5-2.8-23.3-4
	c-13.7-2.1-27.4-3.6-41-6.1c-15.1-2.8-30.3-4.4-45.6-5.1c-2-0.1-4.3-2.1-5.5-3.8c-0.5-0.8,1.1-3.4,2.2-4.8c0.8-1.1,2.3-1.6,3.6-2.2
	c7.6-4.2,15.1-8.4,22.9-12.4c18.8-9.6,37.7-19.1,56.6-28.6c0.5-0.3,1-0.6,1.5-0.8c-0.5-0.4-1.1-0.8-1.6-1.3
	c-1.8-1.9-4.5-3.5-5.2-5.7c-1.6-4.7-2.3-9.8-3.2-14.7c-2.7-14.9-5.7-29.7-7.9-44.7c-1.8-12-2.7-24.2-4.2-36.3
	c-0.6-4.8,2.4-6.6,5.7-8.5c1.1-0.7,2.3-1.4,3.4-2c-1.3-0.4-2.5-0.9-3.8-1c-8.4-0.4-16.8-0.8-25.1-1c-5.9-0.2-11.8-0.1-17.7,0
	c-1.9,0.1-3.8,1.1-5.6,0.8c-1.3-0.1-3.6-1.5-3.6-2.4c0-1.4,1.2-3.1,2.2-4.4c0.9-1,2.4-1.6,3.5-2.4c11.3-8.6,22.4-17.4,33.8-25.8
	c8.4-6.1,17-12,25.7-17.6c3.6-2.3,2.9-3.8,0.3-6c-6.2-5.3-10.2-11.6-10.8-20.1c-0.5-7-3.9-13-10.4-15.9c-5.8-2.5-12.1-4.5-18.4-5
	c-7.8-0.6-15.7,0.7-23.5,0.7c-7,0-14-0.6-21-0.9c-10.5-0.4-20.5-2.8-29.6-8.1c-5-2.9-9-7-10-13c-1.5-9.3,1.8-17.5,6.7-25.1
	c9.8-15.2,21.6-28.4,37.9-37c1-0.5,1.6-1.9,2.4-2.9c-1.2-0.3-2.3-0.9-3.4-0.9c-11.8,0.6-23.5,1.6-35.2,1.9c-6.7,0.2-13.5,0-20-1.3
	c-4.3-0.8-5.6-0.9-5.5,3.9c0.5,26.9,0.8,53.7,1,80.6c0.1,4.2-0.9,8.4-0.8,12.6c0,4.4,0.8,8.8,0.8,13.2c-0.1,6.8-0.9,13.6-0.9,20.3
	c0.2,19.8,0.8,39.5,0.9,59.3C15.2,846.6,15.1,865.6,15.1,885.6 M694.6,548.1c4.5-5.2,8.7-10.6,13.4-15.4
	c15.1-15.3,29.8-31.1,45.8-45.3c7.5-6.6,9.8-14,10.2-22.8c0.5-9.4,0.7-18.7,1.1-28.1c0.3-6.4,0.6-12.7,1-19.1
	c0.6-10.7,1.7-21.4,1.9-32.1c0.1-10-0.8-19.9-0.9-29.8c-0.1-13.2,0-26.3,0-39.5c0-1,0.1-2,0-3c-0.5-3-1.3-5.1-5.1-3
	c-8.4,4.9-17.2,9.2-25.5,14.3c-19,11.7-37.9,23.7-56.7,35.8c-8.6,5.5-17.2,11-25.3,17.3c-5.5,4.3-11.3,9.1-9.5,18
	c1.3,6.8,1.4,13.7,2.1,20.6c0.6,5.6,1,11.2,2,16.7c2.9,14.8,4.2,29.7,4,44.8c0,1.1,0.2,2.3,0.3,3.4c0.6,6.1,1.3,12.2,1.5,18.3
	c0.1,1.3-1.7,3.4-2.9,3.6c-1.2,0.2-3.5-1.5-3.8-2.7c-1-4.8-1.7-9.7-2.1-14.7c-0.8-9.5-1.2-19.1-2.1-28.6c-0.8-9.4-1.9-18.9-2.9-28.3
	c-1.4-13.1-2.7-26.3-4-39.5c-0.4-3.8-3.5-6.5-6.6-5.9c-3.1,0.7-6.1,1.3-9.2,2c-8.1,1.6-16.2,3.4-24.4,4.9c-4,0.8-5.2,3.2-4.8,6.7
	c0.6,5.3,1.3,10.5,2,15.7c1.3,10.9,2.6,21.9,4,32.8c0.5,3.8,1.3,7.5,1.8,11.2c1.5,10,2.9,19.9,4.1,29.8c0.1,1.2-1.3,2.6-2,3.9
	c-1.3-1.2-3.4-2.1-3.8-3.6c-0.8-3-0.6-6.3-1.2-9.5c-1.9-10.5-4.4-20.9-5.8-31.5c-2.1-15.1-3.4-30.3-5.3-45.4c-0.1-1.5-2-3.7-3.3-3.8
	c-4-0.5-8.1-0.4-12.1-0.2c-12.6,0.6-25.2,1.2-37.7,2c-12.3,0.8-24.5,2-36.8,3c-12.4,1-24.8,2-37.2,3c-10.1,0.7-20.2,1.2-30.3,2.1
	c-2.4,0.2-5.6,1-5.4,4.5c0.5,6.2,1.2,12.4,2,18.6c1.6,12,3.4,24,4.9,35.9c0.9,7.2,1.3,14.5,2.1,21.7c1.2,10,2.6,19.9,4,29.8
	c0.7,5.4,1.4,10.8,2.2,16.1c1.6,10.2,3.3,20.3,4.7,30.5c1.2,8.3,1.8,16.6,3.2,24.8c0.7,4.6,1.8,9.5,8.1,9.7c1.3,0.1,2.6,0.3,3.9,0.3
	c14.4-0.7,28.8-1.3,43.2-2.1c7.5-0.4,15.1-1.1,22.6-2c12.9-1.5,25.7-3.3,38.5-4.9c2.7-0.3,6.5,2.2,2-3.8c-6-8-10.6-17.4-12.4-27.7
	c-0.9-4.8,1.8-12.1,5.6-12.4c5.5-0.4,7.4-2.9,6.4-8.1c-0.1-0.6-0.1-1.3,0-2c0.8-4.3,1.9-8.7,6.7-9.9c4.7-1.1,8.4,1.7,11.2,5.3
	c1.4,2,2.3,4.4,3.5,6.5c4.5,8.2,9,16.3,13.6,24.4c0.8,1.4,2.5,2.3,3.8,3.4c-0.1-1.6,0.1-3.2-0.4-4.7c-2.2-7.7-5-15.3-6.8-23.1
	c-1-4.1-1.1-8.7-0.5-12.9c1-6,6.4-8,11.1-4c3.5,2.9,6.9,6.7,8.6,10.8c4.6,11.4,8.1,23.3,12.2,34.9c0.6,1.6,2.1,2.9,3.2,4.3
	c0.3-1.5,0.6-3,0.7-4.5c0.2-1.5,0.4-3.1,0-4.5c-3-12.1-2.3-24.2,0.1-36.4c0.9-4.9,4.8-7,8.7-8.5c3.4-1.4,6.2,0.7,8.4,3.5
	c4.2,5.2,6.4,11.2,6.8,17.7c0.6,10,0.7,20,1.1,30c0.1,3.2,0.6,6.4,1,9.6c0.1,0.7,0.9,1.3,1.3,1.9c0.3-0.3,0.4-0.7,0.7-0.9
	c3.5-2.7,6.7-6,10.5-7.8C680,565.4,686.9,556.9,694.6,548.1 M762.1,257.6c-2.9-1.5-5.6-3.5-8.7-4.4c-20.4-6.2-41.7-9.5-61.5-18.1
	c-0.8-0.4-1.9-0.3-2.8-0.5c0.1,1.1-0.1,2.4,0.4,3.3c1.6,2.9,3.3,5.7,5.3,8.3c2.4,3.1,6.2,5.5,7.4,8.9c2.4,6.5,3.6,13.6,4.8,20.5
	c1,5.5,0.8,11.2,2.2,16.6c1.5,5.5,4.3,10.5,6.3,15.9c1.6,4.2,3.5,5.1,7.8,3.2c1.7-0.7,3.5-2,5.1-2c3,0.1,6.9-2.4,8.6,2
	c1.6,4.1,4.3,3.1,6.7,1.6c7-4.4,13.7-9.4,20.9-13.6c2.2-1.3,5.8-1.4,8.2-0.6c1.3,0.5,2,4,2.2,6.3c0.3,3.7,0,7.5,0.1,11.3
	c0.3,22.9,0.9,45.8,0.9,68.6c-0.1,11.6-1.2,23.2-1.9,34.9c-0.3,5-0.7,10-1,15c-0.7,12.3-1.1,24.5-2.1,36.7c-0.4,4.8-2,9.5-3.1,14.2
	c-0.2,1-0.7,2.1-0.6,3.1c0.5,2.7,1.1,5.5,1.8,8.2c1,3.5,2.4,6.7,6.6,7c9.3,0.7,17.8,4,26.2,8c2.2,1,5.4,1.6,7.7,0.9
	c9.1-2.7,18.2-5.7,27.2-9.1c23.3-9,47.4-13.1,72.3-13.8c4.5-0.1,9.1-1.5,13.7-1.9c3.8-0.3,7.2-0.5,8.5,5c1.3,5.2,4.5,9.8,7,14.6
	c5.5,11.1,11.4,21.9,16.7,33.1c6.2,12.9,10.3,26.6,12.9,40.6c1.6,8.4,3.4,16.8,4,25.3c0.7,10.3,0.4,20.6,0.1,30.9
	c-0.2,4.8-1.4,9.7-2.4,14.4c-1.7,7.3-3.6,14.5-5.6,21.7c-0.6,2.5-1,5.8-2.7,7.2c-5.9,5.1-12.4,9.4-18.5,14.2
	c-8.7,6.8-12.8,16-13.7,26.7c-0.1,0.7,0.3,1.5,0.5,2.2c0.7-0.3,1.5-0.5,2-1c4-3.5,8.2-6.8,11.6-10.7c7.1-8.3,16-14.3,25-20.3
	c8.2-5.5,16.5-11,24.4-17.1c10.8-8.3,12.6-20.9,13.3-33.3c0.8-13.2-3.6-25.6-9.3-37.3c-4.7-9.7-10.8-18.8-16-28.3
	c-3.4-6.2-6.8-12.5-9.4-19.1c-4.9-12-2.9-25-5-37.4c-1.8-10.5-4-20.9-8.7-30.5c-9.3-18.9-23.9-32.6-42.6-41.8
	c-9.6-4.8-17.6-11.3-23.4-20.3c-6.4-10.1-12.4-20.2-14.9-32.4c-1.7-8.2-4.6-16.8-12-22.4c-1.4-1-2.8-1.9-4.2-2.8
	c-0.1,1.7-0.2,3.5-0.3,5.3c0,0.2,0,0.3,0,0.5c0,9.4,0.6,18.8-0.2,28.2c-1.1,13-2.7,25.9,4,38.1c2.8,5.1,6,10.2,8.3,15.5
	c0.8,1.9-0.3,4.7-0.5,7.1c-2-1.2-4.2-2.2-5.8-3.7c-1.4-1.4-2-3.6-3.3-5.1c-10.1-12.4-12.5-27.1-12.4-42.3c0.2-10.1,2-20.2,2.8-30.3
	c0.2-2.8-0.7-5.7-0.9-8.6c-0.8-9.6-3.1-18.8-7-27.6c-7.1-15.8-20.1-26.8-31.9-38.7c-0.4-0.4-1.1-0.5-1.7-0.7
	c-0.7-0.3-1.4-0.5-2.1-0.8c0.2,0.7,0.2,1.4,0.4,2.1c1.1,3.3,2.4,6.7,3.2,10.1c4.1,17.8,7.9,35.7,6,54.2c-0.2,1.9-1.6,5-2.9,5.2
	c-3.4,0.7-4-2.6-3.9-5.1c0.3-17.6-2.8-34.6-7.1-51.6c-3.1-12.3-5.2-25-13-35.6C784,274.5,774.6,264.8,762.1,257.6 M217.1,703.6
	c1,1.4,2.2,2.7,3.1,4.2c8.5,13.7,21,20.5,37,20.1c3.9-0.1,7.7-2.1,11.6-3c1.7-0.4,3.4-0.4,5.1-0.5c-0.9,1.4-1.7,3-2.9,4.1
	s-2.9,1.7-4.4,2.6c-0.5,0.3-1,0.8-1.5,1.2c0.5,0.6,1.1,1.7,1.6,1.7c6.1,0.1,12.2,0.7,18.2-0.1c5.2-0.8,9.9-3.1,15.9-2.1
	c8,1.3,16.4,2.3,24.4-1.3c6.6-3,13.2-6.4,20.2-7.9c7.4-1.7,13-4.6,17.6-10.8c8-10.6,16.7-20.7,24.9-31.2c1.6-2.1,2.3-5,3.1-7.7
	c0.9-2.8,1-6,2.4-8.5c6.9-12.2,6.6-25.7,6.6-38.9c-0.1-12.8-6.1-23.8-12.5-34.3c-3.3-5.4-8.2-9.9-11.8-15.1
	c-4.5-6.6-10.6-10.8-17.7-14c-1-0.4-2.7-0.4-3.5,0.2c-9.2,6.6-18.3,13.2-27.2,20.1c-10.6,8.3-21.4,16.5-31.4,25.6
	c-11.6,10.6-22.6,22-33.5,33.5c-4.6,4.8-8.2,10.5-12.1,15.9c-2.6,3.7-4.2,8.5-7.6,11.2c-6.5,5.1-10.9,11.3-14.7,18.4
	c-2.2,4.1-5.4,7.6-8.5,11c-1,1-3.3,0.7-5,1c0.4-1.4,0.6-2.9,1.3-4.1c4-6.2,7.9-12.5,12.4-18.4c3.6-4.8,8.2-8.8,11.8-13.6
	c5.3-6.9,9.6-14.5,15.2-21.1c7.8-9.2,15.8-18.4,24.6-26.7c11.3-10.6,22.9-21.1,35.4-30.3c11.7-8.5,21.3-20.2,35.6-25
	c0.5-0.1,0.8-0.9,1.1-1.4c-0.5-0.2-1.1-0.4-1.7-0.7c-4.7-2.3-9.3-4.8-14.1-7c-2.5-1.1-5.2-2.4-7.9-2.5c-9.3-0.4-18.5,0.3-24.7,8.9
	c-0.4,0.5-1.3,0.7-2,1c-11.3,5.7-23.3,3.8-35.2,3.7c-4.1,0-8.2,0-12.1,0.8c-5.3,1.1-10.6,4.4-15.7,4.1c-7.4-0.4-11.8,3.2-15.6,8.2
	c-4.9,6.2-9.2,12.8-13.8,19.2c-3.6,4.9-7.2,9.8-11.1,14.4c-0.9,1-4.3,1.5-4.9,0.8c-5.3-5.8-11.5-2.5-17.3-2c-1.1,0.1-2.9,3.5-2.5,5
	c1.2,5.6,13.9,8.9,18.8,5.5c1.5-1.1,4-0.8,6-1.2c0,1.9,0.6,4.1-0.1,5.6c-4.1,8.6-5.4,18-5.6,27.1c-0.1,7.7,2.4,15.5,4.6,23
	c1.4,4.8,4.4,9.2,6.5,13.8c1.1,2.2,1.5,4.9,3,6.7C209.6,696.5,213.2,699.7,217.1,703.6 M678.6,768.1c2.2-2.3,4.4-4.6,6.7-6.7
	c11.1-10.3,23.2-19.6,29.4-34.3c2.2-5.2,6-9.9,9.5-14.5c6-8,8.4-17.5,11.8-26.6c2.6-6.9,5.3-14.1,0-21c-4.3-5.6-8.7-11.4-13.9-16.1
	c-8.1-7.4-18-8.5-28.8-7c-6.9,0.9-14.3,1.2-20.9-0.4c-10.4-2.4-20.7-5.6-30.3-10.2c-15.6-7.5-31.6-5.6-47.4-2.9
	c-8.3,1.4-15.9,1.8-24,0c-12.6-2.9-25.2-7-38.4-6.3c-4.6,0.3-9.2,0.9-13.6,2.1c-8.3,2.2-17.4,3.1-20.7,13.4c-2.7,8.7-5,17.3-4,26.6
	c0.3,2.5,0,5.1,0.1,7.6c0.1,3.8,0.2,7.6,0.7,11.4c1,9.1,3.5,18.2,2.9,27.1c-0.7,9.6-0.2,18.9,1.4,28.3c0.2,0.9,0.8,1.6,1.3,2.5
	c0.5-0.9,1.5-1.8,1.6-2.7c0.5-3.2,0.3-6.5,1.2-9.6c4.4-14.7,12.8-26.7,26.2-34.3c13.1-7.5,27-13.7,40.4-20.7
	c11.1-5.8,21.4-13.6,35.1-12.2c1,0.1,2.4-2.1,3.1-3.5c0.7-1.5,0.9-3.4,1.1-5.1c0.4-3.9,0.9-7.8,0.9-11.7c0-6.5,1.9-7.9,8.5-6.4
	c5.5,1.3,11.1,2.1,16.7,3.2c1,0.3,1.9,1.2,2.9,1.9c-0.9,1-1.7,2.4-2.8,3c-1.1,0.5-2.7,0.3-4,0c-6.6-1.5-9.7,2.6-12.2,7.6
	c-1.7,3.4-3.3,6.9-4.5,10.6c-1,2.8-0.8,5.3,1.6,8c7.7,8.6,10.1,18.7,6.4,29.9c-2.1,6.2-4.8,12.4-3.5,19.2c0.7,3.6,1.7,7.1,1.9,10.7
	c0.9,19.1-7.3,36.1-13.1,53.5c-5,14.7-9.4,29.4-9.7,44.9c-0.1,10.1,1.2,20.2,1.9,30.2c0.1,1.2,0.5,2.3,0.8,3.5c1-0.8,2.1-1.5,3-2.4
	c5-5.2,9.4-11,15-15.5c9.8-7.9,16.6-17.9,22.2-28.9c6.2-12,8.7-26.5,22.6-33.4c0.3-0.1,0.5-0.4,0.7-0.7
	C669,776.3,673.5,772.5,678.6,768.1 M612.1,729.6c-0.3-1.6-0.7-3.2-0.7-4.7c-0.1-6.5-1.6-13.4,0.2-19.4c2.1-6.8,3.7-13.5,3.4-20.5
	c-0.5-9.4-9.2-20.7-22.2-15.9c-5.7,2.2-11.3,4.9-16.8,7.6c-11.7,5.9-23.5,11.8-35,18.1c-5.6,3-11.3,6.2-16.2,10.2
	c-11.3,9.3-15.5,22.7-17.5,36.1c-2.9,19.6-4,39.4-3.2,59.2c0.2,4.7,0.1,9.5,1.1,14.1c2.3,11.4,4.5,23,8.1,34.1
	c3.5,11.1,8.2,21.9,13.4,32.4c3.1,6.3,8,11.7,12.1,17.4c8.4,11.6,26.6,18.3,40.5,14.8c0.4-0.2,0.7-0.7,1.1-0.9
	c13.1-6.1,19.9-21.5,16.2-35.2c-3.9-14.3-6.6-28.8-6.5-43.7c0-2.7,0.6-5.4,1-8.1c1.1-7.7,1.5-15.6,3.6-23
	c4.9-17.9,10.9-35.5,15.9-53.4C612.3,742.9,612,736.3,612.1,729.6 M167.1,1054.6c-2.1,3.4-4.3,6.9-6.4,10.3c-0.5,0.9-1,1.9-1.5,2.8
	c1.1,0.1,2.3,0.5,3.4,0.3c11.3-1.6,22.5-3.5,33.9-4.9c13.6-1.6,27.2-2.9,40.8-4c14.7-1.2,29.5-2.2,44.3-3c12.1-0.6,24.3-1,36.5-1
	c19.6,0.1,39.2,0.8,58.8,0.9c33.1,0.2,66.3,0.1,99.5,0.1c1.4,0,3,0.1,4.4-0.3c3.4-0.9,5.7-2.2,3.4-6.6c-2.2-4.2-3.4-8.9-5.1-13.4
	c-5-13.2-10-26.5-15-39.7c-4.6-12-9.4-23.8-14-35.8c-2.8-7.2-8-9.7-15.5-9.3c-8.6,0.4-17.2-0.2-25.7,0.2c-3.1,0.2-6.7,1.2-9.2,2.9
	c-17.4,12.1-35.1,23.8-51.7,36.9c-10.8,8.7-20.2,19.2-29.6,29.6c-3.7,4.1-6.6,6.9-12.4,4.6c-1.9-0.9-4.3-0.8-6.5-1.1
	c-9-1.4-17.9-2.6-26.8-4.1c-11.1-1.8-22.1-3.9-33.1-5.9c-8.9-1.7-18-3.1-26.9-5c-8.4-1.7-15.9-2-21.2,6.9
	C183.9,1028.9,175.6,1041.4,167.1,1054.6 M365.1,969.6c16.3-10.4,32.7-20.8,49.1-31.2c0.7-0.4,1.1-1.3,1.7-2
	c-1.2-0.5-2.3-1.2-3.5-1.3c-5.2-0.4-10.4-0.7-15.6-1c-8.7-0.7-17.4-1.3-26.2-2c-3.6-0.3-7.4-0.6-11-1.1c-9.8-1.2-19.6-2.8-29.4-3.9
	c-8.5-0.9-17.1-1.4-25.6-2c-15.1-1.1-30.2-2.2-45.3-3c-6.8-0.3-13.7,0.4-20.5-0.2c-4.8-0.4-6.1,2-6.7,5.9
	c-0.9,5.3-1.8,10.7-6.5,14.3c-5.5,4.2-11.7,6.2-18.6,7.1c-12.3,1.7-24.2,1.2-35.8-3.5c-3.9-1.5-7.7-4.1-12.2-2.1
	c-6.7,3-13.5,5.9-20.1,9.3c-8.7,4.3-17.3,9.1-25.8,13.7c-9.6,5.1-19.1,10.3-28.6,15.6c-1.1,0.6-2,1.8-3,2.8c1.3,0.3,2.6,0.9,4,1
	c6.9,0.5,13.8,0.3,20.6,1.2c12,1.6,24,4,36,5.9c13.3,2,26.6,4,40,6c8.9,1.3,17.9,2.6,26.8,4c9.3,1.3,18.6,2.6,27.8,4.1
	c11.2,1.9,22.4,3.9,33.5,5.9c7.5,1.3,14.9,3.1,22.4,3.8c7.9,0.8,16.1,2.8,22.8-4.4c6.4-7,13.4-13.6,20.7-19.8
	C345.3,984.9,355.1,977.6,365.1,969.6 M860.1,751.6c6.5-8.5,13.3-16.8,19.3-25.5c4.9-7.2,3.9-15.6-3-20.9c-5.6-4.3-12.4-7-18.8-10
	c-4.2-2-8.7-3.9-8.8-9.1c-0.1-3.5,1.5-7,2.3-10.5c0.2-1.2,0.4-2.3,0.6-3.4c-1.2,0.3-2.5,0.4-3.6,0.9c-4.1,2.2-8,4.7-12.2,6.6
	c-12.4,5.6-25.9,6.5-39,8.4c-8.4,1.3-16.9,2.7-25,4.9c-9.3,2.5-18.1,6.2-27.3,8.9c-3.5,1-7,1.2-8.9,5c-2.1,4.4-4,9.1-6.7,13.2
	c-2.4,3.6-0.5,3.7,2.2,4c7.4,0.6,14.8,1.3,22.2,2c9.1,0.9,17.7,3.2,23,11.8c4.3,7.1,7.5,14.8,6.5,23.2c-0.8,6.3-3.1,12.6-5.2,18.8
	c-2.5,7.3-1.8,13.5,4.4,18.8c9.9,8.2,21.7,12.6,33.3,17.4c10.8,4.4,22,7.9,31,15.7c2,1.8,4.4,3.2,6.6,4.6c0.5,0.4,1.1,0.4,1.7,0.6
	c-0.2-0.7-0.3-1.4-0.6-1.9c-2.8-3.7-5.8-7.3-8.5-11c-5-7.3-10.5-14.3-14.7-22c-2.9-5.5-6.1-11.8-2.7-18.4c2.3-4.4,4.9-9,8.4-12.4
	C843.9,764.5,851.9,758.4,860.1,751.6 M438.1,812.6c2.3,9.2,7.6,16.4,14.1,23.1c6.9,7.2,12.8,15,16.7,24.1
	c2.6,6.1,3.8,12.8,5.6,19.2c2.9,10.8,5.5,21.7,8.6,32.4c4.3,14.4,10.1,27.9,23.8,35.9c9.5,5.6,16.4,7.5,26.4,0.7
	c7.1-4.8,8.8-12.6,10.8-20.3c2.5-9.6-0.4-16.3-8.2-22.9c-9.9-8.2-15.5-19.9-21-31.6c-7.5-16-10.6-33-14.9-49.8
	c-3.3-12.6-7.2-25-11.5-37.3c-4-11.5-12.9-19.9-20.7-28.9c-5.2-6-9.9-12.5-14.9-18.8c-2.7-3.4-5.1-7.1-8.2-10.1
	c-6.7-6.4-13.6-3.2-16.4,3.1c-4.4,10-7,20.6-4,31.3c1.6,5.7,4.2,12,8.4,15.8c4.1,3.8,5.1,7.5,4.2,11.8
	C435.4,797.6,435.9,804.6,438.1,812.6 M270.6,827.1c5.8,0.3,11.7,0.7,17.6,0.9c12,0.5,24,0.8,36,1c1.3,0,3-1.3,3.8-2.5
	c4.4-5.8,8.6-11.8,12.8-17.7c10.5-14.8,22.8-27.8,38-37.8c0.4-0.3,0.2-2.4,0.2-2.4c-4.1-0.4-8.4-1.6-12.1-0.6c-4.6,1.4-9.3,3.9-13,7
	c-8.3,6.8-16.5,9.6-27.5,6.4c-10.2-3-21.1-3.8-31.8-5.3c-4.8-0.6-9.7-0.8-14.6-1c-12.8-0.4-25.6-1.2-38.4-0.9
	c-14.6,0.4-29.2,2-43.8,2.8c-5.9,0.4-11.9,0.2-17.9,0c-2.7,0-3.9,0.8-3.9,3.7c0,4.6,0.5,8.8,3.6,12.5c1.1,1.3,1.8,2.9,2.4,4.5
	c0.4,0.8,0.5,2.4,0.2,2.6c-0.8,0.5-2.1,0.6-3,0.3c-1.1-0.4-2.5-1.1-3.1-2.1c-3.4-5.8-7-11.7-6.1-19c0.2-1.9,1.3-5.1-2.4-5.4
	c-2.4-0.2-5.3-0.5-7.4,0.6c-3.7,1.9-6.9,4.9-10.4,7.4c-6.7,4.7-13.5,9.3-20.2,14c-8.5,5.9-17,12-25.5,18c-0.7,0.5-1.2,1.2-1.7,1.7
	c0.8,0.5,1.6,1.2,2.4,1.2c2.7-0.1,5.5-1,8.1-0.8c7.3,0.4,14.5,1.2,21.7,1.9c1.6,0.1,3.1,0.6,4.7,0.7c6,0.2,12.3,1.3,18.1,0.2
	c12.8-2.4,25-6.3,38.6-5.4c12.1,0.9,24.2,2,36.2,3.6c1.8,0.3,4.1,2.4,4.7,4.1c1.9,5.5,3.6,6.4,9.3,5.9
	C254.1,826.5,262.1,826.7,270.6,827.1 M162.6,843.1c-5.4,0-10.8,0.2-16.2-0.1c-2.9-0.2-3.7,0.8-3.3,3.5c1,7.4,1.8,14.9,3,22.3
	c1.5,8.6,3.3,17.2,5,25.9c1.6,8.3,3.7,16.5,4.8,24.9c0.9,6.6,3.1,11.9,9,15.5c14.7,9,30.3,11.6,46.9,6.7c7.7-2.2,13.1-6.8,13.3-15.6
	c0-2.2-0.3-4.5,0-6.6c0.9-6.3,2.2-12.5,2.9-18.8c0.5-4.5,1.6-5.4,6-4.4c2,0.5,4.9,1,5.9,0c4.1-3.9,8.7-7.9,10.9-12.9
	c5.5-12.1,0.3-31.3-9.9-39.9c-0.4-0.4-2.7,0.4-2.7,0.7c0.2,5.8-1.6,11.8,4.2,16.7c11.9,10.3,3.7,24.3-5.7,29.7
	c-1.7,0.9-5.8,2.1-6.5-1.7c-0.9-4.9-1.2-10-1-15c0.2-5.1,1.6-10.1,1.8-15.2c0.3-9.5,0-19,0.1-28.5c0.1-4.3-2.2-7.2-5.9-8.1
	c-6-1.5-12.1-2.8-18.3-3c-16.3-0.7-32.7-1.1-48.3,5c-5.7,2.3-11,5.8-16.1,9.2c-1.1,0.8-0.9,3.5-1.3,5.3c1.3-0.7,2.5-1.4,3.8-2.1
	c5.3-2.8,10.4-6.3,16-8.3c5.3-1.9,11.1-3.1,16.7-3.2c13.4-0.2,26.9,0.3,40.4,0.5c1.3,0.1,2.8,0,3.8,0.6c1.2,0.7,2.7,2,3,3.2
	c0.2,1.1-1,3-2.1,3.6c-3.1,1.6-6.4,3.1-9.8,4C196.9,841.5,180.3,843.1,162.6,843.1 M383.1,561.6c0,2.5-0.3,5,0.1,7.5
	c0.4,2.7,1.1,5.6,2.4,7.9c5.7,9.7,11.6,19.2,17.5,28.8c0.1,0.2-0.1,0.7,0,1c1.3,8.8,2.9,17.5,3.8,26.3c0.4,3.1,0.9,4.5,4.1,5.1
	c2.5,0.5,5.2,1.7,7,3.5c3.7,3.7,6.7,8.2,10.4,12.1c3.1,3.3,5.5,7.6,12,5.6c3.8-1.2,8.5,0.5,12.7,1.3c9.6,1.7,19.2,3.7,28.8,5.3
	c3.7,0.6,5.1-1.5,5.3-5.2c0.2-4.8,1-9.5,1.9-14.2c2-10.4,5.4-20.3,10.5-29.6c0.4-0.7,0.2-1.8,0.2-2.7c-0.8,0.3-1.6,0.6-2.4,1
	c-4.7,2.2-9.3,5.2-14.2,6.6c-10.1,2.9-20.3,5.2-30.6,7c-4.7,0.9-9.8,0.3-14.6,0.1c-1-0.1-2-1.6-2.9-2.4c0.9-0.5,1.9-1.3,2.9-1.5
	c10.8-1.7,21.7-2.9,32.4-5.2c11.7-2.5,22.7-7.1,32.5-14.2c1-0.7,1.5-2.1,2.2-3.1c-1.1-0.2-2.3-0.7-3.3-0.5c-11.1,2.7-22.5,2-33.8,2
	c-7.8,0-15.6,0.1-23.4-0.2c-1.5,0-4.2-1.6-4.3-2.7c-1.3-11.3-2.2-22.8-3.2-34.2c-0.3-2.4-0.5-4.8-1.1-7.1c-0.2-0.7-1.6-1.7-2.4-1.7
	c-4.1,0.1-8.1,0.8-12.1,0.8c-11.2,0.2-22.4,0-33.5,0.1C386.3,559.2,384.7,560.1,383.1,561.6 M680.1,623.6c4,0.8,7.9,2.2,11.9,2.4
	c21.1,1.1,40.5-2.7,55.4-19.6c5.6-6.4,8.7-13.7,9.7-22c1-9.1,2-18.2,3-27.3c1.3-13.1,3.2-26.2,3.8-39.3c0.4-8.4-1.1-16.8-1.9-25.2
	c0-0.3-1.9-0.9-2.2-0.6c-1.6,1.6-2.7,3.7-4.4,5.1c-9.3,8.5-18.9,16.6-28,25.2c-7.4,7.1-14.2,14.7-21.2,22.2
	c-1.8,1.9-3.3,4.2-4.9,6.3c2.8-0.3,5.7-0.3,8.4-0.9c14.1-3,25.3,2.8,35.3,11.8c0.9,0.8,0.5,2.9,0.6,4.3c-1.4,0-3,0.5-4-0.1
	c-3.7-2.1-7-4.8-10.8-6.8c-12.1-6.5-24.4-4.4-36.6,0c-4,1.5-3.6,4.7-2.5,8.1c0.8,2.9,2.5,6.1,2.2,8.9c-0.9,8.4-2.2,16.8-6.8,24.2
	c-4.6,7.4-8.8,15.1-18.6,16.8c-0.5,0.1-0.9,0.9-1.4,1.3c0.7,0.6,1.4,1.4,2.2,1.6C672.7,621.1,676.2,622.1,680.1,623.6 M339.1,819.6
	c-1.7,3-3.4,5.9-5,8.9c-2.2,4.4-5.4,7-10.7,6.6c-5-0.4-10-0.7-15.1-1c-12.3-0.7-24.7-1.7-37.1-1.9c-10.4-0.2-20.8,0.5-31.1,0.9
	c-1,0-2,0.5-3,0.8c0.6,0.9,1.2,1.9,2,2.6c0.6,0.6,1.6,1,2.4,1.5c11.8,6.5,17.3,17.3,18.3,30.1c0.4,5.2,2.3,5.8,6.1,4.9
	c14-3.3,28.1-6.9,42.1-10.4c18-4.5,35.9-9.1,53.9-13.5c12-2.9,24.1-5.4,36.2-8c8-1.7,16-3.4,23.9-5c1.4-0.3,2.7-0.5,4.1-0.8
	c-0.8-1-1.4-2.1-2.3-3c-12.3-11.9-24.5-23.8-36.7-35.7c-3.4-3.3-6.6-6.6-9.9-9.9c-3.9-3.9-5.6-4-9.3,0.1
	C358.4,797.5,349,808.3,339.1,819.6 M656.1,277.6c-0.7-0.8-1.5-1.4-2-2.2c-2.2-3.8-3.5-9.1-6.7-11c-5.3-3.1-5.4-6.9-5.4-11.8
	c0-3.9,0.5-7.3,3.2-10.3c1.6-1.8,3.2-4,3.7-6.3c0.9-3.6,1-7.3,1.1-11c0.2-6.7-3.5-10.2-10.1-9.9c-0.6,0-1.2,0.3-1.8,0.5
	c0.2,0.5,0.4,1.2,0.8,1.4c8.7,5.2,7.4,13.1,5.7,21.1c-0.4,1.6-0.9,4.3-1.8,4.5c-5.5,1.4-5.1,5.5-5.9,9.6c-0.9,5.4-2.3,10.9-9.3,12
	c-1.3,0.2-2.6,1.7-3.5,2.9c-5.2,6.6-10,13.6-15.7,19.8c-2.7,3-2.9,5.9-1.1,8.1c2.3,2.9,0.4,2-1.2,2.1c-4.3,0.1-9-1.4-12.7,2.2
	c-0.7,0.7-0.9,1.9-1.3,2.9c1,0.3,2,0.9,2.9,0.8c6.9-0.6,13.8-1.4,20.7-1.9c4.3-0.3,8.7,0.1,13-0.1c12.4-0.5,24.7-1.4,37.1-1.8
	c1.7,0,3.5,2,5.3,3.1c-1.7,1.1-3.3,3.1-5,3.2c-13.3,0.7-26.6,1.1-39.9,1.5c-5.3,0.2-6.8,2.3-4.5,7.1c2.1,4.3,4.5,8.6,7.4,12.4
	c3.8,4.8,8.3,9.1,15.4,6.5c2.4-0.9,4.5-2.7,6.9-3.9c0.8-0.4,1.8-0.3,2.8-0.4c-0.1,1,0.1,2.7-0.4,3c-4.4,2.6-8.7,6.2-13.5,7.1
	c-7.7,1.4-17-6.4-20.2-15.2c-0.4-0.9-1-1.6-1.4-2.4c-0.6,0.7-1.5,1.4-1.6,2.1c-0.4,5.6-0.8,11.2-0.9,16.8c0,1.5,1.1,3.1,1.8,4.6
	c-1.8,0.1-3.6,0.3-5.4,0.3c-0.2,0-0.5-0.6-0.7-0.6c-0.5,0.2-0.9,0.5-1.4,0.8c0.3,0.3,0.5,0.7,0.8,0.8c1,0.5,2.1,0.6,3.1,1.1
	c9.6,4.4,18.9,9.2,20.7,21.3c0.1,0.6,0.7,1.1,1.1,1.7c0.6-0.5,1.7-0.9,1.8-1.5c0.8-3.8,1.1-7.8,2.1-11.6c1.2-4.3,2.1-9,4.5-12.6
	c2.7-4.1,6.5-7.5,10.4-10.6c4.3-3.4,9.2-5.9,13.7-9c2.3-1.5,6-3.3,6.1-5.1c0.4-6.7,0.3-13.6-1-20c-0.7-3-4.6-5.6-7.5-7.7
	c-1.1-0.7-3.6,0.5-5.4,0.7c-1.2,0.1-2.6,0.4-3.7-0.1c-6.5-2.6-13.1-4.2-20.1-2.5c-2.2,0.5-4.4,1.7-6.6,1.8c-1.5,0.1-3-1.2-4.4-1.8
	c0.9-1.4,1.6-3.8,2.8-4.1c5.2-1.3,10.6-3.2,15.8-2.6c5.3,0.6,11.7-0.6,16,4.6c0.4,0.5,1.9,0.1,2.9,0.1c-0.4-0.8-0.7-1.5-1.2-2.2
	C660.3,283.5,658.2,281,656.1,277.6 M735.1,652.6c0.2,0.5,0.3,1.2,0.7,1.7c1.2,1.3,2.5,2.5,3.8,3.7c-0.1-1.8,0.1-3.7-0.5-5.3
	c-2.9-7.5-6-14.9-9.1-22.3c-0.4-1.1-1.4-2.1-2.2-3.1c-0.3,0.9-0.4,2.1-1.1,2.5c-1.5,1-3.3,1.8-5,2.2c-1.1,0.2-2.4-0.9-3.6-0.9
	c-8.2,0.3-16.4,0.9-24.6,0.9c-4.9-0.1-9.9-0.7-14.7-1.8c-12.5-2.8-23.2-9.5-33.6-16.6c-7.9-5.4-15.3-9.6-25.7-5.8
	c-5.5,2-12.7,2.5-18.3,0.9c-8.6-2.3-16.4-7-24.6-10.6c-2-0.8-4.1-2-6.1-1.9c-7.3,0.4-14.5,1.2-21.7,1.9c-10.6,1-21.2,1.8-31.7,3.1
	c-2,0.2-4.8,1.5-5.5,3.2c-2.6,5.2-4.5,10.8-6.6,16.2c-0.2,0.8-0.3,1.6-0.4,2.4c0.6-0.3,1.4-0.5,2-0.9c5.4-3.3,11.4-4.6,17.5-4.9
	c13.2-0.8,26.4,0,39.4,3.6c7.1,2,14.4,3.4,21.7,4c3.7,0.4,7.5-2.2,11.3-2.6c7.7-1,15.4-1.7,23.1-2.1c13-0.5,24.2,5.9,35.8,10.1
	c14,5.1,27.8,8.8,42.8,6c2.9-0.6,6.1-0.5,9.1-0.1C718.4,637.9,727.6,643.1,735.1,652.6 M515.6,392.1c9.9-0.7,19.7-1.7,29.6-1.9
	c15.2-0.4,30.3,0,44.9-5.1c2-0.7,4-1.3,6-1.9c-1.7-0.9-3.5-1.6-5.1-2.7c-9.9-6.8-20.3-12.2-32.8-12.4c-12.9-0.3-25.8-1.4-38.7-0.8
	c-14,0.5-27.9,2.3-41.8,3.9c-3.3,0.3-7.1,0.9-9.8,2.7c-8.9,6-17.5,12.5-26,19.1c-1.2,0.8-1.2,3.1-1.8,4.6c1.5,0.5,3,1.5,4.4,1.4
	c4.4-0.4,8.8-1.5,13.2-1.9c13.2-1.1,26.5-2,39.7-3.1C503.2,393.6,508.9,392.7,515.6,392.1 M369.1,516.6c-6.1,1.4-12.2,2.6-18.3,4.3
	c-8.8,2.4-8.8,2.5-6.2,11.2c0,0.1,0.3,0.2,0.3,0.3c-0.5,4.6,2.3,5.1,5.8,4.7c10.5-1.4,18.7,1.9,24.4,11.3c1.4,2.3,4.1,5.2,6.4,5.4
	c8.3,0.7,16.6,0.3,24.9,0.3c8.2,0,16.4-0.1,24.6,0c2.5,0,4.5-0.3,4.1-3.3c-2.3-15.6-4.7-31.1-7-46.6c-0.1-0.8-0.5-1.4-0.7-2.1
	c-0.7,0.4-1.4,0.8-2,1.2c-2.4,1.4-4.7,3.6-7.3,4.2c-10.2,2.1-20.5,3.8-30.8,5.6C381.4,514.1,375.5,515.1,369.1,516.6 M636.1,554.6
	c0.3,8.2,0.8,16.5,0.8,24.7c0.1,1.6-1.4,4.3-2.6,4.5c-1.9,0.4-5.2-0.1-6-1.4c-3.2-5.3-5.9-10.9-8.2-16.6
	c-5.2-12.9-10-25.9-15.1-38.8c-0.3-0.8-1.5-1.3-2.3-1.9c-0.2,0.9-0.6,1.8-0.6,2.7c-0.2,10.9,3.4,21,6.5,31.3
	c2.2,7.2,4.5,14.5,6.4,21.8c0.5,1.9,1.1,5.2-2.6,5.1c-2.3-0.1-5.6-0.5-6.7-2.1c-5.8-8.3-11.3-16.9-16.6-25.6
	c-4.9-8-9.3-16.4-14-24.6c-0.3-0.7-1.1-1.1-1.7-1.6c-0.4,0.6-1.2,1.2-1.3,1.9c-1.2,6.9,0.7,13.2,3.6,19.2
	c5.8,11.6,13.9,21.5,23.3,30.4c1.2,1.1,2.6,2.6,2.9,4.2c0.3,1.3-0.8,4-1.4,4.1c-2.3,0.1-5.3,0.2-6.9-1.1c-4.2-3.4-8.2-7.3-11.4-11.6
	c-6.5-8.5-12.5-17.5-18.7-26.2c-0.5-0.7-1.4-1.1-2.1-1.7c-0.5,0.8-1.3,1.7-1.2,2.4c0.3,3.8,0.1,8,1.6,11.3
	c7.5,16.8,17.7,30.4,37.1,35.4c8.8,2.2,17.1,1.6,25.3-0.5c8.2-2.1,16.2-1.9,24.3-0.9c2.4,0.3,4.8,0,7.2,0c-0.1-2.4,0.4-5-0.4-7
	c-4.7-12.4-6.9-25.1-6.3-38.4c0.2-5.5-0.3-11.1-1-16.6c-0.5-3.6-1.8-7.2-3.3-10.6c-0.6-1.4-2.6-2.2-4-3.3c-0.9,1.4-2.4,2.8-2.5,4.3
	C637.3,536.1,636.7,544.9,636.1,554.6 M326.6,541.1c1.8,0.4,3.6,0.8,5.4,1.4c4.8,1.5,7.5-0.6,7.1-5.5c-0.3-2.2-0.6-4.4-1.2-6.6
	c-0.8-2.9-2.1-5-6-4.4c-5.8,1-11.8,1.4-17.6,2.1c-16.3,2-32.5,3.1-48.8,1.1c-3.4-0.5-7-0.4-10.3,0.4c-8.7,2-15.6,7.3-21.8,13.7
	c-0.9,0.9-1.5,2.2-2.2,3.4c1.5-0.2,3.2,0,4.4-0.7c4.8-2.5,9.4-5.5,14.3-7.8c1.6-0.7,5.1-0.7,5.7,0.3c1.5,2.4,0.6,5.2-2.2,6.5
	c-7.4,3.8-14.9,7.4-22.4,11.1c-1.1,0.6-1.9,1.7-2.9,2.5c1.3,0.5,2.6,1.2,3.9,1.4c8.1,1.2,15.1-2.2,22.2-5.3c2.9-1.3,7-1.5,9.9-0.4
	c7.8,2.7,15.8,2.2,23.6,1.4c7.2-0.7,13.5-4.2,18.4-10c1.5-1.7,4.1-3.1,6.4-3.5C316.8,541.4,321.2,541.4,326.6,541.1 M487.6,684.1
	c-0.2-1.6-0.4-3.2-0.5-4.8c-0.6-6.9-0.9-7.2-7.8-7.2c-2.9,0-6.1,0.4-8.9-0.3c-7.6-1.9-15.1-4.5-22.7-6.6c-7-2-14.7,2.7-15.5,9.4
	c-0.3,2.2,0.3,4.6-0.2,6.7c-0.6,2-2,3.9-3.1,5.8c-0.4,0.6-1.2,1-1.8,1.5c0.8,0.5,1.6,1.4,2.4,1.4c8.3-0.3,13.6,5.2,19.6,9.6
	c5.8,4.2,11.5,8.4,19.4,7.5c5.8-0.6,11.7-0.9,17.5-0.9c3.5,0,4.4-1.4,4.1-4.5C489.4,696,488.7,690.3,487.6,684.1 M676.6,328.1
	c-5.6,3-11.7,5.3-16.6,9.1c-5.8,4.5-11.4,9.2-12.1,17.8c-0.6,6.7-1.5,13.8-6.8,19.1c-0.6,0.6-0.6,1.7-1,2.5c1.3-0.3,2.7-0.3,3.8-0.9
	c7.3-4.5,14.5-9.1,21.8-13.7c20.7-13.3,41.5-26.6,62.2-40c1.4-0.9,2.1-2.8,3.2-4.3c-1.9-0.2-3.8-0.8-5.6-0.4
	c-5.8,1-11.6,2.5-17.4,3.8C697.9,323.4,687.8,325.7,676.6,328.1 M395.1,677.6c-1.1,2.4-2.4,4.7-3.1,7.2c-0.4,1.6-0.5,4.6,0.3,5.1
	c4.1,2.4,8.5,4.5,13,6c1.9,0.7,4.7,0.5,6.7-0.4c14.4-5.8,20.9-26.6,11.7-39.1c-3.3-4.5-7.7-8.3-12-12.1c-3-2.6-6.3-1.7-6.6,1.4
	c-0.6,7.8-3.2,14.9-6.8,21.7C396.9,670.3,396.1,673.5,395.1,677.6 M360.6,723.1c-4,1.3-7.9,2.7-11.8,4c-6.5,2.1-13,4.1-19.4,6.2
	c-0.5,0.2-0.8,0.9-1.2,1.4c0.5,0.1,0.9,0.3,1.3,0.4c8,1,15.9,2,23.8,3c4.8,0.6,9.7,1.3,14.6,2c0.8,0.1,1.7,0.1,2.5-0.1
	c5.6-1.4,10.8-3.4,14.6-8.2c2-2.5,4.9-4.2,7.2-6.5c1.5-1.4,3.4-3,3.7-4.9c1.4-6.5-2.7-16.4-8.5-19.1c-2.2-1.1-6.7-1-8.1,0.5
	C372.8,708.3,367.1,715.6,360.6,723.1 M599.6,308.1c-3.5,0.3-7.1,0.3-10.6,1.1c-3.1,0.7-6.5,1.6-8.9,3.6c-4.5,3.6-8.3,8.1-12.4,12.2
	c-2.4,2.4-2.3,4.6-0.1,7.2c6.6,7.2,16.7,6.4,25.2,3.8c9.5-2.9,13.5-11.4,17.2-19.6c3.2-7.3,2.1-8.3-5.9-8.3
	C602.9,308.1,601.7,308.1,599.6,308.1 M476.6,756.1c3.5,3.3,7.8,6.1,10.3,10.1c3.2,5.2,4.8,11.3,7.2,16.9c0.7,1.5,2,2.7,3,4
	c0.3-1.3,1-2.6,0.9-3.8c-0.1-4.3-0.6-8.6-0.6-13c0-4.2,1-8.6,0.5-12.7c-0.6-4.6-2.9-8.9-3.7-13.4c-0.6-3.4-2.1-4.8-5.3-4.1
	c-3.6,0.8-7.3,1.6-10.7,3C468,747.4,468.1,747.6,476.6,756.1 M575.1,278.6c-11.4,7.2-14.4,19.6-18.9,31c-0.4,0.9,0.4,2.3,0.7,3.5
	c1.1-0.8,2.6-1.3,3.1-2.3c2.2-4.5,3.6-9.5,6.2-13.9c6-10.2,11.8-20.7,19.1-30c10-13.1,21.9-24.4,39.1-27.9c0.6-0.1,1.1-1,1.7-1.5
	c-0.5-0.5-0.9-1.3-1.4-1.4c-3.2-0.3-6.4-1-9.4-0.6c-9.4,1.5-15.8,8-22.1,14.2C585.2,257.5,579.5,267.2,575.1,278.6 M202.1,701.6
	c-0.4,2.9-1.2,5.9-1.1,8.8c0.2,6.2,4.5,10.3,8.4,14.4c2.6,2.7,5.4,6.3,8.6,7c5.6,1.1,11.7,0.3,17.5,0.2c1.2,0,2.3-0.9,3.5-1.3
	c-1.1-0.6-2.1-1.2-3.1-1.6c-6.3-2.1-10.6-6.6-14.9-11.3c-5-5.8-10.4-11.4-15.7-16.9C204.9,700.5,203.5,701,202.1,701.6 M632.6,219.1
	c0.1-0.1,0.2-0.3,0.3-0.4c-5.4-2.5-10.8-6.6-16.4-7.1c-7-0.7-14.2,1.3-21.2,2.5c-12.2,2.2-22.3,8.3-30.8,17.1
	c-0.8,0.9-0.7,2.5-1.1,3.7c1.2-0.3,2.4-0.5,3.4-1.1c6-3.6,11.7-8,18-10.8c12.1-5.2,24.9-6.3,37.9-4
	C625.8,219.6,629,219.4,632.6,219.1 M684.1,567.6c-3,2.3-2.4,5.5-1.5,8.4c1.2,4,0.9,7.6-1.2,11.3c-1.2,2.1-2,4.5-2.8,6.8
	c-1.4,4.3-4,7.1-8.5,8c-3.6,0.7-7.2,0.9-10.6,2.1c-3.6,1.2-6.9,2.9-10.8,1c-0.6-0.3-1.7,0.6-2.6,1c0.6,0.7,1,1.8,1.8,2.1
	c3.6,1.4,7.4,2.3,10.9,3.8c4.6,2.1,8.1,0.3,11.8-2c8.9-5.7,13.1-14.3,15.5-24C687.6,579.6,688.2,573.2,684.1,567.6 M377.1,562.6
	c-3.8-5.5-7-11.4-11.5-16.2c-4.2-4.5-19.4-4.6-24.4-0.8c-0.3,0.2,0.1,2.3,0.6,2.5c4.4,2.1,9.1,3.7,13.4,6
	c6.3,3.4,12.4,7.2,18.4,11.1c1.7,1.1,2.9,3,4.3,4.6C377.8,567.5,377.7,565.3,377.1,562.6 M582.6,229.1
	c-10.2,5.5-19.2,12.7-25.4,22.6c-3.5,5.5-5.6,11.9-8.2,18c-0.3,0.9,0.2,2.1,0.3,3.1c0.8-0.6,2-1.1,2.4-2c1.3-2.2,2.1-4.8,3.4-7
	c6.8-11,14.5-21.2,26.1-27.7c6-3.4,12.2-6.7,18.3-10.1c0.6-0.3,0.9-1.1,1.4-1.6c-0.7-0.1-1.4-0.5-1.9-0.3
	C593.8,225.7,588.7,227.4,582.6,229.1 M576.6,365.1c4.2,1.9,8.4,3.8,12.6,5.6c0.8,0.3,1.8,0,2.7,0c-0.3-0.8-0.6-1.7-1.1-2.3
	s-1.4-0.8-1.9-1.3c-9.1-7.6-19.9-10-31.4-10c-6.6,0-13.5,1.6-20,0.7c-5.2-0.8-9.8-1-14.4,1.3c-1.1,0.5-2,1.2-3,1.8
	c1.2,0.4,2.4,1.1,3.6,1.1c11-0.2,22.1-1.1,33.1-0.7C563.1,361.5,569.3,363.7,576.6,365.1 M682.6,261.1c-4.8-7-10.4-12.5-19.9-11.1
	c-1.1,0.1-2.4-1-3.6-1.6c1.3-1.1,2.7-3.2,4.1-3.1c3.7,0,7.5,1,11.2,1.6c0.8,0.1,1.6,0,2.4,0c-0.3-0.8-0.3-1.8-0.8-2.4
	c-4.9-5.6-16.1-4.2-19.9,2.5c-1.7,3-1.6,4.9,2.3,6.2c6.5,2,13.8,2.6,18.3,9c2.2,3.2,4.4,6.5,6.7,9.6c0.7,1,2,1.5,3.1,2.3
	c-0.1-1.1,0-2.3-0.3-3.3C685.3,267.7,684.1,264.6,682.6,261.1 M594.1,277.6c3.7-4.1,7.5-8.2,11.2-12.3c0.8-0.9,1.4-2.1,1.7-3.3
	c0.2-0.8-0.2-1.9-0.3-2.8c-0.8,0.4-1.8,0.6-2.4,1.2c-5.4,5.3-10.9,10.6-16.1,16.1c-3.3,3.5-6.2,7.4-9,11.2c-0.8,1.1-0.5,2.9-0.6,4.3
	c1.2-0.5,2.8-0.8,3.7-1.7C586.1,286.3,589.8,282.2,594.1,277.6 M676.6,577.1c-4.7-1.9-14.9,5.1-14.5,10c0.1,0.8,0.5,1.8,1.1,2.5
	c1,1.6,2.4,3,3.4,4.6c2.1,3.3,3.4,2.3,4.5-0.7c0.8-2.1,1.1-5,2.6-6.3C676.9,584.5,677.4,581.3,676.6,577.1 M634.6,234.1
	c0.7,2,1.3,4.1,2.1,6c0.3,0.8,1,1.3,1.6,2c0.2-0.7,0.7-1.3,0.7-2c0.1-4.8,0.7-9.8-0.2-14.5c-0.4-2.3-3.4-4.4-6.7-3.4
	c-0.1,0.1,0.7,2.5,1,3.8C633.5,228.5,633.7,231.1,634.6,234.1 M604.1,284.6c2.8-3.5,5.6-6.9,8.3-10.5c0.5-0.6,0.4-1.7,0.6-2.6
	c-0.9,0.3-2.1,0.3-2.7,1c-5,5.1-9.9,10.3-14.7,15.6c-0.5,0.6-0.2,1.8-0.3,2.7c0.8-0.3,1.8-0.3,2.4-0.8
	C599.7,288.5,601.6,286.7,604.1,284.6 M237.1,871.6c-0.7,3.2-1.4,6.4-2,9.6c-0.1,0.9,0.3,1.9,0.4,2.8c1-0.5,2.4-0.9,2.7-1.7
	c1.8-3.8,5.5-7.2,2.9-12c-1-1.8-2.2-3.5-3.2-5.2C237.6,866.9,237.3,868.7,237.1,871.6 M603.6,337.1c-2.4,1-4.8,1.9-7.2,3
	c-0.4,0.3-0.9,1.8-0.6,2.1c2.4,2.7,11.2,0.7,12.2-2.8c0.6-2.2,0.7-4.6,1-6.9C607.3,333.8,605.7,335.2,603.6,337.1 M682.6,321.1
	c4.7-1.4,8.1-4.1,6.3-9.5c-0.6-1.8-3.2-3-4.8-4.5c-0.7,0.8-1.8,1.6-1.8,2.4C682,313.2,682.1,316.9,682.6,321.1 M166.1,835.6
	c3.8,0.4,7.7,0.9,11.6,1.3c0,0,0.2-0.5,0.1-0.6c-1.3-2-2.4-5.3-3.8-5.5c-2.9-0.3-5.9,1.2-8.9,2.1
	C165.1,832.9,165.4,834.3,166.1,835.6 M558.6,343.1c1.8-0.4,3.7-0.6,5.5-1.1c1.4-0.4,2.7-1.2,4-1.8c-1.1-1-2.4-2.9-3.3-2.8
	c-2.8,0.4-5.4,1.7-8.2,2.6c-2.1,0.7-5.1-0.2-5.5,3.3C553.2,343.2,555.4,343.1,558.6,343.1 M573.6,271.1c2.3-4.4,4.7-8.7,7-13.1
	c0.2-0.4,0.2-1.1,0.2-1.7c-0.4,0.3-1,0.5-1.3,0.9c-3.1,4.4-6.4,8.7-9.1,13.2c-0.9,1.5-0.5,3.8-0.8,5.7
	C570.8,274.6,571.9,273.1,573.6,271.1 M545.1,320.6c0.5,0.1,1.6,0.3,1.6,0.3c1.7-5,3.3-9.9,4.7-14.9c0.2-0.5-0.6-1.3-1-1.9
	c-0.4,0.5-1.1,0.9-1.3,1.4C547.6,310.4,546.1,315.2,545.1,320.6 M695.1,267.6c0.3,1.7,0.4,3.5,1.1,5c0.5,1.1,1.9,1.7,2.8,2.5
	c0.4-1.1,1-2.2,1-3.3c-0.1-1.7-0.4-3.4-1-5c-0.7-2-1.7-3.8-2.6-5.7C695.9,262.9,695.5,264.7,695.1,267.6 M553.6,246.1
	c-5.4,2.1-6.5,7.3-8.4,11.8c-0.3,0.7,0.7,2,1.2,3c0.4-0.7,1-1.3,1.3-2C549.9,254.8,552,250.7,553.6,246.1 M187.6,836.1
	c1.9-3.5-1-5.1-3-6.8c-0.6-0.5-3-0.2-3.3,0.4C180.1,831.7,183.8,835.9,187.6,836.1 M156.6,838.1c1.5-0.3,3-0.6,4.5-0.8
	c-0.3-0.9-0.6-2.5-0.9-2.5c-1.6-0.2-3.3,0.1-4.9,0.3c-0.1,0-0.4-0.1-0.5,0c-1.2,0.8-2.4,1.7-3.6,2.6
	C152.7,837.8,154.1,838,156.6,838.1 M660.1,262.6c-1.4-1.7-2.6-3.6-4.2-5.1c-0.7-0.6-2.2-0.4-3.3-0.4c-0.1,0.1-0.5,1.4-0.4,1.5
	C654.8,260.4,657.5,262,660.1,262.6 M222.6,566.1c2.3-1.8,1.9-3.5-0.2-5.1c-0.3-0.2-1.2-0.1-1.3,0.2c-1,2.5-1.9,5-2.8,7.6
	C219.5,568,220.8,567.3,222.6,566.1 M683.1,281.6c-1.3-2.3-2.5-4.6-3.8-6.8c-0.2-0.2-0.7-0.3-1.1-0.4c0,0.3-0.2,0.6-0.1,0.9
	c0.3,1.9,0.3,3.8,1.1,5.5C679.8,282.1,680.1,285.7,683.1,281.6 M629.6,256.1c-0.5-1-1.1-2-1.6-3c-1,1.3-2.2,2.5-2.8,3.9
	c-0.4,0.8,0.3,2,0.5,3.1c0.8-0.8,1.6-1.7,2.4-2.5C628.4,257.3,628.7,256.9,629.6,256.1 M704.1,314.6c-0.4-1.4-0.5-2.8-1.1-4
	c-0.2-0.5-1.5-0.5-2.3-0.7c0.2,1.7,0.1,3.5,0.5,5.1C701.3,315.4,703.1,315.4,704.1,314.6 M198.1,833.6c-1.6-1.1-3.2-2.2-4.7-3.3
	c0.2,1.3,0,3,0.8,3.7S196.7,834.4,198.1,833.6 M625.6,230.1c-1.6,0-3.1-0.1-4.7,0.1c-0.2,0-0.3,1.1-0.5,1.7
	C622.3,231.4,624.2,231,625.6,230.1 M208.1,831.6c1.6-0.4,3.3-0.7,5-1.1c-1.4-0.1-2.8-0.3-4.3-0.4
	C208.6,830.1,208.3,830.4,208.1,831.6 M668.1,266.6c-0.2-1.2-0.3-2.3-0.5-3.5c-0.4,0.1-0.8,0.2-1.3,0.2c0.3,0.9,0.5,1.7,0.8,2.5
	C667.2,266.2,667.4,266.6,668.1,266.6 M588.6,298.1c0.1-0.1,0.2-0.2,0.3-0.4c0,0,0-0.2,0-0.3c-0.6,0.1-1.2,0.2-1.8,0.3
	C587.4,298,587.7,298.3,588.6,298.1 M543.1,271.6c0.1,0.1,0.2,0.2,0.3,0.3c0.1,0.1,0.3,0,0.4,0c-0.2-0.9-0.3-1.8-0.4-2.7
	C543.3,269.7,543.2,270.1,543.1,271.6 M543.1,273.6c0.2,0.1,0.4,0.2,0.6,0.4C543.6,273.7,543.6,273.4,543.1,273.6"/>
<path d="M244.3,135.8c-2.1-2.8-3.9-5.4-5.9-7.9c-0.5-0.6-1.4-1-2.1-1.6c-0.1,1-0.4,2-0.2,2.9c0.5,2,1.8,3.8,1.8,5.7
	c0,1.7-0.9,4.4-2.1,5c-2.3,1-3.5-0.5-3.8-3.4c-0.7-7.1-2.1-14.1-2.8-21.2c-0.1-1.3,1.2-3.6,2.2-3.8c1.6-0.2,4.1,0.4,4.9,1.5
	c2.6,3.9,4.5,8.1,6.8,12.2c0.8,1.5,1.8,2.9,2.9,4.3c0.9,1.1,2.1,2,3.2,3c0.2-1.7,1-3.5,0.7-5c-1.1-5.5-2.8-10.9-3.7-16.5
	c-0.2-1.5,1-4,2.3-4.8c2.9-1.6,4.1,1.2,4.3,3.2c1,7.5,1.8,15,2.1,22.6c0.1,2-1.4,5.5-2.7,5.8C249.9,138.2,247.1,136.7,244.3,135.8"
	/>
<path d="M113.3,161.8c1.5,3.5,2.3,6.8,3.9,9.8c1.3,2.4,1.8,4.4-1.2,5.4c-3.2,1.1-4.2-1.7-4.8-3.9c-0.9-2.7-1.2-5.2-5.1-5.1
	c-3.6,0-4.1,1.9-3.8,4.8c0.2,2.2,0.6,4.4,0.7,6.7c0.1,0.8-0.4,1.7-0.6,2.6c-1-0.4-2.6-0.6-2.9-1.3c-1.2-2.4-2.6-5.1-2.8-7.8
	c-0.5-7.2-0.8-14.6-0.4-21.9c0.1-1.7,2.7-4.6,4.3-4.7c2.1-0.1,5.1,1.5,6.3,3.3C109.4,153.3,111.1,157.6,113.3,161.8 M106.1,159.6
	c-0.4-1.4-0.4-2.9-1.1-4c-0.9-1.4-2.3-2.4-3.4-3.5c-0.5,1.4-1.3,2.9-1.4,4.4c-0.1,1.1,0.5,2.3,0.9,3.5
	C102,162.7,103.5,162.9,106.1,159.6"/>
<path d="M526.1,81.1c0-2.7,0-5,0-7.2c0-4.1-0.5-8.4,0.2-12.4c0.3-2.3,2.1-5.2,4-6.2c2.4-1.2,4.9,0.1,5.9,3.3
	c1.1,3.2,2.7,6.2,4.2,9.2c0.6,1.2,1.6,2,2.4,3c0.4-1.1,1.2-2.3,1.2-3.4c0.2-3,0.1-6,0.1-9c0-2.8,0.7-4.5,4-4.4
	c3.8,0.2,3.2,2.9,2.9,5c-0.8,5.9-1.8,11.8-3,17.7c-0.3,1.5-1.3,3.7-2.6,4.1c-1.2,0.5-3.8-0.5-4.5-1.6c-2.2-4-3.9-8.4-5.8-12.5
	c-0.6-1.3-1.5-2.4-2.3-3.6c-0.6,1.4-1.7,2.7-1.6,4.1c0,4.2,0.7,8.4,0.8,12.6c0,1.3-1.4,2.7-2.2,4C528.6,83.1,527.3,82.3,526.1,81.1"
	/>
<path d="M155.3,138.8c5.2,7.4,7.9,14.8,2.8,23.1c-2.1,3.5-8.2,6.5-11.9,5c-1.3-0.5-2.7-2.3-3-3.7c-1.9-7.2-3.6-14.5-5.1-21.8
	c-0.6-3.2,0.9-5.3,4.6-5.4C147,136,151.3,135.7,155.3,138.8 M148.1,155.6c0.6,1.8,1.2,3.6,1.8,5.5c0.9-0.3,2-0.4,2.6-1
	c4.9-4.9,1.8-17-4.9-19c-2.3-0.6-2.9,0.6-2.5,2.6C145.9,147.5,146.7,151.3,148.1,155.6"/>
<path d="M450.8,80.3c-0.7,3-1.1,6.2-1.5,9.5c-0.2,1.5,0.3,3.5-0.4,4.6c-0.5,0.8-3,1.1-4,0.5c-1-0.7-1.6-2.5-1.8-3.9
	c-0.5-5.6-0.8-11.1-0.9-16.6c0-1.4,0.9-3.7,2-4.1c1.5-0.6,4.2-0.3,5.1,0.8c2.6,3,4.5,6.7,6.8,10.1c0.8,1.1,2,1.9,3,2.9
	c0.3-1.1,1-2.2,0.9-3.3c-0.2-3.9-0.9-7.7-0.8-11.6c0-1.4,1.7-2.7,2.6-4.1c1.1,1.4,3,2.7,3.1,4.2c0.4,5.6,0.4,11.3,0.1,16.9
	c-0.2,2-1.7,5.6-2.5,5.6c-2.3-0.1-5.2-1.1-6.7-2.8C453.7,86.7,452.6,83.4,450.8,80.3"/>
<path d="M584.1,58.1c-0.2,5.3-0.1,10.1-0.6,14.9c-0.4,3.9-1.1,7.9-2.6,11.4c-0.9,2.2-3.6,5.4-5.2,5.3c-2.2-0.2-3-2.8-1.9-6.2
	c2.2-6.8,3.8-14.1,4-21.3c0.3-7.7-4.2-13.7-10.6-18.2c-1.1-0.9-1.3-3.1-1.9-4.7c1.8-0.3,4.3-1.7,5.3-0.9
	C577.1,43.3,583.9,48.2,584.1,58.1"/>
<path d="M81.1,181.1c-4.1-9.2-3.6-18.2-2.2-27.4c0.4-2.8,0.4-5.7,1.3-8.4c0.6-1.5,2.6-2.5,3.9-3.7c0.8,1.8,2.7,3.9,2.3,5.4
	c-3.6,12.9-2.9,25.1,3.7,36.9c1.2,2.2,2.9,4.2,3.6,6.5c0.4,1.5-0.5,3.5-0.8,5.3c-1.5-0.6-3.6-0.7-4.3-1.8
	C85.8,190,83.5,185.7,81.1,181.1"/>
<path d="M512.3,85.3c-6.1,4.6-12.9,2.5-14-4.9c-0.7-4.8,0.5-10.2,2-15c1.5-4.8,6-6.7,10.5-5.3c3.9,1.2,4.9,4.8,5.2,8.3
	C516.5,74.3,516.9,80.2,512.3,85.3 M504.6,70.1c-0.2,3.1-0.5,6.2-0.4,9.2c0,1,0.8,2.1,1.6,2.7c0.4,0.3,2,0,2.2-0.4
	c1.5-4,4.5-7.8,2.5-12.5c-0.6-1.5-2-2.7-3.1-4C506.7,66.6,505.9,68.1,504.6,70.1"/>
<path d="M397.3,77.8c3.4-0.4,3,1.9,2.7,3.5c-0.2,0.8-1.6,1.4-2.5,1.7c-1.2,0.5-2.5,0.4-3.7,0.9c-0.3,0.2-0.5,1.4-0.3,2
	c0.1,0.3,1.1,0.5,1.7,0.6c1.3,0.1,2.6,0.2,3.9,0.3c-0.8,1.3-1.4,2.8-2.3,4c-0.8,1.1-2.3,1.8-2.6,2.9c-1.1,3.7,2.2,3.5,4.3,4.4
	c0.9,0.3,1.7,0.8,2.6,1.2c-0.6,1-1.1,2.3-1.9,3.1c-2.5,2.5-5.4,2.8-8.7,1.7c-4-1.4-4-4.8-4.4-8.1c-0.4-3.5-0.8-7.1-1-10.6
	c-0.1-3.1-1.1-6.9,4.5-6.5C392.1,79.1,394.6,78.1,397.3,77.8"/>
<path d="M474.3,84.8c-1.6-5.3-2.2-10.1,0.5-15.1c2.2-4,5.1-6.2,9.6-5.6c4,0.6,5.3,3,5.9,7.3c1.4,9.1-2.6,17.4-9.5,17.8
	C477.5,89.3,475.7,87.9,474.3,84.8 M484.1,69.6c-0.9,0.2-2.1,0.2-2.7,0.8c-3.4,3-2.2,7.1-2.3,10.8c0,1,0.6,1.9,0.9,2.9
	c1-0.8,2.8-1.3,3-2.3C483.7,78,484.1,74,484.1,69.6"/>
<path d="M216.8,131.8c-0.6,2.2-1.4,4.1-1.3,6c0.1,0.5,2.8,0.8,4.3,1.3c1.1,0.3,2.2,0.6,3.3,1c-0.5,1.3-0.6,2.8-1.5,3.8
	c-4.2,5.1-10.5,4.2-11.6-2.4c-1.1-6.4-2.8-12.8-3.8-19.3c-0.2-1.1,1.1-3.4,2.2-3.7c2.8-0.9,5.9-1.1,8.9-1.4c0.9,0,2.7,0.8,2.6,0.9
	c-0.2,1.4-0.5,2.9-1.3,3.9c-0.7,0.8-2.3,0.9-3.3,1.5c-0.8,0.5-1.5,1.3-2.2,2c0.9,0.5,1.7,1.5,2.6,1.6
	C220.2,127.5,218.1,129.6,216.8,131.8"/>
<path d="M273.3,131.8c-1.2-6-2.1-11.7-3.3-17.4c-0.5-2.5-1.5-4.6-5-4.5c-2.6,0.1-6-0.6-4.9-4.8c0.2-0.8,1.1-1.8,1.8-1.9
	c5.4-0.9,10.7-1.6,16.1-2c1.3-0.1,2.7,1.4,4.1,2.1c-1.1,1.3-1.9,3.1-3.2,3.7c-5.2,2.1-2.7,6.4-2.6,9.5c0.1,4,2,7.9,2.4,11.8
	C279,131.5,276.8,132.9,273.3,131.8"/>
<path d="M339.8,114.8c-3.3,2.9-5.1,0.4-5.6-1.8c-1.4-6.5-2.3-13.1-3-19.6c-0.2-1.5,0.8-4.2,1.8-4.5c4.2-1.4,8.7-2.1,13-2.7
	c0.6-0.1,2,1.5,1.9,2.1c-0.1,1-1,2.3-1.9,2.7c-1.8,0.7-3.9,0.4-5.5,1.2c-1.1,0.5-1.6,2.2-2.4,3.4c0.9,0.5,1.8,1.1,2.8,1.4
	c0.7,0.3,1.7-0.1,2.5,0.1c0.9,0.2,2.6,0.8,2.5,1c-0.2,1.3-0.6,3.6-1.3,3.8c-5.2,1.1-5.2,4.6-4.6,8.7
	C340.3,111.9,340.1,113.2,339.8,114.8"/>
<path d="M193.1,124.1c1.8,0.3,3.5,0.3,4.4,1.1c0.9,0.8,1.2,2.5,1.4,3.8c0.1,0.2-1.6,1-2.5,1c-5.4,0.4-6.8,1.7-6.3,6.2
	c0.5,5.5,3.1,7.7,7.8,6.9c1-0.1,3.1,0.8,3,1.1c-0.2,1.9-0.4,5.3-1.4,5.6c-2.6,0.6-6.2,1-8.2-0.3c-6.4-4.2-9.3-14.4-6.1-20.9
	C186.5,125.8,188.9,123.7,193.1,124.1"/>
<path d="M558.1,78.1c0.5-1.7,1.1-3.8,1.7-3.8c1.7-0.1,3.6,0.5,5.2,1.4c0.3,0.2-0.5,3.6-0.9,3.7C562.1,79.4,560.1,78.9,558.1,78.1"/>
<path d="M170.1,672.1c7.5,4.3,14.6,8.5,21.4,13.1c2,1.4,3,4.3,4.5,6.5c-2.5-0.6-5.3-0.6-7.5-1.8c-8.1-4.4-15.9-9.6-24.3-13.6
	c-4.2-2.1-9.3-2.5-14.1-3.2c-8.2-1.2-16.5-2-24.7-3.1c-1.3-0.2-2.7-1-3.6-1.9c-0.7-0.7-0.8-2.1-0.6-3.1c0.1-0.5,1.5-1,2.3-0.9
	c7.6,0.9,15.2,1.7,22.8,2.7c6.4,1,12.8,2.1,19.1,3.3C166.9,670.4,168.2,671.4,170.1,672.1"/>
<path d="M219.1,614.1c5-5.3,10.2-5.3,15-0.5c3.4,3.4,6.4,7,6,12.5c-0.3,5.7-1.7,7.3-7.4,7c-8.5-0.5-15-12-14.6-17.4
	C218.1,615.3,218.7,614.9,219.1,614.1 M229.1,616.6c-1.7,0-3.4,0-5,0c0.4,1.8,0.4,3.9,1.5,5.3c1.6,2,3.9,3.6,6.1,5.2
	c0.8,0.6,2,0.6,3,0.9c0-1.3,0.5-2.8,0-3.7C233.2,621.8,231.3,619.5,229.1,616.6"/>
<path d="M291.3,584.3c-8.2,4-18.7-2.8-18-11.6c0.1-1.6,2.6-4.3,4.1-4.4c3.5-0.1,7.4,0.5,10.6,1.9
	C293.4,572.6,294.7,579.2,291.3,584.3 M285.1,580.6c1-0.6,2-1.1,3-1.6c-2.2-2-4.4-4.1-6.7-5.8c-0.5-0.4-2,0.6-3,1
	c1.4,1.6,2.7,3.3,4.2,4.8C283.1,579.5,283.9,579.7,285.1,580.6"/>
<path d="M543.8,722.8c4.6-1.9,8.9-3.5,13.2-5.1c0.9-0.3,2-0.1,3-0.2c-0.4,1.2-0.5,2.6-1.3,3.4c-1.4,1.2-3.2,1.9-4.8,2.8
	c-6.7,3.8-13.5,7.5-20.2,11.3c-1.1,0.6-2,1.8-3.2,2c-1.7,0.2-3.5-0.2-5.3-0.3c0.9-1.2,1.4-2.9,2.6-3.7
	C533,729.5,538.3,726.4,543.8,722.8"/>
<path d="M644.3,317.8c3.8,2,3.5,5.6,2.3,7.9c-0.9,1.7-4.4,3.5-6.2,3.1c-2.1-0.6-4.3-3.3-5.1-5.6c-0.6-1.6,0.3-5.3,1.5-5.8
	C638.8,316.5,641.6,317.4,644.3,317.8"/>
<path d="M585.3,328.8c-1.9-3.2-1.4-6.5,1.4-7.5c2.6-0.8,6.2-0.1,8.8,1.2c0.8,0.4,0.5,5.9-1,7.2C592.1,331.8,588.4,332.5,585.3,328.8
	"/>
<path d="M325.6,106.4c1.7,3,2.6,5.7,4.4,8.3c1.5,2,2,3.7-1.4,4.6c-3.6,0.9-4.8-1.4-5.5-3.3c-1-2.3-1.4-4.4-5.8-4.3
	c-4.1,0-4.7,1.6-4.3,4.1c0.2,1.9,0.7,3.7,0.8,5.7c0.1,0.7-0.5,1.4-0.7,2.2c-1.1-0.3-3-0.5-3.3-1.1c-1.4-2-3-4.3-3.2-6.6
	c-0.6-6.1-0.9-12.3-0.5-18.5c0.1-1.4,3.1-3.9,4.9-4c2.4-0.1,5.8,1.3,7.2,2.8C321.2,99.2,323.1,102.9,325.6,106.4 M317.4,104.6
	c-0.5-1.2-0.5-2.5-1.2-3.4c-1-1.2-2.6-2-3.9-3c-0.6,1.2-1.5,2.5-1.6,3.7c-0.1,0.9,0.6,1.9,1,3C312.8,107.2,314.5,107.3,317.4,104.6"
	/>
<path d="M174.6,142.4c1-0.2,1.7-0.6,2.4-0.4c0.7,0.3,1.3,1,2,1.5c-0.4,0.8-0.7,1.9-1.2,2.3c-1.5,1-3.1,1.7-4.6,2.8
	c-0.6,0.5-0.8,1.8-1.2,2.8c0.7,0.4,1.5,1,2.2,1c1,0,2-0.3,3-0.5c0.8,0,2.2-0.1,2.2,0.2c0.5,2,1.2,4.4-1.1,4.8
	c-1.3,0.3-2.4,0.9-3.6,1.6c-3.8,2.1-6.6-0.7-7-6.5c-0.3-4.1-1-8.3-2.1-12.2c-2.1-6.7-1.5-9,3.1-9.7c1.5-0.2,2.9-0.8,4.4-0.6
	c0.9,0.2,2.2,1.3,2.7,2.4c0.8,1.8,0.7,3.5-1.3,3.3c-0.4,0-0.8,1-1.3,1.1c-1.6,0.2-3.2,0.6-2.2,3.6
	C171.3,141.2,173.1,141.7,174.6,142.4"/>
<path d="M412,77.9c-0.7-4.8,0.9-6.6,5.4-6.1c2.8,0.3,5.8-0.3,8.6,0.2c4,0.6,6,3.7,5.9,7.6c-0.1,4.1-2.6,6.5-6.7,7.3
	c-0.7,0.1-1.4,0.4-2.1,0.5c0.6,0.5,1.3,1,1.9,1.5c3,2.2,6.2,4.3,9.1,6.7c0.6,0.6,0,2.4,0,3.7c-1.2-0.1-2.5,0.2-3.4-0.3
	c-2.7-1.5-5.5-3-7.9-5c-2.1-1.7-1.8-0.7-1.8,0.9c0,1.3,0.2,3-0.5,3.8c-0.9,1.1-2.6,1.9-4,2c-0.8,0-2.3-1.6-2.4-2.7
	C413.2,91.5,412.7,84.9,412,77.9 M421,78.4c-0.5,1.8-1.1,3.6-1.6,5.4c1.7-0.6,3.7-0.9,4.9-2c1.1-1,1.1-3,1.6-4.6
	C424.4,77.4,423,77.7,421,78.4"/>
<path d="M371.7,96c0.8,4.1,2,7.7,2.1,11.3c0.1,1.6-1.8,4.2-3.4,4.6c-2,0.6-3.2-1.3-3.4-3.7c-0.7-5.9-1.8-11.6-2.9-17.4
	c-0.7-3.7-3.6-3.2-6.3-3.4c-1.5,0-3.3-0.3-4.3-1.2c-0.7-0.5-0.8-3.1-0.3-3.4c1.5-0.9,3.4-1.2,5.2-1.5c3.7-0.8,7.6-1.8,11.3-2.1
	c1.7-0.2,4.3,0.4,5.1,1.6c1.6,2.2,0,3.9-2.3,5.1c-0.9,0.4-1.5,2-1.5,3.1C370.9,91.1,371.4,93.3,371.7,96"/>
</svg>
