<?xml version="1.0" encoding="utf-8"?>
<!-- Generator: Adobe Illustrator 23.1.0, SVG Export Plug-In . SVG Version: 6.00 Build 0)  -->
<svg version="1.1" id="Layer_1" xmlns="http://www.w3.org/2000/svg" xmlns:xlink="http://www.w3.org/1999/xlink" x="0px" y="0px"
	 viewBox="0 0 578 382" style="enable-background:new 0 0 578 382;" xml:space="preserve">
<g>
	<path d="M213.9,337.4c0.7,4.4,0.9,8.7-2.1,12.1c-5.1,5.7-11.9,7.8-19.4,3.5c-5.2-3-6.4-7.2-6.8-12.4c-0.6-7.7,1.2-15,2.6-22.5
		c0.2-0.8,0.3-1.5,0.6-3.1c-4,3.2-7,6.2-8.9,10.3c-0.7,1.7-1.1,3.6-1.4,5.4c-0.3,1.8-0.5,3.4,1.7,4.9c2,1.3,3.2,3.8,4.5,6
		c0.4,0.7,0,2.5-0.6,3s-2.3,0.4-3.1-0.1c-3.4-2.2-6.7-4.6-9.8-7.1c-6.5-5.3-12.8-10.9-19.4-16.1c-5.7-4.5-11.7-8.6-17.7-12.8
		c-0.5-0.3-2,0.2-2.6,0.8c-4,4.3-8.2,8.4-11.6,13.1c-3.4,4.6-7.8,4.9-12.6,4.4c-2-0.2-3.9-1.1-5.8-1.6c-0.6,6.1-1.8,11.8-5.2,17.1
		c-4.5,7.1-11.4,7.2-17.8,4c-6.7-3.4-13.1-7.4-19.4-11.3c-5.3-3.3-10.6-6.7-15.5-10.6c-8.3-6.7-13-15.5-13.6-26.3
		c-0.3-5.4,3.4-8.3,8.3-6.1c3.8,1.7,7.3,4.2,10.6,6.9c7,5.5,15.2,8.1,23.5,10.5c3.4,1,6.4-0.6,9.2-2.4c0.9-0.6,1-2.1,1.7-3
		c4.2-5.4,8.5-10.7,12.6-16c1.5-2,2.7-4.1,4.1-6.2c0.4-0.6,0.9-1,1.4-1.5c0.9-1.1,1.8-2.1,3.3-3.8c-4.3,0.3-7.7,0.3-11,0.9
		c-10.2,1.8-20.3,2.1-30.6,0.5c-7.6-1.2-14.6,1.1-21.5,4.1c-1.3,0.6-2.8,0.5-4.2,0.9c-0.9,0.2-1.8,0.5-2.8,0.8
		c-0.8,0.2-1.7,0.8-2.5,0.7c-0.7-0.1-1.4-0.8-2-1.2c0.5-0.5,1.1-1.4,1.7-1.4c1.8-0.2,2.2-1.1,2.1-2.7c-0.4-5.9,2.5-10.5,6.8-13.8
		c5.8-4.5,11.9-8.6,18.3-12.2c5.1-2.8,10.9-4.6,16.4-6.7c5.4-1.9,8.3-5.8,8.7-11.3c1-12.1,6.8-20.9,17-27c0.4-0.2,0.7-0.5,1.2-0.8
		c-1.2-1.6-2.6-3-3.5-4.6c-5-9.1-4.8-18.4-0.9-27.7c3.2-7.6,7.1-14.9,10.2-22.5c2-5,3-10.4,4.7-15.5c1.5-4.6,3.9-8.7,8-11.6
		c0.6-0.4,1.3-1.7,1.1-2.3c-1.7-5.7-0.6-11.3,0.4-16.9c0.5-2.9,1.5-5.7,1.6-8.6c0.2-4.8,0-9.6,0-14.4c0-1.3,0.3-2.6,0.4-4
		c0.4-3.3,1-6.7,1-10c0-6.8,2-12.8,6.6-17.8c5.3-5.8,10.9-11.2,18.1-14.4c1.9-0.8,4-1.5,6.1-1.7c2.8-0.4,5.7-0.2,7.7,2.7
		c1.1-4.2,3.1-5.4,7.3-4.3c3.7,1,7.4,1.1,10.8,3.7c5,4.1,10.8,7.3,16,11.2c1.7,1.2,2.9,3.3,3.8,5.3c2.2,4.5,4.1,9.2,6.2,13.8
		c2,4.6,3.2,9.3,3.2,14.4c0,7.3,1.5,14.4,5.4,20.6c1.6,2.6,4,4.7,5.8,7.2c1,1.4,1.8,3.2,2,4.9c0.6,6.6,3.5,12.4,5.8,18.4
		c2.4,6.3,4.6,12.7,6.7,19.1c0.7,2.2,1.7,2.8,4,2.8c5.8-0.1,10.9,2.5,16.1,4.7c1.9,0.8,3.8,1.6,5.5,2.6c2.4,1.4,4.9,1.4,7-0.3
		c5.4-4.1,10.8-8.3,16-12.7c10.3-8.9,22.3-14,35.4-16.6c3.7-0.7,7.5-0.9,11.3-1c0.8,0,2,1.4,2.3,2.4c0.4,1.3,0,2.9,0.3,4.2
		c1.8,6.1,3.7,12.1,5.6,18.1c3.3,10.4,9.8,18.9,16.2,27.4c2.2,2.8,4.5,5.5,6.6,8.3c1.2,1.6,2.7,2,4.4,1.3c2.1-0.9,4.4-1.6,6.2-3
		c5.9-4.6,12.5-7.6,19.3-10.3c6.3-2.5,17.8,1.2,20.5,7.7c1.3,3,3.7,4.3,6.8,4.8c7.8,1.2,15.2,3.9,22.4,7c3.6,1.5,6.2,4.3,7.7,8
		c2.1,5.1,4.6,10,8.4,14.1c3.2,3.5,7.1,5.7,11.4,7.4c10,3.9,19.7,8.4,28,15.3c1.8,1.4,3.2,3.3,4.7,5.1c3.9,4.8,9.2,8.4,12,14.2
		c0.3,0.7,1.4,1,2.1,1.4c3.9,2.1,7.8,4.4,11.9,6.4c7.1,3.5,14.3,6.8,21.5,10.1c1.1,0.5,2.4,0.3,3.7,0.5c1.8,0.3,3.3,1.3,2.9,3.1
		c-0.3,1.1-2,2.3-3.2,2.4c-5.6,0.5-11.3,0.3-16.9,1c-4.8,0.6-9.2,2.6-13.1,5.8c-3.7,3.1-7.9,5.6-11.7,8.6c-1.7,1.3-3,3.2-4.5,4.8
		c-2.5,2.8-5.9,4.5-9.4,4.2c-7.6-0.5-14.3,2.1-21,4.8c-13.9,5.7-27.6,11.7-41.5,17.4c-11.7,4.7-23.4,9.7-36,11.4
		c-10.4,1.4-20.6-0.2-30.6-3.2c-6.7-2.1-13.3-4.9-20.2-6.3c-8.1-1.7-16.4-2.2-24.6-3.2c-4.1-0.5-8.2-0.7-12.4-1.2
		c-0.8-0.1-1.7-0.2-2.2-0.7c-2.4-2.4-5.1-1.8-7.9-1c-13.8,3.8-27.8,3.4-41.8,1.5c-5.5-0.8-10.8,0.2-15.9,2.1
		c-9.5,3.6-19.2,5.3-29.3,4.1C214.7,337.2,214.4,337.3,213.9,337.4z M383.7,265.6c0.2,0.2,0.5,0.4,0.7,0.5c1.1-0.8,2.3-1.6,3.4-2.4
		c7.5-5.6,12.7-13.3,18.4-20.5c2.3-3,4.3-6.1,4.4-10.1c0-0.6,0.7-1.2,1.1-1.9c0.6,0.6,1.7,1.2,1.7,1.7c-0.3,2.4-0.3,5.1-1.4,7.1
		c-2.5,4.2-5.8,7.9-8.6,11.8c-6,8.5-13.8,15-22.3,20.7c-5.6,3.8-11.8,6.7-17.8,9.9c-7.7,4-15.8,6.3-24.7,5.8
		c-7.7-0.4-15.7-0.5-22.9,3.2c-6.5,3.4-12.9,7-19,11.1c-6,4-12.1,6.5-19.3,6c-4.5-0.3-9-0.5-13.5-0.4c-4.9,0.1-9.9,0.5-14.4,2.9
		c-6.8,3.6-13.6,7.2-20.4,10.6c-3.2,1.6-6.6,3.4-10,3.8c-2.9,0.3-3.8,1.5-4.5,3.8c-0.3,1.3-0.6,2.6-0.9,3.9c0.7,0.2,1.2,0.5,1.7,0.5
		c8.8,0.9,17.4-0.3,25.7-3.5c5.6-2.2,11.5-3.4,17.6-3c8.3,0.6,16.6,2.1,24.8,1.2c12.6-1.3,25.2-3.6,37.5-6.7
		c11.2-2.8,22-7.2,33-10.8c11.2-3.6,22.6-5.6,34.4-4.8c7,0.4,14.1,1.1,21.1,1.2c11.6,0.2,22.4-3.3,32-9.6c6.1-4,11.7-8.9,17.5-13.3
		c0.5-0.3,1.4-0.5,1.9-0.3c0.5,0.3,1.1,1.3,0.9,1.6c-0.5,1.1-1.1,2.2-2,2.9c-1.9,1.6-4,2.9-6,4.3c-4.6,3.3-8.9,7.1-13.8,9.8
		c-12.3,6.7-25.6,9.5-39.6,7.9c-14.2-1.6-28.2-1.8-41.9,2.7c-9.9,3.2-19.7,6.7-29.6,9.9c-5.2,1.7-10.6,3.1-16.3,4.8
		c1.4,0.2,2.4,0.5,3.5,0.6c5,0.3,10.1,0.3,15.1,1c9,1.3,18,2.7,26.8,4.7c6.4,1.4,12.6,4.2,19,5.8c9.1,2.4,18.4,3.3,27.5,0.7
		c10.1-2.9,20.1-6.2,29.8-10.1c12.3-4.9,24.2-10.8,36.5-15.7c8-3.2,15.8-7.7,24.9-7.3c0.8,0,1.6-0.1,2.4-0.2
		c4.3-0.5,7.9-2.2,9.3-6.7c1-3.4,1.5-6.9,2.3-10.3c0.2-0.7,1-1.3,1.5-1.9c0.5,0.6,1.4,1.2,1.5,1.9c0.2,1.4,0,2.8,0,4.2
		c0,0.9,0,1.8,0,3.5c1.8-1.2,3-2,4.2-2.9c2.9-2.3,5.6-5,8.6-7c4.1-2.8,9-3.6,13.8-4.1c1.6-0.2,3.1-0.4,4.7-0.6c0-0.2,0-0.4,0-0.6
		c-8.7-4.9-17.4-9.7-26.6-14.8c0,1.5,0,2.1,0,2.8c0.1,2.6,0.3,5.2,0.3,7.7c0,1.7-0.8,3-2.8,2.8c-2.1-0.2-1.7-1.5-1.6-3.1
		c0.5-7.8-0.7-15.1-6.9-20.6c-1.4-1.3-2.7-2.8-4.1-4.2c-3.2-3.2-6-7.2-9.8-9.6c-6.9-4.3-14.3-7.7-21.6-11.2c-4.2-2-8.7-3.3-12.2-6.8
		c-4.4-4.5-7.8-9.6-10.1-15.5c-1.4-3.6-3.4-6.8-7.4-8.2c-5.2-1.7-10.3-3.7-15.5-5.4c-2.3-0.7-4.7-1.1-7-1.6
		c-0.2,0.3-0.4,0.6-0.6,0.9c2.3,3.1,4.6,6.2,7,9.2c2.1,2.7,4.5,5.2,6.4,8.1c1.5,2.2,0.7,4-1.6,4.8c0.2-4.1-2.4-6.8-5.1-9.2
		c-5.5-5-9.2-11.3-12.1-18c-2.7-6.2-10.4-10.6-16.9-8.7c-3.5,1.1-7,2.6-10.3,4.1c-6.2,2.8-11.1,8.3-17.9,10c-0.1,0-0.1,0.1-0.2,0.4
		c1.5,3,3.3,6,4.7,9.1c4.2,9.2,4.5,18.9,3.8,28.8c-0.3,3.8,0.3,4.3,4.3,3.7c-0.2-0.4-0.5-0.8-0.6-1.2c-0.2-1.1-0.4-2.2-0.6-3.3
		c1.2,0.4,2.5,0.4,3.4,1.2c2.5,2.1,4.1,4.8,4.4,8.2c0.2,1.4,0.6,2.8,1,4.2c3.4-6.1,5.5-12.3,6.6-18.9c0.5-3,0.5-6,1-9
		c0.1-0.8,1.1-1.5,1.6-2.3c0.5,0.9,1.3,1.7,1.5,2.6c0.1,1.1-0.4,2.3-0.5,3.4c-0.8,9.7-3.8,18.8-7.9,27.5
		C387.6,255.8,385.7,260.7,383.7,265.6z M233.7,272.3c0.4,0.4,0.5,0.7,0.6,0.7c13.7,1.2,27-0.5,40-5.4c7.7-2.9,14.2-7.8,21-12.1
		c8.8-5.6,17.6-11.3,24.9-18.9c2.2-2.3,4-5,6.1-7.3c0.6-0.6,1.7-0.7,2.6-1.1c0.2,1,0.5,2,0.6,3c0,0.3-0.5,0.7-0.7,1.1
		c-4,6.5-9.9,11.1-15.9,15.5c-2.8,2.1-5.6,4.1-8.5,6.2c6.6,1.7,12.6,3.4,18.8,4.8c10.4,2.3,20.7,2.9,30.8-2.1
		c3.2-1.6,6.8-2.3,10.2-3.5c0.8-0.3,1.8-0.8,2.2-1.6c2.4-4.1,4.2-8.5,4.4-13.3c0.2-3.7,0.2-7.5,0.4-11.2c0.6-11.8-3.5-22-10.2-31.3
		c-5-7-10.5-13.7-15.6-20.6c-4.5-6.1-7.9-12.8-10-20.2c-1.7-6-3.9-11.8-5.8-17.7c-0.6-1.9-1.8-2.6-3.6-2.3
		c-4.1,0.7-8.2,1.1-12.2,2.2c-9.6,2.7-18.4,7.1-26,13.8c-5.3,4.7-11,8.9-16.5,13.4c-0.2,0.2-0.4,0.5-0.9,1.3c4.6,1,8.7,2.2,12.9,2.6
		c4.2,0.4,8.5,0.1,12.7,0.1c0.1,0.2,0.2,0.4,0.3,0.7c-2.5,0.8-5,2.1-7.6,2.3c-9.6,0.7-18.5-1.8-27.1-5.8c-5.7-2.7-11.7-4.9-17.6-7.2
		c-1.4-0.5-3-0.4-5.2-0.6c1.4,2.8,2.3,4.9,3.5,6.8c5.9,9.3,7.3,19.3,4.7,30c-0.5,2.3-0.7,4.6-1.3,6.9c-0.4,1.4-0.9,3-1.9,3.9
		c-3,2.7-6.1,5.4-9.4,7.7c-5.3,3.8-5.4,3.7-4.2,10.2c0.3,1.6,0.8,3.2,1.4,4.8c0.4,1.2,1.2,2.3,1.5,3.5c1.6,6.8,2.5,13.9,4.8,20.5
		c1.6,4.5,1.8,8.5,0.7,13C237.9,268.2,237.9,271.7,233.7,272.3z M232.8,242.2c-0.3,0.1-0.5,0.2-0.8,0.3c-0.9-0.5-2-0.8-2.7-1.5
		c-1.3-1.3-2.3-2.9-3.6-4.2c-4.5-4.7-8.9-9.3-13.5-13.9c-0.9-0.9-2.2-1.4-3.4-2.1c-0.5-0.3-1.1-0.5-1.6-0.9
		c-8.3-7.4-17.3-13.6-27.3-18.5c-7.9-3.9-20.3-2.3-27.2,3c-6.3,4.9-10.3,11.7-15.7,17.3c-3.3,3.4-5.4,8.1-7.5,12.4
		c-3.7,7.4-7.1,14.9-10.3,22.5c-1.6,3.8-5,6.9-4.7,11.5c0,0.2-0.3,0.5-0.5,0.6c-4,2.2-5.4,6.5-7.7,10c-1.7,2.5-3.1,5.2-4.9,7.6
		c-2.6,3.3-5.4,6.4-8.2,9.6c-1.3,1.5-1.1,2.9,0.2,4.1c4.3,4.2,8.6,8.4,13.1,12.4c1.6,1.5,3.6,2.9,5.6,3.4c2.3,0.7,4.5,1.1,5.3,3.4
		c4.4-4.5,8.7-9,13-13.4c0.8-0.8,1.4-1.9,2.2-2.7c1.4-1.3,2.9-2.4,4.3-3.6c0.6-0.6,1-1.6,1.6-2c8-5.6,13.9-13.1,19-21.2
		c5.9-9.3,8.9-19.8,12.1-30.1c1.4-4.7,2.2-9.7,3.3-14.5c0.2-0.8,0.7-1.6,1-2.4c0.7,0.8,2,1.5,2.1,2.3c0.2,1.6,0,3.4-0.4,5
		c-2.5,8-5.1,15.9-7.6,23.8c-0.3,0.8-0.4,1.7-0.5,2.6c0.2,0.1,0.5,0.3,0.7,0.4c8.3-6.7,14.7-15.3,21.9-23.2c2.3,1.7,0.9,3.2-0.1,4.5
		c-3.7,4.3-7.3,8.7-11.2,12.8c-2,2.2-1.4,3.7,0.4,5.3c1.2,1.1,2.5,2.2,3.8,3.4c0.7,0.7,1.5,1.3,1.9,2.1c0.3,0.7,0.2,1.6,0.2,2.4
		c-0.7-0.2-1.7-0.3-2.2-0.8c-2.8-2.4-5.5-4.9-8.4-7.5c-2.4,1.9-4.5,4.5-8.2,3.2c-5.5,13.8-14,25.3-24.5,34.7c1.5,3.3,2.9,6.1,3.9,9
		c1.1,3.1,3.3,4.9,6.1,6.2c0.8,0.4,1.5,0.9,2.1,1.4c3,2.8,6,5.6,9.1,8.6c1.7-3.3,3-6.1,4.5-8.8c6.5-11.5,13.8-22,28.9-24.7
		c-2-1.6-3.4-3.1-5.1-3.9c-2.2-1.1-3.3-2.7-3.8-5c-0.2-1-0.6-2.3-1.4-2.8c-4.3-3.4-8.7-6.7-13.1-10c-1.1-0.8-2.6-1.6-1.5-3.1
		c1-1.5,2.3-0.9,3.6,0.1c2.2,1.8,4.5,3.5,6.7,5.2c3.5,2.7,7.2,5.2,9.3,9.3c0.9,1.9,2.3,2.5,4.6,1.8c1.5-0.5,3.2-0.1,4.9-0.1
		c1.3,0,2.6,0.2,3.9,0.1c3.4-0.3,6.5-1.2,9.4-3.5c3.3-2.7,7.5-4.3,10.8-7.1c5.7-4.8,9.5-10.7,8.7-18.8c-0.1-1.2,0.2-2.5,0.1-3.7
		C233.3,248,233,245.1,232.8,242.2z M218.1,322c0.2,0.3,0.4,0.5,0.5,0.8c0.7-0.2,1.4-0.2,2-0.5c6.6-3,13.2-6,19.7-9.1
		c3.3-1.6,6.3-3.9,9.7-5.4c7.4-3.3,15.4-2.9,23.2-2.5c7.1,0.3,14,0.3,20-4.2c1.7-1.3,3.6-2.3,5.3-3.6c12.7-9.1,26.6-14.1,42.5-12.5
		c5.3,0.5,10.6-0.4,15.5-2.9c6.7-3.4,13.4-6.8,20-10.3c0.9-0.5,1.7-1.6,2.1-2.5c2.1-4.6,4.8-9.1,5.9-13.9c0.7-3.2-1-6.9-1.6-10.4
		c0-0.1-0.4-0.2-0.7-0.3c-1-0.5-2-0.9-3-1.4c-3.1-1.6-4.2-1.5-5.1,1.7c-0.6,2.3-1.5,4.6-2.7,6.6c-1.9,3.2-3.9,6.7-8.6,6.1
		c-0.5-0.1-1.1,0.4-1.7,0.6c-3.4,1.5-6.7,3.2-10.2,4.4c-12.6,4.1-25.1,1.3-37.2-2.2c-8.5-2.4-15.9-2-23.5,2.8
		c-15.3,9.7-31.9,14.9-50.2,13.8c-0.5,0-1,0.1-1.1,0.1c0.3,2.5,1.1,4.8,0.8,6.9c-0.9,6.2-1.9,12.5-3.4,18.6
		c-1.3,5.4-5.7,8.7-9.6,12.1C223.9,317.2,221,319.6,218.1,322z M235.5,193.1c-0.2-6.7-3.3-11.7-6.7-16.5c-2.8,1-5.2,1.8-7.6,2.9
		c-7,3.1-13.8,7.8-22.1,3.3c-0.1,1-0.2,1.7-0.2,2.4c0,9.1,2.4,17.4,7.6,24.8c2.5,3.6,7.1,4.9,10.6,2.3c6.6-4.9,12.8-10.2,19.2-15.4
		c0.7-0.6,1.3-1.3,1.9-1.9c0.2,0.2,0.4,0.4,0.6,0.6c-4,8.6-12.4,13-19.2,19.6c1.1,0,1.8,0.1,2.4,0c5.9-1.1,10.6-4.7,15.3-8.1
		c2.6-1.9,4.7-3.7,5-7.5c0.2-3.4,2-6.7,2.5-10.1c0.7-5.2,0.3-10.5-1.8-15.5c-3.5-7.9-7.3-15.6-10.5-23.6c-3-7.6-5.3-15.4-7.9-23.2
		c-1-3.1-2.4-6-5-8.5c0.4,2.1,0.8,3.7,1,5.4c0.2,1.3-0.1,2.6,0,3.9c0.2,5,0.7,10.1,0.7,15.1c0,1.3-1,2.9-2,3.8
		c-1.4,1.3-1.9,2.5-1.2,4.2c2.2,5.2,4.3,10.5,6.6,15.7c1,2.2,2.5,4.1,5.5,3.5c0.3-0.1,1,1.1,1.3,1.8c0.5,1.6,0.7,3.4,1.3,4.9
		c1.3,3,3,5.9,4.3,8.9C238.5,188.8,237.9,191.3,235.5,193.1z M193.7,351c1.6,0.3,3.2,0.7,4.8,0.9c0.9,0.1,1.9-0.1,2.9-0.2
		c5.4-0.6,8.3-4.3,8.5-9.7c0.1-4.8,0.5-9.8,1.7-14.5c1.1-4.4,3.7-8.2,7.7-11.1c4.1-3,7.7-6.7,11.3-10.3c2.1-2.1,3.1-4.9,3.1-8
		c0-2.4,0.6-4.7,0.9-7.1c0.4-2.8,1.1-5.6,1.2-8.3c0-0.9-1.3-2.5-2.2-2.7c-4.2-0.9-8.5-1-12.4,1.2c-3.1,1.7-6,3.7-8.7,5.9
		c-5.8,4.7-11.1,9.9-14.9,16.4c-0.9,1.5-1.3,2.9-1,4.8c0.2,1.2-2.4,2.7-3,4.3c-3,8.4-4.9,17.1-4.8,26.1c0,3.6-0.1,7.4,3.8,9.6
		C193.2,348.9,193.3,350.1,193.7,351z M67.2,276c0.5-0.1,1.1-0.2,1.6-0.4c4.8-2.3,9.6-4.5,14.2-7.1c4.3-2.4,7-6.2,7.6-11.3
		c0.1-1.1,0.5-2.3,0.9-3.3c3.6-9.1,9.6-16.5,16.9-22.9c3.6-3.2,9.3-4.4,10.4-10.2c0.1-0.3,0.7-0.5,1-0.8c1.1-1.5,0.3-2.7-1.4-3.4
		c-4-1.6-8-3.3-11.6-5.5c-1.7-1.1-2.7-1.1-4.2-0.2c-8.8,5.5-14.4,13-15.2,23.9c-0.5,7-3.4,12.4-10.7,14.5c-3.2,0.9-6.4,2.1-9.5,3.3
		c-8.9,3.4-16.3,9.2-23.6,15.1c-2.6,2.1-3.9,5.8-5.6,8.8c-0.4,0.7,0.1,1.8,0.2,2.7c0.8-0.1,1.7-0.1,2.5-0.4
		c7.6-2.4,15.1-5.2,23.2-3.2C65,275.7,66,275.8,67.2,276z M117.8,212.9c0.1-0.2,0.2-0.5,0.4-0.7c-3.8-5.8-6.3-12.1-7.5-18.9
		c-0.2-1-0.3-1.9-0.4-2.9c-0.7-3.9-0.5-6.6,3.7-9.4c5.7-3.8,10.2-9.5,15.2-14.4c0.7-0.7,1.7-1.8,2.2-1.7c1.7,0.5,2.7,0.1,3.3-1.4
		c0.6-1.3,1.5-2.5,1.6-3.8c0.1-8.6,0.2-17.2,0-25.9c-0.1-4.4-0.7-8.8-1.1-13.3c-2,0.4-3.6,0.3-4.8,1c-7.2,4.2-13.1,9.6-15.5,18
		c-0.5,1.7-0.3,3.6-1,5.2c-3.2,8.2-6.6,16.3-10,24.4c-3.4,7.9-6.9,15.6-4.8,24.8c1.9,8.2,6.8,13.4,13.7,17.2
		C114.3,212,116.1,212.4,117.8,212.9z M145.7,127.5c-0.2-0.1-0.5-0.1-0.7-0.2c-4.4,6.3-5,9.9-3.6,17.2c0.3,1.7,0.4,4-0.5,5.3
		c-2.4,3.7-2.7,7.4-1.3,11.4c0.2,0.6,0.2,1.5-0.2,1.9c-2.9,3.3-5.9,6.5-8.7,9.8c-0.7,0.8-1.1,2.1-1,3.1c1.1,6.8,8.5,16.4,16.6,15.9
		c4.4-0.3,4.8-0.3,4-4.8c-0.8-4.7-1.6-9.5-1.5-14.2c0.1-3.1,0.2-5.6-2.8-7.3c-0.1-0.1,0-0.5,0.1-1c5.9,0.2,8.8-3.4,10.6-8.5
		c0.2-0.7,1.1-1.3,1.9-1.6c1.4-0.5,2.9-0.9,4.3-1.2c4.8-0.9,9.6-1.8,14.4-2.7c0-0.3,0-0.6,0-0.9c-0.9-0.3-1.8-1-2.8-1
		c-2.7,0-5.4,0.3-8.1,0.2c-0.9,0-2.2-0.7-2.6-1.4c-0.3-0.5,0.5-2.2,1.2-2.5c3.3-1.3,6.8-2.4,10.2-3.5c3.1-1,6.2-2.1,9.3-3.1
		c-0.1-0.3-0.1-0.6-0.2-0.9c-2.7-1.6-5.8-1.8-8.7-1c-3.8,1-7.4,2.6-11.2,3.7c-0.7,0.2-1.7-0.4-2.5-0.6c0.2-0.9,0.2-2.2,0.7-2.5
		c4.7-2.8,9.5-5.4,14.3-8.1c2-1.1,4.6-1.3,5.7-4.4c-1.5,0-2.7-0.2-3.8,0c-7.1,1.3-12.9,4.9-18.4,9.5c-0.7,0.6-2,0.5-3,0.8
		c0.3-0.9,0.3-2.1,0.8-2.6c5.1-4.7,10.7-8.3,17.3-10.5c1.1-0.4,2-1.3,3-2c-1.2-0.6-2.4-1.2-3.6-1.6c-0.4-0.2-1.1,0-1.6,0.2
		c-5.1,2.2-10.4,4-15.2,6.6c-5.7,3.2-9.7,8.2-12,14.5c-0.4,1.1-1.4,1.9-2.2,2.8c-0.3-0.2-0.6-0.3-0.9-0.5
		C143.9,136.9,144.8,132.2,145.7,127.5z M143.8,72.7c2-0.1,3.7-0.4,5.3-0.2c1.1,0.1,2.3,0.8,3.3,1.5c0.4,0.3,0.4,1.4,0.6,2.1
		c-0.7,0.1-1.4,0.2-2.1,0.2c-2.1,0-4.2-0.6-6.1-0.1c-2.9,0.7-5.7,2-8.5,3.2c-0.8,0.3-1.8,1.2-1.8,1.8c0,0.8,1,2.5,1.2,2.4
		c5.2-1.4,10.8-0.5,15.7-3.3c1.2-0.7,3.8-0.7,4.8,0.1c2.3,2,3.5,0.2,5.1-0.7c0.5-0.3,0.7-1.2,1.2-1.4c3.6-1.1,7.2-2.5,10.9-3
		c5.2-0.7,10.6-0.5,15.8-0.9c2.8-0.2,3.5,0,3.8,2.8c0.1,0.8,0.1,1.6,0.2,2.4c1.1,5.1,0.1,9.6-2.7,14.1c-5,8.1-19.6,8.5-24.3-0.7
		c-1-2.1-2-4.2-2.9-6.3c-1.4-3.5-1.4-3.6-4.6-1.8c-0.6,0.3-1.3,1.2-1.3,1.9c-0.2,2-0.2,4.1-0.3,6.1c-0.2,7.2-6.7,13-13.8,12.2
		c-1.7-0.2-3.4-0.7-5.1-1.1c0.8,5.1,3,8.1,5.2,8.2c1.3-1.4,2.1-3.2,3.3-3.5c6.7-1.5,13.4-3.3,20.2-3.8c8.5-0.6,17.1,0,25.6,0.3
		c2,0.1,3-0.4,3.2-2.4c1.1-8.3,1.4-16.6-1.7-24.7c-1.3-3.3-0.7-4.6,2.5-5.3c-1-0.8-1.6-1.5-2.3-1.8c-4.7-2.1-8.6-5.3-11.9-9.1
		c-0.6-0.7-1.3-1.2-2-1.7c-5.1-4-9.7-8.5-13.3-14c-0.5-0.8-1.7-1.7-2.6-1.8c-0.6-0.1-1.6,1.1-2,1.9c-4.1,8.1-8.5,16-15.1,22.4
		C146.1,70.1,145.1,71.3,143.8,72.7z M147.9,130c0.7-0.4,1-0.5,1.1-0.6c0.4-0.3,0.8-0.7,1.2-1.1c6.5-6.8,14.7-10.3,23.7-12
		c5.4-1,6.8,0.3,7.8,5.6c0.4,0.1,0.9,0.1,1.2,0.3c1.1,0.7,2.5,1.3,2.9,2.3c0.3,0.7-0.7,2.2-1.5,3c-1,1-2.3,1.9-3.6,2.6
		c-2.2,1.2-4.5,2.2-6.8,3.3c1.4,0.4,2.7,0.4,4,0.2c2.9-0.3,5.7,0.1,8.1,1.8c0.8,0.6,1.9,1.7,1.8,2.6c0,0.8-1.2,2-2.1,2.3
		c-2.6,1.1-5.3,1.8-8,2.6c-1.7,0.6-3.3,1.2-4.6,1.7c2.9,1.5,5.7,2.8,8.3,4.5c1.5,1,1.4,2.6-0.7,3c-4.3,0.9-8.6,2.1-12.9,2.5
		c-4.6,0.4-8.2,1.7-9.9,6.4c-0.3,0.7-0.8,1.3-1.3,2c-1.7,2.1-1.2,4.8,1.3,5.5c2.3,0.7,4.9,1.3,7.2,1c4.9-0.7,9.7-2.2,14.5-3.2
		c3.7-0.8,5.7-3.2,7.3-6.4c0.5-0.9,1.7-1.4,2.6-2.1c2.3-1.8,4.8-3.4,6.7-5.6c1-1.2,0.9-3.4,1.2-4.6c-0.6-1.8-1.5-3.2-1.5-4.6
		c0-1.5,0.9-2.9,1.5-4.6c-1.4-0.3-2.7-0.5-4.2-0.8c-0.1,1.5-0.2,2.6-0.1,3.8c0.2,2.1-1.2,4.3,0.8,6.3c0.3,0.3-1.8,3-2.8,4.5
		c-0.4-0.4-1-0.7-1.2-1.2c-0.2-0.6-0.1-1.4-0.1-2.1c0.1-5.1,0.2-10.3,0.4-15.4c0.1-1.5,0.5-3.1,0.8-4.9c-2.6-3.2-2.7-5.2,0.5-7.5
		c1.9-1.4,2.5-3.1,2.4-5.3c-0.1-1.3-0.3-2.7-0.2-4c0.2-2.5-1-3.5-3.4-3.5c-6.1,0-12.2-0.5-18.2-0.1c-7.4,0.5-14.8,1.7-22.3,2.6
		c-2.1,0.3-3.1,1.4-2.9,3.6C147.2,119.6,147.5,124.6,147.9,130z M97.5,327.9c-6.5,1-11.1-1.7-14.8-6.1c-1.7-2.1-2.8-4.7-4.2-7
		c-0.5-0.8-1.2-1.7-2-1.9c-5.2-1.4-10.4-2.4-15.5-4c-6-1.8-11.4-4.9-16.3-9c-2-1.7-4.1-3.3-6.4-4.7c-2.6-1.5-3.7-0.8-3.9,2.2
		c-0.4,6,1.6,11.2,5,16.2c3.8,5.6,8.7,9.9,14.5,13.4c9.2,5.5,18.3,11.1,27.5,16.5c3.3,1.9,8,1.1,10.1-1.3
		C94.8,338.3,96.2,333.5,97.5,327.9z M123.4,176.3c-2.4,2.2-5.2,4.8-8.2,7.3c-1.8,1.5-2.6,3.3-2.4,5.6c0.7,7.2,2.7,14,6.7,20
		c2.5,3.7,6.1,6.4,11.3,5.1c0.9-0.2,2,0.2,2.9,0.6c0.6,0.3,0.9,1.1,1.3,1.7c1-0.8,2.1-1.4,2.8-2.4c0.8-1,1.3-2.4,2-3.5
		c3.1-4.9,6.2-9.8,9.6-15.2c-1.6-0.3-2.5-0.5-3.4-0.6c-4.5-0.3-8.5-1.9-11.5-5.3c-2.4-2.8-4.3-6-6.4-9c-0.5-0.7-1.1-1.5-1.8-2.1
		C125.6,177.8,124.7,177.3,123.4,176.3z M108.8,267.4c-0.1-1.5-0.1-2.8-0.4-4.1c-1.7-7.4-0.7-14.4,2.9-21.1c1.3-2.4,2.3-5,3.4-7.5
		c0.6-1.5,1-3,1.5-4.5c-0.3-0.2-0.6-0.4-0.9-0.6c-3,2.5-6.3,4.8-9.1,7.6c-6,6-10.9,12.8-12.5,21.3c-1.3,6.7-4.9,11-10.7,13.9
		c-2.1,1-4.2,2-6.6,3.2c5,1.7,25.7-1.5,30.9-4.6c-5-2.1-9.1-9.1-7-13.4c1.3,2.8,2.5,5.1,3.4,7.5C104.6,267.3,106,268.2,108.8,267.4z
		 M193.6,125.5c0.7-0.1,1.4-0.1,2-0.2c3.2-0.7,6.5-1.7,9.7-2.2c0.9-0.1,2.6,0.7,2.9,1.5c0.5,1.5-0.6,2.7-2.2,3
		c-0.7,0.1-1.4,0-2.1,0.1c-2.7,0.4-5.4,0.5-8,1.3c-1,0.3-2.1,2.2-2.1,3.4c0,0.9,1.5,2.5,2.6,2.7c1.7,0.3,3.6-0.1,5.3-0.7
		c1.8-0.6,3.4-1.8,5.3-2.4c0.7-0.2,1.6,0.4,2.5,0.7c-0.5,0.6-1,1.4-1.6,1.8c-2.1,1.5-4.4,2.6-6.3,4.3c-1.3,1.2-2.9,2.8-1.5,5.5
		c2-0.8,4-1.6,6.1-2.3c0.5-0.2,1.1-0.1,1.6-0.2c0,0.6,0.1,1.4-0.2,1.9c-0.2,0.5-0.9,0.9-1.3,1.2c-1.5,1.2-3.2,2.2-4.6,3.5
		c-0.8,0.8-0.9,2.1-1.4,3.2c1,0.4,2.1,1.2,2.9,1c1.9-0.5,3.7-1.4,5.5-2.3c1.6-0.9,3-2.2,4.6-3.1c3.2-1.8,5.8-4,5.3-8.3
		c-0.5-4.7-0.9-9.5-1.5-14.3c-0.4-3.5-2-5.5-5.4-6s-6.8-0.6-10.2-0.5C198.2,118.4,194,122.6,193.6,125.5z M214.2,150.7
		c-0.9,0.3-2,0.8-3.1,1.2c-2.8,1.2-5.5,2.7-8.4,3.6c-1.6,0.5-2,1.1-1.9,2.5c0.5,6.7,1,13.4,1.7,20.1c0.3,3.3,1.2,3.7,4.5,3.3
		c0.5-0.1,1.1-0.2,1.5-0.4c4.5-1.8,8.9-3.8,13.5-5.4c2.6-0.9,2.7-2.3,1.7-4.4C220.5,164.6,217.5,157.9,214.2,150.7z M174.5,334.7
		c0.3-0.7,0.5-0.8,0.5-1c0.1-0.3,0.1-0.7,0.2-1.1c0.5-7.5,3.7-13.6,9.4-18.1c4-3.1,7.2-6.5,9-11.4c1-2.8,3-5.2,4.9-8.3
		c-3.3,0.7-6.2,0.9-8.6,2c-12.2,5.8-18.5,16.8-23.6,28.6c-0.3,0.7-0.3,2.1,0.1,2.5C168.9,330.2,171.6,332.3,174.5,334.7z
		 M197.7,156.9c-4,0.8-6.1,2.6-6.1,5.2c-0.1,8.4-0.1,16.7-0.2,25.1c-0.1,4.5-0.3,9-0.4,13.5c0,2.1,0.5,3.8,2.5,4.9
		c2,1.1,3.8,2.6,5.7,3.9c2.2,1.6,4.3,3.2,6.4,4.7c-8.2-11.2-10.3-23.5-9.6-32.4c0.2-2.2,0.6-3.8,3.4-3.7
		C198.9,170.9,198.3,163.9,197.7,156.9z M111.8,264c8.5-14.4,13.9-29.3,20.4-44.3c-3.2-0.8-6.2-1.6-9.1-2.4
		c-0.6,3.2-1.2,5.9-1.6,8.6c-1,6.7-5.1,12-7.8,17.9C110.8,250.1,110.4,256.5,111.8,264z M178.9,96.4c8.2,0.5,13.6-9.5,10.7-17.2
		c-0.2-0.5-1.3-1-2-1c-5.5,0.1-10.9,0.3-16.4,0.7c-1.6,0.1-3.3,1.2-4.8,2.1c-0.5,0.3-0.8,1.1-0.8,1.7
		C165.7,90.1,171.9,96.4,178.9,96.4z M89.1,300.8c-0.9,2.7-4.2,4.1-2.5,7.2c5,9.6,13.2,14.7,23.8,15.9c0.6,0.1,1.7-1.2,2.1-2.1
		c0.2-0.6-0.2-2-0.7-2.3c-7.5-4.5-14.2-9.8-19.8-16.6C91.2,302.2,90.3,301.7,89.1,300.8z M143.9,86.3c-0.1-0.2-0.2-0.5-0.3-0.7
		c-2,0.4-4.1,0.7-6.1,1.2c-1.4,0.3-1.7,1.2-1.3,2.6c0.7,2.5,1.3,5,1.5,7.6c0.3,3.3,2.1,4.3,5,5c5.7,1.4,12.7-5.3,10.9-11.4
		c-1.1,0.8-2.6,2.6-3.7,2.4c-1.5-0.2-2.6-2.1-4.1-3.4c-0.1,0.2-0.5,1-1.1,1.5c-0.8,0.6-2.1,1.5-2.7,1.2c-1.4-0.8-1.2-2.2-0.3-3.4
		C142.4,88,143.1,87.2,143.9,86.3z M230.2,236.2c-1.1-5.6-2.1-10.9-3.1-16.3c-0.3-1.9-1.4-1.8-2.9-1.4c-3.5,0.9-6.9,1.3-10.3-0.5
		c-0.5-0.3-1.2,0-2,0C215.4,223.7,224.4,232.8,230.2,236.2z M187.7,165.7c-9.5,9-17.4,19.1-24.1,30.4c2.5,1,3.8,0.4,5.1-1.4
		c5.6-8.2,11.3-16.2,16.9-24.3c0.2-0.3,0.6-0.8,0.9-0.9C188.8,168.9,188.3,167.4,187.7,165.7z M201.3,96.5c0.4,0.3,0.7,0.7,1.1,1
		c0.4-0.8,0.6-1.7,1.1-2.4c2.7-3.8,3.9-8.1,3.8-12.7c-0.1-3.5-1.7-6.1-5-7.5c-0.6-0.2-1.3-0.2-2-0.2c-0.1,0.7-0.2,1.3-0.2,2
		c0.3,3.9,0.8,7.7,1.1,11.6C201.5,91,201.3,93.7,201.3,96.5z M80.4,311.9c1.9,3.2,3.6,6.5,5.7,9.3c2.2,2.9,5.4,4.6,9.3,4
		c0.7-0.1,1.3-0.8,2-1.2c-0.5-0.6-0.8-1.3-1.4-1.6c-3.9-2.4-7.6-5.1-9.7-9.2C84.9,310.4,83.4,310.1,80.4,311.9z M187.5,173.6
		c-5.5,7.8-10.7,15.1-15.9,22.6c2.5,1.3,3.6,0.8,4.7-1c2.9-4.7,6.1-9.1,8.9-13.9C186.5,179.2,189.2,177.4,187.5,173.6z M153.5,56.2
		c-1.9,1.6-5.6,4.6-9,7.9c-3.7,3.5-7.1,7.3-10.6,11.1c-0.5,0.5-0.5,1.5-0.8,2.2C142.4,71,152.1,60.1,153.5,56.2z M178,171.6
		c-0.1-0.2-0.3-0.4-0.4-0.6c-0.9,0.7-2,1.2-2.7,2c-5.4,6.8-10.7,13.6-16,20.5c-0.6,0.8-0.6,2.2-0.9,3.3c0.2,0,0.4,0,0.6,0.1
		C165,188.4,171.5,180,178,171.6z M188.2,184.4c-0.5-0.2-0.9-0.4-1.4-0.5c-2.5,4.2-5.1,8.5-7.5,12.8c-0.3,0.5,0.3,1.4,0.5,2.1
		c0.7-0.3,1.7-0.4,2-0.9c1.6-2.2,3.2-4.5,4.3-7C187.1,188.8,187.5,186.5,188.2,184.4z M222.4,117c0.2-4.6-3.4-9.8-8.5-12.7
		c0.9,2.5,1.3,5.1,2.7,7.1C218,113.5,220.3,115,222.4,117z M153.9,190.5c1-5.8,0.4-17.4-1.2-19.1
		C149.5,178.2,153.7,184.2,153.9,190.5z M153.5,50c-0.3-0.3-0.6-0.5-0.9-0.8c-4.4,3.7-7.9,8-10.6,13.1c0.3,0.2,0.6,0.5,0.9,0.7
		C146.4,58.7,150,54.3,153.5,50z M138.4,133.2c1.3-2.3,2.4-4.2,3.2-5.8c-1.1-2-2.1-3.7-3.1-5.4C137.3,123,137.2,127,138.4,133.2z
		 M196.6,117.1c2.1-1.2,5-0.2,4.9-3c0-1-2.2-2.9-3.1-2.7C195.4,112,197.3,114.6,196.6,117.1z M205.7,288.5c-0.2-0.3-0.5-0.6-0.7-0.9
		c-1.3,0-2.6,0-3.9,0c-1,0-1.9,0-2.9,0c0.5,1,0.9,2.1,1.6,3.1c0.9,1.2,1.9,1.2,3,0C203.6,289.8,204.7,289.2,205.7,288.5z M153.4,194
		c-1.5,2.9-3,5.8-4.5,8.7C154.3,199.8,154.9,198.8,153.4,194z M170,174.2c-4.5,3.8-8.7,7.8-11.2,13.2c3.7-3.9,7.1-8,10.6-12.1
		C169.6,174.9,169.8,174.6,170,174.2z M212.5,115.9c-0.2-2.5-1.2-3.4-3-3.3c-1.4,0.1-2.9,0.2-2.7,2.6
		C208.6,115.4,210.4,115.6,212.5,115.9z M187.4,195.7c-3,3.4-4.5,5.6,0,6.3C187.4,200,187.4,198,187.4,195.7z M193.2,52.6
		c-0.4,0.1-0.7,0.1-1.1,0.2c0.8,3.5,1.6,7.1,2.5,10.6c0.4-0.1,0.7-0.2,1.1-0.3C194.9,59.6,194,56.1,193.2,52.6z M198,54
		c-0.4,0.1-0.8,0.2-1.2,0.3c0.8,3.1,1.5,6.2,2.3,9.3c0.4-0.1,0.8-0.2,1.2-0.3C199.6,60.2,198.8,57.1,198,54z M127.3,79
		c0.2,0.1,0.4,0.1,0.6,0.2c1.2-2.9,2.3-5.8,3.5-8.7c-0.4-0.2-0.8-0.3-1.3-0.5C129.2,73,128.2,76,127.3,79z M157.6,181.3
		c0.3,0.2,0.6,0.4,0.8,0.5c2.3-2.7,4.5-5.3,6.8-8c-0.2-0.1-0.3-0.3-0.5-0.4C162.3,176,160,178.6,157.6,181.3z M138.3,143.9
		c-0.2,0-0.4,0-0.6,0.1c-0.1,1.7-0.2,3.3-0.2,5c0.3,0,0.5,0,0.8,0C138.3,147.3,138.3,145.6,138.3,143.9z M188.4,54.3
		c0.3,0,0.6-0.1,0.8-0.1c-0.4-2.1-0.9-4.1-1.3-6.2c-0.2,0-0.4,0.1-0.6,0.1C187.7,50.2,188,52.3,188.4,54.3z M205.6,72.1
		c0.3-0.1,0.7-0.3,1-0.4c-0.4-1-0.8-2-1.3-3c-0.2,0.1-0.5,0.2-0.7,0.3C204.9,70,205.2,71.1,205.6,72.1z M227.5,273.9
		c0.3,0.2,0.6,0.5,0.9,0.7c0.7-1,1.4-2,2-3c-0.2-0.2-0.4-0.3-0.5-0.5C229.1,272.1,228.3,273,227.5,273.9z M171.9,36.2
		c-0.3,0-0.5-0.1-0.8-0.1c-0.1,1.4-0.1,2.7-0.2,4.1c0.2,0,0.4,0,0.5,0C171.6,38.8,171.7,37.5,171.9,36.2z M191.5,47.7
		c0.2,1.3,0.3,2,0.5,3.2c0.8-0.7,1.3-1,2.1-1.6C193.1,48.7,192.5,48.3,191.5,47.7z M139.6,303.9c-1.3-1.3-1.7-1.2-3,1.3
		C137.5,304.8,138.5,304.4,139.6,303.9z M198.2,83.5c0.1,0,0.2,0,0.3-0.1c-0.2-1.6-0.4-3.2-0.5-4.8c-0.2,0-0.4,0.1-0.6,0.1
		C197.6,80.3,197.9,81.9,198.2,83.5z M157.1,39.3c0.5-0.6,1-1.2,1.7-2C156.2,37.5,156.2,37.5,157.1,39.3z"/>
	<path d="M95.3,95.4c2.5-0.1,3.7,1.9,4.2,3.8c0.3,1.2-0.2,3.3-1.1,4.2c-1.3,1.2-1.4,1.9-0.4,3.2c0.7,0.9,1.1,2,1.4,3.1
		c0.1,0.5-0.4,1.2-0.6,1.8c-0.6-0.2-1.4-0.2-1.7-0.6c-1.8-3-3.6-6.1-5.1-9.2C90.7,99.2,92.8,95.5,95.3,95.4z M95.8,98
		c-0.4,0.2-0.9,0.4-1.3,0.6c0.4,1,0.8,2.1,1.2,3.1c0.5-0.3,1.3-0.8,1.3-0.9C96.7,99.8,96.2,98.9,95.8,98z"/>
	<path d="M79,111.1c5.8-0.4,7.1,0.2,7.3,2.9c0.2,2.5-2.1,5.5-4.2,5.7c-1.6,0.1-1.7,0-1.9-1.9c1.1-0.5,2.3-0.7,2.9-1.5
		c0.5-0.6,0.4-1.8,0.6-2.7c-0.9-0.1-1.8-0.4-2.7-0.2c-3.3,0.9-4.6-0.3-3.9-3.8c0.6-3.1,1.4-4,3.4-3.5C80,107.7,79.5,109.3,79,111.1z
		"/>
	<path d="M89.3,111.2c-1.4-2.1-2.8-3.9-4-5.9c-0.3-0.5-0.1-1.4-0.1-2.2c0.7,0.2,1.5,0.3,2,0.7c1.2,1.3,2.3,2.7,3.3,4.1
		C91.6,109.6,91.1,110.6,89.3,111.2z"/>
	<path d="M86.8,98.9c-0.8,0.6-1.3,1.3-1.8,1.3c-0.4,0-1.2-0.8-1.2-1c0.2-0.6,0.7-1.2,1.2-1.4C85.4,97.7,86,98.3,86.8,98.9z"/>
	<path d="M220.5,292.4c-0.6,0.9-0.8,1.4-1.1,1.7c-2.9,1.8-5.8,3.6-8.8,5.2c-0.5,0.3-1.4-0.2-2.1-0.4c0.2-0.7,0.1-1.8,0.5-2.1
		c3.1-1.7,6.3-3.3,9.5-4.9C219,291.8,219.7,292.2,220.5,292.4z"/>
	<path d="M188,71.8c-0.3,0.5-0.6,1.1-0.8,1.1c-0.6-0.1-1.4-0.2-1.9-0.6c-2.2-2-4.8-3-7.5-2.3c-2.2,0.6-4.2,2.3-6.3,3.3
		c-1,0.5-2.1,0.7-3.1,1.1c0.1-1.1-0.2-2.5,0.4-3.3c4-5.7,13.7-6.4,17.8-1.5C187.1,70.2,187.5,71,188,71.8z"/>
	<path d="M167.6,104.6c-3.6-0.3-5.7-2-6.8-4.4c-0.5-1.2,0.5-3.1,1-4.6c0.2-0.4,1.1-0.6,1.6-0.9c0.2,0.7,0.8,1.4,0.7,2
		c-0.7,3.8-0.8,3.7,3.3,4.8c0.7,0.2,1.2,1.1,1.8,1.7C168.5,103.7,167.8,104.3,167.6,104.6z"/>
	<path d="M177,83.2c-0.9,1.4-1.3,2.3-1.8,3c-0.5,0.6-1.1,1.1-1.7,1.6c-0.5-0.8-1.3-1.6-1.3-2.4c-0.1-2.4,2.9-5.4,5.6-5.9
		c3.1-0.6,7.1,1.2,7.9,3.5c0.5,1.3,0.4,2.6-1.1,3.4c-1,0.5-1.9,1.3-3,1.6C178.5,88.6,177.4,86.6,177,83.2z"/>
</g>
</svg>
