<?xml version="1.0" encoding="utf-8"?>
<!-- Generator: Adobe Illustrator 23.1.0, SVG Export Plug-In . SVG Version: 6.00 Build 0)  -->
<svg version="1.1" id="Layer_1" xmlns="http://www.w3.org/2000/svg" xmlns:xlink="http://www.w3.org/1999/xlink" x="0px" y="0px"
	 viewBox="0 0 100 100" style="enable-background:new 0 0 100 100;" xml:space="preserve">
<g>
	<path d="M43.8,24.9c0,6.6,0,45.1,0,50.1c0,6.3-6.3,8.1-9.8,4.6L8.2,54.2c-2.3-2.3-2.5-6.1-0.1-8.4l25.5-25.3
		C36.8,17.3,43.8,18.7,43.8,24.9z"/>
	<path d="M58.3,54.2c-2.3-2.3-2.4-6.1-0.1-8.5l25.5-25.3c3.2-3.2,10.2-1.8,10.2,4.5c0,6.6,0,45.1,0,50.1c0,6.3-6.2,8.1-9.8,4.6
		L58.3,54.2z"/>
</g>
</svg>
